<?xml version="1.0" standalone="no"?>
<!DOCTYPE svg PUBLIC "-//W3C//DTD SVG 20010904//EN"
 "http://www.w3.org/TR/2001/REC-SVG-20010904/DTD/svg10.dtd">
<svg version="1.0" xmlns="http://www.w3.org/2000/svg"
 width="500.000000pt" height="500.000000pt" viewBox="0 0 500.000000 500.000000"
 preserveAspectRatio="xMidYMid meet">

<g transform="translate(0.000000,500.000000) scale(0.100000,-0.100000)"
fill="#000000" stroke="none">
<path d="M1710 4100 l0 -830 543 -2 c298 -2 671 -2 830 0 l287 3 -2 827 -3
827 -827 3 -828 2 0 -830z m1560 0 l0 -730 -202 0 -203 0 0 73 c-1 129 -66
232 -183 289 -59 29 -76 33 -147 33 -61 0 -91 -6 -128 -22 -127 -59 -198 -168
-199 -305 l0 -68 -199 0 -199 0 0 730 0 730 730 0 730 0 0 -730z m-654 -415
c116 -34 203 -174 179 -285 l-7 -30 -253 0 -254 0 -3 38 c-8 95 34 193 102
238 81 54 149 65 236 39z"/>
<path d="M2470 4594 c-34 -81 -64 -154 -67 -161 -4 -10 7 -13 41 -13 l46 0 0
-163 c0 -163 5 -187 36 -187 7 0 20 7 28 16 13 13 16 43 16 175 l0 159 50 0
c28 0 50 4 50 10 0 9 -127 300 -134 307 -2 2 -32 -62 -66 -143z"/>
<path d="M2516 4037 c-24 -18 -19 -225 6 -240 12 -8 21 -7 32 2 13 11 16 35
16 122 0 95 -2 109 -19 118 -13 7 -23 7 -35 -2z"/>
<path d="M2097 3863 c-18 -17 -1 -46 72 -116 43 -42 83 -77 88 -77 14 0 33 22
33 39 0 24 -141 161 -166 161 -11 0 -24 -3 -27 -7z"/>
<path d="M2851 3796 c-73 -76 -82 -99 -49 -120 15 -9 30 2 98 69 86 85 99 117
50 123 -21 2 -40 -12 -99 -72z"/>
<path d="M1934 3445 c-15 -39 1 -45 125 -45 96 0 120 3 125 15 15 39 -1 45
-125 45 -97 0 -121 -3 -125 -15z"/>
<path d="M2904 3445 c-3 -8 -3 -22 0 -30 5 -13 25 -15 123 -13 l118 3 0 25 0
25 -118 3 c-98 2 -118 0 -123 -13z"/>
<path d="M3735 3490 c-163 -21 -303 -78 -338 -138 -17 -29 -17 -40 2 -304 12
-150 23 -288 25 -305 l5 -33 -655 0 -654 0 -73 73 c-80 79 -149 120 -272 161
-181 61 -298 72 -396 37 -167 -59 -320 -159 -385 -252 -39 -57 -57 -52 -144
48 -98 112 -380 402 -403 414 -22 12 -66 -33 -143 -147 -89 -133 -145 -273
-164 -414 -7 -51 -17 -81 -32 -97 -18 -19 -20 -30 -14 -72 11 -86 118 -397
230 -667 l25 -61 -48 -124 c-27 -68 -94 -256 -150 -418 l-102 -294 3 -151 3
-151 78 -14 77 -14 0 -213 c0 -227 -1 -224 51 -224 18 0 19 10 19 211 l0 211
22 -5 c13 -3 51 -9 86 -13 l62 -7 0 -198 c0 -211 -1 -206 48 -193 22 6 22 8
22 196 l0 190 38 -6 c205 -31 490 -45 672 -33 179 11 1134 2 1325 -12 77 -6
212 -18 300 -27 184 -19 626 -15 1165 11 168 8 329 15 358 15 l52 0 0 -164 0
-164 30 -7 c16 -4 34 -4 40 0 6 4 10 68 10 166 l0 159 58 0 c109 0 102 10 102
-166 0 -93 4 -155 10 -159 6 -4 24 -4 40 0 l30 7 0 159 0 159 65 0 c81 0 113
14 123 54 5 17 5 123 2 236 -7 201 -8 208 -49 352 -106 375 -307 934 -495
1378 l-36 85 31 355 c16 195 31 366 31 380 3 77 -94 141 -267 176 -88 18 -327
26 -420 14z m459 -79 c86 -23 160 -61 170 -87 17 -44 -63 -96 -199 -131 -55
-14 -111 -18 -265 -17 -199 0 -254 7 -364 50 -164 63 -113 144 123 195 123 27
419 21 535 -10z m-604 -260 c114 -32 297 -45 432 -32 131 13 256 42 305 71
l33 19 -6 -67 c-3 -37 -22 -268 -43 -513 -21 -245 -41 -451 -45 -457 -11 -18
-74 -47 -130 -61 -180 -44 -528 -25 -591 32 -23 22 -24 31 -59 512 -20 270
-38 504 -39 522 l-3 31 37 -19 c20 -10 69 -27 109 -38z m-3004 -148 l144 -148
0 -90 c0 -167 29 -273 99 -359 50 -62 44 -69 -46 -61 -251 21 -462 56 -558 92
l-50 19 2 96 c2 119 28 219 88 345 39 80 157 253 172 253 3 0 70 -66 149 -147z
m1094 -72 c166 -45 287 -113 370 -208 43 -50 124 -205 135 -259 5 -29 3 -33
-26 -43 -47 -16 -252 -48 -429 -66 -150 -16 -677 -27 -784 -17 l-48 4 6 59 c7
57 22 98 95 251 55 115 203 225 391 289 68 24 180 20 290 -10z m-834 -207 c61
-69 66 -78 51 -89 -22 -16 -22 -41 0 -53 15 -9 15 -14 -5 -60 -12 -28 -22 -58
-22 -67 0 -29 -24 -10 -52 41 -15 27 -32 79 -37 114 -10 62 -15 190 -7 190 2
0 34 -34 72 -76z m2586 -104 c1 -11 2 -32 4 -47 38 -477 34 -457 94 -488 118
-61 465 -72 645 -19 68 20 127 54 141 83 7 13 15 72 19 130 4 58 10 110 13
115 14 25 315 -779 421 -1125 92 -303 100 -342 101 -539 1 -96 1 -181 1 -189
-1 -12 -41 -13 -258 -7 -184 5 -357 2 -603 -10 -487 -23 -1034 -24 -1265 -2
-99 10 -272 22 -384 28 -230 11 -976 12 -1151 1 -142 -9 -369 2 -601 29 -183
21 -463 65 -480 75 -5 4 -9 57 -9 119 l0 113 84 244 c87 252 184 520 191 527
2 3 21 -9 42 -25 85 -66 225 -82 713 -83 477 0 718 22 827 75 153 76 276 347
349 772 22 132 19 142 -76 179 -39 16 -76 37 -81 47 -9 16 24 17 626 17 628 0
635 0 637 -20z m-1146 -111 c17 -14 8 -34 -23 -48 -30 -14 -26 -17 -46 41
l-16 48 36 -15 c20 -9 42 -20 49 -26z m-12 -161 c-8 -40 -15 -77 -16 -83 -1
-5 -4 22 -7 60 -5 54 -3 73 8 83 27 22 29 13 15 -60z m-2011 32 c101 -29 280
-57 451 -71 l146 -13 0 -40 c0 -62 26 -159 60 -226 17 -33 26 -60 21 -60 -6 0
-13 4 -16 10 -3 5 -24 14 -46 20 -33 9 -39 14 -33 28 4 9 10 43 12 74 3 46 -1
65 -18 92 -54 89 -178 105 -256 34 -19 -17 -26 -17 -65 -7 -63 16 -117 0 -163
-51 -20 -22 -36 -47 -36 -55 0 -35 -21 -9 -64 78 -39 80 -82 207 -70 207 2 0
37 -9 77 -20z m1941 -115 c-1 -93 -5 -119 -26 -173 -41 -99 -88 -170 -164
-249 -106 -108 -240 -166 -419 -180 l-80 -6 26 29 c46 51 71 103 67 134 -3 22
0 31 14 36 27 8 22 31 -14 65 l-33 30 45 -4 c25 -3 53 -8 64 -12 17 -8 17 -6
2 23 -18 35 -43 52 -76 52 -19 0 -21 4 -16 26 4 14 4 34 1 44 -5 15 -11 17
-36 10 -27 -8 -34 -5 -62 27 -18 20 -37 43 -43 50 -9 13 -12 13 -23 0 -11 -14
-16 -13 -48 5 -97 58 -217 0 -320 -155 -43 -65 -47 -69 -61 -51 -47 61 -102
223 -102 301 l0 23 288 0 c414 1 715 24 902 70 120 29 115 34 114 -95z m-860
-111 c11 -4 16 -19 16 -48 0 -23 7 -52 16 -64 15 -22 14 -24 -10 -43 -15 -12
-33 -34 -41 -50 -15 -27 -14 -29 4 -29 11 0 35 -8 54 -17 32 -17 34 -20 30
-63 -3 -25 -9 -55 -15 -67 -6 -13 -9 -25 -6 -28 5 -5 88 53 100 70 11 15 41
-7 52 -39 9 -23 5 -31 -29 -66 -79 -81 -212 -102 -348 -56 -85 29 -166 72
-174 94 -9 22 32 139 74 211 88 148 197 226 277 195z m132 -66 l29 -31 -32 23
c-18 13 -33 27 -33 32 0 13 5 10 36 -24z m-1150 -91 c15 -27 14 -28 -6 -25
-21 3 -44 47 -66 123 -6 21 46 -50 72 -98z m1118 62 c26 -20 35 -49 16 -49 -6
0 -22 12 -35 26 -42 45 -28 60 19 23z m95 -52 c-32 -26 -38 -3 -8 30 21 22 24
23 28 7 2 -10 -7 -26 -20 -37z m-88 -27 c26 -15 24 -38 -6 -52 -19 -9 -29 -7
-51 7 l-28 18 23 18 c27 22 35 23 62 9z m712 -37 c-46 -111 -121 -233 -143
-233 -4 0 -11 12 -14 26 -6 22 1 35 42 78 27 28 66 77 87 109 21 31 39 57 41
57 2 0 -4 -17 -13 -37z m-603 -25 c36 -26 38 -38 8 -31 -30 8 -48 22 -48 39 0
19 6 18 40 -8z m-70 -32 c0 -13 -9 -34 -20 -47 l-19 -24 -1 36 c0 33 14 59 32
59 4 0 8 -11 8 -24z m78 -44 c26 -33 11 -43 -18 -12 -16 18 -30 34 -30 36 0 8
36 -10 48 -24z m400 -140 c2 -13 -6 -26 -22 -37 -39 -26 -197 -53 -371 -65
-152 -10 -278 -12 -225 -3 14 2 43 8 65 14 22 5 94 11 160 13 128 3 227 28
325 81 51 27 64 27 68 -3z m-948 -22 l35 -19 -52 -1 c-54 0 -63 6 -41 28 15
15 16 15 58 -8z m-266 -35 c21 -9 61 -16 89 -15 80 1 347 -18 397 -29 51 -11
-513 -6 -587 5 l-43 7 38 37 c31 31 39 35 52 24 9 -7 33 -20 54 -29z"/>
<path d="M2885 2039 c-160 -24 -335 -83 -463 -158 -68 -40 -221 -178 -255
-231 -20 -31 -67 -222 -67 -272 0 -25 7 -45 21 -59 20 -20 21 -20 40 -3 11 10
28 36 38 58 l17 40 23 -47 c26 -54 63 -86 135 -117 98 -42 586 -153 766 -174
251 -30 345 -49 439 -87 112 -44 129 -47 162 -20 22 17 43 19 214 18 211 0
330 19 432 69 44 21 56 33 79 80 26 52 27 59 16 112 -6 32 -14 66 -17 77 -4
15 12 38 62 92 l68 72 25 -20 c54 -43 59 -43 49 2 -17 74 -48 152 -71 177 -63
66 -350 197 -536 243 -64 16 -241 52 -392 79 -151 28 -309 58 -350 65 -83 16
-338 18 -435 4z m464 -60 l44 -12 -86 -28 c-124 -40 -185 -74 -193 -105 -4
-17 -1 -31 8 -40 30 -31 81 -27 326 25 133 28 263 51 287 51 27 0 63 -9 88
-21 51 -26 50 -27 -103 -58 -109 -23 -226 -72 -244 -103 -14 -23 3 -52 33 -56
12 -2 121 18 244 43 122 26 245 48 272 48 136 2 379 -131 401 -219 20 -80
-196 -143 -441 -130 -275 15 -452 42 -1015 152 -653 127 -660 129 -660 178 0
42 74 103 205 168 108 55 282 104 425 122 66 8 365 -3 409 -15z m215 -71 c21
-5 36 -11 35 -12 -2 -2 -95 -23 -207 -46 -151 -32 -208 -40 -225 -33 -21 10
-21 11 13 28 19 10 78 33 130 51 99 34 157 37 254 12z m133 16 c-3 -3 -12 -4
-19 -1 -8 3 -5 6 6 6 11 1 17 -2 13 -5z m310 -59 c158 -34 451 -154 537 -220
35 -27 89 -130 57 -111 -5 4 -52 -39 -103 -94 -89 -94 -100 -102 -195 -144
-115 -51 -285 -93 -268 -66 8 13 -2 13 -63 -1 -43 -9 -56 -18 -100 -72 -65
-80 -156 -167 -176 -167 -30 0 -216 80 -587 253 -223 104 -263 117 -469 147
-74 11 -199 32 -277 47 -161 30 -158 31 -198 -46 l-24 -46 -1 34 c0 41 38 206
55 241 19 36 65 78 65 58 0 -18 34 -50 75 -71 30 -15 889 -188 1120 -226 411
-67 666 -78 823 -36 97 26 160 53 181 79 27 33 29 69 5 117 -45 90 -171 173
-329 217 -38 11 -83 27 -100 36 -16 9 -46 19 -67 22 -35 6 -118 74 -90 74 7 0
65 -11 129 -25z m-72 -93 c35 -6 14 -13 -170 -50 -115 -24 -219 -45 -230 -48
l-20 -5 20 16 c26 20 159 62 255 79 90 17 94 17 145 8z m-1578 -376 c37 -8
147 -26 243 -41 96 -14 201 -33 234 -41 52 -14 458 -195 452 -202 -4 -4 -323
45 -421 64 -44 9 -143 31 -220 50 -253 63 -323 91 -350 144 -24 47 -29 45 62
26z m2069 -128 c18 -83 -9 -148 -73 -175 -81 -33 -216 -53 -371 -53 l-154 0
34 41 c18 23 40 50 48 61 12 14 45 23 135 38 127 20 190 39 295 88 36 17 68
31 72 31 3 1 10 -14 14 -31z"/>
<path d="M2765 940 c-93 -5 -291 -16 -440 -26 -305 -19 -943 -15 -1315 8 -113
7 -349 13 -525 13 -313 0 -320 0 -320 -20 0 -19 9 -20 350 -27 193 -3 424 -11
515 -17 308 -21 1029 -25 1285 -7 503 34 823 40 1262 26 394 -13 987 -8 1133
9 46 5 55 9 55 26 0 19 -5 20 -180 15 -248 -7 -793 -6 -1260 2 -214 4 -466 3
-560 -2z"/>
<path d="M1280 2074 c0 -9 5 -14 12 -12 18 6 21 28 4 28 -9 0 -16 -7 -16 -16z"/>
<path d="M1167 2043 c-13 -13 -7 -32 8 -27 8 4 15 12 15 20 0 15 -12 19 -23 7z"/>
<path d="M1290 1995 c-18 -21 -3 -32 16 -13 10 9 12 18 6 22 -5 3 -15 -1 -22
-9z"/>
<path d="M1115 1939 c-4 -6 -5 -13 -2 -16 7 -7 27 6 27 18 0 12 -17 12 -25 -2z"/>
<path d="M1207 1933 c-12 -11 -8 -23 8 -23 8 0 15 7 15 15 0 16 -12 20 -23 8z"/>
<path d="M1337 1883 c-12 -11 -8 -23 8 -23 8 0 15 7 15 15 0 16 -12 20 -23 8z"/>
<path d="M1090 1864 c0 -17 22 -14 28 4 2 7 -3 12 -12 12 -9 0 -16 -7 -16 -16z"/>
<path d="M1020 1820 c-11 -7 -12 -12 -4 -20 8 -8 14 -7 23 4 14 17 1 28 -19
16z"/>
<path d="M1297 1813 c-12 -11 -8 -23 8 -23 8 0 15 7 15 15 0 16 -12 20 -23 8z"/>
<path d="M1170 1794 c0 -17 22 -14 28 4 2 7 -3 12 -12 12 -9 0 -16 -7 -16 -16z"/>
<path d="M1505 1759 c-10 -15 1 -23 20 -15 9 3 13 10 10 16 -8 13 -22 13 -30
-1z"/>
<path d="M1080 1725 c-18 -21 -3 -32 16 -13 10 9 12 18 6 22 -5 3 -15 -1 -22
-9z"/>
<path d="M1237 1703 c-12 -11 -8 -23 8 -23 8 0 15 7 15 15 0 16 -12 20 -23 8z"/>
<path d="M1359 1664 c-12 -14 -11 -16 5 -13 11 2 21 10 24 17 5 17 -13 15 -29
-4z"/>
</g>
</svg>
