<?xml version="1.0" encoding="UTF-8"?>
<!-- Generator: visioncortex VTracer 0.6.4 -->
<svg version="1.1" xmlns="http://www.w3.org/2000/svg" width="500" height="500">
<path d="M0 0 C0.7 0 1.41 0 2.13 0.01 C18.28 0.08 38.7 0.33 50.98 12.53 C55.51 18.58 52.98 29.63 52.32 36.61 C52.2 37.87 52.09 39.13 51.98 40.43 C51.68 43.78 51.37 47.12 51.06 50.46 C50.63 55.15 50.2 59.83 49.78 64.51 C49.56 67 49.34 69.48 49.1 71.96 C47.21 87.79 47.21 87.79 50.59 102.98 C51.1 104.12 51.6 105.26 52.12 106.43 C52.53 107.31 52.53 107.31 52.95 108.21 C54.5 111.54 55.95 114.91 57.41 118.27 C57.88 119.35 57.88 119.35 58.37 120.45 C62.29 129.44 65.78 138.58 69.25 147.75 C69.59 148.63 69.92 149.52 70.27 150.43 C81.41 179.88 92.01 209.49 100.36 239.87 C100.94 241.97 101.55 244.06 102.21 246.14 C104.99 255.49 104.99 265.06 105.19 274.74 C105.25 277.77 105.35 280.79 105.46 283.82 C105.5 285.75 105.55 287.69 105.59 289.62 C105.64 290.97 105.64 290.97 105.69 292.35 C105.74 296.42 105.63 298.74 103.61 302.36 C98.44 306.76 91.83 305.31 85.31 305.31 C85.31 315.87 85.31 326.43 85.31 337.31 C84.32 337.31 83.33 337.31 82.31 337.31 C82.31 337.97 82.31 338.63 82.31 339.31 C73.73 339.31 65.15 339.31 56.31 339.31 C56.31 338.65 56.31 337.99 56.31 337.31 C55.32 337.31 54.33 337.31 53.31 337.31 C53.31 326.09 53.31 314.87 53.31 303.31 C50.67 303.64 48.03 303.97 45.31 304.31 C43.07 304.46 40.82 304.59 38.57 304.69 C37.28 304.74 36 304.8 34.68 304.86 C33.29 304.92 31.91 304.97 30.52 305.03 C29.06 305.09 27.6 305.16 26.15 305.22 C22.27 305.39 18.4 305.55 14.52 305.71 C12.12 305.81 9.72 305.91 7.32 306.02 C-36.84 307.88 -36.84 307.88 -58.16 308.25 C-61.43 308.31 -64.7 308.4 -67.97 308.51 C-82.21 308.85 -96.21 307.69 -110.38 306.44 C-145.81 303.32 -181.12 302.14 -216.69 302.12 C-217.73 302.12 -217.73 302.12 -218.79 302.12 C-234.43 302.11 -250.03 302.27 -265.65 303.08 C-289.35 304.27 -313.2 302.67 -336.69 299.31 C-336.69 311.85 -336.69 324.39 -336.69 337.31 C-337.68 337.31 -338.67 337.31 -339.69 337.31 C-339.69 337.97 -339.69 338.63 -339.69 339.31 C-348.6 339.31 -357.51 339.31 -366.69 339.31 C-366.69 338.65 -366.69 337.99 -366.69 337.31 C-367.68 337.31 -368.67 337.31 -369.69 337.31 C-370.02 323.12 -370.35 308.93 -370.69 294.31 C-377.62 292.83 -377.62 292.83 -384.69 291.31 C-388.83 257.15 -375.8 226.92 -363.02 195.77 C-362.59 194.72 -362.17 193.68 -361.73 192.6 C-360.93 190.64 -360.12 188.69 -359.29 186.74 C-356.27 179.33 -356.6 174.36 -359.69 166.93 C-360.1 165.94 -360.51 164.95 -360.93 163.93 C-361.58 162.35 -361.58 162.35 -362.25 160.75 C-383.32 109.12 -383.32 109.12 -380.69 97.31 C-379.97 96.68 -379.97 96.68 -379.24 96.04 C-376.73 93.25 -376.82 89.72 -376.38 86.12 C-373.54 66.92 -364.74 48.73 -351.69 34.31 C-351.05 33.54 -350.42 32.78 -349.77 31.98 C-347.69 30.31 -347.69 30.31 -345.14 30.34 C-342.3 31.46 -341.24 32.54 -339.38 34.94 C-336.99 37.84 -334.61 40.38 -331.75 42.81 C-325.62 48.03 -320.12 53.72 -314.89 59.82 C-311.16 64.04 -307.27 68.12 -303.4 72.21 C-302.81 72.84 -302.21 73.47 -301.6 74.12 C-301.06 74.68 -300.53 75.25 -299.98 75.84 C-298.69 77.31 -298.69 77.31 -297.69 79.31 C-295.16 79.97 -295.16 79.97 -292.69 80.31 C-292.46 79.76 -292.24 79.21 -292.01 78.65 C-290.27 75.58 -288.06 73.42 -285.56 70.94 C-284.2 69.56 -284.2 69.56 -282.8 68.16 C-276.56 62.29 -270.19 58.27 -262.25 55.06 C-261.46 54.72 -260.66 54.39 -259.84 54.04 C-240.19 45.92 -221.74 50.46 -202.69 58.31 C-194.36 62.01 -184.68 67.6 -180.32 75.91 C-175.96 79.88 -170.99 79.01 -165.3 78.97 C-164.03 78.98 -162.76 78.99 -161.46 79 C-157.98 79.03 -154.51 79.03 -151.03 79.02 C-147.4 79.02 -143.77 79.04 -140.13 79.07 C-133.25 79.1 -126.38 79.11 -119.5 79.12 C-111.67 79.12 -103.84 79.16 -96.01 79.19 C-79.9 79.26 -63.79 79.3 -47.69 79.31 C-47.77 78.46 -47.86 77.6 -47.95 76.72 C-48.28 73.49 -48.61 70.27 -48.93 67.04 C-49.07 65.65 -49.21 64.27 -49.35 62.88 C-50.43 52.36 -51.34 41.88 -51.69 31.31 C-51.71 30.62 -51.74 29.92 -51.77 29.2 C-51.85 27.13 -51.9 25.07 -51.94 23 C-51.96 21.83 -51.99 20.66 -52.02 19.45 C-51.58 15.26 -50.21 12.7 -47.1 9.87 C-33.06 1.07 -16.14 -0.09 0 0 Z " fill="#070605" transform="translate(389.6875,149.6875)"/>
<path d="M0 0 C42.24 0 84.48 0 128 0 C128.99 14.19 129.98 28.38 131 43 C132 51.72 132 51.72 136.38 54.94 C141.62 57.7 147.17 58.35 153 59 C153.81 59.11 154.61 59.22 155.44 59.34 C175.33 61.7 194.2 59.96 213 53 C213 52.34 213 51.68 213 51 C213.66 51 214.32 51 215 51 C215.88 47.86 216.26 44.83 216.54 41.58 C216.62 40.55 216.71 39.53 216.8 38.47 C216.89 37.41 216.97 36.35 217.06 35.25 C217.2 33.63 217.2 33.63 217.34 31.98 C217.56 29.32 217.78 26.66 218 24 C218.66 24 219.32 24 220 24 C232.06 53.72 243.59 83.6 254 113.94 C254.31 114.83 254.62 115.73 254.94 116.65 C258.96 128.32 262.51 140.05 265.65 151.99 C266.72 156.08 268.02 160.06 269.36 164.07 C271.98 173.17 271.43 182.5 271.25 191.88 C271.23 193.74 271.21 195.6 271.2 197.46 C271.15 201.98 271.08 206.49 271 211 C270.06 210.99 270.06 210.99 269.11 210.99 C240.51 210.79 211.96 210.77 183.38 211.94 C182.31 211.98 181.24 212.02 180.14 212.07 C168.04 212.55 168.04 212.55 155.95 213.28 C142.01 214.27 128.05 214.19 114.08 214.19 C111.07 214.19 108.06 214.19 105.05 214.21 C89.24 214.28 73.68 214.2 58 212 C30.98 209.28 3.85 208.84 -23.29 208.96 C-27.62 208.97 -31.96 208.98 -36.29 208.99 C-48.6 209.02 -60.9 209.05 -73.2 209.1 C-80.05 209.12 -86.9 209.14 -93.75 209.15 C-97.34 209.15 -100.94 209.16 -104.53 209.18 C-120.8 209.26 -136.83 208.93 -153 207 C-154.13 206.87 -155.25 206.74 -156.42 206.6 C-158.96 206.29 -161.49 205.94 -164.02 205.56 C-164.9 205.44 -165.78 205.31 -166.69 205.18 C-168.49 204.92 -170.3 204.66 -172.11 204.4 C-174.86 203.99 -177.6 203.6 -180.35 203.21 C-182.14 202.95 -183.92 202.7 -185.71 202.44 C-186.51 202.32 -187.31 202.21 -188.14 202.09 C-193.49 201.3 -198.74 200.24 -204 199 C-204.09 194.73 -204.14 190.46 -204.19 186.19 C-204.21 184.97 -204.24 183.76 -204.26 182.51 C-204.27 181.34 -204.28 180.18 -204.29 178.98 C-204.31 177.91 -204.32 176.83 -204.34 175.73 C-204 173 -204 173 -202.54 171.13 C-201 170 -201 170 -200 170 C-200 171.65 -200 173.3 -200 175 C-198.9 174.99 -198.9 174.99 -197.78 174.99 C-190.71 174.95 -183.64 174.92 -176.57 174.9 C-172.94 174.89 -169.31 174.87 -165.68 174.85 C-147.8 174.74 -130.13 175.22 -112.29 176.49 C-88.99 178.16 -65.66 178.24 -42.31 178.25 C-41.48 178.25 -40.64 178.25 -39.79 178.25 C-7.98 178.29 23.6 177.06 55.34 174.84 C68.1 173.96 80.84 173.85 93.63 173.87 C97.03 173.87 100.44 173.87 103.84 173.86 C114.54 173.86 125.2 174 135.89 174.5 C150.89 175.19 165.88 175.15 180.9 175.13 C184.91 175.12 188.91 175.13 192.92 175.13 C215.63 175.16 238.31 174.73 261 174 C260.67 172.35 260.34 170.7 260 169 C259.23 169.07 258.46 169.14 257.67 169.22 C246.82 170.11 236.04 170.13 225.16 170.1 C223.19 170.1 221.21 170.09 219.24 170.09 C214.09 170.09 208.93 170.08 203.78 170.07 C198.51 170.06 193.23 170.05 187.95 170.05 C177.64 170.04 167.32 170.02 157 170 C158.3 167.53 158.3 167.53 160 165 C163.22 164.5 163.22 164.5 167.21 164.65 C168.69 164.69 170.17 164.73 171.64 164.76 C172.8 164.81 172.8 164.81 173.99 164.85 C201.35 166.12 201.35 166.12 226 156 C230.5 151.21 232.17 146.78 232.19 140.23 C231.99 137.86 231.35 135.95 230.59 133.7 C229.93 130.86 229.7 129.57 231.05 126.96 C232.72 124.97 234.47 123.21 236.38 121.44 C237 120.81 237.63 120.18 238.28 119.54 C239.83 118 241.41 116.5 243 115 C245.64 116.65 248.28 118.3 251 120 C250.43 117.62 249.85 115.25 249.25 112.88 C249.09 112.21 248.94 111.54 248.77 110.86 C246.79 103.08 243.25 98.68 236.48 94.43 C232.45 92.1 228.34 90.03 224.12 88.06 C223.21 87.64 222.3 87.21 221.37 86.77 C206.22 79.77 191.39 74.97 175 72 C173.62 71.75 172.24 71.49 170.86 71.23 C170.11 71.1 169.36 70.96 168.59 70.82 C167 70.52 165.42 70.23 163.83 69.93 C159.66 69.16 155.49 68.4 151.31 67.65 C144.24 66.38 137.2 65.1 130.21 63.44 C118.03 60.56 106.41 59.53 93.94 59.5 C93.21 59.5 92.48 59.49 91.73 59.49 C64.31 59.42 33.57 66.9 13 86 C11.33 88 9.66 90 8 92 C7.15 92.64 6.31 93.28 5.44 93.94 C-0.15 98.66 -1.82 104.98 -3.25 111.88 C-3.51 113 -3.51 113 -3.77 114.15 C-4.9 119.36 -5.7 124.68 -5 130 C-4.34 130.99 -3.68 131.98 -3 133 C0.5 131.6 1.71 130.29 3.25 126.88 C3.59 126.15 3.92 125.43 4.27 124.68 C4.63 123.85 4.63 123.85 5 123 C5.66 123 6.32 123 7 123 C7.39 124.05 7.78 125.1 8.19 126.19 C11.53 133.81 17.68 136.84 25 140 C29.06 141.36 33.16 142.45 37.31 143.5 C38.43 143.79 39.56 144.09 40.71 144.39 C51.1 147.08 61.54 149.59 72 152 C72 152.66 72 153.32 72 154 C50.9 154.18 29.79 154.34 8.69 154.5 C7.9 154.51 7.11 154.51 6.3 154.52 C-40.91 154.87 -88.11 155.09 -135.31 155.06 C-136.57 155.06 -137.82 155.06 -139.11 155.06 C-154.08 155.05 -169.04 155.03 -184 155 C-181.98 145.55 -181.98 145.55 -180.49 141.21 C-180.21 140.39 -179.93 139.57 -179.64 138.73 C-179.34 137.88 -179.05 137.03 -178.74 136.15 C-178.28 134.81 -178.28 134.81 -177.81 133.43 C-176.84 130.6 -175.86 127.77 -174.88 124.94 C-174.21 123 -173.54 121.07 -172.88 119.13 C-171.26 114.42 -169.63 109.71 -168 105 C-163.15 105.48 -158.44 106.1 -153.65 107.05 C-145 108.52 -136.29 108.29 -127.54 108.27 C-125.65 108.27 -123.77 108.27 -121.89 108.27 C-117.95 108.27 -114.01 108.27 -110.08 108.26 C-105.1 108.25 -100.11 108.26 -95.13 108.27 C-91.24 108.28 -87.35 108.27 -83.46 108.27 C-81.63 108.27 -79.8 108.27 -77.97 108.27 C-42.49 109.18 -42.49 109.18 -10.9 96.24 C-4.4 89.65 -0.7 81.35 3 73 C3.52 71.83 4.05 70.67 4.59 69.46 C8.25 60.54 10.57 51.3 12.81 41.94 C13.11 40.7 13.42 39.45 13.73 38.17 C15.2 31.76 16.37 25.36 17.01 18.82 C17.13 17.61 17.26 16.39 17.38 15.15 C17.31 11.83 17.31 11.83 14.66 9.64 C11.3 7.57 7.94 6.38 4.21 5.12 C2 4 2 4 0 0 Z " fill="#FCFCFC" transform="translate(216,236)"/>
<path d="M0 0 C1.15 -0 1.15 -0 2.33 -0 C15.41 0.02 27.48 1.67 40.21 4.73 C45.87 6.02 51.59 6.95 57.31 7.94 C84.66 12.78 109.2 18.37 134.31 30.44 C134.99 30.76 135.66 31.08 136.36 31.41 C144.67 35.41 151.12 38.8 154.55 47.63 C156.09 52.37 157.31 56.43 157.31 61.44 C154.65 60.1 151.98 58.77 149.31 57.44 C141.34 64.15 141.34 64.15 136.96 73.02 C137.57 75.27 138.39 77.3 139.31 79.44 C140.27 85.55 138.78 90.44 135.31 95.44 C124.46 106.29 106.8 107.58 92.22 107.59 C87.44 107.58 82.65 107.51 77.87 107.38 C77.12 107.36 76.37 107.35 75.6 107.33 C74.18 107.3 72.76 107.26 71.34 107.2 C69.22 107.12 69.22 107.12 66.31 107.44 C65.65 108.43 64.99 109.42 64.31 110.44 C97.97 110.44 131.63 110.44 166.31 110.44 C166.64 112.09 166.97 113.74 167.31 115.44 C160.44 116.43 153.61 116.76 146.67 116.99 C145.42 117.03 144.16 117.08 142.87 117.12 C127.73 117.59 112.59 117.59 97.45 117.57 C93.37 117.56 89.28 117.57 85.2 117.57 C69.8 117.59 54.44 117.52 39.05 116.81 C27.83 116.3 16.61 116.2 5.38 116.19 C4.26 116.19 3.14 116.18 1.98 116.18 C-19.2 116.17 -40.24 117.22 -61.37 118.68 C-84.39 120.27 -107.33 120.64 -130.4 120.63 C-132.96 120.62 -135.53 120.63 -138.09 120.63 C-165.01 120.62 -191.91 120.33 -218.76 118.19 C-227.53 117.51 -236.26 117.23 -245.05 117.12 C-246.47 117.1 -247.88 117.08 -249.3 117.06 C-252.97 117 -256.64 116.95 -260.32 116.91 C-264.08 116.85 -267.85 116.8 -271.62 116.74 C-278.98 116.64 -286.33 116.54 -293.69 116.44 C-295 114.26 -295.72 112.94 -295.54 110.37 C-295.36 109.65 -295.17 108.94 -294.98 108.2 C-294.78 107.42 -294.58 106.63 -294.37 105.81 C-293.34 102.23 -292.22 98.69 -291 95.16 C-290.74 94.4 -290.48 93.64 -290.22 92.85 C-289.38 90.4 -288.53 87.95 -287.69 85.5 C-287.4 84.66 -287.11 83.83 -286.82 82.97 C-281.79 68.32 -276.43 53.83 -270.69 39.44 C-266.69 41.44 -262.69 43.44 -258.69 45.44 C-259.68 45.77 -260.67 46.1 -261.69 46.44 C-262.49 48.32 -262.49 48.32 -262.96 50.74 C-264.33 56.27 -266.01 61.64 -267.82 67.04 C-268.11 67.9 -268.4 68.75 -268.69 69.64 C-269.58 72.3 -270.48 74.96 -271.38 77.62 C-271.99 79.45 -272.6 81.28 -273.21 83.11 C-274.7 87.55 -276.19 92 -277.69 96.44 C-276 96.42 -276 96.42 -274.27 96.4 C-259.18 96.23 -244.09 96.08 -229 95.94 C-227.75 95.93 -226.51 95.91 -225.23 95.9 C-178.48 95.46 -131.74 95.35 -85 95.38 C-84.21 95.38 -83.41 95.38 -82.6 95.38 C-62.29 95.39 -41.99 95.41 -21.69 95.44 C-21.69 94.78 -21.69 94.12 -21.69 93.44 C-22.82 93.36 -23.94 93.28 -25.11 93.2 C-32.1 92.42 -38.87 90.55 -45.66 88.79 C-47.98 88.19 -50.31 87.61 -52.63 87.03 C-78.58 80.42 -78.58 80.42 -85.56 70.88 C-86.69 68.44 -86.69 68.44 -86.69 64.44 C-87.35 64.44 -88.01 64.44 -88.69 64.44 C-89.06 66.05 -89.06 66.05 -89.44 67.69 C-90.69 71.43 -91.71 72.96 -94.69 75.44 C-98.56 73.69 -98.56 73.69 -99.69 71.44 C-100.63 60.23 -98.29 46.21 -91.33 37.18 C-89.2 34.92 -86.98 32.89 -84.5 31.02 C-82.47 29.34 -82.47 29.34 -80.37 26.54 C-63.01 5.31 -25.32 -0 0 0 Z " fill="#0D0B08" transform="translate(309.6875,294.5625)"/>
<path d="M0 0 C55.11 0 110.22 0 167 0 C167 55.11 167 110.22 167 167 C111.89 167 56.78 167 0 167 C0 111.89 0 56.78 0 0 Z M11 11 C11 58.85 11 106.7 11 156 C24.2 156 37.4 156 51 156 C51 151.71 51 147.42 51 143 C53.39 133.53 57.92 126.04 66.22 120.52 C74.69 116.12 85.55 115.35 94.8 117.72 C97.01 118.66 98.97 119.73 101 121 C101.93 121.51 101.93 121.51 102.88 122.03 C110.22 126.49 113.38 134.14 116 142 C116.5 148.93 116.5 148.93 117 156 C129.87 156 142.74 156 156 156 C156 108.15 156 60.3 156 11 C108.15 11 60.3 11 11 11 Z " fill="#000000" transform="translate(170,7)"/>
<path d="M0 0 C0.33 0 0.66 0 1 0 C0.54 11.29 -0.35 22.53 -1.38 33.78 C-1.44 34.49 -1.5 35.2 -1.57 35.93 C-2.11 41.87 -2.66 47.81 -3.21 53.75 C-3.62 58.19 -4.02 62.63 -4.43 67.07 C-4.56 68.5 -4.69 69.92 -4.82 71.35 C-5.43 77.88 -6.03 84.4 -6.23 90.96 C-6.28 92.23 -6.28 92.23 -6.32 93.52 C-6.35 95 -6.37 96.48 -6.36 97.95 C-6.43 101.33 -6.78 102.76 -9.09 105.28 C-19.66 111.53 -31.3 112.78 -43.34 112.54 C-45.57 112.5 -47.79 112.5 -50.02 112.51 C-72.16 112.42 -72.16 112.42 -80.62 107.47 C-83.87 104.1 -83.95 100.97 -84.21 96.51 C-84.28 95.65 -84.35 94.79 -84.42 93.91 C-84.64 91.08 -84.83 88.25 -85.02 85.41 C-85.17 83.44 -85.32 81.46 -85.47 79.48 C-85.78 75.32 -86.08 71.17 -86.37 67.02 C-86.73 61.72 -87.12 56.43 -87.52 51.15 C-87.9 46.07 -88.27 40.99 -88.64 35.91 C-88.71 34.96 -88.78 34.01 -88.86 33.03 C-89.63 22.33 -90.22 11.73 -90 1 C-88.85 1.41 -87.69 1.82 -86.5 2.25 C-82.07 3.72 -77.58 4.96 -73.06 6.12 C-72.42 6.3 -71.78 6.47 -71.11 6.64 C-48.95 12.22 -21.85 10.63 -1 1 C-0.67 0.67 -0.34 0.34 0 0 Z " fill="#E5FDFD" transform="translate(435,179)"/>
<path d="M0 0 C3 1.5 3 1.5 6 3 C5.43 9.79 3.63 15.77 1.44 22.21 C1.09 23.26 0.73 24.31 0.37 25.39 C-0.74 28.72 -1.87 32.05 -3 35.38 C-3.76 37.63 -4.52 39.89 -5.27 42.15 C-6.66 46.27 -8.04 50.38 -9.43 54.49 C-9.71 55.32 -9.99 56.14 -10.28 56.99 C-11 59 -11 59 -12 61 C-11.41 60.99 -10.81 60.98 -10.2 60.97 C34.45 60.12 79.09 59.71 123.75 59.45 C126.34 59.44 128.92 59.42 131.51 59.41 C147.04 59.32 162.56 59.23 178.09 59.15 C181.36 59.13 184.62 59.12 187.89 59.1 C188.68 59.1 189.47 59.09 190.28 59.09 C201.5 59.03 212.71 58.95 223.93 58.87 C231.6 58.81 239.27 58.76 246.94 58.73 C250.95 58.71 254.96 58.68 258.97 58.64 C280.13 58.42 302.03 58.22 321.46 67.71 C326.31 70.03 329.75 70.3 335 70 C335 70.33 335 70.66 335 71 C368.66 71 402.32 71 437 71 C437.33 72.65 437.66 74.3 438 76 C431.13 77 424.3 77.33 417.36 77.55 C416.1 77.6 414.85 77.64 413.55 77.68 C398.42 78.16 383.28 78.15 368.14 78.13 C364.06 78.12 359.97 78.13 355.88 78.13 C340.49 78.15 325.12 78.08 309.74 77.37 C298.51 76.86 287.3 76.76 276.06 76.75 C274.94 76.75 273.82 76.75 272.67 76.74 C251.49 76.73 230.44 77.78 209.32 79.25 C186.3 80.83 163.36 81.2 140.29 81.19 C137.72 81.19 135.16 81.19 132.6 81.19 C105.67 81.19 78.78 80.89 51.92 78.75 C43.16 78.08 34.42 77.79 25.63 77.68 C24.22 77.66 22.8 77.64 21.39 77.62 C17.72 77.57 14.04 77.52 10.37 77.47 C6.6 77.42 2.83 77.36 -0.93 77.31 C-8.29 77.2 -15.64 77.1 -23 77 C-24.31 74.82 -25.04 73.5 -24.85 70.93 C-24.67 70.22 -24.48 69.5 -24.29 68.77 C-24.09 67.98 -23.89 67.19 -23.68 66.38 C-22.65 62.79 -21.53 59.25 -20.31 55.72 C-20.05 54.96 -19.79 54.2 -19.53 53.42 C-18.69 50.96 -17.85 48.51 -17 46.06 C-16.71 45.23 -16.43 44.39 -16.13 43.53 C-11.1 28.88 -5.74 14.39 0 0 Z " fill="#F8F8F8" transform="translate(39,334)"/>
<path d="M0 0 C0.74 -0 1.49 -0.01 2.26 -0.01 C3.83 -0.02 5.4 -0.02 6.97 -0.02 C9.34 -0.02 11.71 -0.04 14.08 -0.06 C31.04 -0.12 31.04 -0.12 37.11 2.17 C37.6 3.16 37.6 3.16 38.11 4.17 C36.9 4.54 35.7 4.92 34.45 5.3 C32.84 5.82 31.22 6.34 29.61 6.86 C28.82 7.1 28.03 7.34 27.21 7.6 C21.76 9.36 16.57 11.48 12.11 15.17 C10.99 17.83 10.99 17.83 11.11 20.17 C20.62 25.88 37.06 19.03 47.18 16.53 C73.25 10.12 73.25 10.12 80.89 14.09 C82.34 15.05 83.73 16.1 85.11 17.17 C84.78 17.83 84.45 18.49 84.11 19.17 C82.37 19.68 82.37 19.68 80.09 20.06 C78.84 20.28 78.84 20.28 77.57 20.51 C76.67 20.67 75.78 20.82 74.86 20.98 C65.1 22.8 55 24.75 47.11 31.17 C47.6 33.64 47.6 33.64 48.11 36.17 C54.7 35.62 61.09 34.7 67.55 33.32 C69.31 32.96 71.06 32.6 72.82 32.24 C75.53 31.67 78.25 31.1 80.97 30.53 C83.62 29.97 86.27 29.43 88.93 28.88 C89.73 28.71 90.53 28.54 91.36 28.36 C106.07 25.36 119.74 30.03 132.11 38.17 C140.12 44.21 140.12 44.21 142.11 49.17 C142.23 52.17 142.23 52.17 141.11 55.17 C138.33 57.06 136.23 58.05 133.11 59.17 C132.1 59.54 131.09 59.92 130.05 60.3 C119.35 63.71 108.97 63.63 97.82 63.26 C95.5 63.18 93.19 63.14 90.86 63.11 C65.59 62.48 39.83 57.08 15.11 52.17 C14.31 52.01 13.51 51.85 12.68 51.69 C4.12 49.98 -4.44 48.28 -13 46.55 C-21.79 44.77 -30.58 43.02 -39.39 41.39 C-40.83 41.13 -42.26 40.86 -43.69 40.6 C-46.28 40.12 -48.86 39.65 -51.45 39.2 C-58.64 37.86 -65.54 36.52 -70.89 31.17 C-70.6 27.35 -69.69 25.41 -66.83 22.92 C-51.62 10.5 -32.99 4.34 -13.89 1.17 C-13 1 -12.1 0.82 -11.18 0.64 C-7.44 0.1 -3.77 0.01 0 0 Z " fill="#F1A25E" transform="translate(300.890625,299.83203125)"/>
<path d="M0 0 C0.99 0.36 1.99 0.71 3.01 1.08 C5.37 1.99 7.69 2.97 10 4 C10.67 4.27 11.34 4.54 12.03 4.82 C26.64 11.25 36.1 25.75 42 40 C42.69 42.81 42.94 45.1 43 48 C32.49 51.72 22.03 53.63 11 55 C9.95 55.14 8.89 55.28 7.8 55.42 C-13.26 58.07 -34.31 58.27 -55.5 58.25 C-56.2 58.25 -56.9 58.25 -57.61 58.25 C-62.29 58.25 -66.98 58.23 -71.66 58.2 C-72.87 58.2 -74.09 58.19 -75.34 58.19 C-76.45 58.18 -77.57 58.17 -78.71 58.16 C-79.69 58.15 -80.67 58.15 -81.67 58.14 C-84 58 -84 58 -86 57 C-86.68 48.4 -85.06 42.17 -81.5 34.38 C-80.89 32.92 -80.89 32.92 -80.26 31.43 C-72.76 14.52 -58.48 4.95 -42 -2 C-41.29 -2.36 -40.59 -2.72 -39.86 -3.1 C-27.57 -9.04 -12 -4.34 0 0 Z " fill="#F79227" transform="translate(176,209)"/>
<path d="M0 0 C17.21 3.16 32.8 7.45 48.88 14.44 C49.92 14.89 50.97 15.35 52.05 15.81 C71.17 24.34 71.17 24.34 75 31 C75.75 34.31 75.75 34.31 76 37 C75.27 37.41 74.53 37.81 73.78 38.23 C70.97 40.02 68.88 41.88 66.56 44.25 C65.48 45.34 65.48 45.34 64.38 46.45 C62.11 48.8 62.11 48.8 60.71 50.69 C56.71 55.85 52.47 58.23 46.5 60.75 C45.18 61.32 45.18 61.32 43.83 61.91 C34.74 65.74 25.91 68.88 16 67 C12.54 66.81 10.08 67.38 7 69 C3.45 72.56 0.38 76.42 -2.72 80.38 C-4.47 82.6 -6.32 84.69 -8.25 86.75 C-8.81 87.36 -9.37 87.98 -9.95 88.61 C-12.92 90.62 -15.45 90.74 -19 91 C-21.98 90.19 -21.98 90.19 -24.98 88.85 C-26.7 88.1 -26.7 88.1 -28.46 87.33 C-29.7 86.76 -30.94 86.19 -32.19 85.62 C-33.49 85.04 -34.8 84.46 -36.11 83.88 C-48.39 78.4 -60.54 72.64 -72.66 66.83 C-76.77 64.86 -80.88 62.92 -85 61 C-86.05 60.5 -87.11 60.01 -88.19 59.5 C-95.92 56.04 -103.68 54.39 -112 53 C-113.47 52.75 -114.94 52.49 -116.4 52.24 C-121.04 51.45 -125.67 50.69 -130.31 49.94 C-148.92 46.9 -148.92 46.9 -158 45 C-161.22 44.16 -161.22 44.16 -164 45 C-165.57 46.92 -166.75 48.87 -167.92 51.05 C-169 53 -169 53 -171 55 C-171.92 43.88 -168.84 32.49 -163 23 C-160.88 21.8 -160.88 21.8 -159 21 C-158.65 21.74 -158.3 22.49 -157.94 23.25 C-152.47 31.02 -142.51 31.7 -133.81 33.44 C-132.33 33.74 -130.86 34.05 -129.38 34.35 C-118.94 36.49 -108.48 38.4 -97.98 40.22 C-90.5 41.53 -83.06 42.98 -75.62 44.56 C-7.93 60.92 -7.93 60.92 58.14 49.25 C60.29 47.97 60.29 47.97 62 45 C62.76 40.27 61.96 37.41 59.5 33.44 C51.71 22.71 39.14 18.13 27 14 C26.23 13.73 25.45 13.47 24.66 13.19 C21.62 12.16 18.62 11.15 15.5 10.39 C8.94 8.74 4.6 6.01 0 1 C0 0.67 0 0.34 0 0 Z " fill="#F0E88B" transform="translate(385,310)"/>
<path d="M0 0 C2.02 2.02 1.24 5.99 1.25 8.75 C1.22 26.21 -4.56 38.95 -16 52 C-16.62 52.71 -17.23 53.42 -17.87 54.16 C-27.36 64.4 -40.33 69.87 -54 72 C-56.44 72.07 -58.88 72.09 -61.31 72.06 C-62.57 72.05 -63.82 72.04 -65.11 72.04 C-66.07 72.02 -67.02 72.01 -68 72 C-65.33 68 -62.67 64 -60 60 C-59.61 57.68 -59.27 55.34 -59 53 C-58.01 52.67 -57.02 52.34 -56 52 C-57.84 48.85 -59.76 45.88 -62 43 C-54.57 42.86 -54.57 42.86 -51 44 C-52.03 41.48 -52.03 41.48 -54 39 C-57.58 37.63 -57.58 37.63 -61 37 C-61.5 33.04 -61.5 33.04 -62 29 C-62.87 29.31 -63.73 29.62 -64.62 29.94 C-68 30 -68 30 -69.73 28.58 C-74 23.66 -74 23.66 -74 21 C-74.7 21.39 -75.4 21.78 -76.12 22.19 C-79 23 -79 23 -81.62 21.62 C-86.51 19.27 -90.68 19.02 -96 20 C-105.51 24.37 -112.98 33.45 -117 43 C-121.21 41.6 -122.13 38.67 -124.06 34.94 C-124.41 34.29 -124.77 33.65 -125.13 32.99 C-128.59 26.42 -130.11 20.68 -130.05 13.24 C-130.04 12.25 -130.03 11.27 -130.03 10.26 C-130.02 9.51 -130.01 8.77 -130 8 C-129.32 8 -128.65 8 -127.95 8.01 C-121.47 8.03 -114.99 8.04 -108.5 8.05 C-105.18 8.06 -101.85 8.06 -98.52 8.08 C-67.59 8.3 -67.59 8.3 -36.81 5.69 C-35.84 5.56 -34.86 5.44 -33.86 5.31 C-26.28 4.28 -18.8 2.9 -11.33 1.27 C-3.9 -0.34 -3.9 -0.34 0 0 Z " fill="#F6BB7A" transform="translate(220,262)"/>
<path d="M0 0 C3.01 1.32 4.74 2.6 6.75 5.19 C8.97 7.89 11.26 10.18 13.94 12.44 C17.4 15.38 20.35 18.53 23.26 22.01 C25.01 24.15 25.01 24.15 27.67 26.02 C31.23 30.57 30.67 35 30.62 40.62 C30.62 50.86 31.28 60.6 37 69.44 C37.5 70.22 37.99 71 38.5 71.81 C39.98 74.03 39.98 74.03 41.69 76.1 C43 78 43 78 43 81 C-13.28 79.78 -13.28 79.78 -26 69 C-29.84 49.29 -19.61 26.96 -9 11 C-6.19 7.17 -3.14 3.56 0 0 Z " fill="#F0FCBE" transform="translate(43,185)"/>
<path d="M0 0 C1.14 0 2.27 0.01 3.45 0.01 C6.67 0.02 9.9 0.04 13.13 0.07 C14.48 0.09 14.48 0.09 15.86 0.1 C21.18 0.17 26.49 0.39 31.8 0.68 C42.88 1.28 53.91 1.46 65 1.45 C66.85 1.45 68.7 1.45 70.55 1.45 C74.38 1.45 78.21 1.45 82.04 1.44 C86.92 1.44 91.8 1.44 96.68 1.45 C100.48 1.45 104.28 1.45 108.08 1.45 C109.88 1.45 111.68 1.45 113.48 1.45 C122.19 1.46 130.82 1.42 139.51 0.54 C142.89 0.22 146.22 0.22 149.62 0.25 C150.82 0.26 152.01 0.27 153.23 0.28 C154.54 0.29 154.54 0.29 155.88 0.31 C156.2 1.96 156.54 3.61 156.88 5.31 C150 6.31 143.17 6.64 136.23 6.87 C134.98 6.91 133.72 6.95 132.43 6.99 C117.29 7.47 102.16 7.46 87.02 7.44 C82.93 7.44 78.85 7.44 74.76 7.45 C59.36 7.46 44 7.39 28.61 6.68 C17.39 6.17 6.17 6.07 -5.06 6.06 C-6.18 6.06 -7.3 6.06 -8.45 6.06 C-29.64 6.05 -50.68 7.09 -71.8 8.56 C-94.83 10.14 -117.77 10.51 -140.84 10.5 C-143.4 10.5 -145.96 10.5 -148.53 10.5 C-175.45 10.5 -202.35 10.21 -229.2 8.07 C-237.97 7.39 -246.7 7.11 -255.49 7 C-256.91 6.98 -258.32 6.95 -259.74 6.93 C-263.41 6.88 -267.08 6.83 -270.75 6.78 C-274.52 6.73 -278.29 6.67 -282.06 6.62 C-289.41 6.51 -296.77 6.41 -304.12 6.31 C-304.12 4.66 -304.12 3.01 -304.12 1.31 C-239.78 0.91 -239.78 0.91 -219.33 2.5 C-211.05 3.14 -202.78 3.59 -194.47 3.86 C-193.19 3.9 -191.91 3.94 -190.59 3.98 C-174.44 4.48 -158.28 4.6 -142.12 4.62 C-140.89 4.63 -140.89 4.63 -139.64 4.63 C-113.89 4.69 -88.32 3.85 -62.64 2.17 C-41.73 0.8 -20.96 -0.07 0 0 Z " fill="#0D0D0D" transform="translate(320.125,404.6875)"/>
<path d="M0 0 C2 3 2 3 1.94 4.94 C-0.28 9.81 -5.49 12.12 -10.23 14.05 C-21.68 17.98 -33.09 18.31 -45.06 18.38 C-45.74 18.38 -46.41 18.39 -47.1 18.4 C-61.64 18.53 -76.53 16.87 -89.12 9.06 C-91 7 -91 7 -91.69 4.56 C-90.68 0.82 -88.11 -0.93 -85 -3 C-82.46 -4.18 -79.88 -4.98 -77.19 -5.75 C-76.53 -5.96 -75.87 -6.17 -75.19 -6.38 C-54.08 -12.71 -18.57 -12.96 0 0 Z " fill="#B1DEE4" transform="translate(435,165)"/>
<path d="M0 0 C0.99 0.36 1.99 0.71 3.01 1.08 C5.37 1.99 7.69 2.97 10 4 C10.67 4.27 11.34 4.54 12.03 4.82 C26.64 11.25 36.1 25.75 42 40 C42.69 42.81 42.94 45.1 43 48 C39.14 49.44 36.1 50.11 32 50 C31.82 49.35 31.64 48.7 31.45 48.02 C29.12 38.79 29.12 38.79 23 32 C21.34 31.62 19.68 31.27 18 31 C18.29 30.34 18.58 29.68 18.88 29 C19.05 24.84 17.38 23.08 14.82 19.93 C8.86 13.6 2.58 11.01 -6 10 C-6.99 13.47 -6.99 13.47 -8 17 C-8.83 14.11 -9 12.11 -9 9 C-18.29 4.71 -27.16 5 -36.84 8.05 C-39.19 9.09 -41.01 10.39 -43 12 C-42.3 17.71 -39.37 22.38 -36.71 27.38 C-35.75 29.23 -34.87 31.11 -34 33 C-34.5 33.99 -34.5 33.99 -35 35 C-36.27 32.79 -37.54 30.58 -38.81 28.38 C-39.17 27.76 -39.53 27.14 -39.89 26.5 C-42.06 22.73 -44.09 18.92 -46 15 C-52.55 16.01 -57.63 19.2 -61.91 24.26 C-65.33 29.14 -65.33 29.14 -66 35 C-63.36 36.32 -60.72 37.64 -58 39 C-58.99 39.5 -58.99 39.5 -60 40 C-60.58 39.69 -61.16 39.38 -61.75 39.06 C-64.89 37.58 -66.57 37.3 -70 38 C-75.19 43.11 -76.15 50.06 -77 57 C-79.97 57 -82.94 57 -86 57 C-86.68 48.4 -85.06 42.17 -81.5 34.38 C-80.89 32.92 -80.89 32.92 -80.26 31.43 C-72.76 14.52 -58.48 4.95 -42 -2 C-41.29 -2.36 -40.59 -2.72 -39.86 -3.1 C-27.57 -9.04 -12 -4.34 0 0 Z " fill="#FBF3D7" transform="translate(176,209)"/>
<path d="M0 0 C1.01 3.03 1.38 5.9 1.75 9.06 C2.01 11.09 2.43 13.03 3 15 C2.01 15.33 1.02 15.66 0 16 C0 16.66 0 17.32 0 18 C-0.66 18 -1.32 18 -2 18 C-2.66 19.98 -3.32 21.96 -4 24 C-3.28 23.94 -2.56 23.88 -1.81 23.81 C1.53 24.04 3.27 25.13 6 27 C5.89 28.77 5.76 30.54 5.62 32.31 C5.56 33.3 5.49 34.28 5.41 35.3 C5 38 5 38 3 41 C3.69 40.49 4.37 39.99 5.08 39.47 C6.43 38.49 6.43 38.49 7.81 37.5 C8.71 36.85 9.6 36.2 10.52 35.53 C13 34 13 34 16 34 C17.75 35.06 17.75 35.06 19 37 C19.08 41.43 18.56 43.38 15.56 46.69 C6.3 53.25 -3.93 54.48 -15 53 C-22.89 50.95 -30.06 47.22 -37 43 C-38.26 29.95 -29.84 18.03 -22.12 8.12 C-15.83 1.21 -9.17 -0.86 0 0 Z " fill="#E47073" transform="translate(136,284)"/>
<path d="M0 0 C6.67 -0.72 11.47 1.27 17 5 C21.49 9.07 25.39 12.74 26 19 C25.5 19.5 25.5 19.5 25 20 C26.03 20.25 27.06 20.5 28.12 20.75 C33.14 22.86 34.69 27.32 36.93 31.99 C37.97 34.91 38.23 36.94 38 40 C38.99 40.5 38.99 40.5 40 41 C23.38 44.31 6.91 46.04 -10 47 C-9.01 46.5 -9.01 46.5 -8 46 C-8 45.01 -8 44.02 -8 43 C-6.47 41.61 -6.47 41.61 -4.5 40.31 C-3.85 39.88 -3.2 39.44 -2.53 38.99 C-1.77 38.5 -1.77 38.5 -1 38 C-2.27 38.84 -3.54 39.67 -4.81 40.5 C-5.52 40.96 -6.23 41.43 -6.96 41.91 C-9 43 -9 43 -12 43 C-11.51 35.24 -9.47 28.12 -7.19 20.72 C-6.56 18.68 -5.94 16.63 -5.33 14.58 C-2.03 3.72 -2.03 3.72 0 0 Z " fill="#F58E22" transform="translate(170,219)"/>
<path d="M0 0 C5.86 4.2 10.28 9.63 12.26 16.62 C12.53 20.63 12.59 24.6 12.26 28.62 C11.26 29.62 11.26 29.62 9.2 29.74 C8.3 29.74 7.39 29.73 6.46 29.73 C5.44 29.73 4.42 29.73 3.37 29.73 C2.26 29.73 1.15 29.72 0 29.71 C-1.13 29.71 -2.26 29.71 -3.42 29.71 C-7.05 29.7 -10.68 29.69 -14.3 29.68 C-16.76 29.67 -19.21 29.67 -21.66 29.67 C-27.69 29.65 -33.72 29.64 -39.74 29.62 C-41.9 25.3 -41.35 19.75 -40.06 15.2 C-36.65 6.98 -31.74 1.47 -23.74 -2.38 C-15.63 -4.91 -7.35 -4.18 0 0 Z " fill="#EC8F00" transform="translate(267.7421875,133.3828125)"/>
<path d="M0 0 C42.24 0 84.48 0 128 0 C128 3.63 128 7.26 128 11 C113.5 11.09 99 11.16 84.5 11.21 C77.77 11.23 71.04 11.26 64.3 11.3 C57.81 11.35 51.31 11.37 44.81 11.38 C42.33 11.39 39.86 11.4 37.38 11.42 C33.9 11.45 30.43 11.46 26.96 11.45 C25.42 11.48 25.42 11.48 23.85 11.5 C17.85 11.46 14.65 10.84 10 7 C7.64 5.92 5.27 4.97 2.86 4.03 C1 3 1 3 0 0 Z " fill="#F5F6F5" transform="translate(216,236)"/>
<path d="M0 0 C2.02 2.02 1.24 5.99 1.25 8.75 C1.22 26.21 -4.56 38.95 -16 52 C-16.62 52.71 -17.23 53.42 -17.87 54.16 C-27.36 64.4 -40.33 69.87 -54 72 C-56.44 72.07 -58.88 72.09 -61.31 72.06 C-62.57 72.05 -63.82 72.04 -65.11 72.04 C-66.54 72.02 -66.54 72.02 -68 72 C-65.33 68 -62.67 64 -60 60 C-59.61 57.68 -59.27 55.34 -59 53 C-58.34 53 -57.68 53 -57 53 C-56.67 53.99 -56.34 54.98 -56 56 C-46.95 56.5 -40.76 55.44 -33.56 49.75 C-30.68 47.09 -30.03 46.12 -28.94 42.19 C-28.77 39.1 -28.77 39.1 -30 37 C-29.13 37.25 -28.27 37.5 -27.38 37.75 C-23.95 38.27 -23.95 38.27 -20.88 36.62 C-17.11 33.19 -15.72 29.72 -14 25 C-13.59 24.01 -13.18 23.02 -12.75 22 C-11.75 18.01 -11.47 14.09 -12 10 C-12.66 9.01 -13.32 8.02 -14 7 C-16.61 6.62 -19.01 6.4 -21.62 6.31 C-22.33 6.28 -23.04 6.24 -23.77 6.21 C-25.51 6.13 -27.25 6.06 -29 6 C-26.16 4.45 -23.58 3.56 -20.41 2.93 C-19.54 2.76 -18.68 2.58 -17.78 2.4 C-16.89 2.23 -15.99 2.05 -15.06 1.88 C-14.17 1.69 -13.27 1.51 -12.35 1.32 C-8.17 0.5 -4.28 -0.21 0 0 Z " fill="#F7F1DF" transform="translate(220,262)"/>
<path d="M0 0 C1.98 0.66 3.96 1.32 6 2 C5.01 2.33 4.02 2.66 3 3 C2.2 4.88 2.2 4.88 1.73 7.3 C0.36 12.83 -1.33 18.2 -3.14 23.61 C-3.42 24.46 -3.71 25.32 -4 26.2 C-4.9 28.86 -5.79 31.52 -6.69 34.19 C-7.3 36.02 -7.91 37.84 -8.53 39.67 C-10.01 44.12 -11.51 48.56 -13 53 C-11.31 52.98 -11.31 52.98 -9.58 52.96 C5.51 52.8 20.6 52.64 35.69 52.5 C36.93 52.49 38.18 52.48 39.46 52.46 C86.2 52.02 132.94 51.91 179.69 51.94 C180.48 51.94 181.27 51.94 182.09 51.94 C202.39 51.95 222.7 51.97 243 52 C243 51.34 243 50.68 243 50 C253.02 51.22 263.01 52.53 273 54 C273 54.33 273 54.66 273 55 C224.76 55.74 176.51 56.23 128.27 56.52 C122.4 56.55 116.53 56.59 110.67 56.63 C67.78 56.91 24.89 57.07 -18 57 C-17.53 55.27 -17.07 53.54 -16.6 51.82 C-16.34 50.85 -16.08 49.89 -15.81 48.9 C-14.58 44.51 -13.14 40.2 -11.68 35.88 C-11.38 34.97 -11.07 34.06 -10.76 33.13 C-9.8 30.27 -8.84 27.42 -7.88 24.56 C-6.91 21.68 -5.94 18.8 -4.97 15.92 C-4.37 14.14 -3.77 12.36 -3.17 10.57 C-2.9 9.77 -2.63 8.96 -2.35 8.14 C-2.11 7.43 -1.88 6.73 -1.63 6 C-1 4.02 -0.48 2.02 0 0 Z " fill="#929292" transform="translate(45,338)"/>
<path d="M0 0 C7.41 0.11 14.83 0.22 22.24 0.34 C25.69 0.39 29.13 0.45 32.57 0.5 C36.53 0.55 40.48 0.62 44.43 0.68 C46.3 0.71 46.3 0.71 48.2 0.73 C49.34 0.75 50.48 0.77 51.65 0.79 C53.17 0.82 53.17 0.82 54.72 0.84 C57 1 57 1 58 2 C58.04 3.67 58.04 5.33 58 7 C58.33 7 58.66 7 59 7 C60.32 7 61.64 7 63 7 C65.49 10.74 65.4 13.43 65.66 17.82 C65.83 18.9 65.83 18.9 66 20 C66.66 20.33 67.32 20.66 68 21 C65.38 21.94 65.38 21.94 62 22 C59.55 19.99 57.68 17.68 56 15 C56 14.34 56 13.68 56 13 C54.95 13.59 54.95 13.59 53.88 14.19 C51 15 51 15 48.38 13.62 C43.49 11.27 39.32 11.02 34 12 C24.49 16.37 17.02 25.45 13 35 C8.79 33.6 7.87 30.67 5.94 26.94 C5.41 25.97 5.41 25.97 4.87 24.99 C1.41 18.42 -0.11 12.68 -0.05 5.24 C-0.04 4.25 -0.03 3.27 -0.03 2.26 C-0.02 1.51 -0.01 0.77 0 0 Z " fill="#F2B776" transform="translate(90,270)"/>
<path d="M0 0 C1.84 4.58 0.23 8.58 -1.24 13.04 C-1.48 13.8 -1.72 14.56 -1.97 15.35 C-2.48 16.96 -2.99 18.56 -3.51 20.17 C-4.31 22.62 -5.09 25.08 -5.87 27.54 C-6.36 29.1 -6.86 30.66 -7.36 32.23 C-7.71 33.33 -7.71 33.33 -8.07 34.45 C-9.11 37.65 -10.12 40.18 -12 43 C-14.2 43.04 -14.2 43.04 -17 42 C-19.01 39.36 -20.37 36.42 -21.81 33.44 C-22.24 32.59 -22.66 31.74 -23.1 30.86 C-23.98 29.11 -24.85 27.35 -25.72 25.59 C-26.93 23.15 -28.18 20.73 -29.46 18.32 C-30.2 16.9 -30.95 15.48 -31.69 14.06 C-32.04 13.41 -32.39 12.75 -32.75 12.08 C-34.06 9.52 -35.03 7.6 -34.87 4.69 C-32.78 0.61 -28.48 -0.83 -24.38 -2.25 C-16.13 -4 -7.5 -4.1 0 0 Z " fill="#F78E21" transform="translate(167,217)"/>
<path d="M0 0 C0.71 0.11 1.42 0.22 2.16 0.34 C8.07 1.25 13.98 2.15 19.9 3.01 C23.24 3.5 26.59 4 29.93 4.49 C31.64 4.75 33.36 5 35.07 5.24 C50.37 7.45 63.71 10.99 77.62 17.94 C79.72 18.97 81.82 20 83.91 21.03 C84.92 21.52 85.92 22.02 86.96 22.53 C91.6 24.77 96.29 26.9 101 29 C101 29.33 101 29.66 101 30 C91.2 29.44 81.6 28.16 71.94 26.5 C71.2 26.37 70.45 26.25 69.69 26.12 C57.53 24.02 45.53 21.41 33.56 18.44 C32.44 18.16 32.44 18.16 31.29 17.88 C5.13 11.43 5.13 11.43 0 3 C0 2.01 0 1.02 0 0 Z " fill="#EEA05D" transform="translate(228,359)"/>
<path d="M0 0 C3.65 0.46 5.91 2.2 8.75 4.44 C9.55 5.05 10.35 5.67 11.17 6.31 C12.08 7.15 12.08 7.15 13 8 C13 8.66 13 9.32 13 10 C13.89 10.41 13.89 10.41 14.79 10.83 C16.92 11.96 18.51 13.14 20.31 14.71 C20.91 15.24 21.51 15.76 22.13 16.29 C22.75 16.84 23.37 17.38 24 17.94 C29.36 22.65 29.36 22.65 35 27 C34.9 31.82 34.2 34.25 30.81 37.75 C25.09 42.98 19.42 45.16 11.75 45.06 C10.86 45.05 9.97 45.04 9.05 45.04 C8.37 45.02 7.7 45.01 7 45 C6.34 43.35 5.68 41.7 5 40 C5.66 40 6.32 40 7 40 C5.16 36.85 3.24 33.88 1 31 C8.43 30.86 8.43 30.86 12 32 C10.97 29.48 10.97 29.48 9 27 C6.69 26.26 4.36 25.58 2 25 C1.49 21.94 1 18.88 0.5 15.81 C0.36 14.95 0.21 14.08 0.07 13.19 C-1.3 4.72 -1.3 4.72 -1 1 C-0.67 0.67 -0.34 0.34 0 0 Z " fill="#F5B876" transform="translate(157,274)"/>
<path d="M0 0 C2.01 4.14 2.48 7.42 2 12 C-1.52 18.53 -5.4 21.17 -12.31 23.26 C-22.72 26.11 -33.05 26.25 -43.75 26.12 C-45.24 26.11 -46.72 26.11 -48.21 26.1 C-51.81 26.08 -55.4 26.04 -59 26 C-56.62 20.83 -53.41 16.61 -49 13 C-45.17 11.61 -41.42 11.31 -37.38 11 C-25.17 9.6 -14.94 5.94 -3.85 0.76 C-2 0 -2 0 0 0 Z " fill="#EFA15E" transform="translate(442,370)"/>
<path d="M0 0 C2.76 0.51 5.44 1.12 8.14 1.87 C27.29 7.13 47.28 8.35 67 10 C67.06 10.96 67.13 11.92 67.19 12.9 C68.13 23.93 71.37 33 76 43 C72.28 41.77 68.62 40.49 65 39 C65.24 37.93 65.24 37.93 65.48 36.84 C66.58 30.82 66.98 25.12 64.38 19.5 C60.17 15.08 56.57 13.81 50.56 13.5 C46.62 13.58 44.57 13.93 41.62 16.56 C39.17 18.7 38.24 19 34.89 19 C32.6 18.75 30.32 18.49 28.03 18.22 C24.09 17.93 22.11 18.59 19 21 C16.02 24 13.81 27.18 12 31 C-1.01 9.37 -1.01 9.37 0 0 Z " fill="#EEF6D2" transform="translate(19,260)"/>
<path d="M0 0 C2.61 3.19 4.25 6.46 5.92 10.23 C6.45 11.42 6.98 12.62 7.53 13.85 C7.94 14.78 7.94 14.78 8.35 15.73 C9.19 17.63 10.03 19.53 10.88 21.42 C15 30.74 15 30.74 15 33 C11.7 33 8.4 33 5 33 C5.01 33.71 5.02 34.41 5.04 35.14 C5.1 42.33 4.93 49.5 4.62 56.69 C4.59 57.57 4.56 58.46 4.53 59.37 C4.49 60.2 4.45 61.03 4.41 61.89 C4.38 62.63 4.35 63.38 4.32 64.14 C4 66 4 66 2 68 C-0.5 68.31 -0.5 68.31 -3 68 C-5.51 64.23 -5.16 62.41 -4.98 57.93 C-4.95 57.24 -4.93 56.56 -4.9 55.85 C-4.82 53.67 -4.72 51.49 -4.62 49.31 C-4.57 47.83 -4.51 46.35 -4.45 44.87 C-4.31 41.25 -4.16 37.62 -4 34 C-7.3 34 -10.6 34 -14 34 C-11.67 26.66 -8.86 19.6 -5.88 12.5 C-5.42 11.4 -4.96 10.31 -4.5 9.18 C-1.13 1.13 -1.13 1.13 0 0 Z " fill="#000000" transform="translate(253,25)"/>
<path d="M0 0 C3.91 2.07 7.19 4.57 10 8 C11.65 13.77 10.61 19.31 9 25 C6.62 28.12 6.62 28.12 4 30 C3.4 30.43 2.8 30.87 2.19 31.31 C-3.19 33 -7.49 32.5 -12.44 30.06 C-15.74 28.26 -15.74 28.26 -17 27 C-17.29 24.03 -17.45 21.06 -17.62 18.08 C-17.86 14.99 -17.86 14.99 -19.12 12.3 C-19.41 11.54 -19.7 10.78 -20 10 C-17.95 5.64 -15.31 2.9 -10.99 0.7 C-7.29 -0.6 -3.84 -0.7 0 0 Z " fill="#86718F" transform="translate(87,302)"/>
<path d="M0 0 C12 1 12 1 17 2 C17 14.87 17 27.74 17 41 C18.32 41 19.64 41 21 41 C21 41.99 21 42.98 21 44 C12.42 44 3.84 44 -5 44 C-5 43.34 -5 42.68 -5 42 C-3.35 42 -1.7 42 0 42 C0 28.14 0 14.28 0 0 Z " fill="#B6882C" transform="translate(28,445)"/>
<path d="M0 0 C17.21 3.16 32.8 7.45 48.88 14.44 C49.92 14.89 50.97 15.35 52.05 15.81 C71.17 24.34 71.17 24.34 75 31 C75.75 34.31 75.75 34.31 76 37 C75.32 37.35 74.64 37.7 73.94 38.06 C70.12 40.58 67.14 43.69 64 47 C63.34 46.34 62.68 45.68 62 45 C62.08 43.99 62.17 42.98 62.25 41.94 C61.86 35.72 58.64 31.5 54.17 27.27 C46.12 20.9 36.63 17.27 27 14 C26.23 13.73 25.45 13.47 24.66 13.19 C21.62 12.16 18.62 11.15 15.5 10.39 C8.94 8.74 4.6 6.01 0 1 C0 0.67 0 0.34 0 0 Z " fill="#E9E084" transform="translate(385,310)"/>
<path d="M0 0 C9 0 9 0 18 1 C18 11.56 18 22.12 18 33 C19.32 33 20.64 33 22 33 C22 33.99 22 34.98 22 36 C13.42 36 4.84 36 -4 36 C-4 35.01 -4 34.02 -4 33 C-2.68 33 -1.36 33 0 33 C0 22.11 0 11.22 0 0 Z " fill="#B0842B" transform="translate(450,453)"/>
<path d="M0 0 C4.21 0.44 7.44 2.02 11.13 3.96 C11.85 4.33 12.57 4.7 13.32 5.09 C14.83 5.87 16.35 6.66 17.86 7.45 C20.18 8.66 22.5 9.86 24.84 11.04 C26.31 11.81 27.78 12.57 29.26 13.34 C29.95 13.7 30.65 14.05 31.37 14.42 C36.25 17.01 36.25 17.01 37.36 20.35 C39.67 20.35 41.98 20.35 44.36 20.35 C44.36 20.68 44.36 21.01 44.36 21.35 C24.23 21.35 4.1 21.35 -16.64 21.35 C-16.64 21.02 -16.64 20.69 -16.64 20.35 C-14.33 20.35 -12.02 20.35 -9.64 20.35 C-9.74 19.24 -9.85 18.12 -9.95 16.98 C-9.98 11.42 -7.49 7 -4.64 2.35 C-2.64 0.35 -2.64 0.35 0 0 Z " fill="#EF8B20" transform="translate(108.639404296875,245.649169921875)"/>
<path d="M0 0 C3.32 2.36 4.8 3.55 6.25 7.31 C6.79 12.95 6.42 16.45 3.25 21.31 C-0.6 24.8 -4.41 25.78 -9.62 25.73 C-13.56 24.96 -16.21 22.3 -18.75 19.31 C-21.09 15.55 -20.95 12.84 -20.36 8.57 C-19.18 4.2 -16.5 1.6 -12.88 -1.06 C-8.22 -2.43 -4.29 -2.24 0 0 Z " fill="#86718F" transform="translate(54.75,281.6875)"/>
<path d="M0 0 C3.04 4.56 4.54 9.66 6.37 14.8 C7.06 16.73 7.76 18.66 8.46 20.58 C9.11 22.42 9.11 22.42 9.79 24.3 C10.19 25.41 10.59 26.53 11 27.68 C12 31 12 31 13 38 C4.42 38 -4.16 38 -13 38 C-11.35 34.7 -9.7 31.4 -8 28 C-7.6 24.28 -7.45 21.41 -8.82 17.89 C-9.76 15.33 -10.24 13.74 -10 11 C-7.11 6.83 -3.72 3.44 0 0 Z " fill="#F9F9F9" transform="translate(456,354)"/>
<path d="M0 0 C5.79 4.79 5.79 4.79 6.64 9.11 C6.96 14.01 6.52 17.06 3.31 20.88 C0.29 23.97 -1.73 24.99 -6.06 25.12 C-11.62 25.07 -14.69 22.79 -18.69 19.06 C-19.06 18.65 -19.43 18.24 -19.81 17.81 C-19.34 16.77 -19.34 16.77 -18.87 15.7 C-17.4 11.69 -17.06 7.68 -16.57 3.46 C-15.81 0.81 -15.81 0.81 -14.02 -0.53 C-9.26 -1.95 -4.58 -1.93 0 0 Z " fill="#867290" transform="translate(60.8125,311.1875)"/>
<path d="M0 0 C3.22 2.75 4.86 4.87 5.45 9.15 C5.64 13.5 5.36 16.31 3.5 20.31 C0.18 23.81 -2.47 24.7 -7.26 24.92 C-9.47 24.94 -11.67 24.9 -13.88 24.81 C-14.84 21.91 -14.88 20.57 -14.69 17.62 C-14.6 13.14 -15.78 10.33 -18.1 6.54 C-18.88 4.81 -18.88 4.81 -17.88 1.81 C-12.29 -1.96 -6.2 -2.56 0 0 Z " fill="#867190" transform="translate(77.875,277.1875)"/>
<path d="M0 0 C-0.12 2.31 -0.12 2.31 -1 5 C-21.35 16.91 -52.05 13.33 -74.86 13.26 C-78.78 13.25 -82.7 13.26 -86.62 13.27 C-103.51 13.31 -120.2 13.02 -137 11 C-135.83 10.08 -135.83 10.08 -134.64 9.14 C-132.26 7.21 -130.13 5.2 -128 3 C-127.53 3.35 -127.06 3.7 -126.58 4.06 C-121.19 7.8 -117.06 8.77 -110.57 8.89 C-109.7 8.93 -108.84 8.96 -107.94 9 C-105.19 9.1 -102.44 9.18 -99.69 9.25 C-96.92 9.34 -94.15 9.44 -91.38 9.55 C-89.67 9.61 -87.95 9.66 -86.23 9.71 C-82.93 9.81 -80.15 9.95 -77 11 C-75.57 11.09 -74.13 11.13 -72.69 11.13 C-71.86 11.13 -71.03 11.14 -70.18 11.14 C-68.88 11.13 -68.88 11.13 -67.56 11.12 C-66.27 11.13 -66.27 11.13 -64.96 11.14 C-64.13 11.14 -63.3 11.13 -62.44 11.13 C-61.69 11.13 -60.93 11.13 -60.15 11.13 C-57.98 11 -56.11 10.53 -54 10 C-52.54 9.88 -51.08 9.8 -49.62 9.75 C-48.79 9.72 -47.95 9.69 -47.1 9.66 C-46.22 9.63 -45.34 9.6 -44.44 9.56 C-31.06 8.97 -18.44 7.04 -6.44 0.69 C-3 -1 -3 -1 0 0 Z " fill="#EAEBED" transform="translate(197,328)"/>
<path d="M0 0 C3.3 0.33 6.6 0.66 10 1 C10.66 2.65 11.32 4.3 12 6 C19.81 5.56 27.37 4.51 35.03 3.02 C39.08 2.25 42.88 1.85 47 2 C47 2.33 47 2.66 47 3 C42.83 3.82 38.67 4.63 34.5 5.44 C32.74 5.78 32.74 5.78 30.95 6.13 C24.97 7.29 19.05 8.35 13 9 C12.71 14.75 13.15 18.9 15.39 24.22 C16.57 27.67 15.39 30.15 13.94 33.31 C13.63 33.87 13.32 34.43 13 35 C8.79 33.6 7.87 30.67 5.94 26.94 C5.41 25.97 5.41 25.97 4.87 24.99 C0.52 16.74 -0.23 9.27 0 0 Z " fill="#F3E9D2" transform="translate(90,270)"/>
<path d="M0 0 C0.33 0 0.66 0 1 0 C1 3.63 1 7.26 1 11 C-13.57 11.07 -28.14 11.12 -42.71 11.16 C-49.47 11.17 -56.23 11.19 -63 11.23 C-69.52 11.26 -76.04 11.28 -82.57 11.28 C-85.06 11.29 -87.55 11.3 -90.05 11.32 C-93.53 11.34 -97.01 11.34 -100.49 11.34 C-101.53 11.35 -102.57 11.36 -103.64 11.37 C-104.59 11.37 -105.53 11.37 -106.51 11.36 C-107.33 11.36 -108.16 11.37 -109 11.37 C-109.66 11.25 -110.32 11.13 -111 11 C-111.66 10.01 -112.32 9.02 -113 8 C-75.71 8 -38.42 8 0 8 C0 5.36 0 2.72 0 0 Z " fill="#8B8B8B" transform="translate(343,236)"/>
<path d="M0 0 C10.46 8.54 10.46 8.54 14 14 C13.67 14.99 13.34 15.98 13 17 C12.34 17 11.68 17 11 17 C11.35 18.98 11.35 18.98 12 21 C12.66 21.33 13.32 21.66 14 22 C13.35 25.52 12.49 28.89 11.44 32.31 C11.03 33.64 11.03 33.64 10.62 34.99 C10.42 35.65 10.21 36.32 10 37 C9.34 37 8.68 37 8 37 C0.42 24.68 -0.34 14.09 0 0 Z " fill="#EBEA93" transform="translate(77,220)"/>
<path d="M0 0 C0.33 0 0.66 0 1 0 C0.99 1.11 0.99 1.11 0.98 2.23 C2.17 5.46 2.73 5.69 5.68 7.2 C7.21 7.9 8.76 8.59 10.31 9.25 C11.09 9.6 11.86 9.95 12.65 10.31 C18.67 13 23.63 14.13 30.25 14.56 C31.51 14.65 32.78 14.73 34.08 14.82 C35.04 14.88 36.01 14.94 37 15 C33.78 17.89 31.73 18.37 27.44 18.25 C26.49 18.23 25.54 18.22 24.56 18.2 C22 18 22 18 19 17 C17.25 16.86 15.49 16.78 13.74 16.72 C12.18 16.66 12.18 16.66 10.6 16.61 C9.51 16.57 8.43 16.54 7.31 16.5 C0.48 16.28 -6.23 15.98 -13 15 C-12.38 13.19 -12.38 13.19 -11 11 C-10.03 10.55 -9.06 10.09 -8.06 9.62 C-4.34 7.65 -3.54 5.84 -2 2 C-1.34 2 -0.68 2 0 2 C0 1.34 0 0.68 0 0 Z " fill="#11100F" transform="translate(98,322)"/>
<path d="M0 0 C14.84 2.72 29.14 5.88 43 12 C43 12.33 43 12.66 43 13 C41.35 13 39.7 13 38 13 C38.5 14.98 38.5 14.98 39 17 C29.68 15.63 20.74 12.44 12 9 C11.15 8.73 10.31 8.46 9.44 8.19 C5.81 6.42 2.86 3.83 0 1 C0 0.67 0 0.34 0 0 Z " fill="#E6DE87" transform="translate(385,310)"/>
<path d="M0 0 C4.04 1.33 6.63 3.61 9.56 6.69 C11.55 11.27 10.52 14.38 9 19 C8.67 19 8.34 19 8 19 C7.87 18.31 7.73 17.63 7.6 16.92 C7.42 16.02 7.24 15.12 7.06 14.19 C6.89 13.29 6.71 12.4 6.54 11.48 C6.02 8.89 6.02 8.89 5 6 C0.68 3.44 -4.12 3.41 -9 4 C-12.45 5.35 -12.45 5.35 -15 7 C-14.71 7.7 -14.42 8.4 -14.12 9.12 C-12.98 12.05 -11.97 15.01 -11 18 C-11.66 18 -12.32 18 -13 18 C-13.33 19.32 -13.66 20.64 -14 22 C-14.49 20.01 -14.98 18.03 -15.46 16.04 C-15.91 14.34 -16.44 12.67 -17 11 C-19.42 9.83 -19.42 9.83 -22 9 C-22.66 8.67 -23.32 8.34 -24 8 C-28.1 7.61 -30.51 7.77 -34.25 9.56 C-37.63 12.56 -38.54 14.78 -40 19 C-40.99 18.67 -41.98 18.34 -43 18 C-43 14.63 -42.54 12.6 -40.26 10.08 C-34.77 5.21 -31.47 3.75 -24 4 C-23.01 4.27 -22.02 4.54 -21 4.81 C-17.53 5.03 -17.33 4.69 -14.81 2.56 C-10.25 -1.06 -5.59 -0.88 0 0 Z " fill="#10100F" transform="translate(75,273)"/>
<path d="M0 0 C0 0.33 0 0.66 0 1 C-5.14 2.15 -10.28 3.29 -15.42 4.42 C-17.17 4.8 -18.92 5.19 -20.66 5.58 C-23.18 6.14 -25.7 6.7 -28.22 7.25 C-29 7.42 -29.77 7.6 -30.57 7.78 C-35.15 8.77 -39.31 9.17 -44 9 C-44 8.01 -44 7.02 -44 6 C-39.36 3.93 -34.7 1.93 -30 0 C-28.68 -0.55 -28.68 -0.55 -27.34 -1.1 C-18.39 -4.3 -8.8 -3.24 0 0 Z " fill="#EEDAAE" transform="translate(360,310)"/>
<path d="M0 0 C-0.12 2.31 -0.12 2.31 -1 5 C-20.53 16.43 -50.39 13.31 -72 13 C-72 12.67 -72 12.34 -72 12 C-71.04 11.94 -70.07 11.88 -69.08 11.82 C-67.81 11.73 -66.55 11.65 -65.25 11.56 C-64 11.48 -62.74 11.4 -61.45 11.32 C-58.23 11.11 -58.23 11.11 -56.06 10.5 C-53.86 9.97 -51.87 9.83 -49.62 9.75 C-48.79 9.72 -47.95 9.69 -47.1 9.66 C-45.78 9.61 -45.78 9.61 -44.44 9.56 C-31.06 8.97 -18.44 7.04 -6.44 0.69 C-3 -1 -3 -1 0 0 Z " fill="#EDEEF0" transform="translate(197,328)"/>
<path d="M0 0 C3.04 4.56 4.54 9.66 6.37 14.8 C7.06 16.73 7.76 18.66 8.46 20.58 C9.11 22.42 9.11 22.42 9.79 24.3 C10.19 25.41 10.59 26.53 11 27.68 C12 31 12 31 13 38 C4.42 38 -4.16 38 -13 38 C-10 34 -10 34 -8.01 33.64 C-7.27 33.7 -6.53 33.76 -5.77 33.83 C-4.57 33.92 -4.57 33.92 -3.34 34 C-2.5 34.09 -1.67 34.17 -0.81 34.25 C0.03 34.32 0.88 34.38 1.75 34.45 C3.83 34.61 5.92 34.8 8 35 C7.36 33.07 6.71 31.14 6.07 29.21 C5.52 27.56 4.97 25.92 4.43 24.28 C3.2 20.59 1.97 16.91 0.71 13.24 C0.35 12.19 -0.01 11.14 -0.38 10.06 C-0.69 9.15 -1.01 8.23 -1.34 7.29 C-2 5 -2 5 -2 2 C-1.34 1.34 -0.68 0.68 0 0 Z " fill="#919191" transform="translate(456,354)"/>
<path d="M0 0 C1.61 -0.02 1.61 -0.02 3.26 -0.04 C4.29 -0.04 5.31 -0.04 6.37 -0.04 C7.79 -0.05 7.79 -0.05 9.24 -0.06 C11.56 0.19 11.56 0.19 13.56 2.19 C13.01 6.74 13.01 6.74 11.56 8.19 C7.76 8.44 3.94 8.37 0.12 8.38 C-1.49 8.39 -1.49 8.39 -3.13 8.41 C-4.16 8.41 -5.19 8.42 -6.25 8.42 C-7.67 8.42 -7.67 8.42 -9.11 8.43 C-11.44 8.19 -11.44 8.19 -13.44 6.19 C-12.43 -2.1 -7.15 0 0 0 Z " fill="#000000" transform="translate(302.4375,152.8125)"/>
<path d="M0 0 C0.66 0.33 1.32 0.66 2 1 C2 1.66 2 2.32 2 3 C2.66 3 3.32 3 4 3 C5.77 4.62 7.38 6.25 9 8 C9.56 8.58 10.12 9.16 10.7 9.75 C11.25 10.35 11.8 10.95 12.38 11.56 C12.9 12.12 13.42 12.68 13.96 13.25 C15 15 15 15 14.66 17.21 C14.44 17.8 14.23 18.39 14 19 C11.74 19.69 11.74 19.69 9 20 C7.01 18.81 7.01 18.81 5.12 17 C4.45 16.35 3.77 15.7 3.07 15.04 C2.39 14.36 1.7 13.69 1 13 C0.32 12.4 -0.37 11.8 -1.07 11.18 C-5.9 6.82 -5.9 6.82 -6.44 2.56 C-6.29 1.72 -6.15 0.87 -6 0 C-3.48 -1.26 -2.62 -0.82 0 0 Z " fill="#000000" transform="translate(215,113)"/>
<path d="M0 0 C1.54 -0.02 1.54 -0.02 3.1 -0.04 C4.08 -0.04 5.06 -0.04 6.06 -0.04 C7.41 -0.05 7.41 -0.05 8.79 -0.06 C11 0.19 11 0.19 13 2.19 C12.44 6.74 12.44 6.74 11 8.19 C9.39 8.29 7.77 8.32 6.16 8.32 C5.18 8.32 4.2 8.32 3.19 8.32 C1.64 8.32 1.64 8.32 0.06 8.31 C-1.48 8.32 -1.48 8.32 -3.05 8.32 C-4.03 8.32 -5.02 8.32 -6.03 8.32 C-6.93 8.32 -7.84 8.32 -8.77 8.32 C-11 8.19 -11 8.19 -13 7.19 C-13 5.21 -13 3.23 -13 1.19 C-9.11 -0.76 -4.27 0 0 0 Z " fill="#000000" transform="translate(206,152.8125)"/>
<path d="M0 0 C0.73 0.25 1.47 0.49 2.23 0.75 C2.73 3.82 2.78 5.93 0.99 8.55 C-0.75 10.5 -2.57 12.31 -4.46 14.12 C-5.09 14.76 -5.71 15.4 -6.36 16.06 C-11.02 20.64 -11.02 20.64 -14.73 21.16 C-15.4 21.02 -16.08 20.89 -16.77 20.75 C-17.43 19.43 -18.09 18.11 -18.77 16.75 C-16.48 14.04 -14.14 11.39 -11.77 8.75 C-11.02 7.9 -10.26 7.05 -9.48 6.18 C-8.71 5.35 -7.94 4.53 -7.15 3.68 C-6.08 2.52 -6.08 2.52 -4.98 1.34 C-2.77 -0.25 -2.77 -0.25 0 0 Z " fill="#000000" transform="translate(295.7734375,112.25390625)"/>
<path d="M0 0 C2.5 0.12 2.5 0.12 3.5 1.12 C3.75 5.1 3.69 9.08 3.69 13.06 C3.7 14.19 3.71 15.31 3.72 16.47 C3.73 18.07 3.73 18.07 3.73 19.71 C3.73 20.7 3.74 21.69 3.74 22.71 C3.5 25.12 3.5 25.12 1.5 27.12 C-2.04 26.59 -2.04 26.59 -3.5 25.12 C-3.6 23.36 -3.63 21.58 -3.63 19.81 C-3.63 18.74 -3.64 17.66 -3.64 16.55 C-3.63 14.86 -3.63 14.86 -3.62 13.12 C-3.63 11.99 -3.63 10.86 -3.64 9.7 C-3.64 8.62 -3.63 7.55 -3.63 6.44 C-3.63 5.44 -3.63 4.45 -3.63 3.43 C-3.45 0.2 -3.24 0.16 0 0 Z " fill="#000000" transform="translate(253.5,94.875)"/>
<path d="M0 0 C1.38 3.74 0.59 6.14 -0.62 9.87 C-0.98 11 -1.34 12.13 -1.71 13.3 C-2.09 14.48 -2.48 15.66 -2.88 16.88 C-3.63 19.2 -4.37 21.54 -5.12 23.87 C-5.62 25.42 -5.62 25.42 -6.14 27 C-7 29.99 -7.55 32.92 -8 36 C-4.38 34.27 -1.12 32.52 2 30 C2.66 30.33 3.32 30.66 4 31 C-1.75 36 -1.75 36 -4 36 C-4 36.99 -4 37.98 -4 39 C-7 40.5 -9.79 40.09 -13.12 40.06 C-14.41 40.05 -15.69 40.04 -17.01 40.04 C-18.49 40.02 -18.49 40.02 -20 40 C-20.66 38.68 -21.32 37.36 -22 36 C-20.51 35.5 -20.51 35.5 -19 35 C-18.67 33.35 -18.34 31.7 -18 30 C-17.59 30.5 -17.18 30.99 -16.75 31.5 C-14.88 33.43 -14.88 33.43 -11 33 C-10.74 32.21 -10.48 31.43 -10.21 30.62 C-6.8 20.41 -3.4 10.21 0 0 Z " fill="#FBEAC6" transform="translate(166,226)"/>
<path d="M0 0 C2.01 3.71 3.38 7.64 4.79 11.62 C5.05 12.35 5.31 13.09 5.58 13.84 C6.13 15.39 6.68 16.95 7.22 18.5 C8.06 20.86 8.9 23.22 9.74 25.58 C10.28 27.09 10.81 28.61 11.35 30.12 C11.6 30.82 11.85 31.52 12.11 32.24 C13.48 36.14 14.45 39.9 15 44 C12.69 43.5 12.69 43.5 10 42 C8.71 39.28 7.79 36.85 6.92 34 C6.66 33.21 6.41 32.42 6.14 31.6 C5.33 29.07 4.54 26.54 3.75 24 C3.2 22.29 2.66 20.58 2.11 18.88 C1.34 16.47 0.57 14.07 -0.19 11.66 C-1.39 7.75 -1.39 7.75 -3 4 C-2.34 4 -1.68 4 -1 4 C-0.67 2.68 -0.34 1.36 0 0 Z " fill="#929392" transform="translate(432,283)"/>
<path d="M0 0 C-2.98 1.99 -4.64 2.5 -8.09 3.18 C-9.6 3.49 -9.6 3.49 -11.14 3.8 C-12.74 4.12 -12.74 4.12 -14.38 4.44 C-16.55 4.87 -18.73 5.31 -20.91 5.75 C-21.96 5.97 -23.01 6.18 -24.09 6.4 C-28.63 7.34 -33.12 8.45 -37.61 9.62 C-40.13 10.02 -41.58 9.69 -44 9 C-37.09 5.17 -30.53 2.81 -22.81 1.19 C-21.39 0.86 -21.39 0.86 -19.95 0.53 C-13.11 -0.97 -6.9 -1.67 0 0 Z " fill="#DDCCA1" transform="translate(396,323)"/>
<path d="M0 0 C6.12 0.02 6.12 0.02 8.9 2.21 C10.4 4.26 11.61 6.32 12.81 8.56 C13.79 9.91 14.79 11.25 15.81 12.56 C13.04 11.39 10.99 9.91 8.75 7.94 C6.05 5.25 6.05 5.25 2.81 5.56 C3.14 10.51 3.47 15.46 3.81 20.56 C3.15 20.56 2.49 20.56 1.81 20.56 C0.82 16.6 -0.17 12.64 -1.19 8.56 C-5.23 8.19 -5.23 8.19 -8.19 10.56 C-8.05 9.08 -7.9 7.6 -7.75 6.12 C-7.67 5.3 -7.59 4.48 -7.5 3.63 C-6.85 -0.63 -3.8 0.2 0 0 Z " fill="#F0EBDA" transform="translate(154.1875,269.4375)"/>
<path d="M0 0 C0.66 0.33 1.32 0.66 2 1 C2.65 21.25 -0.95 36.62 -15 52 C-15.99 52.5 -15.99 52.5 -17 53 C-15.5 49.77 -13.66 46.79 -11.78 43.77 C-8.01 37.68 -4.76 32 -3 25 C-2.66 23.96 -2.32 22.91 -1.97 21.84 C-0.84 17.37 -0.55 13.16 -0.38 8.56 C-0.34 7.74 -0.3 6.91 -0.26 6.06 C-0.16 4.04 -0.08 2.02 0 0 Z " fill="#F2B877" transform="translate(219,262)"/>
<path d="M0 0 C3.33 0.63 6.1 1.2 9 3 C11.68 7.01 11.59 10.28 11 15 C9.5 17.56 9.5 17.56 8 19 C5.15 12.73 2.51 6.41 0 0 Z " fill="#826E8B" transform="translate(31,306)"/>
<path d="M0 0 C0.66 0.66 1.32 1.32 2 2 C-15.03 3.88 -31.87 4.25 -49 4 C-49 3.67 -49 3.34 -49 3 C-48.04 2.94 -47.07 2.88 -46.08 2.82 C-44.81 2.73 -43.55 2.65 -42.25 2.56 C-41 2.48 -39.74 2.4 -38.45 2.32 C-35.23 2.11 -35.23 2.11 -33.06 1.5 C-30.84 0.96 -28.8 0.81 -26.52 0.72 C-25.66 0.68 -24.81 0.64 -23.93 0.61 C-23.05 0.57 -22.16 0.54 -21.25 0.5 C-16.32 0.3 -11.44 0.1 -6.55 -0.59 C-3 -1 -3 -1 0 0 Z " fill="#C8C9CA" transform="translate(174,337)"/>
<path d="M0 0 C5.96 0.35 7.97 1.75 12 6 C13.13 6.22 13.13 6.22 14.29 6.44 C17.68 7.14 19.92 8.61 22.81 10.5 C23.79 11.13 24.76 11.76 25.77 12.41 C26.51 12.93 27.24 13.46 28 14 C28 14.33 28 14.66 28 15 C22.34 15.89 19.36 13.53 14.81 10.6 C10.15 7.95 5.13 6.5 0 5 C0 3.35 0 1.7 0 0 Z " fill="#F3AF0C" transform="translate(423,323)"/>
<path d="M0 0 C1 3 1 3 0.38 4.79 C0.04 5.44 -0.31 6.09 -0.66 6.77 C-1.04 7.49 -1.42 8.22 -1.82 8.96 C-2.23 9.72 -2.64 10.47 -3.06 11.25 C-3.45 11.99 -3.83 12.73 -4.22 13.49 C-6.95 18.59 -10.1 22.72 -14 27 C-16.02 23.26 -16.02 23.26 -15.82 20.94 C-14.86 18.66 -13.8 17.63 -11.94 16 C-7.02 11.34 -3.6 5.7 0 0 Z " fill="#E7E8E9" transform="translate(216,303)"/>
<path d="M0 0 C0 3 0 3 -2.12 6.12 C-8.72 16.3 -11.67 29.25 -14 41 C-14.66 41 -15.32 41 -16 41 C-16.71 32.32 -15 26.09 -11.38 18.25 C-10.95 17.26 -10.52 16.27 -10.08 15.25 C-7.42 9.29 -4.5 4.73 0 0 Z " fill="#E28825" transform="translate(106,225)"/>
<path d="M0 0 C0.7 0.23 1.4 0.45 2.12 0.69 C3.79 1.03 5.46 1.36 7.12 1.69 C7.12 2.02 7.12 2.35 7.12 2.69 C6.57 2.77 6.01 2.86 5.44 2.95 C-2.6 4.43 -8.29 7.26 -13.25 13.88 C-13.94 14.89 -13.94 14.89 -14.65 15.92 C-15.88 17.69 -15.88 17.69 -17.88 19.69 C-18.86 19.03 -19.86 18.37 -20.88 17.69 C-16.14 11.31 -11.54 6.06 -4.88 1.69 C-1.88 -0.31 -1.88 -0.31 0 0 Z " fill="#18130E" transform="translate(125.875,281.3125)"/>
<path d="M0 0 C7.39 -0.57 13.52 0.22 20 4 C22.05 5.89 23.41 7.67 25 10 C21.37 9.45 18.31 8.33 14.96 6.82 C12.08 5.62 9.11 4.74 6.11 3.84 C3.73 2.89 1.98 1.61 0 0 Z " fill="#F4B10D" transform="translate(344,382)"/>
<path d="M0 0 C0.33 0 0.66 0 1 0 C0.67 5.94 0.34 11.88 0 18 C-0.33 18 -0.66 18 -1 18 C-1.21 17.09 -1.41 16.19 -1.62 15.25 C-3.34 11.2 -5.2 10.09 -9 8 C-9.99 7.67 -10.98 7.34 -12 7 C-12 6.34 -12 5.68 -12 5 C-10.83 4.58 -10.83 4.58 -9.63 4.16 C-8.62 3.8 -7.61 3.44 -6.56 3.06 C-5.55 2.7 -4.54 2.34 -3.5 1.97 C-1.1 1.23 -1.1 1.23 0 0 Z " fill="#A9D2D7" transform="translate(435,179)"/>
<path d="M0 0 C0.33 0 0.66 0 1 0 C1.23 1.07 1.45 2.14 1.69 3.25 C2.9 8.17 4.87 12.72 6.88 17.36 C8 20 8 20 9 23 C5.28 21.79 1.62 20.49 -2 19 C-1.83 18.3 -1.67 17.61 -1.5 16.89 C-0.96 13.79 -0.94 10.95 -1 7.81 C-1.11 2.22 -1.11 2.22 0 0 Z " fill="#D7DEBE" transform="translate(86,280)"/>
<path d="M0 0 C0 0.33 0 0.66 0 1 C-1.18 1.05 -2.37 1.1 -3.59 1.15 C-15.67 1.7 -26.44 3.31 -38 7 C-36.05 3.09 -30.37 1.75 -26.41 0.27 C-18.12 -2.43 -8.42 -1.98 0 0 Z " fill="#E58823" transform="translate(164,205)"/>
<path d="M0 0 C-2.85 1.9 -4 2.35 -7.23 2.85 C-8.03 2.98 -8.84 3.11 -9.66 3.24 C-10.5 3.37 -11.33 3.49 -12.19 3.62 C-13.03 3.76 -13.88 3.89 -14.75 4.03 C-16.83 4.36 -18.92 4.68 -21 5 C-21 3.68 -21 2.36 -21 1 C-13.8 -0.83 -7.36 -1.78 0 0 Z " fill="#F3DFB2" transform="translate(396,323)"/>
<path d="M0 0 C6.6 0 13.2 0 20 0 C20 0.99 20 1.98 20 3 C13.07 3 6.14 3 -1 3 C-0.67 2.01 -0.34 1.02 0 0 Z " fill="#E0FAFB" transform="translate(380,180)"/>
<path d="M0 0 C-2.71 0.9 -4.24 1.12 -7.01 1.1 C-8.15 1.09 -8.15 1.09 -9.31 1.09 C-10.09 1.08 -10.88 1.07 -11.69 1.06 C-12.48 1.06 -13.28 1.05 -14.1 1.05 C-16.07 1.04 -18.03 1.02 -20 1 C-20.33 0.34 -20.66 -0.32 -21 -1 C-14.16 -3.58 -6.27 -4.18 0 0 Z " fill="#F5AD06" transform="translate(247,350)"/>
<path d="M0 0 C1.03 2.65 1.1 3.75 0.07 6.45 C-9.31 23.16 -9.31 23.16 -15 26 C-13.15 22.07 -10.87 18.4 -8.62 14.69 C-5.68 9.83 -2.8 4.94 0 0 Z " fill="#E6B074" transform="translate(217,289)"/>
<path d="M0 0 C3.4 1.06 6.01 2.01 9 4 C9 5.32 9 6.64 9 8 C6 10 6 10 3 10 C2.01 6.7 1.02 3.4 0 0 Z " fill="#E2E4E5" transform="translate(220,245)"/>
<path d="M0 0 C2.44 0.31 2.44 0.31 4.44 2.31 C4.06 4.44 4.06 4.44 3.44 6.31 C1.19 7.06 1.19 7.06 -1.56 7.31 C-3.88 5.38 -3.88 5.38 -5.56 3.31 C-3.75 1.02 -2.96 0.36 0 0 Z " fill="#98C584" transform="translate(142.5625,300.6875)"/>
<path d="M0 0 C0 0.33 0 0.66 0 1 C-3.42 1.06 -6.83 1.09 -10.25 1.12 C-11.7 1.15 -11.7 1.15 -13.18 1.18 C-14.59 1.19 -14.59 1.19 -16.02 1.2 C-16.87 1.21 -17.73 1.22 -18.62 1.23 C-21.18 0.98 -22.8 0.29 -25 -1 C-16.18 -1.99 -8.61 -2.42 0 0 Z " fill="#F8FAFB" transform="translate(125,340)"/>
<path d="M0 0 C0.33 0 0.66 0 1 0 C1 2.97 1 5.94 1 9 C2.65 9 4.3 9 6 9 C6 9.33 6 9.66 6 10 C4.02 10 2.04 10 0 10 C-0.33 9.34 -0.66 8.68 -1 8 C-1.62 8.5 -2.24 8.99 -2.88 9.5 C-5 11 -5 11 -7 11 C-6.41 7.64 -5.26 5.79 -3 3.25 C-2.46 2.64 -1.93 2.02 -1.38 1.39 C-0.69 0.7 -0.69 0.7 0 0 Z " fill="#161411" transform="translate(158,290)"/>
<path d="M0 0 C7.37 4.42 7.37 4.42 9 9 C8.64 12.1 7.9 15.02 7 18 C6.67 18 6.34 18 6 18 C5.8 16.97 5.8 16.97 5.6 15.92 C5.42 15.02 5.24 14.12 5.06 13.19 C4.89 12.29 4.71 11.4 4.54 10.48 C4.02 7.89 4.02 7.89 3 5 C2.01 4.67 1.02 4.34 0 4 C0 2.68 0 1.36 0 0 Z " fill="#1A1B19" transform="translate(77,274)"/>
<path d="M0 0 C1.48 0.45 2.96 0.91 4.44 1.38 C5.26 1.63 6.08 1.89 6.93 2.15 C9 3 9 3 10 5 C6.7 6.32 3.4 7.64 0 9 C0 6.03 0 3.06 0 0 Z " fill="#B0DCE2" transform="translate(345,180)"/>
<path d="M0 0 C5.61 0 11.22 0 17 0 C12.89 3.08 12.17 3.41 7.38 3.38 C6.41 3.38 5.45 3.39 4.46 3.4 C3.65 3.27 2.84 3.14 2 3 C1.34 2.01 0.68 1.02 0 0 Z " fill="#221817" transform="translate(118,337)"/>
<path d="M0 0 C2.31 0.66 4.62 1.32 7 2 C6.01 3.65 5.02 5.3 4 7 C1.69 6.34 -0.62 5.68 -3 5 C-1.12 1.12 -1.12 1.12 0 0 Z " fill="#7B6883" transform="translate(61,303)"/>
<path d="M0 0 C0.66 0.33 1.32 0.66 2 1 C1.01 6.28 0.02 11.56 -1 17 C-1.33 17 -1.66 17 -2 17 C-2 11.72 -2 6.44 -2 1 C-1.34 0.67 -0.68 0.34 0 0 Z " fill="#D0D2D2" transform="translate(227,258)"/>
<path d="M0 0 C2.96 2.75 5.15 5.4 7 9 C7 9.99 7 10.98 7 12 C5.11 11.74 5.11 11.74 3 11 C1.95 9.26 1.95 9.26 1.25 7.12 C1.01 6.43 0.77 5.73 0.52 5.01 C0 3 0 3 0 0 Z " fill="#D6D9D7" transform="translate(26,291)"/>
<path d="M0 0 C-0.25 3.38 -0.25 3.38 -1 7 C-3.06 8.44 -3.06 8.44 -5 9 C-4.41 2.85 -4.41 2.85 -4 1 C-2 0 -2 0 0 0 Z " fill="#8DB279" transform="translate(149,309)"/>
<path d="M0 0 C0.33 0.66 0.66 1.32 1 2 C-2.98 3.33 -6.85 3.07 -11 3 C-10 1 -10 1 -7.19 -0.19 C-4.15 -0.96 -2.82 -1.25 0 0 Z " fill="#120F0E" transform="translate(142,337)"/>
<path d="M0 0 C3.38 1.19 5.65 2.28 8 5 C7.67 5.99 7.34 6.98 7 8 C1.22 4.55 1.22 4.55 0.12 1.75 C0.08 1.17 0.04 0.6 0 0 Z " fill="#94C082" transform="translate(140,292)"/>
<path d="M0 0 C5.75 1.75 5.75 1.75 8 4 C4.37 4 0.74 4 -3 4 C-2.01 2.68 -1.02 1.36 0 0 Z " fill="#E3EAC8" transform="translate(97,330)"/>
<path d="M0 0 C3.91 1.27 5.79 2.51 8 6 C4.28 6.2 3.23 6.15 0 4 C0 2.68 0 1.36 0 0 Z " fill="#88AA75" transform="translate(152,306)"/>
<path d="M0 0 C0.66 0.33 1.32 0.66 2 1 C0.75 3.94 0.75 3.94 -1 7 C-3.19 7.88 -3.19 7.88 -5 8 C-5.33 7.34 -5.66 6.68 -6 6 C-5.67 5.34 -5.34 4.68 -5 4 C-4.34 4 -3.68 4 -3 4 C-3 3.34 -3 2.68 -3 2 C-2.01 1.34 -1.02 0.68 0 0 Z " fill="#1A1412" transform="translate(139,298)"/>
<path d="M0 0 C3.82 4.51 5.35 9.1 5 15 C1.11 10.58 0 5.81 0 0 Z " fill="#D68226" transform="translate(214,242)"/>
<path d="M0 0 C0.56 0.14 1.11 0.29 1.69 0.44 C4.11 1.03 6.55 1.52 9 2 C9 2.33 9 2.66 9 3 C3.56 3.99 3.56 3.99 -2 5 C-1.34 3.35 -0.68 1.7 0 0 Z " fill="#261B13" transform="translate(124,281)"/>
<path d="M0 0 C0.66 0.33 1.32 0.66 2 1 C-1.3 4.3 -4.6 7.6 -8 11 C-8.33 10.01 -8.66 9.02 -9 8 C-6.03 5.36 -3.06 2.72 0 0 Z " fill="#F0D2A2" transform="translate(116,216)"/>
<path d="M0 0 C-1.48 4.68 -1.48 4.68 -4.12 6.31 C-5.05 6.65 -5.05 6.65 -6 7 C-5.37 3.36 -4.15 0 0 0 Z " fill="#91B97D" transform="translate(157,294)"/>
<path d="M0 0 C4.16 -0.08 7.95 0.02 12 1 C8.74 3.17 7.78 3.46 4 3 C1.69 1.5 1.69 1.5 0 0 Z " fill="#D7C49B" transform="translate(384,322)"/>
<path d="M0 0 C2.44 0.69 2.44 0.69 5 2 C5.81 4.62 5.81 4.62 6 7 C3.96 5.38 1.96 3.71 0 2 C0 1.34 0 0.68 0 0 Z " fill="#8CAC75" transform="translate(152,313)"/>
</svg>
