<?xml version="1.0" encoding="UTF-8"?>
<!-- Generator: visioncortex VTracer 0.6.4 -->
<svg version="1.1" xmlns="http://www.w3.org/2000/svg" width="500" height="500">
<path d="M0 0 C7.08 0.3 14.16 0.47 21.24 0.67 C23.14 0.72 25.04 0.78 26.94 0.84 C42.03 1.34 56.88 0.8 71.95 -0.19 C151.63 -5.23 151.63 -5.23 175.83 15.71 C188.23 26.92 199.86 40.64 208.22 55.17 C208.22 55.83 208.22 56.49 208.22 57.17 C208.88 57.17 209.54 57.17 210.22 57.17 C210.22 57.83 210.22 58.49 210.22 59.17 C210.88 59.17 211.54 59.17 212.22 59.17 C213.58 60.55 213.58 60.55 215.19 62.51 C219.31 67.36 223.77 71.82 228.29 76.29 C229.78 77.76 231.26 79.23 232.74 80.7 C236.95 84.88 241.16 89.06 245.38 93.23 C247.97 95.8 250.56 98.37 253.15 100.94 C254.13 101.92 255.11 102.9 256.1 103.87 C257.47 105.22 258.84 106.58 260.2 107.94 C261.37 109.09 261.37 109.09 262.56 110.27 C264.22 112.17 264.22 112.17 264.22 114.17 C264.88 114.17 265.54 114.17 266.22 114.17 C267.89 115.87 269.32 117.72 270.8 119.59 C273.17 122.31 273.17 122.31 276.44 124.28 C281.78 127.96 285.51 131.9 286.92 138.37 C287.89 147.8 287.52 157.29 287.18 166.74 C286.94 173.85 286.77 180.96 286.6 188.08 C286.56 189.98 286.51 191.89 286.45 193.8 C286.03 208.91 286.61 223.8 287.62 238.88 C292.74 318.45 292.74 318.45 271.43 343.03 C259.97 355.68 246 367.56 231.22 376.17 C230.56 376.17 229.9 376.17 229.22 376.17 C229.22 376.83 229.22 377.49 229.22 378.17 C227.85 379.52 227.85 379.52 225.89 381.12 C220.98 385.31 216.45 389.84 211.92 394.43 C210.41 395.95 208.91 397.46 207.4 398.98 C203.12 403.28 198.85 407.59 194.59 411.9 C191.96 414.55 189.33 417.2 186.7 419.84 C185.7 420.85 184.7 421.85 183.71 422.86 C182.32 424.27 180.93 425.66 179.54 427.06 C178.76 427.85 177.97 428.65 177.15 429.47 C175.22 431.17 175.22 431.17 173.22 431.17 C173.22 431.83 173.22 432.49 173.22 433.17 C171.52 434.84 169.67 436.27 167.8 437.75 C165.08 440.12 165.08 440.12 163.09 443.39 C159.42 448.68 155.5 452.45 149.06 453.87 C139.8 454.84 130.47 454.47 121.17 454.13 C114.16 453.89 107.15 453.73 100.13 453.56 C98.25 453.51 96.36 453.46 94.47 453.41 C79.34 452.99 64.42 453.55 49.33 454.51 C-31.37 459.43 -31.37 459.43 -55.2 438.89 C-67.35 427.93 -78.72 414.44 -86.78 400.17 C-86.78 399.51 -86.78 398.85 -86.78 398.17 C-87.44 398.17 -88.1 398.17 -88.78 398.17 C-90.16 396.77 -90.16 396.77 -91.79 394.79 C-96.14 389.67 -100.87 384.99 -105.65 380.27 C-107.06 378.87 -108.47 377.47 -109.88 376.07 C-113.32 372.65 -116.77 369.24 -120.22 365.83 C-122.17 363.9 -124.12 361.96 -126.06 360.03 C-127.89 358.21 -129.72 356.4 -131.56 354.59 C-132.37 353.78 -133.19 352.96 -134.03 352.12 C-134.76 351.41 -135.48 350.69 -136.23 349.95 C-137.78 348.17 -137.78 348.17 -137.78 346.17 C-138.34 345.95 -138.9 345.73 -139.47 345.5 C-143.03 343.44 -145.42 340.39 -148.06 337.27 C-150.57 334.37 -152.93 331.94 -156.18 329.87 C-161.47 326.25 -165.09 322.38 -166.47 315.97 C-167.45 306.54 -167.08 297.05 -166.74 287.6 C-166.5 280.49 -166.33 273.38 -166.17 266.27 C-166.12 264.36 -166.07 262.45 -166.01 260.54 C-165.6 245.42 -166.16 230.52 -167.15 215.43 C-172.17 135.75 -172.17 135.75 -151.48 111.84 C-140.65 99.87 -127.81 90.09 -114.5 81.07 C-107.01 75.83 -100.71 69.23 -94.29 62.75 C-92.74 61.19 -91.19 59.64 -89.64 58.08 C-86.35 54.78 -83.07 51.48 -79.78 48.17 C-75.97 44.33 -72.15 40.5 -68.33 36.67 C-66.82 35.15 -65.31 33.62 -63.8 32.1 C-59.81 28.09 -55.83 24.15 -51.49 20.51 C-48.79 18.22 -46.75 15.91 -44.7 13.02 C-33.11 -2.57 -17.62 -0.77 0 0 Z " fill="#ED2024" transform="translate(189.77910995483398,22.830745697021484)"/>
<path d="M0 0 C7.08 0.3 14.16 0.47 21.24 0.67 C23.14 0.72 25.04 0.78 26.94 0.84 C42.03 1.34 56.88 0.8 71.95 -0.19 C151.63 -5.23 151.63 -5.23 175.83 15.71 C188.23 26.92 199.86 40.64 208.22 55.17 C208.22 55.83 208.22 56.49 208.22 57.17 C208.88 57.17 209.54 57.17 210.22 57.17 C210.22 57.83 210.22 58.49 210.22 59.17 C210.88 59.17 211.54 59.17 212.22 59.17 C213.58 60.55 213.58 60.55 215.19 62.51 C219.31 67.36 223.77 71.82 228.29 76.29 C229.78 77.76 231.26 79.23 232.74 80.7 C236.95 84.88 241.16 89.06 245.38 93.23 C247.97 95.8 250.56 98.37 253.15 100.94 C254.13 101.92 255.11 102.9 256.1 103.87 C257.47 105.22 258.84 106.58 260.2 107.94 C261.37 109.09 261.37 109.09 262.56 110.27 C264.22 112.17 264.22 112.17 264.22 114.17 C264.88 114.17 265.54 114.17 266.22 114.17 C267.89 115.87 269.32 117.72 270.8 119.59 C273.17 122.31 273.17 122.31 276.44 124.28 C281.78 127.96 285.51 131.9 286.92 138.37 C287.89 147.8 287.52 157.29 287.18 166.74 C286.94 173.85 286.77 180.96 286.6 188.08 C286.56 189.98 286.51 191.89 286.45 193.8 C286.03 208.91 286.61 223.8 287.62 238.88 C292.74 318.45 292.74 318.45 271.43 343.03 C259.97 355.68 246 367.56 231.22 376.17 C230.56 376.17 229.9 376.17 229.22 376.17 C229.22 376.83 229.22 377.49 229.22 378.17 C227.85 379.52 227.85 379.52 225.89 381.12 C220.98 385.31 216.45 389.84 211.92 394.43 C210.41 395.95 208.91 397.46 207.4 398.98 C203.12 403.28 198.85 407.59 194.59 411.9 C191.96 414.55 189.33 417.2 186.7 419.84 C185.7 420.85 184.7 421.85 183.71 422.86 C182.32 424.27 180.93 425.66 179.54 427.06 C178.76 427.85 177.97 428.65 177.15 429.47 C175.22 431.17 175.22 431.17 173.22 431.17 C173.22 431.83 173.22 432.49 173.22 433.17 C171.52 434.84 169.67 436.27 167.8 437.75 C165.08 440.12 165.08 440.12 163.09 443.39 C159.42 448.68 155.5 452.45 149.06 453.87 C139.8 454.84 130.47 454.47 121.17 454.13 C114.16 453.89 107.15 453.73 100.13 453.56 C98.25 453.51 96.36 453.46 94.47 453.41 C79.34 452.99 64.42 453.55 49.33 454.51 C-31.37 459.43 -31.37 459.43 -55.2 438.89 C-67.35 427.93 -78.72 414.44 -86.78 400.17 C-86.78 399.51 -86.78 398.85 -86.78 398.17 C-87.44 398.17 -88.1 398.17 -88.78 398.17 C-90.16 396.77 -90.16 396.77 -91.79 394.79 C-96.14 389.67 -100.87 384.99 -105.65 380.27 C-107.06 378.87 -108.47 377.47 -109.88 376.07 C-113.32 372.65 -116.77 369.24 -120.22 365.83 C-122.17 363.9 -124.12 361.96 -126.06 360.03 C-127.89 358.21 -129.72 356.4 -131.56 354.59 C-132.37 353.78 -133.19 352.96 -134.03 352.12 C-134.76 351.41 -135.48 350.69 -136.23 349.95 C-137.78 348.17 -137.78 348.17 -137.78 346.17 C-138.34 345.95 -138.9 345.73 -139.47 345.5 C-143.03 343.44 -145.42 340.39 -148.06 337.27 C-150.57 334.37 -152.93 331.94 -156.18 329.87 C-161.47 326.25 -165.09 322.38 -166.47 315.97 C-167.45 306.54 -167.08 297.05 -166.74 287.6 C-166.5 280.49 -166.33 273.38 -166.17 266.27 C-166.12 264.36 -166.07 262.45 -166.01 260.54 C-165.6 245.42 -166.16 230.52 -167.15 215.43 C-172.17 135.75 -172.17 135.75 -151.48 111.84 C-140.65 99.87 -127.81 90.09 -114.5 81.07 C-107.01 75.83 -100.71 69.23 -94.29 62.75 C-92.74 61.19 -91.19 59.64 -89.64 58.08 C-86.35 54.78 -83.07 51.48 -79.78 48.17 C-75.97 44.33 -72.15 40.5 -68.33 36.67 C-66.82 35.15 -65.31 33.62 -63.8 32.1 C-59.81 28.09 -55.83 24.15 -51.49 20.51 C-48.79 18.22 -46.75 15.91 -44.7 13.02 C-33.11 -2.57 -17.62 -0.77 0 0 Z M-36.67 34.72 C-40.34 38.98 -44.41 42.84 -48.42 46.77 C-50.88 49.19 -53.3 51.64 -55.73 54.08 C-56.71 55.07 -57.69 56.06 -58.68 57.04 C-59.67 58.04 -60.66 59.04 -61.65 60.04 C-65.14 63.55 -68.63 67.06 -72.12 70.56 C-73.5 71.95 -74.88 73.34 -76.25 74.73 C-77.08 75.56 -77.91 76.4 -78.77 77.25 C-79.5 77.99 -80.22 78.72 -80.98 79.48 C-82.78 81.17 -82.78 81.17 -84.78 82.17 C-84.78 82.83 -84.78 83.49 -84.78 84.17 C-85.61 84.51 -85.61 84.51 -86.45 84.85 C-89.5 86.57 -91.6 88.76 -94.07 91.25 C-94.84 92.02 -94.84 92.02 -95.63 92.81 C-97.32 94.51 -99.01 96.22 -100.69 97.92 C-101.87 99.11 -103.05 100.29 -104.23 101.47 C-107.32 104.58 -110.42 107.7 -113.51 110.82 C-118.46 115.81 -123.42 120.8 -128.38 125.79 C-130.11 127.53 -131.84 129.28 -133.57 131.03 C-134.63 132.09 -135.69 133.16 -136.75 134.22 C-137.68 135.16 -138.6 136.09 -139.55 137.05 C-141.78 139.17 -141.78 139.17 -143.78 140.17 C-143.91 156.58 -144.04 172.98 -144.17 189.39 C-144.23 197.01 -144.29 204.64 -144.35 212.26 C-144.37 214.49 -144.39 216.72 -144.41 218.96 C-144.42 220.43 -144.43 221.91 -144.44 223.39 C-144.51 231.37 -144.57 239.35 -144.61 247.34 C-144.62 250.13 -144.64 252.92 -144.66 255.71 C-144.66 256.38 -144.66 257.06 -144.67 257.75 C-144.71 265.45 -144.8 273.15 -145 280.84 C-145.1 284.51 -145.16 288.17 -145.23 291.84 C-145.28 294.19 -145.37 296.54 -145.47 298.89 C-145.67 306.92 -144.66 312.01 -139.27 318.18 C-136.62 320.66 -133.82 322.69 -130.8 324.69 C-128.75 326.19 -127.33 327.69 -125.71 329.65 C-121.45 334.63 -116.83 339.23 -112.18 343.85 C-110.59 345.42 -109 347.01 -107.41 348.59 C-104.03 351.95 -100.66 355.31 -97.28 358.67 C-93.36 362.57 -89.44 366.46 -85.53 370.36 C-83.97 371.91 -82.42 373.45 -80.86 375 C-76.23 379.6 -71.75 384.26 -67.5 389.22 C-64.12 393.05 -60.45 396.6 -56.82 400.19 C-55.99 401.02 -55.16 401.85 -54.3 402.7 C-51.67 405.32 -49.04 407.93 -46.4 410.54 C-42.91 414.01 -39.43 417.47 -35.94 420.94 C-35.14 421.74 -34.34 422.53 -33.51 423.35 C-32.77 424.09 -32.03 424.82 -31.27 425.58 C-30.62 426.23 -29.97 426.87 -29.29 427.54 C-27.78 429.17 -27.78 429.17 -26.78 431.17 C-10.98 431.3 4.82 431.43 20.62 431.56 C27.24 431.61 33.86 431.67 40.49 431.72 C41.92 431.74 43.36 431.75 44.79 431.76 C48.35 431.79 51.91 431.82 55.47 431.85 C62.5 431.92 69.53 431.96 76.56 431.96 C79.31 431.96 82.05 431.97 84.8 431.97 C85.46 431.97 86.13 431.97 86.82 431.98 C95.64 432.01 104.36 432.4 113.15 433.13 C129.68 434.39 143.17 435.32 156.38 424.06 C161.97 418.94 166.93 413.32 171.81 407.54 C174.61 404.28 177.54 401.14 180.47 397.98 C184.26 393.88 187.99 389.75 191.65 385.53 C195.57 381.03 199.53 376.83 204.12 372.99 C208.32 369.35 212.17 365.33 216.08 361.38 C217.7 359.76 219.31 358.13 220.93 356.51 C224.36 353.07 227.79 349.62 231.22 346.17 C235.2 342.17 239.18 338.17 243.16 334.17 C244.74 332.58 246.32 331 247.9 329.41 C248.88 328.42 249.87 327.43 250.85 326.44 C251.7 325.59 252.54 324.74 253.41 323.86 C256.22 321.17 256.22 321.17 258.3 319.63 C262.52 316.48 262.52 316.48 264.94 311.96 C265.2 309.35 265.21 306.85 265.13 304.23 C265.13 303.25 265.14 302.27 265.14 301.26 C265.15 298 265.1 294.75 265.06 291.49 C265.05 286.75 265.07 282.01 265.09 277.27 C265.1 275.42 265.1 275.42 265.1 273.53 C265.14 263.57 265.58 253.65 266.14 243.7 C266.72 233.63 267.12 223.56 267.43 213.48 C267.63 207.06 267.91 200.66 268.37 194.25 C270.96 160.17 270.96 160.17 256.15 130.65 C247.8 121.54 238.48 113.5 228.74 105.91 C224.97 102.92 221.86 99.71 218.78 96.02 C216.58 93.41 214.19 91.02 211.76 88.61 C211.27 88.12 210.77 87.62 210.26 87.11 C209.19 86.05 208.13 85 207.06 83.94 C205.37 82.26 203.68 80.57 201.99 78.89 C198.4 75.31 194.81 71.74 191.22 68.17 C187.05 64.03 182.89 59.88 178.73 55.73 C177.07 54.08 175.42 52.44 173.76 50.8 C165.43 42.51 165.43 42.51 161.67 38.11 C160.85 37.2 160.85 37.2 160.01 36.26 C158.22 34.17 158.22 34.17 156.1 31.28 C152.18 26.51 149 23.18 142.73 22.18 C137.14 21.66 131.57 21.78 125.97 21.88 C123.86 21.87 121.75 21.87 119.63 21.85 C113.99 21.84 108.35 21.88 102.71 21.95 C96.88 22 91.04 22.01 85.2 22.02 C78.18 22.04 71.16 22.06 64.14 22.11 C51.24 22.2 38.38 22.11 25.48 21.69 C20.87 21.55 16.25 21.45 11.63 21.34 C8.14 21.26 4.67 21.15 1.18 20.98 C-16 20.2 -25.49 21.24 -36.67 34.72 Z " fill="#FCFAFA" transform="translate(189.77910995483398,22.830745697021484)"/>
<path d="M0 0 C0.84 0.01 1.67 0.02 2.53 0.02 C14.83 0.35 23.28 5.74 31.69 14.44 C45.39 30.56 47.81 51.43 47.81 71.8 C47.81 74.04 47.83 76.27 47.85 78.51 C47.9 91.09 47.05 103.27 42.5 115.12 C42.19 115.93 41.89 116.74 41.57 117.57 C37.19 128.61 29.82 139.29 18.97 144.78 C16.54 145.78 14.14 146.67 11.62 147.44 C11.01 147.63 10.4 147.82 9.77 148.02 C-0.82 150.1 -11.28 148.64 -20.55 143.15 C-34.89 133.18 -41.86 117.4 -45.46 100.77 C-46.79 93.16 -46.71 85.52 -46.69 77.82 C-46.69 75.27 -46.71 72.72 -46.74 70.17 C-46.82 48.45 -42.72 28.37 -27.94 11.69 C-19.15 3.97 -11.9 -0.15 0 0 Z " fill="#FEFCFC" transform="translate(291.375,175.5625)"/>
<path d="M0 0 C7.08 0.3 14.16 0.47 21.24 0.67 C23.14 0.72 25.04 0.78 26.94 0.84 C42.03 1.34 56.88 0.8 71.95 -0.19 C151.63 -5.23 151.63 -5.23 175.83 15.71 C188.23 26.92 199.86 40.64 208.22 55.17 C208.22 55.83 208.22 56.49 208.22 57.17 C208.88 57.17 209.54 57.17 210.22 57.17 C210.22 57.83 210.22 58.49 210.22 59.17 C210.88 59.17 211.54 59.17 212.22 59.17 C213.58 60.55 213.58 60.55 215.19 62.51 C219.31 67.36 223.77 71.82 228.29 76.29 C229.78 77.76 231.26 79.23 232.74 80.7 C236.95 84.88 241.16 89.06 245.38 93.23 C247.97 95.8 250.56 98.37 253.15 100.94 C254.13 101.92 255.11 102.9 256.1 103.87 C257.47 105.22 258.84 106.58 260.2 107.94 C261.37 109.09 261.37 109.09 262.56 110.27 C264.22 112.17 264.22 112.17 264.22 114.17 C264.88 114.17 265.54 114.17 266.22 114.17 C267.89 115.87 269.32 117.72 270.8 119.59 C273.17 122.31 273.17 122.31 276.44 124.28 C281.78 127.96 285.51 131.9 286.92 138.37 C287.89 147.8 287.52 157.29 287.18 166.74 C286.94 173.85 286.77 180.96 286.6 188.08 C286.56 189.98 286.51 191.89 286.45 193.8 C286.03 208.91 286.61 223.8 287.62 238.88 C292.74 318.45 292.74 318.45 271.43 343.03 C259.97 355.68 246 367.56 231.22 376.17 C230.56 376.17 229.9 376.17 229.22 376.17 C229.22 376.83 229.22 377.49 229.22 378.17 C227.85 379.52 227.85 379.52 225.89 381.12 C220.98 385.31 216.45 389.84 211.92 394.43 C210.41 395.95 208.91 397.46 207.4 398.98 C203.12 403.28 198.85 407.59 194.59 411.9 C191.96 414.55 189.33 417.2 186.7 419.84 C185.7 420.85 184.7 421.85 183.71 422.86 C182.32 424.27 180.93 425.66 179.54 427.06 C178.76 427.85 177.97 428.65 177.15 429.47 C175.22 431.17 175.22 431.17 173.22 431.17 C173.22 431.83 173.22 432.49 173.22 433.17 C171.52 434.84 169.67 436.27 167.8 437.75 C165.08 440.12 165.08 440.12 163.09 443.39 C159.42 448.68 155.5 452.45 149.06 453.87 C139.8 454.84 130.47 454.47 121.17 454.13 C114.16 453.89 107.15 453.73 100.13 453.56 C98.25 453.51 96.36 453.46 94.47 453.41 C79.34 452.99 64.42 453.55 49.33 454.51 C-31.37 459.43 -31.37 459.43 -55.2 438.89 C-67.35 427.93 -78.72 414.44 -86.78 400.17 C-86.78 399.51 -86.78 398.85 -86.78 398.17 C-87.44 398.17 -88.1 398.17 -88.78 398.17 C-90.16 396.77 -90.16 396.77 -91.79 394.79 C-96.14 389.67 -100.87 384.99 -105.65 380.27 C-107.06 378.87 -108.47 377.47 -109.88 376.07 C-113.32 372.65 -116.77 369.24 -120.22 365.83 C-122.17 363.9 -124.12 361.96 -126.06 360.03 C-127.89 358.21 -129.72 356.4 -131.56 354.59 C-132.37 353.78 -133.19 352.96 -134.03 352.12 C-134.76 351.41 -135.48 350.69 -136.23 349.95 C-137.78 348.17 -137.78 348.17 -137.78 346.17 C-138.34 345.95 -138.9 345.73 -139.47 345.5 C-143.03 343.44 -145.42 340.39 -148.06 337.27 C-150.57 334.37 -152.93 331.94 -156.18 329.87 C-161.47 326.25 -165.09 322.38 -166.47 315.97 C-167.45 306.54 -167.08 297.05 -166.74 287.6 C-166.5 280.49 -166.33 273.38 -166.17 266.27 C-166.12 264.36 -166.07 262.45 -166.01 260.54 C-165.6 245.42 -166.16 230.52 -167.15 215.43 C-172.17 135.75 -172.17 135.75 -151.48 111.84 C-140.65 99.87 -127.81 90.09 -114.5 81.07 C-107.01 75.83 -100.71 69.23 -94.29 62.75 C-92.74 61.19 -91.19 59.64 -89.64 58.08 C-86.35 54.78 -83.07 51.48 -79.78 48.17 C-75.97 44.33 -72.15 40.5 -68.33 36.67 C-66.82 35.15 -65.31 33.62 -63.8 32.1 C-59.81 28.09 -55.83 24.15 -51.49 20.51 C-48.79 18.22 -46.75 15.91 -44.7 13.02 C-33.11 -2.57 -17.62 -0.77 0 0 Z M-43.2 23.15 C-45.35 25.9 -47.88 27.99 -50.54 30.23 C-54.66 33.8 -58.44 37.72 -62.27 41.58 C-63.82 43.14 -65.37 44.7 -66.92 46.25 C-70.21 49.56 -73.49 52.86 -76.78 56.17 C-80.59 60.01 -84.41 63.84 -88.23 67.67 C-89.74 69.19 -91.25 70.71 -92.76 72.24 C-97.28 76.78 -101.85 81.16 -106.72 85.33 C-110.67 88.85 -114.36 92.64 -118.08 96.4 C-119.59 97.91 -121.09 99.43 -122.6 100.94 C-125.79 104.14 -128.97 107.34 -132.15 110.54 C-135.87 114.28 -139.58 118.02 -143.3 121.75 C-144.78 123.24 -146.26 124.73 -147.74 126.22 C-148.64 127.12 -149.53 128.02 -150.46 128.94 C-151.24 129.74 -152.03 130.53 -152.85 131.35 C-154.78 133.17 -154.78 133.17 -156.78 134.17 C-157.12 148.23 -157.42 162.29 -157.7 176.35 C-157.75 178.93 -157.81 181.52 -157.86 184.11 C-158.21 201.53 -158.49 218.94 -158.64 236.36 C-158.71 244.06 -158.8 251.76 -158.97 259.46 C-159.11 266.32 -159.2 273.18 -159.23 280.04 C-159.25 283.63 -159.29 287.21 -159.4 290.8 C-160.36 308.25 -160.36 308.25 -152.66 323.13 C-150.06 325.54 -147.36 327.74 -144.51 329.84 C-142.37 331.48 -140.71 333.32 -139.03 335.42 C-135.07 340.09 -130.71 344.35 -126.36 348.66 C-124.8 350.21 -123.25 351.76 -121.69 353.31 C-118.39 356.6 -115.09 359.88 -111.78 363.17 C-107.94 366.98 -104.11 370.8 -100.28 374.62 C-98.76 376.13 -97.23 377.64 -95.71 379.15 C-91.17 383.66 -86.79 388.24 -82.63 393.1 C-79.05 397.11 -75.19 400.87 -71.37 404.66 C-69.82 406.19 -68.27 407.73 -66.73 409.27 C-63.45 412.53 -60.18 415.79 -56.9 419.04 C-53.08 422.84 -49.27 426.64 -45.45 430.44 C-43.93 431.96 -42.4 433.47 -40.88 434.98 C-39.96 435.9 -39.04 436.81 -38.1 437.75 C-36.88 438.96 -36.88 438.96 -35.64 440.2 C-33.78 442.17 -33.78 442.17 -32.78 444.17 C-17.75 444.5 -2.73 444.81 12.3 445.09 C15.6 445.16 18.91 445.22 22.21 445.29 C38.64 445.62 55.06 445.89 71.49 446.03 C78.98 446.1 86.47 446.19 93.96 446.36 C100.65 446.5 107.33 446.59 114.02 446.62 C117.52 446.64 121.01 446.68 124.5 446.79 C141.59 447.7 141.59 447.7 156.13 440.05 C158.55 437.45 160.76 434.75 162.88 431.9 C164.53 429.77 166.38 428.1 168.47 426.42 C173.14 422.46 177.41 418.1 181.71 413.75 C183.26 412.19 184.81 410.64 186.36 409.08 C189.65 405.78 192.93 402.48 196.22 399.17 C200.03 395.33 203.85 391.5 207.67 387.67 C209.18 386.15 210.69 384.62 212.2 383.1 C216.71 378.56 221.29 374.18 226.15 370.02 C230.17 366.44 233.92 362.58 237.71 358.76 C239.25 357.21 240.79 355.66 242.33 354.12 C245.59 350.84 248.84 347.57 252.1 344.29 C255.89 340.48 259.69 336.66 263.49 332.84 C265.01 331.32 266.52 329.8 268.03 328.27 C269.41 326.89 269.41 326.89 270.81 325.49 C271.61 324.67 272.42 323.86 273.25 323.03 C275.22 321.17 275.22 321.17 277.22 320.17 C277.56 306.11 277.87 292.05 278.14 277.99 C278.2 275.41 278.25 272.82 278.3 270.23 C278.65 252.81 278.93 235.4 279.08 217.98 C279.15 210.28 279.24 202.58 279.41 194.88 C279.55 188.02 279.64 181.16 279.67 174.3 C279.69 170.71 279.73 167.12 279.84 163.54 C280.8 146.09 280.8 146.09 273.1 131.21 C270.5 128.8 267.8 126.6 264.95 124.5 C262.81 122.86 261.15 121.01 259.47 118.92 C255.51 114.25 251.15 109.98 246.81 105.68 C245.25 104.13 243.69 102.58 242.14 101.03 C238.83 97.74 235.53 94.46 232.22 91.17 C228.38 87.36 224.55 83.54 220.72 79.72 C219.2 78.21 217.68 76.7 216.15 75.19 C211.62 70.68 207.23 66.1 203.07 61.24 C199.49 57.23 195.63 53.47 191.81 49.68 C190.26 48.14 188.71 46.6 187.17 45.06 C183.9 41.8 180.62 38.55 177.35 35.29 C173.53 31.5 169.71 27.7 165.9 23.9 C164.37 22.38 162.85 20.87 161.32 19.36 C160.4 18.44 159.48 17.53 158.54 16.58 C157.73 15.78 156.91 14.97 156.08 14.14 C154.22 12.17 154.22 12.17 153.22 10.17 C147.59 10.11 141.96 10.05 136.34 9.98 C134.25 9.96 132.16 9.94 130.06 9.92 C117.33 9.78 104.6 9.65 91.87 9.56 C87.08 9.53 82.29 9.49 77.49 9.45 C76.3 9.45 75.1 9.44 73.87 9.43 C59.61 9.32 45.36 9.11 31.1 8.7 C24.81 8.52 18.52 8.39 12.22 8.27 C8.09 8.19 3.96 8.08 -0.17 7.91 C-18.55 7.12 -31.64 7.03 -43.2 23.15 Z " fill="#040404" transform="translate(189.77910995483398,22.830745697021484)"/>
<path d="M0 0 C55.52 0 55.52 0 64 8 C75.23 20.94 76.13 37.7 75 54 C73.32 66.19 68.62 77.14 59 85 C47.46 92.07 32.79 89 20 89 C20 107.15 20 125.3 20 144 C13.4 144 6.8 144 0 144 C0 96.48 0 48.96 0 0 Z " fill="#FEFBFB" transform="translate(355,178)"/>
<path d="M0 0 C0.75 0.01 1.5 0.01 2.28 0.02 C11.92 0.23 19.74 2.42 26.75 9.31 C35.94 19.85 38.35 30.59 37.75 44.31 C31.48 44.31 25.21 44.31 18.75 44.31 C18.17 42.44 17.59 40.56 17 38.62 C15.28 33.47 13.78 29.21 8.99 26.21 C3.46 23.99 -3.31 24.63 -8.81 26.56 C-11.32 28.36 -12.64 29.7 -14.25 32.31 C-14.72 34.96 -14.72 34.96 -14.62 37.75 C-14.63 38.68 -14.64 39.6 -14.65 40.56 C-14.17 43.88 -13.3 45.66 -11.25 48.31 C-8.85 49.99 -8.85 49.99 -6 51.25 C-4.93 51.75 -3.87 52.26 -2.77 52.78 C0.89 54.38 4.59 55.86 8.31 57.31 C21.52 62.51 31.46 67.81 37.69 81.12 C43.07 93.78 43.04 111.48 38.62 124.44 C34.58 133.65 28.32 142.31 18.69 146.12 C9.39 149.37 -3.44 150.17 -12.75 146.69 C-14.28 145.95 -15.78 145.16 -17.25 144.31 C-17.96 143.91 -18.66 143.51 -19.39 143.1 C-29.84 136.23 -34.39 124 -37.25 112.31 C-37.84 107.97 -38.17 103.69 -38.25 99.31 C-31.43 97.52 -25.28 97.08 -18.25 97.31 C-18.15 97.93 -18.05 98.55 -17.95 99.18 C-16.43 107.79 -14.31 115.63 -7.25 121.31 C-2.37 124.08 2.78 124.1 8.09 122.7 C13.03 120.84 16.4 118.55 18.93 113.86 C20.65 108.5 20.83 102.81 19.75 97.31 C16.18 91.59 12.11 89.75 5.94 87.44 C4.24 86.76 2.53 86.07 0.84 85.38 C-0.44 84.86 -0.44 84.86 -1.74 84.34 C-14.95 78.93 -25.22 73.75 -31.19 60.06 C-35.57 48.84 -36.53 33.59 -32.69 22.06 C-28.27 12.32 -21.4 5.27 -11.49 1.17 C-7.63 0.15 -3.97 -0.03 0 0 Z " fill="#FEFCFC" transform="translate(109.25,175.6875)"/>
<path d="M0 0 C7.82 4.69 11.86 12.51 14.75 20.88 C19.28 40.72 19.23 66.68 9.31 84.87 C5.86 89.94 1.3 94.13 -4.44 96.44 C-10.7 97.38 -16.03 97.24 -21.44 93.75 C-31.34 86.1 -34.8 75.27 -37.01 63.34 C-37.58 58.09 -37.58 52.9 -37.56 47.62 C-37.57 46.6 -37.57 45.57 -37.57 44.51 C-37.56 29.97 -36.22 15.67 -26.23 4.21 C-19.19 -2.75 -9.22 -4.1 0 0 Z " fill="#ED2125" transform="translate(302.4375,202.5625)"/>
<path d="M0 0 C25.74 0 51.48 0 78 0 C78 7.92 78 15.84 78 24 C68.43 24 58.86 24 49 24 C49 63.6 49 103.2 49 144 C42.4 144 35.8 144 29 144 C29 104.73 29 65.46 29 25 C19.43 25 9.86 25 0 25 C0 16.75 0 8.5 0 0 Z " fill="#FEFAFB" transform="translate(160,178)"/>
<path d="M0 0 C24.13 0 24.13 0 30.19 4.7 C35.19 11.95 35.02 19.57 34 28 C32.52 33.34 29.73 37.04 25 40 C21.96 40.98 19.2 41.12 16.02 41.1 C15.17 41.1 14.33 41.09 13.46 41.09 C12.4 41.08 11.34 41.07 10.25 41.06 C6.87 41.04 3.49 41.02 0 41 C0 27.47 0 13.94 0 0 Z " fill="#ED2226" transform="translate(375,202)"/>
</svg>
