<?xml version="1.0" standalone="no"?>
<!DOCTYPE svg PUBLIC "-//W3C//DTD SVG 20010904//EN"
 "http://www.w3.org/TR/2001/REC-SVG-20010904/DTD/svg10.dtd">
<svg version="1.0" xmlns="http://www.w3.org/2000/svg"
 width="500.000000pt" height="500.000000pt" viewBox="0 0 500.000000 500.000000"
 preserveAspectRatio="xMidYMid meet">

<g transform="translate(0.000000,500.000000) scale(0.100000,-0.100000)"
fill="#000000" stroke="none">
<path d="M994 4174 c-330 -324 -629 -618 -666 -654 l-68 -65 -5 -600 c-3 -330
-8 -750 -11 -933 l-5 -332 298 -303 c164 -166 426 -432 583 -592 157 -159 317
-323 356 -362 l69 -73 600 -5 c330 -3 749 -8 932 -10 l332 -6 573 564 c315
310 615 604 665 653 l93 89 5 610 c3 336 8 755 10 932 l6 322 -652 663 -652
663 -241 5 c-132 3 -461 7 -731 8 -269 1 -581 5 -691 8 l-201 7 -599 -589z
m1885 499 l543 -6 631 -641 630 -641 -7 -815 c-3 -448 -6 -854 -6 -902 l0 -87
-641 -630 -642 -631 -362 0 c-199 0 -606 3 -904 7 l-543 6 -629 640 -629 640
2 546 c2 300 4 707 6 903 l2 357 642 631 641 630 362 0 c199 0 606 -3 904 -7z"/>
<path d="M1235 4119 c-242 -237 -514 -504 -604 -594 l-164 -163 -7 -843 -7
-844 306 -313 c168 -172 434 -443 591 -604 l285 -291 844 -8 845 -8 120 114
c67 63 340 332 608 597 l487 483 5 845 6 845 -587 595 c-323 327 -592 598
-598 601 -5 4 -388 9 -850 13 l-840 6 -440 -431z m37 -912 c107 -52 169 -150
195 -308 9 -50 14 -91 12 -93 -2 -2 -49 -5 -104 -7 l-99 -4 -8 43 c-17 101
-64 152 -147 160 -107 10 -181 -46 -181 -136 0 -86 35 -115 230 -192 136 -53
178 -78 233 -140 118 -131 138 -401 45 -584 -31 -61 -103 -131 -161 -157 -73
-32 -223 -39 -303 -13 -124 39 -213 153 -254 325 -28 121 -27 146 8 153 65 13
156 25 162 21 4 -3 10 -26 14 -52 13 -98 78 -193 142 -209 45 -12 143 1 172
22 63 46 93 174 57 244 -21 41 -55 61 -190 114 -171 68 -240 116 -292 206 -99
171 -68 443 64 559 71 63 129 82 248 78 86 -2 108 -6 157 -30z m1821 -2 c77
-38 165 -133 211 -227 125 -254 125 -702 1 -955 -39 -78 -117 -172 -176 -209
-104 -65 -267 -72 -382 -16 -123 61 -223 201 -267 375 -59 233 -46 549 31 748
35 90 111 203 164 244 21 16 64 39 94 52 49 21 69 23 161 20 92 -3 112 -7 163
-32z m-713 -110 l0 -125 -145 0 -145 0 0 -595 0 -595 -100 0 -100 0 0 595 0
595 -145 0 -145 0 0 125 0 125 390 0 390 0 0 -125z m1732 97 c128 -63 197
-234 185 -457 -9 -167 -61 -287 -153 -354 -55 -41 -100 -51 -256 -58 l-138 -6
0 -269 0 -268 -100 0 -100 0 0 721 0 721 258 -4 c244 -3 259 -5 304 -26z"/>
<path d="M2835 2974 c-128 -70 -179 -203 -179 -469 0 -216 25 -314 106 -417
79 -101 229 -103 316 -4 82 94 106 187 107 416 0 200 -15 283 -68 372 -47 78
-102 112 -185 115 -48 2 -76 -1 -97 -13z"/>
<path d="M3750 2771 l0 -201 93 0 c100 0 161 12 191 38 33 29 56 93 56 157 0
83 -14 125 -55 165 l-36 35 -125 3 -124 4 0 -201z"/>
</g>
</svg>
