<?xml version="1.0" encoding="UTF-8"?>
<svg version="1.1" xmlns="http://www.w3.org/2000/svg" width="500" height="500">
<path d="M0 0 C4.74621347 4.99601418 5.32739444 9.15138976 5.30078125 15.8046875 C4.85631862 20.52638144 3.42073454 24.78454467 1.875 29.25 C0.84839817 31.99548804 0.84839817 31.99548804 1 35 C2.60875 35.5878125 2.60875 35.5878125 4.25 36.1875 C7.95800839 37.82294273 10.07181473 39.30431156 12 43 C13.06150799 50.85832779 8.50411904 56.99145016 4 63 C2.8885386 64.20018116 1.76499202 65.38938473 0.625 66.5625 C-8.28659024 76.63757427 -3.42772767 103.6788338 -2.65625 116.6640625 C-2.31089323 121.56828331 -1.82249024 126.44789902 -1.26806641 131.33251953 C-1.01000468 133.9004452 -0.87353318 136.44948499 -0.76171875 139.02734375 C-0.26099362 146.55992402 0.95239532 151.87783485 6.71044922 157.05102539 C10.32665862 159.92997106 14.14187303 162.45993905 18 165 C19.94610849 166.34331969 21.8900156 167.68983262 23.83203125 169.0390625 C47.72674617 186.12047304 47.72674617 186.12047304 75 196 C73.99582031 195.59910156 72.99164063 195.19820312 71.95703125 194.78515625 C47.90530491 184.90951505 31.344157 168.93788794 20.77734375 145.20703125 C20 143 20 143 20 140 C19.34 139.67 18.68 139.34 18 139 C11.38850526 116.60562475 14.97327647 91.81063744 25.92578125 71.5625 C28.521594 66.98715522 31.52936043 62.94775632 35 59 C35.59167969 58.26652344 36.18335938 57.53304687 36.79296875 56.77734375 C49.36649586 41.66318642 67.7718389 32.35959965 87 29 C115.2078407 27.21188384 137.94846642 32.4886709 159.578125 51.234375 C175.63887001 66.30979823 185.30354782 87.56882782 186.23828125 109.5234375 C186.81445146 134.32680008 179.30769684 156.70546079 162 175 C158.22724271 178.32236433 154.18498333 181.21720181 150 184 C159.24443464 179.44766501 167.45478757 173.67222612 175.76416016 167.62304688 C178.01398899 165.98984507 180.27790013 164.37759965 182.54296875 162.765625 C183.98787763 161.71999042 185.43192036 160.67315767 186.875 159.625 C187.54684326 159.14981934 188.21868652 158.67463867 188.91088867 158.18505859 C194.72079116 153.90234331 196.82597237 149.85868939 197.9140625 142.69140625 C198.16416984 140.65000312 198.40052955 138.60688095 198.625 136.5625 C198.74979736 135.4799292 198.87459473 134.3973584 199.00317383 133.28198242 C199.35151382 130.18945371 199.68033322 127.09560838 200 124 C200.20302734 122.07414062 200.20302734 122.07414062 200.41015625 120.109375 C201.13578651 111.48357304 201.09756656 102.83871696 201.125 94.1875 C201.12975342 92.94653564 201.13450684 91.70557129 201.1394043 90.42700195 C201.69763474 78.18663066 201.69763474 78.18663066 198.0625 66.9375 C196.15021721 64.95575795 196.15021721 64.95575795 194 64 C192.15193915 61.1028749 190.60868195 58.03524895 189 55 C188.401875 53.948125 187.80375 52.89625 187.1875 51.8125 C185.78092276 48.48113285 185.40368762 46.57787426 186 43 C189.1466746 38.18743884 191.58666259 36.58951182 197 35 C196.566875 33.45892578 196.566875 33.45892578 196.125 31.88671875 C191.1150092 13.45655232 191.1150092 13.45655232 194.1875 4.5625 C196.55420268 1.21647207 198.98762224 -1.16729196 202.8125 -2.75 C212.11158995 -3.81275314 220.01958186 -1.81885467 227.9375 3.3125 C234.31386582 8.39223641 235.69492068 14.50437541 236.68359375 22.2890625 C237.61038284 33.15881112 237.35987789 43.43794384 234.97973633 54.11621094 C234.09526962 58.27756273 234.14290652 61.68448898 234.72200012 65.87321472 C235.4365511 71.33975128 235.64675464 76.87186292 235.98486328 82.37304688 C236.12511128 84.62678816 236.27534715 86.87973114 236.42578125 89.1328125 C236.51623987 90.58069088 236.6061041 92.02860655 236.6953125 93.4765625 C236.77797363 94.77674316 236.86063477 96.07692383 236.94580078 97.41650391 C236.99676818 100.78632128 236.59412365 103.69618886 236 107 C235.97707153 108.80722549 235.99507029 110.6153629 236.05078125 112.421875 C236.11098539 119.78722623 235.18587461 126.96530877 234.1875 134.25 C234.09596649 134.93087677 234.00443298 135.61175354 233.91012573 136.31326294 C233.29590156 140.87880144 232.65453963 145.44004055 232 150 C231.8669043 150.94278809 231.73380859 151.88557617 231.59667969 152.85693359 C228.77491537 172.24781812 217.96645559 180.08734659 202.94140625 191.37744141 C189.78998493 201.12790518 176.08933604 209.73343718 161.90405273 217.89208984 C160.14011908 218.91846898 158.40080951 219.98685409 156.6640625 221.05859375 C152.13930931 223.63544808 147.24667978 225.14768099 142.3125 226.75 C141.37599609 227.06582031 140.43949219 227.38164062 139.47460938 227.70703125 C135.38717306 229.05492245 132.35415935 230 128 230 C128.19032303 231.16388748 128.19032303 231.16388748 128.38449097 232.35128784 C129.69035871 240.55124433 130.68281558 248.74678102 131.5078125 257.0078125 C131.63815887 258.29509247 131.76850525 259.58237244 131.90280151 260.90866089 C132.1756723 263.60928715 132.44590398 266.3101615 132.71435547 269.01123047 C133.05565951 272.44180502 133.40510735 275.87149557 133.75671577 279.3010273 C134.09546973 282.61945259 134.42616604 285.93866939 134.7578125 289.2578125 C134.88278107 290.47268341 135.00774963 291.68755432 135.13650513 292.9392395 C136.626817 308.12769219 136.626817 308.12769219 136 314 C131.09109974 319.39979028 119.58582487 319.3490568 112.65234375 319.83984375 C79.18938352 321.3072035 79.18938352 321.3072035 66 316 C64.36556512 312.73113024 65.10153718 309.17542531 65.30859375 305.60546875 C65.35616318 304.72739059 65.4037326 303.84931244 65.45274353 302.94462585 C66.21416028 289.50038271 67.30651235 276.0765265 68.34594727 262.65161133 C68.62019285 259.09737907 68.89034386 255.54285238 69.16015625 251.98828125 C69.24451431 250.91628983 69.32887238 249.8442984 69.41578674 248.73982239 C69.86475067 242.80533882 70.08328896 236.95148035 70 231 C68.99324219 230.74347656 67.98648438 230.48695313 66.94921875 230.22265625 C49.00539094 225.42927915 33.37251818 217.0892902 17.80493164 207.09399414 C15.91644422 205.94935568 13.98703847 204.96161159 12 204 C12 203.34 12 202.68 12 202 C11.27425781 201.731875 10.54851562 201.46375 9.80078125 201.1875 C7.03135976 200.01329619 4.69080566 198.6605676 2.1875 197 C1.39730469 196.484375 0.60710937 195.96875 -0.20703125 195.4375 C-0.79871094 194.963125 -1.39039063 194.48875 -2 194 C-2 193.34 -2 192.68 -2 192 C-2.53238281 191.76539063 -3.06476563 191.53078125 -3.61328125 191.2890625 C-9.17723881 188.28397904 -14.06762766 183.93907824 -19 180 C-19.90621094 179.27683594 -20.81242187 178.55367187 -21.74609375 177.80859375 C-22.53113281 177.14988281 -23.31617187 176.49117187 -24.125 175.8125 C-24.80820313 175.24144531 -25.49140625 174.67039062 -26.1953125 174.08203125 C-30.82023602 168.74635109 -31.84432102 161.93323614 -33.0625 155.1875 C-33.23241455 154.26606201 -33.4023291 153.34462402 -33.57739258 152.39526367 C-35.85115823 139.69470519 -37.09759343 126.98416561 -37.65893555 114.09887695 C-37.80164079 110.92744547 -38.02373736 107.85361237 -38.53222656 104.71777344 C-39.01581317 100.87431997 -38.96336195 97.3911083 -38.73046875 93.52734375 C-38.68940506 92.84120499 -38.64834137 92.15506622 -38.60603333 91.44813538 C-38.51783827 90.00841488 -38.42605052 88.5689103 -38.33081055 87.12963867 C-38.18769483 84.94048015 -38.06092065 82.75078494 -37.93554688 80.56054688 C-37.84733575 79.15358395 -37.75817509 77.74668016 -37.66796875 76.33984375 C-37.58828857 75.07519287 -37.5086084 73.81054199 -37.42651367 72.50756836 C-37.01105845 69.09094261 -36.10192278 66.24426163 -35 63 C-35.36541951 59.71795052 -35.36541951 59.71795052 -36.3125 56.375 C-37.85722375 49.88169219 -38.70146195 43.66113032 -39 37 C-39.04125 36.18273437 -39.0825 35.36546875 -39.125 34.5234375 C-39.36427126 25.34140302 -39.25180444 14.36195523 -33.6796875 6.6796875 C-24.71751919 -2.28248081 -11.38741075 -6.35067138 0 0 Z M145 186 C144.67 186.66 144.34 187.32 144 188 C144.99 187.67 145.98 187.34 147 187 C146.34 186.67 145.68 186.34 145 186 Z " fill="#000000" transform="translate(151,154)"/>
<path d="M0 0 C16.08101183 10.84830163 27.1610667 26.71247932 31.5 45.6953125 C34.26576794 63.97530996 30.39744914 83.09429117 19.9296875 98.4140625 C9.12679979 112.89080676 -5.33152071 123.37327357 -23.1875 127.375 C-42.50705269 130.07009178 -60.87634338 127.58669697 -77 116 C-80.53580277 113.18168129 -83.79845073 110.19071492 -87 107 C-87.71027344 106.31292969 -88.42054688 105.62585938 -89.15234375 104.91796875 C-103.17534554 90.41048706 -106.4409979 72.0318167 -106.20703125 52.65234375 C-105.75380175 35.65484738 -97.69889234 20.80606242 -85.87890625 8.85546875 C-62.17220966 -13.24542665 -27.8453827 -16.73130344 0 0 Z " fill="#FCFCFC" transform="translate(289,209)"/>
<path d="M0 0 C0.99 0.37125 1.98 0.7425 3 1.125 C4.4375 4.3125 4.4375 4.3125 5.109375 6.48828125 C11.36424748 25.00599583 25.05807724 38.7410698 39.99609375 50.7265625 C46.23469578 55.85851193 53.48151609 62.81852899 55.25 71 C54.93676813 74.91539841 53.78641192 76.41819985 51 79.125 C47.85658007 80.69670996 44.44228549 80.35675783 41 80.125 C39.515 79.63 39.515 79.63 38 79.125 C38.5053125 80.10339844 39.010625 81.08179687 39.53125 82.08984375 C46.5000754 95.97079423 46.5000754 95.97079423 45 103.125 C42.03692683 106.66623379 40.16070943 107.91005381 35.625 108.75 C29.59770592 107.71081136 25.52855657 104.84462614 21.5 100.3125 C21.005 99.590625 20.51 98.86875 20 98.125 C20.2165625 99.12466797 20.2165625 99.12466797 20.4375 100.14453125 C23.57858748 115.7409031 23.57858748 115.7409031 21.2109375 122.31640625 C19.35028443 125.09538164 17.32632642 125.81933916 14.2109375 126.8203125 C10.86480889 127.28143976 8.88953217 126.52706532 6.015625 124.82421875 C-0.11334306 119.65735614 -4.26341753 112.13109213 -8 105.125 C-8.03738281 106.05441406 -8.07476562 106.98382813 -8.11328125 107.94140625 C-8.79153812 120.69529528 -8.79153812 120.69529528 -12 126.125 C-15.72305045 128.60703364 -18.6878211 128.87102335 -23 128.125 C-29.70269835 124.44508718 -31.6816347 118.14321618 -34 111.125 C-35.31431397 105.60979545 -36.04017925 99.98614669 -36.8125 94.375 C-37.02915207 92.88780933 -37.24724275 91.40082751 -37.46679688 89.9140625 C-37.99441699 86.3199557 -38.50270355 82.7234435 -39 79.125 C-39.33 80.115 -39.66 81.105 -40 82.125 C-44.29023603 85.25009825 -49.61304191 88.36442036 -55 88.125 C-57.97432448 86.3445945 -60.42655791 84.27188418 -62 81.125 C-63.35497956 69.20117986 -60.15377309 57.45972927 -55.46484375 46.5546875 C-51.22054887 36.61737843 -49.59026986 26.24483498 -49.17578125 15.52734375 C-48.67312349 5.79812349 -48.67312349 5.79812349 -46 3.125 C-42.9375 2.9375 -42.9375 2.9375 -40 3.125 C-39.67 3.455 -39.34 3.785 -39 4.125 C-36.55169574 4.21343793 -34.13179401 4.24028752 -31.68359375 4.22265625 C-30.95253922 4.2212413 -30.22148468 4.21982635 -29.46827698 4.21836853 C-27.12464368 4.21275408 -24.78110461 4.20019922 -22.4375 4.1875 C-20.85221492 4.18248686 -19.26692834 4.17792363 -17.68164062 4.17382812 C-13.7877239 4.16277997 -9.89387795 4.14550572 -6 4.125 C-6 3.465 -6 2.805 -6 2.125 C-3 0.125 -3 0.125 0 0 Z " fill="#020202" transform="translate(327,20.875)"/>
<path d="M0 0 C3.39745017 3.33958605 3.46291557 6.51048553 3.8125 11.125 C5.31843572 25.77593935 11.03776816 38.7601492 17.57226562 51.83276367 C21.67672296 60.07758436 24.20723208 67.68706677 23 77 C21.19881522 80.00197464 20.09667268 81.45166366 17 83 C11.3726568 83.44136025 7.88932685 82.58846715 3 80 C2.34 79.01 1.68 78.02 1 77 C0.98018066 77.75506836 0.96036133 78.51013672 0.93994141 79.28808594 C0.84350761 82.77568593 0.73431721 86.26278097 0.625 89.75 C0.5940625 90.93722656 0.563125 92.12445313 0.53125 93.34765625 C-0.23350694 116.67274306 -0.23350694 116.67274306 -7.125 124.375 C-10.54541455 126.30827779 -12.95503759 126.51513976 -16.81640625 126.62890625 C-20.19000807 125.65726065 -21.15428543 123.9423316 -23 121 C-24.00560801 118.3166346 -24.67836248 115.60422096 -25.3125 112.8125 C-25.49361328 112.08869141 -25.67472656 111.36488281 -25.86132812 110.61914062 C-27.13848136 105.27696271 -27.13848136 105.27696271 -26 103 C-26.66 103 -27.32 103 -28 103 C-28.12375 103.680625 -28.2475 104.36125 -28.375 105.0625 C-29.09100877 108.4277412 -30.02945125 111.70013425 -31 115 C-31.66 115 -32.32 115 -33 115 C-33.2475 115.70125 -33.495 116.4025 -33.75 117.125 C-35.61128144 121.40594732 -37.69083267 124.87266147 -41.25 127.9375 C-45.07025787 129.41350872 -48.10706574 129.20534366 -52 128 C-55.20732127 125.6150688 -56.26880541 123.84399442 -57 120 C-57.37559859 113.60377696 -56.81802644 107.33970493 -56 101 C-56.43570313 101.53109375 -56.87140625 102.0621875 -57.3203125 102.609375 C-64.16824849 110.73203501 -64.16824849 110.73203501 -69 113 C-72.76796834 113.28044039 -75.90264961 112.82301279 -79 110.5 C-82.11107359 102.72231602 -79.24198002 96.27766169 -76.22290039 89.0534668 C-75.20157764 86.67426646 -74.1580599 84.31611981 -73 82 C-73.49628906 82.28875 -73.99257812 82.5775 -74.50390625 82.875 C-79.14359521 85.4105416 -82.58942295 86.81669088 -88 86 C-90.9375 84.5625 -90.9375 84.5625 -93 82 C-94.23444572 77.78012173 -93.61603183 74.34921069 -91.80859375 70.390625 C-87.21333108 62.7281629 -81.12446614 56.43341547 -75 50 C-63.18209187 37.37524674 -53.82995215 23.10724877 -50.5625 5.953125 C-50 4 -50 4 -48 2 C-44.78856707 2.30296537 -41.71668964 2.83815756 -38.57177734 3.54833984 C-35.99522063 4.00083936 -33.77165663 4.04545491 -31.1640625 3.9140625 C-30.26429688 3.87023437 -29.36453125 3.82640625 -28.4375 3.78125 C-27.509375 3.7296875 -26.58125 3.678125 -25.625 3.625 C-24.70460938 3.58117187 -23.78421875 3.53734375 -22.8359375 3.4921875 C-15.3916553 3.1093387 -6.65424474 -0.99813671 0 0 Z " fill="#030303" transform="translate(213,26)"/>
<path d="M0 0 C0.25652344 0.99257813 0.51304687 1.98515625 0.77734375 3.0078125 C7.207384 26.3971564 23.93741222 42.39909576 42.1875 57.5 C44.74337563 59.77188945 45.65997662 61.00241217 47 64 C42.82867503 62.9022829 39.59817538 61.17957154 36 58.875 C32.16628749 56.48906412 29.62847174 55.26918867 25 56 C24.09452084 58.8696031 23.62423713 61.05272913 24.75830078 63.91162109 C25.95589529 66.055811 27.2335144 68.12217512 28.5625 70.1875 C29.48807825 71.69203274 30.41255723 73.19724229 31.3359375 74.703125 C31.7906543 75.43337891 32.24537109 76.16363281 32.71386719 76.91601562 C34.444414 79.72010591 36.08135959 82.56014893 37.6875 85.4375 C38.16574219 86.28183594 38.64398438 87.12617187 39.13671875 87.99609375 C39.56404297 88.98802734 39.56404297 88.98802734 40 90 C39.67 90.66 39.34 91.32 39 92 C31.91017255 85.10741659 25.09207008 78.24296479 19 70.4375 C16.80163339 67.75824069 14.57979308 65.31730221 12 63 C8.78938212 62.58109782 8.78938212 62.58109782 6 63 C6.48956913 71.0306515 8.7888756 77.9979624 11.4375 85.5625 C18.50843255 106.015703 18.50843255 106.015703 17 111 C10.90799883 101.97481308 5.68730272 92.81001897 0.97167969 82.99902344 C-0.01496247 80.96921792 -1.0294477 78.95587298 -2.0546875 76.9453125 C-2.38194824 76.30207031 -2.70920898 75.65882812 -3.04638672 74.99609375 C-3.94705119 73.22889137 -4.8485011 71.46208936 -5.75 69.6953125 C-7 67 -7 67 -7 65 C-10.465 65.495 -10.465 65.495 -14 66 C-14.08771872 72.58865016 -14.16084939 79.12554481 -13.5 85.6875 C-12.68717476 94.10195849 -12.92050925 102.55631584 -13 111 C-13.99 111.495 -13.99 111.495 -15 112 C-17.13032484 106.69785818 -18.63753351 101.66091645 -19.5 96 C-19.62181641 95.24525391 -19.74363281 94.49050781 -19.86914062 93.71289062 C-20.59159802 89.10027801 -21.19715085 84.47962049 -21.75 79.84375 C-21.87568359 78.791875 -22.00136719 77.74 -22.13085938 76.65625 C-22.37073557 74.60524506 -22.60170999 72.55317244 -22.82226562 70.5 C-23.56172016 64.0654483 -24.92341144 58.13568076 -27 52 C-27.99229614 51.92809448 -27.99229614 51.92809448 -29.00463867 51.85473633 C-30.58251953 51.74039714 -32.16040039 51.62605794 -33.73828125 51.51171875 C-36.19788318 51.79553428 -36.19788318 51.79553428 -37.703125 54.1015625 C-39.59161215 58.32221752 -40.24294001 62.60701905 -41.05859375 67.13671875 C-42 70 -42 70 -44.05883789 71.17895508 C-44.69942139 71.4498999 -45.34000488 71.72084473 -46 72 C-45.7659919 63.28477923 -43.06270511 55.73026617 -40.0625 47.625 C-35.44516687 35.08570776 -32.85870616 23.59222813 -32.375 10.25 C-32.33632813 9.35023437 -32.29765625 8.45046875 -32.2578125 7.5234375 C-32.16529297 5.34922844 -32.0816566 3.17464413 -32 1 C-21.312837 0.20414744 -10.71600323 -0.12825004 0 0 Z " fill="#F9F9F9" transform="translate(321,25)"/>
<path d="M0 0 C0.07927734 0.65258789 0.15855469 1.30517578 0.24023438 1.97753906 C2.75659571 21.82342749 8.24753088 38.43602358 17.5546875 56.0546875 C19.74292868 60.51396818 21 64.00683979 21 69 C19.15625 68.3984375 19.15625 68.3984375 17 67 C15.65625 64.1015625 15.65625 64.1015625 14.5 60.625 C12.987339 56.09723767 11.76884824 53.03417997 8 50 C5.17482236 49.5176526 3.74824102 49.52888528 1.3125 51.0625 C-2.48309746 56.66552483 -2.30468863 63.29961965 -2.34375 69.80859375 C-2.3583728 70.73414566 -2.37299561 71.65969757 -2.38806152 72.61329651 C-2.4342994 75.55465438 -2.46864274 78.4959482 -2.5 81.4375 C-2.54137124 85.31143884 -2.59511302 89.1849219 -2.65625 93.05859375 C-2.6615271 93.9359166 -2.6668042 94.81323944 -2.67224121 95.71714783 C-2.75880141 101.1226437 -3.49483938 105.80291472 -5 111 C-8.09151523 106.36272716 -8.23582107 102.34239237 -8.46484375 96.9375 C-8.54334053 95.32029892 -8.62212537 93.7031118 -8.70117188 92.0859375 C-8.82098013 89.53822848 -8.93791785 86.9904633 -9.04956055 84.44238281 C-9.15908669 81.98196476 -9.27996035 79.52230732 -9.40234375 77.0625 C-9.43263168 76.29993896 -9.46291962 75.53737793 -9.49412537 74.75170898 C-9.68615421 71.02854908 -9.8864212 69.17036819 -12 66 C-14.58380177 65.74969023 -14.58380177 65.74969023 -17 66 C-19.979282 72.40389031 -22.43197729 78.89523408 -24.75 85.5625 C-28.13582379 95.11952174 -32.19535473 104.0807383 -37 113 C-37.33 113 -37.66 113 -38 113 C-38.60521604 103.81248433 -36.75403545 95.51670596 -34.5 86.6875 C-33.99543801 84.6844905 -33.49477152 82.68072136 -33.0020752 80.67475891 C-32.55738238 78.86789891 -32.10036074 77.0640861 -31.64257812 75.26049805 C-31.01568264 72.07957511 -30.87999313 69.23191963 -31 66 C-34.25050901 65.35070968 -34.25050901 65.35070968 -38 66 C-40.47936621 68.2290979 -42.11385377 70.93816319 -43.875 73.75 C-44.90725794 75.30704899 -45.94112632 76.86303147 -46.9765625 78.41796875 C-47.48219727 79.19188965 -47.98783203 79.96581055 -48.50878906 80.76318359 C-50.63694707 83.95542061 -52.92252105 87.01400341 -55.25 90.0625 C-55.97703125 91.02285156 -56.7040625 91.98320313 -57.453125 92.97265625 C-57.96359375 93.64167969 -58.4740625 94.31070313 -59 95 C-59.33 94.34 -59.66 93.68 -60 93 C-59.08642923 90.7498632 -58.11298501 88.62359719 -57.03515625 86.453125 C-56.39370606 85.11987544 -55.75243579 83.7865393 -55.11132812 82.453125 C-54.09020948 80.35354628 -53.06538661 78.25587898 -52.03637695 76.16015625 C-51.04679212 74.1374936 -50.07166889 72.10832178 -49.09765625 70.078125 C-48.78828629 69.45915344 -48.47891632 68.84018188 -48.16017151 68.20245361 C-46.30301373 64.31338942 -45.57952873 61.30171373 -46 57 C-47.01710651 55.80032371 -47.01710651 55.80032371 -49.05859375 55.5703125 C-53.63944082 56.23949335 -56.51365353 59.03201942 -60.0625 61.875 C-61.46788664 62.97932387 -62.87537238 64.0809827 -64.28515625 65.1796875 C-65.21146851 65.91807861 -65.21146851 65.91807861 -66.15649414 66.67138672 C-68.02946312 68.02123405 -69.91044222 69.02635438 -72 70 C-69.92783641 66.30813892 -67.62052693 63.2938919 -64.75 60.1875 C-63.55117187 58.87458984 -63.55117187 58.87458984 -62.328125 57.53515625 C-61.55984375 56.69855469 -60.7915625 55.86195312 -60 55 C-47.9041324 41.7410682 -35.68058622 25.92381044 -32.875 7.6875 C-32.70742187 6.61886719 -32.53984375 5.55023438 -32.3671875 4.44921875 C-32.18542969 3.23685547 -32.18542969 3.23685547 -32 2 C-29.05370938 1.16960114 -26.3169421 0.82113472 -23.26171875 0.68359375 C-22.35873047 0.64169922 -21.45574219 0.59980469 -20.52539062 0.55664062 C-19.12063477 0.49766602 -19.12063477 0.49766602 -17.6875 0.4375 C-16.30014648 0.37272461 -16.30014648 0.37272461 -14.88476562 0.30664062 C-9.9177942 0.08423892 -4.97174914 -0.0480031 0 0 Z " fill="#FAFAFA" transform="translate(205,29)"/>
<path d="M0 0 C1 1 1 1 1.27734375 4.46484375 C1.21203754 9.60570275 -0.51674439 13.852702 -2.4375 18.5625 C-5.66555445 26.54889839 -5.66555445 26.54889839 -7 35 C-4.31907309 37.68092691 -2.60832637 37.38670257 1.125 37.625 C2.22070312 37.69976562 3.31640625 37.77453125 4.4453125 37.8515625 C5.28835937 37.90054688 6.13140625 37.94953125 7 38 C5.65070536 41.83663072 3.92248975 44.65172569 1.375 47.8125 C0.74335938 48.60269531 0.11171875 49.39289063 -0.5390625 50.20703125 C-1.02117187 50.79871094 -1.50328125 51.39039063 -2 52 C-3.08861328 51.52433594 -3.08861328 51.52433594 -4.19921875 51.0390625 C-6.84553451 50.05730519 -9.01740462 49.62530705 -11.8125 49.375 C-12.60269531 49.30023438 -13.39289063 49.22546875 -14.20703125 49.1484375 C-14.79871094 49.09945312 -15.39039062 49.05046875 -16 49 C-16.31642465 47.500823 -16.62788849 46.00059887 -16.9375 44.5 C-17.11152344 43.6646875 -17.28554687 42.829375 -17.46484375 41.96875 C-18.7039041 35.09513055 -19.20548541 28.40959842 -19.25 21.4375 C-19.270625 20.62603516 -19.29125 19.81457031 -19.3125 18.97851562 C-19.34754506 13.55091271 -18.6905983 9.75659343 -16 5 C-11.29228924 0.84882094 -6.1629153 -0.77036441 0 0 Z " fill="#F6F6F6" transform="translate(143,163)"/>
<path d="M0 0 C4.96934215 0.05144247 9.05147799 2.52016229 13 5.375 C16.42555312 10.51332968 16.19327483 15.71915684 16.1875 21.75 C16.18737915 22.92743774 16.18737915 22.92743774 16.18725586 24.12866211 C15.9933201 44.3816799 15.9933201 44.3816799 13 47.375 C10.48510484 47.65893978 7.97010418 47.8231124 5.4453125 47.99609375 C2.74931222 48.2382494 2.74931222 48.2382494 0 50.375 C-0.99 50.375 -1.98 50.375 -3 50.375 C-4.82421875 48.2578125 -4.82421875 48.2578125 -6.6875 45.5 C-7.31011719 44.59507812 -7.93273437 43.69015625 -8.57421875 42.7578125 C-10 40.375 -10 40.375 -10 38.375 C-8.86111328 38.31892578 -8.86111328 38.31892578 -7.69921875 38.26171875 C-6.70535156 38.19597656 -5.71148437 38.13023437 -4.6875 38.0625 C-3.70136719 38.00449219 -2.71523438 37.94648438 -1.69921875 37.88671875 C0.97664167 37.54343838 0.97664167 37.54343838 2.91796875 36.20703125 C4.24358733 34.34482175 4.24358733 34.34482175 3.875 31.69921875 C2.83375429 27.74341472 1.48756376 23.99411952 0 20.1875 C-0.54202049 18.77747971 -1.08370058 17.36732851 -1.625 15.95703125 C-2.07875 14.77496094 -2.5325 13.59289062 -3 12.375 C-4.29449495 8.49151516 -4.13203312 5.46802664 -4 1.375 C-3 0.375 -3 0.375 0 0 Z " fill="#F6F6F6" transform="translate(360,162.625)"/>
<path d="M0 0 C2.625 2.5625 2.625 2.5625 3.1875 5.75 C2.625 8.5625 2.625 8.5625 0.625 10.5625 C-5.03201585 10.4446455 -9.11420112 8.38882254 -14.04296875 5.71875 C-20.95142585 2.29345134 -29.52664658 2.3824557 -36.7890625 4.609375 C-40.90999955 6.31389884 -44.66140459 8.08676972 -48.375 10.5625 C-51.4375 10.8125 -51.4375 10.8125 -54.375 10.5625 C-56.375 8.5625 -56.375 8.5625 -56.7109375 6.12890625 C-56.375 3.5625 -56.375 3.5625 -54.9765625 1.90234375 C-38.01594422 -10.13098029 -17.80642765 -10.99074092 0 0 Z " fill="#070707" transform="translate(278.375,287.4375)"/>
<path d="M0 0 C0.91007812 0.00902344 1.82015625 0.01804688 2.7578125 0.02734375 C3.80582031 0.04474609 3.80582031 0.04474609 4.875 0.0625 C5.5 2.4375 5.5 2.4375 5.875 5.0625 C3.44706455 7.49043545 1.9432383 7.63610267 -1.375 8.375 C-8.8354153 10.3156832 -12.52102122 13.86483625 -17.125 20.0625 C-18.775 19.7325 -20.425 19.4025 -22.125 19.0625 C-21.70695173 13.73238461 -21.03277729 10.77965401 -17.125 7.0625 C-6.36538314 -0.08160748 -6.36538314 -0.08160748 0 0 Z " fill="#080808" transform="translate(231.125,236.9375)"/>
<path d="M0 0 C7.19464606 0.12893631 13.40843617 2.82988112 18.5625 7.8125 C20.75938998 10.13613364 22.34370683 12.34395426 23.5625 15.3125 C23.1875 17.5625 23.1875 17.5625 22.5625 19.3125 C20.9125 19.6425 19.2625 19.9725 17.5625 20.3125 C17.2221875 19.78140625 16.881875 19.2503125 16.53125 18.703125 C11.27878199 11.04793226 5.35864294 8.51153574 -3.4375 6.3125 C-3.81968767 4.65635343 -4.15145102 2.98792976 -4.4375 1.3125 C-3.4375 0.3125 -3.4375 0.3125 0 0 Z " fill="#070707" transform="translate(271.4375,236.6875)"/>
</svg>
