<?xml version="1.0" encoding="UTF-8"?>
<!-- Generator: visioncortex VTracer 0.6.4 -->
<svg version="1.1" xmlns="http://www.w3.org/2000/svg" width="500" height="500">
<path d="M0 0 C0.33 3.96 0.66 7.92 1 12 C1.66 11.67 2.32 11.34 3 11 C4.46 10.89 5.93 10.84 7.4 10.82 C8.31 10.81 9.22 10.8 10.16 10.78 C11.65 10.77 11.65 10.77 13.16 10.76 C14.18 10.75 15.2 10.75 16.25 10.74 C18.41 10.72 20.57 10.71 22.74 10.7 C26.03 10.69 29.31 10.64 32.6 10.6 C34.7 10.59 36.81 10.58 38.91 10.57 C39.89 10.56 40.86 10.54 41.87 10.52 C51.35 10.55 57.88 13.85 65.44 19.44 C66.65 20.33 67.86 21.21 69.07 22.1 C69.71 22.57 70.34 23.04 71 23.52 C74.56 26.15 78.16 28.73 81.75 31.31 C86.32 34.61 90.88 37.92 95.45 41.23 C104.24 47.6 113.08 53.9 122.01 60.07 C124.36 61.69 126.68 63.34 129 65 C129.82 65.58 130.64 66.16 131.48 66.76 C135.9 70.01 139.35 72.56 141 78 C141.15 83.27 141.08 89.76 137.33 93.8 C135.34 94.93 133.36 96 131 96 C131 96.71 131.01 97.42 131.01 98.16 C131.07 115.52 131.12 132.88 131.16 150.24 C131.17 158.64 131.19 167.04 131.23 175.43 C131.26 182.75 131.28 190.07 131.28 197.39 C131.29 201.27 131.3 205.14 131.32 209.02 C131.34 212.67 131.34 216.32 131.34 219.97 C131.34 221.94 131.36 223.91 131.37 225.87 C131.32 239.92 131.32 239.92 128 246 C124.25 248.48 120.44 248.32 116.08 248.34 C114.91 248.35 114.91 248.35 113.72 248.36 C112.07 248.37 110.42 248.37 108.77 248.37 C106.3 248.37 103.83 248.41 101.36 248.45 C89.8 248.53 78.97 247.35 68.18 242.81 C66.01 241.72 66.01 241.72 63.98 242.86 C63.32 243.24 62.67 243.61 62 244 C59.71 244.23 59.71 244.23 57.38 244.19 C56.6 244.18 55.82 244.17 55.02 244.17 C53 244 53 244 51 243 C51.19 243.72 51.37 244.44 51.56 245.19 C52.03 248.16 51.88 250.13 51 253 C50.34 253.33 49.68 253.66 49 254 C48.45 255.78 48.45 255.78 48.12 257.94 C46.71 264.94 44.43 271.36 40 277 C39.5 277.85 39.01 278.69 38.5 279.56 C37.15 281.75 35.8 283.2 34 285 C33.67 285.99 33.34 286.98 33 288 C32.34 288 31.68 288 31 288 C30.74 288.59 30.49 289.17 30.22 289.77 C28.89 292.19 27.43 293.73 25.44 295.62 C22.86 298.05 22.86 298.05 21 301 C21.66 301.33 22.32 301.66 23 302 C23.42 304.19 23.74 306.41 24 308.62 C24.6 313.62 25.6 318.17 27 323 C27.91 327.25 28.7 331.52 29.5 335.79 C30.18 339.33 30.83 342.58 32.19 345.93 C33 348 33 348 32 351 C32.66 351.33 33.32 351.66 34 352 C31.56 358.58 31.56 358.58 29.06 360.44 C27 361 27 361 23 361 C22.67 361.66 22.34 362.32 22 363 C21.05 362.95 20.09 362.91 19.11 362.86 C17.86 362.82 16.6 362.79 15.31 362.75 C14.07 362.7 12.83 362.66 11.55 362.61 C6.2 363.2 4.01 365.96 0.38 369.69 C-2 372 -2 372 -5 373 C-5.33 373.66 -5.66 374.32 -6 375 C-14.2 375.02 -22.39 375.04 -30.59 375.05 C-34.4 375.06 -38.2 375.06 -42.01 375.08 C-45.68 375.09 -49.35 375.09 -53.02 375.09 C-54.42 375.1 -55.82 375.1 -57.23 375.11 C-59.19 375.11 -61.14 375.11 -63.1 375.11 C-64.22 375.12 -65.34 375.12 -66.49 375.12 C-69 375 -69 375 -70 374 C-73.34 373.93 -76.66 374 -80 374.06 C-83 374 -83 374 -85 373 C-86.8 372.75 -88.61 372.54 -90.42 372.35 C-92.05 372.17 -92.05 372.17 -93.72 371.99 C-96.01 371.75 -98.3 371.51 -100.6 371.28 C-106.65 370.61 -111.55 369.74 -117 367 C-121.65 365.51 -126.15 364.59 -131 364 C-131 363.34 -131 362.68 -131 362 C-132.01 361.96 -133.02 361.92 -134.06 361.88 C-138.94 361.13 -141.91 358.76 -145 355 C-150.33 346.03 -151.92 336.57 -152.75 326.32 C-152.95 323.99 -152.95 323.99 -153.55 321.73 C-154.17 317.99 -153.89 314.38 -153.62 310.62 C-153.58 309.9 -153.54 309.17 -153.49 308.41 C-153.2 303.9 -152.7 299.47 -152 295 C-150.82 294.91 -150.82 294.91 -149.62 294.81 C-146.83 294.29 -146.83 294.29 -145.88 291.88 C-145.59 290.93 -145.3 289.98 -145 289 C-144.47 287.72 -143.93 286.45 -143.38 285.19 C-142.69 283.61 -142.69 283.61 -142 282 C-141.34 282 -140.68 282 -140 282 C-144.8 276.4 -144.8 276.4 -149.94 271.12 C-152 269 -152 269 -152 267 C-152.66 266.67 -153.32 266.34 -154 266 C-154 265.34 -154 264.68 -154 264 C-154.66 263.34 -155.32 262.68 -156 262 C-156.81 260.31 -156.81 260.31 -157.59 258.3 C-157.88 257.56 -158.17 256.83 -158.47 256.07 C-159.07 254.54 -159.66 253.01 -160.26 251.47 C-162.08 246.9 -164.2 243.07 -167 239 C-169.25 233.52 -169.24 227.84 -169 222 C-168.34 222 -167.68 222 -167 222 C-167.34 221.26 -167.67 220.52 -168.02 219.76 C-170.21 214.3 -171.66 210.12 -169.81 204.38 C-163.51 190.54 -149.55 181.86 -136 176 C-132.64 174.82 -129.25 173.86 -125.81 172.94 C-124.86 172.68 -123.91 172.42 -122.93 172.16 C-103.43 167.11 -83.45 165.79 -63.38 165.81 C-62.24 165.81 -62.24 165.81 -61.09 165.81 C-43.99 165.82 -26.96 166.75 -10 169 C-10.33 168.34 -10.66 167.68 -11 167 C-11.2 165.02 -11.37 163.04 -11.5 161.06 C-11.72 157.77 -11.95 155.14 -13 152 C-13.09 150.28 -13.13 148.55 -13.13 146.83 C-13.13 145.78 -13.14 144.74 -13.14 143.66 C-13.13 141.97 -13.13 141.97 -13.12 140.25 C-13.12 139.09 -13.12 137.92 -13.11 136.72 C-13.03 121.5 -12.38 106.35 -11.06 91.19 C-10.99 90.31 -10.91 89.43 -10.84 88.53 C-9.32 72.32 -9.32 72.32 -7 70 C-6.89 67.55 -6.84 65.13 -6.83 62.68 C-6.83 61.94 -6.83 61.2 -6.82 60.44 C-6.82 58.87 -6.81 57.3 -6.81 55.73 C-6.81 53.34 -6.79 50.95 -6.78 48.56 C-6.77 47.04 -6.77 45.51 -6.77 43.99 C-6.76 42.92 -6.76 42.92 -6.75 41.84 C-6.77 37.5 -7.44 34.04 -9 30 C-10.92 23.66 -11.41 17.59 -11.75 10.98 C-11.81 8.07 -11.81 8.07 -13 6 C-12.56 3.88 -12.56 3.88 -12 2 C-10.56 1.66 -9.13 1.33 -7.69 1 C-6.89 0.81 -6.09 0.63 -5.26 0.44 C-3 0 -3 0 0 0 Z " fill="#0A0A0A" transform="translate(265,63)"/>
<path d="M0 0 C149.82 0 299.64 0 454 0 C454 149.82 454 299.64 454 454 C304.18 454 154.36 454 0 454 C0 304.18 0 154.36 0 0 Z M12 12 C12 153.9 12 295.8 12 442 C153.9 442 295.8 442 442 442 C442 300.1 442 158.2 442 12 C300.1 12 158.2 12 12 12 Z " fill="#000000" transform="translate(23,23)"/>
<path d="M0 0 C0.29 19.62 -13.28 37.25 -26 51 C-26.99 51.66 -27.98 52.32 -29 53 C-28.31 60.18 -27.13 67.18 -25.75 74.25 C-25.53 75.38 -25.32 76.51 -25.09 77.67 C-23.46 86.04 -21.58 94.33 -19.44 102.59 C-19.23 103.39 -19.03 104.2 -18.82 105.03 C-18.55 106.08 -18.55 106.08 -18.27 107.14 C-18 109 -18 109 -19 112 C-22.62 113.21 -25.93 113.11 -29.69 113.06 C-30.39 113.06 -31.09 113.05 -31.81 113.05 C-33.54 113.04 -35.27 113.02 -37 113 C-38.86 102 -40.47 91.16 -41 80 C-42.32 80 -43.64 80 -45 80 C-44.88 80.82 -44.76 81.63 -44.63 82.48 C-44.18 85.53 -43.74 88.58 -43.29 91.63 C-43 93.6 -42.71 95.56 -42.42 97.52 C-42.24 98.76 -42.06 100.01 -41.88 101.29 C-41.71 102.43 -41.54 103.57 -41.37 104.75 C-40.42 113.16 -40.42 113.16 -42.9 116.74 C-44.12 118.01 -44.12 118.01 -45.38 119.31 C-46.59 120.61 -46.59 120.61 -47.84 121.93 C-51.24 125.19 -53.21 125.13 -57.84 125.16 C-59.07 125.17 -60.3 125.18 -61.57 125.19 C-62.93 125.2 -64.29 125.2 -65.65 125.2 C-66.34 125.21 -67.03 125.21 -67.74 125.21 C-71.43 125.23 -75.12 125.24 -78.81 125.24 C-81.81 125.24 -84.8 125.26 -87.8 125.28 C-112.7 125.47 -137.97 125.35 -162 118 C-161.74 116.08 -161.46 114.17 -161.19 112.25 C-161.04 111.18 -160.89 110.12 -160.73 109.02 C-160.19 105.75 -159.41 102.58 -158.59 99.37 C-156.93 92.9 -155.66 86.38 -154.44 79.81 C-150.43 58.43 -150.43 58.43 -149 57 C-147.01 57.24 -145.02 57.48 -143.03 57.72 C-110.8 60.69 -78.19 58.6 -52 38 C-48.81 35.26 -46.36 33.08 -45 29 C-46.78 28.14 -46.78 28.14 -49 28 C-51.1 29.64 -51.1 29.64 -53.06 32 C-68.75 48.46 -91.72 53.46 -113.7 54.35 C-125.79 54.61 -137.27 54.02 -149 51 C-149.9 50.8 -150.8 50.59 -151.73 50.38 C-169.39 45.86 -184.94 33.07 -194.44 17.75 C-196.42 14.27 -197.97 10.9 -199 7 C-198.39 7.16 -197.78 7.32 -197.15 7.48 C-194.47 8.16 -191.79 8.83 -189.11 9.48 C-187.63 9.85 -186.15 10.21 -184.68 10.58 C-151.96 18.76 -115.64 22.13 -82.29 15.45 C-79.88 14.98 -77.47 14.58 -75.04 14.19 C-66.2 12.69 -58.37 10.46 -50.12 6.94 C-34.62 0.42 -16.65 -0.29 0 0 Z " fill="#FDFDFD" transform="translate(310,306)"/>
<path d="M0 0 C0.84 0 1.67 0 2.53 0.01 C16.45 0.05 30.38 0.37 44.22 1.94 C46.11 2.15 48 2.3 49.9 2.4 C54.21 2.8 56.98 3.28 60.17 6.33 C62.24 9.07 64.04 11.87 65.81 14.81 C66.43 15.78 67.04 16.74 67.68 17.74 C68.89 19.64 70.09 21.55 71.28 23.48 C73.76 27.47 76.37 31.36 79 35.25 C57.99 51.96 16.58 55.32 -9.68 55.45 C-10.57 55.46 -11.47 55.46 -12.39 55.47 C-14.27 55.48 -16.15 55.49 -18.03 55.49 C-20.83 55.5 -23.64 55.53 -26.45 55.56 C-48.76 55.69 -78.1 53.73 -95.81 38.25 C-98 35.25 -98 35.25 -97.87 32.34 C-95.7 24.62 -87.99 19.98 -81.44 16.06 C-70.9 10.25 -59.96 6.42 -48.19 4 C-47.09 3.77 -47.09 3.77 -45.97 3.54 C-30.76 0.68 -15.44 -0.1 0 0 Z " fill="#B1DFE5" transform="translate(201,234.75)"/>
<path d="M0 0 C6.97 3.41 9.48 10.53 11.91 17.48 C13.24 21.75 14.02 25.94 14.56 30.38 C14.75 31.85 14.75 31.85 14.93 33.36 C16.74 50.46 16.12 67.81 15.85 84.97 C15.82 87.14 15.79 89.32 15.77 91.49 C15.35 123.52 8.78 153.42 -9.19 180.38 C-12.55 178.97 -14.1 177.5 -16.11 174.48 C-16.63 173.7 -17.16 172.91 -17.71 172.1 C-18.26 171.26 -18.81 170.43 -19.38 169.56 C-20.53 167.84 -21.68 166.11 -22.84 164.39 C-23.41 163.54 -23.97 162.69 -24.55 161.81 C-27.49 157.44 -30.54 153.15 -33.58 148.84 C-38.87 140.72 -37.35 128.31 -37.36 118.95 C-37.36 117.81 -37.36 116.67 -37.37 115.49 C-37.37 113.08 -37.37 110.68 -37.37 108.28 C-37.37 104.65 -37.39 101.02 -37.41 97.39 C-37.44 85.23 -37.22 73.39 -35.19 61.38 C-32.22 61.38 -29.25 61.38 -26.19 61.38 C-24.86 56.41 -25.1 51.46 -25.19 46.38 C-27.17 46.38 -29.15 46.38 -31.19 46.38 C-29.87 31.9 -22.97 16.25 -12.19 6.38 C-8.33 3.18 -5.05 0.59 0 0 Z " fill="#FDFDFD" transform="translate(296.1875,87.625)"/>
<path d="M0 0 C14.19 0.33 28.38 0.66 43 1 C43.05 19.3 43.08 37.6 43.1 55.89 C43.11 64.39 43.13 72.89 43.15 81.38 C43.17 88.79 43.18 96.19 43.19 103.6 C43.19 107.52 43.2 111.44 43.21 115.36 C43.23 119.05 43.23 122.74 43.23 126.43 C43.23 128.43 43.24 130.43 43.25 132.43 C43.25 133.62 43.24 134.82 43.24 136.05 C43.24 137.08 43.24 138.12 43.25 139.18 C42.99 142.14 42.24 144.32 41 147 C35.32 147.02 29.64 147.04 23.97 147.05 C22.03 147.06 20.1 147.07 18.17 147.08 C15.39 147.09 12.62 147.09 9.85 147.1 C8.54 147.11 8.54 147.11 7.21 147.11 C5.14 147.11 3.07 147.06 1 147 C0 146 0 146 -0.12 143.6 C-0.12 142.52 -0.12 141.45 -0.12 140.34 C-0.12 139.11 -0.12 137.88 -0.12 136.61 C-0.12 135.23 -0.12 133.86 -0.11 132.48 C-0.11 131.05 -0.11 129.61 -0.11 128.17 C-0.11 124.25 -0.11 120.33 -0.1 116.42 C-0.1 112.33 -0.09 108.24 -0.09 104.15 C-0.09 96.4 -0.08 88.65 -0.07 80.9 C-0.06 72.08 -0.06 63.26 -0.05 54.44 C-0.04 36.3 -0.02 18.15 0 0 Z " fill="#FCFCFC" transform="translate(347,157)"/>
<path d="M0 0 C0.9 0.39 1.79 0.77 2.72 1.17 C29.21 12.35 58.88 15.23 87.44 15.19 C88.14 15.19 88.84 15.19 89.56 15.19 C105.24 15.15 120.44 13.97 135.88 11.19 C136.67 11.05 137.47 10.91 138.29 10.76 C143.32 9.78 147.91 8.3 152.71 6.51 C161.81 3.28 171.13 2.64 180.7 1.91 C183.69 1.69 186.69 1.43 189.68 1.18 C194.33 0.79 198.97 0.45 203.63 0.15 C205.72 0.02 207.82 -0.14 209.92 -0.29 C217.27 -0.63 217.27 -0.63 220.7 2.34 C221.21 3.34 221.72 4.34 222.25 5.38 C223.06 6.87 223.06 6.87 223.89 8.4 C225 11 225 11 225 13 C223.78 13.08 222.56 13.16 221.31 13.24 C216.71 13.55 212.11 13.86 207.51 14.17 C205.53 14.31 203.55 14.44 201.58 14.57 C179.25 15.35 179.25 15.35 157.88 20.88 C156.53 21.42 155.18 21.95 153.83 22.48 C153.18 22.74 152.53 23 151.86 23.27 C146.68 25.3 141.42 26.78 136 28 C135.2 28.18 134.39 28.37 133.56 28.56 C96.42 36.57 39.21 37.84 5 19 C2.88 16.5 1.38 13.97 0 11 C-0.33 10.34 -0.66 9.68 -1 9 C-1.19 6.31 -1.09 3.7 -1 1 C-0.67 0.67 -0.34 0.34 0 0 Z " fill="#FBFBFB" transform="translate(103,287)"/>
<path d="M0 0 C6.16 2.3 11.54 5.07 16 10 C17.55 14.84 17.4 19.56 17.25 24.59 C17.25 26.06 17.25 27.52 17.25 28.99 C17.26 32.96 17.19 36.93 17.12 40.9 C17.05 45.05 17.04 49.21 17.03 53.36 C16.99 61.22 16.9 69.08 16.79 76.94 C16.67 85.89 16.61 94.84 16.55 103.79 C16.44 122.19 16.25 140.6 16 159 C5.63 153.2 1.19 144.26 -4.66 134.17 C-5.82 132.17 -6.99 130.18 -8.16 128.18 C-8.91 126.91 -9.65 125.63 -10.39 124.36 C-10.74 123.76 -11.09 123.17 -11.45 122.56 C-12.9 120.05 -14.08 117.76 -15 115 C-14.03 112.5 -12.99 110.12 -11.88 107.69 C-7.44 97.41 -4.94 87 -3 76 C-2.83 75.07 -2.67 74.13 -2.5 73.17 C1.49 49.06 0.29 24.34 0 0 Z " fill="#FDFDFD" transform="translate(325,143)"/>
<path d="M0 0 C0.84 0 1.67 0 2.53 0.01 C16.45 0.05 30.38 0.37 44.22 1.94 C46.11 2.15 48 2.3 49.9 2.4 C54.21 2.8 56.98 3.28 60.17 6.33 C62.24 9.07 64.04 11.87 65.81 14.81 C66.43 15.78 67.04 16.74 67.68 17.74 C68.89 19.64 70.09 21.55 71.28 23.48 C73.76 27.47 76.37 31.36 79 35.25 C57.99 51.96 16.58 55.32 -9.68 55.45 C-10.57 55.46 -11.47 55.46 -12.39 55.47 C-14.27 55.48 -16.15 55.49 -18.03 55.49 C-20.83 55.5 -23.64 55.53 -26.45 55.56 C-48.76 55.69 -78.1 53.73 -95.81 38.25 C-98 35.25 -98 35.25 -97.87 32.34 C-95.7 24.62 -87.99 19.98 -81.44 16.06 C-70.9 10.25 -59.96 6.42 -48.19 4 C-47.09 3.77 -47.09 3.77 -45.97 3.54 C-30.76 0.68 -15.44 -0.1 0 0 Z M-68.12 21.19 C-70.33 24.79 -71.08 27.02 -71 31.25 C-68.31 37.53 -62.97 40.47 -57 43.25 C-43.34 48.18 -29.57 49.58 -15.15 49.46 C-12.94 49.44 -10.72 49.44 -8.51 49.44 C2.76 49.41 13.86 49.06 24.88 46.5 C26.02 46.24 26.02 46.24 27.18 45.97 C39.14 43.12 51.19 39.75 59.62 30.31 C61.4 26.35 61.28 24.38 60 20.25 C51.63 9.66 36.28 6.57 23.55 4.79 C-2.66 1.82 -48.32 0.15 -68.12 21.19 Z " fill="#F8F8F8" transform="translate(201,234.75)"/>
<path d="M0 0 C6.23 -0.12 12.45 -0.21 18.68 -0.27 C20.79 -0.3 22.91 -0.33 25.02 -0.38 C28.07 -0.44 31.13 -0.47 34.18 -0.49 C35.11 -0.51 36.05 -0.54 37.01 -0.57 C47.28 -0.57 54.72 4.38 62.56 10.56 C63.95 11.63 65.34 12.69 66.73 13.76 C67.79 14.57 67.79 14.57 68.86 15.39 C72.31 17.99 75.84 20.46 79.38 22.94 C85.28 27.08 91.16 31.26 97 35.5 C103.06 39.89 109.14 44.25 115.25 48.56 C115.94 49.05 116.63 49.54 117.34 50.04 C120.36 52.17 123.39 54.26 126.48 56.28 C127.31 56.85 128.14 57.41 129 58 C129 58.33 129 58.66 129 59 C122.3 59.28 115.6 59.47 108.89 59.6 C106.61 59.66 104.34 59.73 102.07 59.83 C88.3 60.4 78.47 60.27 67.94 50.76 C67.43 50.27 66.92 49.79 66.4 49.3 C64.6 47.63 62.65 46.3 60.58 44.98 C60.01 44.6 59.44 44.22 58.85 43.82 C57.74 43.08 56.63 42.35 55.51 41.63 C51.19 38.68 49.72 35.87 48 31 C41.86 14.5 41.86 14.5 28.99 3.43 C25.35 2.65 22.79 3.5 19.68 5.45 C18.18 6.57 16.68 7.69 15.18 8.82 C13 10 13 10 11.02 9.93 C8.32 8.69 6.44 7 4.25 5 C3.45 4.28 2.65 3.56 1.83 2.81 C1.22 2.21 0.62 1.62 0 1 C0 0.67 0 0.34 0 0 Z " fill="#FAFAFA" transform="translate(269,80)"/>
<path d="M0 0 C2.71 2.47 4.45 4.07 5.75 7.5 C5.75 12.55 4.52 15.28 1.23 19.06 C-14.69 34.57 -45.19 34.69 -65.8 34.74 C-67.98 34.75 -70.16 34.78 -72.34 34.81 C-89.34 34.94 -109.91 32.93 -123.25 21.5 C-125.95 18.41 -126.25 17.17 -126.25 13.06 C-124.72 7.62 -121.83 4.52 -117.19 1.52 C-86.33 -13.53 -30.54 -20.27 0 0 Z M-99.88 0.31 C-100.68 0.55 -101.49 0.78 -102.32 1.03 C-109.04 3.1 -115.53 6.12 -120.25 11.5 C-121 13.91 -121 13.91 -120.25 16.5 C-112.18 26 -96.92 27.55 -85.25 28.5 C-79 28.84 -72.75 28.84 -66.5 28.81 C-65.66 28.81 -64.83 28.81 -63.96 28.81 C-43.54 28.73 -18.66 27.67 -1.75 14.56 C-0.09 12.57 -0.09 12.57 0.31 10 C-0.5 6.4 -2.24 5.59 -5.25 3.5 C-7.75 2.34 -10.17 1.32 -12.75 0.38 C-13.38 0.12 -14.01 -0.13 -14.66 -0.39 C-26.07 -4.66 -38.03 -4.82 -50.05 -4.76 C-52.42 -4.75 -54.78 -4.76 -57.15 -4.77 C-71.55 -4.79 -86.08 -4.13 -99.88 0.31 Z " fill="#0F0F0F" transform="translate(256.25,249.5)"/>
<path d="M0 0 C3.49 0.65 6 2.07 9 3.94 C11.95 5.77 14.87 7.5 18 9 C16.85 15.36 14.72 21.42 12.75 27.56 C12.18 29.38 12.18 29.38 11.59 31.24 C9.1 39.01 6.21 46.5 3 54 C2.04 56.41 1.11 58.83 0.19 61.25 C-0.23 62.35 -0.65 63.45 -1.08 64.58 C-1.38 65.38 -1.69 66.18 -2 67 C-4.55 64.73 -5.8 62.66 -7.06 59.5 C-7.38 58.73 -7.7 57.95 -8.04 57.16 C-10.72 48.36 -11.3 39.78 -11.19 30.62 C-11.19 29.57 -11.19 28.52 -11.19 27.43 C-11.16 22.8 -11.03 18.54 -10 14 C-9.01 14 -8.02 14 -7 14 C-6.77 13.36 -6.55 12.72 -6.31 12.06 C-4.51 7.87 -2.26 3.96 0 0 Z " fill="#F9F9F9" transform="translate(129,348)"/>
<path d="M0 0 C0 0.99 0 1.98 0 3 C-5.37 7.45 -10.95 10.84 -18 11 C-18 11.66 -18 12.32 -18 13 C-32.22 19.43 -47.63 21.98 -63 24 C-63.69 24.1 -64.38 24.2 -65.1 24.3 C-74.28 25.42 -83.58 25.2 -92.81 25.19 C-93.73 25.19 -94.65 25.19 -95.6 25.19 C-115.96 25.15 -135.11 23.46 -155 19 C-156.15 18.75 -157.31 18.5 -158.5 18.25 C-178.43 13.69 -178.43 13.69 -184 6 C-184.81 3.19 -184.81 3.19 -185 1 C-184.01 1.85 -183.02 2.69 -182 3.56 C-150.75 26.8 -101.05 23.33 -64.9 18.15 C-42.74 14.78 -20.52 9.15 0 0 Z " fill="#ECECEC" transform="translate(285,274)"/>
<path d="M0 0 C2.31 0.66 4.62 1.32 7 2 C6.29 9.85 4.82 17.47 3.25 25.19 C2.98 26.51 2.72 27.84 2.45 29.16 C0.15 40.48 -2.36 51.75 -5 63 C-10.14 62.31 -14.99 61.32 -20 60 C-18.69 53.52 -16.9 47.46 -14.63 41.25 C-14.31 40.35 -13.98 39.45 -13.65 38.53 C-12.63 35.68 -11.59 32.84 -10.56 30 C-9.54 27.16 -8.51 24.31 -7.49 21.47 C-6.85 19.71 -6.21 17.95 -5.58 16.19 C-3.63 10.82 -1.78 5.43 0 0 Z " fill="#F6F6F6" transform="translate(150,359)"/>
<path d="M0 0 C0.33 0 0.66 0 1 0 C6.53 41.32 9.58 97.99 -17.04 133.14 C-19.23 135.22 -21.14 136.08 -24 137 C-22.67 133.46 -21.08 130.14 -19.34 126.79 C-12.41 113.41 -7.16 100.24 -4.12 85.44 C-3.92 84.46 -3.72 83.48 -3.51 82.47 C-0.06 64.28 -0.72 45.37 -0.44 26.94 C-0.39 24.32 -0.35 21.7 -0.31 19.08 C-0.2 12.72 -0.1 6.36 0 0 Z " fill="#E2E2E2" transform="translate(317,132)"/>
<path d="M0 0 C15.84 0 31.68 0 48 0 C48 2.31 48 4.62 48 7 C47 8 47 8 45.1 8.12 C44.26 8.12 43.43 8.12 42.57 8.11 C41.63 8.11 40.69 8.11 39.72 8.11 C38.7 8.11 37.67 8.1 36.62 8.1 C35.58 8.1 34.54 8.09 33.46 8.09 C30.12 8.09 26.78 8.08 23.44 8.06 C21.18 8.06 18.92 8.05 16.66 8.05 C11.11 8.04 5.55 8.02 0 8 C0 5.36 0 2.72 0 0 Z " fill="#F7F7F7" transform="translate(351,144)"/>
<path d="M0 0 C4.82 4.26 8.06 9.29 11 15 C11 15.66 11 16.32 11 17 C7.23 17.34 3.46 17.67 -0.31 18 C-1.37 18.1 -2.42 18.19 -3.5 18.29 C-10.35 18.88 -17.12 19.12 -24 19 C-23.24 18.26 -22.47 17.51 -21.69 16.75 C-19.04 14.26 -19.04 14.26 -17.75 11.88 C-15.72 9.7 -14.57 9.47 -11.75 8.69 C-6.46 7.15 -3.51 4.12 0 0 Z " fill="#F8F8F8" transform="translate(306,265)"/>
<path d="M0 0 C0 5.61 0 11.22 0 17 C-8.04 16.52 -8.04 16.52 -12 14.38 C-14.69 11.18 -15.15 9.15 -15 5 C-10.27 0 -6.93 0 0 0 Z " fill="#1A1A1A" transform="translate(311,154)"/>
<path d="M0 0 C2.58 1.6 5.14 3.23 7.69 4.87 C9.99 6.35 12.29 7.79 14.62 9.22 C15.81 9.98 17 10.74 18.19 11.5 C19.29 12.19 20.4 12.88 21.54 13.59 C24 16 24 16 24.36 19.78 C24.24 20.84 24.12 21.91 24 23 C18.28 20.8 13.57 17.92 8.62 14.31 C7.9 13.82 7.18 13.33 6.43 12.82 C1.36 9.11 1.36 9.11 0.3 5.82 C0.02 3.61 0.02 3.61 0 0 Z " fill="#F3F3F3" transform="translate(322,126)"/>
<path d="M0 0 C0.99 0.85 1.98 1.69 3 2.56 C12.19 9.45 23.89 13.53 35 16 C35 16.66 35 17.32 35 18 C24.03 17.24 11.94 14.76 3 8 C0.63 4.98 0 3.83 0 0 Z " fill="#F0F0F0" transform="translate(100,275)"/>
<path d="M0 0 C6.05 -0.2 6.05 -0.2 8 0 C8.66 0.66 9.32 1.32 10 2 C9.62 5.62 9.62 5.62 9 9 C6.36 9 3.72 9 1 9 C0.67 6.03 0.34 3.06 0 0 Z " fill="#B8B8B8" transform="translate(260,87)"/>
<path d="M0 0 C6.93 0.99 13.86 1.98 21 3 C20.01 4.49 20.01 4.49 19 6 C16.44 5.69 13.87 5.38 11.31 5.06 C10.23 4.93 10.23 4.93 9.13 4.8 C5.38 4.34 1.69 3.81 -2 3 C-1.34 2.67 -0.68 2.34 0 2 C0 1.34 0 0.68 0 0 Z " fill="#DCDCDC" transform="translate(135,291)"/>
<path d="M0 0 C0 2.97 0 5.94 0 9 C-2.38 8.69 -2.38 8.69 -5 8 C-7 5 -7 5 -6.75 2.88 C-5.37 -0.58 -3.64 0 0 0 Z " fill="#ECEDED" transform="translate(307,158)"/>
<path d="M0 0 C2.31 0 4.62 0 7 0 C7.04 2 7.04 4 7 6 C6 7 6 7 3.44 7.06 C2.23 7.03 2.23 7.03 1 7 C-0.06 5.19 -0.06 5.19 -1 3 C-0.67 2.01 -0.34 1.02 0 0 Z " fill="#F9F9F9" transform="translate(261,138)"/>
<path d="M0 0 C1.32 0.99 2.64 1.98 4 3 C3.01 5.97 2.02 8.94 1 12 C0.67 12 0.34 12 0 12 C0 8.04 0 4.08 0 0 Z " fill="#C5C5C5" transform="translate(264,103)"/>
<path d="M0 0 C3.63 0.33 7.26 0.66 11 1 C10.01 2.49 10.01 2.49 9 4 C6.03 3.67 3.06 3.34 0 3 C0 2.01 0 1.02 0 0 Z " fill="#B6B7B7" transform="translate(145,293)"/>
<path d="M0 0 C0.99 0.33 1.98 0.66 3 1 C1.35 3.31 -0.3 5.62 -2 8 C-2.99 7.67 -3.98 7.34 -5 7 C-4.55 6.59 -4.09 6.17 -3.62 5.75 C-1.94 3.94 -1.01 2.25 0 0 Z " fill="#DEDEDE" transform="translate(274,93)"/>
<path d="M0 0 C5.75 -0.12 5.75 -0.12 8 1 C8 1.66 8 2.32 8 3 C5.36 2.67 2.72 2.34 0 2 C0 1.34 0 0.68 0 0 Z " fill="#EAEAEA" transform="translate(127,290)"/>
<path d="M0 0 C1.65 0 3.3 0 5 0 C5 0.33 5 0.66 5 1 C3.35 1 1.7 1 0 1 C0 0.67 0 0.34 0 0 Z " fill="#000000" transform="translate(217,440)"/>
<path d="" fill="#000000" transform="translate(0,0)"/>
<path d="" fill="#000000" transform="translate(0,0)"/>
<path d="" fill="#000000" transform="translate(0,0)"/>
</svg>
