<?xml version="1.0" standalone="no"?>
<!DOCTYPE svg PUBLIC "-//W3C//DTD SVG 20010904//EN"
 "http://www.w3.org/TR/2001/REC-SVG-20010904/DTD/svg10.dtd">
<svg version="1.0" xmlns="http://www.w3.org/2000/svg"
 width="500.000000pt" height="500.000000pt" viewBox="0 0 500.000000 500.000000"
 preserveAspectRatio="xMidYMid meet">

<g transform="translate(0.000000,500.000000) scale(0.100000,-0.100000)"
fill="#000000" stroke="none">
<path d="M240 2500 l0 -2260 2260 0 2260 0 0 2260 0 2260 -2260 0 -2260 0 0
-2260z m4410 0 l0 -2150 -2150 0 -2150 0 0 2150 0 2150 2150 0 2150 0 0 -2150z"/>
<path d="M2565 4351 c-22 -5 -29 -12 -28 -26 11 -110 36 -284 44 -297 12 -23
12 -354 0 -376 -5 -10 -12 -47 -16 -82 -3 -36 -10 -94 -15 -130 -18 -122 -23
-411 -11 -589 7 -95 11 -174 9 -176 -2 -1 -68 4 -148 12 -194 19 -652 13 -798
-11 -194 -32 -343 -84 -465 -164 -145 -94 -206 -213 -164 -315 8 -19 11 -40 6
-52 -18 -46 -9 -111 22 -171 16 -32 45 -93 63 -135 36 -83 76 -146 145 -227
l45 -54 -28 -51 c-15 -29 -42 -65 -59 -80 l-32 -28 1 -192 c0 -180 2 -197 27
-272 33 -101 80 -160 140 -175 23 -6 94 -26 157 -45 143 -44 263 -61 500 -75
243 -13 601 -13 637 1 15 6 49 33 75 61 l47 51 84 2 c102 2 160 25 165 66 2
14 -22 139 -52 277 -31 138 -56 258 -56 267 0 10 25 44 55 77 123 133 214 308
239 459 7 40 27 49 105 49 20 0 42 4 50 9 9 6 25 2 45 -9 61 -36 157 -50 347
-50 104 0 188 4 199 10 45 24 45 18 50 784 l5 730 32 8 c18 5 38 18 45 31 18
34 16 138 -4 168 -9 14 -137 111 -285 216 -147 105 -317 228 -378 273 -60 46
-135 95 -165 109 -53 25 -62 26 -276 29 -189 3 -226 1 -253 -12 l-31 -17 0 66
c0 72 -1 72 -75 56z m34 -108 c-1 -72 -2 -74 -10 -33 -11 64 -11 110 1 110 6
0 9 -32 9 -77z m589 -66 c18 -10 93 -62 165 -116 73 -53 242 -176 377 -272
l245 -174 -237 -3 -237 -2 -152 107 -151 108 -28 75 c-27 74 -57 140 -69 150
-3 3 -19 24 -35 47 -17 25 -46 51 -71 63 -41 20 -45 20 -81 5 -21 -9 -52 -27
-70 -40 -18 -14 -36 -25 -41 -25 -4 0 -33 23 -63 50 l-55 50 235 -2 c204 -3
239 -5 268 -21z m-500 -59 c7 -7 12 -21 12 -33 0 -29 -19 -45 -51 -45 -32 0
-35 3 -44 53 l-7 37 39 0 c21 0 44 -5 51 -12z m305 -18 c38 -30 75 -114 98
-221 40 -183 36 -772 -6 -1013 -29 -168 -108 -371 -199 -514 l-27 -44 -121
174 c-66 95 -125 189 -131 208 -13 42 -16 630 -4 743 l9 77 43 0 c43 0 45 1
56 39 6 22 9 55 5 75 -6 32 -10 36 -36 36 -36 0 -37 6 -9 96 45 145 119 261
207 324 63 45 79 48 115 20z m-229 -38 c7 -12 -50 -76 -62 -68 -7 4 -2 15 14
31 13 13 24 29 24 35 0 12 17 14 24 2z m-95 -116 c9 -11 9 -22 -3 -50 -8 -20
-17 -36 -20 -36 -4 0 -6 23 -6 50 0 51 8 61 29 36z m758 -350 c26 -16 33 -28
33 -53 0 -31 -2 -32 -25 -23 -43 16 -200 140 -207 163 -17 60 -10 59 80 -4 48
-33 102 -71 119 -83z m-227 -162 c22 -312 -25 -698 -110 -911 -35 -88 -90
-174 -126 -198 -38 -24 -39 -13 -5 43 74 118 138 288 170 444 30 144 41 300
44 586 2 282 9 291 27 36z m-522 149 c-3 -34 -6 -38 -28 -35 -34 4 -54 25 -45
51 5 16 15 21 41 21 35 0 35 -1 32 -37z m653 -60 l79 -58 0 -743 0 -743 -31
18 c-44 25 -73 65 -182 251 l-97 163 19 37 c103 205 167 718 132 1060 -4 39
-5 72 -3 72 2 0 39 -26 83 -57z m657 0 l-3 -38 -232 -3 -233 -2 0 40 0 40 236
0 235 0 -3 -37z m-272 -103 l184 0 0 -699 c0 -460 -4 -708 -10 -728 -11 -30
-12 -30 -104 -36 -88 -6 -244 -1 -293 9 l-23 4 0 731 0 732 31 -7 c17 -3 114
-6 215 -6z m-1253 -794 c65 -7 119 -15 121 -17 1 -2 51 -74 110 -159 124 -180
131 -155 -61 -219 -131 -43 -295 -82 -455 -108 -133 -22 -584 -25 -698 -5
-123 22 -258 60 -325 92 -65 31 -125 88 -125 117 0 10 28 44 63 78 130 126
341 201 662 234 118 13 558 5 708 -13z m661 -361 l46 -80 -32 -3 c-18 -2 -102
-9 -187 -15 -137 -11 -151 -11 -130 2 13 9 38 30 56 48 17 18 40 33 50 33 26
0 74 32 108 72 17 19 33 32 36 29 4 -3 27 -42 53 -86z m-1989 -106 c84 -39
215 -75 347 -96 168 -26 505 -23 697 6 177 27 408 85 559 141 63 23 116 39
118 37 10 -10 -82 -64 -187 -111 -125 -55 -313 -97 -514 -116 -454 -42 -1076
56 -1140 180 -25 48 -17 54 22 20 20 -18 64 -46 98 -61z m107 -108 c288 -74
656 -96 988 -60 109 12 301 53 375 79 36 13 128 25 323 40 151 12 275 20 276
18 1 -2 18 -29 39 -60 20 -32 37 -60 37 -63 0 -3 -21 -5 -47 -5 -81 0 -466
-30 -508 -40 -22 -5 -90 -27 -151 -49 -209 -74 -401 -104 -674 -104 -298 1
-605 50 -783 125 -35 15 -53 31 -66 57 -24 48 -33 86 -26 114 l6 23 49 -23
c26 -12 99 -36 162 -52z m1858 -135 c0 -46 -49 -180 -95 -260 -46 -81 -124
-180 -179 -228 l-30 -26 28 -139 c15 -76 43 -203 62 -282 24 -103 31 -148 24
-155 -6 -6 -48 -13 -94 -14 l-84 -4 -12 89 c-31 220 -35 238 -53 241 -21 4
-21 3 3 -154 11 -71 20 -141 20 -155 0 -17 -18 -44 -54 -83 l-54 -58 -379 5
c-392 5 -536 17 -659 55 -53 16 -59 20 -56 43 8 55 120 570 125 575 3 3 39 0
79 -7 108 -19 321 -14 459 10 189 33 327 96 443 202 60 54 67 72 38 88 -15 8
-26 2 -58 -31 -21 -22 -68 -59 -104 -82 -162 -105 -307 -140 -580 -140 -160 0
-196 3 -265 22 -218 60 -389 192 -482 373 -18 34 -32 64 -30 65 1 1 48 -10
104 -26 226 -64 517 -96 773 -87 254 9 468 50 651 123 77 30 105 36 250 48 90
7 174 14 187 15 17 1 22 -4 22 -23z m-1765 -417 c17 -11 53 -32 80 -46 28 -14
51 -26 53 -28 7 -6 -172 -518 -197 -563 -8 -14 -14 -7 -35 39 -30 64 -42 120
-52 240 -8 107 3 239 20 239 7 0 30 31 52 70 21 38 41 70 44 70 3 0 19 -9 35
-21z m204 -100 c17 -6 31 -17 31 -24 0 -16 -120 -589 -125 -593 -4 -4 -128 30
-137 38 -5 3 23 91 61 195 38 105 84 236 102 293 18 56 34 102 35 102 0 0 15
-5 33 -11z"/>
<path d="M3023 3449 c-98 -28 -65 -145 42 -152 l40 -2 3 83 3 82 -28 -1 c-15
0 -43 -5 -60 -10z m47 -74 c0 -49 -1 -50 -33 -34 -42 23 -49 55 -14 69 41 16
47 12 47 -35z"/>
<path d="M1810 2600 c-253 -31 -432 -97 -487 -179 -29 -43 -29 -69 0 -112 32
-47 131 -95 252 -121 135 -30 487 -32 635 -5 235 44 373 110 400 192 30 91
-77 168 -291 210 -99 20 -398 28 -509 15z m461 -65 c97 -14 208 -49 254 -79
13 -9 28 -28 31 -43 18 -69 -154 -145 -416 -183 -115 -17 -391 -14 -505 5
-171 29 -275 78 -275 130 0 66 188 144 420 174 109 14 387 12 491 -4z"/>
</g>
</svg>
