<?xml version="1.0" encoding="UTF-8"?>
<!-- Generator: visioncortex VTracer 0.6.4 -->
<svg version="1.1" xmlns="http://www.w3.org/2000/svg" width="500" height="500">
<path d="M0 0 C4.92 4.27 9.56 8.81 14.19 13.38 C15.44 14.61 15.44 14.61 16.71 15.86 C20.9 20.08 24.55 24.29 27.92 29.2 C34.64 38.66 44.46 41.47 54.97 45.54 C63.32 48.89 70.66 52.75 75.82 60.38 C77.58 65.69 77.69 71.13 75.44 76.32 C72.86 80.98 69 84.46 65.16 88.09 C61.2 91.97 59.04 94.71 58.82 100.38 C59.96 103.54 61.25 106.4 62.92 109.32 C64.54 113.05 63.93 116.55 62.82 120.38 C59.29 125.02 56.08 125.66 50.44 126.7 C38.29 128.97 26.95 135.07 17.82 143.38 C17.1 144.03 16.38 144.68 15.64 145.35 C10.64 150.11 6.09 154.63 5.57 161.82 C5.65 162.67 5.73 163.51 5.82 164.38 C12.77 167.6 18.78 167.78 26.38 167.63 C27.48 167.63 28.57 167.62 29.71 167.62 C35.17 167.56 40.41 167.26 45.82 166.38 C50.69 166.04 55.21 165.86 59.88 167.38 C62.77 170.37 63.7 173.32 63.82 177.38 C63.11 181.16 62.06 184.75 60.82 188.38 C60.16 188.38 59.5 188.38 58.82 188.38 C58.72 189.09 58.62 189.8 58.51 190.52 C56.35 199.43 49.6 207.46 43.82 214.38 C43.28 215.08 42.75 215.77 42.2 216.48 C20.46 243.15 -18.55 259.62 -51.18 267.38 C-51.96 267.58 -52.74 267.77 -53.54 267.97 C-54.31 268.15 -55.09 268.33 -55.88 268.52 C-56.56 268.69 -57.25 268.85 -57.95 269.02 C-60.71 269.47 -63.39 269.44 -66.18 269.38 C-66.18 270.16 -66.17 270.94 -66.17 271.74 C-66.13 279.91 -66.34 288.04 -66.68 296.2 C-66.73 297.38 -66.78 298.56 -66.83 299.78 C-66.94 302.64 -67.06 305.51 -67.18 308.38 C-69.77 309.68 -71.48 309.43 -74.37 309.31 C-75.45 309.27 -76.53 309.23 -77.64 309.19 C-78.81 309.14 -79.99 309.09 -81.19 309.04 C-82.39 309 -83.58 308.95 -84.81 308.9 C-88.65 308.76 -92.48 308.6 -96.31 308.45 C-98.9 308.34 -101.49 308.24 -104.09 308.14 C-110.45 307.89 -116.82 307.64 -123.18 307.38 C-123.06 302.22 -122.94 297.06 -122.81 291.9 C-122.77 290.15 -122.73 288.4 -122.69 286.64 C-122.63 284.12 -122.56 281.59 -122.5 279.06 C-122.48 278.28 -122.47 277.51 -122.45 276.7 C-122.34 272.51 -121.99 268.52 -121.18 264.38 C-122.19 264.27 -123.19 264.16 -124.22 264.04 C-128.19 263.47 -131.83 262.26 -135.56 260.82 C-136.23 260.56 -136.91 260.31 -137.61 260.04 C-145.66 256.92 -153.42 253.17 -161.18 249.38 C-161.18 248.72 -161.18 248.06 -161.18 247.38 C-161.86 247.15 -162.54 246.92 -163.25 246.68 C-166.91 245.06 -169.95 242.92 -173.18 240.57 C-174.09 239.93 -174.09 239.93 -175.01 239.28 C-178.75 236.59 -181.97 233.7 -185.18 230.38 C-186.58 229.3 -186.58 229.3 -188 228.2 C-188.72 227.6 -189.44 227 -190.18 226.38 C-190.18 225.72 -190.18 225.06 -190.18 224.38 C-191.17 224.05 -192.16 223.72 -193.18 223.38 C-193.18 222.72 -193.18 222.06 -193.18 221.38 C-193.84 221.38 -194.5 221.38 -195.18 221.38 C-218.74 197.28 -230.4 163.12 -234.18 130.38 C-234.28 129.65 -234.37 128.92 -234.47 128.17 C-236.77 109.25 -232.93 89.41 -227.18 71.38 C-226.98 70.72 -226.78 70.06 -226.57 69.38 C-215.07 32.25 -187.27 1.45 -153.3 -16.71 C-103.29 -42.84 -43.43 -36.12 0 0 Z " fill="#FDFDFD" transform="translate(247.18359375,108.6171875)"/>
<path d="M0 0 C4.92 4.27 9.56 8.81 14.19 13.38 C15.44 14.61 15.44 14.61 16.71 15.86 C20.9 20.08 24.55 24.29 27.92 29.2 C34.64 38.66 44.46 41.47 54.97 45.54 C63.32 48.89 70.66 52.75 75.82 60.38 C77.58 65.69 77.69 71.13 75.44 76.32 C72.86 80.98 69 84.46 65.16 88.09 C61.2 91.97 59.04 94.71 58.82 100.38 C59.96 103.54 61.25 106.4 62.92 109.32 C64.54 113.05 63.93 116.55 62.82 120.38 C59.29 125.02 56.08 125.66 50.44 126.7 C38.29 128.97 26.95 135.07 17.82 143.38 C17.1 144.03 16.38 144.68 15.64 145.35 C10.64 150.11 6.09 154.63 5.57 161.82 C5.65 162.67 5.73 163.51 5.82 164.38 C12.77 167.6 18.78 167.78 26.38 167.63 C27.48 167.63 28.57 167.62 29.71 167.62 C35.17 167.56 40.41 167.26 45.82 166.38 C50.69 166.04 55.21 165.86 59.88 167.38 C62.77 170.37 63.7 173.32 63.82 177.38 C63.11 181.16 62.06 184.75 60.82 188.38 C60.16 188.38 59.5 188.38 58.82 188.38 C58.72 189.09 58.62 189.8 58.51 190.52 C56.35 199.43 49.6 207.46 43.82 214.38 C43.28 215.08 42.75 215.77 42.2 216.48 C20.46 243.15 -18.55 259.62 -51.18 267.38 C-51.96 267.58 -52.74 267.77 -53.54 267.97 C-54.31 268.15 -55.09 268.33 -55.88 268.52 C-56.56 268.69 -57.25 268.85 -57.95 269.02 C-60.71 269.47 -63.39 269.44 -66.18 269.38 C-66.18 270.16 -66.17 270.94 -66.17 271.74 C-66.13 279.91 -66.34 288.04 -66.68 296.2 C-66.73 297.38 -66.78 298.56 -66.83 299.78 C-66.94 302.64 -67.06 305.51 -67.18 308.38 C-69.77 309.68 -71.48 309.43 -74.37 309.31 C-75.45 309.27 -76.53 309.23 -77.64 309.19 C-78.81 309.14 -79.99 309.09 -81.19 309.04 C-82.39 309 -83.58 308.95 -84.81 308.9 C-88.65 308.76 -92.48 308.6 -96.31 308.45 C-98.9 308.34 -101.49 308.24 -104.09 308.14 C-110.45 307.89 -116.82 307.64 -123.18 307.38 C-123.06 302.22 -122.94 297.06 -122.81 291.9 C-122.77 290.15 -122.73 288.4 -122.69 286.64 C-122.63 284.12 -122.56 281.59 -122.5 279.06 C-122.48 278.28 -122.47 277.51 -122.45 276.7 C-122.34 272.51 -121.99 268.52 -121.18 264.38 C-122.19 264.27 -123.19 264.16 -124.22 264.04 C-128.19 263.47 -131.83 262.26 -135.56 260.82 C-136.23 260.56 -136.91 260.31 -137.61 260.04 C-145.66 256.92 -153.42 253.17 -161.18 249.38 C-161.18 248.72 -161.18 248.06 -161.18 247.38 C-161.86 247.15 -162.54 246.92 -163.25 246.68 C-166.91 245.06 -169.95 242.92 -173.18 240.57 C-174.09 239.93 -174.09 239.93 -175.01 239.28 C-178.75 236.59 -181.97 233.7 -185.18 230.38 C-186.58 229.3 -186.58 229.3 -188 228.2 C-188.72 227.6 -189.44 227 -190.18 226.38 C-190.18 225.72 -190.18 225.06 -190.18 224.38 C-191.17 224.05 -192.16 223.72 -193.18 223.38 C-193.18 222.72 -193.18 222.06 -193.18 221.38 C-193.84 221.38 -194.5 221.38 -195.18 221.38 C-218.74 197.28 -230.4 163.12 -234.18 130.38 C-234.28 129.65 -234.37 128.92 -234.47 128.17 C-236.77 109.25 -232.93 89.41 -227.18 71.38 C-226.98 70.72 -226.78 70.06 -226.57 69.38 C-215.07 32.25 -187.27 1.45 -153.3 -16.71 C-103.29 -42.84 -43.43 -36.12 0 0 Z M-182.54 32.09 C-203.55 56.35 -213.64 86.94 -213.5 118.76 C-213.49 119.44 -213.49 120.12 -213.49 120.82 C-213.43 130.99 -213.02 140.55 -210.18 150.38 C-209.84 151.58 -209.84 151.58 -209.5 152.79 C-202.48 176.98 -190.51 196.95 -172.18 214.38 C-171.51 215.04 -170.84 215.69 -170.15 216.36 C-144.7 240.37 -110.95 250.4 -76.59 249.66 C-53.85 248.85 -33.03 242.39 -13.18 231.38 C-12.41 230.96 -11.64 230.54 -10.85 230.1 C-0.74 224.52 8.86 218.71 17.82 211.38 C18.61 210.76 19.41 210.14 20.23 209.5 C26.79 204.11 31.37 197.54 35.82 190.38 C35.82 190.05 35.82 189.72 35.82 189.38 C35.21 189.37 34.61 189.35 33.99 189.34 C1.12 188.45 1.12 188.45 -10.62 177.01 C-14.69 170.18 -16.21 163.95 -14.75 156.04 C-10.09 137.71 5.05 125.46 20.59 116.18 C26.38 112.95 32.31 109.81 38.82 108.38 C38.77 107.33 38.72 106.28 38.68 105.2 C38.42 97.06 38.39 90.51 42.82 83.38 C43.39 82.37 43.97 81.36 44.57 80.32 C47.64 76.31 51.17 72.87 54.82 69.38 C52.65 66.97 50.76 65.74 47.75 64.55 C46.96 64.23 46.17 63.91 45.35 63.58 C44.52 63.25 43.68 62.91 42.82 62.57 C30.72 57.62 19.98 52.97 12.07 42.2 C-9.49 13.98 -38.96 -5.83 -74.18 -11.62 C-75.62 -11.89 -75.62 -11.89 -77.08 -12.17 C-117.2 -17.92 -156.41 2.94 -182.54 32.09 Z " fill="#010101" transform="translate(247.18359375,108.6171875)"/>
<path d="M0 0 C6.53 6.02 11.4 12.87 15 21 C15 21.66 15 22.32 15 23 C15.61 23.11 16.23 23.22 16.86 23.33 C17.67 23.49 18.48 23.65 19.31 23.81 C20.11 23.96 20.91 24.11 21.74 24.27 C24.43 25.14 25.34 25.71 27 28 C27.98 30.46 28.84 32.85 29.62 35.38 C29.84 36.03 30.06 36.69 30.28 37.38 C31.42 40.89 32.39 44.36 33 48 C33.3 49.64 33.3 49.64 33.6 51.31 C35.53 69.19 28.28 87.17 17.59 101.16 C12.16 107.84 12.16 107.84 10 110 C8.57 110.1 7.13 110.13 5.69 110.12 C4.52 110.13 4.52 110.13 3.32 110.13 C1.08 110 -0.84 109.57 -3 109 C-2.87 109.72 -2.73 110.44 -2.6 111.18 C-1.28 118.64 -0.49 126.01 0 133.56 C0.16 135.92 0.32 138.28 0.48 140.64 C0.56 141.84 0.64 143.05 0.72 144.29 C1 148.06 1.35 151.82 1.71 155.58 C1.82 156.8 1.93 158.03 2.05 159.28 C2.26 161.63 2.49 163.98 2.74 166.33 C2.84 167.39 2.93 168.46 3.02 169.55 C3.12 170.49 3.21 171.42 3.3 172.38 C2.88 176.06 1.72 177.53 -1 180 C-4.16 180.69 -4.16 180.69 -7.93 180.78 C-8.62 180.8 -9.31 180.82 -10.02 180.84 C-12.31 180.9 -14.59 180.92 -16.88 180.94 C-18.47 180.96 -20.06 180.99 -21.66 181.02 C-32.93 181.16 -44.21 180.95 -55.48 180.48 C-57.15 180.41 -58.83 180.35 -60.51 180.29 C-62.86 180.21 -65.21 180.09 -67.56 179.96 C-68.61 179.93 -68.61 179.93 -69.67 179.9 C-73.04 179.67 -74.78 179.19 -77.36 176.98 C-79.47 173.15 -80.08 169.71 -80.67 165.41 C-80.79 164.59 -80.92 163.77 -81.05 162.92 C-81.44 160.3 -81.82 157.68 -82.19 155.06 C-82.45 153.31 -82.71 151.55 -82.97 149.79 C-83.46 146.56 -83.93 143.33 -84.4 140.09 C-84.89 136.72 -85.44 133.36 -86 130 C-86.26 128.2 -86.51 126.4 -86.75 124.6 C-86.89 123.63 -87.02 122.66 -87.15 121.65 C-87.29 120.65 -87.42 119.65 -87.56 118.62 C-87.77 117.09 -87.77 117.09 -87.98 115.53 C-88.32 113.02 -88.66 110.51 -89 108 C-89.66 108 -90.32 108 -91 108 C-93.26 105.81 -95.47 103.63 -97.49 101.22 C-102.82 95.59 -107.62 95.16 -115.17 94.87 C-116.53 94.85 -117.89 94.83 -119.25 94.81 C-121.94 94.76 -124.63 94.68 -127.33 94.58 C-128.51 94.56 -129.7 94.55 -130.92 94.53 C-134.65 93.89 -135.75 93 -138 90 C-139.8 86.49 -140.23 83.81 -140.05 79.9 C-140 78.93 -139.96 77.97 -139.92 76.97 C-139.83 75.47 -139.83 75.47 -139.75 73.94 C-139.71 72.96 -139.67 71.99 -139.63 70.99 C-139.28 63.87 -138.3 57 -137 50 C-136.72 48.45 -136.72 48.45 -136.43 46.87 C-135.85 43.7 -135.24 40.54 -134.62 37.38 C-134.43 36.32 -134.23 35.27 -134.03 34.18 C-132.71 27.4 -130.75 21.32 -128 15 C-127.37 13.37 -127.37 13.37 -126.73 11.71 C-119.97 -5.32 -119.97 -5.32 -112 -9 C-109.48 -9 -109.48 -9 -106.75 -8.44 C-105.2 -8.14 -105.2 -8.14 -103.61 -7.83 C-100.92 -7.21 -98.25 -6.56 -95.58 -5.86 C-94.82 -5.67 -94.06 -5.47 -93.28 -5.28 C-91.78 -4.89 -90.28 -4.48 -88.79 -4.06 C-86.45 -3.41 -86.45 -3.41 -83 -3 C-80.96 -4.22 -80.96 -4.22 -79 -6 C-76.15 -7.08 -73.21 -7.81 -70.25 -8.56 C-69.41 -8.78 -68.57 -8.99 -67.71 -9.22 C-44.37 -15 -19.87 -15.37 0 0 Z M-102 4 C-102.06 4.69 -102.13 5.38 -102.2 6.1 C-104.18 26.82 -107.69 46.88 -113 67 C-107.06 66.34 -101.12 65.68 -95 65 C-95.04 62.44 -95.08 59.88 -95.12 57.25 C-95.18 40.77 -93.29 25.62 -88 10 C-87.67 9.01 -87.34 8.02 -87 7 C-87.6 6.87 -88.21 6.73 -88.83 6.6 C-89.63 6.42 -90.43 6.24 -91.25 6.06 C-92.04 5.89 -92.83 5.71 -93.64 5.54 C-95.16 5.19 -96.67 4.83 -98.17 4.43 C-100.01 3.92 -100.01 3.92 -102 4 Z M-113 7 C-122.87 23.59 -129.49 48.82 -129 68 C-127.35 68 -125.7 68 -124 68 C-116.88 48.82 -111.71 27.55 -112 7 C-112.33 7 -112.66 7 -113 7 Z M14 33 C13.67 34.24 13.34 35.47 13 36.75 C12.81 37.45 12.63 38.14 12.44 38.86 C11.87 41.29 11.87 41.29 12 45 C14.64 44.67 17.28 44.34 20 44 C21.37 40.9 21.37 40.9 19.81 37.38 C18.43 33.88 18.43 33.88 15.89 33.29 C14.95 33.15 14.95 33.15 14 33 Z " fill="#020202" transform="translate(447,182)"/>
<path d="M0 0 C1.1 -0.01 2.21 -0.02 3.34 -0.04 C14.97 -0.06 25.29 2.21 34.06 10.41 C42.44 19.65 42.44 19.65 43.01 25.48 C42.64 29.7 41.73 33.45 40.56 37.5 C38.11 46.37 36.01 55.3 34 64.28 C32.79 69.65 31.5 74.97 29.97 80.26 C29.69 81.24 29.42 82.22 29.13 83.22 C28.61 85.01 28.08 86.8 27.52 88.57 C22.87 104.83 25.99 123.17 27.69 139.69 C27.98 142.58 28.26 145.47 28.54 148.36 C28.72 150.14 28.9 151.92 29.08 153.69 C29.16 154.49 29.24 155.28 29.32 156.1 C29.39 156.8 29.46 157.49 29.54 158.21 C29.69 160.2 29.69 162.19 29.69 164.19 C11.87 164.19 -5.95 164.19 -24.31 164.19 C-28.19 139.44 -28.19 139.44 -29.4 131.7 C-29.72 129.64 -30.04 127.58 -30.37 125.52 C-30.53 124.48 -30.69 123.44 -30.86 122.36 C-31.18 120.32 -31.51 118.27 -31.84 116.22 C-32.17 114.12 -32.47 112.02 -32.75 109.91 C-32.9 108.85 -33.06 107.79 -33.21 106.7 C-33.34 105.75 -33.46 104.8 -33.6 103.82 C-34.66 99.92 -36.89 97.57 -39.75 94.81 C-41.31 93.19 -41.31 93.19 -42.31 90.19 C-41.66 89.81 -41.01 89.44 -40.33 89.05 C-38.04 87.33 -38.04 87.33 -37.89 84.45 C-37.92 83.41 -37.96 82.38 -38 81.31 C-38.04 79.77 -38.04 79.77 -38.07 78.2 C-38.23 75.3 -38.23 75.3 -38.82 72.97 C-39.81 67.39 -39.5 61.65 -39.5 56 C-39.5 53.72 -39.52 51.45 -39.54 49.17 C-39.58 37.65 -38.95 26.5 -34.81 15.62 C-34.39 14.49 -33.97 13.35 -33.53 12.18 C-33.13 11.19 -32.73 10.21 -32.31 9.19 C-32.06 8.44 -31.81 7.69 -31.55 6.92 C-29.6 4.19 -27.18 3.88 -24 3 C-22.87 2.68 -21.74 2.35 -20.57 2.02 C-13.6 0.24 -7.19 0 0 0 Z " fill="#FCFCFC" transform="translate(405.3125,183.8125)"/>
<path d="M0 0 C1.45 4.34 1.22 8.52 1.25 13.06 C1.27 13.97 1.29 14.87 1.31 15.8 C1.4 31.15 -5.81 43.17 -15 55 C-16 56 -16 56 -17.85 56.1 C-19.9 56.07 -21.95 56.03 -24 56 C-23.38 48.26 -21.64 41.01 -19.69 33.5 C-17.08 23.53 -17.08 23.53 -14.86 13.46 C-14.7 12.67 -14.54 11.88 -14.37 11.07 C-14.09 9.65 -13.83 8.23 -13.59 6.8 C-13.21 4.93 -13.21 4.93 -12 2 C-7.95 0.02 -4.47 -0.21 0 0 Z " fill="#ABD4E2" transform="translate(469,226)"/>
<path d="M0 0 C1.88 1.12 1.88 1.12 3 3 C3.5 5.88 3.5 5.88 3 9 C-1.19 13.87 -6.45 17.43 -11.62 21.19 C-12.48 21.82 -13.34 22.44 -14.23 23.09 C-23.71 30.02 -23.71 30.02 -27.56 29.81 C-31 29 -31 29 -33 26 C-33.34 23.52 -33.34 23.52 -33 21 C-31.59 19.24 -31.59 19.24 -29.6 17.65 C-28.87 17.06 -28.14 16.46 -27.38 15.85 C-26.2 14.93 -26.2 14.93 -25 14 C-24.23 13.38 -23.45 12.77 -22.66 12.13 C-20.25 10.24 -17.82 8.4 -15.38 6.56 C-14.56 5.93 -13.74 5.29 -12.89 4.63 C-5.34 -1.01 -5.34 -1.01 0 0 Z " fill="#040404" transform="translate(232,151)"/>
<path d="M0 0 C0.33 2.75 0.61 5.49 0.88 8.25 C1.02 9.42 1.02 9.42 1.17 10.61 C1.37 12.87 1.45 14.77 1 17 C-1.74 19.56 -3.67 20.76 -7.35 21.43 C-8.1 21.39 -8.85 21.35 -9.62 21.31 C-10.47 21.28 -11.32 21.24 -12.19 21.21 C-13.12 21.14 -14.04 21.07 -15 21 C-16.09 20.92 -17.19 20.84 -18.31 20.76 C-21.21 20.53 -24.11 20.28 -27 20 C-26.56 18.71 -26.56 18.71 -26.12 17.39 C-25.41 15.23 -24.74 13.05 -24.13 10.86 C-23.06 7.53 -22 4.87 -20 2 C-13.78 -0.79 -6.69 -0.03 0 0 Z " fill="#ABD4E1" transform="translate(353,247)"/>
<path d="M0 0 C1.98 0 3.96 0 6 0 C5.57 1.42 5.13 2.84 4.69 4.25 C4.44 5.04 4.2 5.83 3.95 6.64 C3 9 3 9 0 13 C0 8.71 0 4.42 0 0 Z " fill="#A3CAD7" transform="translate(317,250)"/>
</svg>
