<?xml version="1.0" standalone="no"?>
<!DOCTYPE svg PUBLIC "-//W3C//DTD SVG 20010904//EN"
 "http://www.w3.org/TR/2001/REC-SVG-20010904/DTD/svg10.dtd">
<svg version="1.0" xmlns="http://www.w3.org/2000/svg"
 width="500.000000pt" height="500.000000pt" viewBox="0 0 500.000000 500.000000"
 preserveAspectRatio="xMidYMid meet">
<metadata>
Created by potrace 1.16, written by Peter Selinger 2001-2019
</metadata>
<g transform="translate(0.000000,500.000000) scale(0.100000,-0.100000)"
fill="#000000" stroke="none">
<path d="M0 2500 l0 -2500 2500 0 2500 0 0 2500 0 2500 -2500 0 -2500 0 0
-2500z m2403 1229 c150 -50 394 -213 443 -296 48 -83 149 -172 275 -242 218
-123 236 -141 195 -196 -14 -18 -48 -49 -76 -70 -32 -23 -50 -44 -50 -57 0
-12 18 -52 40 -91 22 -38 39 -71 38 -72 -2 -1 -32 -16 -68 -35 -193 -98 -300
-220 -300 -341 0 -44 4 -55 33 -84 39 -39 93 -57 245 -80 61 -10 119 -23 129
-30 16 -12 16 -16 0 -75 -35 -125 -131 -297 -234 -417 -55 -65 -168 -151 -250
-192 -83 -41 -215 -79 -307 -87 -45 -4 -81 -12 -87 -21 -9 -10 -5 -45 16 -149
15 -74 25 -137 23 -140 -6 -5 -574 -74 -613 -74 -21 0 -23 5 -30 81 l-7 81 58
60 c33 33 89 82 127 110 37 28 67 58 67 66 0 8 -26 47 -58 86 -178 216 -259
368 -281 525 -13 95 -24 107 -111 113 -82 6 -138 35 -198 103 -94 107 -96 247
-3 294 52 27 135 28 174 3 50 -34 102 -120 127 -212 6 -21 17 -41 26 -44 19
-7 68 21 103 58 l24 25 -32 47 c-17 26 -34 62 -37 81 -21 113 41 369 96 398
42 21 88 80 101 127 15 56 6 172 -21 273 -67 246 8 391 245 476 66 23 103 23
178 -2z m1919 -720 c111 -24 221 -106 262 -197 l18 -40 -85 -349 -86 -348 24
-260 c14 -143 25 -270 25 -282 l0 -23 -260 0 -259 0 -6 33 c-3 17 -23 146 -45
286 l-39 255 -51 51 -50 51 35 18 c39 21 41 28 26 134 -32 226 -14 418 56 574
l25 57 92 20 c50 11 100 22 111 25 42 8 156 6 207 -5z m-574 -44 c60 -14 72
-20 66 -34 -61 -144 -83 -321 -65 -523 16 -184 19 -182 -169 -156 -47 6 -86
12 -88 14 -2 1 3 15 11 31 22 41 74 205 97 303 22 94 54 346 46 366 -6 15 2
24 17 19 7 -2 45 -11 85 -20z m-181 -87 c-7 -117 -27 -235 -63 -358 -31 -111
-84 -240 -96 -240 -25 0 26 344 74 498 22 72 77 202 86 202 3 0 2 -46 -1 -102z
m1172 -187 c5 -9 17 -52 26 -96 31 -148 -5 -287 -111 -433 l-39 -52 -45 6
c-25 4 -46 8 -48 9 -2 2 134 567 143 592 6 17 62 -3 74 -26z"/>
<path d="M2671 3178 c-50 -62 -91 -115 -91 -118 1 -16 20 -32 33 -27 8 3 54
54 103 112 69 85 85 111 78 123 -6 9 -15 17 -21 19 -7 3 -52 -47 -102 -109z"/>
</g>
</svg>
