<?xml version="1.0" encoding="UTF-8"?>
<svg version="1.1" xmlns="http://www.w3.org/2000/svg" width="500" height="500">
<path d="M0 0 C0.96849123 9.26344942 1.12190023 18.44321619 1.0625 27.75 C1.05746857 29.14062337 1.0529086 30.53124852 1.04882812 31.921875 C1.03716347 35.28129705 1.02079614 38.64062419 1 42 C0.34 42 -0.32 42 -1 42 C-0.67 132.75 -0.34 223.5 0 317 C-0.99 317 -1.98 317 -3 317 C-2.98525131 317.58530487 -2.97050262 318.17060974 -2.95530701 318.77365112 C-2.79494052 325.23781566 -2.65253971 331.70224391 -2.51782227 338.16699219 C-2.46652151 340.53524716 -2.41155276 342.90342741 -2.35180664 345.27148438 C-1.62822728 374.21465865 -2.50022075 403.01280323 -3 432 C-165.03 432 -327.06 432 -494 432 C-494 375 -494 375 -493 372 C-492.91105439 370.6402627 -492.87623537 369.27656545 -492.87695217 367.91392231 C-492.87496112 367.07890102 -492.87297007 366.24387972 -492.87091869 365.38355476 C-492.87383153 364.46624759 -492.87674437 363.54894042 -492.87974548 362.60383606 C-492.87889106 361.62938732 -492.87803663 360.65493859 -492.87715632 359.6509611 C-492.87550336 356.37121149 -492.88101992 353.09151252 -492.88647461 349.81176758 C-492.88675655 347.46652732 -492.88659862 345.12128696 -492.8860321 342.77604675 C-492.88574439 336.39625489 -492.89163702 330.0164817 -492.89860606 323.63669419 C-492.90421226 317.64880151 -492.9052284 311.66090882 -492.90625793 305.67301401 C-492.90844732 293.81170958 -492.91510435 281.95041202 -492.92456055 270.08911133 C-492.93373758 258.5659997 -492.94081699 247.04288994 -492.94506836 235.51977539 C-492.94533108 234.80965861 -492.94559381 234.09954184 -492.94586449 233.36790637 C-492.94716952 229.80550933 -492.94843323 226.24311227 -492.94967639 222.6807152 C-492.96004548 193.12047237 -492.977735 163.5602363 -493 134 C-491.02 133.01 -491.02 133.01 -489 132 C-488.03489279 133.35507152 -487.06983738 134.71017994 -486.10498047 136.06542969 C-485.23065586 137.2895502 -484.3532879 138.51150179 -483.47314453 139.73144531 C-480.82751246 143.40446299 -478.24447145 147.10787678 -475.72265625 150.8671875 C-474.60679829 152.49481049 -473.49091323 154.12241491 -472.375 155.75 C-471.86171143 156.53616699 -471.34842285 157.32233398 -470.81958008 158.13232422 C-470.0542395 159.23471436 -470.0542395 159.23471436 -469.2734375 160.359375 C-468.83435059 161.01389648 -468.39526367 161.66841797 -467.94287109 162.34277344 C-465.36725419 164.78868883 -465.36725419 164.78868883 -458 166 C-458 148.18 -458 130.36 -458 112 C-465.26 111.67 -472.52 111.34 -480 111 C-480 109.68 -480 108.36 -480 107 C-478.35 107 -476.7 107 -475 107 C-475.33 105.35 -475.66 103.7 -476 102 C-480.95 100.68 -485.9 99.36 -491 98 C-491 97.01 -491 96.02 -491 95 C-480.30640505 97.22453876 -469.62885941 99.48113206 -459 102 C-458.67 101.34 -458.34 100.68 -458 100 C-458.56203125 99.86464844 -459.1240625 99.72929687 -459.703125 99.58984375 C-466.44461042 97.86311359 -473.03795269 95.73451472 -479.625 93.5 C-480.52637695 93.20343506 -481.42775391 92.90687012 -482.35644531 92.60131836 C-483.62246582 92.16444702 -483.62246582 92.16444702 -484.9140625 91.71875 C-485.6767041 91.46029297 -486.4393457 91.20183594 -487.22509766 90.93554688 C-489 90 -489 90 -490 87 C-485.90170224 87.59700508 -482.14955203 88.50398797 -478.234375 89.84765625 C-477.17992187 90.20537109 -476.12546875 90.56308594 -475.0390625 90.93164062 C-473.41097656 91.49141602 -473.41097656 91.49141602 -471.75 92.0625 C-469.57904129 92.80606607 -467.40720858 93.54708686 -465.234375 94.28515625 C-464.27756836 94.61394775 -463.32076172 94.94273926 -462.33496094 95.28149414 C-460.08857733 96.09803564 -460.08857733 96.09803564 -458 96 C-457.71125 95.360625 -457.4225 94.72125 -457.125 94.0625 C-456 92 -456 92 -454 91 C-452.125 90.83203125 -452.125 90.83203125 -450 90.8125 C-449.29875 90.79832031 -448.5975 90.78414063 -447.875 90.76953125 C-446 91 -446 91 -444 93 C-443.5859375 95.1640625 -443.5859375 95.1640625 -443.375 97.625 C-443.30023438 98.44226563 -443.22546875 99.25953125 -443.1484375 100.1015625 C-443.09945312 100.72804688 -443.05046875 101.35453125 -443 102 C-440.03 102.99 -440.03 102.99 -437 104 C-437 103.34 -437 102.68 -437 102 C-435.68 102 -434.36 102 -433 102 C-433 103.32 -433 104.64 -433 106 C-430.69 106.66 -428.38 107.32 -426 108 C-426 106.02 -426 104.04 -426 102 C-424.68 102 -423.36 102 -422 102 C-422 103.98 -422 105.96 -422 108 C-420.02 108 -418.04 108 -416 108 C-416 109.32 -416 110.64 -416 112 C-414.98228516 112.21116455 -413.96457031 112.4223291 -412.91601562 112.63989258 C-399.49526142 115.43852639 -386.10603741 118.3773681 -372.7165966 121.32152176 C-352.03083702 125.86924605 -331.34324489 130.41316773 -310.62133789 134.79360962 C-308.80530236 135.17805816 -306.98970014 135.5645599 -305.17456055 135.95321655 C-302.69834003 136.48270441 -300.22059704 137.00430703 -297.7421875 137.5234375 C-297.03581146 137.67584396 -296.32943542 137.82825043 -295.60165405 137.98527527 C-289.63264786 139.21793811 -284.87546 139.74421872 -279.26171875 137.1640625 C-278.37097656 136.76356689 -277.48023438 136.36307129 -276.5625 135.95043945 C-275.61375 135.51304443 -274.665 135.07564941 -273.6875 134.625 C-271.64050724 133.71218327 -269.5922824 132.8021255 -267.54296875 131.89453125 C-266.47739746 131.42096191 -265.41182617 130.94739258 -264.31396484 130.45947266 C-258.73875442 128.00414571 -253.13196058 125.6343645 -247.5 123.3125 C-246.45674561 122.86664551 -245.41349121 122.42079102 -244.33862305 121.96142578 C-242.85616089 121.35596924 -242.85616089 121.35596924 -241.34375 120.73828125 C-240.47943359 120.37774658 -239.61511719 120.01721191 -238.72460938 119.64575195 C-231.71751791 117.98502105 -224.33918496 121.27119743 -217.66796875 123.34375 C-216.59501053 123.67290405 -215.52205231 124.00205811 -214.4165802 124.34118652 C-212.15920888 125.03474109 -209.90260404 125.73079472 -207.64672852 126.42919922 C-204.18346634 127.50124862 -200.71794825 128.5657296 -197.25195312 129.62890625 C-195.05715691 130.30424971 -192.86249079 130.98001614 -190.66796875 131.65625 C-189.62843552 131.97605835 -188.58890228 132.2958667 -187.51786804 132.62536621 C-186.5595961 132.92237427 -185.60132416 133.21938232 -184.61401367 133.52539062 C-183.76908859 133.7866272 -182.92416351 134.04786377 -182.05363464 134.3170166 C-180 135 -180 135 -178 136 C-178 122.47 -178 108.94 -178 95 C-162.01380753 88.85146444 -162.01380753 88.85146444 -156.88598633 89.16186523 C-155.84513382 89.22200302 -154.80428131 89.28214081 -153.73188782 89.34410095 C-152.60993515 89.41488358 -151.48798248 89.4856662 -150.33203125 89.55859375 C-149.18208176 89.62659683 -148.03213226 89.69459991 -146.84733582 89.7646637 C-143.16870528 89.98346717 -139.49062615 90.21039004 -135.8125 90.4375 C-133.32099557 90.5871229 -130.8294594 90.73621814 -128.33789062 90.88476562 C-122.22479194 91.2493923 -116.11250579 91.62498665 -110 92 C-109.67 103.88 -109.34 115.76 -109 128 C-103.49374017 125.70015681 -103.49374017 125.70015681 -97.99072266 123.39257812 C-96.96277588 122.9662207 -96.96277588 122.9662207 -95.9140625 122.53125 C-94.8614624 122.09135742 -94.8614624 122.09135742 -93.78759766 121.64257812 C-92 121 -92 121 -90 121 C-90.16285002 116.97598495 -90.38838055 112.95779838 -90.625 108.9375 C-90.67011719 107.80376953 -90.71523438 106.67003906 -90.76171875 105.50195312 C-91.16890201 99.15359596 -91.74020965 94.81330618 -96.40820312 90.27319336 C-106.16079449 82.47261606 -122.67261503 78.69933207 -135 79 C-136.77956742 79.33108231 -138.55161979 79.70574281 -140.3125 80.125 C-143.88602772 80.97016767 -144.80817407 81.06626714 -148.4375 79.8125 C-152.4608076 76.96674584 -152.4608076 76.96674584 -154 75 C-154 74.34 -154 73.68 -154 73 C-154.66 73 -155.32 73 -156 73 C-155.67942995 70.034727 -155.47279278 68.44824598 -153.26953125 66.359375 C-149.10509464 63.86501366 -144.69529938 64.43236854 -140 65 C-137.30514686 65.83675805 -134.74558811 66.86522336 -132.1328125 67.9296875 C-128.36752912 69.21608108 -124.67171219 69.82932943 -120.75 70.4375 C-107.97635923 72.50840181 -93.92022013 75.57049752 -85.31640625 86.05078125 C-80.9404871 92.63325453 -80.78798957 99.10747515 -80.4375 106.8125 C-80.39431641 107.69615234 -80.35113281 108.57980469 -80.30664062 109.49023438 C-80.20108464 111.65999623 -80.10008929 113.8299791 -80 116 C-78.79601562 115.4946875 -77.59203125 114.989375 -76.3515625 114.46875 C-74.7761187 113.81231508 -73.20059364 113.15607517 -71.625 112.5 C-70.8309375 112.16613281 -70.036875 111.83226562 -69.21875 111.48828125 C-68.45820313 111.17246094 -67.69765625 110.85664063 -66.9140625 110.53125 C-65.8614624 110.09135742 -65.8614624 110.09135742 -64.78759766 109.64257812 C-63 109 -63 109 -61 109 C-61 87.88 -61 66.76 -61 45 C-62.98 45.33 -64.96 45.66 -67 46 C-69.29083289 46.06522873 -71.58335794 46.0858841 -73.875 46.0625 C-75.02742188 46.05347656 -76.17984375 46.04445312 -77.3671875 46.03515625 C-78.23601562 46.02355469 -79.10484375 46.01195312 -80 46 C-80.33 44.35 -80.66 42.7 -81 41 C-80.38930664 40.6596875 -79.77861328 40.319375 -79.14941406 39.96875 C-67.27821871 33.3486989 -55.42791994 26.69555036 -43.63198853 19.94232178 C-41.87516557 18.93759469 -40.1168619 17.93550595 -38.3581543 16.93408203 C-32.64253801 13.67652281 -26.94941598 10.38687503 -21.29296875 7.02734375 C-20.24061035 6.41060791 -19.18825195 5.79387207 -18.10400391 5.15844727 C-16.12487785 3.99794672 -14.15394183 2.8233257 -12.19287109 1.63256836 C-11.3158252 1.12218018 -10.4387793 0.61179199 -9.53515625 0.0859375 C-8.775979 -0.3673291 -8.01680176 -0.8205957 -7.23461914 -1.28759766 C-4.21818664 -2.24924412 -2.75159241 -1.40322424 0 0 Z M-470 103 C-470 104.32 -470 105.64 -470 107 C-466.04 107 -462.08 107 -458 107 C-458.33 106.34 -458.66 105.68 -459 105 C-461.57951874 104.30906104 -461.57951874 104.30906104 -464.5625 103.875 C-465.57441406 103.70742187 -466.58632813 103.53984375 -467.62890625 103.3671875 C-468.41136719 103.24601562 -469.19382812 103.12484375 -470 103 Z M-444 112 C-444 128.83 -444 145.66 -444 163 C-433.93325864 162.96673877 -433.93325864 162.96673877 -430 160 C-427.3125 159.4375 -427.3125 159.4375 -424 160 C-420.44497219 162.5181447 -417.37090281 165.517394 -414.41796875 168.7109375 C-413.00621415 170.2428463 -413.00621415 170.2428463 -410.5 170.3125 C-407.75310083 170.15838815 -407.75310083 170.15838815 -405 168 C-400.34759994 168.24923572 -398.16440399 168.69175946 -395 172 C-392.37429296 172.25069913 -392.37429296 172.25069913 -390 172 C-385.37792111 179.60406526 -384.84562318 185.16621551 -385 194 C-384.21753906 194.18175781 -383.43507813 194.36351562 -382.62890625 194.55078125 C-381.61699219 194.80214844 -380.60507812 195.05351562 -379.5625 195.3125 C-378.55316406 195.55613281 -377.54382813 195.79976563 -376.50390625 196.05078125 C-375.67761719 196.36402344 -374.85132813 196.67726563 -374 197 C-373.67 197.99 -373.34 198.98 -373 200 C-368.91358743 199.26733512 -365.40525846 197.31342025 -361.75 195.4375 C-361.1003125 195.10814453 -360.450625 194.77878906 -359.78125 194.43945312 C-358.18565706 193.62992435 -356.59257517 192.81544958 -355 192 C-355 188.37 -355 184.74 -355 181 C-356.65 181 -358.3 181 -360 181 C-359.78540039 178.6496582 -359.78540039 178.6496582 -359 176 C-357.02905273 174.64135742 -357.02905273 174.64135742 -354.43359375 173.60546875 C-353.48105713 173.21149902 -352.52852051 172.8175293 -351.54711914 172.41162109 C-350.52094482 172.00766113 -349.49477051 171.60370117 -348.4375 171.1875 C-346.31890252 170.31199795 -344.20171644 169.43307292 -342.0859375 168.55078125 C-341.04405273 168.11975098 -340.00216797 167.6887207 -338.92871094 167.24462891 C-335.06090268 165.60090712 -331.30321517 163.78767553 -327.5625 161.875 C-326.93802979 161.55660156 -326.31355957 161.23820312 -325.67016602 160.91015625 C-324.4229605 160.2717116 -323.17661435 159.63158529 -321.93115234 158.98974609 C-318.42681525 157.19371795 -314.89920372 155.44412508 -311.375 153.6875 C-310.09105059 153.04576344 -308.80719148 152.40384618 -307.5234375 151.76171875 C-304.34895833 150.17447917 -301.17447917 148.58723958 -298 147 C-298 146.67 -298 146.34 -298 146 C-299.05872314 145.77449463 -300.11744629 145.54898926 -301.20825195 145.31665039 C-331.97756526 138.74380691 -362.50408021 131.80507883 -392.5 122.25 C-393.24188568 122.01374908 -393.98377136 121.77749817 -394.74813843 121.53408813 C-396.20678479 121.06927531 -397.66537871 120.6042979 -399.12391663 120.1391449 C-409.37036365 116.85964103 -409.37036365 116.85964103 -419.6875 113.8125 C-420.94949219 113.44769531 -422.21148437 113.08289063 -423.51171875 112.70703125 C-430.26197008 111.64367573 -437.16650763 112 -444 112 Z M-378 124 C-374 125 -374 125 -374 125 Z M-374 125 C-371.37741798 126.74838801 -370.01119035 127.40470648 -367.08056641 128.14160156 C-366.2925061 128.34249893 -365.5044458 128.5433963 -364.69250488 128.75038147 C-363.8374939 128.96166183 -362.98248291 129.1729422 -362.1015625 129.390625 C-360.75934631 129.72875465 -360.75934631 129.72875465 -359.39001465 130.07371521 C-356.47006843 130.80626715 -353.54780145 131.52893037 -350.625 132.25 C-349.63546326 132.49577789 -348.64592651 132.74155579 -347.62640381 132.99478149 C-335.16697338 136.08582492 -322.69300087 139.06964913 -310.125 141.6875 C-308.96436035 141.93081055 -307.8037207 142.17412109 -306.60791016 142.42480469 C-301.66719931 143.41967909 -297.06567726 144.33218283 -292 144 C-291.34 143.34 -290.68 142.68 -290 142 C-299.62222555 139.9258825 -309.24547797 137.85660408 -318.87004757 135.79338932 C-323.33973697 134.83506742 -327.80906439 133.87512191 -332.27758789 132.91137695 C-336.59504538 131.98027703 -340.91342257 131.05355834 -345.2324543 130.12978935 C-346.87488419 129.77771272 -348.51698453 129.42409488 -350.15873528 129.06886482 C-361.99256768 126.50381787 -361.99256768 126.50381787 -374 125 Z M-184 141 C-184 146.94 -184 152.88 -184 159 C-182.02 159.33 -180.04 159.66 -178 160 C-178 153.73 -178 147.46 -178 141 C-179.98 141 -181.96 141 -184 141 Z M-387 239 C-388.98 239.66 -390.96 240.32 -393 241 C-389.86650268 242.04449911 -389.01031744 241.93423645 -386 241 C-386.33 240.34 -386.66 239.68 -387 239 Z M-444 247 C-443 251 -443 251 -443 251 Z M-440 247 C-440 247.99 -440 248.98 -440 250 C-439.34 250 -438.68 250 -438 250 C-438.33 249.01 -438.66 248.02 -439 247 C-439.33 247 -439.66 247 -440 247 Z M-466 249 C-466 249.66 -466 250.32 -466 251 C-465.34 250.67 -464.68 250.34 -464 250 C-464.66 249.67 -465.32 249.34 -466 249 Z " fill="#0D0B08" transform="translate(497,64)"/>
<path d="M0 0 C2.46466213 1.19149358 4.67887759 2.5315348 7 4 C7 7.63 7 11.26 7 15 C7.9489917 14.80075928 8.8979834 14.60151855 9.87573242 14.39624023 C14.76164282 13.70878045 19.19645456 14.69242829 23.98828125 15.66015625 C24.96314987 15.84710556 25.93801849 16.03405487 26.94242859 16.22666931 C30.06794171 16.82804984 33.19022636 17.44454243 36.3125 18.0625 C38.30512465 18.45096854 40.29796232 18.83834607 42.29101562 19.22460938 C43.23658608 19.40790833 44.18215654 19.59120729 45.15638065 19.78006077 C48.31535852 20.38887502 51.4761959 20.98711369 54.63731384 21.58470154 C59.55482853 22.51780907 64.45554107 23.510911 69.35438538 24.53712463 C90.79996025 28.86226039 111.5342111 29.88639883 133.37148142 29.81029272 C137.98917213 29.80070221 142.60669823 29.82555205 147.22433472 29.84622192 C155.90726825 29.8801248 164.58993692 29.88456608 173.27292335 29.87749684 C183.18412098 29.87093164 193.09513953 29.89861964 203.00628304 29.92869925 C223.3375432 29.989661 243.66865806 30.00918582 264 30 C264 30.66 264 31.32 264 32 C242.02085615 33.19229248 220.02740202 33.31531572 198.02215576 33.53222656 C192.93271013 33.58320839 187.84331115 33.63848668 182.75390625 33.69335938 C172.83597769 33.79968086 162.91800797 33.90138454 153 34 C153 36.64 153 39.28 153 42 C153.54825439 42.0501123 154.09650879 42.10022461 154.66137695 42.15185547 C157.21224054 42.38791272 159.7623427 42.63143544 162.3125 42.875 C163.17423828 42.95363281 164.03597656 43.03226562 164.92382812 43.11328125 C170.39944539 43.64252307 175.75420566 44.44816571 181.15795898 45.47363281 C186.21185999 46.40965296 191.29414908 47.16385986 196.375 47.9375 C197.51130859 48.11152344 198.64761719 48.28554688 199.81835938 48.46484375 C207.55396599 49.64360285 215.2959033 50.76903986 223.04467773 51.85742188 C229.85276843 52.81962345 236.64468716 53.87338654 243.4375 54.9375 C254.49930771 56.6672341 265.58234198 58.1830379 276.68725586 59.60522461 C283.01349649 60.42477499 289.27700787 61.37461109 295.54516602 62.55810547 C299.0200935 63.18362698 302.4919643 63.59743853 306 64 C310.34122494 64.49817335 314.60203688 65.09411286 318.89453125 65.91015625 C323.71024183 66.80693198 328.5342176 67.52414568 333.38671875 68.18359375 C334.13857452 68.28580231 334.8904303 68.38801086 335.66506958 68.49331665 C338.78171594 68.91471137 341.89881793 69.33257941 345.01635742 69.74731445 C353.83547358 70.92437336 362.58360764 72.24108384 371.3177948 73.94122314 C377.51637249 75.13412409 383.73276823 75.9560565 390 76.6875 C391.60875 76.88182617 391.60875 76.88182617 393.25 77.08007812 C395.8328128 77.39139931 398.41607845 77.69804624 401 78 C401 77.01 401 76.02 401 75 C400.27522461 74.91959473 399.55044922 74.83918945 398.80371094 74.75634766 C395.45209073 74.38258282 392.10105306 74.00381469 388.75 73.625 C387.04070312 73.43550781 387.04070312 73.43550781 385.296875 73.2421875 C378.75361565 72.4986353 372.27225489 71.59427278 365.78320312 70.47314453 C361.6586344 69.77196785 357.5188388 69.19892272 353.375 68.625 C345.21938572 67.47773161 337.07651654 66.25950311 328.9375 65 C327.27714722 64.74307373 327.27714722 64.74307373 325.58325195 64.48095703 C324.49101318 64.31192871 323.39877441 64.14290039 322.2734375 63.96875 C314.41942201 62.75350191 306.56058583 61.57178305 298.69970703 60.40185547 C296.78915929 60.11746755 294.87868467 59.83258829 292.96826172 59.54736328 C289.64565505 59.05141426 286.32287802 58.5566277 283 58.0625 C281.31124756 57.81137451 281.31124756 57.81137451 279.58837891 57.55517578 C273.52917213 56.65805399 267.46783608 55.77943165 261.40234375 54.92578125 C259.5296582 54.66172485 259.5296582 54.66172485 257.61914062 54.39233398 C255.2340908 54.05719336 252.84869297 53.72451634 250.46289062 53.39477539 C244.69196041 52.5840363 238.99903433 51.62831815 233.29418945 50.44189453 C229.75791546 49.7607563 226.20510212 49.37035539 222.625 49 C217.98965723 48.51490599 213.40272752 47.91924639 208.80859375 47.12890625 C203.1340251 46.16071214 197.44580976 45.3305028 191.74609375 44.52734375 C190.83126221 44.39824615 189.91643066 44.26914856 188.97387695 44.13613892 C185.15338795 43.59820365 181.33260013 43.06244806 177.51147461 42.52905273 C174.6934998 42.13508114 171.87602528 41.73767913 169.05859375 41.33984375 C168.19302353 41.22003647 167.32745331 41.10022919 166.43565369 40.97679138 C165.633741 40.86319778 164.83182831 40.74960419 164.00561523 40.63256836 C163.30234604 40.53423203 162.59907684 40.43589569 161.87449646 40.33457947 C160 40 160 40 157 39 C157 38.34 157 37.68 157 37 C164.59261846 36.70571246 171.85845017 37.70909071 179.34521484 38.85031128 C183.23947363 39.44252204 187.13719908 40.01084361 191.03515625 40.578125 C191.85170685 40.69711655 192.66825745 40.81610809 193.509552 40.93870544 C202.49036316 42.23505732 211.49323768 43.33907646 220.5 44.4375 C235.42643641 46.26325528 250.31940343 48.27289639 265.20800781 50.38397217 C279.12554599 52.3543887 293.05635468 54.16128277 307.00830078 55.86962891 C319.23176706 57.36916194 331.4240472 59.01957209 343.60821533 60.80975342 C352.36029807 62.09398092 361.11743172 63.28491564 369.8984375 64.35546875 C370.81477966 64.46750641 371.73112183 64.57954407 372.67523193 64.69497681 C377.15535762 65.24076459 381.63639213 65.77698298 386.11914062 66.30078125 C387.74350878 66.495934 389.36785869 66.69123878 390.9921875 66.88671875 C392.09909439 67.01145821 392.09909439 67.01145821 393.22836304 67.13871765 C397.10707073 67.61175499 400.45079553 68.34847152 404 70 C404.33 72.97 404.66 75.94 405 79 C404.01 79 403.02 79 402 79 C402.01474869 79.58530487 402.02949738 80.17060974 402.04469299 80.77365112 C402.20505948 87.23781566 402.34746029 93.70224391 402.48217773 100.16699219 C402.53347849 102.53524716 402.58844724 104.90342741 402.64819336 107.27148438 C403.37177272 136.21465865 402.49977925 165.01280323 402 194 C239.97 194 77.94 194 -89 194 C-89 175.19 -89 156.38 -89 137 C-87 136 -87 136 -83.90209961 135.63330078 C-79.46657506 134.9134265 -75.71299386 133.54270838 -71.56640625 131.8671875 C-70.77080795 131.55226349 -69.97520966 131.23733948 -69.15550232 130.91287231 C-67.47406651 130.24563213 -65.79407902 129.57473191 -64.11547852 128.90039062 C-61.60417793 127.89173973 -59.08875605 126.89405909 -56.57226562 125.8984375 C-48.69471285 122.76945178 -40.85264249 119.56380951 -33.07421875 116.1953125 C-32.42634903 115.91702606 -31.77847931 115.63873962 -31.11097717 115.35202026 C-24.69027561 112.53628561 -17.8107244 108.93296466 -14.62890625 102.3125 C-11.14085042 89.48685371 -15.45363208 75.3764493 -18.18652344 62.81396484 C-19.10135188 58.52481422 -19.96704261 54.2275222 -20.8203125 49.92578125 C-20.97493454 49.14635666 -21.12955658 48.36693207 -21.28886414 47.56388855 C-21.60106226 45.98832321 -21.91304892 44.41271595 -22.224823 42.83706665 C-22.96279631 39.10942768 -23.70445858 35.38253865 -24.44921875 31.65625 C-24.5851796 30.97335907 -24.72114044 30.29046814 -24.86122131 29.58688354 C-25.59060791 25.94771446 -26.37379192 22.32785478 -27.22265625 18.71484375 C-28.05511273 14.73662207 -27.9637296 11.9352292 -27 8 C-26.34 7.34 -25.68 6.68 -25 6 C-22.1796875 6.0234375 -22.1796875 6.0234375 -18.875 6.375 C-17.77929688 6.48585938 -16.68359375 6.59671875 -15.5546875 6.7109375 C-14.71164063 6.80632812 -13.86859375 6.90171875 -13 7 C-12.81824219 5.82050781 -12.81824219 5.82050781 -12.6328125 4.6171875 C-12 2 -12 2 -9.875 0.125 C-6.05224866 -1.37085922 -3.96327074 -1.02498381 0 0 Z " fill="#868482" transform="translate(92,302)"/>
<path d="M0 0 C0 8.25 0 16.5 0 25 C2.84625 23.7625 2.84625 23.7625 5.75 22.5 C9.59461608 20.82842779 11.75719508 20 16 20 C16 98.87 16 177.74 16 259 C7 259 7 259 -8 257 C-8 240.17 -8 223.34 -8 206 C-16.58 206 -25.16 206 -34 206 C-34 221.84 -34 237.68 -34 254 C-35.65 254 -37.3 254 -39 254 C-39 176.78 -39 99.56 -39 20 C-37.35 19.34 -35.7 18.68 -34 18 C-34 24.93 -34 31.86 -34 39 C-32.21851563 38.278125 -30.43703125 37.55625 -28.6015625 36.8125 C-26.2761145 35.87481935 -23.95058969 34.93732918 -21.625 34 C-20.449375 33.52304688 -19.27375 33.04609375 -18.0625 32.5546875 C-16.94101562 32.10351562 -15.81953125 31.65234375 -14.6640625 31.1875 C-13.10872803 30.55908203 -13.10872803 30.55908203 -11.52197266 29.91796875 C-9 29 -9 29 -7 29 C-7 20.42 -7 11.84 -7 3 C-1 0 -1 0 0 0 Z " fill="#C4E1E7" transform="translate(480,87)"/>
<path d="M0 0 C31.03614739 0 31.03614739 0 42.98046875 0.21875 C44.15242798 0.2384082 45.32438721 0.25806641 46.53186035 0.27832031 C50.75044973 0.3497264 54.96897193 0.42505946 59.1875 0.5 C68.695625 0.665 78.20375 0.83 88 1 C88 29.38 88 57.76 88 87 C58.96 87 29.92 87 0 87 C0 58.29 0 29.58 0 0 Z " fill="#F8E3B5" transform="translate(256,241)"/>
<path d="M0 0 C0.66 0 1.32 0 2 0 C2 3.3 2 6.6 2 10 C3.98440482 9.24275352 5.96243005 8.46877038 7.9375 7.6875 C9.03964844 7.25824219 10.14179688 6.82898438 11.27734375 6.38671875 C14.30860265 5.24391139 14.30860265 5.24391139 15 2 C16.64630328 2.14042877 18.29204179 2.28749329 19.9375 2.4375 C21.31228516 2.55931641 21.31228516 2.55931641 22.71484375 2.68359375 C25 3 25 3 26 4 C26.08713831 5.70772358 26.10700007 7.41898649 26.09765625 9.12890625 C26.09282227 10.68061523 26.09282227 10.68061523 26.08789062 12.26367188 C26.07532227 13.8965918 26.07532227 13.8965918 26.0625 15.5625 C26.05798828 16.65498047 26.05347656 17.74746094 26.04882812 18.87304688 C26.03699826 21.58208495 26.02051543 24.29101599 26 27 C24.68 27.33 23.36 27.66 22 28 C22 29.32 22 30.64 22 32 C23.12277344 31.79503906 24.24554688 31.59007812 25.40234375 31.37890625 C26.91403429 31.10661417 28.42575466 30.83448766 29.9375 30.5625 C30.67291016 30.42779297 31.40832031 30.29308594 32.16601562 30.15429688 C33.27299805 29.95610352 33.27299805 29.95610352 34.40234375 29.75390625 C35.06741943 29.63345947 35.73249512 29.5130127 36.41772461 29.38891602 C40.26277843 28.80981318 44.13536403 28.429404 48 28 C48 56.38 48 84.76 48 114 C46.02 114 44.04 114 42 114 C42 105.42 42 96.84 42 88 C37.71 88 33.42 88 29 88 C29 95.92 29 103.84 29 112 C25.04 111.67 21.08 111.34 17 111 C17 103.08 17 95.16 17 87 C12.71 87 8.42 87 4 87 C4 94.26 4 101.52 4 109 C-0.1146875 108.5359375 -0.1146875 108.5359375 -4.3125 108.0625 C-11.20162771 107.29136155 -18.0915674 106.57823885 -25 106 C-25 104.02 -25 102.04 -25 100 C-24.38511719 99.80664062 -23.77023438 99.61328125 -23.13671875 99.4140625 C-21.92435547 99.02347656 -21.92435547 99.02347656 -20.6875 98.625 C-19.88699219 98.36976563 -19.08648437 98.11453125 -18.26171875 97.8515625 C-15.77275472 97.01168189 -15.77275472 97.01168189 -13 95 C-12.55780242 91.97940309 -12.55780242 91.97940309 -12.6875 88.5625 C-12.69330078 86.83193359 -12.69330078 86.83193359 -12.69921875 85.06640625 C-12.77381283 81.82921982 -12.77381283 81.82921982 -15 79 C-14.67 78.67 -14.34 78.34 -14 78 C-13.13149218 72.0445178 -14.81743149 68.89619486 -18.27734375 64.0703125 C-19.81866031 62.21793658 -21.30981977 60.74649703 -23.1875 59.25 C-25.97853306 57.01717355 -27.38070122 55.14863651 -29 52 C-26.36 51.34 -23.72 50.68 -21 50 C-20.67 45.71 -20.34 41.42 -20 37 C-21.093125 37.495 -22.18625 37.99 -23.3125 38.5 C-27 40 -27 40 -30 40 C-29.93039063 40.87140625 -29.86078125 41.7428125 -29.7890625 42.640625 C-29.36451508 51.98066832 -31.11428091 58.06070647 -36 66 C-39 65 -39 65 -41 62 C-45.41522109 63.26974972 -45.41522109 63.26974972 -49 66 C-51.97 66 -54.94 66 -58 66 C-58 53.46 -58 40.92 -58 28 C-44 22 -44 22 -41 22 C-41 27.94 -41 33.88 -41 40 C-39.62585938 39.43410156 -38.25171875 38.86820313 -36.8359375 38.28515625 C-35.01575626 37.54394842 -33.19543642 36.80308088 -31.375 36.0625 C-30.47136719 35.68931641 -29.56773437 35.31613281 -28.63671875 34.93164062 C-27.75371094 34.57392578 -26.87070313 34.21621094 -25.9609375 33.84765625 C-25.15446777 33.51773682 -24.34799805 33.18781738 -23.51708984 32.84790039 C-21 32 -21 32 -15 31 C-15.33 23.41 -15.66 15.82 -16 8 C-15.34 8 -14.68 8 -14 8 C-14 10.64 -14 13.28 -14 16 C-13.31292969 15.71125 -12.62585938 15.4225 -11.91796875 15.125 C-11.01691406 14.75375 -10.11585938 14.3825 -9.1875 14 C-8.29417969 13.62875 -7.40085938 13.2575 -6.48046875 12.875 C-4 12 -4 12 -1 12 C-1.01160156 11.21753906 -1.02320313 10.43507812 -1.03515625 9.62890625 C-1.04417969 8.61699219 -1.05320313 7.60507813 -1.0625 6.5625 C-1.07410156 5.55316406 -1.08570313 4.54382813 -1.09765625 3.50390625 C-1 1 -1 1 0 0 Z " fill="#F8E3B5" transform="translate(204,212)"/>
<path d="M0 0 C0.66 0.33 1.32 0.66 2 1 C2.69848633 3.48657227 2.69848633 3.48657227 3.33203125 6.81640625 C3.57066895 8.04359375 3.80930664 9.27078125 4.05517578 10.53515625 C4.30768573 11.87759128 4.56012547 13.22003951 4.8125 14.5625 C5.21059035 16.62855877 5.61167102 18.69402364 6.01281738 20.75949097 C6.28393789 22.15685619 6.5540313 23.55442107 6.82312012 24.95217896 C8.01831347 31.15035709 9.31264436 37.32563498 10.625 43.5 C12.26539495 51.3188216 13.84114925 59.14750811 15.3125 67 C15.48410645 67.89009766 15.65571289 68.78019531 15.83251953 69.69726562 C17.20634298 77.18668061 18.3224528 84.24273867 14.4296875 91.12890625 C5.81104945 102.40848992 -14.22933276 107.43896803 -27.12792969 112.3996582 C-29.5279012 113.32323719 -31.92424971 114.25578635 -34.3203125 115.18945312 C-35.86958937 115.78958499 -37.41906147 116.38921318 -38.96875 116.98828125 C-39.67302124 117.26223221 -40.37729248 117.53618317 -41.10290527 117.81843567 C-42.11060974 118.2047541 -42.11060974 118.2047541 -43.13867188 118.59887695 C-43.71742065 118.82203079 -44.29616943 119.04518463 -44.89245605 119.27510071 C-47.8936081 120.30736056 -50.94453992 121.14446832 -54 122 C-54.3957293 112.42965353 -54.69681226 102.86216041 -54.88080692 93.28538895 C-54.96917335 88.83687729 -55.08871605 84.39399819 -55.2824707 79.94873047 C-56.50061495 51.26532571 -56.50061495 51.26532571 -52.38934326 44.25268555 C-48.5870909 40.18060638 -44.28071751 37.91941031 -39.15074158 35.89457703 C-35.68538675 34.45320125 -32.5809084 32.76149332 -30 30 C-28.95707135 26.74947998 -28.95707135 26.74947998 -29.09765625 23.16796875 C-29.07509766 21.87568359 -29.05253906 20.58339844 -29.02929688 19.25195312 C-29.03961653 17.89712951 -29.05069372 16.54231147 -29.0625 15.1875 C-29.04938288 13.81311726 -29.03313891 12.43876059 -29.01367188 11.06445312 C-28.97834726 7.70861507 -28.97493983 4.35584181 -29 1 C-22.25 1.875 -22.25 1.875 -20 3 C-20 13.89 -20 24.78 -20 36 C-15.38 36 -10.76 36 -6 36 C-6 24.45 -6 12.9 -6 1 C-5.67 1 -5.34 1 -5 1 C-5 3.31 -5 5.62 -5 8 C-4.01 8 -3.02 8 -2 8 C1.03765085 24.56900464 3.23573907 41.25239898 5 58 C5.19094238 59.66748291 5.19094238 59.66748291 5.38574219 61.36865234 C6.98177119 76.48779192 6.98177119 76.48779192 2.8984375 81.6640625 C0.11957892 83.50441475 -2.5970344 84.84412008 -5.69628906 86.05859375 C-8.36281144 87.14826207 -10.91419122 88.40248435 -13.4921875 89.6875 C-23.05419326 94.4331997 -32.70663165 98.88994652 -42.6484375 102.78125 C-45.32834014 103.8237338 -45.32834014 103.8237338 -46 107 C-34.44029395 102.19989243 -23.00043399 97.17006339 -11.6875 91.8125 C-10.64537354 91.32620117 -9.60324707 90.83990234 -8.52954102 90.33886719 C0.46702381 86.22937435 0.46702381 86.22937435 8 80 C8.79655694 76.87452658 8.96910098 75.2189508 8.75 72.125 C8.72131836 71.32400879 8.69263672 70.52301758 8.66308594 69.69775391 C7.69749081 50.28213923 4.45738023 30.75744794 1.21972656 11.61474609 C1.05956055 10.66422363 0.89939453 9.71370117 0.734375 8.734375 C0.52119629 7.50025879 0.52119629 7.50025879 0.30371094 6.24121094 C0 4 0 4 0 0 Z " fill="#DBDCDC" transform="translate(59,314)"/>
<path d="M0 0 C0.614687 11.00948323 1.18115526 21.96965735 1 33 C-0.41538717 33.33872513 -1.83237963 33.67074624 -3.25 34 C-4.03890625 34.185625 -4.8278125 34.37125 -5.640625 34.5625 C-8 35 -8 35 -12 35 C-12 42.26 -12 49.52 -12 57 C-7.38 56.67 -2.76 56.34 2 56 C2.67324226 82.33881294 3.15819294 108.65208697 3 135 C-3.27 134.67 -9.54 134.34 -16 134 C-16 120.8 -16 107.6 -16 94 C-20.62 94 -25.24 94 -30 94 C-30 106.54 -30 119.08 -30 132 C-30.99 132 -31.98 132 -33 132 C-33 99 -33 66 -33 32 C-32.01 32 -31.02 32 -30 32 C-29.67 30.02 -29.34 28.04 -29 26 C-30.32 26 -31.64 26 -33 26 C-33 20.06 -33 14.12 -33 8 C-25.48097173 5.55194428 -18.02850879 3.45641013 -10.3125 1.75 C-9.52246582 1.57500977 -8.73243164 1.40001953 -7.91845703 1.21972656 C-2.28243681 0 -2.28243681 0 0 0 Z " fill="#C4E1E7" transform="translate(408,202)"/>
<path d="M0 0 C5.62434964 5.62434964 5.62434964 5.62434964 7.90234375 8.70703125 C8.40056641 9.37669922 8.89878906 10.04636719 9.41210938 10.73632812 C9.91548828 11.42146484 10.41886719 12.10660156 10.9375 12.8125 C11.43701172 13.48603516 11.93652344 14.15957031 12.45117188 14.85351562 C13.40158858 16.13504524 14.35033163 17.41781956 15.29663086 18.70239258 C16.89161564 20.93497514 16.89161564 20.93497514 18.44541359 22.58446407 C23.30721804 28.24870854 23.91369301 32.77583934 23.95092773 40.09082031 C23.97911087 41.17486649 24.00729401 42.25891266 24.03633118 43.37580872 C24.11850845 46.94351672 24.15482353 50.50960961 24.18359375 54.078125 C24.21559819 56.57143335 24.24775076 59.06473981 24.28004456 61.55804443 C24.33846034 66.77983474 24.36960859 72.00106568 24.38647461 77.22314453 C24.40929808 83.8948329 24.54755948 90.558878 24.70710659 97.22880936 C24.81168908 102.3782188 24.8394262 107.52603327 24.84654427 112.67641449 C24.86278908 115.13417082 24.90712228 117.59191675 24.98080254 120.04862213 C25.50025604 138.74583018 25.50025604 138.74583018 21.30546951 144.20549011 C17.2853429 147.96214997 12.80756951 150.62744323 7.88586617 153.04009247 C5.73123517 154.13680153 3.91545034 155.53412366 2 157 C1.34 157 0.68 157 0 157 C0 105.19 0 53.38 0 0 Z " fill="#E89D7A" transform="translate(4,200)"/>
<path d="M0 0 C3.42293104 1.53682618 4.62775144 3.0191777 7 5.875 C9.6952693 9.10520824 10.66759789 10.24113488 14.75 11.625 C18.37036027 11.35176526 20.19173148 10.54982464 23.0625 8.375 C27.9375 11 27.9375 11 29.0625 14.375 C31.0425 14.045 33.0225 13.715 35.0625 13.375 C39.04367187 19.11257122 39.19665773 24.59453185 38.0625 31.375 C36.29479958 34.83218401 34.26347958 37.1770353 31.0625 39.375 C27.1875 40.3125 27.1875 40.3125 24.0625 40.375 C23.7325 40.705 23.4025 41.035 23.0625 41.375 C21.35083903 41.30985027 19.64176111 41.17181924 17.9375 41 C16.94878906 40.90074219 15.96007812 40.80148437 14.94140625 40.69921875 C11.63416651 40.32676163 8.35090297 39.88652935 5.0625 39.375 C5.7225 40.365 6.3825 41.355 7.0625 42.375 C7.0625 43.365 7.0625 44.355 7.0625 45.375 C4.4225 45.375 1.7825 45.375 -0.9375 45.375 C-1.83852126 50.11687099 -2.44795549 54.55757635 -1.9375 59.375 C0.18447485 61.67665821 2.35242612 62.97304049 5.01953125 64.58984375 C7.0625 66.375 7.0625 66.375 7.69921875 69.12890625 C7.68344558 73.16157943 7.33992269 76.54273194 6.0625 80.375 C5.30324219 80.32859375 4.54398438 80.2821875 3.76171875 80.234375 C2.76785156 80.19828125 1.77398437 80.1621875 0.75 80.125 C-0.23613281 80.07859375 -1.22226563 80.0321875 -2.23828125 79.984375 C-5.08153694 80.10596572 -5.08153694 80.10596572 -6.79296875 82.390625 C-7.35951172 83.37289062 -7.35951172 83.37289062 -7.9375 84.375 C-9.5875 83.715 -11.2375 83.055 -12.9375 82.375 C-12.9375 81.385 -12.9375 80.395 -12.9375 79.375 C-13.9275 79.375 -14.9175 79.375 -15.9375 79.375 C-16.2675 81.355 -16.5975 83.335 -16.9375 85.375 C-17.2675 85.375 -17.5975 85.375 -17.9375 85.375 C-17.9375 58.975 -17.9375 32.575 -17.9375 5.375 C-15.2975 5.375 -12.6575 5.375 -9.9375 5.375 C-7.81834791 4.35358081 -7.81834791 4.35358081 -6.3125 2.8125 C-3.91105478 0.93145826 -3.13365391 0.40004093 0 0 Z " fill="#61AD25" transform="translate(70.9375,225.625)"/>
<path d="M0 0 C34 1 34 1 46 2 C46 13.55 46 25.1 46 37 C33.13359899 42.84836409 33.13359899 42.84836409 26.9375 45.3125 C26.28845703 45.57611328 25.63941406 45.83972656 24.97070312 46.11132812 C20.24657062 48 20.24657062 48 18 48 C18 45.03 18 42.06 18 39 C14.04 39 10.08 39 6 39 C6 42.96 6 46.92 6 51 C8.784375 50.6596875 8.784375 50.6596875 11.625 50.3125 C19.1012612 49.71275597 25.82534787 50.90566513 33 53 C34 54 34 54 34.09765625 57.59765625 C34.0909822 59.08596867 34.07902183 60.57426432 34.0625 62.0625 C34.05798828 62.82111328 34.05347656 63.57972656 34.04882812 64.36132812 C34.0370068 66.24091871 34.01907078 68.12046899 34 70 C33.34 70 32.68 70 32 70 C32 70.66 32 71.32 32 72 C31.01 72 30.02 72 29 72 C28.77213542 69.94921875 28.54427083 67.8984375 28.31640625 65.84765625 C28.18113386 63.98859771 28.18113386 63.98859771 27 63 C24.66702567 62.95907063 22.33294775 62.95758277 20 63 C19.67 65.97 19.34 68.94 19 72 C12.73 71.34 6.46 70.68 0 70 C0 46.9 0 23.8 0 0 Z " fill="#DCDCDC" transform="translate(337,158)"/>
<path d="M0 0 C26.4 0 52.8 0 80 0 C80 0.66 80 1.32 80 2 C83.3 2 86.6 2 90 2 C90 1.34 90 0.68 90 0 C105.17373669 -0.53554365 119.95647265 1.1107661 135 3 C135.06058594 3.85464844 135.12117187 4.70929688 135.18359375 5.58984375 C135.26738281 6.69457031 135.35117187 7.79929687 135.4375 8.9375 C135.51871094 10.03964844 135.59992188 11.14179688 135.68359375 12.27734375 C135.70418084 14.91109903 135.70418084 14.91109903 137 16 C140 16.16666667 140 16.16666667 143 16 C144.66342837 14.33657163 144.36048097 12.2174291 144.5625 9.9375 C144.70833333 8.29166667 144.85416667 6.64583333 145 5 C154.8256591 4.69050241 164.39142553 5.65992261 174.125 6.8125 C175.71128022 6.99575503 177.29762552 7.17844743 178.8840332 7.3605957 C182.06745452 7.72697722 185.25041741 8.09703196 188.43310547 8.46972656 C192.65291222 8.96227989 196.87474223 9.43326825 201.09765625 9.8984375 C203.46094475 10.16139318 205.82422648 10.42440973 208.1875 10.6875 C209.27885254 10.80649658 210.37020508 10.92549316 211.49462891 11.0480957 C212.97261963 11.21571411 212.97261963 11.21571411 214.48046875 11.38671875 C215.76280396 11.52920044 215.76280396 11.52920044 217.07104492 11.67456055 C219 12 219 12 220 13 C220.07319621 15.69654854 220.09242537 18.36691458 220.0625 21.0625 C220.05798828 21.82111328 220.05347656 22.57972656 220.04882812 23.36132812 C220.0370068 25.24091871 220.01907078 27.12046899 220 29 C211.01344425 29.38790888 202.42161545 28.08552545 193.55908203 26.77929688 C188.76693372 26.07389264 183.97131299 25.39289767 179.17578125 24.7109375 C178.17616364 24.56839539 177.17654602 24.42585327 176.14663696 24.2789917 C165.27876576 22.73878678 154.39087768 21.3660523 143.5 20 C128.33687073 18.09343604 113.1938648 16.08158916 98.0625 13.9375 C83.44526244 11.86688312 68.81769842 9.93604563 54.16482544 8.13513184 C36.08839741 5.91310719 18.04262795 3.48022334 0 1 C0 0.67 0 0.34 0 0 Z " fill="#D8D9D9" transform="translate(276,338)"/>
<path d="M0 0 C5.08474941 1.42750505 10.19097528 2.69126191 15.33862305 3.87036133 C21.56685886 5.29732519 27.69602904 6.93627352 33.83081055 8.72973633 C38.40242574 10.04134318 42.99125647 11.27758291 47.58862305 12.49536133 C48.39025879 12.70990967 49.19189453 12.92445801 50.01782227 13.14550781 C54.19102655 14.24522133 58.31126232 15.18407956 62.58862305 15.80786133 C60.91332494 19.15845755 57.15456703 19.91259617 53.83862305 21.30786133 C53.1219043 21.61594727 52.40518555 21.9240332 51.66674805 22.24145508 C50.26616146 22.84133867 48.8618942 23.43271086 47.45385742 24.01489258 C45.96695092 24.64702246 44.51271677 25.35583844 43.07299805 26.08911133 C35.60185256 28.2505748 26.73660945 24.28722774 19.58862305 22.18286133 C18.35329834 21.82458252 17.11797363 21.46630371 15.84521484 21.09716797 C12.09117264 20.00694308 8.33962467 18.90849673 4.58862305 17.80786133 C1.49933353 16.90428019 -1.59015527 16.00138364 -4.6796875 15.09863281 C-6.62538948 14.52990918 -8.57086515 13.96041073 -10.51611328 13.39013672 C-18.91601627 10.93400424 -27.3435984 8.58182157 -35.77514648 6.23706055 C-43.02698348 4.21369703 -50.24018634 2.1032126 -57.41137695 -0.19213867 C-57.41137695 -1.84213867 -57.41137695 -3.49213867 -57.41137695 -5.19213867 C-36.93547249 -11.63058097 -20.11784162 -5.69589566 0 0 Z " fill="#0A0A0A" transform="translate(432.411376953125,421.192138671875)"/>
<path d="M0 0 C0.66 0 1.32 0 2 0 C3.52590151 1.92517392 4.92463859 3.85282018 6.3125 5.875 C6.74618896 6.48762695 7.17987793 7.10025391 7.62670898 7.73144531 C10.22419763 11.40418194 12.74734959 15.11886375 15.234375 18.8671875 C16.34353075 20.49494108 17.4529029 22.12254724 18.5625 23.75 C19.0675708 24.53616699 19.5726416 25.32233398 20.09301758 26.13232422 C20.59986084 26.86725098 21.1067041 27.60217773 21.62890625 28.359375 C22.06275635 29.01389648 22.49660645 29.66841797 22.94360352 30.34277344 C25.76673754 32.86870291 25.76673754 32.86870291 34 34 C34 73.27 34 112.54 34 153 C38.29 153 42.58 153 47 153 C47 153.33 47 153.66 47 154 C42.38 154 37.76 154 33 154 C33 143.11 33 132.22 33 121 C27.73786479 118.89459074 27.73786479 118.89459074 25 119 C25.10380981 120.207771 25.10380981 120.207771 25.2097168 121.43994141 C26.78831924 143.92657803 26.78831924 143.92657803 22.15234375 150.69921875 C17.73828237 154.97884171 12.65884755 158.08274655 7.18237305 160.83447266 C4.92215988 161.95157687 4.92215988 161.95157687 2.90551758 163.70849609 C2.27669678 164.13469238 1.64787598 164.56088867 1 165 C0.01 164.67 -0.98 164.34 -2 164 C-2 163.01 -2 162.02 -2 161 C-0.50292969 159.60546875 -0.50292969 159.60546875 1.578125 158.1875 C2.32707031 157.66929687 3.07601563 157.15109375 3.84765625 156.6171875 C4.64042969 156.08351563 5.43320313 155.54984375 6.25 155 C7.79709267 153.93781697 9.34397437 152.87532659 10.890625 151.8125 C11.58188477 151.34457031 12.27314453 150.87664062 12.98535156 150.39453125 C14.39945146 149.4156972 15.77974323 148.38706395 17.13183594 147.32421875 C19 146 19 146 21 146 C21.10338117 131.49100405 21.14819727 116.98281686 21.12697029 102.47344685 C21.11812984 95.7350785 21.12764124 88.99770354 21.18164062 82.25952148 C21.23191484 75.74915965 21.23303842 69.24042937 21.20095444 62.72997093 C21.19722076 60.25382139 21.21080779 57.7775796 21.24249649 55.30163002 C21.60458047 37.20218287 21.60458047 37.20218287 12.44760132 22.3394165 C11.63989288 21.56740906 10.83218445 20.79540161 10 20 C8.93624841 18.62744891 7.89523562 17.23595894 6.90625 15.80859375 C6.49632812 15.23689453 6.08640625 14.66519531 5.6640625 14.07617188 C5.08785156 13.2650293 5.08785156 13.2650293 4.5 12.4375 C4.08492187 11.86193359 3.66984375 11.28636719 3.2421875 10.69335938 C1.24259997 7.8907117 -0.58531035 5.14460905 -2 2 C-1.34 1.34 -0.68 0.68 0 0 Z " fill="#5B9D27" transform="translate(6,196)"/>
<path d="M0 0 C0 47.19 0 94.38 0 143 C-2.97 142.67 -5.94 142.34 -9 142 C-9.83508142 114.65996726 -10.1347707 87.35223202 -10 60 C-7.36 59.67 -4.72 59.34 -2 59 C-2 51.08 -2 43.16 -2 35 C-6.455 35.495 -6.455 35.495 -11 36 C-12.31191997 29.04785719 -12.11058058 22.11555097 -12.0625 15.0625 C-12.05798828 13.80630859 -12.05347656 12.55011719 -12.04882812 11.25585938 C-12.03709681 8.17052337 -12.020681 5.08528684 -12 2 C-7.69214025 0.64851459 -4.58042408 0 0 0 Z " fill="#C6E3E9" transform="translate(430,197)"/>
<path d="M0 0 C0.99 0 1.98 0 3 0 C3.495 1.485 3.495 1.485 4 3 C6.00016466 4.20882096 6.00016466 4.20882096 8 5 C8.66 3.68 9.32 2.36 10 1 C10.99 1 11.98 1 13 1 C13.99 1.99 13.99 1.99 15 3 C14.0409375 3.2784375 14.0409375 3.2784375 13.0625 3.5625 C10.68926759 4.88294081 10.68926759 4.88294081 10.24926758 7.93701172 C9.67921753 12.93674748 10.86510518 17.58293152 11.94921875 22.4453125 C12.16310745 23.45101288 12.37699615 24.45671326 12.59736633 25.4928894 C13.28295415 28.70610025 13.98457041 31.91554285 14.6875 35.125 C15.59128287 39.31423866 16.48924852 43.5047174 17.38671875 47.6953125 C17.60775269 48.72503174 17.82878662 49.75475098 18.05651855 50.81567383 C19.52829738 57.70169968 20.95002037 64.59546099 22.29296875 71.5078125 C22.45802414 72.34007355 22.62307953 73.17233459 22.7931366 74.02981567 C24.53430969 83.14843246 26.54879108 93.7635871 21.5625 102.125 C14.41906721 110.47700879 4.37675592 114.2612774 -5.5625 118.3125 C-6.93282045 118.87820421 -8.30301759 119.44420718 -9.6730957 120.01049805 C-18.29924593 123.55998442 -26.96770752 126.99942648 -35.6875 130.3125 C-36.67758057 130.69124268 -37.66766113 131.06998535 -38.68774414 131.46020508 C-39.59903076 131.79947021 -40.51031738 132.13873535 -41.44921875 132.48828125 C-42.63004028 132.92974487 -42.63004028 132.92974487 -43.8347168 133.38012695 C-46 134 -46 134 -50 134 C-50.33 133.01 -50.66 132.02 -51 131 C-49.62001831 130.47998413 -49.62001831 130.47998413 -48.2121582 129.94946289 C-9.99996778 119.13644591 -9.99996778 119.13644591 19 97 C21.2164359 90.3506923 19.75291852 83.51110508 18.4609375 76.796875 C18.29945724 75.92860077 18.13797699 75.06032654 17.97160339 74.16574097 C17.44702067 71.35899924 16.91148369 68.55448918 16.375 65.75 C16.0101202 63.81563301 15.64545676 61.88122519 15.28100586 59.94677734 C12.5881357 45.73394765 9.69358166 31.573272 6.53735352 17.45556641 C5.99470873 14.97582025 5.49036274 12.49056321 5 10 C6.37951448 20.96070827 7.77473672 31.909905 9.5625 42.8125 C11.01852314 51.85252924 12.26521395 60.87066599 13 70 C13.07476562 70.83192871 13.14953125 71.66385742 13.2265625 72.52099609 C13.43512892 75.07641755 13.57115313 77.62637396 13.6875 80.1875 C13.75541748 80.96544922 13.82333496 81.74339844 13.89331055 82.54492188 C13.97912167 85.99535342 13.71896461 88.12810614 11.48608398 90.8359375 C5.35777554 95.97716009 -2.06977099 99.27964144 -9.2644043 102.66210938 C-11.30335498 103.62070056 -13.33474279 104.5939495 -15.36523438 105.5703125 C-37.16346008 116 -37.16346008 116 -42 116 C-42.33 115.01 -42.66 114.02 -43 113 C-42.02353516 112.56244385 -41.04707031 112.1248877 -40.04101562 111.67407227 C-36.33233822 110.00976501 -32.62824613 108.33544698 -28.92529297 106.65844727 C-27.33826373 105.94129665 -25.75008843 105.22667548 -24.16064453 104.51489258 C-13.09288588 99.55577969 -2.46826024 94.12651523 8 88 C8.42344949 72.87344327 7.20226677 58.45521424 5 43.5 C4.56827292 40.48322254 4.14065682 37.46590972 3.71606445 34.44812012 C3.45396244 32.59429934 3.18714182 30.74113735 2.91479492 28.88879395 C2.33849772 24.89355849 1.82518036 21.0499883 2 17 C1.01 17 0.02 17 -1 17 C-1.02691685 14.54159395 -1.04679802 12.08348118 -1.0625 9.625 C-1.07087891 8.92632812 -1.07925781 8.22765625 -1.08789062 7.5078125 C-1.11328125 2.2265625 -1.11328125 2.2265625 0 0 Z M2 6 C2 6.99 2 7.98 2 9 C2.66 9 3.32 9 4 9 C3.67 8.01 3.34 7.02 3 6 C2.67 6 2.34 6 2 6 Z " fill="#0D0E0D" transform="translate(55,305)"/>
<path d="M0 0 C7.59261846 -0.29428754 14.85845017 0.70909071 22.34521484 1.85031128 C26.23947363 2.44252204 30.13719908 3.01084361 34.03515625 3.578125 C34.85170685 3.69711655 35.66825745 3.81610809 36.509552 3.93870544 C45.49036316 5.23505732 54.49323768 6.33907646 63.5 7.4375 C78.42643641 9.26325528 93.31940343 11.27289639 108.20800781 13.38397217 C122.12554599 15.3543887 136.05635468 17.16128277 150.00830078 18.86962891 C162.23176706 20.36916194 174.4240472 22.01957209 186.60821533 23.80975342 C195.36029807 25.09398092 204.11743172 26.28491564 212.8984375 27.35546875 C213.81477966 27.46750641 214.73112183 27.57954407 215.67523193 27.69497681 C220.15535762 28.24076459 224.63639213 28.77698298 229.11914062 29.30078125 C230.74350878 29.495934 232.36785869 29.69123878 233.9921875 29.88671875 C234.73012543 29.96987839 235.46806335 30.05303802 236.22836304 30.13871765 C240.10707073 30.61175499 243.45079553 31.34847152 247 33 C247.33 35.97 247.66 38.94 248 42 C247.01 42 246.02 42 245 42 C245 40.68 245 39.36 245 38 C244.24493164 37.91959473 243.48986328 37.83918945 242.71191406 37.75634766 C239.22421061 37.38285543 235.73711397 37.00395491 232.25 36.625 C231.06277344 36.49867188 229.87554687 36.37234375 228.65234375 36.2421875 C221.98075525 35.51305214 215.37793536 34.62087148 208.765625 33.47314453 C204.64741531 32.76859912 200.51316538 32.19813695 196.375 31.625 C188.21938572 30.47773161 180.07651654 29.25950311 171.9375 28 C170.27714722 27.74307373 170.27714722 27.74307373 168.58325195 27.48095703 C167.49101318 27.31192871 166.39877441 27.14290039 165.2734375 26.96875 C157.41942201 25.75350191 149.56058583 24.57178305 141.69970703 23.40185547 C139.78915929 23.11746755 137.87868467 22.83258829 135.96826172 22.54736328 C132.64565505 22.05141426 129.32287802 21.5566277 126 21.0625 C124.87416504 20.89508301 123.74833008 20.72766602 122.58837891 20.55517578 C116.52917213 19.65805399 110.46783608 18.77943165 104.40234375 17.92578125 C103.15388672 17.74974365 101.90542969 17.57370605 100.61914062 17.39233398 C98.2340908 17.05719336 95.84869297 16.72451634 93.46289062 16.39477539 C87.69196041 15.5840363 81.99903433 14.62831815 76.29418945 13.44189453 C72.75791546 12.7607563 69.20510212 12.37035539 65.625 12 C60.98965723 11.51490599 56.40272752 10.91924639 51.80859375 10.12890625 C46.1340251 9.16071214 40.44580976 8.3305028 34.74609375 7.52734375 C33.83126221 7.39824615 32.91643066 7.26914856 31.97387695 7.13613892 C28.15338795 6.59820365 24.33260013 6.06244806 20.51147461 5.52905273 C17.6934998 5.13508114 14.87602528 4.73767913 12.05859375 4.33984375 C10.76023842 4.16013283 10.76023842 4.16013283 9.43565369 3.97679138 C8.633741 3.86319778 7.83182831 3.74960419 7.00561523 3.63256836 C6.30234604 3.53423203 5.59907684 3.43589569 4.87449646 3.33457947 C3 3 3 3 0 2 C0 1.34 0 0.68 0 0 Z " fill="#CECECF" transform="translate(249,339)"/>
<path d="M0 0 C2.97 0.495 2.97 0.495 6 1 C6 58.75 6 116.5 6 176 C4.02 176 2.04 176 0 176 C0 117.92 0 59.84 0 0 Z " fill="#CB8732" transform="translate(43,170)"/>
<path d="M0 0 C2.0859375 0.30859375 2.0859375 0.30859375 5.0859375 1.30859375 C5.0859375 2.62859375 5.0859375 3.94859375 5.0859375 5.30859375 C2.4633143 6.64678873 -0.16192849 7.97930885 -2.7890625 9.30859375 C-3.90861328 9.8809375 -3.90861328 9.8809375 -5.05078125 10.46484375 C-5.76621094 10.82578125 -6.48164062 11.18671875 -7.21875 11.55859375 C-7.87858887 11.89375 -8.53842773 12.22890625 -9.21826172 12.57421875 C-10.9140625 13.30859375 -10.9140625 13.30859375 -12.9140625 13.30859375 C-12.5840625 14.62859375 -12.2540625 15.94859375 -11.9140625 17.30859375 C-7.9540625 16.81359375 -7.9540625 16.81359375 -3.9140625 16.30859375 C-3.9140625 22.90859375 -3.9140625 29.50859375 -3.9140625 36.30859375 C-11.9140625 38.30859375 -11.9140625 38.30859375 -14.9140625 37.30859375 C-14.9140625 37.96859375 -14.9140625 38.62859375 -14.9140625 39.30859375 C-20.6640625 37.43359375 -20.6640625 37.43359375 -22.9140625 36.30859375 C-24.78785855 36.23825606 -26.66407352 36.22429155 -28.5390625 36.24609375 C-30.04339844 36.25962891 -30.04339844 36.25962891 -31.578125 36.2734375 C-32.34898438 36.28503906 -33.11984375 36.29664063 -33.9140625 36.30859375 C-33.8934375 35.72851562 -33.8728125 35.1484375 -33.8515625 34.55078125 C-33.9206759 31.93311126 -34.11319982 29.8102576 -34.9140625 27.30859375 C-36.77784413 25.62247719 -36.77784413 25.62247719 -39.0390625 24.30859375 C-41.234375 22.92578125 -41.234375 22.92578125 -42.9140625 21.30859375 C-43.32526914 18.11383448 -42.78989256 15.3876838 -41.9140625 12.30859375 C-40.8003125 12.06109375 -39.6865625 11.81359375 -38.5390625 11.55859375 C-34.86791052 10.69854036 -34.86791052 10.69854036 -33.4765625 8.18359375 C-33.2909375 7.56484375 -33.1053125 6.94609375 -32.9140625 6.30859375 C-32.2334375 6.47359375 -31.5528125 6.63859375 -30.8515625 6.80859375 C-25.3728859 7.74113445 -20.34612157 7.29624085 -14.9140625 6.30859375 C-13.9240625 6.30859375 -12.9340625 6.30859375 -11.9140625 6.30859375 C-10.8621875 4.82359375 -10.8621875 4.82359375 -9.7890625 3.30859375 C-6.95406326 -0.36480466 -4.43328256 -0.24965584 0 0 Z " fill="#60AC25" transform="translate(114.9140625,262.69140625)"/>
<path d="M0 0 C0.72663849 0.18790604 1.45327698 0.37581207 2.20193481 0.56941223 C3.73754565 0.96817499 5.27211334 1.37097437 6.80566406 1.77758789 C9.08965198 2.38308909 11.3764024 2.97690227 13.6640625 3.56835938 C21.93937641 5.72217148 30.15507997 8.03373132 38.34873962 10.47900391 C44.7828821 12.38885912 51.26637759 13.98513733 57.80273438 15.49804688 C58.62193359 15.69462891 59.44113281 15.89121094 60.28515625 16.09375 C61.00437256 16.26092529 61.72358887 16.42810059 62.46459961 16.6003418 C64.2578125 17.20703125 64.2578125 17.20703125 66.2578125 19.20703125 C64.45525611 20.20438479 62.64010006 21.17897605 60.8203125 22.14453125 C59.81097656 22.68980469 58.80164063 23.23507812 57.76171875 23.796875 C47.4710827 27.93836844 39.06382752 24.83040485 28.9453125 21.64453125 C27.4133352 21.17587432 25.88085971 20.70884293 24.34790039 20.2434082 C21.33658621 19.32659765 18.32816611 18.40120253 15.32226562 17.46679688 C10.29150314 15.90375664 5.24418718 14.39782764 0.1953125 12.89453125 C-1.32175151 12.43795472 -2.83868328 11.98093852 -4.35546875 11.5234375 C-11.47363243 9.38173173 -18.60824944 7.29546389 -25.7421875 5.20703125 C-25.7421875 3.88703125 -25.7421875 2.56703125 -25.7421875 1.20703125 C-17.14890019 -2.58412492 -8.96307129 -2.40180726 0 0 Z " fill="#10100F" transform="translate(268.7421875,377.79296875)"/>
<path d="M0 0 C0.25 2.75 0.25 2.75 0 6 C-1.33333333 7.33333333 -2.66666667 8.66666667 -4 10 C-3.83492354 12.57540213 -3.83492354 12.57540213 -3 15 C-3 18 -3 18 -5 21 C-5.68325849 25.68747106 -5.63059891 29.73880218 -3.5 34 C-0.09097512 36.7272199 2.72218386 37.21573371 7 38 C7 38.99 7 39.98 7 41 C-0.86950468 41.20982755 -8.40168393 40.60794425 -16.1875 39.5 C-19.755625 39.005 -23.32375 38.51 -27 38 C-27 27.11 -27 16.22 -27 5 C-23.2875 4.175 -19.575 3.35 -15.75 2.5 C-14.5856543 2.23896484 -13.42130859 1.97792969 -12.22167969 1.70898438 C-11.29774414 1.50595703 -10.37380859 1.30292969 -9.421875 1.09375 C-8.47924805 0.88427734 -7.53662109 0.67480469 -6.56542969 0.45898438 C-4 0 -4 0 0 0 Z " fill="#F8E2B5" transform="translate(142,272)"/>
<path d="M0 0 C14.52 0 29.04 0 44 0 C44 6.27 44 12.54 44 19 C29.48 19 14.96 19 0 19 C0 12.73 0 6.46 0 0 Z " fill="#E5EEF0" transform="translate(269,303)"/>
<path d="M0 0 C0 15.51 0 31.02 0 47 C-5.94 46.34 -11.88 45.68 -18 45 C-18 30.48 -18 15.96 -18 1 C-12 0 -12 0 0 0 Z " fill="#C78531" transform="translate(468,297)"/>
<path d="M0 0 C16.23376585 -0.09168022 32.45700242 0.1973097 48.6875 0.5 C51.34699897 0.54852744 54.00650739 0.59651212 56.66601562 0.64453125 C63.11071113 0.7612279 69.55536477 0.88002263 76 1 C76 6.28 76 11.56 76 17 C69.95783047 16.13683292 65.44884629 14.8119546 59.8671875 12.64453125 C56.35766196 11.85560521 55.27113564 12.64887876 52 14 C43.95985995 14.62463239 36.57436953 12.86105722 28.75 11.125 C20.32978079 9.28610155 11.9647755 7.59834929 3.42285156 6.42529297 C1 6 1 6 0 5 C-0.04063832 3.33382885 -0.042721 1.66611905 0 0 Z " fill="#F6E0B3" transform="translate(233,204)"/>
<path d="M0 0 C16.5 0 33 0 50 0 C50 4.95 50 9.9 50 15 C33.5 15 17 15 0 15 C0 10.05 0 5.1 0 0 Z " fill="#E8CA00" transform="translate(266,262)"/>
<path d="M0 0 C2.21937809 0.36031178 4.4262275 0.58858579 6.66455078 0.79882812 C20.85516397 2.30196049 35.15773652 6.36983249 48.12939453 12.34570312 C48.62439453 13.33570313 48.62439453 13.33570313 49.12939453 14.34570312 C32.8491103 14.49618926 16.58012531 14.29552778 0.30322266 13.97238159 C-1.84372392 13.92980626 -3.99069716 13.88855356 -6.13769531 13.84866333 C-9.20632405 13.79085608 -12.27478285 13.72734481 -15.34326172 13.66210938 C-16.71243492 13.63703308 -16.71243492 13.63703308 -18.10926819 13.6114502 C-24.06988939 13.47544999 -29.94724278 13.0224102 -35.87060547 12.34570312 C-25.07340769 3.22573995 -14.32558391 -2.48314644 0 0 Z " fill="#DD4D00" transform="translate(294.87060546875,224.654296875)"/>
<path d="M0 0 C2.64 0 5.28 0 8 0 C8 28.38 8 56.76 8 86 C5.36 86 2.72 86 0 86 C0 57.62 0 29.24 0 0 Z " fill="#DEDEDE" transform="translate(348,242)"/>
<path d="M0 0 C0 22.11 0 44.22 0 67 C-3.3 67 -6.6 67 -10 67 C-10 45.88 -10 24.76 -10 3 C-3 0 -3 0 0 0 Z " fill="#DDDDDD" transform="translate(333,159)"/>
<path d="M0 0 C4.99110264 3.41624016 9.22907663 6.45815326 12 12 C12.51873597 16.23634378 11.80622201 19.16177822 10 23 C11.32 23.66 12.64 24.32 14 25 C14 27.97 14 30.94 14 34 C8.04296875 37.22265625 8.04296875 37.22265625 6 38 C4.515 37.505 4.515 37.505 3 37 C0.16667896 36.77266072 -2.66515481 36.61981954 -5.50390625 36.4765625 C-6.73947266 36.24066406 -6.73947266 36.24066406 -8 36 C-10.37289338 32.44065993 -10.43630297 29.62774759 -10.625 25.5 C-10.68300781 24.48486328 -10.68300781 24.48486328 -10.7421875 23.44921875 C-10.89793334 20.62910651 -11 17.82471772 -11 15 C-9.33333333 13.33333333 -7.66666667 11.66666667 -6 10 C-3.77605377 6.79653175 -1.74438781 3.48877561 0 0 Z " fill="#5FAA25" transform="translate(175,271)"/>
<path d="M0 0 C0.66 0 1.32 0 2 0 C3.98792625 2.50809357 5.78706374 5.07987795 7.55062866 7.74861145 C9.91516728 11.26448767 12.2486208 14.3488204 15.3684082 17.22583008 C25.53899724 27.36513644 26.25900004 38.13021313 26.3046875 51.76953125 C26.29875494 58.47504751 26.14404631 65.17310485 25.95092773 71.87548828 C25.82574435 76.71779093 25.77777645 81.56078078 25.72265625 86.40429688 C25.61860282 94.74713848 25.42235124 103.08416713 25.17797756 111.4239769 C25.04565487 116.21943341 24.98363498 121.00484628 25.02593231 125.80196857 C25.04268579 127.85626589 25.04133726 129.90969853 25.03359985 131.96403503 C25.02959558 134.36977395 25.05860454 136.77593492 25.12997437 139.18061829 C25.08256259 143.82072928 24.91152599 146.8077015 22.04014587 150.5635376 C17.55321114 154.84654757 12.716898 158.05357834 7.18237305 160.83447266 C4.92215988 161.95157687 4.92215988 161.95157687 2.90551758 163.70849609 C2.27669678 164.13469238 1.64787598 164.56088867 1 165 C0.01 164.67 -0.98 164.34 -2 164 C-2 163.01 -2 162.02 -2 161 C-0.50292969 159.60546875 -0.50292969 159.60546875 1.578125 158.1875 C2.32707031 157.66929687 3.07601563 157.15109375 3.84765625 156.6171875 C4.64042969 156.08351563 5.43320313 155.54984375 6.25 155 C7.79709267 153.93781697 9.34397437 152.87532659 10.890625 151.8125 C11.58188477 151.34457031 12.27314453 150.87664062 12.98535156 150.39453125 C14.39945146 149.4156972 15.77974323 148.38706395 17.13183594 147.32421875 C19 146 19 146 21 146 C21.10338117 131.49100405 21.14819727 116.98281686 21.12697029 102.47344685 C21.11812984 95.7350785 21.12764124 88.99770354 21.18164062 82.25952148 C21.23191484 75.74915965 21.23303842 69.24042937 21.20095444 62.72997093 C21.19722076 60.25382139 21.21080779 57.7775796 21.24249649 55.30163002 C21.60458047 37.20218287 21.60458047 37.20218287 12.44760132 22.3394165 C11.63989288 21.56740906 10.83218445 20.79540161 10 20 C8.93624841 18.62744891 7.89523562 17.23595894 6.90625 15.80859375 C6.49632812 15.23689453 6.08640625 14.66519531 5.6640625 14.07617188 C5.08785156 13.2650293 5.08785156 13.2650293 4.5 12.4375 C4.08492187 11.86193359 3.66984375 11.28636719 3.2421875 10.69335938 C1.24259997 7.8907117 -0.58531035 5.14460905 -2 2 C-1.34 1.34 -0.68 0.68 0 0 Z " fill="#040403" transform="translate(6,196)"/>
<path d="M0 0 C1.98 0 3.96 0 6 0 C6 33 6 66 6 100 C4.02 100 2.04 100 0 100 C0 67 0 34 0 0 Z " fill="#DBDCDC" transform="translate(365,234)"/>
<path d="M0 0 C0.02464775 5.53588533 0.04283496 11.071739 0.05493164 16.60766602 C0.05997244 18.4924373 0.06680498 20.37720465 0.07543945 22.26196289 C0.08751617 24.96501636 0.09323068 27.66801831 0.09765625 30.37109375 C0.10281754 31.21900986 0.10797882 32.06692596 0.11329651 32.9405365 C0.11349195 34.96071068 0.06206211 36.98077934 0 39 C-0.495 39.495 -0.495 39.495 -1 40 C-5.62 40 -10.24 40 -15 40 C-15 27.46 -15 14.92 -15 2 C-4.875 -0.25 -4.875 -0.25 0 0 Z " fill="#E5EFF0" transform="translate(477,228)"/>
<path d="M0 0 C1.32 0 2.64 0 4 0 C4 47.52 4 95.04 4 144 C2.68 144 1.36 144 0 144 C0 96.48 0 48.96 0 0 Z " fill="#AAC3C8" transform="translate(433,196)"/>
<path d="M0 0 C0 5.94 0 11.88 0 18 C-4.45383003 19.9087843 -8.08620031 21.43043411 -12.64453125 22.60546875 C-14.15370117 22.99702148 -14.15370117 22.99702148 -15.69335938 23.39648438 C-17.23733398 23.78803711 -17.23733398 23.78803711 -18.8125 24.1875 C-19.86115234 24.46013672 -20.90980469 24.73277344 -21.99023438 25.01367188 C-29.71152491 27 -29.71152491 27 -32 27 C-32 21.39 -32 15.78 -32 10 C-28.08760847 8.56988299 -24.17420018 7.14380208 -20.25683594 5.72753906 C-18.92527291 5.24480697 -17.59453177 4.75980136 -16.26464844 4.27246094 C-14.35043671 3.5714417 -12.43339607 2.87871299 -10.515625 2.1875 C-9.36352539 1.76855469 -8.21142578 1.34960938 -7.02441406 0.91796875 C-4 0 -4 0 0 0 Z " fill="#E9F3F5" transform="translate(480,156)"/>
<path d="M0 0 C0 16.17 0 32.34 0 49 C-9 50 -9 50 -24 50 C-24 34.49 -24 18.98 -24 3 C-7 0 -7 0 0 0 Z M-19 7 C-19 19.54 -19 32.08 -19 45 C-14.38 45 -9.76 45 -5 45 C-3.57174014 43.8000901 -3.57174014 43.8000901 -3.88647461 40.30639648 C-3.88663376 38.66128708 -3.89233012 37.01617269 -3.90234375 35.37109375 C-3.9037587 34.50686295 -3.90517365 33.64263214 -3.90663147 32.75221252 C-3.91224761 29.98060708 -3.92480281 27.2090812 -3.9375 24.4375 C-3.94251292 22.5631522 -3.94707619 20.68880315 -3.95117188 18.81445312 C-3.96222228 14.20960456 -3.9794977 9.60481579 -4 5 C-9.58651101 4.71351226 -13.1368533 5.69707851 -19 7 Z " fill="#0B0C0C" transform="translate(481,223)"/>
<path d="M0 0 C0.99 0 1.98 0 3 0 C3 9.57 3 19.14 3 29 C-0.16998397 29.9057097 -3.34027201 30.81036325 -6.51171875 31.7109375 C-9.81263653 32.65276933 -13.10440949 33.62271209 -16.39453125 34.6015625 C-17.78442261 35.01027588 -17.78442261 35.01027588 -19.20239258 35.42724609 C-21.04135654 35.96807065 -22.87851077 36.51509448 -24.71362305 37.06884766 C-25.57125244 37.31940918 -26.42888184 37.5699707 -27.3125 37.828125 C-28.07175781 38.0540332 -28.83101563 38.27994141 -29.61328125 38.51269531 C-32 39 -32 39 -38 39 C-38 30.75 -38 22.5 -38 14 C-26.76754118 9.50701647 -26.76754118 9.50701647 -21.15234375 7.67578125 C-19.97091797 7.28712891 -18.78949219 6.89847656 -17.57226562 6.49804688 C-16.37279297 6.10681641 -15.17332031 5.71558594 -13.9375 5.3125 C-11.50822261 4.5196549 -9.07978544 3.72422901 -6.65234375 2.92578125 C-5.59007568 2.57942627 -4.52780762 2.23307129 -3.43334961 1.8762207 C-1.08303545 1.22494422 -1.08303545 1.22494422 0 0 Z M-12.515625 9.1875 C-13.4393692 9.52044067 -13.4393692 9.52044067 -14.3817749 9.86010742 C-16.34006217 10.56746527 -18.29500965 11.28358691 -20.25 12 C-21.58051815 12.4823533 -22.91124523 12.96413071 -24.2421875 13.4453125 C-27.49769317 14.62249036 -30.74853125 15.81147356 -34 17 C-34 22.61 -34 28.22 -34 34 C-17.07574622 31.64622475 -17.07574622 31.64622475 -2 25 C-1.91368126 23.65732587 -1.89293527 22.31025678 -1.90234375 20.96484375 C-1.90556641 20.15595703 -1.90878906 19.34707031 -1.91210938 18.51367188 C-1.92048828 17.66353516 -1.92886719 16.81339844 -1.9375 15.9375 C-1.94201172 15.08349609 -1.94652344 14.22949219 -1.95117188 13.34960938 C-1.96299627 11.23304337 -1.98093231 9.11651315 -2 7 C-6.16920056 7 -8.62617933 7.77315612 -12.515625 9.1875 Z " fill="#0B0C0C" transform="translate(482,149)"/>
<path d="M0 0 C1.23041016 0.38478516 2.46082031 0.76957031 3.72851562 1.16601562 C5.01566671 1.57278471 6.30277596 1.9796862 7.58984375 2.38671875 C10.10151869 3.17461885 12.61323717 3.96238014 15.125 4.75 C16.34848145 5.13494629 17.57196289 5.51989258 18.83251953 5.91650391 C24.39062706 7.65804916 29.95818633 9.36834543 35.52734375 11.07421875 C35.52734375 11.40421875 35.52734375 11.73421875 35.52734375 12.07421875 C27.68526531 11.96581439 19.84326279 11.85301577 12.00132561 11.73487949 C8.35849446 11.68013368 4.71565495 11.6268014 1.07275391 11.5769043 C-2.45458549 11.52853461 -5.98184695 11.47618471 -9.50909042 11.421278 C-11.48389669 11.39151529 -13.45876104 11.3656875 -15.43362427 11.33998108 C-23.81585473 11.20517903 -32.11782128 10.75780346 -40.47265625 10.07421875 C-36.27895877 5.63314278 -30.74980593 4.06134254 -25.16015625 1.82421875 C-23.46729492 1.11652344 -23.46729492 1.11652344 -21.74023438 0.39453125 C-20.64517578 -0.04632813 -19.55011719 -0.4871875 -18.421875 -0.94140625 C-17.42502686 -1.34649414 -16.42817871 -1.75158203 -15.40112305 -2.16894531 C-9.99066099 -3.56723063 -5.19715515 -1.63526092 0 0 Z " fill="#DC4C00" transform="translate(274.47265625,189.92578125)"/>
<path d="M0 0 C14.80910929 0.50716128 34.01011954 3.18829735 45.16796875 14.125 C48.38817698 18.28602916 50.03722098 21.91385343 50.35717773 27.20263672 C50.41077454 28.06367508 50.46437134 28.92471344 50.51959229 29.81184387 C50.57371277 30.75823227 50.62783325 31.70462067 50.68359375 32.6796875 C50.74343445 33.68468796 50.80327515 34.68968842 50.8649292 35.72514343 C51.06262186 39.10807833 51.25143239 42.49140629 51.4375 45.875 C51.50280914 47.05778534 51.56811829 48.24057068 51.63540649 49.459198 C54.63572558 104.6211665 55.34490997 159.76630439 55 215 C54.34 215 53.68 215 53 215 C52.26528464 197.94268156 51.84508431 180.88606069 51.53515625 163.81640625 C51.51617594 162.77398899 51.49719563 161.73157173 51.47764015 160.65756607 C51.39896178 156.3202623 51.32091145 151.98294774 51.24354649 147.64562035 C50.42554783 100.18899999 50.42554783 100.18899999 48.9375 52.75 C48.897388 51.70329132 48.857276 50.65658264 48.81594849 49.57815552 C48.70407615 46.71331856 48.58646411 43.84881326 48.46484375 40.984375 C48.43260712 40.20064011 48.40037048 39.41690521 48.36715698 38.60942078 C48.18470229 34.61601554 47.91993229 30.6326183 47.58032227 26.64941406 C47.51200699 25.84151428 47.44369171 25.0336145 47.37330627 24.20123291 C46.61874996 19.75192596 44.02761715 17.02761715 40.9375 13.9375 C28.77939904 5.91832703 14.22184781 3.01277548 0 1 C0 0.67 0 0.34 0 0 Z " fill="#BABBBB" transform="translate(362,137)"/>
<path d="M0 0 C0 47.19 0 94.38 0 143 C-1.32 142.67 -2.64 142.34 -4 142 C-3.01 142 -2.02 142 -1 142 C-1.33 107.02 -1.66 72.04 -2 36 C-4.97 36 -7.94 36 -11 36 C-12.31191997 29.04785719 -12.11058058 22.11555097 -12.0625 15.0625 C-12.05798828 13.80630859 -12.05347656 12.55011719 -12.04882812 11.25585938 C-12.03709681 8.17052337 -12.020681 5.08528684 -12 2 C-7.69214025 0.64851459 -4.58042408 0 0 0 Z " fill="#B3CED3" transform="translate(430,197)"/>
<path d="M0 0 C1.58067293 0.46449053 3.16208402 0.92647482 4.74414062 1.38623047 C5.55761963 1.62428406 6.37109863 1.86233765 7.20922852 2.10760498 C11.35490387 3.28586558 15.53458373 4.31996442 19.71875 5.3515625 C20.5586145 5.55977631 21.398479 5.76799011 22.26379395 5.98251343 C24.8263927 6.61673918 27.3896435 7.24825865 29.953125 7.87890625 C40.29010855 10.42227141 50.59743261 12.98166397 60.81005859 15.99291992 C64.74399112 17.11267979 68.69867171 17.98789867 72.703125 18.81640625 C72.703125 19.47640625 72.703125 20.13640625 72.703125 20.81640625 C65.31866206 24.74431207 59.57721508 23.76861985 51.70703125 21.43359375 C49.89111415 20.85951237 48.07740076 20.27842667 46.265625 19.69140625 C37.79296737 17.02541691 29.29213245 14.5792053 20.703125 12.31640625 C9.38579528 9.32447824 -1.80361438 5.99630731 -12.98193359 2.52490234 C-16.07525509 1.57818024 -19.18214984 0.68989279 -22.296875 -0.18359375 C-22.296875 -0.51359375 -22.296875 -0.84359375 -22.296875 -1.18359375 C-14.59094735 -3.17222024 -7.48377494 -2.32383197 0 0 Z " fill="#F0F0F0" transform="translate(407.296875,419.18359375)"/>
<path d="M0 0 C1.07306396 0.3081665 2.14612793 0.61633301 3.25170898 0.93383789 C6.75466861 1.94417583 10.25273912 2.97011729 13.75 4 C15.63259521 4.55276611 15.63259521 4.55276611 17.55322266 5.11669922 C25.29160584 7.3906434 33.02331849 9.68661688 40.75 12 C37.95704424 14.90728728 35.58824451 16.57842796 31.75 18 C23.91976735 17.68616302 17.10379933 15.32548603 9.75 12.75 C7.35496362 11.92996037 4.95912854 11.11224971 2.5625 10.296875 C0.82226562 9.70422852 0.82226562 9.70422852 -0.953125 9.09960938 C-6.65253785 7.19867962 -12.41041744 5.52086675 -18.1875 3.875 C-20.22138849 3.293889 -22.24327303 2.66890899 -24.25 2 C-24.25 1.01 -24.25 0.02 -24.25 -1 C-15.53431417 -4.40124325 -8.63121401 -2.54042398 0 0 Z " fill="#0F0F0E" transform="translate(170.25,349)"/>
<path d="M0 0 C16.83 0 33.66 0 51 0 C51 8.58 51 17.16 51 26 C34.17 26 17.34 26 0 26 C0 17.42 0 8.84 0 0 Z M3 3 C3 9.27 3 15.54 3 22 C17.52 22 32.04 22 47 22 C47 15.73 47 9.46 47 3 C32.48 3 17.96 3 3 3 Z " fill="#13110D" transform="translate(266,300)"/>
<path d="M0 0 C2.3125 0.8125 2.3125 0.8125 4 2 C2.84826645 4.46800047 1.95216435 6.04783565 0 8 C0.28280314 9.67598069 0.62761653 11.34162144 1 13 C1.06652855 15.26995419 1.08543751 17.54168695 1.0625 19.8125 C1.05347656 20.97394531 1.04445312 22.13539063 1.03515625 23.33203125 C1.02355469 24.21246094 1.01195312 25.09289062 1 26 C-0.32 26 -1.64 26 -3 26 C-3.33 26.99 -3.66 27.98 -4 29 C-6.08400734 28.96687272 -8.16745766 28.89736131 -10.25 28.8125 C-11.41015625 28.77769531 -12.5703125 28.74289062 -13.765625 28.70703125 C-17 28 -17 28 -19.4140625 25.66015625 C-21 23 -21 23 -21.125 19.625 C-19.70316387 15.04352801 -17.33646021 12.35686669 -14 9 C-16.475 8.01 -16.475 8.01 -19 7 C-18.67 6.01 -18.34 5.02 -18 4 C-17.11957031 3.96261719 -16.23914063 3.92523438 -15.33203125 3.88671875 C-13.58986328 3.78810547 -13.58986328 3.78810547 -11.8125 3.6875 C-10.66394531 3.62949219 -9.51539063 3.57148438 -8.33203125 3.51171875 C-4.83602519 2.97481747 -2.9448005 1.86642285 0 0 Z " fill="#5FAA25" transform="translate(160,278)"/>
<path d="M0 0 C0 2.64 0 5.28 0 8 C0.91136719 8.03738281 1.82273437 8.07476562 2.76171875 8.11328125 C14.29181686 8.69839071 25.59633024 10.23189893 37 12 C37 12.99 37 13.98 37 15 C38.32 15 39.64 15 41 15 C41 14.34 41 13.68 41 13 C43.35441716 13.14241648 45.70847484 13.28884808 48.0625 13.4375 C49.37347656 13.51871094 50.68445313 13.59992188 52.03515625 13.68359375 C55.73663238 13.97898249 59.33370448 14.43265388 63 15 C63 16.32 63 17.64 63 19 C64.32 19 65.64 19 67 19 C67 18.01 67 17.02 67 16 C77.27981274 16.77160822 87.47424278 18.19610482 97.6875 19.5625 C99.46807161 19.7990341 101.24867037 20.03536386 103.02929688 20.27148438 C107.35318123 20.84530127 111.67668884 21.42188096 116 22 C116 22.33 116 22.66 116 23 C86.11450275 24.34660833 58.65992384 21.23740798 29.42041016 15.11572266 C22.0581313 13.5827448 14.65936136 12.28167046 7.25 11 C5.12999798 10.62619106 3.01018186 10.25132492 0.890625 9.875 C0.05563477 9.72804688 -0.77935547 9.58109375 -1.63964844 9.4296875 C-4.09934499 8.98191486 -6.5498633 8.497224 -9 8 C-9 5.69 -9 3.38 -9 1 C-5.92677456 0.08941469 -3.19902639 -0.08886184 0 0 Z " fill="#D1D1D0" transform="translate(112,305)"/>
<path d="M0 0 C1.86011719 0.28617188 3.72023437 0.57234375 5.63671875 0.8671875 C6.82442871 1.04991211 8.01213867 1.23263672 9.23583984 1.42089844 C11.66064453 1.79394531 14.08544922 2.16699219 16.51025391 2.54003906 C18.21640869 2.80252441 18.21640869 2.80252441 19.95703125 3.0703125 C26.86328125 4.1328125 26.86328125 4.1328125 33.76953125 5.1953125 C34.77604736 5.35016113 35.78256348 5.50500977 36.81958008 5.66455078 C37.53911865 5.77524902 38.25865723 5.88594727 39 6 C36.26530404 8.73469596 33.02506907 9.69441481 29.47265625 11.0390625 C28.35557533 11.46764053 28.35557533 11.46764053 27.21592712 11.90487671 C25.64080799 12.50758209 24.06465113 13.10758138 22.48754883 13.70507812 C20.07264193 14.62115274 17.66216427 15.54821404 15.25195312 16.4765625 C13.72160785 17.06056103 12.19101682 17.64391606 10.66015625 18.2265625 C9.93820572 18.50464752 9.21625519 18.78273254 8.47242737 19.06924438 C5.50524966 20.18658274 3.19868302 21 0 21 C0 14.07 0 7.14 0 0 Z " fill="#F3DEB1" transform="translate(233,216)"/>
<path d="M0 0 C0.99 0 1.98 0 3 0 C3 3.3 3 6.6 3 10 C2.18144531 10.40347656 1.36289062 10.80695313 0.51953125 11.22265625 C-8.9327629 15.9055784 -18.3166898 20.71917509 -27.6875 25.5625 C-28.29725677 25.87720245 -28.90701355 26.19190491 -29.5352478 26.5161438 C-31.34058007 27.44826528 -33.14500812 28.38211586 -34.94921875 29.31640625 C-36.11670654 29.9204126 -37.28419434 30.52441895 -38.48706055 31.14672852 C-40.87819787 32.40818681 -43.24445562 33.68519619 -45.60083008 35.00756836 C-47.31435669 35.96288452 -47.31435669 35.96288452 -49.0625 36.9375 C-50.07828125 37.515 -51.0940625 38.0925 -52.140625 38.6875 C-56.35573558 40.62230486 -59.44276254 40.54068919 -64 40 C-61.79129901 37.58585878 -59.62521238 36.09936078 -56.73828125 34.57421875 C-55.878396 34.11426514 -55.01851074 33.65431152 -54.13256836 33.18041992 C-53.2019458 32.68775635 -52.27132324 32.19509277 -51.3125 31.6875 C-42.92000949 27.18405898 -34.64611896 22.51781449 -26.4375 17.6875 C-3.13095157 4 -3.13095157 4 0 4 C0 2.68 0 1.36 0 0 Z " fill="#D84D02" transform="translate(494,64)"/>
<path d="M0 0 C0 9.57 0 19.14 0 29 C-4.29 29 -8.58 29 -13 29 C-13 20.09 -13 11.18 -13 2 C-4 0 -4 0 0 0 Z " fill="#181506" transform="translate(221,266)"/>
<path d="M0 0 C16.5 0 33 0 50 0 C50 4.95 50 9.9 50 15 C33.5 15 17 15 0 15 C0 10.05 0 5.1 0 0 Z M3 3 C3 5.97 3 8.94 3 12 C17.52 12 32.04 12 47 12 C47 9.03 47 6.06 47 3 C32.48 3 17.96 3 3 3 Z " fill="#000000" transform="translate(266,262)"/>
<path d="M0 0 C0 6.27 0 12.54 0 19 C-3.898125 20.7325 -3.898125 20.7325 -7.875 22.5 C-8.69210449 22.86544922 -9.50920898 23.23089844 -10.35107422 23.60742188 C-10.9957666 23.89166016 -11.64045898 24.17589844 -12.3046875 24.46875 C-13.2944458 24.90864258 -13.2944458 24.90864258 -14.30419922 25.35742188 C-16 26 -16 26 -18 26 C-18 20.39 -18 14.78 -18 9 C-15.73125 7.700625 -13.4625 6.40125 -11.125 5.0625 C-10.41230957 4.65394775 -9.69961914 4.24539551 -8.96533203 3.82446289 C-2.27993002 0 -2.27993002 0 0 0 Z " fill="#E7F0F2" transform="translate(468,94)"/>
<path d="M0 0 C6.73750573 -0.26171059 12.62805914 0.29513811 19.125 2.0625 C19.97046387 2.28292969 20.81592773 2.50335938 21.68701172 2.73046875 C30.56063502 5.07742525 39.3632823 7.68085835 48.1640625 10.28515625 C56.08141726 12.62419601 64.03806553 14.81851038 72 17 C71.67 17.66 71.34 18.32 71 19 C59.82747053 22.12830825 46.71988152 15.63822659 36.06054688 12.21704102 C29.94949808 10.26503766 23.81232084 8.55550911 17.6015625 6.9453125 C11.70556848 5.39777394 5.85480348 3.69599854 0 2 C0 1.34 0 0.68 0 0 Z " fill="#EEEFEF" transform="translate(252,380)"/>
<path d="M0 0 C0 4.95 0 9.9 0 15 C-14.19642857 18.21428571 -14.19642857 18.21428571 -20 18 C-20 14.7 -20 11.4 -20 8 C-4.57142857 0 -4.57142857 0 0 0 Z " fill="#DC4C00" transform="translate(437,177)"/>
<path d="M0 0 C2.31 0 4.62 0 7 0 C7 11.88 7 23.76 7 36 C4.69 36 2.38 36 0 36 C0 24.12 0 12.24 0 0 Z " fill="#C68431" transform="translate(382,299)"/>
<path d="M0 0 C0 2.97 0 5.94 0 9 C-7.31425972 11.59889654 -14.68081916 13.42492439 -22.25 15.125 C-23.40757812 15.38925781 -24.56515625 15.65351563 -25.7578125 15.92578125 C-28.83671149 16.62617744 -31.91576674 17.3234827 -35 18 C-35.88397461 18.23315918 -36.76794922 18.46631836 -37.67871094 18.70654297 C-40 19 -40 19 -43 17 C-36.9854734 14.41396124 -30.96776822 11.83544483 -24.94775391 9.26220703 C-22.12343257 8.05285294 -19.30186981 6.83724121 -16.48046875 5.62109375 C-14.7787804 4.89291461 -13.07696321 4.16503648 -11.375 3.4375 C-10.57666748 3.09138672 -9.77833496 2.74527344 -8.95581055 2.38867188 C-3.34133256 0 -3.34133256 0 0 0 Z " fill="#D94B00" transform="translate(408,189)"/>
<path d="M0 0 C5.76580718 -0.24678552 10.33565583 0.41698121 15.78125 2.40625 C16.48020386 2.65040649 17.17915771 2.89456299 17.89929199 3.14611816 C20.10381803 3.91916587 22.30178686 4.70920295 24.5 5.5 C26.00480611 6.03108898 27.51001161 6.56104773 29.015625 7.08984375 C32.68182645 8.38021967 36.3422547 9.68585523 40 11 C33.71469708 15.19020195 33.71469708 15.19020195 29.23779297 14.69360352 C25.84128989 13.96600095 22.75824931 12.93762712 19.5078125 11.71484375 C18.30898437 11.26689453 17.11015625 10.81894531 15.875 10.35742188 C14.62495526 9.88423277 13.3749558 9.410924 12.125 8.9375 C10.85174939 8.45978804 9.57831348 7.98256966 8.3046875 7.50585938 C5.20126933 6.34207756 2.09982553 5.17331032 -1 4 C-0.67 2.68 -0.34 1.36 0 0 Z " fill="#0B0B0A" transform="translate(82,322)"/>
<path d="M0 0 C0 7.26 0 14.52 0 22 C-4.455 23.485 -4.455 23.485 -9 25 C-9 18.07 -9 11.14 -9 4 C-2 0 -2 0 0 0 Z " fill="#E8F1F3" transform="translate(493,81)"/>
<path d="M0 0 C0 2.64 0 5.28 0 8 C0.91136719 8.03738281 1.82273437 8.07476562 2.76171875 8.11328125 C14.29181686 8.69839071 25.59633024 10.23189893 37 12 C37 12.99 37 13.98 37 15 C38.98 15.33 40.96 15.66 43 16 C39.10781501 17.42288374 35.92250144 16.64184119 31.91796875 15.890625 C31.22673416 15.7631488 30.53549957 15.63567261 29.82331848 15.5043335 C27.60983663 15.09404547 25.39875416 14.6721112 23.1875 14.25 C21.74297713 13.98102547 20.29831653 13.7127895 18.85351562 13.4453125 C9.55215703 11.71449695 0.27279308 9.87739176 -9 8 C-9 5.69 -9 3.38 -9 1 C-5.92677456 0.08941469 -3.19902639 -0.08886184 0 0 Z " fill="#BEBEBE" transform="translate(112,305)"/>
<path d="M0 0 C1.58206057 0.00667536 3.16410534 0.0186375 4.74609375 0.03515625 C5.55240234 0.03966797 6.35871094 0.04417969 7.18945312 0.04882812 C9.18753131 0.06065107 11.18557158 0.07858711 13.18359375 0.09765625 C13.18359375 2.07765625 13.18359375 4.05765625 13.18359375 6.09765625 C10.74854866 7.10402175 8.31088511 8.10292038 5.87109375 9.09765625 C5.18080078 9.38382813 4.49050781 9.67 3.77929688 9.96484375 C0.76813701 11.18676369 -1.53527609 12.09765625 -4.81640625 12.09765625 C-4.84327904 10.28523573 -4.8627434 8.47270392 -4.87890625 6.66015625 C-4.89050781 5.65082031 -4.90210938 4.64148438 -4.9140625 3.6015625 C-4.75563358 -0.46055501 -4.26320223 0.10908911 0 0 Z " fill="#EBD7AC" transform="translate(171.81640625,233.90234375)"/>
<path d="M0 0 C0 5.28 0 10.56 0 16 C-4.95 16.495 -4.95 16.495 -10 17 C-10 11.72 -10 6.44 -10 1 C-5 0 -5 0 0 0 Z " fill="#DDE6E8" transform="translate(409,239)"/>
<path d="M0 0 C6.87564108 -0.4120537 12.30928294 1.04774951 18.8125 3.1875 C27.2576586 5.87844643 35.70441898 8.32907485 44.32348633 10.40112305 C46.23096939 10.87637624 48.11852305 11.43043725 50 12 C50.495 12.99 50.495 12.99 51 14 C45.64389454 16.67805273 37.68773141 13.47033938 32.29736328 11.72680664 C31.3948584 11.42508545 30.49235352 11.12336426 29.5625 10.8125 C28.14300049 10.34928345 28.14300049 10.34928345 26.69482422 9.87670898 C23.79337888 8.92712298 20.89636389 7.9649613 18 7 C16.18886068 6.40086451 14.37766505 5.80189921 12.56640625 5.203125 C8.37375405 3.8133916 4.18563663 2.41071457 0 1 C0 0.67 0 0.34 0 0 Z " fill="#E0E1E1" transform="translate(153,349)"/>
<path d="M0 0 C3.96 0 7.92 0 12 0 C12 2.97 12 5.94 12 9 C12.66 9.33 13.32 9.66 14 10 C12 12 12 12 9.1796875 12.1953125 C6.11979167 12.13020833 3.05989583 12.06510417 0 12 C0 8.04 0 4.08 0 0 Z " fill="#2F2B0F" transform="translate(343,197)"/>
<path d="M0 0 C3.96 0 7.92 0 12 0 C12 3.96 12 7.92 12 12 C8.04 12 4.08 12 0 12 C0 8.04 0 4.08 0 0 Z " fill="#302C10" transform="translate(343,181)"/>
<path d="M0 0 C3.96 0 7.92 0 12 0 C12 3.96 12 7.92 12 12 C8.04 12 4.08 12 0 12 C0 8.04 0 4.08 0 0 Z " fill="#302C10" transform="translate(359,165)"/>
<path d="M0 0 C3.96 0 7.92 0 12 0 C12 3.96 12 7.92 12 12 C8.04 12 4.08 12 0 12 C0 8.04 0 4.08 0 0 Z " fill="#302C10" transform="translate(343,165)"/>
<path d="M0 0 C1.98 0 3.96 0 6 0 C6 7.26 6 14.52 6 22 C4.02 22 2.04 22 0 22 C0 14.74 0 7.48 0 0 Z " fill="#C78431" transform="translate(237,303)"/>
<path d="M0 0 C0 4.29 0 8.58 0 13 C-8.875 16 -8.875 16 -10 16 C-10 11.71 -10 7.42 -10 3 C-2.25 0 -2.25 0 0 0 Z " fill="#28230C" transform="translate(184,249)"/>
<path d="M0 0 C0 4.29 0 8.58 0 13 C-5 15 -5 15 -10 15 C-10 11.04 -10 7.08 -10 3 C-2.25 0 -2.25 0 0 0 Z " fill="#28230B" transform="translate(200,243)"/>
<path d="M0 0 C1.32 0 2.64 0 4 0 C4.66 0.99 5.32 1.98 6 3 C8.19454681 3.57993699 8.19454681 3.57993699 10.625 3.6875 C11.44226563 3.75324219 12.25953125 3.81898438 13.1015625 3.88671875 C13.72804687 3.92410156 14.35453125 3.96148437 15 4 C15 5.98 15 7.96 15 10 C7.5928819 9.37727768 0.31805865 8.29512034 -7 7 C-7 5.68 -7 4.36 -7 3 C-4.03 3.495 -4.03 3.495 -1 4 C-0.67 2.68 -0.34 1.36 0 0 Z " fill="#EDD8AC" transform="translate(160,307)"/>
<path d="M0 0 C0 4.29 0 8.58 0 13 C-2.97 13.66 -5.94 14.32 -9 15 C-9 11.04 -9 7.08 -9 3 C-3.375 0 -3.375 0 0 0 Z " fill="#221D06" transform="translate(172,253)"/>
<path d="M0 0 C9.58911184 1.54288853 19.1131696 3.34998109 28.640625 5.23242188 C34.41870031 6.36010049 40.14650251 7.36468137 46 8 C45.67 8.66 45.34 9.32 45 10 C35.31011895 9.38770176 25.8228707 7.98314216 16.25 6.4375 C14.76308502 6.20076834 13.27610615 5.96443768 11.7890625 5.72851562 C8.19196185 5.15695219 4.5957494 4.58001112 1 4 C0.67 2.68 0.34 1.36 0 0 Z " fill="#DFCCA3" transform="translate(233,211)"/>
<path d="M0 0 C0.33 0 0.66 0 1 0 C1 32.01 1 64.02 1 97 C2.65 97 4.3 97 6 97 C6 97.99 6 98.98 6 100 C4.02 100 2.04 100 0 100 C0 67 0 34 0 0 Z " fill="#7C7D7D" transform="translate(365,234)"/>
<path d="M0 0 C2.64 0 5.28 0 8 0 C7.67 0.99 7.34 1.98 7 3 C7.63164063 3.15855469 8.26328125 3.31710937 8.9140625 3.48046875 C16.79620662 5.53618645 24.36487999 8.18002137 32 11 C28.23375329 12.25541557 26.62811066 11.37061958 23 10 C23 10.66 23 11.32 23 12 C14.86184696 9.69356492 6.94317882 6.89571216 -1 4 C-0.67 2.68 -0.34 1.36 0 0 Z " fill="#1D1D1C" transform="translate(82,322)"/>
<path d="M0 0 C0 4.62 0 9.24 0 14 C-4.455 14.495 -4.455 14.495 -9 15 C-9 11.37 -9 7.74 -9 4 C-1.125 0 -1.125 0 0 0 Z " fill="#211C04" transform="translate(211,239)"/>
<path d="M0 0 C2.35441716 0.14241648 4.70847484 0.28884808 7.0625 0.4375 C9.02896484 0.55931641 9.02896484 0.55931641 11.03515625 0.68359375 C14.73663238 0.97898249 18.33370448 1.43265388 22 2 C22 3.32 22 4.64 22 6 C22.99 6 23.98 6 25 6 C25 6.66 25 7.32 25 8 C16.82259611 7.46468462 7.40630085 6.70315043 0 3 C0 2.01 0 1.02 0 0 Z " fill="#CACBCB" transform="translate(153,318)"/>
<path d="M0 0 C8.30988216 -0.29448087 16.35663105 0.8442165 24.5625 2 C25.96672096 2.19326075 27.37101746 2.38597342 28.77539062 2.578125 C32.18448761 3.04576984 35.59250349 3.52081583 39 4 C37.68 4.33 36.36 4.66 35 5 C35 5.66 35 6.32 35 7 C27.41362732 6.55283576 19.94966776 5.62330848 12.4375 4.5 C11.55674805 4.36940186 10.67599609 4.23880371 9.76855469 4.10424805 C6.37929268 3.58628011 3.26128391 3.08709464 0 2 C0 1.34 0 0.68 0 0 Z " fill="#B5B6B6" transform="translate(249,339)"/>
<path d="M0 0 C15.2528195 0.52235683 33.27103681 3.41046493 45.16796875 13.9140625 C48.56346495 17.96284895 49.74378845 21.79667654 50.1875 27.01953125 C50 29 50 29 48 32 C47.97421875 31.34773438 47.9484375 30.69546875 47.921875 30.0234375 C47.46680625 23.01124181 46.00860645 19.00860645 40.9375 13.9375 C28.77939904 5.91832703 14.22184781 3.01277548 0 1 C0 0.67 0 0.34 0 0 Z " fill="#9A9A9A" transform="translate(362,137)"/>
<path d="M0 0 C1.65 0 3.3 0 5 0 C5 6.6 5 13.2 5 20 C3.35 20 1.7 20 0 20 C0 13.4 0 6.8 0 0 Z " fill="#FDDB00" transform="translate(212,271)"/>
<path d="M0 0 C0 2.64 0 5.28 0 8 C-3.43430411 8.86738365 -6.87284451 9.71660951 -10.3125 10.5625 C-11.28896484 10.80935547 -12.26542969 11.05621094 -13.27148438 11.31054688 C-14.20927734 11.53935547 -15.14707031 11.76816406 -16.11328125 12.00390625 C-16.97735596 12.21861572 -17.84143066 12.4333252 -18.73168945 12.65454102 C-21 13 -21 13 -24 12 C-20.18921997 9.99670983 -16.37609775 7.99792024 -12.5625 6 C-11.47388672 5.42765625 -10.38527344 4.8553125 -9.26367188 4.265625 C-8.22919922 3.72421875 -7.19472656 3.1828125 -6.12890625 2.625 C-5.17056885 2.12226563 -4.21223145 1.61953125 -3.22485352 1.1015625 C-1 0 -1 0 0 0 Z " fill="#D74B00" transform="translate(142,260)"/>
<path d="M0 0 C1.65 0 3.3 0 5 0 C5 6.27 5 12.54 5 19 C3.35 19 1.7 19 0 19 C0 12.73 0 6.46 0 0 Z " fill="#CF8A33" transform="translate(212,303)"/>
<path d="M0 0 C6.70646521 0.51732901 13.02235632 2.6398605 19.4375 4.5625 C21.1071582 5.0565332 21.1071582 5.0565332 22.81054688 5.56054688 C25.54169158 6.3693408 28.27141986 7.18260413 31 8 C28.80176957 10.2731701 26.99859658 11.87552628 24 13 C23.01 12.67 22.02 12.34 21 12 C21.66 11.01 22.32 10.02 23 9 C22.37955811 8.82871582 21.75911621 8.65743164 21.11987305 8.48095703 C18.30750758 7.70119231 15.49751336 6.91319683 12.6875 6.125 C11.71103516 5.85558594 10.73457031 5.58617187 9.72851562 5.30859375 C8.32182617 4.91220703 8.32182617 4.91220703 6.88671875 4.5078125 C5.59060669 4.14647217 5.59060669 4.14647217 4.26831055 3.77783203 C2 3 2 3 -1 1 C-0.67 0.67 -0.34 0.34 0 0 Z " fill="#0E0D0D" transform="translate(180,353)"/>
<path d="M0 0 C1.65 0 3.3 0 5 0 C5 5.28 5 10.56 5 16 C3.35 16 1.7 16 0 16 C0 10.72 0 5.44 0 0 Z " fill="#ECF6F8" transform="translate(419,237)"/>
<path d="M0 0 C0 2.31 0 4.62 0 7 C-5.94 7 -11.88 7 -18 7 C-15.70633124 4.70633124 -13.62719743 3.73545537 -10.6875 2.375 C-9.74261719 1.92898437 -8.79773438 1.48296875 -7.82421875 1.0234375 C-4.98965244 -0.00374974 -2.98377337 -0.20652712 0 0 Z " fill="#D04800" transform="translate(185,224)"/>
<path d="M0 0 C2.16015625 0.06640625 2.16015625 0.06640625 5.0625 0.5625 C6.20203125 0.75714844 7.3415625 0.95179688 8.515625 1.15234375 C18.36628041 2.98355533 28.18415055 4.99208223 38 7 C38 7.66 38 8.32 38 9 C29.31452954 8.41104485 20.88279826 6.69267598 12.375 4.9375 C10.97535237 4.65254277 9.57561329 4.36803431 8.17578125 4.08398438 C4.78278571 3.39448645 1.39106304 2.69894818 -2 2 C-1.34 1.34 -0.68 0.68 0 0 Z " fill="#252118" transform="translate(238,210)"/>
<path d="M0 0 C7.78593716 1.61088355 15.37428218 3.76543688 23 6 C22.67 6.99 22.34 7.98 22 9 C15.89453125 7.47363281 9.7890625 5.94726562 3.68359375 4.42089844 C2.95269531 4.23817383 2.22179687 4.05544922 1.46875 3.8671875 C0.3240625 3.58101563 -0.820625 3.29484375 -2 3 C-1.34 2.01 -0.68 1.02 0 0 Z " fill="#171716" transform="translate(157,346)"/>
<path d="M0 0 C0.33 0 0.66 0 1 0 C1 9.57 1 19.14 1 29 C0.67 29 0.34 29 0 29 C-0.33 32.96 -0.66 36.92 -1 41 C-1.33 41 -1.66 41 -2 41 C-2 32.42 -2 23.84 -2 15 C-1.67 15 -1.34 15 -1 15 C-0.67 10.05 -0.34 5.1 0 0 Z " fill="#969797" transform="translate(416,283)"/>
<path d="M0 0 C0 2.97 0 5.94 0 9 C-2.64 8.67 -5.28 8.34 -8 8 C-8 5.69 -8 3.38 -8 1 C-5.10765685 0.17361624 -3.11257569 0 0 0 Z " fill="#DADBDB" transform="translate(111,305)"/>
<path d="M0 0 C0.33 0 0.66 0 1 0 C1 2.64 1 5.28 1 8 C2.09699219 8.06058594 3.19398437 8.12117188 4.32421875 8.18359375 C5.77865654 8.26804498 7.23308305 8.35269066 8.6875 8.4375 C9.40873047 8.47681641 10.12996094 8.51613281 10.87304688 8.55664062 C14.66707282 8.78185678 18.28651492 9.12839305 22 10 C22 10.99 22 11.98 22 13 C17.00842012 12.41275531 12.03477296 11.73379359 7.0625 11 C5.93972656 10.835 4.81695312 10.67 3.66015625 10.5 C1 10 1 10 0 9 C-0.07179964 7.48071962 -0.08392007 5.95832518 -0.0625 4.4375 C-0.05347656 3.61121094 -0.04445313 2.78492188 -0.03515625 1.93359375 C-0.02355469 1.29550781 -0.01195313 0.65742188 0 0 Z " fill="#A5A6A6" transform="translate(111,305)"/>
<path d="M0 0 C0.99 0.495 0.99 0.495 2 1 C2.7019043 3.37670898 2.7019043 3.37670898 3.32421875 6.49609375 C3.54787109 7.61177734 3.77152344 8.72746094 4.00195312 9.87695312 C4.22818359 11.05193359 4.45441406 12.22691406 4.6875 13.4375 C4.92533203 14.60861328 5.16316406 15.77972656 5.40820312 16.98632812 C7.13046713 25.73906573 7.13046713 25.73906573 6 28 C5.34 28.33 4.68 28.66 4 29 C3.32821737 24.91749118 2.66346058 20.83386883 2 16.75 C1.80921875 15.59113281 1.6184375 14.43226563 1.421875 13.23828125 C1.24140625 12.12324219 1.0609375 11.00820313 0.875 9.859375 C0.70742188 8.83295898 0.53984375 7.80654297 0.3671875 6.74902344 C0 4 0 4 0 0 Z " fill="#AEAFB0" transform="translate(59,314)"/>
<path d="M0 0 C2.97 0.495 2.97 0.495 6 1 C6 1.66 6 2.32 6 3 C10.29 3 14.58 3 19 3 C19 4.65 19 6.3 19 8 C12.51292846 6.3186083 6.2322365 4.46937673 0 2 C0 1.34 0 0.68 0 0 Z " fill="#9B9C9C" transform="translate(337,230)"/>
<path d="M0 0 C7.25398658 0.47567125 13.26812223 2.29466594 20 5 C16.23375329 6.25541557 14.62811066 5.37061958 11 4 C11 4.66 11 5.32 11 6 C9.3501725 5.57781184 7.70516335 5.13675575 6.0625 4.6875 C5.14597656 4.44386719 4.22945313 4.20023437 3.28515625 3.94921875 C2.53105469 3.63597656 1.77695313 3.32273437 1 3 C0.67 2.01 0.34 1.02 0 0 Z " fill="#454545" transform="translate(94,328)"/>
<path d="M0 0 C6.93302093 -0.22731216 13.2168636 0.57997892 20 2 C20 2.66 20 3.32 20 4 C13.06697907 4.22731216 6.7831364 3.42002108 0 2 C0 1.34 0 0.68 0 0 Z " fill="#C1C1C1" transform="translate(249,339)"/>
<path d="M0 0 C0 1.65 0 3.3 0 5 C-3.63 4.67 -7.26 4.34 -11 4 C-11 3.34 -11 2.68 -11 2 C-7.36576791 -0.32590854 -4.22911669 -0.16265833 0 0 Z " fill="#EAD6AB" transform="translate(230,203)"/>
<path d="M0 0 C0.33 0 0.66 0 1 0 C1 7.59 1 15.18 1 23 C2.65 23 4.3 23 6 23 C6 23.99 6 24.98 6 26 C4.02 26 2.04 26 0 26 C0 17.42 0 8.84 0 0 Z " fill="#6B6A6A" transform="translate(365,308)"/>
<path d="M0 0 C2.86328125 0.20703125 2.86328125 0.20703125 6.3125 0.8125 C8.00826172 1.10060547 8.00826172 1.10060547 9.73828125 1.39453125 C12.49749577 1.90672077 15.25060448 2.43774088 18 3 C16 5 16 5 14.15234375 5.046875 C8.69094345 4.31483545 3.35460775 3.30384066 -2 2 C-1.34 1.34 -0.68 0.68 0 0 Z " fill="#2C271F" transform="translate(238,210)"/>
<path d="M0 0 C1.60433809 0.47859241 3.20846416 0.95789558 4.8125 1.4375 C6.15248047 1.83775391 6.15248047 1.83775391 7.51953125 2.24609375 C9.35473055 2.80387873 11.18033726 3.39344575 13 4 C13 4.99 13 5.98 13 7 C11.5608866 6.71640113 10.12374482 6.42278601 8.6875 6.125 C7.88699219 5.96257812 7.08648437 5.80015625 6.26171875 5.6328125 C4 5 4 5 1 3 C0.67 2.01 0.34 1.02 0 0 Z " fill="#191918" transform="translate(173,356)"/>
<path d="M0 0 C3.63 0.66 7.26 1.32 11 2 C11 2.99 11 3.98 11 5 C3.57142857 5.14285714 3.57142857 5.14285714 0 4 C0 2.68 0 1.36 0 0 Z " fill="#EBD7AC" transform="translate(219,208)"/>
<path d="M0 0 C0.66 0.33 1.32 0.66 2 1 C1.34 1.66 0.68 2.32 0 3 C0.33 3.66 0.66 4.32 1 5 C-0.43333021 5.39063507 -1.87192679 5.76198474 -3.3125 6.125 C-4.51326172 6.43824219 -4.51326172 6.43824219 -5.73828125 6.7578125 C-8 7 -8 7 -11 5 C-9.21289414 4.13633178 -7.4201535 3.28431406 -5.625 2.4375 C-4.62726563 1.96183594 -3.62953125 1.48617187 -2.6015625 0.99609375 C-1.74304688 0.66738281 -0.88453125 0.33867187 0 0 Z " fill="#C94600" transform="translate(376,201)"/>
<path d="M0 0 C9.41002278 -0.3690205 9.41002278 -0.3690205 14 2 C14 2.66 14 3.32 14 4 C9.30976546 3.43393721 4.65499974 2.81462495 0 2 C0 1.34 0 0.68 0 0 Z " fill="#A9AAAA" transform="translate(347,133)"/>
<path d="M0 0 C2.31 0.33 4.62 0.66 7 1 C4.88229834 3.32947183 2.96664412 4.88750845 0 6 C-0.99 5.67 -1.98 5.34 -3 5 C-2.67 4.34 -2.34 3.68 -2 3 C-1.34 3 -0.68 3 0 3 C0 2.01 0 1.02 0 0 Z " fill="#070706" transform="translate(204,360)"/>
<path d="M0 0 C0 1.98 0 3.96 0 6 C-1.65 6.66 -3.3 7.32 -5 8 C-5 6.02 -5 4.04 -5 2 C-1.125 0 -1.125 0 0 0 Z " fill="#E0E8E9" transform="translate(199,215)"/>
<path d="M0 0 C1.65 0 3.3 0 5 0 C5 1.98 5 3.96 5 6 C3.02 5.34 1.04 4.68 -1 4 C-0.67 2.68 -0.34 1.36 0 0 Z " fill="#C58330" transform="translate(44,159)"/>
<path d="M0 0 C2.31 0.33 4.62 0.66 7 1 C7 1.99 7 2.98 7 4 C3.37 3.67 -0.26 3.34 -4 3 C-2.68 2.67 -1.36 2.34 0 2 C0 1.34 0 0.68 0 0 Z " fill="#A6A6A6" transform="translate(269,341)"/>
<path d="M0 0 C3.3 0 6.6 0 10 0 C10 1.32 10 2.64 10 4 C6.7 3.01 3.4 2.02 0 1 C0 0.67 0 0.34 0 0 Z " fill="#D1D1D1" transform="translate(346,234)"/>
<path d="M0 0 C2.97 0 5.94 0 9 0 C8.01 0.495 8.01 0.495 7 1 C7 1.66 7 2.32 7 3 C4.69 2.67 2.38 2.34 0 2 C0 1.34 0 0.68 0 0 Z " fill="#C3C4C4" transform="translate(284,344)"/>
<path d="M0 0 C-0.75 2.4375 -0.75 2.4375 -2 5 C-4.125 5.8125 -4.125 5.8125 -6 6 C-3.84615385 0 -3.84615385 0 0 0 Z " fill="#12110D" transform="translate(177,243)"/>
<path d="M0 0 C-1.0625 1.5625 -1.0625 1.5625 -3 3 C-6.6875 2.6875 -6.6875 2.6875 -10 2 C-6.5980513 -0.09350689 -3.94727588 -0.17942163 0 0 Z " fill="#5D9527" transform="translate(64,226)"/>
<path d="M0 0 C-0.66 0.66 -1.32 1.32 -2 2 C-4.1640625 1.9765625 -4.1640625 1.9765625 -6.625 1.625 C-7.44226563 1.51414063 -8.25953125 1.40328125 -9.1015625 1.2890625 C-9.72804687 1.19367188 -10.35453125 1.09828125 -11 1 C-6.8204355 -1.78637633 -4.85331323 -0.79562512 0 0 Z " fill="#413B2E" transform="translate(256,213)"/>
<path d="M0 0 C2.31 0.33 4.62 0.66 7 1 C7 1.66 7 2.32 7 3 C5.02 3 3.04 3 1 3 C0.67 2.01 0.34 1.02 0 0 Z " fill="#EBEBEC" transform="translate(163,351)"/>
<path d="M0 0 C2.475 0.495 2.475 0.495 5 1 C5 1.66 5 2.32 5 3 C3.35 3.33 1.7 3.66 0 4 C0 2.68 0 1.36 0 0 Z " fill="#CBD2D4" transform="translate(210,212)"/>
<path d="M0 0 C1.98 0.66 3.96 1.32 6 2 C6 2.66 6 3.32 6 4 C4.35 4 2.7 4 1 4 C0.67 2.68 0.34 1.36 0 0 Z " fill="#BA7B2E" transform="translate(43,165)"/>
</svg>
