<?xml version="1.0" encoding="UTF-8"?>
<svg version="1.1" xmlns="http://www.w3.org/2000/svg" width="500" height="500">
<path d="M0 0 C0.96035156 0.75667969 1.92070312 1.51335937 2.91015625 2.29296875 C10.91507119 8.61627566 10.91507119 8.61627566 13 11 C13 11.66 13 12.32 13 13 C13.55429687 13.22042969 14.10859375 13.44085938 14.6796875 13.66796875 C22.27233346 18.02670995 28.34624443 27.24646249 33.6875 34.125 C34.12143066 34.68098877 34.55536133 35.23697754 35.00244141 35.80981445 C38 39.74969002 38 39.74969002 38 42 C38.66 42 39.32 42 40 42 C41.5141741 44.24400602 42.89709991 46.47332649 44.25 48.8125 C44.84735962 49.82896606 44.84735962 49.82896606 45.45678711 50.8659668 C55 67.1881118 55 67.1881118 55 70 C55.66 70.33 56.32 70.66 57 71 C61.36482697 78.82553834 64.00154838 87.51403994 66.75 96 C67.14832031 97.21300781 67.54664063 98.42601562 67.95703125 99.67578125 C68.68736092 101.90142997 69.4152068 104.12789654 70.13964844 106.35546875 C70.75253494 108.23934691 71.37353158 110.12059475 72 112 C75.76284672 130.23660362 78.0808185 148.35355507 78 167 C77.99726074 167.87269531 77.99452148 168.74539062 77.99169922 169.64453125 C77.77826141 189.85515176 73.68724704 209.35813732 67.73217773 228.60644531 C67.22879421 230.25205121 66.74222341 231.90286446 66.26977539 233.55761719 C64.75833873 238.819915 62.96298504 243.7069331 60.5625 248.625 C60.13227539 249.52992188 60.13227539 249.52992188 59.69335938 250.453125 C58.8073431 252.30803659 57.90522307 254.15439489 57 256 C56.69263916 256.63808594 56.38527832 257.27617187 56.06860352 257.93359375 C53.57606102 263.03824022 50.77863645 267.90695365 47.8125 272.75 C47.33490234 273.53205811 46.85730469 274.31411621 46.36523438 275.11987305 C42.82476298 280.84022631 39.0308387 286.22542055 34.875 291.51953125 C32.95370982 293.96884817 32.95370982 293.96884817 31.40234375 296.66796875 C29.65196058 299.57877307 27.4265129 301.63267034 25 304 C24.401875 304.78375 23.80375 305.5675 23.1875 306.375 C20.15120672 310.01855193 16.60760453 312.93582773 13 316 C11.60154502 317.20529822 10.2056457 318.41356895 8.8125 319.625 C8.20019531 320.15351563 7.58789062 320.68203125 6.95703125 321.2265625 C5.45928738 322.58379946 4.0168832 324.00233081 2.6015625 325.4453125 C-16.9825941 344.67660141 -44.37743456 356.66331603 -69.93603516 365.29492188 C-71.32663752 365.76997033 -72.71178799 366.26124929 -74.09130859 366.76757812 C-80.28964742 368.98196779 -86.50870063 370.10819246 -93 371.125 C-94.02867187 371.29386719 -95.05734375 371.46273438 -96.1171875 371.63671875 C-105.14239255 373.0949898 -113.8537717 374.14517823 -123 374 C-122.835 374.99 -122.67 375.98 -122.5 377 C-121.92289375 381.03974377 -121.85936062 384.9214581 -122 389 C-123.75439163 390.75439163 -126.05497456 390.11982963 -128.39170837 390.12442017 C-129.1642244 390.12082489 -129.93674042 390.11722961 -130.73266602 390.11352539 C-131.94720459 390.11374443 -131.94720459 390.11374443 -133.1862793 390.1139679 C-135.87551508 390.11326854 -138.56468249 390.1054751 -141.25390625 390.09765625 C-143.11335716 390.09579215 -144.97280856 390.09436821 -146.83226013 390.09336853 C-151.73629096 390.08954271 -156.64029236 390.07971188 -161.54431152 390.06866455 C-166.54451092 390.05845181 -171.54471506 390.05387121 -176.54492188 390.04882812 C-186.36329421 390.03808967 -196.18164466 390.02101248 -206 390 C-206.59339345 385.97389592 -207.1269879 382.0835271 -207.1328125 378.01171875 C-207.13410156 377.14095703 -207.13539063 376.27019531 -207.13671875 375.37304688 C-207.13285156 374.48681641 -207.12898437 373.60058594 -207.125 372.6875 C-207.12886719 371.78193359 -207.13273438 370.87636719 -207.13671875 369.94335938 C-207.13478516 368.64688477 -207.13478516 368.64688477 -207.1328125 367.32421875 C-207.13168457 366.54135498 -207.13055664 365.75849121 -207.12939453 364.9519043 C-207 363 -207 363 -206 361 C-206.639375 360.9175 -207.27875 360.835 -207.9375 360.75 C-211.4042646 359.90099642 -214.39582993 358.58162445 -217.62890625 357.08984375 C-219.10477295 356.41147998 -220.59057015 355.75383712 -222.08984375 355.12890625 C-233.80945298 350.21845545 -244.59500216 343.22167359 -255 336 C-255.59409668 335.58927246 -256.18819336 335.17854492 -256.80029297 334.75537109 C-258.68466048 333.44847892 -260.56221309 332.1323832 -262.4375 330.8125 C-263.01693359 330.40854004 -263.59636719 330.00458008 -264.19335938 329.58837891 C-267.81847288 327.0088089 -270.90948911 324.19157751 -274 321 C-274.94875 320.236875 -275.8975 319.47375 -276.875 318.6875 C-279.94103072 316.17397735 -282.44049975 313.32481362 -285.0078125 310.3125 C-287.32907508 307.6180148 -289.72312491 304.99781909 -292.125 302.375 C-293.75122021 300.58444079 -295.3763816 298.79291878 -297 297 C-297.49628906 296.45601563 -297.99257813 295.91203125 -298.50390625 295.3515625 C-302.60794555 290.66510178 -305.71656314 285.26893394 -309 280 C-310.2074015 278.12439981 -311.41571745 276.24938795 -312.625 274.375 C-321 261.19808126 -321 261.19808126 -321 258 C-321.66 257.67 -322.32 257.34 -323 257 C-323.95800781 255.0925293 -323.95800781 255.0925293 -324.953125 252.57421875 C-325.32236084 251.64174316 -325.69159668 250.70926758 -326.07202148 249.74853516 C-326.65512085 248.23332275 -326.65512085 248.23332275 -327.25 246.6875 C-327.64968994 245.6567334 -328.04937988 244.6259668 -328.46118164 243.56396484 C-333.2622233 230.97413782 -337.22493414 218.18764493 -340 205 C-340.185625 204.14792969 -340.37125 203.29585937 -340.5625 202.41796875 C-341.29124346 198.39035979 -341.75438973 194.3253529 -342.25 190.26367188 C-342.69621483 186.51280686 -342.69621483 186.51280686 -344 183 C-344.09889775 180.5865217 -344.13983482 178.20267908 -344.1328125 175.7890625 C-344.13424759 174.70399918 -344.13424759 174.70399918 -344.13571167 173.59701538 C-344.13639332 172.05865391 -344.13454008 170.52028957 -344.13037109 168.98193359 C-344.12509999 166.66887602 -344.13027571 164.35601963 -344.13671875 162.04296875 C-344.14633535 148.60421958 -343.04823055 136.03666729 -340.125 122.875 C-339.74021484 121.07869141 -339.74021484 121.07869141 -339.34765625 119.24609375 C-337.85374789 112.3921323 -336.15539458 105.67534208 -334 99 C-333.7628125 98.24984619 -333.525625 97.49969238 -333.28125 96.72680664 C-324.16772707 68.55021911 -308.69203236 43.03493053 -288.39453125 21.546875 C-286.44879182 19.47734465 -284.61317042 17.3813087 -282.8125 15.1875 C-279.56670945 11.36243239 -275.83308754 8.22031504 -272 5 C-271.15953125 4.26007813 -270.3190625 3.52015625 -269.453125 2.7578125 C-260.85710073 -4.67466152 -251.60811783 -10.94872333 -242 -17 C-241.3507959 -17.41137207 -240.7015918 -17.82274414 -240.03271484 -18.24658203 C-166.21883775 -64.30535897 -66.42390884 -53.62581514 0 0 Z " fill="#FDFDFD" transform="translate(383,72)"/>
<path d="M0 0 C0.96035156 0.75667969 1.92070312 1.51335937 2.91015625 2.29296875 C10.91507119 8.61627566 10.91507119 8.61627566 13 11 C13 11.66 13 12.32 13 13 C13.55429687 13.22042969 14.10859375 13.44085938 14.6796875 13.66796875 C22.27233346 18.02670995 28.34624443 27.24646249 33.6875 34.125 C34.12143066 34.68098877 34.55536133 35.23697754 35.00244141 35.80981445 C38 39.74969002 38 39.74969002 38 42 C38.66 42 39.32 42 40 42 C41.5141741 44.24400602 42.89709991 46.47332649 44.25 48.8125 C44.84735962 49.82896606 44.84735962 49.82896606 45.45678711 50.8659668 C55 67.1881118 55 67.1881118 55 70 C55.66 70.33 56.32 70.66 57 71 C61.36482697 78.82553834 64.00154838 87.51403994 66.75 96 C67.14832031 97.21300781 67.54664063 98.42601562 67.95703125 99.67578125 C68.68736092 101.90142997 69.4152068 104.12789654 70.13964844 106.35546875 C70.75253494 108.23934691 71.37353158 110.12059475 72 112 C75.76284672 130.23660362 78.0808185 148.35355507 78 167 C77.99726074 167.87269531 77.99452148 168.74539062 77.99169922 169.64453125 C77.77826141 189.85515176 73.68724704 209.35813732 67.73217773 228.60644531 C67.22879421 230.25205121 66.74222341 231.90286446 66.26977539 233.55761719 C64.75833873 238.819915 62.96298504 243.7069331 60.5625 248.625 C60.13227539 249.52992188 60.13227539 249.52992188 59.69335938 250.453125 C58.8073431 252.30803659 57.90522307 254.15439489 57 256 C56.69263916 256.63808594 56.38527832 257.27617187 56.06860352 257.93359375 C53.57606102 263.03824022 50.77863645 267.90695365 47.8125 272.75 C47.33490234 273.53205811 46.85730469 274.31411621 46.36523438 275.11987305 C42.82476298 280.84022631 39.0308387 286.22542055 34.875 291.51953125 C32.95370982 293.96884817 32.95370982 293.96884817 31.40234375 296.66796875 C29.65196058 299.57877307 27.4265129 301.63267034 25 304 C24.401875 304.78375 23.80375 305.5675 23.1875 306.375 C20.15120672 310.01855193 16.60760453 312.93582773 13 316 C11.60154502 317.20529822 10.2056457 318.41356895 8.8125 319.625 C8.20019531 320.15351563 7.58789062 320.68203125 6.95703125 321.2265625 C5.45928738 322.58379946 4.0168832 324.00233081 2.6015625 325.4453125 C-16.9825941 344.67660141 -44.37743456 356.66331603 -69.93603516 365.29492188 C-71.32663752 365.76997033 -72.71178799 366.26124929 -74.09130859 366.76757812 C-80.28964742 368.98196779 -86.50870063 370.10819246 -93 371.125 C-94.02867187 371.29386719 -95.05734375 371.46273438 -96.1171875 371.63671875 C-105.14239255 373.0949898 -113.8537717 374.14517823 -123 374 C-122.835 374.99 -122.67 375.98 -122.5 377 C-121.92289375 381.03974377 -121.85936062 384.9214581 -122 389 C-123.75439163 390.75439163 -126.05497456 390.11982963 -128.39170837 390.12442017 C-129.1642244 390.12082489 -129.93674042 390.11722961 -130.73266602 390.11352539 C-131.94720459 390.11374443 -131.94720459 390.11374443 -133.1862793 390.1139679 C-135.87551508 390.11326854 -138.56468249 390.1054751 -141.25390625 390.09765625 C-143.11335716 390.09579215 -144.97280856 390.09436821 -146.83226013 390.09336853 C-151.73629096 390.08954271 -156.64029236 390.07971188 -161.54431152 390.06866455 C-166.54451092 390.05845181 -171.54471506 390.05387121 -176.54492188 390.04882812 C-186.36329421 390.03808967 -196.18164466 390.02101248 -206 390 C-206.59339345 385.97389592 -207.1269879 382.0835271 -207.1328125 378.01171875 C-207.13410156 377.14095703 -207.13539063 376.27019531 -207.13671875 375.37304688 C-207.13285156 374.48681641 -207.12898437 373.60058594 -207.125 372.6875 C-207.12886719 371.78193359 -207.13273438 370.87636719 -207.13671875 369.94335938 C-207.13478516 368.64688477 -207.13478516 368.64688477 -207.1328125 367.32421875 C-207.13168457 366.54135498 -207.13055664 365.75849121 -207.12939453 364.9519043 C-207 363 -207 363 -206 361 C-206.639375 360.9175 -207.27875 360.835 -207.9375 360.75 C-211.4042646 359.90099642 -214.39582993 358.58162445 -217.62890625 357.08984375 C-219.10477295 356.41147998 -220.59057015 355.75383712 -222.08984375 355.12890625 C-233.80945298 350.21845545 -244.59500216 343.22167359 -255 336 C-255.59409668 335.58927246 -256.18819336 335.17854492 -256.80029297 334.75537109 C-258.68466048 333.44847892 -260.56221309 332.1323832 -262.4375 330.8125 C-263.01693359 330.40854004 -263.59636719 330.00458008 -264.19335938 329.58837891 C-267.81847288 327.0088089 -270.90948911 324.19157751 -274 321 C-274.94875 320.236875 -275.8975 319.47375 -276.875 318.6875 C-279.94103072 316.17397735 -282.44049975 313.32481362 -285.0078125 310.3125 C-287.32907508 307.6180148 -289.72312491 304.99781909 -292.125 302.375 C-293.75122021 300.58444079 -295.3763816 298.79291878 -297 297 C-297.49628906 296.45601563 -297.99257813 295.91203125 -298.50390625 295.3515625 C-302.60794555 290.66510178 -305.71656314 285.26893394 -309 280 C-310.2074015 278.12439981 -311.41571745 276.24938795 -312.625 274.375 C-321 261.19808126 -321 261.19808126 -321 258 C-321.66 257.67 -322.32 257.34 -323 257 C-323.95800781 255.0925293 -323.95800781 255.0925293 -324.953125 252.57421875 C-325.32236084 251.64174316 -325.69159668 250.70926758 -326.07202148 249.74853516 C-326.65512085 248.23332275 -326.65512085 248.23332275 -327.25 246.6875 C-327.64968994 245.6567334 -328.04937988 244.6259668 -328.46118164 243.56396484 C-333.2622233 230.97413782 -337.22493414 218.18764493 -340 205 C-340.185625 204.14792969 -340.37125 203.29585937 -340.5625 202.41796875 C-341.29124346 198.39035979 -341.75438973 194.3253529 -342.25 190.26367188 C-342.69621483 186.51280686 -342.69621483 186.51280686 -344 183 C-344.09889775 180.5865217 -344.13983482 178.20267908 -344.1328125 175.7890625 C-344.13424759 174.70399918 -344.13424759 174.70399918 -344.13571167 173.59701538 C-344.13639332 172.05865391 -344.13454008 170.52028957 -344.13037109 168.98193359 C-344.12509999 166.66887602 -344.13027571 164.35601963 -344.13671875 162.04296875 C-344.14633535 148.60421958 -343.04823055 136.03666729 -340.125 122.875 C-339.74021484 121.07869141 -339.74021484 121.07869141 -339.34765625 119.24609375 C-337.85374789 112.3921323 -336.15539458 105.67534208 -334 99 C-333.7628125 98.24984619 -333.525625 97.49969238 -333.28125 96.72680664 C-324.16772707 68.55021911 -308.69203236 43.03493053 -288.39453125 21.546875 C-286.44879182 19.47734465 -284.61317042 17.3813087 -282.8125 15.1875 C-279.56670945 11.36243239 -275.83308754 8.22031504 -272 5 C-271.15953125 4.26007813 -270.3190625 3.52015625 -269.453125 2.7578125 C-260.85710073 -4.67466152 -251.60811783 -10.94872333 -242 -17 C-241.3507959 -17.41137207 -240.7015918 -17.82274414 -240.03271484 -18.24658203 C-166.21883775 -64.30535897 -66.42390884 -53.62581514 0 0 Z M-261 33 C-261.93457031 33.88300781 -262.86914062 34.76601562 -263.83203125 35.67578125 C-295.57584281 66.35406627 -314.69891215 111.25618324 -316.37109375 155.19140625 C-316.93941506 189.07385562 -310.39998313 221.1148059 -294 251 C-293.51144531 251.96292969 -293.02289063 252.92585938 -292.51953125 253.91796875 C-278.92371922 280.30983915 -256.50541875 301.77703286 -232 318 C-231.07574219 318.62261719 -230.15148437 319.24523437 -229.19921875 319.88671875 C-188.72392219 346.06451538 -139.65171868 352.06273778 -93 343 C-86.16502439 341.4716682 -79.57741957 339.39129486 -73 337 C-72.17741699 336.70609375 -71.35483398 336.4121875 -70.50732422 336.109375 C-26.51579633 320.15853869 10.9729181 287.32331939 31.1875 244.921875 C38.69239212 228.81497729 44.45264505 212.94081788 47.625 195.4375 C47.74818604 194.7657373 47.87137207 194.09397461 47.99829102 193.40185547 C54.42772508 156.44260701 48.72262977 117.4841313 32 84 C31.47817139 82.92613037 31.47817139 82.92613037 30.94580078 81.83056641 C25.6720331 71.02477332 19.40193834 61.45756556 12 52 C11.29488281 51.07058594 10.58976562 50.14117187 9.86328125 49.18359375 C-20.27049464 10.66975828 -64.43501008 -11.88526882 -112.359375 -18.4609375 C-115.58308657 -18.78330866 -118.76011177 -18.91925512 -122 -19 C-122.89638184 -19.02578125 -123.79276367 -19.0515625 -124.71630859 -19.078125 C-176.63073125 -20.39637728 -223.46385581 -3.27970422 -261 33 Z " fill="#000000" transform="translate(383,72)"/>
<path d="M0 0 C0.67992004 0.00054382 1.35984009 0.00108765 2.06036377 0.00164795 C13.75570019 0.04449052 24.79710314 1.10294505 36.0625 4.375 C36.79033691 4.58398926 37.51817383 4.79297852 38.26806641 5.00830078 C50.84811922 8.75453556 72.049498 15.60142345 79.26171875 27.32421875 C80.54074997 30.5997865 79.90058932 33.02264274 79.0625 36.375 C77.5625 38.8125 77.5625 38.8125 75.0625 40.375 C71.23879469 41.24060258 67.70424919 41.35079019 64.26171875 39.3046875 C63.00848909 38.28765412 61.76462524 37.25903263 60.52734375 36.22265625 C39.56022141 20.5056216 11.69439972 17.52611968 -13.59375 19.6875 C-20.12551077 20.67077582 -26.34653738 22.60816792 -32.61328125 24.66796875 C-36.42493978 25.47867403 -39.15359137 25.24785815 -42.9375 24.375 C-46.08424823 21.63168103 -46.83704133 20.00007614 -47.5 15.875 C-46.77596832 11.36991397 -45.41508005 10.27067423 -41.9375 7.375 C-39.34183979 6.28549837 -36.99572044 5.43684467 -34.3125 4.6875 C-33.66410156 4.48833984 -33.01570312 4.28917969 -32.34765625 4.08398438 C-21.60299579 0.90231307 -11.18700654 -0.01516041 0 0 Z " fill="#030303" transform="translate(228.9375,345.625)"/>
<path d="M0 0 C2.46436951 2.09098019 2.94410876 2.62473027 3.4375 5.9375 C3 9 3 9 1.4375 11.4375 C-2.00058173 13.64139854 -4.01986577 12.65521637 -8 12 C-21.61774513 10.73189252 -29.77469495 13.37763959 -41.0859375 21.109375 C-47.2031808 25.07820309 -52.78612794 26.14697547 -60 25 C-64.52412658 22.91415468 -67.34311063 20.53274187 -69.3125 15.9375 C-69 13 -69 13 -66.875 10.125 C-64 8 -64 8 -61.3125 7.5625 C-59 8 -59 8 -57 10 C-51.54188003 10.79448617 -48.30265303 8.68240822 -43.9375 5.75 C-30.98308364 -2.40866847 -14.49700502 -7.52729107 0 0 Z " fill="#070707" transform="translate(231,246)"/>
<path d="M0 0 C14.88184981 4.02712577 24.48031601 12.94644496 32.3359375 25.83203125 C34.3639108 28.74445474 34.3639108 28.74445474 37.6796875 29.3828125 C40.53098129 29.54314518 40.53098129 29.54314518 43.19921875 29.3046875 C45.57421875 29.4921875 45.57421875 29.4921875 47.88671875 31.1171875 C49.57421875 33.4921875 49.57421875 33.4921875 50.13671875 36.4921875 C49.57421875 39.4921875 49.57421875 39.4921875 47.63671875 41.8046875 C43.59409304 44.03225677 40.17514724 44.68257075 35.57421875 44.4921875 C26.79952533 41.9202946 22.04792891 36.41123541 17.19921875 28.9921875 C12.37595047 21.64564492 6.86436678 17.3840996 -1.42578125 14.4921875 C-3.72598372 14.1923805 -3.72598372 14.1923805 -5.98828125 14.1171875 C-9.09618775 13.81157669 -10.3111362 13.56768546 -12.98828125 11.8046875 C-14.89116911 8.74352007 -15.01653204 7.03669225 -14.42578125 3.4921875 C-10.93084947 -2.04145449 -5.69529067 -1.19225086 0 0 Z " fill="#060606" transform="translate(322.42578125,262.5078125)"/>
<path d="M0 0 C0.680625 -0.01224609 1.36125 -0.02449219 2.0625 -0.03710938 C3.83490756 -0.04236355 5.6067994 0.06534094 7.375 0.1875 C8.365 1.1775 8.365 1.1775 9.375 2.1875 C9 5.8125 9 5.8125 8.375 9.1875 C6.6425 9.55875 6.6425 9.55875 4.875 9.9375 C3.04098713 10.35116536 1.20777343 10.76837739 -0.625 11.1875 C-1.87023437 11.46722656 -3.11546875 11.74695313 -4.3984375 12.03515625 C-12.62418409 13.94156948 -20.09221707 16.27228456 -27.625 20.1875 C-28.51445312 20.62835938 -29.40390625 21.06921875 -30.3203125 21.5234375 C-40.84124002 26.9487591 -49.88061625 34.13120268 -58.2734375 42.4375 C-61.09989074 44.54090706 -63.13508199 44.96576488 -66.625 45.1875 C-68.5 44.0625 -68.5 44.0625 -69.625 42.1875 C-70.13987204 38.78008838 -69.87638559 37.53118699 -67.81640625 34.71484375 C-51.80172136 18.93811852 -33.02936712 7.92698316 -11.625 1.1875 C-10.99335938 0.98382813 -10.36171875 0.78015625 -9.7109375 0.5703125 C-6.4869798 -0.02135015 -3.26604297 0.00312839 0 0 Z " fill="#060606" transform="translate(214.625,210.8125)"/>
<path d="M0 0 C12.81641381 1.19475044 25.43329474 15.61904623 33.36328125 24.87890625 C38.91157271 32.09052199 43.24427096 39.99330571 47.1640625 48.17578125 C47.45869385 48.78180176 47.7533252 49.38782227 48.05688477 50.01220703 C49.93764507 54.08653602 50.93773566 57.82124038 51.2265625 62.30078125 C49.6015625 64.80078125 49.6015625 64.80078125 47.2265625 66.30078125 C44.6640625 66.36328125 44.6640625 66.36328125 42.2265625 65.30078125 C39.93595794 62.00034027 38.40439323 58.48940322 36.88183594 54.78222656 C29.61194419 37.15084367 18.82398765 22.9652601 2.390625 13.23828125 C-0.54134627 11.44290131 -3.14299927 9.50759085 -5.7734375 7.30078125 C-4.70118469 0.50984679 -4.70118469 0.50984679 0 0 Z " fill="#060606" transform="translate(341.7734375,234.69921875)"/>
<path d="" fill="#000000" transform="translate(0,0)"/>
</svg>
