<?xml version="1.0" encoding="UTF-8"?>
<svg version="1.1" xmlns="http://www.w3.org/2000/svg" width="500" height="500">
<path d="M0 0 C3.78946188 1.76552862 6.4103012 4.13978156 9.31933594 7.09228516 C9.83685928 7.60951645 10.35438263 8.12674774 10.8875885 8.65965271 C12.59130289 10.36475671 14.28782978 12.07682768 15.984375 13.7890625 C17.16649407 14.974913 18.34905645 16.16032174 19.53204346 17.3453064 C22.64028728 20.46117638 25.74247737 23.58300634 28.84344482 26.70611572 C32.01048502 29.89363619 35.18321387 33.0754832 38.35546875 36.2578125 C44.57589642 42.49967217 50.78940606 48.74835576 57 55 C57.33 50.05 57.66 45.1 58 40 C62.28235248 39.1435295 65.74341346 38.87336502 70.06933594 38.87060547 C70.76096329 38.86885315 71.45259064 38.86710083 72.16517639 38.86529541 C74.43826853 38.86091399 76.71128215 38.86380047 78.984375 38.8671875 C80.56667089 38.8665137 82.14896667 38.86554304 83.73126221 38.86428833 C87.0397643 38.86281665 90.34823934 38.86495004 93.65673828 38.86962891 C97.90623994 38.87534458 102.15567869 38.87203227 106.40517807 38.86605644 C109.66842121 38.86245243 112.9316493 38.86358835 116.19489288 38.86618423 C117.76265724 38.86685298 119.33042295 38.86602689 120.89818573 38.86370468 C123.08157511 38.86117876 125.2648606 38.86501698 127.44824219 38.87060547 C129.31425079 38.87179886 129.31425079 38.87179886 131.21795654 38.87301636 C134 39 134 39 135 40 C134.88521057 42.68812711 134.70754973 45.34771204 134.49121094 48.02832031 C133.8393888 56.85425202 133.42892249 65.67376681 133.14173508 74.5188179 C132.95906105 79.86180255 132.69927668 85.17270942 132.23291016 90.49902344 C129.85636905 114.69997275 129.85636905 114.69997275 138.06523967 136.66829753 C142.92150449 141.5460546 148.35549881 145.73345884 153.75315754 149.99143688 C169.39765875 162.41870819 182.62481506 175.48009079 185.25815071 196.09002478 C186.83465463 210.51673133 186.27450097 225.17798585 185.65286285 239.64588801 C185.32048416 247.57069614 185.29242777 255.48025735 185.25720215 263.41345215 C185.02330794 284.21739403 184.39503737 305.01540034 183.8125 325.8125 C182.884375 372.404375 181.95625 418.99625 181 467 C62.2 467 -56.6 467 -179 467 C-193.31466059 297.06338684 -193.31466059 297.06338684 -191.14700532 259.55193543 C-191.01491043 257.24955804 -190.88325068 254.9472582 -190.7593548 252.64442274 C-186.68748484 177.21006665 -154.334862 129.66269773 -99.14821798 80.05703527 C-96.4794693 77.66948181 -93.79970599 75.2945971 -91.11484152 72.92519003 C-89.49475207 71.4953684 -87.87710891 70.06281682 -86.25971174 68.629951 C-58.67845897 44.22856858 -30.00389642 21.36956616 0 0 Z " fill="#010100" transform="translate(249,14)"/>
<path d="M0 0 C102.3 0 204.6 0 310 0 C310 80.52 310 161.04 310 244 C296.47 244 282.94 244 269 244 C269 198.79 269 153.58 269 107 C233.03 107 197.06 107 160 107 C160 152.21 160 197.42 160 244 C107.2 244 54.4 244 0 244 C0 163.48 0 82.96 0 0 Z " fill="#EFE58C" transform="translate(95,212)"/>
<path d="M0 0 C4.32097152 1.66119886 7.21185171 4.93864153 10.40161133 8.15869141 C11.03468704 8.78986877 11.66776276 9.42104614 12.32002258 10.0713501 C14.41227677 12.15989933 16.49723995 14.25556579 18.58203125 16.3515625 C20.03891614 17.80964017 21.49617163 19.26734763 22.95378113 20.72470093 C26.01078837 23.78327292 29.06440625 26.84517574 32.11547852 29.90966797 C36.01065354 33.82176487 39.91231 37.7273156 43.81633472 41.63057899 C46.82879019 44.64330768 49.83862202 47.65864607 52.84760094 50.67484665 C54.28420628 52.11461734 55.72140323 53.55379799 57.15921974 54.99235916 C59.17873258 57.01406223 61.19490609 59.03903885 63.21020508 61.06494141 C63.79590271 61.65018585 64.38160034 62.2354303 64.98504639 62.83840942 C68.67051898 66.55199208 72.13324824 70.40090537 75.51214123 74.3961544 C76.92733513 76.11015539 76.92733513 76.11015539 79 77 C79 77.66 79 78.32 79 79 C79.66 79 80.32 79 81 79 C81 79.66 81 80.32 81 81 C81.66 81 82.32 81 83 81 C83 81.66 83 82.32 83 83 C83.66 83 84.32 83 85 83 C86.33203125 84.35546875 86.33203125 84.35546875 87.8125 86.1875 C90.3622205 89.32509171 93.13410434 92.1556311 96 95 C97.4745671 96.46887291 98.94890811 97.93797278 100.4230957 99.40722656 C101.26358963 100.2444928 102.10408356 101.08175903 102.970047 101.94439697 C106.26112335 105.22391058 109.55038054 108.50524474 112.83901691 111.78720474 C115.33481098 114.27774723 117.83154753 116.76733057 120.33032227 119.25488281 C123.21904872 122.13072508 126.10377326 125.01055154 128.98828125 127.890625 C130.34280144 129.23740326 130.34280144 129.23740326 131.72468567 130.61138916 C132.54941879 131.43604675 133.37415192 132.26070435 134.22387695 133.11035156 C134.95492142 133.83917542 135.68596588 134.56799927 136.43916321 135.31890869 C138 137 138 137 138 138 C47.58 138 -42.84 138 -136 138 C-132.04194046 133.38226386 -128.12861038 128.98963803 -123.8269043 124.72924805 C-122.95017815 123.8547123 -122.95017815 123.8547123 -122.05574036 122.96250916 C-120.79975785 121.71030221 -119.54262258 120.4592506 -118.28442955 119.20926476 C-116.29437388 117.2320667 -114.30754164 115.25167895 -112.32148743 113.27046204 C-108.11296966 109.07331469 -103.90051312 104.88013434 -99.6875 100.6875 C-94.78658027 95.81017909 -89.88728721 90.93124691 -84.99216652 86.04810524 C-83.03258741 84.09501827 -81.07002786 82.14495987 -79.10734558 80.19499207 C-77.91345807 79.0047349 -76.71970951 77.81433834 -75.52612305 76.6237793 C-74.97810028 76.08092285 -74.43007751 75.53806641 -73.865448 74.97875977 C-71.08589869 72.25213364 -71.08589869 72.25213364 -69 69 C-68.34 69 -67.68 69 -67 69 C-67 68.34 -67 67.68 -67 67 C-66.34 67 -65.68 67 -65 67 C-64.505 65.515 -64.505 65.515 -64 64 C-63.34 64 -62.68 64 -62 64 C-61.67 63.01 -61.34 62.02 -61 61 C-60.34 61 -59.68 61 -59 61 C-58.78260162 60.45728455 -58.56520325 59.91456909 -58.34121704 59.35540771 C-56.54360832 56.19849775 -54.10562836 53.84349877 -51.54052734 51.31347656 C-50.98428177 50.75693893 -50.42803619 50.20040131 -49.85493469 49.6269989 C-48.01997095 47.79342558 -46.17803069 45.96703328 -44.3359375 44.140625 C-43.06040611 42.86882475 -41.78531633 41.59658147 -40.51065063 40.32391357 C-37.15804605 36.97893742 -33.79947827 33.64001149 -30.43963623 30.30230713 C-27.01082544 26.89397169 -23.58768427 23.47995255 -20.1640625 20.06640625 C-13.44824728 13.37202703 -6.72611906 6.68402534 0 0 Z " fill="#DB1D3B" transform="translate(249,49)"/>
<path d="M0 0 C27.72 0 55.44 0 84 0 C84 33.33 84 66.66 84 101 C56.28 101 28.56 101 0 101 C0 67.67 0 34.34 0 0 Z " fill="#000000" transform="translate(119,234)"/>
<path d="M0 0 C19.8 0 39.6 0 60 0 C60 37.29 60 74.58 60 113 C40.2 113 20.4 113 0 113 C0 75.71 0 38.42 0 0 Z " fill="#9F512B" transform="translate(280,343)"/>
<path d="M0 0 C11.88 0 23.76 0 36 0 C36 17.16 36 34.32 36 52 C24.12 52 12.24 52 0 52 C0 34.84 0 17.68 0 0 Z " fill="#B1DDE1" transform="translate(143,258)"/>
<path d="M0 0 C8.91 0 17.82 0 27 0 C27 14.85 27 29.7 27 45 C24.69 43.02 22.38 41.04 20 39 C19.13189697 38.26885986 18.26379395 37.53771973 17.36938477 36.78442383 C-0.13475564 21.80777921 -0.13475564 21.80777921 -1.30078125 13.46484375 C-1.560189 8.74683577 -0.73317232 4.83893734 0 0 Z " fill="#EAE088" transform="translate(332,78)"/>
</svg>
