<?xml version="1.0" standalone="no"?>
<!DOCTYPE svg PUBLIC "-//W3C//DTD SVG 20010904//EN"
 "http://www.w3.org/TR/2001/REC-SVG-20010904/DTD/svg10.dtd">
<svg version="1.0" xmlns="http://www.w3.org/2000/svg"
 width="500.000000pt" height="500.000000pt" viewBox="0 0 500.000000 500.000000"
 preserveAspectRatio="xMidYMid meet">

<g transform="translate(0.000000,500.000000) scale(0.100000,-0.100000)"
fill="#000000" stroke="none">
<path d="M3209 4510 l-66 -110 -86 70 c-47 39 -88 67 -90 63 -2 -5 -14 -38
-26 -74 l-22 -66 -87 -12 c-408 -57 -719 -237 -915 -533 -139 -209 -213 -438
-263 -815 l-18 -132 -43 -16 c-55 -21 -116 -91 -143 -161 -63 -169 29 -364
186 -398 30 -7 32 -11 54 -94 47 -182 133 -370 244 -537 36 -54 66 -100 66
-102 0 -2 -65 -3 -144 -3 l-143 0 -7 40 c-16 99 -109 282 -161 316 -39 26 -94
27 -300 10 -302 -26 -468 -47 -502 -63 -77 -36 -213 -218 -213 -284 0 -17 -9
-19 -95 -19 l-95 0 0 -65 0 -65 88 0 88 0 12 -136 c21 -231 63 -405 113 -469
65 -82 400 -165 578 -144 43 6 61 14 87 41 43 43 119 172 179 302 45 100 48
103 93 120 118 43 255 146 312 236 l32 50 105 0 105 0 56 -51 c71 -63 214
-160 306 -206 158 -79 387 -133 567 -133 584 0 1115 417 1332 1046 38 109 72
252 83 351 6 57 9 63 38 75 49 20 107 78 132 133 64 136 0 341 -127 406 -35
17 -39 23 -39 57 0 68 -40 264 -76 371 -104 311 -304 541 -603 691 -81 40
-272 104 -381 126 -47 10 -90 21 -97 26 -11 9 -28 89 -41 206 l-7 63 -66 -111z
m563 -1183 c72 -70 135 -126 140 -125 5 2 23 35 39 73 27 65 87 165 99 165 3
0 17 -31 32 -68 38 -92 141 -262 243 -397 l85 -113 0 -152 c0 -295 -55 -531
-183 -787 -188 -374 -506 -642 -877 -739 -129 -34 -355 -43 -485 -20 -210 37
-439 142 -583 267 l-33 29 115 0 115 0 27 -36 c37 -48 140 -120 222 -154 112
-47 215 -63 371 -57 148 5 221 22 332 75 245 118 351 352 251 555 -39 78 -139
177 -227 224 -33 17 -101 44 -150 59 -81 25 -105 27 -240 27 -177 0 -258 -18
-388 -85 -186 -97 -297 -276 -268 -431 l8 -47 -152 0 -153 0 -33 37 c-54 62
-157 226 -204 325 -56 118 -108 275 -134 403 -24 114 -47 379 -37 418 5 22 31
39 154 101 241 122 405 233 548 368 41 39 74 68 74 65 0 -3 -12 -33 -27 -67
l-26 -61 26 -27 26 -26 88 60 c104 70 285 241 340 321 l38 56 3 -42 c3 -36
-26 -233 -44 -307 l-7 -27 86 5 c77 4 96 9 172 47 98 49 234 170 331 297 l57
74 49 -77 c33 -52 93 -121 180 -206z m813 -452 c17 -58 14 -128 -7 -170 -11
-22 -69 -85 -77 -85 -4 0 -7 89 -8 198 l-2 197 39 -42 c26 -27 44 -60 55 -98z
m-2960 -423 c9 -54 -6 -55 -54 -4 -42 44 -61 97 -61 171 0 63 17 105 61 156
l34 38 6 -159 c4 -88 10 -179 14 -202z m1423 -414 l-3 -53 -42 -3 c-33 -2 -44
1 -57 20 -9 12 -16 35 -16 50 0 28 9 32 93 36 28 2 28 1 25 -50z m163 36 c9
-5 -1 -56 -14 -71 -5 -7 -29 -13 -53 -13 -41 0 -44 2 -44 28 0 15 -3 38 -7 50
-6 24 -5 24 53 17 32 -4 62 -9 65 -11z m-323 -36 c-2 -27 -9 -35 -41 -47 -40
-15 -50 -11 -61 26 -6 20 -1 24 41 37 65 20 65 20 61 -16z m438 7 c26 -11 34
-19 30 -31 -3 -8 -6 -20 -6 -24 0 -10 -58 7 -77 23 -18 13 -16 47 2 47 9 0 32
-7 51 -15z m-577 -77 c1 -12 -12 -21 -38 -29 -80 -24 -96 14 -23 54 50 27 59
24 61 -25z m707 15 c49 -31 51 -35 29 -53 -23 -19 -95 15 -95 45 0 42 10 43
66 8z m-86 -61 c19 -12 51 -27 70 -33 19 -7 52 -27 74 -46 31 -29 44 -34 72
-31 34 4 35 3 49 -46 18 -59 19 -92 4 -151 -10 -39 -13 -43 -30 -34 -22 12
-49 0 -94 -41 -16 -15 -39 -30 -50 -33 -11 -2 -28 -8 -37 -12 -16 -6 -18 -1
-18 44 l0 51 -45 0 -45 0 0 85 c0 51 -4 85 -10 85 -6 0 -4 13 5 30 25 49 19
88 -19 126 -19 19 -43 34 -53 34 -26 0 -35 10 -23 25 12 14 85 -12 150 -53z
m-375 18 c17 0 45 4 63 9 53 16 36 -2 -31 -31 -87 -39 -118 -43 -177 -24 -72
24 -94 11 -87 -52 2 -26 8 -55 12 -64 5 -13 2 -18 -9 -18 -13 0 -16 -14 -16
-85 l0 -85 -129 0 c-147 0 -141 -4 -140 100 1 79 20 126 50 123 41 -3 63 5 99
39 21 20 58 41 93 51 31 10 57 22 57 28 0 5 3 8 8 7 12 -4 102 24 108 33 2 5
19 -1 37 -11 18 -11 46 -20 62 -20z m-381 -26 c7 -18 -7 -40 -37 -55 -34 -19
-41 5 -12 40 30 35 40 38 49 15z m976 -56 c0 -14 -24 -8 -49 11 -17 13 -22 24
-17 36 6 16 10 15 36 -10 17 -16 30 -32 30 -37z m-335 19 c26 -22 27 -24 12
-59 -21 -50 -31 -53 -67 -17 -27 27 -36 31 -69 26 -21 -2 -67 -19 -102 -36
-82 -40 -169 -44 -193 -9 -33 47 -23 55 57 50 65 -4 80 -1 137 25 89 42 89 41
147 42 40 1 58 -4 78 -22z m-1727 -14 c60 -86 112 -231 114 -318 1 -69 -13
-101 -98 -233 -64 -99 -127 -162 -191 -194 -40 -19 -63 -23 -133 -22 -88 1
-140 12 -360 81 -107 33 -119 39 -166 88 -69 70 -97 143 -98 250 0 67 4 89 28
137 32 67 113 160 153 177 42 16 470 59 610 60 l122 1 19 -27z m1620 -100
c-10 -2 -26 -2 -35 0 -10 3 -2 5 17 5 19 0 27 -2 18 -5z m112 -114 l0 -59
-230 0 -230 0 0 53 c0 30 2 56 4 58 2 2 106 5 230 5 l226 2 0 -59z m344 -107
c3 -5 -7 -25 -22 -46 -24 -34 -27 -36 -39 -20 -18 25 -17 30 13 53 29 23 40
26 48 13z m-95 -91 c11 -20 -6 -40 -61 -74 l-27 -17 -10 38 c-14 50 -15 49 17
60 42 16 70 14 81 -7z m-1679 -1 c0 -19 -117 -125 -170 -154 l-53 -29 37 64
c20 35 44 79 53 97 16 31 19 32 75 32 32 0 58 -4 58 -10z m793 -10 c-5 -18 -7
-18 -29 -3 -31 20 -30 23 5 23 24 0 28 -3 24 -20z m146 11 c12 -8 12 -16 1
-55 -7 -26 -16 -49 -21 -52 -12 -7 -89 34 -96 52 -3 8 -1 26 5 40 10 20 19 24
54 24 24 0 49 -4 57 -9z m526 -3 c-16 -6 -35 -15 -42 -20 -6 -5 -75 -11 -152
-13 -77 -2 -145 -7 -151 -10 -6 -4 -19 0 -29 9 -9 9 -35 22 -57 30 -36 13 -18
15 211 15 188 -1 243 -3 220 -11z m71 -53 c9 -49 1 -62 -46 -76 -47 -14 -60
-5 -60 42 0 30 11 42 55 57 44 15 43 15 51 -23z m-478 -1 c14 -9 22 -24 22
-43 0 -54 -7 -60 -53 -49 -56 12 -61 19 -53 73 7 45 9 46 34 40 15 -3 37 -13
50 -21z m321 -18 c7 -8 15 -30 18 -50 4 -28 2 -36 -9 -36 -8 0 -35 -3 -60 -6
l-45 -6 -6 42 c-3 23 -3 49 0 56 7 19 87 19 102 0z m-141 -49 l3 -48 -63 3
-63 3 3 34 c4 51 18 62 71 59 l46 -3 3 -48z m-2340 -185 c67 -25 333 -102 389
-113 81 -15 208 -8 251 15 33 17 34 17 28 -2 -14 -43 -101 -193 -131 -226 -32
-35 -35 -36 -106 -36 -127 0 -307 38 -401 84 -59 29 -65 35 -85 88 -23 56 -44
148 -57 239 l-7 46 46 -42 c25 -24 58 -47 73 -53z"/>
<path d="M3462 2938 c-14 -14 -16 -44 -3 -52 5 -4 103 -20 217 -36 178 -26
210 -28 222 -16 19 19 6 55 -21 61 -28 6 -376 55 -391 55 -7 0 -17 -5 -24 -12z"/>
<path d="M2376 2920 c-128 -9 -162 -22 -140 -58 10 -15 28 -17 158 -13 80 1
179 6 219 10 72 6 72 6 72 36 l0 30 -95 1 c-52 1 -148 -2 -214 -6z"/>
<path d="M2922 2601 c-8 -5 -12 -17 -10 -27 3 -17 16 -19 154 -22 130 -2 153
0 165 14 11 14 11 18 -6 30 -21 16 -280 20 -303 5z"/>
</g>
</svg>
