<?xml version="1.0" encoding="UTF-8"?>
<!-- Generator: visioncortex VTracer 0.6.4 -->
<svg version="1.1" xmlns="http://www.w3.org/2000/svg" width="500" height="500">
<path d="M0 0 C1.36 -0.03 2.72 -0.06 4.08 -0.08 C5.18 -0.11 6.29 -0.15 7.42 -0.18 C11.43 0.29 13.2 2.09 15.63 5.16 C16.13 5.82 16.63 6.47 17.15 7.14 C18.35 8.26 19.58 9.34 20.83 10.39 C23.81 12.95 26.71 15.58 29.58 18.25 C34.04 22.4 38.54 26.32 43.48 29.89 C45.95 31.75 48.02 33.91 50.15 36.14 C54.63 40.74 59.19 45.16 64.06 49.34 C67.15 52.01 70.15 54.78 73.16 57.54 C75.15 59.34 75.15 59.34 78.15 60.14 C78.17 106.23 78.19 152.31 78.2 198.39 C78.2 203.83 78.2 209.26 78.2 214.7 C78.2 216.32 78.2 216.32 78.2 217.98 C78.21 235.52 78.21 253.06 78.22 270.6 C78.23 288.59 78.24 306.58 78.24 324.57 C78.24 335.67 78.24 346.78 78.25 357.89 C78.26 365.5 78.26 373.1 78.26 380.71 C78.26 385.11 78.26 389.5 78.26 393.9 C78.27 397.91 78.27 401.93 78.27 405.95 C78.27 407.41 78.27 408.87 78.27 410.33 C78.27 412.3 78.27 414.27 78.27 416.24 C78.27 417.34 78.27 418.44 78.27 419.57 C78.15 422.14 78.15 422.14 77.15 424.14 C68.86 425.52 60.55 425.2 52.18 425.1 C46.51 425.06 40.94 425.19 35.29 425.64 C27.02 426.3 18.79 426.21 10.5 426.12 C8.53 426.1 6.57 426.09 4.61 426.08 C2.89 426.06 2.89 426.06 1.13 426.05 C-1.71 426.03 -1.71 426.03 -3.8 426.64 C-6.91 427.4 -10.01 427.24 -13.19 427.21 C-14.7 427.2 -16.22 427.19 -17.74 427.18 C-18.54 427.17 -19.34 427.17 -20.17 427.16 C-34.99 427.05 -49.79 427.19 -64.6 427.58 C-65.39 427.6 -66.18 427.62 -67 427.64 C-75.39 427.85 -83.76 428.17 -92.14 428.68 C-99.62 429.12 -107.05 429.23 -114.54 429.14 C-126.43 429.07 -138.28 429.34 -150.16 429.79 C-157 430.04 -163.81 430.16 -170.64 430.13 C-176.14 430.15 -181.62 430.41 -187.1 430.64 C-194.9 430.96 -202.68 431.22 -210.48 431.14 C-214.65 431.11 -218.66 431.14 -222.79 431.71 C-233.48 433.01 -240.93 429.53 -250.16 424.58 C-255.17 421.91 -260.22 419.31 -265.26 416.69 C-266.53 416.03 -267.81 415.37 -269.08 414.71 C-277.39 410.39 -285.74 406.23 -294.23 402.28 C-302.94 398.22 -311.39 393.68 -319.85 389.14 C-330.09 383.68 -340.37 378.33 -350.77 373.18 C-362.39 367.41 -373.96 361.54 -385.48 355.58 C-395.57 350.36 -405.68 345.19 -415.85 340.14 C-415.52 339.15 -415.19 338.16 -414.85 337.14 C-414.77 335.46 -414.74 333.78 -414.74 332.09 C-414.74 331.07 -414.74 330.04 -414.74 328.98 C-414.75 327.87 -414.75 326.76 -414.76 325.62 C-414.76 324.48 -414.76 323.34 -414.76 322.16 C-414.77 318.51 -414.78 314.86 -414.79 311.21 C-414.8 308.75 -414.8 306.29 -414.81 303.83 C-414.82 298.41 -414.83 293 -414.85 287.58 C-414.86 283.73 -414.85 279.88 -414.85 276.04 C-414.83 261.57 -414.81 247.11 -414.8 232.64 C-414.8 225.22 -414.79 217.79 -414.78 210.37 C-414.77 203.87 -414.76 197.37 -414.76 190.88 C-414.76 187.45 -414.76 184.03 -414.75 180.61 C-414.71 162.09 -415.09 143.64 -415.85 125.14 C-414.2 125.14 -412.55 125.14 -410.85 125.14 C-411.16 124.57 -411.47 123.99 -411.79 123.39 C-412.78 121.29 -413.33 119.39 -413.85 117.14 C-404.11 116.37 -394.39 115.89 -384.62 115.61 C-383.21 115.57 -381.79 115.52 -380.38 115.48 C-377.45 115.39 -374.51 115.3 -371.58 115.21 C-367.84 115.1 -364.11 114.99 -360.38 114.87 C-357.47 114.78 -354.56 114.7 -351.65 114.61 C-350.27 114.57 -348.9 114.53 -347.52 114.48 C-339.96 114.25 -332.42 114.08 -324.85 114.14 C-324.98 112.19 -324.98 112.19 -325.11 110.19 C-326.18 91.15 -325.54 72.19 -324.85 53.14 C-323.8 52.7 -322.75 52.26 -321.66 51.8 C-316.76 49.7 -312.07 47.24 -307.35 44.77 C-306.35 44.24 -305.34 43.72 -304.31 43.18 C-296.27 38.95 -288.38 34.52 -280.5 30.01 C-272.8 25.63 -264.99 21.48 -257.09 17.45 C-256.22 17 -255.35 16.55 -254.44 16.09 C-253.6 15.66 -252.75 15.23 -251.87 14.79 C-248.81 13.18 -248.81 13.18 -245.89 11.14 C-236.1 4.77 -228.18 3.98 -216.69 4.03 C-214.87 4.01 -213.06 3.98 -211.24 3.95 C-207.31 3.9 -203.38 3.87 -199.45 3.86 C-193.12 3.84 -186.8 3.76 -180.47 3.68 C-173.58 3.59 -166.68 3.5 -159.79 3.43 C-140.37 3.23 -120.95 2.83 -101.54 2.37 C-100.79 2.36 -100.05 2.34 -99.28 2.32 C-91.04 2.13 -82.8 1.93 -74.56 1.73 C-62.28 1.44 -50 1.15 -37.73 0.87 C-33.21 0.76 -28.69 0.66 -24.18 0.55 C-18.66 0.42 -13.15 0.31 -7.64 0.2 C-5.09 0.15 -2.55 0.08 0 0 Z M-347.85 119.14 C-347.85 120.46 -347.85 121.78 -347.85 123.14 C-345.54 123.14 -343.23 123.14 -340.85 123.14 C-340.85 121.49 -340.85 119.84 -340.85 118.14 C-344.75 117.93 -344.75 117.93 -347.85 119.14 Z M-337.85 118.14 C-337.85 119.79 -337.85 121.44 -337.85 123.14 C-335.54 123.14 -333.23 123.14 -330.85 123.14 C-330.85 121.49 -330.85 119.84 -330.85 118.14 C-333.16 118.14 -335.47 118.14 -337.85 118.14 Z M-327.85 118.14 C-327.85 119.46 -327.85 120.78 -327.85 122.14 C-326.86 122.14 -325.87 122.14 -324.85 122.14 C-324.85 120.82 -324.85 119.5 -324.85 118.14 C-325.84 118.14 -326.83 118.14 -327.85 118.14 Z M-377.85 119.14 C-377.52 120.79 -377.19 122.44 -376.85 124.14 C-374.87 124.14 -372.89 124.14 -370.85 124.14 C-370.85 122.49 -370.85 120.84 -370.85 119.14 C-373.16 119.14 -375.47 119.14 -377.85 119.14 Z M-367.85 119.14 C-367.85 120.79 -367.85 122.44 -367.85 124.14 C-364.39 123.65 -364.39 123.65 -360.85 123.14 C-361.51 121.82 -362.17 120.5 -362.85 119.14 C-364.5 119.14 -366.15 119.14 -367.85 119.14 Z M-357.85 119.14 C-357.85 120.46 -357.85 121.78 -357.85 123.14 C-355.54 123.14 -353.23 123.14 -350.85 123.14 C-350.85 121.82 -350.85 120.5 -350.85 119.14 C-353.16 119.14 -355.47 119.14 -357.85 119.14 Z M-407.85 120.14 C-407.85 121.79 -407.85 123.44 -407.85 125.14 C-405.54 125.14 -403.23 125.14 -400.85 125.14 C-400.85 123.49 -400.85 121.84 -400.85 120.14 C-403.16 120.14 -405.47 120.14 -407.85 120.14 Z M-397.85 120.14 C-397.85 121.79 -397.85 123.44 -397.85 125.14 C-394.39 124.65 -394.39 124.65 -390.85 124.14 C-390.85 122.82 -390.85 121.5 -390.85 120.14 C-393.16 120.14 -395.47 120.14 -397.85 120.14 Z M-387.85 120.14 C-387.85 121.46 -387.85 122.78 -387.85 124.14 C-385.54 124.14 -383.23 124.14 -380.85 124.14 C-380.85 122.82 -380.85 121.5 -380.85 120.14 C-383.16 120.14 -385.47 120.14 -387.85 120.14 Z " fill="#DDDDDD" transform="translate(418.8548889160156,54.85650634765625)"/>
<path d="M0 0 C1.36 -0.03 2.72 -0.06 4.08 -0.08 C5.18 -0.11 6.29 -0.15 7.42 -0.18 C11.43 0.29 13.2 2.09 15.63 5.16 C16.13 5.82 16.63 6.47 17.15 7.14 C18.35 8.26 19.58 9.34 20.83 10.39 C23.81 12.95 26.71 15.58 29.58 18.25 C34.04 22.4 38.54 26.32 43.48 29.89 C45.95 31.75 48.02 33.91 50.15 36.14 C54.63 40.74 59.19 45.16 64.06 49.34 C67.15 52.01 70.15 54.78 73.16 57.54 C75.15 59.34 75.15 59.34 78.15 60.14 C78.15 105.02 78.15 149.9 78.15 196.14 C73.86 196.47 69.57 196.8 65.15 197.14 C66.35 198.29 66.35 198.29 67.58 199.46 C70.78 202.81 71.27 205 71.27 209.45 C71.27 210.77 71.27 210.77 71.27 212.12 C71.27 213.08 71.26 214.04 71.26 215.03 C71.26 216.05 71.26 217.06 71.26 218.11 C71.26 221.47 71.25 224.83 71.24 228.19 C71.24 230.51 71.24 232.84 71.24 235.17 C71.23 241.3 71.22 247.43 71.21 253.56 C71.2 259.81 71.2 266.07 71.19 272.32 C71.18 284.6 71.17 296.87 71.15 309.14 C69.83 309.14 68.51 309.14 67.15 309.14 C67.13 307.86 67.12 306.58 67.11 305.27 C67.02 293.22 66.91 281.16 66.81 269.11 C66.75 262.92 66.7 256.72 66.65 250.53 C66.6 244.55 66.55 238.57 66.49 232.59 C66.47 230.31 66.45 228.03 66.44 225.75 C66.41 222.55 66.38 219.36 66.35 216.17 C66.34 215.22 66.34 214.28 66.33 213.3 C66.29 209.13 66.2 205.21 65.15 201.14 C63.12 201.12 61.1 201.1 59.08 201.08 C57.39 201.06 57.39 201.06 55.67 201.05 C51.55 201.09 51.55 201.09 45.15 202.14 C45.15 211.71 45.15 221.28 45.15 231.14 C38.4 230.02 38.4 230.02 35.35 228.73 C34.7 228.47 34.05 228.2 33.38 227.92 C32.73 227.64 32.07 227.37 31.4 227.08 C26.92 224.98 26.92 224.98 22.15 224.14 C21.95 225.14 21.76 226.14 21.56 227.17 C21.17 229.11 21.17 229.11 20.77 231.08 C20.51 232.37 20.26 233.66 20 234.98 C19.58 236.55 19.58 236.55 19.15 238.14 C12.4 241.52 3.85 238.2 -2.85 236.14 C-3.39 232.54 -3.9 228.94 -4.42 225.33 C-4.57 224.31 -4.72 223.28 -4.88 222.23 C-5.01 221.24 -5.15 220.26 -5.3 219.25 C-5.43 218.34 -5.56 217.44 -5.69 216.5 C-5.85 214.14 -5.85 214.14 -4.85 211.14 C-4.63 209.25 -4.45 207.35 -4.29 205.46 C-4.21 204.46 -4.12 203.47 -4.04 202.44 C-3.98 201.69 -3.92 200.93 -3.85 200.14 C-4.76 200.19 -5.66 200.24 -6.59 200.3 C-15.16 200.77 -23.74 201.24 -32.31 201.71 C-36.72 201.95 -41.12 202.19 -45.53 202.43 C-49.8 202.67 -54.06 202.9 -58.33 203.13 C-59.94 203.22 -61.55 203.31 -63.17 203.4 C-74.08 204.02 -84.92 204.22 -95.85 204.14 C-95.85 210.08 -95.85 216.02 -95.85 222.14 C-102.5 222.96 -109.09 223.39 -115.78 223.61 C-116.83 223.65 -117.87 223.68 -118.95 223.72 C-122.35 223.84 -125.76 223.96 -129.17 224.08 C-133.94 224.25 -138.71 224.42 -143.48 224.6 C-145.28 224.66 -145.28 224.66 -147.12 224.73 C-155.04 225.02 -162.97 225.37 -170.89 225.75 C-172.41 225.83 -172.41 225.83 -173.96 225.9 C-178.73 226.13 -183.51 226.37 -188.28 226.62 C-189.99 226.71 -191.7 226.79 -193.41 226.87 C-194.17 226.92 -194.93 226.96 -195.71 227 C-201.87 227.3 -207.56 226.76 -213.41 224.77 C-214.19 224.51 -214.97 224.24 -215.77 223.97 C-216.56 223.7 -217.35 223.43 -218.17 223.14 C-218.98 222.87 -219.79 222.6 -220.62 222.32 C-226.51 220.31 -226.51 220.31 -228.85 219.14 C-228.69 219.65 -228.53 220.16 -228.36 220.68 C-227.68 224 -227.74 227.15 -227.76 230.53 C-227.76 231.59 -227.76 231.59 -227.76 232.67 C-227.77 234.91 -227.78 237.15 -227.79 239.39 C-227.8 240.92 -227.8 242.44 -227.81 243.96 C-227.82 247.69 -227.83 251.42 -227.85 255.14 C-231.47 257.12 -233.96 257.36 -238.1 257.27 C-239.18 257.25 -240.26 257.23 -241.37 257.21 C-242.6 257.18 -242.6 257.18 -243.85 257.14 C-245.16 252.85 -244.51 249.54 -243.85 245.14 C-246.16 244.81 -248.47 244.48 -250.85 244.14 C-250.85 244.8 -250.85 245.46 -250.85 246.14 C-253.48 246.2 -256.1 246.24 -258.73 246.27 C-259.48 246.29 -260.22 246.3 -260.99 246.32 C-262.95 246.34 -264.9 246.25 -266.85 246.14 C-269.21 243.79 -269.13 243.21 -269.27 240.01 C-269.31 239.21 -269.35 238.4 -269.39 237.57 C-269.43 236.31 -269.43 236.31 -269.48 235.02 C-269.52 234.17 -269.56 233.32 -269.6 232.44 C-269.69 230.34 -269.77 228.24 -269.85 226.14 C-270.62 227.05 -271.38 227.96 -272.16 228.89 C-292.47 252.91 -292.47 252.91 -306.97 259.57 C-310.34 261.41 -312.02 263.37 -314.35 266.39 C-315.12 267.37 -315.89 268.34 -316.68 269.34 C-317.39 270.26 -318.11 271.19 -318.85 272.14 C-324.86 279.6 -324.86 279.6 -329.77 280.49 C-336.13 280.95 -339.76 278.79 -344.89 275.16 C-346.85 273.14 -346.85 273.14 -347.33 270.6 C-347.62 267.94 -347.62 267.94 -350.07 266.41 C-351.42 265.69 -351.42 265.69 -352.79 264.96 C-357.74 262.26 -357.74 262.26 -359.85 260.14 C-359.66 254.26 -358.67 250.8 -354.85 246.14 C-351.29 242.92 -348.16 241.32 -343.59 239.88 C-342.39 239.48 -341.19 239.09 -339.95 238.68 C-337.45 237.87 -334.95 237.08 -332.44 236.29 C-323.77 233.4 -318.2 229.66 -311.85 223.14 C-311.08 222.45 -310.3 221.75 -309.5 221.04 C-307.04 218.81 -305.93 217.3 -304.85 214.14 C-305.3 208.73 -306.62 203.76 -308.16 198.57 C-309.07 195.41 -309.81 192.22 -310.54 189.01 C-311.29 185.72 -312.07 182.43 -312.85 179.14 C-312.36 193 -312.36 193 -311.85 207.14 C-313.83 207.14 -315.81 207.14 -317.85 207.14 C-318.35 196.75 -318.35 196.75 -318.85 186.14 C-320.17 185.81 -321.49 185.48 -322.85 185.14 C-322.85 173.92 -322.85 162.7 -322.85 151.14 C-324.5 151.14 -326.15 151.14 -327.85 151.14 C-327.84 151.7 -327.82 152.25 -327.8 152.82 C-327.63 158.6 -327.47 164.37 -327.32 170.15 C-327.26 172.31 -327.2 174.46 -327.13 176.62 C-327.04 179.71 -326.96 182.81 -326.88 185.91 C-326.85 186.87 -326.81 187.84 -326.78 188.83 C-326.76 189.73 -326.74 190.63 -326.72 191.56 C-326.69 192.74 -326.69 192.74 -326.65 193.95 C-326.85 196.14 -326.85 196.14 -328.85 200.14 C-335.78 200.14 -342.71 200.14 -349.85 200.14 C-349.52 198.82 -349.19 197.5 -348.85 196.14 C-348.74 194.65 -348.68 193.15 -348.65 191.65 C-348.63 190.77 -348.61 189.89 -348.59 188.98 C-348.57 188.04 -348.56 187.1 -348.54 186.13 C-348.51 184.67 -348.51 184.67 -348.48 183.19 C-348.41 180.09 -348.35 176.99 -348.29 173.89 C-348.25 171.79 -348.21 169.69 -348.16 167.59 C-348.05 162.44 -347.95 157.29 -347.85 152.14 C-350.82 152.14 -353.79 152.14 -356.85 152.14 C-356.81 153.42 -356.77 154.7 -356.73 156.01 C-356.58 160.75 -356.45 165.5 -356.32 170.24 C-356.26 172.29 -356.2 174.34 -356.13 176.39 C-356.04 179.35 -355.96 182.3 -355.88 185.25 C-355.85 186.16 -355.81 187.08 -355.78 188.02 C-355.76 188.88 -355.74 189.74 -355.72 190.63 C-355.7 191.38 -355.68 192.13 -355.65 192.91 C-355.85 195.14 -355.85 195.14 -357.85 200.14 C-364.78 200.14 -371.71 200.14 -378.85 200.14 C-378.52 198.49 -378.19 196.84 -377.85 195.14 C-377.75 193.64 -377.68 192.13 -377.65 190.63 C-377.62 189.34 -377.62 189.34 -377.59 188.02 C-377.57 187.11 -377.56 186.19 -377.54 185.25 C-377.52 184.3 -377.5 183.35 -377.48 182.38 C-377.41 179.36 -377.35 176.35 -377.29 173.33 C-377.25 171.28 -377.21 169.23 -377.16 167.18 C-377.05 162.17 -376.95 157.16 -376.85 152.14 C-379.49 152.14 -382.13 152.14 -384.85 152.14 C-384.84 153.02 -384.83 153.9 -384.82 154.81 C-384.76 164.06 -385.08 173.24 -385.65 182.47 C-385.79 184.74 -385.93 187 -386.06 189.26 C-386.77 201.28 -386.77 201.28 -387.85 207.14 C-389.83 207.14 -391.81 207.14 -393.85 207.14 C-394.01 198.86 -393.54 190.71 -392.85 182.46 C-392.76 181.27 -392.66 180.08 -392.57 178.85 C-392.33 175.95 -392.1 173.04 -391.85 170.14 C-392.15 171.14 -392.44 172.13 -392.74 173.16 C-397.34 188.85 -402.01 204.52 -406.85 220.14 C-408.5 220.14 -410.15 220.14 -411.85 220.14 C-413.27 216.34 -412.41 213.8 -411.22 210 C-410.84 208.76 -410.46 207.52 -410.07 206.24 C-409.65 204.89 -409.22 203.54 -408.8 202.19 C-408.37 200.81 -407.94 199.42 -407.51 198.04 C-406.39 194.4 -405.25 190.76 -404.12 187.13 C-402.96 183.42 -401.81 179.7 -400.66 175.99 C-398.4 168.7 -396.13 161.42 -393.85 154.14 C-400.78 154.14 -407.71 154.14 -414.85 154.14 C-415.18 144.57 -415.51 135 -415.85 125.14 C-414.2 125.14 -412.55 125.14 -410.85 125.14 C-411.16 124.57 -411.47 123.99 -411.79 123.39 C-412.78 121.29 -413.33 119.39 -413.85 117.14 C-404.11 116.37 -394.39 115.89 -384.62 115.61 C-383.21 115.57 -381.79 115.52 -380.38 115.48 C-377.45 115.39 -374.51 115.3 -371.58 115.21 C-367.84 115.1 -364.11 114.99 -360.38 114.87 C-357.47 114.78 -354.56 114.7 -351.65 114.61 C-350.27 114.57 -348.9 114.53 -347.52 114.48 C-339.96 114.25 -332.42 114.08 -324.85 114.14 C-324.98 112.19 -324.98 112.19 -325.11 110.19 C-326.18 91.15 -325.54 72.19 -324.85 53.14 C-323.8 52.7 -322.75 52.26 -321.66 51.8 C-316.76 49.7 -312.07 47.24 -307.35 44.77 C-306.35 44.24 -305.34 43.72 -304.31 43.18 C-296.27 38.95 -288.38 34.52 -280.5 30.01 C-272.8 25.63 -264.99 21.48 -257.09 17.45 C-256.22 17 -255.35 16.55 -254.44 16.09 C-253.6 15.66 -252.75 15.23 -251.87 14.79 C-248.81 13.18 -248.81 13.18 -245.89 11.14 C-236.1 4.77 -228.18 3.98 -216.69 4.03 C-214.87 4.01 -213.06 3.98 -211.24 3.95 C-207.31 3.9 -203.38 3.87 -199.45 3.86 C-193.12 3.84 -186.8 3.76 -180.47 3.68 C-173.58 3.59 -166.68 3.5 -159.79 3.43 C-140.37 3.23 -120.95 2.83 -101.54 2.37 C-100.79 2.36 -100.05 2.34 -99.28 2.32 C-91.04 2.13 -82.8 1.93 -74.56 1.73 C-62.28 1.44 -50 1.15 -37.73 0.87 C-33.21 0.76 -28.69 0.66 -24.18 0.55 C-18.66 0.42 -13.15 0.31 -7.64 0.2 C-5.09 0.15 -2.55 0.08 0 0 Z M-347.85 119.14 C-347.85 120.46 -347.85 121.78 -347.85 123.14 C-345.54 123.14 -343.23 123.14 -340.85 123.14 C-340.85 121.49 -340.85 119.84 -340.85 118.14 C-344.75 117.93 -344.75 117.93 -347.85 119.14 Z M-337.85 118.14 C-337.85 119.79 -337.85 121.44 -337.85 123.14 C-335.54 123.14 -333.23 123.14 -330.85 123.14 C-330.85 121.49 -330.85 119.84 -330.85 118.14 C-333.16 118.14 -335.47 118.14 -337.85 118.14 Z M-327.85 118.14 C-327.85 119.46 -327.85 120.78 -327.85 122.14 C-326.86 122.14 -325.87 122.14 -324.85 122.14 C-324.85 120.82 -324.85 119.5 -324.85 118.14 C-325.84 118.14 -326.83 118.14 -327.85 118.14 Z M-377.85 119.14 C-377.52 120.79 -377.19 122.44 -376.85 124.14 C-374.87 124.14 -372.89 124.14 -370.85 124.14 C-370.85 122.49 -370.85 120.84 -370.85 119.14 C-373.16 119.14 -375.47 119.14 -377.85 119.14 Z M-367.85 119.14 C-367.85 120.79 -367.85 122.44 -367.85 124.14 C-364.39 123.65 -364.39 123.65 -360.85 123.14 C-361.51 121.82 -362.17 120.5 -362.85 119.14 C-364.5 119.14 -366.15 119.14 -367.85 119.14 Z M-357.85 119.14 C-357.85 120.46 -357.85 121.78 -357.85 123.14 C-355.54 123.14 -353.23 123.14 -350.85 123.14 C-350.85 121.82 -350.85 120.5 -350.85 119.14 C-353.16 119.14 -355.47 119.14 -357.85 119.14 Z M-407.85 120.14 C-407.85 121.79 -407.85 123.44 -407.85 125.14 C-405.54 125.14 -403.23 125.14 -400.85 125.14 C-400.85 123.49 -400.85 121.84 -400.85 120.14 C-403.16 120.14 -405.47 120.14 -407.85 120.14 Z M-397.85 120.14 C-397.85 121.79 -397.85 123.44 -397.85 125.14 C-394.39 124.65 -394.39 124.65 -390.85 124.14 C-390.85 122.82 -390.85 121.5 -390.85 120.14 C-393.16 120.14 -395.47 120.14 -397.85 120.14 Z M-387.85 120.14 C-387.85 121.46 -387.85 122.78 -387.85 124.14 C-385.54 124.14 -383.23 124.14 -380.85 124.14 C-380.85 122.82 -380.85 121.5 -380.85 120.14 C-383.16 120.14 -385.47 120.14 -387.85 120.14 Z " fill="#0C0909" transform="translate(418.8548889160156,54.85650634765625)"/>
<path d="M0 0 C5.84 1.65 10.93 4.47 16.25 7.31 C24.86 11.86 33.52 16.29 42.25 20.62 C49.59 24.27 56.89 27.96 64.12 31.81 C72.67 36.37 81.33 40.69 90 45 C106.89 53.4 106.89 53.4 115.12 57.81 C126.45 63.87 137.99 69.52 149.49 75.23 C150.29 75.63 151.1 76.03 151.93 76.44 C153.43 77.19 154.94 77.93 156.45 78.68 C157.49 79.2 157.49 79.2 158.56 79.73 C159.28 80.08 160 80.44 160.74 80.8 C163 82 163 82 165.38 83.59 C173.86 89.02 181.71 88.73 191.38 88.47 C193.2 88.44 195.01 88.42 196.82 88.4 C202.04 88.32 207.25 88.2 212.47 88.08 C216.85 87.98 221.23 87.9 225.61 87.81 C243.84 87.46 262.07 87.04 280.3 86.61 C291.69 86.34 303.09 86.07 314.49 85.81 C318.04 85.73 321.59 85.64 325.14 85.56 C343.43 85.11 361.7 84.91 380 85 C380 84.34 380 83.68 380 83 C387.63 82.74 395.27 82.48 402.9 82.22 C406.44 82.1 409.99 81.98 413.54 81.85 C417.62 81.71 421.71 81.58 425.8 81.44 C427.06 81.39 428.31 81.35 429.61 81.3 C436.74 81.07 443.86 80.94 451 81 C451 81.66 451 82.32 451 83 C451.68 82.97 452.37 82.94 453.07 82.91 C478.19 81.81 478.19 81.81 490 82 C490.73 85.95 491.13 89.68 491.13 93.7 C491.13 94.79 491.14 95.89 491.14 97.01 C491.14 98.76 491.14 98.76 491.13 100.55 C491.13 102.36 491.13 102.36 491.14 104.21 C491.14 106.75 491.13 109.3 491.13 111.84 C491.13 115.75 491.13 119.66 491.14 123.57 C491.14 126.04 491.13 128.51 491.13 130.98 C491.13 132.16 491.14 133.33 491.14 134.54 C491.14 135.62 491.13 136.7 491.13 137.82 C491.13 139.25 491.13 139.25 491.13 140.71 C491 143 491 143 490 145 C481.71 146.37 473.41 146.06 465.03 145.96 C459.37 145.92 453.79 146.05 448.14 146.5 C439.87 147.15 431.64 147.06 423.35 146.98 C421.39 146.96 419.42 146.95 417.46 146.94 C415.74 146.92 415.74 146.92 413.99 146.9 C411.15 146.89 411.15 146.89 409.05 147.5 C405.95 148.26 402.84 148.1 399.67 148.06 C398.15 148.05 396.63 148.05 395.12 148.04 C394.31 148.03 393.51 148.02 392.69 148.02 C377.87 147.91 363.06 148.05 348.25 148.44 C347.07 148.47 347.07 148.47 345.86 148.5 C337.47 148.71 329.09 149.03 320.71 149.54 C313.24 149.98 305.8 150.08 298.31 150 C286.42 149.93 274.57 150.19 262.69 150.64 C255.86 150.9 249.05 151.02 242.21 150.99 C236.72 151.01 231.24 151.26 225.75 151.5 C217.95 151.82 210.18 152.07 202.38 152 C198.2 151.96 194.19 152 190.06 152.56 C179.37 153.86 171.93 150.39 162.7 145.44 C157.69 142.77 152.64 140.16 147.6 137.55 C146.32 136.89 145.05 136.23 143.77 135.57 C135.47 131.25 127.11 127.09 118.62 123.14 C109.92 119.07 101.47 114.53 93 110 C82.76 104.54 72.48 99.19 62.09 94.04 C50.46 88.27 38.9 82.4 27.38 76.44 C17.29 71.22 7.17 66.05 -3 61 C-2.67 60.01 -2.34 59.02 -2 58 C-1.91 56.32 -1.88 54.63 -1.89 52.95 C-1.89 51.92 -1.89 50.89 -1.89 49.83 C-1.89 48.73 -1.9 47.62 -1.9 46.47 C-1.9 45.33 -1.91 44.19 -1.91 43.02 C-1.91 39.37 -1.92 35.71 -1.94 32.06 C-1.94 29.6 -1.95 27.15 -1.95 24.69 C-1.96 19.27 -1.98 13.85 -1.99 8.43 C-2 6.29 -2 4.14 -2 2 C-1.34 1.34 -0.68 0.68 0 0 Z " fill="#070806" transform="translate(6,334)"/>
<path d="M0 0 C0 40.59 0 81.18 0 123 C-4.04 123.67 -7.2 124.12 -11.18 124.1 C-12.11 124.09 -13.04 124.09 -13.99 124.09 C-14.94 124.08 -15.89 124.07 -16.88 124.06 C-17.85 124.06 -18.82 124.05 -19.83 124.05 C-22.22 124.04 -24.61 124.02 -27 124 C-27.03 123.39 -27.06 122.79 -27.1 122.16 C-27.85 119.7 -27.85 119.7 -30.78 118.63 C-32.59 118.03 -32.59 118.03 -34.44 117.42 C-35.08 117.21 -35.73 116.99 -36.39 116.77 C-38.44 116.08 -40.5 115.41 -42.56 114.75 C-43.96 114.29 -45.35 113.82 -46.74 113.36 C-50.15 112.22 -53.58 111.11 -57 110 C-57 100.76 -57 91.52 -57 82 C-63.27 82 -69.54 82 -76 82 C-76 96.85 -76 111.7 -76 127 C-93.59 128.2 -111.18 129.34 -128.77 130.42 C-130.99 130.56 -133.21 130.69 -135.43 130.83 C-157.4 132.2 -157.4 132.2 -168 132 C-168 127.05 -168 122.1 -168 117 C-165.03 116.5 -165.03 116.5 -162 116 C-161.67 106.43 -161.34 96.86 -161 87 C-163.31 87 -165.62 87 -168 87 C-168 85.35 -168 83.7 -168 82 C-168.66 82 -169.32 82 -170 82 C-170 81.01 -170 80.02 -170 79 C-172.47 76.94 -172.47 76.94 -175.7 74.91 C-176.28 74.52 -176.87 74.14 -177.47 73.74 C-179.35 72.51 -181.24 71.28 -183.12 70.06 C-184.38 69.24 -185.63 68.42 -186.88 67.6 C-189.19 66.08 -191.52 64.57 -193.84 63.06 C-197 61 -197 61 -199.79 58.73 C-204.3 56.3 -207.78 56.71 -212.8 57.09 C-213.82 57.15 -214.84 57.21 -215.89 57.27 C-218.91 57.45 -221.92 57.66 -224.93 57.86 C-228.75 58.12 -232.57 58.34 -236.39 58.57 C-246.1 59.15 -255.8 59.77 -265.5 60.39 C-272.79 60.85 -280.09 61.32 -287.38 61.78 C-289.91 61.94 -292.44 62.1 -294.97 62.26 C-296.5 62.36 -298.04 62.46 -299.58 62.56 C-300.28 62.6 -300.97 62.65 -301.69 62.69 C-304.81 62.89 -307.88 63 -311 63 C-311 45.51 -311 28.02 -311 10 C-281.14 8.26 -251.29 7.12 -221.4 6.13 C-217.51 6 -213.63 5.87 -209.74 5.74 C-177.07 4.63 -144.39 3.59 -111.72 2.71 C-98.63 2.36 -85.54 1.97 -72.46 1.44 C-71.29 1.39 -70.12 1.34 -68.92 1.29 C-63.61 1.08 -58.3 0.85 -52.99 0.61 C-35.28 -0.15 -17.79 0 0 0 Z " fill="#FAFAFA" transform="translate(491,122)"/>
<path d="M0 0 C2.02 -0.08 4.05 -0.16 6.07 -0.25 C11.17 -0.41 14.11 0.16 18.01 3.54 C19.28 4.81 20.52 6.09 21.75 7.39 C22.86 8.42 23.97 9.44 25.09 10.45 C26.15 11.43 27.2 12.41 28.25 13.39 C31.71 16.6 35.18 19.8 38.75 22.89 C42.32 25.98 45.79 29.18 49.25 32.39 C53.37 36.21 57.52 39.98 61.76 43.66 C64.27 45.84 66.76 48.05 69.25 50.26 C70.1 51.02 70.96 51.78 71.84 52.57 C72.47 53.17 73.1 53.77 73.75 54.39 C73.75 54.72 73.75 55.05 73.75 55.39 C65.95 56.58 58.12 56.73 50.25 56.95 C49.16 56.98 49.16 56.98 48.06 57.01 C34.95 57.4 21.86 57.47 8.75 57.39 C8.75 46.17 8.75 34.95 8.75 23.39 C-6.6 23.89 -21.96 24.39 -37.31 24.9 C-44.44 25.14 -51.57 25.37 -58.7 25.6 C-64.92 25.81 -71.14 26.01 -77.37 26.22 C-80.66 26.33 -83.94 26.43 -87.23 26.54 C-99.77 26.95 -112.3 27.4 -124.82 28.19 C-129.3 28.45 -133.75 28.52 -138.22 28.48 C-139.04 28.48 -139.86 28.48 -140.71 28.48 C-143.24 28.47 -145.78 28.46 -148.31 28.45 C-150.07 28.44 -151.82 28.44 -153.57 28.44 C-157.8 28.43 -162.03 28.41 -166.25 28.39 C-166.25 39.94 -166.25 51.49 -166.25 63.39 C-188 64.83 -209.46 65.69 -231.25 65.39 C-230.94 51.35 -229.72 37.5 -228.2 23.55 C-228.01 21.78 -227.83 20.01 -227.64 18.24 C-227.18 13.96 -226.72 9.67 -226.25 5.39 C-225.06 5.36 -223.87 5.34 -222.65 5.32 C-211.31 5.1 -199.98 4.88 -188.64 4.66 C-182.81 4.54 -176.99 4.43 -171.16 4.32 C-139.08 3.72 -139.08 3.72 -107 2.72 C-92.67 2.19 -78.32 2.04 -63.98 1.83 C-47.13 1.59 -30.31 1.17 -13.47 0.51 C-8.98 0.34 -4.49 0.17 0 0 Z " fill="#D30031" transform="translate(412.25123596191406,60.6131591796875)"/>
<path d="M0 0 C14.62 2.25 14.62 2.25 20.29 3.52 C21.55 3.79 22.81 4.07 24.1 4.36 C25.42 4.66 26.74 4.95 28.06 5.25 C30.87 5.87 33.67 6.5 36.48 7.12 C37.18 7.27 37.89 7.43 38.61 7.59 C43.49 8.67 48.38 9.73 53.27 10.76 C54.25 10.96 54.25 10.96 55.25 11.18 C58.36 11.83 61.47 12.49 64.58 13.13 C66.22 13.48 66.22 13.48 67.9 13.84 C68.87 14.04 69.83 14.24 70.82 14.45 C73 15 73 15 74 16 C74.09 17.69 74.12 19.38 74.11 21.07 C74.11 22.69 74.11 22.69 74.11 24.35 C74.11 25.52 74.1 26.7 74.1 27.91 C74.1 29.11 74.09 30.3 74.09 31.54 C74.09 35.38 74.08 39.22 74.06 43.06 C74.06 45.66 74.05 48.26 74.05 50.85 C74.04 57.24 74.02 63.62 74 70 C72.51 70.5 72.51 70.5 71 71 C72.49 71.99 72.49 71.99 74 73 C74.27 75.77 74.35 78.31 74.29 81.07 C74.29 81.87 74.28 82.66 74.28 83.48 C74.26 86.03 74.23 88.58 74.19 91.12 C74.17 92.85 74.16 94.58 74.15 96.3 C74.11 100.53 74.06 104.77 74 109 C71.99 108.69 69.99 108.38 67.98 108.07 C65.8 107.8 65.8 107.8 63.62 109.56 C61.8 112.29 60.86 114.84 60 118 C57.49 115.7 55.91 113.29 54.19 110.38 C52.12 107.23 51.42 106.18 47.88 104.69 C44.05 105.1 43.42 106 41 109 C39.43 112.09 38.15 115.28 36.88 118.5 C36.19 120.2 35.5 121.9 34.8 123.59 C34.51 124.34 34.21 125.09 33.9 125.87 C33.02 127.96 32.04 129.98 31 132 C29.79 131.69 29.79 131.69 28.55 131.38 C26.95 130.97 26.95 130.97 25.31 130.56 C24.26 130.3 23.2 130.03 22.11 129.75 C19.42 129.1 16.72 128.53 14 128 C13.78 127.16 13.57 126.31 13.34 125.44 C12.34 121.5 11.32 117.56 10.31 113.62 C10.13 112.92 9.95 112.21 9.76 111.49 C7.41 102.32 5.02 93.18 2.37 84.09 C1.57 81.28 1 78.95 1 76 C1.99 76 2.98 76 4 76 C4 74.35 4 72.7 4 71 C2.68 71 1.36 71 0 71 C0 47.57 0 24.14 0 0 Z " fill="#FCFCFC" transform="translate(100,115)"/>
<path d="M0 0 C0.02 4.82 0.04 9.65 0.05 14.47 C0.06 16.11 0.07 17.76 0.08 19.4 C0.09 21.75 0.09 24.11 0.1 26.46 C0.1 27.2 0.11 27.94 0.11 28.7 C0.11 30.47 0.06 32.23 0 34 C-2.14 36.14 -7.07 35.21 -10.04 35.25 C-11.01 35.26 -11.99 35.28 -13 35.29 C-15.18 35.33 -17.36 35.36 -19.55 35.39 C-25.75 35.48 -31.96 35.58 -38.17 35.68 C-38.85 35.69 -39.53 35.71 -40.23 35.72 C-59.16 36.03 -78.09 36.49 -97.02 36.93 C-131.68 37.74 -166.33 38.45 -201 39 C-201 27.45 -201 15.9 -201 4 C-176.86 3.48 -152.72 2.95 -128.58 2.44 C-117.37 2.19 -106.16 1.95 -94.95 1.71 C-85.18 1.5 -75.4 1.29 -65.63 1.08 C-60.45 0.97 -55.28 0.85 -50.11 0.74 C-45.23 0.63 -40.36 0.53 -35.48 0.43 C-33.7 0.39 -31.92 0.35 -30.14 0.31 C-20.09 0.09 -10.05 -0.05 0 0 Z " fill="#60AC25" transform="translate(386,441)"/>
<path d="M0 0 C4.49 1.5 8.13 2.97 12.26 5.12 C12.85 5.43 13.43 5.73 14.03 6.04 C15.92 7.02 17.8 8.01 19.69 9 C21 9.69 22.32 10.37 23.64 11.06 C31.42 15.11 39.2 19.19 46.96 23.29 C53.46 26.72 59.98 30.11 66.5 33.5 C74.55 37.68 82.6 41.88 90.62 46.12 C95.23 48.55 99.84 50.96 104.47 53.34 C115.77 59.17 127.01 65.05 138.12 71.23 C144.31 74.66 150.58 77.86 156.93 80.95 C162.68 83.85 168.33 86.95 174 90 C174 100.89 174 111.78 174 123 C161.91 117.36 149.93 111.52 138 105.56 C136.95 105.04 136.95 105.04 135.88 104.51 C127.81 100.48 119.78 96.38 111.81 92.15 C101.3 86.59 90.66 81.29 80 76 C68.6 70.34 57.23 64.64 45.98 58.67 C38.16 54.54 30.27 50.56 22.35 46.61 C19.94 45.41 17.54 44.2 15.13 43 C13.59 42.23 12.04 41.45 10.5 40.68 C9.79 40.33 9.08 39.97 8.34 39.6 C5.58 38.23 2.93 36.98 0 36 C0 24.12 0 12.24 0 0 Z " fill="#60AD25" transform="translate(5,354)"/>
<path d="M0 0 C0 10.56 0 21.12 0 32 C-32.81 33.26 -65.62 34.35 -98.44 35.24 C-101.99 35.34 -105.54 35.44 -109.08 35.54 C-109.76 35.55 -110.45 35.57 -111.15 35.59 C-121.63 35.88 -132.12 36.24 -142.6 36.69 C-150.74 37.02 -158.85 37.08 -167 37 C-167 26.77 -167 16.54 -167 6 C-138.88 4.53 -110.77 3.42 -82.63 2.53 C-74.75 2.28 -66.87 2.03 -59 1.77 C-56.31 1.69 -53.62 1.6 -50.94 1.52 C-41.78 1.23 -32.63 0.88 -23.49 0.32 C-15.63 -0.12 -7.92 0 0 0 Z " fill="#FBFBFB" transform="translate(417,87)"/>
<path d="M0 0 C0 21.12 0 42.24 0 64 C-9.9 64.5 -9.9 64.5 -20 65 C-20 52.13 -20 39.26 -20 26 C-22.97 26.33 -25.94 26.66 -29 27 C-32.27 27.25 -35.54 27.41 -38.81 27.56 C-39.71 27.6 -40.6 27.65 -41.52 27.69 C-51.02 28.1 -60.49 28.07 -70 28 C-70 40.87 -70 53.74 -70 67 C-83 68 -83 68 -100 68 C-100 47.54 -100 27.08 -100 6 C-87.33 4.85 -74.81 3.72 -62.13 3.11 C-58.17 2.92 -54.22 2.71 -50.27 2.51 C-49.49 2.47 -48.7 2.43 -47.89 2.38 C-39.32 1.93 -30.77 1.3 -22.22 0.61 C-14.74 0.03 -7.56 0 0 0 Z " fill="#F5F5F5" transform="translate(318,208)"/>
<path d="M0 0 C1.65 0 3.3 0 5 0 C5.49 5.94 5.49 5.94 6 12 C11.61 12 17.22 12 23 12 C23.33 8.04 23.66 4.08 24 0 C28.95 -0.02 33.9 -0.04 38.84 -0.05 C40.53 -0.06 42.21 -0.07 43.9 -0.08 C46.31 -0.09 48.73 -0.09 51.15 -0.1 C51.9 -0.1 52.66 -0.11 53.44 -0.11 C58.77 -0.11 58.77 -0.11 61 1 C62.01 2.66 63.01 4.33 64 6 C64.5 6.44 65 6.89 65.51 7.34 C67.46 9.51 67.8 11.29 68.43 14.13 C68.67 15.16 68.9 16.18 69.14 17.24 C69.39 18.34 69.63 19.43 69.88 20.56 C71.86 29.27 73.96 37.89 76.61 46.43 C77.81 50.46 77.84 52.95 77 57 C77.74 60.48 77.74 60.48 78.94 64.06 C80.18 68.01 81 70.84 81 75 C80.34 75 79.68 75 79 75 C78.85 74.41 78.7 73.81 78.55 73.2 C77.01 67.02 75.47 60.84 73.93 54.66 C73.35 52.35 72.78 50.04 72.2 47.73 C71.38 44.42 70.55 41.11 69.72 37.79 C69.47 36.76 69.21 35.72 68.94 34.66 C68.7 33.7 68.46 32.74 68.22 31.75 C68 30.9 67.79 30.05 67.58 29.18 C67.12 27.44 66.57 25.71 66 24 C65.34 23.67 64.68 23.34 64 23 C64.31 23.87 64.61 24.74 64.93 25.63 C66.63 31.58 66.73 37.79 67.12 43.94 C67.21 45.19 67.3 46.45 67.39 47.74 C67.6 50.83 67.8 53.91 68 57 C68.33 57 68.66 57 69 57 C70.21 61.67 70.09 66.21 70 71 C68.02 71 66.04 71 64 71 C63.5 60.6 63.5 60.6 63 50 C61.02 49.5 61.02 49.5 59 49 C59 37.78 59 26.56 59 15 C57.35 15 55.7 15 54 15 C54.02 15.55 54.03 16.11 54.05 16.68 C54.23 22.46 54.39 28.23 54.54 34.01 C54.6 36.16 54.66 38.32 54.72 40.47 C54.82 43.57 54.9 46.67 54.98 49.77 C55.01 50.73 55.04 51.69 55.07 52.69 C55.09 53.59 55.11 54.49 55.14 55.42 C55.17 56.6 55.17 56.6 55.2 57.81 C55 60 55 60 53 64 C46.07 64 39.14 64 32 64 C32.33 62.68 32.66 61.36 33 60 C33.11 58.5 33.18 57.01 33.21 55.51 C33.23 54.63 33.25 53.75 33.27 52.84 C33.28 51.9 33.3 50.95 33.32 49.98 C33.35 48.53 33.35 48.53 33.38 47.04 C33.44 43.94 33.5 40.85 33.56 37.75 C33.61 35.65 33.65 33.55 33.69 31.45 C33.8 26.3 33.9 21.15 34 16 C31.03 16 28.06 16 25 16 C25.04 17.28 25.08 18.55 25.12 19.87 C25.27 24.61 25.41 29.35 25.54 34.1 C25.6 36.15 25.66 38.2 25.72 40.25 C25.82 43.2 25.9 46.15 25.98 49.11 C26.01 50.02 26.04 50.94 26.07 51.88 C26.09 52.74 26.11 53.6 26.14 54.49 C26.16 55.24 26.18 55.99 26.2 56.77 C26 59 26 59 24 64 C17.07 64 10.14 64 3 64 C3.33 62.35 3.66 60.7 4 59 C4.11 57.5 4.17 55.99 4.21 54.49 C4.23 53.62 4.25 52.76 4.27 51.88 C4.29 50.51 4.29 50.51 4.32 49.11 C4.34 48.16 4.36 47.21 4.38 46.23 C4.44 43.22 4.5 40.2 4.56 37.19 C4.61 35.14 4.65 33.09 4.69 31.04 C4.8 26.03 4.9 21.01 5 16 C2.36 16 -0.28 16 -3 16 C-2.99 16.88 -2.98 17.76 -2.97 18.66 C-2.9 27.92 -3.23 37.1 -3.8 46.33 C-3.94 48.59 -4.07 50.86 -4.2 53.12 C-4.92 65.14 -4.92 65.14 -6 71 C-7.98 71 -9.96 71 -12 71 C-12.15 62.72 -11.69 54.56 -11 46.31 C-10.9 45.12 -10.81 43.93 -10.71 42.71 C-10.48 39.8 -10.24 36.9 -10 34 C-10.29 35 -10.58 35.99 -10.88 37.02 C-15.48 52.71 -20.15 68.38 -25 84 C-26.65 84 -28.3 84 -30 84 C-31.14 80.63 -30.84 78.61 -29.79 75.23 C-29.51 74.34 -29.24 73.46 -28.96 72.54 C-28.66 71.62 -28.37 70.7 -28.06 69.75 C-27.77 68.81 -27.48 67.88 -27.18 66.91 C-26.46 64.61 -25.74 62.3 -25 60 C-24.01 60.33 -23.02 60.66 -22 61 C-21.74 59.74 -21.47 58.48 -21.2 57.18 C-19.99 51.74 -18.39 46.45 -16.74 41.13 C-16.43 40.13 -16.13 39.12 -15.81 38.09 C-14.83 34.91 -13.86 31.74 -12.88 28.56 C-11.89 25.36 -10.9 22.16 -9.92 18.96 C-9.31 16.98 -8.7 14.99 -8.08 13.01 C-7.67 11.67 -7.67 11.67 -7.25 10.31 C-7.01 9.52 -6.77 8.74 -6.52 7.93 C-5.91 6.01 -5.91 6.01 -6 4 C-5.2 3.71 -4.39 3.42 -3.56 3.12 C-0.87 2.27 -0.87 2.27 0 0 Z " fill="#28200C" transform="translate(37,191)"/>
<path d="M0 0 C0.81 0.56 1.62 1.13 2.45 1.71 C3.29 2.31 4.12 2.9 4.98 3.52 C6.21 4.39 6.21 4.39 7.48 5.27 C9.86 6.95 12.23 8.64 14.6 10.33 C15.31 10.84 16.03 11.35 16.76 11.87 C18.38 13.02 19.99 14.18 21.6 15.33 C17.77 17.83 13.71 17.74 9.29 17.89 C7.81 17.96 6.34 18.02 4.86 18.09 C4.21 18.11 3.56 18.13 2.89 18.16 C1.04 18.3 -0.8 18.54 -2.63 18.81 C-6.08 19.29 -9.48 19.6 -12.96 19.83 C-14.22 19.91 -15.47 20 -16.77 20.08 C-18.13 20.17 -19.48 20.25 -20.84 20.34 C-22.24 20.43 -23.65 20.52 -25.06 20.61 C-28 20.8 -30.94 20.99 -33.89 21.17 C-37.64 21.41 -41.4 21.65 -45.15 21.9 C-48.06 22.09 -50.96 22.28 -53.87 22.46 C-55.25 22.54 -56.64 22.63 -58.02 22.73 C-59.96 22.86 -61.9 22.98 -63.84 23.09 C-64.94 23.16 -66.04 23.23 -67.17 23.31 C-73.86 23.36 -78.22 22.24 -83.77 18.52 C-84.34 18.14 -84.9 17.76 -85.49 17.38 C-87.28 16.19 -89.06 14.98 -90.84 13.77 C-92.06 12.95 -93.28 12.14 -94.5 11.33 C-97.47 9.34 -100.44 7.34 -103.4 5.33 C-99.5 2.79 -95.26 2.82 -90.76 2.55 C-89.89 2.5 -89.02 2.44 -88.12 2.38 C-85.25 2.18 -82.37 2 -79.5 1.82 C-77.5 1.69 -75.5 1.56 -73.5 1.43 C-68.23 1.08 -62.96 0.75 -57.69 0.41 C-53.4 0.14 -49.1 -0.14 -44.81 -0.42 C-39.68 -0.76 -34.56 -1.09 -29.43 -1.43 C-28.46 -1.49 -27.48 -1.55 -26.47 -1.62 C-23.7 -1.8 -20.93 -1.97 -18.16 -2.15 C-17.35 -2.2 -16.53 -2.25 -15.69 -2.31 C-4.28 -3.03 -4.28 -3.03 0 0 Z " fill="#D20031" transform="translate(290.3984375,185.66796875)"/>
<path d="M0 0 C-1.24 18.34 -2.56 36.67 -4 55 C-14.41 54.59 -24.34 52.05 -34.44 49.69 C-37.85 48.9 -41.27 48.11 -44.68 47.32 C-45.94 47.03 -45.94 47.03 -47.22 46.74 C-56.44 44.64 -65.72 42.81 -75 41 C-72.64 38.55 -70.5 37.05 -67.45 35.5 C-66.53 35.03 -65.62 34.56 -64.68 34.08 C-63.69 33.58 -62.7 33.08 -61.69 32.56 C-59.59 31.48 -57.48 30.4 -55.38 29.31 C-53.78 28.48 -53.78 28.48 -52.15 27.64 C-47.42 25.17 -42.74 22.63 -38.06 20.06 C-37.18 19.58 -36.3 19.1 -35.39 18.6 C-33.56 17.6 -31.74 16.6 -29.92 15.6 C-24.54 12.65 -19.14 9.73 -13.75 6.81 C-12.71 6.25 -11.66 5.68 -10.59 5.1 C-9.63 4.58 -8.66 4.06 -7.67 3.52 C-6.82 3.06 -5.96 2.59 -5.08 2.12 C-1.14 0 -1.14 0 0 0 Z " fill="#D30031" transform="translate(180,70)"/>
<path d="M0 0 C10.81 1.54 21.38 4.45 32 7 C32 27.46 32 47.92 32 69 C29.03 68.34 26.06 67.68 23 67 C21.75 66.78 20.49 66.57 19.2 66.34 C15.19 65.38 12.37 64.41 9 62 C6.83 57.93 6.42 53.36 5.8 48.86 C5.25 44.89 4.16 41.67 2.55 38.03 C-2.8 25.82 -1.1 12.99 0 0 Z " fill="#FDFDFD" transform="translate(180,206)"/>
<path d="M0 0 C1.13 0.01 2.25 0.01 3.41 0.02 C4.51 0.02 5.6 0.02 6.73 0.02 C8.83 0.04 8.83 0.04 10.97 0.05 C17.62 0.08 17.62 0.08 24.41 0.11 C24.41 17.6 24.41 35.09 24.41 53.11 C15.17 53.11 5.93 53.11 -3.59 53.11 C-3.61 45.73 -3.63 38.34 -3.65 30.95 C-3.65 28.44 -3.66 25.92 -3.67 23.41 C-3.68 19.8 -3.69 16.19 -3.69 12.59 C-3.69 11.45 -3.7 10.32 -3.71 9.16 C-3.71 8.11 -3.71 7.07 -3.71 6 C-3.71 5.08 -3.71 4.16 -3.71 3.21 C-3.53 0.07 -3.16 0.14 0 0 Z " fill="#60AC25" transform="translate(394.592041015625,421.886474609375)"/>
<path d="M0 0 C0 17.49 0 34.98 0 53 C-9.24 53 -18.48 53 -28 53 C-28 35.84 -28 18.68 -28 1 C-9 0 -9 0 0 0 Z " fill="#61AD25" transform="translate(451,421)"/>
<path d="M0 0 C12.87 0 25.74 0 39 0 C39 11.55 39 23.1 39 35 C26.13 35 13.26 35 0 35 C0 23.45 0 11.9 0 0 Z " fill="#61AD25" transform="translate(457,438)"/>
<path d="M0 0 C2.75 0.56 2.75 0.56 3.98 2.02 C7.21 7.29 9.55 12.62 11.62 18.44 C11.94 19.29 12.26 20.14 12.59 21.02 C14.3 25.7 14.3 25.7 14.75 27.56 C14.42 28.22 14.09 28.88 13.75 29.56 C12.62 29.46 11.48 29.35 10.31 29.25 C1.94 28.53 1.94 28.53 -5.81 31.07 C-7.92 33.44 -9.57 35.87 -11.25 38.56 C-12.39 40.19 -13.54 41.82 -14.69 43.44 C-15.53 44.61 -16.36 45.79 -17.18 46.97 C-22.34 54.28 -28.25 60.94 -34.25 67.56 C-34.96 68.36 -35.67 69.15 -36.4 69.97 C-49.67 84.08 -69.82 92.98 -89.25 93.67 C-89.91 93.63 -90.57 93.6 -91.25 93.56 C-87 86.74 -83.43 84.46 -75.94 81.94 C-63.3 77.42 -52.35 70.36 -42.25 61.56 C-41.35 60.79 -40.44 60.02 -39.51 59.23 C-21.6 43.52 -10.36 24.07 -3.25 1.56 C-2.25 0.56 -2.25 0.56 0 0 Z " fill="#D91105" transform="translate(168.25,225.4375)"/>
<path d="M0 0 C2.32 0.08 2.32 0.08 5 1 C7.02 3.55 7.02 3.55 8.81 6.75 C9.42 7.8 10.02 8.84 10.64 9.92 C11.98 12.95 12.31 14.74 12 18 C11.15 18.29 10.31 18.58 9.44 18.88 C5.33 20.94 3.39 24.37 0.91 28.12 C-2.5 33.25 -6.25 38.12 -10 43 C-10.69 43.9 -11.37 44.79 -12.08 45.71 C-29.96 68.3 -52.87 85.72 -82 90 C-81.19 85.41 -80.08 82.62 -77 79 C-70.3 75.24 -62.67 73.11 -55.37 70.82 C-34.84 63.98 -19.12 39.89 -9.57 21.45 C-6.74 15.73 -4.39 9.82 -2.13 3.85 C-1 1 -1 1 0 0 Z " fill="#DA1105" transform="translate(145,223)"/>
<path d="M0 0 C13.5 3.38 13.5 3.38 19.52 5.48 C20.66 5.88 21.81 6.28 22.99 6.69 C24.4 7.18 25.8 7.68 27.25 8.19 C31.79 9.78 36.32 11.36 41 13 C41 25.21 41 37.42 41 50 C34.83 48.15 28.97 46.32 23 44 C23.33 42.35 23.66 40.7 24 39 C24.99 39 25.98 39 27 39 C26.67 33.72 26.34 28.44 26 23 C24.8 22.65 23.59 22.3 22.35 21.94 C20.78 21.48 19.2 21.02 17.62 20.56 C16.83 20.33 16.04 20.1 15.22 19.87 C14.46 19.64 13.7 19.42 12.91 19.19 C11.86 18.89 11.86 18.89 10.79 18.57 C9 18 9 18 7 17 C7 21.62 7 26.24 7 31 C4.69 31.33 2.38 31.66 0 32 C0 21.44 0 10.88 0 0 Z " fill="#FCFCFC" transform="translate(419,231)"/>
<path d="M0 0 C0 11.55 0 23.1 0 35 C-7.26 35 -14.52 35 -22 35 C-22 23.78 -22 12.56 -22 1 C-13 0 -13 0 0 0 Z " fill="#CE6A00" transform="translate(273,239)"/>
<path d="M0 0 C0 1.65 0 3.3 0 5 C-22.44 5 -44.88 5 -68 5 C-68 6.65 -68 8.3 -68 10 C-66.68 10 -65.36 10 -64 10 C-64.48 11.77 -64.96 13.54 -65.44 15.31 C-65.7 16.3 -65.97 17.28 -66.25 18.3 C-66.78 20.22 -67.37 22.11 -68 24 C-75.26 24 -82.52 24 -90 24 C-90.33 24.99 -90.66 25.98 -91 27 C-91 19.08 -91 11.16 -91 3 C-80.46 2.61 -69.93 2.22 -59.39 1.83 C-54.5 1.65 -49.61 1.46 -44.71 1.28 C-39.99 1.11 -35.26 0.93 -30.53 0.76 C-28.73 0.69 -26.94 0.62 -25.14 0.56 C-22.61 0.46 -20.08 0.37 -17.55 0.28 C-16.81 0.25 -16.08 0.22 -15.32 0.19 C-10.21 0.01 -5.11 -0.02 0 0 Z " fill="#60AB25" transform="translate(95,181)"/>
<path d="M0 0 C6.27 0 12.54 0 19 0 C19 11.55 19 23.1 19 35 C9.6 35.5 9.6 35.5 0 36 C0 24.12 0 12.24 0 0 Z " fill="#CC6A00" transform="translate(276,238)"/>
<path d="M0 0 C5.28 0 10.56 0 16 0 C16 12.87 16 25.74 16 39 C10.72 39 5.44 39 0 39 C0 26.13 0 13.26 0 0 Z " fill="#DADBDB" transform="translate(44,207)"/>
<path d="M0 0 C5.28 0 10.56 0 16 0 C16 12.87 16 25.74 16 39 C10.72 39 5.44 39 0 39 C0 26.13 0 13.26 0 0 Z " fill="#DDDDDD" transform="translate(73,207)"/>
<path d="M0 0 C6.6 0 13.2 0 20 0 C20 10.23 20 20.46 20 31 C13.4 31 6.8 31 0 31 C0 20.77 0 10.54 0 0 Z " fill="#18191A" transform="translate(336,207)"/>
<path d="M0 0 C6.6 0 13.2 0 20 0 C20 10.23 20 20.46 20 31 C13.4 31 6.8 31 0 31 C0 20.77 0 10.54 0 0 Z " fill="#18191A" transform="translate(336,159)"/>
<path d="M0 0 C6.6 0 13.2 0 20 0 C20 9.9 20 19.8 20 30 C13 31 13 31 0 31 C0 20.77 0 10.54 0 0 Z " fill="#151616" transform="translate(362,206)"/>
<path d="M0 0 C6.6 0 13.2 0 20 0 C20 9.9 20 19.8 20 30 C13 31 13 31 0 31 C0 20.77 0 10.54 0 0 Z " fill="#151717" transform="translate(441,203)"/>
<path d="M0 0 C6.6 0 13.2 0 20 0 C20 9.9 20 19.8 20 30 C13 31 13 31 0 31 C0 20.77 0 10.54 0 0 Z " fill="#151616" transform="translate(362,158)"/>
<path d="M0 0 C6.6 0 13.2 0 20 0 C20 9.9 20 19.8 20 30 C13 31 13 31 0 31 C0 20.77 0 10.54 0 0 Z " fill="#151717" transform="translate(441,155)"/>
<path d="M0 0 C6.6 0 13.2 0 20 0 C20 9.9 20 19.8 20 30 C11 31 11 31 0 31 C0 20.77 0 10.54 0 0 Z " fill="#101010" transform="translate(388,205)"/>
<path d="M0 0 C6.6 0 13.2 0 20 0 C20 9.9 20 19.8 20 30 C11 31 11 31 0 31 C0 20.77 0 10.54 0 0 Z " fill="#101010" transform="translate(388,157)"/>
<path d="M0 0 C6.6 0 13.2 0 20 0 C20 9.9 20 19.8 20 30 C13.4 30.33 6.8 30.66 0 31 C0 20.77 0 10.54 0 0 Z " fill="#141616" transform="translate(467,202)"/>
<path d="M0 0 C6.6 0 13.2 0 20 0 C20 9.9 20 19.8 20 30 C13.4 30.33 6.8 30.66 0 31 C0 20.77 0 10.54 0 0 Z " fill="#141616" transform="translate(467,154)"/>
<path d="M0 0 C6.6 0 13.2 0 20 0 C20.02 4.11 20.04 8.22 20.05 12.34 C20.06 13.73 20.07 15.13 20.08 16.53 C20.09 18.54 20.09 20.55 20.1 22.56 C20.11 24.37 20.11 24.37 20.11 26.22 C20 29 20 29 19 30 C17.58 30.09 16.16 30.11 14.75 30.1 C13.98 30.1 13.21 30.09 12.42 30.09 C11.43 30.08 10.45 30.07 9.44 30.06 C4.77 30.03 4.77 30.03 0 30 C0 20.1 0 10.2 0 0 Z " fill="#BCD9DE" transform="translate(310,161)"/>
<path d="M0 0 C0.33 0.99 0.66 1.98 1 3 C0.01 3 -0.98 3 -2 3 C-2 3.66 -2 4.32 -2 5 C-0.35 5.33 1.3 5.66 3 6 C3 6.99 3 7.98 3 9 C2.34 9 1.68 9 1 9 C1 9.66 1 10.32 1 11 C1.99 11.33 2.98 11.66 4 12 C2.02 12.33 0.04 12.66 -2 13 C0.31 13.66 2.62 14.32 5 15 C5 16.32 5 17.64 5 19 C4.34 19.33 3.68 19.66 3 20 C3.99 20.33 4.98 20.66 6 21 C6 23.33 6 25.67 6 28 C3.69 28 1.38 28 -1 28 C1.31 28.99 3.62 29.98 6 31 C3 32 3 32 0 31 C0 31.66 0 32.32 0 33 C1.98 33.33 3.96 33.66 6 34 C6 35.32 6 36.64 6 38 C4.93 37.77 4.93 37.77 3.85 37.53 C2.93 37.33 2.01 37.14 1.06 36.94 C0.15 36.74 -0.77 36.54 -1.71 36.34 C-2.47 36.23 -3.22 36.12 -4 36 C-4.5 36.5 -4.5 36.5 -5 37 C-5 37.33 -5 37.66 -5 38 C-8.3 38 -11.6 38 -15 38 C-15.07 34 -15.04 30 -15 26 C-15.01 25.35 -15.02 24.69 -15.03 24.02 C-15.15 15.07 -14.32 8.73 -8.3 1.62 C-5.38 -0.44 -3.5 -0.32 0 0 Z " fill="#242610" transform="translate(170,260)"/>
<path d="M0 0 C6.27 0 12.54 0 19 0 C19 9.9 19 19.8 19 30 C9.6 30.5 9.6 30.5 0 31 C0 20.77 0 10.54 0 0 Z " fill="#BEDBE0" transform="translate(415,156)"/>
<path d="M0 0 C11 1 11 1 19 3 C19 12.9 19 22.8 19 33 C16.42 32.69 13.84 32.38 11.19 32.06 C10.38 31.97 9.57 31.87 8.74 31.77 C5.69 31.4 2.92 30.97 0 30 C0 20.1 0 10.2 0 0 Z " fill="#161616" transform="translate(127,127)"/>
<path d="M0 0 C10 1 10 1 19 3 C19 12.9 19 22.8 19 33 C8 32 8 32 0 30 C0 20.1 0 10.2 0 0 Z " fill="#171818" transform="translate(152,134)"/>
<path d="M0 0 C10 1 10 1 19 3 C19 12.9 19 22.8 19 33 C5 31 5 31 0 30 C0 20.1 0 10.2 0 0 Z " fill="#161718" transform="translate(103,121)"/>
<path d="M0 0 C0 11.22 0 22.44 0 34 C-0.99 34 -1.98 34 -3 34 C-3 23.77 -3 13.54 -3 3 C-7.68 3.29 -12.36 3.58 -17.19 3.88 C-57.73 6.2 -98.39 7.49 -139 7 C-138.02 5.54 -138.02 5.54 -136 4 C-133.17 3.62 -130.55 3.42 -127.71 3.34 C-126.85 3.31 -125.99 3.27 -125.1 3.23 C-122.19 3.12 -119.28 3.03 -116.38 2.94 C-114.31 2.86 -112.25 2.79 -110.18 2.71 C-104.4 2.5 -98.62 2.31 -92.84 2.12 C-88.83 1.99 -84.81 1.86 -80.79 1.72 C-72.92 1.45 -65.05 1.2 -57.18 0.94 C-55.09 0.88 -53 0.81 -50.91 0.74 C-33.93 0.19 -16.99 -0.09 0 0 Z " fill="#170509" transform="translate(420,84)"/>
<path d="M0 0 C0.49 2.12 0.96 4.25 1.44 6.38 C1.84 8.15 1.84 8.15 2.25 9.96 C4.05 18.97 4.13 27.96 4.06 37.12 C4.06 38.27 4.05 39.42 4.05 40.6 C4.04 43.4 4.02 46.2 4 49 C-1.75 51 -1.75 51 -4 51 C-4.01 50.1 -4.03 49.2 -4.04 48.27 C-4.11 44.86 -4.18 41.45 -4.26 38.04 C-4.3 36.58 -4.32 35.12 -4.35 33.65 C-4.48 25.09 -5.06 17.18 -7.27 8.84 C-8.02 5.91 -8.54 2.99 -9 0 C-5.57 -0.86 -3.38 -0.98 0 0 Z " fill="#90B40D" transform="translate(185,259)"/>
<path d="M0 0 C2.19 0.31 2.19 0.31 4 1 C3.01 1.33 2.02 1.66 1 2 C1.24 2.53 1.47 3.07 1.71 3.62 C2.49 10.07 -5.98 19.16 -9.88 24.12 C-18.75 34.83 -28.19 45.43 -40 53 C-40.66 53 -41.32 53 -42 53 C-40.47 49.49 -38.39 47 -35.81 44.19 C-34.71 42.97 -34.71 42.97 -33.58 41.73 C-31.63 39.66 -29.64 37.67 -27.6 35.69 C-23.89 31.99 -20.71 28 -17.56 23.81 C-17 23.07 -16.44 22.34 -15.86 21.58 C-11.88 16.29 -8.15 10.9 -4.59 5.32 C-3.18 3.26 -1.93 1.57 0 0 Z " fill="#180302" transform="translate(152,242)"/>
<path d="M0 0 C5.61 0 11.22 0 17 0 C17 5.94 17 11.88 17 18 C8.58 18.5 8.58 18.5 0 19 C0 12.73 0 6.46 0 0 Z " fill="#1A1B1B" transform="translate(289,131)"/>
<path d="M0 0 C5.61 0 11.22 0 17 0 C17.02 2.78 17.04 5.57 17.06 8.44 C17.07 9.32 17.08 10.19 17.09 11.1 C17.1 13.07 17.05 15.03 17 17 C14.96 19.04 10.76 18.42 7.94 18.56 C4.01 18.78 4.01 18.78 0 19 C0 12.73 0 6.46 0 0 Z " fill="#171818" transform="translate(237,133)"/>
<path d="M0 0 C5.61 0 11.22 0 17 0 C17 5.94 17 11.88 17 18 C8.58 18.5 8.58 18.5 0 19 C0 12.73 0 6.46 0 0 Z " fill="#181919" transform="translate(263,132)"/>
<path d="M0 0 C5.61 0 11.22 0 17 0 C17 5.61 17 11.22 17 17 C5.62 19 5.62 19 0 19 C0 12.73 0 6.46 0 0 Z " fill="#191A1A" transform="translate(445,126)"/>
<path d="M0 0 C5.61 0 11.22 0 17 0 C17 5.61 17 11.22 17 17 C5.62 19 5.62 19 0 19 C0 12.73 0 6.46 0 0 Z " fill="#181919" transform="translate(471,125)"/>
<path d="M0 0 C5.61 0 11.22 0 17 0 C17 5.61 17 11.22 17 17 C11.39 17.66 5.78 18.32 0 19 C0 12.73 0 6.46 0 0 Z " fill="#151616" transform="translate(419,127)"/>
<path d="M0 0 C5.61 0 11.22 0 17 0 C17 5.61 17 11.22 17 17 C12.94 17.81 9.77 18.11 5.69 18.06 C3.81 18.04 1.93 18.02 0 18 C0 12.06 0 6.12 0 0 Z " fill="#151616" transform="translate(211,134)"/>
<path d="M0 0 C5.61 0 11.22 0 17 0 C17 5.61 17 11.22 17 17 C11.08 17.99 5.97 18.07 0 18 C0 12.06 0 6.12 0 0 Z " fill="#131414" transform="translate(185,135)"/>
<path d="M0 0 C5.61 0 11.22 0 17 0 C17 5.61 17 11.22 17 17 C11.08 17.99 5.97 18.07 0 18 C0 12.06 0 6.12 0 0 Z " fill="#161717" transform="translate(367,129)"/>
<path d="M0 0 C4.29 0 8.58 0 13 0 C13 7.59 13 15.18 13 23 C8.71 23 4.42 23 0 23 C0 15.41 0 7.82 0 0 Z " fill="#C0DDE3" transform="translate(392,209)"/>
<path d="M0 0 C4.29 0 8.58 0 13 0 C13 7.59 13 15.18 13 23 C8.71 23 4.42 23 0 23 C0 15.41 0 7.82 0 0 Z " fill="#C0DDE3" transform="translate(392,161)"/>
<path d="M0 0 C5.61 0 11.22 0 17 0 C17 5.61 17 11.22 17 17 C12.55 17.64 8.93 18.12 4.56 18.06 C3.06 18.04 1.55 18.02 0 18 C0 12.06 0 6.12 0 0 Z " fill="#121313" transform="translate(393,128)"/>
<path d="M0 0 C5.61 0 11.22 0 17 0 C17 5.61 17 11.22 17 17 C9 18 9 18 0 18 C0 12.06 0 6.12 0 0 Z " fill="#101212" transform="translate(263,158)"/>
<path d="M0 0 C6.6 0 13.2 0 20 0 C20.02 4.11 20.04 8.22 20.05 12.34 C20.06 13.73 20.07 15.13 20.08 16.53 C20.09 18.54 20.09 20.55 20.1 22.56 C20.11 24.37 20.11 24.37 20.11 26.22 C20 29 20 29 19 30 C17.58 30.09 16.16 30.11 14.75 30.1 C13.98 30.1 13.21 30.09 12.42 30.09 C11.43 30.08 10.45 30.07 9.44 30.06 C4.77 30.03 4.77 30.03 0 30 C0 20.1 0 10.2 0 0 Z M3 3 C3 10.92 3 18.84 3 27 C9.44 26.5 9.44 26.5 16 26 C16 18.41 16 10.82 16 3 C11.71 3 7.42 3 3 3 Z " fill="#0F0F0F" transform="translate(310,161)"/>
<path d="M0 0 C5.61 0 11.22 0 17 0 C17 5.61 17 11.22 17 17 C8.59 17.5 8.59 17.5 0 18 C0 12.06 0 6.12 0 0 Z " fill="#141515" transform="translate(211,160)"/>
<path d="M0 0 C5.61 0 11.22 0 17 0 C17 5.61 17 11.22 17 17 C8.59 17.5 8.59 17.5 0 18 C0 12.06 0 6.12 0 0 Z " fill="#0D0D0D" transform="translate(185,161)"/>
<path d="M0 0 C5.61 0 11.22 0 17 0 C17 5.61 17 11.22 17 17 C8.59 17.5 8.59 17.5 0 18 C0 12.06 0 6.12 0 0 Z " fill="#111213" transform="translate(237,159)"/>
<path d="M0 0 C5.61 0 11.22 0 17 0 C17 5.61 17 11.22 17 17 C8.58 17.5 8.58 17.5 0 18 C0 12.06 0 6.12 0 0 Z " fill="#0D0E0E" transform="translate(341,130)"/>
<path d="M0 0 C5.61 0 11.22 0 17 0 C17 5.61 17 11.22 17 17 C8.58 17.5 8.58 17.5 0 18 C0 12.06 0 6.12 0 0 Z " fill="#101111" transform="translate(315,131)"/>
<path d="M0 0 C5.28 0 10.56 0 16 0 C16 5.61 16 11.22 16 17 C9 18 9 18 0 18 C0 12.06 0 6.12 0 0 Z " fill="#0B0D0D" transform="translate(273,212)"/>
<path d="M0 0 C8.58 0 17.16 0 26 0 C26 3.96 26 7.92 26 12 C21.71 12 17.42 12 13 12 C13 8.37 13 4.74 13 1 C12.01 1 11.02 1 10 1 C10 4.63 10 8.26 10 12 C6.7 12 3.4 12 0 12 C0 8.04 0 4.08 0 0 Z " fill="#C3C3C3" transform="translate(186,428)"/>
<path d="M0 0 C6.27 0 12.54 0 19 0 C19 9.9 19 19.8 19 30 C9.6 30.5 9.6 30.5 0 31 C0 20.77 0 10.54 0 0 Z M3 4 C3 11.59 3 19.18 3 27 C7.29 27 11.58 27 16 27 C16 19.41 16 11.82 16 4 C11.71 4 7.42 4 3 4 Z " fill="#040505" transform="translate(415,156)"/>
<path d="M0 0 C5.28 0 10.56 0 16 0 C16 5.61 16 11.22 16 17 C10.72 17.33 5.44 17.66 0 18 C0 12.06 0 6.12 0 0 Z " fill="#030303" transform="translate(221,216)"/>
<path d="M0 0 C3.96 0 7.92 0 12 0 C12 7.59 12 15.18 12 23 C8.04 23 4.08 23 0 23 C0 15.41 0 7.82 0 0 Z " fill="#C5E3E9" transform="translate(340,211)"/>
<path d="M0 0 C5.28 0 10.56 0 16 0 C16 5.28 16 10.56 16 16 C14.66 16.33 13.32 16.66 11.94 17 C11.18 17.19 10.43 17.37 9.65 17.56 C7 18 7 18 0 18 C0 12.06 0 6.12 0 0 Z " fill="#060707" transform="translate(299,211)"/>
<path d="M0 0 C3.96 0 7.92 0 12 0 C12 7.59 12 15.18 12 23 C8.04 23 4.08 23 0 23 C0 15.41 0 7.82 0 0 Z " fill="#C6E4EA" transform="translate(366,210)"/>
<path d="M0 0 C3.96 0 7.92 0 12 0 C12 7.59 12 15.18 12 23 C8.04 23 4.08 23 0 23 C0 15.41 0 7.82 0 0 Z " fill="#C4E2E8" transform="translate(445,207)"/>
<path d="M0 0 C3.96 0 7.92 0 12 0 C12 7.59 12 15.18 12 23 C8.04 23 4.08 23 0 23 C0 15.41 0 7.82 0 0 Z " fill="#C5E3E9" transform="translate(340,163)"/>
<path d="M0 0 C3.96 0 7.92 0 12 0 C12 7.59 12 15.18 12 23 C8.04 23 4.08 23 0 23 C0 15.41 0 7.82 0 0 Z " fill="#C6E4EA" transform="translate(366,162)"/>
<path d="M0 0 C3.96 0 7.92 0 12 0 C12 7.59 12 15.18 12 23 C8.04 23 4.08 23 0 23 C0 15.41 0 7.82 0 0 Z " fill="#C4E2E8" transform="translate(445,159)"/>
<path d="M0 0 C5.28 0 10.56 0 16 0 C16 5.61 16 11.22 16 17 C10.72 17.33 5.44 17.66 0 18 C0 12.06 0 6.12 0 0 Z " fill="#060606" transform="translate(246,214)"/>
<path d="M0 0 C3.96 0 7.92 0 12 0 C12 7.26 12 14.52 12 22 C8.04 22.33 4.08 22.66 0 23 C0 15.41 0 7.82 0 0 Z " fill="#C6E4EA" transform="translate(471,206)"/>
<path d="M0 0 C3.96 0 7.92 0 12 0 C12 7.26 12 14.52 12 22 C8.04 22.33 4.08 22.66 0 23 C0 15.41 0 7.82 0 0 Z " fill="#C6E4EA" transform="translate(471,158)"/>
<path d="M0 0 C4.29 0 8.58 0 13 0 C13 7.26 13 14.52 13 22 C6 21 6 21 0 18 C0 12.06 0 6.12 0 0 Z " fill="#BDDAE0" transform="translate(418,208)"/>
<path d="M0 0 C8 1 8 1 11 2 C11 9.26 11 16.52 11 24 C3 24 3 24 0 23 C0 15.41 0 7.82 0 0 Z " fill="#C1DFE5" transform="translate(107,125)"/>
<path d="M0 0 C9 1 9 1 11 2 C11 9.26 11 16.52 11 24 C7.37 23.67 3.74 23.34 0 23 C0 15.41 0 7.82 0 0 Z " fill="#C4E2E8" transform="translate(131,131)"/>
<path d="M0 0 C5.44 0.99 5.44 0.99 11 2 C11 9.59 11 17.18 11 25 C7.37 24.34 3.74 23.68 0 23 C0 15.41 0 7.82 0 0 Z " fill="#C3E0E6" transform="translate(156,138)"/>
<path d="M0 0 C0.66 0 1.32 0 2 0 C4.29 8.43 4.29 8.43 4 13 C3.34 13 2.68 13 2 13 C2.01 14.17 2.01 14.17 2.02 15.35 C2.04 18.86 2.05 22.37 2.06 25.88 C2.07 27.1 2.08 28.32 2.09 29.58 C2.09 31.33 2.09 31.33 2.1 33.12 C2.11 34.74 2.11 34.74 2.11 36.39 C2 39 2 39 1 41 C-0.32 41 -1.64 41 -3 41 C-2.67 37.37 -2.34 33.74 -2 30 C-4.31 29.67 -6.62 29.34 -9 29 C-9 29.66 -9 30.32 -9 31 C-14.28 31 -19.56 31 -25 31 C-25 30.67 -25 30.34 -25 30 C-20.05 30 -15.1 30 -10 30 C-10 29.34 -10 28.68 -10 28 C-4.38 26.88 -4.38 26.88 -1 28 C-1 26.68 -1 25.36 -1 24 C-2.98 23.67 -4.96 23.34 -7 23 C-7 22.34 -7 21.68 -7 21 C-5.35 21 -3.7 21 -2 21 C-4.64 20.01 -7.28 19.02 -10 18 C-10 17.67 -10 17.34 -10 17 C-7.03 17.33 -4.06 17.66 -1 18 C-1.66 16.35 -2.32 14.7 -3 13 C-2.34 13 -1.68 13 -1 13 C-1 12.34 -1 11.68 -1 11 C-3.47 10.5 -3.47 10.5 -6 10 C-4.68 9.67 -3.36 9.34 -2 9 C-2 7.68 -2 6.36 -2 5 C-4.97 4.34 -7.94 3.68 -11 3 C-11 2.67 -11 2.34 -11 2 C-9.74 1.98 -8.48 1.96 -7.19 1.94 C-6.48 1.93 -5.77 1.91 -5.04 1.9 C-3 2 -3 2 0 3 C0 2.01 0 1.02 0 0 Z " fill="#14150E" transform="translate(177,270)"/>
<path d="M0 0 C0.66 0.33 1.32 0.66 2 1 C2 3.97 2 6.94 2 10 C1.34 10 0.68 10 0 10 C0 12.64 0 15.28 0 18 C0.66 18.33 1.32 18.66 2 19 C1.34 19 0.68 19 0 19 C0 21.64 0 24.28 0 27 C0.66 27.33 1.32 27.66 2 28 C1.34 28 0.68 28 0 28 C0 30.64 0 33.28 0 36 C-2.64 36.33 -5.28 36.66 -8 37 C-8.07 33 -8.04 29 -8 25 C-8 24.34 -8.01 23.68 -8.01 23.01 C-8.05 14.39 -7.65 8.04 -1.5 1.41 C-0.76 0.71 -0.76 0.71 0 0 Z " fill="#91B50D" transform="translate(163,261)"/>
<path d="M0 0 C0 1.65 0 3.3 0 5 C-22.44 5 -44.88 5 -68 5 C-64.62 1.62 -64.17 1.61 -59.66 1.48 C-58.57 1.44 -57.48 1.4 -56.35 1.36 C-54.58 1.31 -54.58 1.31 -52.77 1.27 C-51.56 1.23 -50.34 1.19 -49.08 1.15 C-45.18 1.02 -41.28 0.92 -37.38 0.81 C-34.77 0.73 -32.16 0.65 -29.55 0.56 C-9.74 -0.05 -9.74 -0.05 0 0 Z " fill="#559921" transform="translate(95,181)"/>
<path d="M0 0 C0.25 6.55 0.25 6.55 -0.98 8.76 C-2.69 12.52 -2.43 16.52 -2.57 20.6 C-2.73 24.24 -2.93 25.89 -5 29 C-5.33 26.36 -5.66 23.72 -6 21 C-6.29 22 -6.58 22.99 -6.88 24.02 C-11.48 39.71 -16.15 55.38 -21 71 C-22.65 71 -24.3 71 -26 71 C-26.69 69.38 -26.69 69.38 -27 67 C-25.56 63.75 -25.56 63.75 -24 61 C-23.67 62.32 -23.34 63.64 -23 65 C-21.51 62.2 -20.45 59.48 -19.55 56.44 C-19.28 55.54 -19.02 54.64 -18.74 53.71 C-18.46 52.75 -18.17 51.78 -17.88 50.79 C-17.58 49.78 -17.29 48.77 -16.98 47.73 C-16.02 44.51 -15.07 41.29 -14.12 38.06 C-13.49 35.93 -12.86 33.79 -12.23 31.65 C-11.92 30.62 -11.62 29.58 -11.3 28.51 C-10.12 24.54 -8.95 20.57 -7.77 16.6 C-7.08 14.28 -6.41 11.96 -5.73 9.63 C-5.39 8.45 -5.04 7.27 -4.68 6.06 C-4.4 5.08 -4.11 4.1 -3.82 3.1 C-2.99 0.97 -2.46 0 0 0 Z " fill="#0B0903" transform="translate(33,204)"/>
<path d="M0 0 C5.28 0 10.56 0 16 0 C16 3.96 16 7.92 16 12 C10.72 12 5.44 12 0 12 C0 8.04 0 4.08 0 0 Z " fill="#60AB25" transform="translate(73,191)"/>
<path d="M0 0 C5.28 0 10.56 0 16 0 C16 3.96 16 7.92 16 12 C10.72 12 5.44 12 0 12 C0 8.04 0 4.08 0 0 Z " fill="#60AC25" transform="translate(44,191)"/>
<path d="M0 0 C-7.97 11.19 -7.97 11.19 -12.42 12.97 C-18.16 13.2 -21.87 10.78 -26 7 C-26 6.01 -26 5.02 -26 4 C-22.42 3.13 -18.84 2.28 -15.25 1.44 C-14.23 1.19 -13.22 0.94 -12.17 0.69 C-11.19 0.46 -10.21 0.23 -9.2 -0 C-8.3 -0.22 -7.4 -0.43 -6.47 -0.65 C-3.96 -1.01 -2.39 -0.8 0 0 Z " fill="#D81105" transform="translate(102,319)"/>
<path d="M0 0 C0.33 0 0.66 0 1 0 C1.12 8.54 0.85 16.91 0.22 25.42 C-0.08 30.29 -0.09 35.13 0 40 C0.33 40 0.66 40 1 40 C1.08 44.83 0.95 49.24 0 54 C-1.98 54 -3.96 54 -6 54 C-6.13 46.37 -5.76 38.9 -5 31.31 C-4.9 30.31 -4.81 29.31 -4.71 28.28 C-4.48 25.85 -4.24 23.43 -4 21 C-3.34 21.33 -2.68 21.66 -2 22 C-1.34 14.74 -0.68 7.48 0 0 Z " fill="#6F4F07" transform="translate(31,208)"/>
<path d="M0 0 C0.33 0 0.66 0 1 0 C1.19 6.03 1.37 12.06 1.54 18.1 C1.6 20.15 1.66 22.2 1.72 24.25 C1.82 27.2 1.9 30.15 1.98 33.11 C2.01 34.02 2.04 34.94 2.07 35.88 C2.09 36.74 2.11 37.6 2.14 38.49 C2.16 39.24 2.18 39.99 2.2 40.77 C2 43 2 43 0 48 C-6.93 48 -13.86 48 -21 48 C-20.67 46.35 -20.34 44.7 -20 43 C-19.34 43 -18.68 43 -18 43 C-17.51 42.5 -17.51 42.5 -17 42 C-13.2 38.2 -6.36 40.36 -1 40 C-0.67 26.8 -0.34 13.6 0 0 Z " fill="#312D22" transform="translate(61,207)"/>
<path d="M0 0 C4.29 0 8.58 0 13 0 C13 3.96 13 7.92 13 12 C8.71 12 4.42 12 0 12 C0 8.04 0 4.08 0 0 Z " fill="#CACACA" transform="translate(247,427)"/>
<path d="M0 0 C4.29 0 8.58 0 13 0 C13 3.96 13 7.92 13 12 C8.71 12 4.42 12 0 12 C0 8.04 0 4.08 0 0 Z " fill="#CACACA" transform="translate(295,426)"/>
<path d="M0 0 C4.29 0 8.58 0 13 0 C13 3.96 13 7.92 13 12 C8.71 12 4.42 12 0 12 C0 8.04 0 4.08 0 0 Z " fill="#CACBCB" transform="translate(343,425)"/>
<path d="M0 0 C4.29 0 8.58 0 13 0 C13 3.96 13 7.92 13 12 C8.71 12 4.42 12 0 12 C0 8.04 0 4.08 0 0 Z " fill="#D3D3D4" transform="translate(471,422)"/>
<path d="M0 0 C1.38 2.76 0.63 3.92 -0.24 6.85 C-0.69 8.37 -0.69 8.37 -1.15 9.92 C-1.48 11.03 -1.81 12.13 -2.16 13.27 C-2.5 14.42 -2.84 15.56 -3.19 16.74 C-3.91 19.19 -4.64 21.63 -5.38 24.07 C-6.47 27.73 -7.56 31.39 -8.65 35.06 C-12.84 49.13 -17.25 63.11 -22 77 C-22.23 76.08 -22.23 76.08 -22.46 75.15 C-22.84 73.65 -23.25 72.16 -23.68 70.68 C-24.11 67.1 -23.19 64.58 -22.06 61.19 C-21.68 60.03 -21.3 58.86 -20.91 57.67 C-20.61 56.79 -20.31 55.91 -20 55 C-19.01 55.33 -18.02 55.66 -17 56 C-16.74 54.74 -16.47 53.48 -16.2 52.18 C-14.99 46.74 -13.41 41.43 -11.78 36.09 C-11.47 35.09 -11.17 34.08 -10.85 33.05 C-10.21 30.94 -9.57 28.83 -8.92 26.72 C-7.93 23.48 -6.95 20.24 -5.97 17 C-5.34 14.95 -4.72 12.9 -4.09 10.84 C-3.8 9.87 -3.5 8.9 -3.2 7.9 C-2.92 7 -2.65 6.11 -2.37 5.19 C-2.01 4.01 -2.01 4.01 -1.64 2.81 C-1 1 -1 1 0 0 Z " fill="#AC7700" transform="translate(32,196)"/>
<path d="M0 0 C5.61 0 11.22 0 17 0 C17 11.22 17 22.44 17 34 C16.01 34 15.02 34 14 34 C14 23.77 14 13.54 14 3 C8.72 3 3.44 3 -2 3 C-1.34 2.01 -0.68 1.02 0 0 Z " fill="#000000" transform="translate(403,84)"/>
<path d="M0 0 C0.66 0.33 1.32 0.66 2 1 C2 10.24 2 19.48 2 29 C-2.11 31.05 -3.8 31.22 -8.25 31.12 C-9.33 31.11 -10.41 31.09 -11.52 31.07 C-12.34 31.05 -13.16 31.02 -14 31 C-13.01 29.51 -13.01 29.51 -12 28 C-11.34 28 -10.68 28 -10 28 C-10 19.42 -10 10.84 -10 2 C-9.34 2 -8.68 2 -8 2 C-8 10.91 -8 19.82 -8 29 C-5.69 28.34 -3.38 27.68 -1 27 C-0.67 18.09 -0.34 9.18 0 0 Z " fill="#080806" transform="translate(189,281)"/>
<path d="M0 0 C4.29 0 8.58 0 13 0 C13 3.63 13 7.26 13 11 C8.71 11 4.42 11 0 11 C0 7.37 0 3.74 0 0 Z " fill="#D3D3D3" transform="translate(279,427)"/>
<path d="M0 0 C4.29 0 8.58 0 13 0 C13 3.63 13 7.26 13 11 C8.71 11 4.42 11 0 11 C0 7.37 0 3.74 0 0 Z " fill="#D3D3D3" transform="translate(327,426)"/>
<path d="M0 0 C3.63 0 7.26 0 11 0 C11 4.29 11 8.58 11 13 C7.37 13 3.74 13 0 13 C0 8.71 0 4.42 0 0 Z " fill="#CFD0D0" transform="translate(457,422)"/>
<path d="M0 0 C4.29 0 8.58 0 13 0 C13 21.12 13 42.24 13 64 C11.51 63.5 11.51 63.5 10 63 C10.66 63 11.32 63 12 63 C11.67 48.81 11.34 34.62 11 20 C9.68 19.67 8.36 19.34 7 19 C7.99 19 8.98 19 10 19 C10 13.72 10 8.44 10 3 C4.72 3 -0.56 3 -6 3 C-6 2.67 -6 2.34 -6 2 C-4.02 1.67 -2.04 1.34 0 1 C0 0.67 0 0.34 0 0 Z " fill="#C2C3C3" transform="translate(305,208)"/>
<path d="M0 0 C0.66 0.99 1.32 1.98 2 3 C4 3.04 6 3.04 8 3 C10.88 4 10.88 4 13 5 C13 5.99 13 6.98 13 8 C10.69 8 8.38 8 6 8 C9.47 9.49 9.47 9.49 13 11 C10 12 10 12 7 11 C7 11.66 7 12.32 7 13 C9.97 13.5 9.97 13.5 13 14 C13 15.32 13 16.64 13 18 C12.29 17.84 11.58 17.69 10.85 17.53 C9.93 17.33 9.01 17.14 8.06 16.94 C7.15 16.74 6.23 16.54 5.29 16.34 C4.53 16.23 3.78 16.12 3 16 C2.67 16.33 2.34 16.66 2 17 C2 17.33 2 17.66 2 18 C-0.64 18 -3.28 18 -6 18 C-6 17.67 -6 17.34 -6 17 C-4.02 17 -2.04 17 0 17 C0 11.39 0 5.78 0 0 Z " fill="#474F17" transform="translate(163,280)"/>
<path d="M0 0 C1 3 1 3 -0.37 5.79 C-8.98 19.45 -19.46 34.84 -33 44 C-33.99 44 -34.98 44 -36 44 C-35.26 43.3 -34.52 42.59 -33.76 41.87 C-23.07 31.53 -14.28 20.15 -5.97 7.84 C-4.09 5.13 -2.1 2.55 0 0 Z " fill="#C71005" transform="translate(153,245)"/>
<path d="M0 0 C3.63 0.33 7.26 0.66 11 1 C10.67 3.64 10.34 6.28 10 9 C8.35 9 6.7 9 5 9 C6.32 9.33 7.64 9.66 9 10 C9 11.32 9 12.64 9 14 C4.45 14.18 1.12 14 -3 12 C-3 10.68 -3 9.36 -3 8 C-2.34 7.67 -1.68 7.34 -1 7 C-0.59 4.68 -0.26 2.34 0 0 Z " fill="#979797" transform="translate(422,276)"/>
<path d="M0 0 C3.96 0 7.92 0 12 0 C12 3.63 12 7.26 12 11 C8.04 11 4.08 11 0 11 C0 7.37 0 3.74 0 0 Z " fill="#DADADA" transform="translate(232,428)"/>
<path d="M0 0 C3.96 0 7.92 0 12 0 C12 3.63 12 7.26 12 11 C8.04 11 4.08 11 0 11 C0 7.37 0 3.74 0 0 Z " fill="#DBDBDB" transform="translate(216,428)"/>
<path d="M0 0 C3.96 0 7.92 0 12 0 C12 3.63 12 7.26 12 11 C8.04 11 4.08 11 0 11 C0 7.37 0 3.74 0 0 Z " fill="#DBDBDB" transform="translate(264,427)"/>
<path d="M0 0 C3.96 0 7.92 0 12 0 C12 3.63 12 7.26 12 11 C8.04 11 4.08 11 0 11 C0 7.37 0 3.74 0 0 Z " fill="#DBDBDB" transform="translate(312,426)"/>
<path d="M0 0 C3.96 0 7.92 0 12 0 C12 3.63 12 7.26 12 11 C8.04 11 4.08 11 0 11 C0 7.37 0 3.74 0 0 Z " fill="#DBDBDB" transform="translate(360,425)"/>
<path d="M0 0 C15.18 0 30.36 0 46 0 C45.67 4.29 45.34 8.58 45 13 C44.67 13 44.34 13 44 13 C44 9.37 44 5.74 44 2 C38.39 2 32.78 2 27 2 C27 5.96 27 9.92 27 14 C26.67 14 26.34 14 26 14 C26 10.04 26 6.08 26 2 C22.37 2 18.74 2 15 2 C15 5.96 15 9.92 15 14 C14.67 14 14.34 14 14 14 C14 10.04 14 6.08 14 2 C9.05 2 4.1 2 -1 2 C-0.67 1.34 -0.34 0.68 0 0 Z " fill="#020201" transform="translate(46,189)"/>
<path d="M0 0 C3.63 0 7.26 0 11 0 C11 3.63 11 7.26 11 11 C7.37 11 3.74 11 0 11 C0 7.37 0 3.74 0 0 Z " fill="#D3D3D3" transform="translate(375,425)"/>
<path d="M0 0 C2.05 0.03 4.1 0.07 6.15 0.1 C6.15 4.39 6.15 8.68 6.15 13.1 C3.18 13.1 0.21 13.1 -2.85 13.1 C-2.87 11.12 -2.89 9.14 -2.91 7.16 C-2.92 6.06 -2.93 4.96 -2.95 3.82 C-2.81 0.15 -2.81 0.15 0 0 Z " fill="#CBCCCC" transform="translate(489.84765625,420.90234375)"/>
<path d="M0 0 C0.33 0 0.66 0 1 0 C1 13.86 1 27.72 1 42 C1.99 41.5 1.99 41.5 3 41 C5.55 40.93 8.07 40.91 10.62 40.94 C11.68 40.94 11.68 40.94 12.77 40.95 C14.51 40.96 16.26 40.98 18 41 C18 42.32 18 43.64 18 45 C16.72 45.05 15.45 45.1 14.13 45.15 C12.46 45.22 10.79 45.3 9.12 45.38 C7.86 45.42 7.86 45.42 6.57 45.47 C5.37 45.53 5.37 45.53 4.13 45.59 C3.39 45.62 2.65 45.65 1.88 45.68 C-0.24 45.85 -0.24 45.85 -2 48 C-1.84 47.43 -1.68 46.87 -1.51 46.28 C-0.99 43.96 -0.84 41.88 -0.79 39.51 C-0.77 38.63 -0.75 37.75 -0.73 36.84 C-0.72 35.9 -0.7 34.95 -0.68 33.98 C-0.66 33.01 -0.64 32.04 -0.62 31.04 C-0.56 27.94 -0.5 24.85 -0.44 21.75 C-0.39 19.65 -0.35 17.55 -0.31 15.45 C-0.2 10.3 -0.1 5.15 0 0 Z " fill="#403B2B" transform="translate(71,207)"/>
<path d="M0 0 C4 2 4 2 5.24 5.18 C5.61 6.6 5.97 8.02 6.31 9.44 C6.51 10.21 6.71 10.97 6.91 11.77 C7.36 13.51 7.8 15.25 8.24 17 C9.1 20.38 10 23.76 10.91 27.13 C11.57 29.59 12.22 32.04 12.88 34.5 C13.2 35.7 13.52 36.9 13.85 38.13 C14.15 39.26 14.44 40.38 14.74 41.53 C15.01 42.54 15.28 43.54 15.55 44.58 C16 47 16 47 15 49 C14.34 48.67 13.68 48.34 13 48 C12.18 45.45 11.48 42.95 10.84 40.35 C10.64 39.58 10.44 38.81 10.24 38.02 C9.82 36.4 9.41 34.77 9 33.14 C8.38 30.64 7.74 28.15 7.1 25.66 C6.7 24.08 6.3 22.49 5.9 20.91 C5.61 19.79 5.61 19.79 5.32 18.65 C4.58 15.69 4 13.07 4 10 C3.34 10 2.68 10 2 10 C1.34 6.7 0.68 3.4 0 0 Z " fill="#181714" transform="translate(99,196)"/>
<path d="M0 0 C5.94 1.49 5.94 1.49 12 3 C12 6.63 12 10.26 12 14 C10.95 13.53 9.9 13.05 8.81 12.56 C5.9 11.31 3.15 10.48 0 10 C0 6.7 0 3.4 0 0 Z " fill="#F4F4F4" transform="translate(430,253)"/>
<path d="M0 0 C3.3 0 6.6 0 10 0 C10 3.63 10 7.26 10 11 C6.7 11 3.4 11 0 11 C0 7.37 0 3.74 0 0 Z " fill="#D9D9D9" transform="translate(186,429)"/>
<path d="M0 0 C3.3 0 6.6 0 10 0 C10 3.63 10 7.26 10 11 C6.7 11 3.4 11 0 11 C0 7.37 0 3.74 0 0 Z " fill="#B1CCD1" transform="translate(224,219)"/>
<path d="M0 0 C3.3 0 6.6 0 10 0 C10 3.63 10 7.26 10 11 C6.7 11 3.4 11 0 11 C0 7.37 0 3.74 0 0 Z " fill="#AEC8CD" transform="translate(188,164)"/>
<path d="M0 0 C2.97 0 5.94 0 9 0 C9 3.96 9 7.92 9 12 C6.03 12 3.06 12 0 12 C0 8.04 0 4.08 0 0 Z " fill="#61AE25" transform="translate(62,191)"/>
<path d="M0 0 C1 2 1 2 0.18 4.88 C-0.25 6.09 -0.68 7.31 -1.12 8.56 C-3.65 15.82 -5.85 23.14 -7.98 30.52 C-8.62 32.69 -9.28 34.85 -10 37 C-11.65 37 -13.3 37 -15 37 C-15.69 35.38 -15.69 35.38 -16 33 C-14.56 29.75 -14.56 29.75 -13 27 C-12.67 28.32 -12.34 29.64 -12 31 C-10.37 27.98 -9.33 25.01 -8.38 21.72 C-8.08 20.71 -7.79 19.71 -7.48 18.67 C-6.87 16.56 -6.26 14.45 -5.65 12.33 C-5.36 11.33 -5.06 10.32 -4.75 9.28 C-4.49 8.36 -4.22 7.45 -3.95 6.5 C-2.97 3.92 -1.76 2.11 0 0 Z " fill="#15130E" transform="translate(22,238)"/>
<path d="M0 0 C3.3 0 6.6 0 10 0 C10 3.3 10 6.6 10 10 C6.7 10.33 3.4 10.66 0 11 C0 7.37 0 3.74 0 0 Z " fill="#B6D2D7" transform="translate(249,217)"/>
<path d="M0 0 C3.54 1.13 6.66 2.33 10 4 C10 7.3 10 10.6 10 14 C6.46 12.87 3.34 11.67 0 10 C0 6.7 0 3.4 0 0 Z " fill="#D9D9D9" transform="translate(170,424)"/>
<path d="M0 0 C2.97 0 5.94 0 9 0 C9 3.63 9 7.26 9 11 C6.03 11 3.06 11 0 11 C0 7.37 0 3.74 0 0 Z " fill="#BBD8DD" transform="translate(303,214)"/>
<path d="M0 0 C2.97 0 5.94 0 9 0 C9 3.63 9 7.26 9 11 C6.03 11 3.06 11 0 11 C0 7.37 0 3.74 0 0 Z " fill="#BBD8DD" transform="translate(345,133)"/>
<path d="M0 0 C1.9 -0.08 3.79 -0.14 5.69 -0.19 C6.74 -0.22 7.8 -0.26 8.89 -0.29 C12.38 0.04 14.23 0.88 17 3 C17 3.66 17 4.32 17 5 C15.35 4.67 13.7 4.34 12 4 C11.67 5.32 11.34 6.64 11 8 C3.61 8.36 3.61 8.36 1 6.81 C-0.3 4.46 -0.07 2.65 0 0 Z " fill="#535453" transform="translate(422,266)"/>
<path d="M0 0 C0.96 0.01 1.92 0.01 2.9 0.02 C4.46 0.02 4.46 0.02 6.04 0.03 C7.13 0.03 8.22 0.04 9.34 0.05 C10.98 0.06 10.98 0.06 12.65 0.06 C15.36 0.08 18.07 0.09 20.78 0.11 C20.78 0.44 20.78 0.77 20.78 1.11 C23.75 1.44 26.72 1.77 29.78 2.11 C29.78 2.44 29.78 2.77 29.78 3.11 C18.76 3.88 7.82 4.25 -3.22 4.11 C-3.22 0.16 -3.22 0.16 0 0 Z " fill="#1A1A1A" transform="translate(261.224853515625,88.886474609375)"/>
<path d="M0 0 C2.97 0 5.94 0 9 0 C9 3.3 9 6.6 9 10 C4.55 10.5 4.55 10.5 0 11 C0 7.37 0 3.74 0 0 Z " fill="#C1DFE5" transform="translate(293,135)"/>
<path d="M0 0 C2.97 0 5.94 0 9 0 C9 3.3 9 6.6 9 10 C4.55 10.5 4.55 10.5 0 11 C0 7.37 0 3.74 0 0 Z " fill="#BFDCE2" transform="translate(475,129)"/>
<path d="M0 0 C0.66 0 1.32 0 2 0 C1.44 5.49 0.42 10.52 -1.29 15.78 C-1.51 16.48 -1.73 17.18 -1.95 17.9 C-2.65 20.1 -3.36 22.3 -4.06 24.5 C-4.54 26.01 -5.02 27.51 -5.49 29.02 C-6.66 32.68 -7.83 36.34 -9 40 C-9.66 40 -10.32 40 -11 40 C-10.39 34.85 -9.26 30.05 -7.71 25.1 C-7.49 24.38 -7.27 23.65 -7.05 22.91 C-6.35 20.62 -5.64 18.34 -4.94 16.06 C-4.46 14.5 -3.98 12.95 -3.51 11.39 C-2.34 7.59 -1.17 3.79 0 0 Z " fill="#1A1915" transform="translate(24,212)"/>
<path d="M0 0 C2.97 0 5.94 0 9 0 C9 3.3 9 6.6 9 10 C4.55 10.5 4.55 10.5 0 11 C0 7.37 0 3.74 0 0 Z " fill="#C4E2E8" transform="translate(267,136)"/>
<path d="M0 0 C2.97 0 5.94 0 9 0 C9 3.3 9 6.6 9 10 C4.55 10.5 4.55 10.5 0 11 C0 7.37 0 3.74 0 0 Z " fill="#C2DFE5" transform="translate(319,134)"/>
<path d="M0 0 C2.97 0 5.94 0 9 0 C9 3.3 9 6.6 9 10 C4.54 10.5 4.54 10.5 0 11 C0 7.37 0 3.74 0 0 Z " fill="#C4E2E8" transform="translate(241,137)"/>
<path d="M0 0 C0.66 0 1.32 0.01 2 0.01 C4.11 0.03 6.22 0.07 8.33 0.11 C9.76 0.12 11.2 0.13 12.63 0.15 C16.13 0.18 19.64 0.23 23.14 0.29 C22.07 1.77 22.07 1.77 20.14 3.29 C17.05 3.63 17.05 3.63 13.29 3.59 C12.63 3.58 11.97 3.58 11.28 3.57 C9.17 3.56 7.07 3.52 4.96 3.48 C3.53 3.47 2.09 3.45 0.66 3.44 C-2.84 3.41 -6.35 3.35 -9.86 3.29 C-7.15 -0.45 -4.39 -0.06 0 0 Z " fill="#020001" transform="translate(348.85546875,85.70703125)"/>
<path d="M0 0 C4.46 1.98 4.46 1.98 9 4 C9 7.3 9 10.6 9 14 C5.6 12.94 2.99 11.99 0 10 C-0.41 6.63 -0.13 3.4 0 0 Z " fill="#C4C5C5" transform="translate(146,411)"/>
<path d="M0 0 C4.46 1.98 4.46 1.98 9 4 C9 7.3 9 10.6 9 14 C5.6 12.94 2.99 11.99 0 10 C-0.41 6.63 -0.13 3.4 0 0 Z " fill="#C1C2C2" transform="translate(134,405)"/>
<path d="M0 0 C2.97 0 5.94 0 9 0 C9 3.3 9 6.6 9 10 C6.03 10 3.06 10 0 10 C0 6.7 0 3.4 0 0 Z " fill="#C3E1E6" transform="translate(277,216)"/>
<path d="M0 0 C2.97 0 5.94 0 9 0 C9 3.3 9 6.6 9 10 C6.03 10 3.06 10 0 10 C0 6.7 0 3.4 0 0 Z " fill="#C1DEE4" transform="translate(215,164)"/>
<path d="M0 0 C2.97 0 5.94 0 9 0 C9 3.3 9 6.6 9 10 C6.03 10 3.06 10 0 10 C0 6.7 0 3.4 0 0 Z " fill="#C4E2E7" transform="translate(241,163)"/>
<path d="M0 0 C2.97 0 5.94 0 9 0 C9 3.3 9 6.6 9 10 C6.03 10 3.06 10 0 10 C0 6.7 0 3.4 0 0 Z " fill="#C5E3E9" transform="translate(267,162)"/>
<path d="M0 0 C2.97 0 5.94 0 9 0 C9 3.3 9 6.6 9 10 C6.03 10 3.06 10 0 10 C0 6.7 0 3.4 0 0 Z " fill="#C3E1E7" transform="translate(189,139)"/>
<path d="M0 0 C2.97 0 5.94 0 9 0 C9 3.3 9 6.6 9 10 C6.03 10 3.06 10 0 10 C0 6.7 0 3.4 0 0 Z " fill="#C5E3E9" transform="translate(215,138)"/>
<path d="M0 0 C2.97 0 5.94 0 9 0 C9 3.3 9 6.6 9 10 C6.03 10 3.06 10 0 10 C0 6.7 0 3.4 0 0 Z " fill="#C4E2E8" transform="translate(397,132)"/>
<path d="M0 0 C2.97 0 5.94 0 9 0 C9 3.3 9 6.6 9 10 C6.03 10 3.06 10 0 10 C0 6.7 0 3.4 0 0 Z " fill="#C4E2E8" transform="translate(423,131)"/>
<path d="M0 0 C2.97 0 5.94 0 9 0 C9 3.3 9 6.6 9 10 C6.03 10 3.06 10 0 10 C0 6.7 0 3.4 0 0 Z " fill="#C5E3E9" transform="translate(449,130)"/>
<path d="M0 0 C1.67 0.02 1.67 0.02 3.38 0.05 C5.19 0.06 5.19 0.06 7.04 0.08 C8.94 0.11 8.94 0.11 10.87 0.15 C12.78 0.17 12.78 0.17 14.73 0.19 C17.88 0.23 21.03 0.28 24.18 0.34 C24.51 1.33 24.84 2.32 25.18 3.34 C14.95 3.34 4.72 3.34 -5.82 3.34 C-2.82 0.34 -2.82 0.34 0 0 Z " fill="#020001" transform="translate(286.819091796875,87.659423828125)"/>
<path d="M0 0 C2.97 0 5.94 0 9 0 C9 2.97 9 5.94 9 9 C4.55 9.5 4.55 9.5 0 10 C0 6.7 0 3.4 0 0 Z " fill="#C5E3E9" transform="translate(371,133)"/>
<path d="M0 0 C1.65 0 3.3 0 5 0 C5 4.29 5 8.58 5 13 C2.69 13 0.38 13 -2 13 C-2.05 11.58 -2.09 10.17 -2.12 8.75 C-2.15 7.96 -2.17 7.17 -2.2 6.36 C-1.98 3.79 -1.29 2.21 0 0 Z " fill="#5BA323" transform="translate(37,191)"/>
<path d="M0 0 C0.33 0 0.66 0 1 0 C1.29 14.4 0.62 28.82 -2 43 C-2.33 43 -2.66 43 -3 43 C-3.25 32.78 -2.87 22.69 -2.06 12.5 C-1.98 11.38 -1.89 10.27 -1.8 9.12 C-1.13 1.13 -1.13 1.13 0 0 Z " fill="#11100E" transform="translate(33,211)"/>
<path d="M0 0 C3.4 1.06 6.01 2.01 9 4 C9.29 6.16 9.29 6.16 9.19 8.62 C9.16 9.44 9.13 10.26 9.11 11.1 C9.07 11.73 9.04 12.35 9 13 C5.9 11.79 2.99 10.49 0 9 C0 6.03 0 3.06 0 0 Z " fill="#BEBEBE" transform="translate(51,363)"/>
<path d="M0 0 C3.96 1.98 3.96 1.98 8 4 C8 7.3 8 10.6 8 14 C2.25 12.25 2.25 12.25 0 10 C-0.2 7.62 -0.2 7.62 -0.12 4.88 C-0.11 3.96 -0.09 3.05 -0.07 2.12 C-0.05 1.42 -0.02 0.72 0 0 Z " fill="#D3D3D3" transform="translate(158,417)"/>
<path d="M0 0 C5.44 1.49 5.44 1.49 11 3 C9.31 7.23 7.69 10.38 5 14 C4.34 14 3.68 14 3 14 C2.5 12.23 2 10.46 1.5 8.69 C1.22 7.7 0.94 6.72 0.66 5.7 C0 3 0 3 0 0 Z " fill="#D3D3D3" transform="translate(116,248)"/>
<path d="M0 0 C3.4 1.06 6.01 2.01 9 4 C9.41 7.04 9.13 9.92 9 13 C6.03 11.35 3.06 9.7 0 8 C0 5.36 0 2.72 0 0 Z " fill="#C5C5C5" transform="translate(39,357)"/>
<path d="M0 0 C5.75 1.88 5.75 1.88 8 3 C8 6.3 8 9.6 8 13 C5.36 11.68 2.72 10.36 0 9 C0 6.03 0 3.06 0 0 Z " fill="#D4D4D4" transform="translate(123,400)"/>
<path d="M0 0 C5.75 1.88 5.75 1.88 8 3 C8 6.3 8 9.6 8 13 C5.36 11.68 2.72 10.36 0 9 C0 6.03 0 3.06 0 0 Z " fill="#D5D5D5" transform="translate(111,394)"/>
<path d="M0 0 C3.37 0.55 5.08 1.05 8 3 C8.29 5.16 8.29 5.16 8.19 7.62 C8.16 8.44 8.13 9.26 8.11 10.1 C8.07 10.73 8.04 11.35 8 12 C2.25 10.12 2.25 10.12 0 9 C0 6.03 0 3.06 0 0 Z " fill="#D6D6D6" transform="translate(99,388)"/>
<path d="M0 0 C3.96 1.98 3.96 1.98 8 4 C8 6.97 8 9.94 8 13 C5.03 11.88 2.67 10.78 0 9 C-0.41 5.96 -0.13 3.08 0 0 Z " fill="#D6D7D7" transform="translate(87,381)"/>
<path d="M0 0 C0.66 0 1.32 0 2 0 C1.12 5.75 1.12 5.75 0 8 C-6.6 8 -13.2 8 -20 8 C-19.67 7.01 -19.34 6.02 -19 5 C-13.06 5 -7.12 5 -1 5 C-0.67 3.35 -0.34 1.7 0 0 Z " fill="#1E1602" transform="translate(90,247)"/>
<path d="M0 0 C4.22 1.49 7.62 3.61 11.31 6.12 C12.38 6.85 13.45 7.57 14.55 8.32 C15.76 9.15 15.76 9.15 17 10 C13.13 11.29 10.56 10.22 6.81 9.06 C6.16 8.87 5.5 8.67 4.83 8.47 C3.22 7.99 1.61 7.5 0 7 C0 4.69 0 2.38 0 0 Z " fill="#C5002E" transform="translate(180,193)"/>
<path d="M0 0 C3.96 1.98 3.96 1.98 8 4 C8 6.97 8 9.94 8 13 C5.36 11.68 2.72 10.36 0 9 C0 6.03 0 3.06 0 0 Z " fill="#D6D7D7" transform="translate(75,375)"/>
<path d="M0 0 C0.33 0 0.66 0 1 0 C1.33 1.98 1.66 3.96 2 6 C2.66 5.67 3.32 5.34 4 5 C4 5.99 4 6.98 4 8 C8.46 7.5 8.46 7.5 13 7 C13 5.35 13 3.7 13 2 C13.99 3.49 13.99 3.49 15 5 C17.55 6.2 17.55 6.2 20 7 C18.68 7.33 17.36 7.66 16 8 C16 8.66 16 9.32 16 10 C13.35 10.03 10.71 10.05 8.06 10.06 C6.93 10.08 6.93 10.08 5.78 10.09 C3.85 10.1 1.92 10.05 0 10 C-1 9 -1 9 -1.13 7.19 C-1.13 6.47 -1.13 5.74 -1.12 5 C-1.13 4.28 -1.13 3.56 -1.13 2.81 C-1 1 -1 1 0 0 Z " fill="#030101" transform="translate(151,290)"/>
<path d="M0 0 C0.99 0 1.98 0 3 0 C3 7.59 3 15.18 3 23 C2.01 23 1.02 23 0 23 C0 15.41 0 7.82 0 0 Z " fill="#B0CBD0" transform="translate(323,212)"/>
<path d="M0 0 C3.96 1.98 3.96 1.98 8 4 C8 6.64 8 9.28 8 12 C2.25 10.12 2.25 10.12 0 9 C0 6.03 0 3.06 0 0 Z " fill="#D7D7D7" transform="translate(63,369)"/>
<path d="M0 0 C3.96 1.98 3.96 1.98 8 4 C8 6.64 8 9.28 8 12 C2.25 10.12 2.25 10.12 0 9 C0 6.03 0 3.06 0 0 Z " fill="#D2D2D2" transform="translate(28,351)"/>
<path d="M0 0 C0.99 0.33 1.98 0.66 3 1 C2.5 8.49 0.56 14.96 -2 22 C-2.34 20.67 -2.68 19.34 -3 18 C-3.23 17.23 -3.45 16.47 -3.68 15.68 C-4.11 12.1 -3.19 9.58 -2.06 6.19 C-1.68 5.03 -1.3 3.86 -0.91 2.67 C-0.61 1.79 -0.31 0.91 0 0 Z " fill="#6F510C" transform="translate(12,251)"/>
<path d="M0 0 C0.33 0.99 0.66 1.98 1 3 C-0.15 5.27 -1.32 7.31 -2.69 9.44 C-3.22 10.3 -3.22 10.3 -3.76 11.17 C-6.78 15.98 -9.72 19.74 -15 22 C-13.29 18.24 -10.98 14.93 -8.62 11.56 C-8.24 11 -7.85 10.44 -7.45 9.87 C-5.09 6.47 -2.62 3.2 0 0 Z " fill="#CA1005" transform="translate(153,245)"/>
<path d="M0 0 C1.65 0 3.3 0 5 0 C5.2 1.44 5.38 2.87 5.56 4.31 C5.67 5.11 5.77 5.91 5.88 6.74 C6 9 6 9 5 12 C3.35 12 1.7 12 0 12 C0 8.04 0 4.08 0 0 Z " fill="#5BA324" transform="translate(91,191)"/>
<path d="M0 0 C3.96 1.98 3.96 1.98 8 4 C8 6.64 8 9.28 8 12 C5.36 10.68 2.72 9.36 0 8 C0 5.36 0 2.72 0 0 Z " fill="#D8D9D9" transform="translate(16,345)"/>
<path d="M0 0 C3.63 0.33 7.26 0.66 11 1 C10.67 3.64 10.34 6.28 10 9 C8.35 9 6.7 9 5 9 C5 7.68 5 6.36 5 5 C3.35 4.67 1.7 4.34 0 4 C0 2.68 0 1.36 0 0 Z " fill="#808080" transform="translate(422,276)"/>
<path d="M0 0 C5.88 1.88 5.88 1.88 7 3 C7.14 5.67 7.04 8.32 7 11 C4.69 10.67 2.38 10.34 0 10 C0 6.7 0 3.4 0 0 Z " fill="#D6D7D7" transform="translate(5,340)"/>
<path d="M0 0 C0.66 0.33 1.32 0.66 2 1 C2 10.24 2 19.48 2 29 C1.01 29 0.02 29 -1 29 C-0.67 19.43 -0.34 9.86 0 0 Z " fill="#010000" transform="translate(189,281)"/>
<path d="M0 0 C0.99 0.33 1.98 0.66 3 1 C3.82 2.76 3.82 2.76 4.42 5.04 C4.64 5.87 4.86 6.7 5.09 7.55 C5.31 8.42 5.53 9.29 5.75 10.19 C5.98 11.04 6.22 11.89 6.46 12.77 C7.68 17.52 8.3 21.14 7 26 C5.52 23.23 4.51 20.59 3.71 17.56 C3.49 16.73 3.27 15.9 3.05 15.04 C2.83 14.18 2.6 13.32 2.38 12.44 C2.15 11.57 1.92 10.71 1.68 9.82 C0 3.39 0 3.39 0 0 Z " fill="#20201D" transform="translate(108,241)"/>
<path d="M0 0 C0.33 0 0.66 0 1 0 C1.08 4.83 0.95 9.24 0 14 C-1.98 14 -3.96 14 -6 14 C-6 10.37 -6 6.74 -6 3 C-4.52 3.99 -4.52 3.99 -3 5 C-2.54 4.04 -2.54 4.04 -2.06 3.06 C-1 1 -1 1 0 0 Z " fill="#342F23" transform="translate(31,248)"/>
<path d="M0 0 C1.95 -0.29 1.95 -0.29 4.12 -0.19 C5.4 -0.13 6.68 -0.06 8 0 C8 0.66 8 1.32 8 2 C8.99 2.33 9.98 2.66 11 3 C10.01 3 9.02 3 8 3 C8.33 5.64 8.66 8.28 9 11 C7 9.19 7 9.19 5 7 C5 6.01 5 5.02 5 4 C2.69 3.67 0.38 3.34 -2 3 C-1.34 2.01 -0.68 1.02 0 0 Z " fill="#150E16" transform="translate(93,188)"/>
<path d="M0 0 C0.33 0 0.66 0 1 0 C1.03 3.29 1.05 6.58 1.06 9.88 C1.07 10.81 1.08 11.75 1.09 12.71 C1.09 13.61 1.09 14.51 1.1 15.43 C1.1 16.26 1.11 17.08 1.11 17.94 C1 20 1 20 0 22 C-1.32 22 -2.64 22 -4 22 C-3.67 18.37 -3.34 14.74 -3 11 C-2.01 12.49 -2.01 12.49 -1 14 C-0.67 9.38 -0.34 4.76 0 0 Z " fill="#354010" transform="translate(178,289)"/>
<path d="M0 0 C4.95 0 9.9 0 15 0 C15 0.99 15 1.98 15 3 C9.72 3 4.44 3 -1 3 C-0.67 2.01 -0.34 1.02 0 0 Z " fill="#D29200" transform="translate(45,248)"/>
<path d="M0 0 C4.95 0 9.9 0 15 0 C15 0.99 15 1.98 15 3 C9.72 3 4.44 3 -1 3 C-0.67 2.01 -0.34 1.02 0 0 Z " fill="#D69400" transform="translate(74,248)"/>
<path d="M0 0 C4 2 4 2 5.25 4.69 C6.05 8.23 6.14 11.38 6 15 C5.34 14.34 4.68 13.68 4 13 C4 12.01 4 11.02 4 10 C3.34 10 2.68 10 2 10 C1.34 6.7 0.68 3.4 0 0 Z " fill="#15120F" transform="translate(99,196)"/>
<path d="M0 0 C4.95 0.99 4.95 0.99 10 2 C10 3.32 10 4.64 10 6 C6.7 5.34 3.4 4.68 0 4 C0 2.68 0 1.36 0 0 Z " fill="#87A90C" transform="translate(166,292)"/>
<path d="M0 0 C0 3.52 -0.82 4.37 -3 7 C-5.02 6.4 -7.02 5.73 -9 5 C-9.33 4.34 -9.66 3.68 -10 3 C-5.05 1.51 -5.05 1.51 0 0 Z " fill="#BF0F05" transform="translate(76,312)"/>
<path d="M0 0 C6.75 -0.12 6.75 -0.12 9 1 C9 2.32 9 3.64 9 5 C6.36 4.67 3.72 4.34 1 4 C0.67 2.68 0.34 1.36 0 0 Z " fill="#8DB00C" transform="translate(166,274)"/>
<path d="M0 0 C1.98 0.5 1.98 0.5 4 1 C4 1.66 4 2.32 4 3 C3.01 3 2.02 3 1 3 C1 3.66 1 4.32 1 5 C2.65 5.33 4.3 5.66 6 6 C6 6.66 6 7.32 6 8 C3.69 8 1.38 8 -1 8 C-0.67 5.36 -0.34 2.72 0 0 Z " fill="#829522" transform="translate(167,260)"/>
<path d="M0 0 C3.47 0.46 6.67 0.89 10 2 C10 2.99 10 3.98 10 5 C6.7 4.34 3.4 3.68 0 3 C0 2.01 0 1.02 0 0 Z " fill="#8DAF0C" transform="translate(166,283)"/>
<path d="M0 0 C1.23 0.15 1.23 0.15 2.48 0.31 C3.42 0.43 3.42 0.43 4.38 0.56 C4.38 0.89 4.38 1.22 4.38 1.56 C2.95 1.78 2.95 1.78 1.5 2 C-1.52 2.39 -1.52 2.39 -3.62 3.56 C-3.96 4.55 -4.28 5.54 -4.62 6.56 C-5.28 7.22 -5.94 7.88 -6.62 8.56 C-6.62 5.92 -6.62 3.28 -6.62 0.56 C-4.1 -0.7 -2.77 -0.36 0 0 Z " fill="#5A5E27" transform="translate(169.625,270.4375)"/>
<path d="M0 0 C1.65 0 3.3 0 5 0 C5 2.31 5 4.62 5 7 C3.35 6.67 1.7 6.34 0 6 C0 4.02 0 2.04 0 0 Z " fill="#BDBDBD" transform="translate(422,266)"/>
<path d="M0 0 C0.62 1.88 0.62 1.88 1 4 C0.34 4.66 -0.32 5.32 -1 6 C-1.72 8.32 -2.39 10.65 -3 13 C-3.99 13 -4.98 13 -6 13 C-5.01 9.37 -4.02 5.74 -3 2 C-2.34 2 -1.68 2 -1 2 C-0.67 1.34 -0.34 0.68 0 0 Z " fill="#1B1C11" transform="translate(33,191)"/>
<path d="M0 0 C0.99 0.33 1.98 0.66 3 1 C-2.94 6.44 -2.94 6.44 -9 12 C-9.66 11.67 -10.32 11.34 -11 11 C-7.37 7.37 -3.74 3.74 0 0 Z " fill="#A40D04" transform="translate(128,278)"/>
<path d="M0 0 C0.37 6.4 0.37 6.4 -1.5 9.44 C-2 9.95 -2.49 10.47 -3 11 C-3.66 10.67 -4.32 10.34 -5 10 C-4.72 8.52 -4.42 7.04 -4.12 5.56 C-3.96 4.74 -3.8 3.92 -3.63 3.07 C-3.42 2.38 -3.22 1.7 -3 1 C-1 0 -1 0 0 0 Z " fill="#150F00" transform="translate(33,204)"/>
<path d="M0 0 C0.33 0 0.66 0 1 0 C1.08 4.52 1.1 8.59 0 13 C-0.99 13.33 -1.98 13.66 -3 14 C-2.69 12.42 -2.38 10.83 -2.06 9.25 C-1.89 8.37 -1.71 7.49 -1.54 6.58 C-1.08 4.37 -0.57 2.18 0 0 Z " fill="#ACACAC" transform="translate(27,221)"/>
<path d="M0 0 C0.33 1.32 0.66 2.64 1 4 C1.99 4.33 2.98 4.66 4 5 C3.01 7.64 2.02 10.28 1 13 C0.67 13 0.34 13 0 13 C0 8.71 0 4.42 0 0 Z " fill="#050501" transform="translate(164,273)"/>
<path d="M0 0 C2.3 3.45 2.14 4.23 1.62 8.19 C1.51 9.09 1.4 9.99 1.29 10.92 C1.19 11.61 1.1 12.29 1 13 C0.67 13 0.34 13 0 13 C-0.19 11.21 -0.38 9.42 -0.56 7.62 C-0.67 6.63 -0.77 5.63 -0.88 4.6 C-1 2 -1 2 0 0 Z " fill="#1D210D" transform="translate(186,257)"/>
<path d="M0 0 C1.47 3.81 0.43 6.29 -1 10 C-1.66 10 -2.32 10 -3 10 C-2.25 3.38 -2.25 3.38 0 0 Z " fill="#11100D" transform="translate(16,242)"/>
<path d="M0 0 C1.98 0 3.96 0 6 0 C6.33 0.99 6.66 1.98 7 3 C4.69 3 2.38 3 0 3 C0 2.01 0 1.02 0 0 Z " fill="#D9DADA" transform="translate(428,266)"/>
<path d="M0 0 C0.66 0 1.32 0 2 0 C2.37 5.54 2.37 5.54 0.5 7.88 C0 8.25 -0.49 8.62 -1 9 C-2.6 5.8 -1.03 3.28 0 0 Z " fill="#201A0E" transform="translate(15,254)"/>
<path d="M0 0 C0.66 0 1.32 0 2 0 C2.66 2.97 3.32 5.94 4 9 C3.01 8.67 2.02 8.34 1 8 C0.67 5.36 0.34 2.72 0 0 Z " fill="#191816" transform="translate(115,251)"/>
<path d="M0 0 C4 2 4 2 4.94 3.88 C5 6 5 6 2 10 C1.34 6.7 0.68 3.4 0 0 Z " fill="#694D0F" transform="translate(99,196)"/>
<path d="M0 0 C2.48 0.5 2.48 0.5 5 1 C5 1.99 5 2.98 5 4 C3.35 4 1.7 4 0 4 C0 2.68 0 1.36 0 0 Z " fill="#B9B9B9" transform="translate(427,281)"/>
<path d="M0 0 C2.52 1.97 2.99 2.97 3.69 6.19 C3.79 7.12 3.89 8.04 4 9 C3.01 8.67 2.02 8.34 1 8 C0.67 5.36 0.34 2.72 0 0 Z " fill="#181612" transform="translate(111,236)"/>
<path d="M0 0 C0.66 0 1.32 0 2 0 C1.67 2.64 1.34 5.28 1 8 C0.01 8 -0.98 8 -2 8 C-1.34 5.36 -0.68 2.72 0 0 Z " fill="#22221E" transform="translate(17,235)"/>
<path d="M0 0 C1.88 3.27 2.49 6.28 3 10 C2.01 9.67 1.02 9.34 0 9 C-1.12 3.38 -1.12 3.38 0 0 Z " fill="#272523" transform="translate(105,208)"/>
<path d="M0 0 C2.26 0.14 2.26 0.14 4.69 0.81 C5.5 1.03 6.3 1.24 7.14 1.46 C8.06 1.73 8.06 1.73 9 2 C9 2.33 9 2.66 9 3 C5.04 3 1.08 3 -3 3 C-2.01 2.01 -1.02 1.02 0 0 Z " fill="#2A2B2B" transform="translate(372,86)"/>
<path d="M0 0 C1.65 0 3.3 0 5 0 C5.33 0.99 5.66 1.98 6 3 C4.02 3 2.04 3 0 3 C0 2.01 0 1.02 0 0 Z " fill="#DADADA" transform="translate(428,270)"/>
</svg>
