<?xml version="1.0" encoding="UTF-8"?>
<svg version="1.1" xmlns="http://www.w3.org/2000/svg" width="500" height="500">
<path d="M0 0 C4.37747097 4.29802503 5.77082968 9.47428609 7.5625 15.1875 C7.85318359 16.08275391 8.14386719 16.97800781 8.44335938 17.90039062 C11.12780126 26.21795664 13.61177756 34.59307181 16 43 C16.82751329 45.85587988 17.66308025 48.70936448 18.5 51.5625 C18.81904297 52.65594727 18.81904297 52.65594727 19.14453125 53.77148438 C20.34956791 57.87821975 21.64318789 61.94037493 23 66 C23.74004295 68.45572304 24.46986697 70.9127757 25.1875 73.375 C25.49386887 74.42246399 25.49386887 74.42246399 25.806427 75.49108887 C27.02985746 79.67562761 28.25088655 83.8608457 29.4675293 88.04736328 C34.04970521 103.80560866 38.70030491 119.54324167 43.37109375 135.27539062 C44.42212474 138.81566238 45.47155681 142.35640599 46.52061558 145.89726257 C47.34572746 148.68131 48.17190489 151.4650404 48.9983654 154.24868774 C49.39836279 155.59653838 49.7979907 156.94449872 50.19723701 158.29257202 C52.87345104 167.32841082 52.87345104 167.32841082 55.70483398 176.31640625 C55.94595917 177.06112183 56.18708435 177.8058374 56.43551636 178.57312012 C57.031725 180.39254983 57.64206818 182.20733318 58.25415039 184.02148438 C59.37298129 188.48948339 59.07961007 192.55328921 58 197 C58.84280518 197.25652344 59.68561035 197.51304687 60.55395508 197.77734375 C64.25375263 199.0900314 67.66723603 200.74793322 71.13671875 202.5625 C71.80897491 202.90975128 72.48123108 203.25700256 73.17385864 203.61477661 C75.34732049 204.73890551 77.51746866 205.86926507 79.6875 207 C81.19670585 207.78268416 82.70606546 208.56507192 84.21557617 209.34716797 C88.48024404 211.5586694 92.7405724 213.77842709 97 216 C97.97356445 216.50692383 98.94712891 217.01384766 99.95019531 217.53613281 C111.18648608 223.39254278 122.34662398 229.39175024 133.5078125 235.38964844 C139.87559292 238.80889288 146.26132337 242.18924554 152.68041992 245.51147461 C159.72263524 249.15963086 166.71967773 252.8627292 173.5625 256.875 C174.16425049 257.22030762 174.76600098 257.56561523 175.38598633 257.92138672 C180.08913156 260.74341052 183.36453318 263.51108829 184.75 268.9375 C184.8325 269.948125 184.915 270.95875 185 272 C185.103125 273.010625 185.20625 274.02125 185.3125 275.0625 C184.90314648 278.91042312 183.76981512 280.33024388 181 283 C178.15234375 284.51171875 178.15234375 284.51171875 174.9375 285.6875 C173.37322266 286.28111328 173.37322266 286.28111328 171.77734375 286.88671875 C168.89780711 287.73539294 166.28249485 288.33293834 163.34375 288.82421875 C157.92860948 289.75365209 152.6385902 291.03328889 147.31640625 292.3828125 C146.44761337 292.60300552 145.5788205 292.82319855 144.68370056 293.05006409 C141.05040375 293.97458624 137.41868904 294.90520941 133.78735352 295.83740234 C131.110528 296.52315943 128.43230267 297.20322149 125.75390625 297.8828125 C124.5242086 298.20150803 124.5242086 298.20150803 123.26966858 298.52664185 C122.50464523 298.72039398 121.73962189 298.91414612 120.95141602 299.11376953 C120.28288101 299.28538605 119.61434601 299.45700256 118.92555237 299.63381958 C117 300 117 300 113 300 C112.67 300.66 112.34 301.32 112 302 C109.69 302 107.38 302 105 302 C104.67 302.66 104.34 303.32 104 304 C101.99034119 304.51182556 101.99034119 304.51182556 99.31616211 304.90991211 C92.4241185 306.05230914 85.71085705 307.72796382 78.94140625 309.44140625 C77.62157382 309.7727677 76.30166153 310.10381123 74.98167419 310.43455505 C71.54169418 311.29738395 68.10279574 312.16444662 64.66412354 313.0324707 C61.15759293 313.91681746 57.65004337 314.79710334 54.14257812 315.67773438 C47.98919087 317.22321878 41.83668901 318.7721884 35.68482971 320.32374573 C31.35781339 321.41363357 27.0271465 322.48801102 22.6953125 323.55859375 C20.17185255 324.18480536 17.64841595 324.81111111 15.125 325.4375 C13.85785156 325.75009766 12.59070313 326.06269531 11.28515625 326.38476562 C9.44630859 326.84206055 9.44630859 326.84206055 7.5703125 327.30859375 C6.45414551 327.58501709 5.33797852 327.86144043 4.18798828 328.14624023 C1.07601458 328.9796429 -1.94662009 329.97583221 -5 331 C-7.53923983 331.55064414 -10.0751126 332.06751004 -12.625 332.5625 C-24.45644196 334.93739308 -36.12525269 337.99802451 -47.80908203 341.00219727 C-49.34016373 341.39211158 -50.87125075 341.78200504 -52.40234375 342.171875 C-53.10893631 342.35606491 -53.81552887 342.54025482 -54.54353333 342.73002625 C-57.84835455 343.56859761 -60.55871892 344 -64 344 C-64.33 344.66 -64.66 345.32 -65 346 C-66.99633789 346.50756836 -66.99633789 346.50756836 -69.66015625 346.90234375 C-76.69053977 348.06517032 -83.53636113 349.80182017 -90.4375 351.5625 C-92.31598633 352.03719727 -92.31598633 352.03719727 -94.23242188 352.52148438 C-96.53874452 353.10456433 -98.84469936 353.68910265 -101.15014648 354.27563477 C-102.82725629 354.70191634 -104.50503777 355.12559618 -106.18432617 355.54321289 C-107.85488287 355.96349144 -109.51777331 356.41393818 -111.1796875 356.8671875 C-118.70892472 358.92061583 -126.2217535 360.75582814 -133.87890625 362.2890625 C-137.00539028 362.94201908 -137.00539028 362.94201908 -139.96484375 364.0234375 C-147.79759159 366.54362664 -159.83948411 368.56783295 -167.43359375 364.7890625 C-169.52448336 362.9968714 -171.23718657 361.11537612 -173 359 C-173.71285156 358.23945313 -174.42570312 357.47890625 -175.16015625 356.6953125 C-179.86097072 351.64778272 -184.21938585 346.33454094 -188.55859375 340.9765625 C-191.28530899 337.65215128 -194.07094744 334.38415118 -196.875 331.125 C-197.38321289 330.53364258 -197.89142578 329.94228516 -198.41503906 329.33300781 C-199.44144596 328.13889162 -200.46797554 326.94488086 -201.49462891 325.75097656 C-208.12518813 318.03862321 -214.63075265 310.27200056 -220.86865234 302.23706055 C-224.03986488 298.16988154 -227.32707594 294.22415714 -230.6875 290.3125 C-246.34332788 271.98960883 -246.34332788 271.98960883 -246.1875 260.8125 C-246.18105469 259.78769531 -246.17460937 258.76289063 -246.16796875 257.70703125 C-246 255 -246 255 -245 252 C-245.96648397 250.64217582 -246.97130789 249.31132388 -248 248 C-248.78974915 245.81863403 -248.78974915 245.81863403 -249.39575195 243.35205078 C-249.63867477 242.37750946 -249.8815976 241.40296814 -250.13188171 240.39889526 C-250.39386856 239.30046295 -250.65585541 238.20203064 -250.92578125 237.0703125 C-251.21818192 235.87254181 -251.51058258 234.67477112 -251.81184387 233.44070435 C-256.89310479 212.49965205 -261.59217169 191.46361141 -266.37298584 170.45257568 C-267.46241586 165.6674921 -268.55441034 160.88299546 -269.64652538 156.09852409 C-270.96702815 150.31327349 -272.28641644 144.52776896 -273.60546875 138.7421875 C-273.84995443 137.66991787 -274.09444012 136.59764824 -274.34633446 135.49288559 C-276.82954677 124.5974173 -279.30373139 113.70029453 -281.71532726 102.78871727 C-283.10189124 96.51600542 -284.54701066 90.25758045 -286 84 C-286.50058185 81.82174822 -287.00057453 79.64336096 -287.5 77.46484375 C-287.7475 76.38783203 -287.995 75.31082031 -288.25 74.20117188 C-288.75085268 72.02168015 -289.25084985 69.84199165 -289.75 67.66210938 C-292.38121304 55.65853651 -292.38121304 55.65853651 -295.70043945 43.83911133 C-297.41846497 38.32594208 -296.95678132 33.37398968 -295 28 C-290.07787847 22.04937554 -279.99693233 22.53716688 -272.82034302 21.82385254 C-271.34046207 21.67027275 -271.34046207 21.67027275 -269.83068454 21.51359034 C-266.54533527 21.17393675 -263.25926633 20.84185522 -259.97314453 20.50976562 C-257.60853959 20.26687086 -255.24398286 20.02350642 -252.87947083 19.77970886 C-247.1335862 19.1884656 -241.38721954 18.60209465 -235.64061697 18.01787412 C-228.93056277 17.33543011 -222.22113988 16.64687459 -215.5117477 15.95795733 C-203.52290241 14.72710606 -191.53358065 13.50096181 -179.54394531 12.27783203 C-167.94897819 11.09495357 -156.35422433 9.91002001 -144.75976562 8.72216797 C-144.04703287 8.64914933 -143.33430012 8.5761307 -142.5999694 8.50089937 C-138.31107856 8.06148928 -134.02219589 7.62199952 -129.73331514 7.18249094 C-123.45339848 6.53896704 -117.17346553 5.89560219 -110.89352417 5.25231934 C-110.21611836 5.18292804 -109.53871255 5.11353674 -108.84077929 5.04204267 C-98.88433032 4.02218911 -88.92770931 3.00403026 -78.97097778 1.98693848 C-77.72015687 1.8591375 -76.46933595 1.73133652 -75.18061137 1.59966278 C-69.34881131 1.00381092 -63.51698611 0.40820795 -57.68510437 -0.18684387 C-55.6065662 -0.39916849 -53.52802917 -0.61150435 -51.44949341 -0.82385254 C-50.46686877 -0.92400414 -49.48424414 -1.02415573 -48.471843 -1.12734222 C-43.83498798 -1.6013172 -39.19929298 -2.08353507 -34.56536484 -2.58537292 C-33.70787608 -2.67774782 -32.85038732 -2.77012271 -31.96691406 -2.86529684 C-30.39325352 -3.03552167 -28.81981454 -3.20781621 -27.24667943 -3.38283014 C-6.90509676 -5.58122304 -6.90509676 -5.58122304 0 0 Z " fill="#030404" transform="translate(306,69)"/>
<path d="M0 0 C2.98916534 7.04740596 5.31524904 14.13245229 7.375 21.5 C9.45243758 28.78695166 11.60362906 36.0199278 14.0625 43.1875 C16.21934301 49.49222752 18.13967203 55.833757 19.9375 62.25 C23.02377267 73.25534479 26.48544806 84.12510971 30 95 C34.35022896 108.46614462 38.49529257 121.97031901 42.421875 135.56640625 C44.2053946 141.73494618 46.07379244 147.87442067 48 154 C44.6114346 156.2590436 41.65124637 156.80035299 37.73046875 157.48046875 C36.62649246 157.68077698 36.62649246 157.68077698 35.50021362 157.88513184 C33.06376111 158.32574292 30.6256803 158.75656182 28.1875 159.1875 C26.48025673 159.49447289 24.77314578 159.80218252 23.06616211 160.1105957 C19.50456004 160.75358411 15.94240022 161.39335388 12.37988281 162.03125 C7.19534376 162.9619462 2.01501506 163.91442568 -3.1640625 164.875 C-3.98093033 165.02646484 -4.79779816 165.17792969 -5.63941956 165.33398438 C-7.26699695 165.63585732 -8.89456561 165.93777742 -10.52212524 166.23974609 C-22.4648875 168.45365449 -34.413826 170.61253664 -46.38647461 172.65966797 C-51.94542863 173.61847881 -57.47462717 174.67714942 -63 175.8125 C-72.65792687 177.79221094 -82.35711712 179.52220896 -92.0625 181.25 C-106.22039609 183.77081038 -120.3647568 186.35511479 -134.5 189 C-150.22200412 191.94019311 -165.95429709 194.81596412 -181.70092773 197.62133789 C-183.26416441 197.89987846 -184.82739693 198.17844236 -186.390625 198.45703125 C-187.13748062 198.59009171 -187.88433624 198.72315216 -188.65382385 198.86024475 C-193.14277288 199.66203107 -197.62741866 200.48401339 -202.109375 201.32421875 C-203.13699951 201.5159668 -204.16462402 201.70771484 -205.22338867 201.90527344 C-207.02910634 202.24377757 -208.83405797 202.58641383 -210.63793945 202.93457031 C-214.82497953 203.71742377 -218.71606586 204.17135737 -223 204 C-225.96029493 195.8546486 -227.78822453 187.51420438 -229.625 179.0625 C-229.97300016 177.47844812 -230.32131515 175.89446538 -230.66992188 174.31054688 C-233.52119842 161.32306446 -236.29693998 148.31918944 -239.07312012 135.31549072 C-241.62872457 123.3459737 -244.21573775 111.38443649 -246.875 99.4375 C-247.03073486 98.7372168 -247.18646973 98.03693359 -247.34692383 97.31542969 C-249.27043442 88.67296914 -251.21663297 80.03574711 -253.17507935 71.40113831 C-254.19896067 66.88515188 -255.21987565 62.36849653 -256.24078369 57.85183716 C-256.98908915 54.54816992 -257.74228049 51.24564091 -258.49560547 47.94311523 C-258.95563653 45.91004617 -259.41544541 43.87692682 -259.875 41.84375 C-260.09020294 40.90692886 -260.30540588 39.97010773 -260.52713013 39.00489807 C-260.81920853 37.70599892 -260.81920853 37.70599892 -261.1171875 36.38085938 C-261.28847168 35.62784546 -261.45975586 34.87483154 -261.63623047 34.09899902 C-262 32 -262 32 -262 28 C-240.80849622 25.46976444 -219.617619 23.00125978 -198.375 20.9375 C-185.12157543 19.64803002 -171.90209678 18.20539557 -158.68847656 16.55522156 C-149.81650186 15.45082676 -140.93883434 14.4132901 -132.05180359 13.43671608 C-128.98011837 13.0991609 -125.90868869 12.75930373 -122.8372345 12.41965389 C-121.17374374 12.23571849 -119.51024052 12.05189574 -117.84672546 11.86818027 C-108.61442023 10.84821322 -99.38346537 9.816202 -90.15244293 8.7847023 C-84.25684661 8.12620931 -78.36107708 7.46926908 -72.46532059 6.81221199 C-67.43674563 6.25171885 -62.40824375 5.69058396 -57.37988281 5.12817383 C-52.39779071 4.5709714 -47.41551847 4.01540583 -42.43312073 3.46094322 C-40.56736276 3.25302808 -38.70166848 3.04454049 -36.83604431 2.83542824 C-9.84248926 -0.18927864 -9.84248926 -0.18927864 0 0 Z " fill="#3DBCEC" transform="translate(296,86)"/>
<path d="M0 0 C0.62777344 0.32783981 1.25554687 0.65567963 1.90234375 0.99345398 C3.93728716 2.05965211 5.96263741 3.14281668 7.98828125 4.2265625 C9.40217058 4.97172342 10.81664447 5.71577621 12.23168945 6.45874023 C15.01739007 7.92373044 17.79946998 9.39522574 20.578125 10.87353516 C23.57265972 12.46659523 26.57404948 14.04571587 29.58203125 15.61328125 C39.34203305 20.70384994 49.03339176 25.92256246 58.72952271 31.13342285 C67.25855979 35.71544822 75.82376484 40.22003026 84.42578125 44.6640625 C94.49558281 49.8673373 104.4359083 55.270287 114.30078125 60.8515625 C113.97078125 61.8415625 113.64078125 62.8315625 113.30078125 63.8515625 C110.93942309 64.65214349 108.72988588 65.24498823 106.3046875 65.76953125 C104.8320571 66.11187905 103.35956789 66.45483467 101.88720703 66.79833984 C101.12579407 66.97169861 100.3643811 67.14505737 99.57989502 67.32366943 C96.02311149 68.14749903 92.48956953 69.05839513 88.953125 69.96484375 C73.16647731 73.96258873 57.36345352 77.80117188 41.46459961 81.32739258 C31.88427653 83.46273232 22.3696379 85.80853074 12.85742188 88.22705078 C3.55230748 90.57694642 -5.79570884 92.70635086 -15.16345215 94.78805542 C-25.62732806 97.11670921 -36.0242626 99.65353834 -46.41308594 102.29467773 C-55.52050659 104.59478589 -64.66865466 106.65340757 -73.84570312 108.65478516 C-81.08137394 110.24246074 -88.27139568 111.95839168 -95.44921875 113.7890625 C-105.32777692 116.30840965 -115.25354342 118.58147433 -125.20336914 120.79803467 C-133.81670759 122.71927334 -142.39757289 124.7332744 -150.94921875 126.9140625 C-160.53199596 129.35654059 -170.15436521 131.56126578 -179.81835938 133.65893555 C-185.08467876 134.80608855 -190.32898224 135.98784999 -195.546875 137.33984375 C-216.73179182 142.81607613 -216.73179182 142.81607613 -225.69921875 140.8515625 C-228.25390625 138.71484375 -228.25390625 138.71484375 -230.69921875 135.8515625 C-231.13975586 135.3575293 -231.58029297 134.86349609 -232.03417969 134.35449219 C-233.48598561 132.72541312 -234.90769286 131.07388929 -236.32421875 129.4140625 C-236.84491943 128.80570557 -237.36562012 128.19734863 -237.90209961 127.57055664 C-241.93540304 122.82445272 -245.79959638 117.96263223 -249.61694336 113.04223633 C-253.22335156 108.40969362 -256.97848549 103.92255194 -260.78979492 99.45800781 C-264.09800438 95.57823527 -267.30841218 91.63496647 -270.4765625 87.640625 C-273.34068764 84.04662615 -276.23757826 80.47983917 -279.13671875 76.9140625 C-279.97444824 75.88333618 -279.97444824 75.88333618 -280.82910156 74.83178711 C-284.83645317 69.90457148 -288.85869495 64.98985934 -292.89453125 60.0859375 C-297.69921875 54.13727679 -297.69921875 54.13727679 -297.69921875 51.8515625 C-288.49020332 49.65276986 -279.25038573 47.74139931 -269.94921875 45.9765625 C-267.4542458 45.50094998 -264.95946087 45.02435033 -262.46484375 44.546875 C-261.80371078 44.42048645 -261.14257782 44.2940979 -260.46141052 44.16387939 C-255.30882697 43.17378256 -250.1651418 42.14234869 -245.0221405 41.10372925 C-229.45005275 37.96184455 -213.83579238 35.07510315 -198.20776367 32.2265625 C-184.09882694 29.65160862 -170.03273831 26.94379986 -156.00317383 23.96484375 C-143.87990404 21.39722058 -131.68682207 19.19563315 -119.48339844 17.04760742 C-109.85455189 15.35151342 -100.25742894 13.59813591 -90.69921875 11.5390625 C-77.01038518 8.59593921 -63.22377316 6.17501513 -49.44335938 3.70581055 C-40.2132414 2.04980356 -30.9988382 0.35561564 -21.81274414 -1.53076172 C-13.38315068 -3.20306404 -7.83427037 -4.14590315 0 0 Z " fill="#A7A8A7" transform="translate(365.69921875,272.1484375)"/>
<path d="M0 0 C2.43985418 2.45395588 3.33500638 4.10116131 4.39428711 7.36450195 C4.71606934 8.33806641 5.03785156 9.31163086 5.36938477 10.31469727 C5.82063721 11.7895459 5.82063721 11.7895459 6.28100586 13.29418945 C6.55219238 14.176875 6.82337891 15.05956055 7.1027832 15.96899414 C7.91542055 18.69601267 8.69528198 21.43074688 9.46850586 24.16918945 C12.15521566 33.54368047 14.98911878 42.86385341 17.90600586 52.16918945 C20.57362131 60.68902843 23.1511565 69.21107857 25.47119141 77.83178711 C27.04902112 83.62682336 28.86635486 89.33160306 30.71850586 95.04418945 C33.422845 103.39150996 35.8255565 111.78287099 38.08374023 120.26074219 C39.85646729 126.86791223 41.84686602 133.37652134 43.95654297 139.8828125 C46.45256158 147.65840189 48.61774607 155.52137235 50.74560547 163.40478516 C52.38084534 169.38355527 54.25529065 175.17031675 56.50024414 180.94970703 C57.4516274 183.80653426 57.6040621 186.30591919 57.28100586 189.29418945 C54.15459697 191.04910765 51.30570801 191.80914485 47.78100586 192.41918945 C46.37334961 192.67055664 46.37334961 192.67055664 44.93725586 192.92700195 C42.28100586 193.29418945 42.28100586 193.29418945 38.28100586 193.29418945 C37.29100586 190.98418945 36.30100586 188.67418945 35.28100586 186.29418945 C28.61660809 186.0491167 22.50403964 186.97502328 15.96850586 188.23168945 C14.98043945 188.4140918 13.99237305 188.59649414 12.97436523 188.78442383 C7.56598633 189.79293386 7.56598633 189.79293386 2.28100586 191.29418945 C2.28100586 194.59418945 2.28100586 197.89418945 2.28100586 201.29418945 C1.29487305 201.45274414 0.30874023 201.61129883 -0.70727539 201.7746582 C-10.1049373 203.30377693 -19.47947451 204.94887143 -28.84399414 206.66918945 C-29.85888916 206.85376709 -30.87378418 207.03834473 -31.91943359 207.22851562 C-38.30163308 208.4099692 -44.65495496 209.69327817 -51.00546265 211.03347778 C-65.38962273 214.06894222 -79.82351967 216.74615487 -94.29174805 219.34643555 C-108.6238348 221.92762364 -122.88719929 224.74131244 -137.13500977 227.75238037 C-142.73535706 228.92665954 -148.35012368 230.02477311 -153.96899414 231.10668945 C-155.61641602 231.43056641 -155.61641602 231.43056641 -157.29711914 231.76098633 C-158.87493164 232.06552734 -158.87493164 232.06552734 -160.48461914 232.3762207 C-161.40017578 232.55386963 -162.31573242 232.73151855 -163.2590332 232.91455078 C-165.71899414 233.29418945 -165.71899414 233.29418945 -169.71899414 233.29418945 C-170.17472331 231.27596029 -170.63045247 229.25773112 -171.08618164 227.23950195 C-171.62373842 225.08698981 -171.62373842 225.08698981 -173.71899414 223.29418945 C-180.9823602 223.69934679 -188.00038811 225.31064711 -195.09399414 226.85668945 C-197.22621685 227.31905316 -199.35900623 227.77881361 -201.49243164 228.2355957 C-202.42490723 228.43870361 -203.35738281 228.64181152 -204.31811523 228.85107422 C-206.71899414 229.29418945 -206.71899414 229.29418945 -209.71899414 229.29418945 C-209.38899414 233.25418945 -209.05899414 237.21418945 -208.71899414 241.29418945 C-211.90490451 241.96934927 -215.09237149 242.63452467 -218.28149414 243.29418945 C-219.17674805 243.4849707 -220.07200195 243.67575195 -220.99438477 243.87231445 C-226.01160835 244.90148852 -230.59798959 245.51897978 -235.71899414 245.29418945 C-238.54283627 240.00008521 -240.525599 235.16593811 -241.83227539 229.32543945 C-242.00733109 228.58039658 -242.18238678 227.8353537 -242.36274719 227.06773376 C-242.92897044 224.64541135 -243.48046256 222.22000849 -244.03149414 219.79418945 C-244.42648193 218.08968538 -244.8221621 216.38534162 -245.21850586 214.68115234 C-247.98304025 202.74191431 -250.61160797 190.77327536 -253.19262695 178.79321289 C-255.09378871 170.00997774 -257.141001 161.27198725 -259.28149414 152.54418945 C-261.51147678 143.44622734 -263.60818558 134.33687054 -265.53149414 125.16918945 C-268.0729618 113.06617122 -270.84158602 101.02352508 -273.65649414 88.98168945 C-274.08913117 87.12697673 -274.52166738 85.27224049 -274.95410156 83.41748047 C-277.39757077 72.94082949 -277.39757077 72.94082949 -279.85327148 62.46704102 C-280.70483848 58.84265339 -281.54799779 55.2164126 -282.384552 51.58853149 C-282.82957304 49.66889606 -283.28377535 47.75139626 -283.73828125 45.83398438 C-285.10537229 39.87936746 -286.28488133 34.41012412 -285.71899414 28.29418945 C-282.96839254 25.54358785 -280.18704426 25.63094352 -276.48071289 25.21606445 C-275.71800583 25.12427414 -274.95529877 25.03248383 -274.16947937 24.93791199 C-271.58285662 24.63030519 -268.99485615 24.33677851 -266.40649414 24.04418945 C-264.55248219 23.82884528 -262.69847851 23.61342989 -260.84448242 23.39794922 C-236.53326912 20.60794445 -212.16636162 18.32550535 -187.80932617 15.97875977 C-178.04842918 15.03770918 -168.28933581 14.0788845 -158.53149414 13.10668945 C-157.72363464 13.02636475 -156.91577515 12.94604004 -156.08343506 12.86328125 C-145.43211496 11.80170049 -134.7981205 10.6363066 -124.16918945 9.36767578 C-115.03133711 8.29241904 -105.87650895 7.44221924 -96.71459961 6.60540771 C-87.70482792 5.78107654 -78.70849611 4.88222609 -69.71899414 3.85668945 C-58.99044121 2.64159301 -48.25668415 1.48322077 -37.51586914 0.38204956 C-35.76008831 0.20110098 -34.00454381 0.01784144 -32.24926758 -0.16793823 C-4.87643273 -3.05931898 -4.87643273 -3.05931898 0 0 Z M-25.38696289 14.4309082 C-26.51845764 14.55045868 -27.64995239 14.67000916 -28.81573486 14.79318237 C-32.5131233 15.18508176 -36.20981282 15.58317948 -39.90649414 15.98168945 C-42.48793202 16.25722091 -45.06939388 16.53252781 -47.65087891 16.80761719 C-55.34105277 17.62910582 -63.0301856 18.46002871 -70.71899414 19.29418945 C-71.80704346 19.41209839 -72.89509277 19.53000732 -74.01611328 19.65148926 C-94.74315817 21.89975558 -115.45692587 24.24310353 -136.15649414 26.73168945 C-170.58377828 30.8693824 -205.04116464 34.79534468 -239.56884766 38.00146484 C-248.9887689 38.88248055 -258.35102059 39.9631922 -267.71899414 41.29418945 C-267.06424788 48.79053811 -265.57193233 55.93443154 -263.87524414 63.2590332 C-263.43841228 65.17465541 -263.00158514 67.0902787 -262.56496429 69.00594902 C-262.10309413 71.02857436 -261.63891208 73.05065653 -261.17407227 75.07260132 C-259.56211566 82.08635625 -257.96915304 89.10444054 -256.37524414 96.12231445 C-256.1371402 97.16964532 -256.1371402 97.16964532 -255.89422607 98.23813438 C-253.07727952 110.63325845 -250.35731199 123.04729952 -247.71899414 135.48168945 C-247.35784035 137.1811548 -246.99667517 138.88061773 -246.63549805 140.58007812 C-246.12617622 142.97754039 -245.61697701 145.37502816 -245.10830688 147.77262878 C-241.71543664 163.74817779 -238.11940482 179.67844361 -234.43585205 195.5892334 C-233.9817814 197.55143123 -233.52980075 199.51411234 -233.07788086 201.47680664 C-232.79960449 202.67080078 -232.52132812 203.86479492 -232.23461914 205.0949707 C-231.99001953 206.1485376 -231.74541992 207.20210449 -231.4934082 208.28759766 C-230.7054908 211.34661493 -229.75295654 214.31025428 -228.71899414 217.29418945 C-219.82861165 216.8492941 -211.32179131 215.60204833 -202.61074829 213.79876709 C-182.94025869 209.73859821 -163.15268299 206.34078686 -143.3605957 202.93505859 C-131.03120131 200.80509252 -118.74571909 198.54245435 -106.48460388 196.04833984 C-97.54942976 194.23746688 -88.5876681 192.65772577 -79.59399414 191.16918945 C-70.32783929 189.62761922 -61.10181851 187.9991682 -51.89575195 186.12475586 C-43.88873954 184.51371698 -35.84489443 183.08794249 -27.81060791 181.62063599 C-24.59923536 181.03372483 -21.3883131 180.44440265 -18.17749023 179.85449219 C-8.76645597 178.12649004 0.64536909 176.40374746 10.06376648 174.71627808 C13.60195649 174.08187898 17.1392632 173.44263928 20.67648315 172.80285645 C22.32130247 172.50688655 23.96658599 172.21348418 25.61233521 171.92272949 C27.87545761 171.52282404 30.13691617 171.11453582 32.39819336 170.7043457 C33.66260254 170.47884033 34.92701172 170.25333496 36.22973633 170.02099609 C39.43060275 169.44492815 39.43060275 169.44492815 42.28100586 167.29418945 C37.53640028 150.61186888 37.53640028 150.61186888 32.21850586 134.10668945 C30.06202744 127.80182192 28.14134112 121.46045846 26.34350586 115.04418945 C23.25723319 104.03884467 19.7955578 93.16907975 16.28100586 82.29418945 C12.63272319 71.00092135 9.06973297 59.69811267 5.78100586 48.29418945 C3.42214953 40.11570711 0.97612062 31.97144102 -1.59399414 23.85668945 C-1.89241211 22.90858398 -2.19083008 21.96047852 -2.49829102 20.98364258 C-2.77479492 20.11803711 -3.05129883 19.25243164 -3.33618164 18.3605957 C-3.57965332 17.59690674 -3.823125 16.83321777 -4.07397461 16.04638672 C-4.58037349 14.29304392 -4.58037349 14.29304392 -5.71899414 13.29418945 C-12.34060159 13.02889836 -18.80932296 13.71681467 -25.38696289 14.4309082 Z " fill="#565658" transform="translate(301.718994140625,72.705810546875)"/>
<path d="M0 0 C1.38783691 0.87978516 1.38783691 0.87978516 2.80371094 1.77734375 C5.52345009 3.50542271 8.23214625 5.2495072 10.9375 7 C12.32679334 7.8958792 13.71611299 8.7917176 15.10546875 9.6875 C17.39774672 11.16636945 19.68772668 12.64860305 21.9765625 14.1328125 C25.27115881 16.21040754 28.62295686 18.11881975 32.0703125 19.9296875 C34.20212835 21.15169073 36.09386884 22.36941066 37.9375 24 C37.9375 24.99 37.9375 25.98 37.9375 27 C14.32714477 32.55741905 -9.29451979 38.02585102 -33.0625 42.875 C-44.07729771 45.12444814 -55.04399707 47.54444158 -66 50.0625 C-66.74641754 50.23403595 -67.49283508 50.4055719 -68.26187134 50.58230591 C-74.34064503 51.98068127 -80.41750272 53.3873 -86.49414062 54.79492188 C-104.1347991 58.87605227 -104.1347991 58.87605227 -112.8125 60.4375 C-121.9998068 62.10112219 -131.06196861 64.27240378 -140.15234375 66.39453125 C-157.02165758 70.32919694 -173.9498854 74.00619428 -190.89599609 77.59399414 C-197.84131334 79.0713611 -204.76954673 80.608299 -211.69140625 82.19140625 C-213.34509782 82.56737688 -214.99882497 82.94319103 -216.65258789 83.31884766 C-219.09537458 83.87375035 -221.5372602 84.43162319 -223.97702026 84.99969482 C-226.24335398 85.5272979 -228.51194941 86.04392624 -230.78125 86.55859375 C-231.45914078 86.71969131 -232.13703156 86.88078888 -232.83546448 87.04676819 C-236.18925291 87.79657642 -238.83410318 88.36798073 -242.0625 87 C-244.10546875 85.1015625 -244.10546875 85.1015625 -246.25 82.625 C-247.03761719 81.72007812 -247.82523438 80.81515625 -248.63671875 79.8828125 C-251.73471436 76.20113656 -254.77379544 72.47452501 -257.80078125 68.734375 C-260.05439667 66.00979678 -262.37822165 63.37206652 -264.75 60.75 C-265.48347656 59.93789063 -266.21695313 59.12578125 -266.97265625 58.2890625 C-268.30076761 56.83434613 -269.64069664 55.39026537 -270.99609375 53.9609375 C-272.6875 52.125 -272.6875 52.125 -275.0625 49 C-274.7109375 46.8046875 -274.7109375 46.8046875 -274.0625 45 C-273.0923999 44.8141333 -272.1222998 44.6282666 -271.12280273 44.43676758 C-246.65750272 39.74376488 -246.65750272 39.74376488 -222.2902832 34.5703125 C-216.80229654 33.35497981 -211.32239435 32.2711421 -205.7578125 31.45703125 C-202.69125776 30.93705023 -199.67602481 30.26717664 -196.64257812 29.58227539 C-180.09087134 25.84686465 -163.47815758 22.45915409 -146.8170166 19.25576782 C-131.98251928 16.40128224 -117.18281111 13.38854216 -102.38598633 10.34545898 C-90.68189979 7.93932679 -78.9702454 5.57605516 -67.25 3.25 C-56.61687054 1.13943583 -46.00213285 -1.03557301 -35.42260742 -3.40332031 C-32.97197039 -3.94935085 -30.51849634 -4.47863427 -28.0625 -5 C-27.13308594 -5.20286621 -26.20367187 -5.40573242 -25.24609375 -5.61474609 C-14.6320245 -7.77546733 -8.93914045 -5.80151837 0 0 Z " fill="#0A0A0A" transform="translate(373.0625,285)"/>
<path d="M0 0 C-1 2 -1 2 -2.84057617 2.75512695 C-3.64986572 2.99706787 -4.45915527 3.23900879 -5.29296875 3.48828125 C-6.21779053 3.77533936 -7.1426123 4.06239746 -8.09545898 4.3581543 C-9.11583252 4.67308838 -10.13620605 4.98802246 -11.1875 5.3125 C-42.18808815 15.30003893 -71.93705411 29.9313407 -99 48 C-99.68852051 48.45584473 -100.37704102 48.91168945 -101.08642578 49.38134766 C-119.54125541 61.64191939 -137.08530764 75.27072 -153.13208008 90.56103516 C-155.43727417 92.7266296 -156.95276249 93.98425416 -160 95 C-160 95.66 -160 96.32 -160 97 C-161.36328125 98.3046875 -161.36328125 98.3046875 -163.3125 99.875 C-168.53053763 104.31216932 -173.01387941 109.34273671 -177.57666016 114.42822266 C-178.95569094 115.95107003 -180.35373683 117.45314412 -181.76171875 118.94921875 C-191.75448834 129.59701848 -200.53408844 141.11376314 -209 153 C-211.73890013 150.26109987 -212.06835465 147.23995361 -212.8828125 143.57421875 C-213.14533562 142.43215218 -213.14533562 142.43215218 -213.41316223 141.26701355 C-213.99120975 138.74213946 -214.55829479 136.2149421 -215.125 133.6875 C-215.52897661 131.90957666 -215.93336064 130.13174585 -216.33813477 128.35400391 C-219.27860389 115.39453865 -222.11311529 102.41216838 -224.89111328 89.41699219 C-226.79056311 80.53989613 -228.73449148 71.67409364 -230.72265625 62.81640625 C-230.95355453 61.7860022 -231.18445282 60.75559814 -231.42234802 59.69396973 C-232.56015289 54.61819583 -233.70244778 49.5434953 -234.85131836 44.47021484 C-235.26564111 42.62471463 -235.67979353 40.77917616 -236.09375 38.93359375 C-236.28707413 38.0874501 -236.48039825 37.24130646 -236.67958069 36.36952209 C-236.94163551 35.19552101 -236.94163551 35.19552101 -237.20898438 33.99780273 C-237.43926331 32.97939552 -237.43926331 32.97939552 -237.67419434 31.94041443 C-238 30 -238 30 -238 26 C-216.80849622 23.46976444 -195.617619 21.00125978 -174.375 18.9375 C-161.12456602 17.64832098 -147.9079787 16.20654733 -134.69740295 14.55618286 C-125.74460462 13.44143116 -116.78638474 12.39680402 -107.81836128 11.41156769 C-103.91595239 10.98281785 -100.01392075 10.55065171 -96.11181641 10.11914062 C-95.29181813 10.02856007 -94.47181986 9.93797951 -93.62697315 9.84465408 C-84.95335559 8.88592408 -76.28136011 7.91283287 -67.60934067 6.93977356 C-62.28073836 6.34229122 -56.95189511 5.74696188 -51.62306023 5.15155792 C-47.084078 4.64427754 -42.5452219 4.13591022 -38.0065918 3.62548828 C-33.50444089 3.11922395 -29.00199911 2.61562518 -24.49934196 2.11388397 C-22.80917536 1.92506755 -21.11911568 1.73529123 -19.42917061 1.54450226 C-17.09701861 1.28135047 -14.76450957 1.02161766 -12.43188477 0.76269531 C-11.74900894 0.68482285 -11.06613312 0.60695038 -10.36256409 0.52671814 C-6.89036999 0.14508559 -3.4932043 -0.08180549 0 0 Z " fill="#4B86C6" transform="translate(272,88)"/>
<path d="M0 0 C2.41463767 5.33999534 4.23072147 10.70020073 5.890625 16.31640625 C6.15832703 17.20875473 6.42602905 18.10110321 6.70184326 19.02049255 C7.55511383 21.86668332 8.40292535 24.71445971 9.25 27.5625 C10.35685335 31.27289315 11.46632303 34.98249296 12.578125 38.69140625 C12.85773071 39.62449615 13.13733643 40.55758606 13.42541504 41.51895142 C15.65890459 48.93967656 17.99712951 56.32406593 20.36212158 63.70375061 C23.99414145 75.06197673 27.42556937 86.48081828 30.875 97.89550781 C34.90068678 111.20813049 39.03648418 124.48013203 43.27423096 137.72674561 C44.69068428 142.16336188 46.08058072 146.60734577 47.4375 151.0625 C47.81938477 152.28163086 47.81938477 152.28163086 48.20898438 153.52539062 C49.40218629 157.45234356 50.34284936 160.84399682 50 165 C45.95670949 166.81042136 41.94459676 167.68043891 37.6015625 168.40234375 C36.53353897 168.58719078 36.53353897 168.58719078 35.44393921 168.77577209 C33.17181279 169.16819197 30.89852263 169.55325968 28.625 169.9375 C25.65836422 170.44378602 22.69228753 170.95325072 19.7265625 171.46484375 C18.98554794 171.59250122 18.24453339 171.72015869 17.48106384 171.85168457 C11.66531719 172.86286195 5.88237772 174.00883745 0.09765625 175.18481445 C-8.68240094 176.95042857 -17.50322629 178.51329021 -26.3125 180.125 C-27.36392181 180.31775513 -28.41534363 180.51051025 -29.49862671 180.70910645 C-56.86053151 185.72528886 -84.23621877 190.66779217 -111.625 195.53515625 C-112.86983154 195.75655273 -114.11466309 195.97794922 -115.3972168 196.20605469 C-117.5130255 196.5817548 -119.6290353 196.95632658 -121.74536133 197.32910156 C-128.9269942 198.60237497 -136.09028907 199.96504837 -143.25393677 201.33502197 C-154.05127435 203.39705237 -164.85842716 205.40587511 -175.66674805 207.40942383 C-179.19413492 208.06373073 -182.72108916 208.72033736 -186.24804688 209.37695312 C-192.82931952 210.5996941 -199.41318859 211.80745986 -206 213 C-206.9200885 213.16699402 -207.840177 213.33398804 -208.78814697 213.50604248 C-211.24928033 213.94880156 -213.71195254 214.38112176 -216.17578125 214.80859375 C-216.86431686 214.93275162 -217.55285248 215.05690948 -218.26225281 215.18482971 C-222.91331494 215.97320603 -227.30218307 216.09963383 -232 216 C-232.2019397 215.07948853 -232.2019397 215.07948853 -232.40795898 214.14038086 C-234.91234991 202.74742936 -237.43953931 191.36083679 -240.0859375 180 C-240.35565117 178.84172447 -240.35565117 178.84172447 -240.6308136 177.66004944 C-240.90456062 176.48459816 -240.90456062 176.48459816 -241.18383789 175.28540039 C-244.97417141 159.0091895 -248.59588558 142.70724902 -252.05966187 126.35842896 C-254.78690437 113.49951842 -257.64444973 100.67751759 -260.625 87.875 C-266.09605829 64.33418197 -266.09605829 64.33418197 -268.59515381 53.0947876 C-268.90209461 51.7189857 -269.21162517 50.34375853 -269.52398682 48.96917725 C-269.95155646 47.08523329 -270.36858621 45.19890665 -270.78515625 43.3125 C-271.13912476 41.72888672 -271.13912476 41.72888672 -271.50024414 40.11328125 C-272.05088915 36.68298076 -272.15156458 33.4686103 -272 30 C-270.05787238 28.05787238 -266.5036975 28.40997678 -263.84204102 28.13964844 C-263.08923796 28.05965261 -262.3364349 27.97965677 -261.56081963 27.89723682 C-259.04225825 27.63055948 -256.52309446 27.37005881 -254.00390625 27.109375 C-252.23587897 26.92305098 -250.46789976 26.73627038 -248.69996643 26.54905701 C-244.9411003 26.15165564 -241.18199206 25.75666702 -237.42266846 25.36361694 C-227.71681886 24.34841152 -218.01266646 23.31718677 -208.30859375 22.28515625 C-206.88541588 22.13397811 -206.88541588 22.13397811 -205.43348694 21.97974586 C-191.31840083 20.47916204 -177.21441469 18.91477228 -163.125 17.1875 C-148.25633106 15.36861649 -133.37555491 13.74044688 -118.47593689 12.19641113 C-117.70141678 12.11612671 -116.92689667 12.03584229 -116.12890625 11.953125 C-115.35724625 11.87316284 -114.58558624 11.79320068 -113.7905426 11.71081543 C-106.04383934 10.90544203 -98.30280892 10.05188452 -90.5625 9.1875 C-89.16064657 9.03147581 -87.75879106 8.87547033 -86.35693359 8.71948242 C-78.02352927 7.79074859 -69.69122065 6.85252582 -61.35945415 5.90921116 C-55.65369901 5.2634473 -49.94756765 4.62106337 -44.24123859 3.9803915 C-39.94703353 3.49803322 -35.65329726 3.01174356 -31.35986042 2.52259731 C-28.00593334 2.14168677 -24.65135409 1.76664234 -21.296875 1.390625 C-20.07437546 1.25020279 -18.85187592 1.10978058 -17.59233093 0.96510315 C-11.68652182 0.30856186 -5.94230263 -0.16297841 0 0 Z M-23.66796875 7.13671875 C-24.7994635 7.25626923 -25.93095825 7.3758197 -27.09674072 7.49899292 C-30.79412916 7.89089231 -34.49081868 8.28899002 -38.1875 8.6875 C-40.76893788 8.96303146 -43.35039974 9.23833836 -45.93188477 9.51342773 C-53.62205862 10.33491637 -61.31119146 11.16583926 -69 12 C-70.08804932 12.11790894 -71.17609863 12.23581787 -72.29711914 12.3572998 C-93.02416403 14.60556613 -113.73793173 16.94891408 -134.4375 19.4375 C-168.86478414 23.57519295 -203.3221705 27.50115523 -237.84985352 30.70727539 C-247.26977476 31.5882911 -256.63202645 32.66900274 -266 34 C-265.34525374 41.49634866 -263.85293819 48.64024209 -262.15625 55.96484375 C-261.71941814 57.88046596 -261.282591 59.79608925 -260.84597015 61.71175957 C-260.38409999 63.73438491 -259.91991794 65.75646707 -259.45507812 67.77841187 C-257.84312152 74.7921668 -256.2501589 81.81025108 -254.65625 88.828125 C-254.41814606 89.87545587 -254.41814606 89.87545587 -254.17523193 90.94394493 C-251.35828538 103.339069 -248.63831784 115.75311006 -246 128.1875 C-245.63884621 129.88696535 -245.27768103 131.58642828 -244.91650391 133.28588867 C-244.40718208 135.68335094 -243.89798287 138.0808387 -243.38931274 140.47843933 C-239.9964425 156.45398833 -236.40041068 172.38425416 -232.71685791 188.29504395 C-232.26278726 190.25724178 -231.81080661 192.21992289 -231.35888672 194.18261719 C-231.08061035 195.37661133 -230.80233398 196.57060547 -230.515625 197.80078125 C-230.27102539 198.85434814 -230.02642578 199.90791504 -229.77441406 200.9934082 C-228.98649666 204.05242548 -228.0339624 207.01606483 -227 210 C-218.10961751 209.55510464 -209.60279717 208.30785888 -200.89175415 206.50457764 C-181.22126455 202.44440875 -161.43368885 199.04659741 -141.64160156 195.64086914 C-129.31220717 193.51090307 -117.02672495 191.24826489 -104.76560974 188.75415039 C-95.83043562 186.94327743 -86.86867396 185.36353631 -77.875 183.875 C-68.60884515 182.33342977 -59.38282437 180.70497875 -50.17675781 178.83056641 C-42.1697454 177.21952753 -34.12590029 175.79375303 -26.09161377 174.32644653 C-22.88024122 173.73953537 -19.66931896 173.1502132 -16.45849609 172.56030273 C-7.04746183 170.83230059 2.36436323 169.10955801 11.78276062 167.42208862 C15.32095063 166.78768953 18.85825735 166.14844982 22.39547729 165.50866699 C24.04029661 165.21269709 25.68558013 164.91929472 27.33132935 164.62854004 C29.59445175 164.22863459 31.85591031 163.82034636 34.1171875 163.41015625 C35.38159668 163.18465088 36.64600586 162.95914551 37.94873047 162.72680664 C41.14959689 162.1507387 41.14959689 162.1507387 44 160 C39.25539442 143.31767943 39.25539442 143.31767943 33.9375 126.8125 C31.78102158 120.50763247 29.86033526 114.166269 28.0625 107.75 C24.97622733 96.74465521 21.51455194 85.87489029 18 75 C14.35171733 63.70673189 10.78872711 52.40392321 7.5 41 C5.14114367 32.82151766 2.69511476 24.67725157 0.125 16.5625 C-0.17341797 15.61439453 -0.47183594 14.66628906 -0.77929688 13.68945312 C-1.05580078 12.82384766 -1.33230469 11.95824219 -1.6171875 11.06640625 C-1.86065918 10.30271729 -2.10413086 9.53902832 -2.35498047 8.75219727 C-2.86137935 6.99885446 -2.86137935 6.99885446 -4 6 C-10.62160745 5.73470891 -17.09032882 6.42262521 -23.66796875 7.13671875 Z " fill="#040608" transform="translate(300,80)"/>
<path d="M0 0 C4.21850774 4.05261136 7.92856257 8.40799784 11.625 12.9375 C12.23964111 13.68676758 12.85428223 14.43603516 13.48754883 15.20800781 C17.73870843 20.40748182 21.90227104 25.66964457 26.02587891 30.97045898 C29.5273922 35.45118725 33.17731051 39.78779116 36.87573242 44.10644531 C40.18853097 47.99305423 43.36649902 51.9678724 46.5 56 C51.81378939 62.83120102 57.36336993 69.43415875 63 76 C63.69480469 76.83144531 64.38960938 77.66289062 65.10546875 78.51953125 C65.71003906 79.23496094 66.31460938 79.95039063 66.9375 80.6875 C67.44152344 81.28949219 67.94554687 81.89148438 68.46484375 82.51171875 C71.86694438 85.80993845 75.09104528 86.30536317 79.734375 86.34375 C87.85162862 86.20808559 95.41746638 84.41838427 103.25 82.5 C104.79072418 82.13418698 106.3317468 81.76962893 107.87304688 81.40625 C111.82311346 80.47083696 115.76865324 79.51779788 119.71264648 78.55712891 C121.8997602 78.02441533 124.08744576 77.49413205 126.27539062 76.96484375 C131.70534761 75.65076303 137.13479253 74.33469494 142.5612793 73.00634766 C153.4522458 70.34507541 164.37577414 67.8410115 175.3104248 65.36624146 C184.3180575 63.32559235 193.29956285 61.21892395 202.25 58.9375 C211.01055484 56.70588921 219.80231926 54.65895826 228.625 52.6875 C240.4971594 50.0327956 252.34950297 47.30332817 264.1875 44.5 C264.99617523 44.30854401 265.80485046 44.11708801 266.63803101 43.91983032 C278.04908649 41.21405436 289.42945773 38.40450312 300.79760742 35.5234375 C309.98732877 33.21212995 319.2209965 31.11840822 328.47018433 29.06195068 C338.8316065 26.75547909 349.13093945 24.25002286 359.41723633 21.62939453 C368.30735335 19.38088459 377.23482255 17.35424369 386.1875 15.375 C396.93418502 12.99858114 407.52285494 10.37821765 418 7 C418.125 10.375 418.125 10.375 418 14 C415.64632893 16.35367107 414.3190666 16.59487786 411.1171875 17.3671875 C410.11300781 17.61339844 409.10882813 17.85960937 408.07421875 18.11328125 C407.01847656 18.36464844 405.96273438 18.61601562 404.875 18.875 C402.83069683 19.37226293 400.78642665 19.86966145 398.7421875 20.3671875 C397.65389648 20.62983398 396.56560547 20.89248047 395.44433594 21.16308594 C389.75356623 22.54584455 384.07448908 23.97529032 378.394104 25.39996338 C373.76330546 26.56058493 369.13156061 27.71742409 364.5 28.875 C362.43749639 29.39061054 360.37499643 29.90623573 358.3125 30.421875 C351.11523437 32.22119141 343.91796875 34.02050781 336.72070312 35.81982422 C334.85496371 36.28625907 332.9892416 36.75276314 331.12353516 37.21932983 C328.83688196 37.79083675 326.55007658 38.36173486 324.26318359 38.93228149 C315.71527492 41.06550661 307.17232138 43.21746069 298.63375854 45.38785934 C296.54245792 45.91941771 294.45105044 46.45055392 292.35961914 46.9815979 C286.42531477 48.48847923 280.49119507 49.99608717 274.55712891 51.50390625 C245.69332451 58.83761471 245.69332451 58.83761471 231.59375 62.375 C230.6761792 62.6060141 229.7586084 62.8370282 228.81323242 63.07504272 C221.57522758 64.88580111 214.3090671 66.56208095 207.02392578 68.17227173 C201.86691098 69.31902564 196.73478925 70.54993507 191.61083984 71.8359375 C190.91098906 72.01126825 190.21113827 72.18659901 189.49007988 72.36724281 C182.88734436 74.02376064 176.2904151 75.70287945 169.69488907 77.38785934 C166.14596536 78.29405266 162.59636534 79.19759166 159.046875 80.1015625 C154.60017776 81.23408416 150.15367227 82.36733634 145.70800781 83.50390625 C130.95376874 87.27502025 116.19719744 91.02137234 101.36328125 94.46875 C100.32112457 94.71233246 99.2789679 94.95591492 98.20523071 95.20687866 C81.86057763 98.95089309 81.86057763 98.95089309 76 97 C72.09796481 93.95764802 69.17716201 90.57901046 66.22314453 86.6328125 C64.43840867 84.25031481 62.52568356 81.97797892 60.625 79.6875 C59.89925781 78.78644531 59.17351562 77.88539063 58.42578125 76.95703125 C55.62000791 73.53678904 52.72360495 70.2055051 49.8125 66.875 C43.31625313 59.42664309 37.03098369 51.81636862 30.77490234 44.16601562 C28.40642928 41.27563144 26.02473164 38.39627678 23.64355469 35.51635742 C20.75402965 32.01773454 17.87633174 28.50947097 15 25 C14.42878418 24.30503418 13.85756836 23.61006836 13.26904297 22.89404297 C11.61053602 20.87192388 9.96034809 18.8433094 8.3125 16.8125 C7.81927246 16.2129248 7.32604492 15.61334961 6.81787109 14.99560547 C3.02134993 10.28823882 0 6.26164853 0 0 Z " fill="#555557" transform="translate(66,332)"/>
<path d="M0 0 C0.89936279 0.64352417 0.89936279 0.64352417 1.81689453 1.30004883 C2.49107422 1.7737793 3.16525391 2.24750977 3.85986328 2.7355957 C4.54951172 3.23768555 5.23916016 3.73977539 5.94970703 4.25708008 C6.97257812 4.98121094 6.97257812 4.98121094 8.01611328 5.7199707 C9.37559875 6.68455802 10.72955079 7.65699528 12.07763672 8.63745117 C13.41546056 9.5968246 14.77087604 10.53210332 16.14208984 11.44311523 C17.83661198 12.58032977 19.46304346 13.81770041 21.07470703 15.06958008 C21.07470703 16.05958008 21.07470703 17.04958008 21.07470703 18.06958008 C21.63158203 18.15208008 22.18845703 18.23458008 22.76220703 18.31958008 C25.77184909 19.29568021 27.69625455 21.02146822 30.07470703 23.06958008 C29.57970703 24.55458008 29.57970703 24.55458008 29.07470703 26.06958008 C26.80688477 26.94165039 26.80688477 26.94165039 23.75830078 27.64770508 C22.61619141 27.91848877 21.47408203 28.18927246 20.29736328 28.46826172 C19.04826172 28.74919678 17.79916016 29.03013184 16.51220703 29.31958008 C15.23345703 29.61533936 13.95470703 29.91109863 12.63720703 30.21582031 C9.89278783 30.84911395 7.14638704 31.47278895 4.3984375 32.09057617 C0.73399564 32.91606228 -2.9232161 33.76991146 -6.57933044 34.63143921 C-9.48643077 35.31351145 -12.39663276 35.98153209 -15.30783081 36.64587402 C-16.71442739 36.96885301 -18.11998797 37.29637896 -19.52444458 37.62854004 C-21.49847616 38.09333589 -23.47745209 38.53697778 -25.45654297 38.97973633 C-26.58640625 39.23891846 -27.71626953 39.49810059 -28.88037109 39.76513672 C-32.26551554 40.10359688 -33.946631 39.64680924 -36.92529297 38.06958008 C-38.73779297 36.44458008 -38.73779297 36.44458008 -39.92529297 35.06958008 C-39.59529297 34.07958008 -39.26529297 33.08958008 -38.92529297 32.06958008 C-35.36279297 30.88208008 -35.36279297 30.88208008 -31.92529297 30.06958008 C-35.98415389 31.43670077 -39.62852836 32.2241041 -43.92529297 32.06958008 C-48.23898458 29.72868343 -51.45934863 26.50973614 -54.92529297 23.06958008 C-56.64712768 21.54045071 -58.37571987 20.01887651 -60.11279297 18.50708008 C-61.38565984 17.36350616 -62.65732242 16.21858055 -63.92529297 15.06958008 C-63.59529297 14.07958008 -63.26529297 13.08958008 -62.92529297 12.06958008 C-60.578125 11.18164062 -60.578125 11.18164062 -57.43310547 10.45629883 C-56.26521484 10.18052002 -55.09732422 9.90474121 -53.89404297 9.62060547 C-51.99138672 9.1931604 -51.99138672 9.1931604 -50.05029297 8.75708008 C-48.74538366 8.45522159 -47.44069796 8.1523949 -46.13623047 7.84863281 C-42.74632188 7.0630505 -39.35278106 6.29445316 -35.95812988 5.52966309 C-33.96650338 5.07890705 -31.97641526 4.62197013 -29.98681641 4.16235352 C-26.30130839 3.31141674 -22.61391877 2.46938951 -18.92529297 1.63208008 C-17.79365723 1.37322021 -16.66202148 1.11436035 -15.49609375 0.84765625 C-13.91417236 0.49537964 -13.91417236 0.49537964 -12.30029297 0.13598633 C-11.37990234 -0.07082764 -10.45951172 -0.2776416 -9.51123047 -0.49072266 C-3.22664892 -1.55931512 -3.22664892 -1.55931512 0 0 Z " fill="#0D0D0D" transform="translate(309.92529296875,339.930419921875)"/>
<path d="M0 0 C1.2412266 0.89636831 2.47422276 1.80423128 3.69921875 2.72265625 C4.64764648 3.40618164 4.64764648 3.40618164 5.61523438 4.10351562 C10.23790482 7.4875284 10.23790482 7.4875284 11.38671875 9.78515625 C3.06096282 11.81731591 -5.27419927 13.80846052 -13.61328125 15.78515625 C-14.84127441 16.0785791 -16.06926758 16.37200195 -17.33447266 16.67431641 C-20.96605117 17.53733684 -24.60141191 18.38224421 -28.23828125 19.22265625 C-29.36854736 19.49352051 -30.49881348 19.76438477 -31.66333008 20.04345703 C-42.33100497 22.47337439 -42.33100497 22.47337439 -47.61328125 20.78515625 C-50.01054488 19.20337265 -52.01112073 17.36172504 -54.05078125 15.34765625 C-54.59154297 14.84427734 -55.13230469 14.34089844 -55.68945312 13.82226562 C-57.04865705 12.52835847 -58.3375518 11.1614358 -59.61328125 9.78515625 C-59.61328125 9.12515625 -59.61328125 8.46515625 -59.61328125 7.78515625 C-54.10012528 6.53847039 -48.58660442 5.29341511 -43.07275391 4.04980469 C-41.20091039 3.62739039 -39.32916359 3.2045472 -37.45751953 2.78125 C-34.75188725 2.16941635 -32.04589938 1.55917688 -29.33984375 0.94921875 C-28.51650543 0.76267731 -27.69316711 0.57613586 -26.84487915 0.38394165 C-22.6380784 -0.5626878 -18.42570754 -1.47936894 -14.20336914 -2.35424805 C-13.39976456 -2.52111618 -12.59615997 -2.68798431 -11.76820374 -2.85990906 C-7.02428416 -3.64127435 -3.91093415 -2.56247772 0 0 Z " fill="#7D7D7D" transform="translate(312.61328125,346.21484375)"/>
<path d="M0 0 C0.7425 0.639375 1.485 1.27875 2.25 1.9375 C1.92 2.9275 1.59 3.9175 1.25 4.9375 C-1.01782227 5.80957031 -1.01782227 5.80957031 -4.06640625 6.515625 C-5.20851563 6.78640869 -6.350625 7.05719238 -7.52734375 7.33618164 C-9.40099609 7.75758423 -9.40099609 7.75758423 -11.3125 8.1875 C-12.59125 8.48325928 -13.87 8.77901855 -15.1875 9.08374023 C-17.9319192 9.71703387 -20.67831999 10.34070887 -23.42626953 10.95849609 C-27.09071139 11.7839822 -30.74792313 12.63783138 -34.40403748 13.49935913 C-37.3111378 14.18143137 -40.2213398 14.84945201 -43.13253784 15.51379395 C-44.53913442 15.83677293 -45.944695 16.16429888 -47.34915161 16.49645996 C-49.32318319 16.96125582 -51.30215912 17.4048977 -53.28125 17.84765625 C-54.41111328 18.10683838 -55.54097656 18.36602051 -56.70507812 18.63305664 C-60.09022257 18.9715168 -61.77133804 18.51472916 -64.75 16.9375 C-66.5625 15.3125 -66.5625 15.3125 -67.75 13.9375 C-67.255 12.4525 -67.255 12.4525 -66.75 10.9375 C-64.37882996 10.03851318 -64.37882996 10.03851318 -61.19213867 9.29589844 C-60.00387985 9.01260681 -58.81562103 8.72931519 -57.59135437 8.43743896 C-56.28368404 8.14003468 -54.97588548 7.84319377 -53.66796875 7.546875 C-52.33355977 7.23576542 -50.9993589 6.92376201 -49.6653595 6.61090088 C-46.86525989 5.9572255 -44.06325613 5.31270387 -41.25952148 4.67480469 C-37.66794406 3.85715699 -34.0812999 3.01989976 -30.49579906 2.17605209 C-27.739306 1.52911849 -24.98076663 0.89130515 -22.22149086 0.25635529 C-20.8984468 -0.04897164 -19.57597797 -0.3568024 -18.25411034 -0.66718292 C-16.40351049 -1.09997755 -14.5498272 -1.51952281 -12.69604492 -1.93847656 C-11.64205002 -2.18035706 -10.58805511 -2.42223755 -9.50212097 -2.67144775 C-5.20814204 -3.28158449 -3.4581208 -2.5935906 0 0 Z " fill="#070707" transform="translate(337.75,361.0625)"/>
<path d="M0 0 C1.35439668 2.70879335 1.06501451 5.00933268 1 8 C-3.02018644 8.81572257 -7.04125772 9.62699975 -11.0625 10.4375 C-12.19623047 10.66759766 -13.32996094 10.89769531 -14.49804688 11.13476562 C-19.98641129 12.23883893 -25.44485836 13.29855251 -31 14 C-31 11.36 -31 8.72 -31 6 C-27.0681511 5.14156091 -23.13544553 4.28717524 -19.2019043 3.43652344 C-17.86409782 3.14661943 -16.52652992 2.85561216 -15.18920898 2.56347656 C-13.26609487 2.14357641 -11.3420424 1.7279812 -9.41796875 1.3125 C-7.68196411 0.93544922 -7.68196411 0.93544922 -5.91088867 0.55078125 C-3 0 -3 0 0 0 Z " fill="#A6A6A6" transform="translate(127,299)"/>
<path d="M0 0 C0.33 1.65 0.66 3.3 1 5 C-2.72728171 5.84191873 -6.45710003 6.6720168 -10.1875 7.5 C-11.24259766 7.73847656 -12.29769531 7.97695313 -13.38476562 8.22265625 C-14.91713867 8.56103516 -14.91713867 8.56103516 -16.48046875 8.90625 C-17.41785889 9.11572266 -18.35524902 9.32519531 -19.32104492 9.54101562 C-21.93971199 9.98967088 -24.34939083 10.08407959 -27 10 C-27.33 8.02 -27.66 6.04 -28 4 C-24.83601018 3.32019419 -21.66846323 2.65861314 -18.5 2 C-17.613125 1.80921875 -16.72625 1.6184375 -15.8125 1.421875 C-10.422217 0.31211085 -5.50240809 -0.2056975 0 0 Z " fill="#A4A4A4" transform="translate(335,262)"/>
<path d="M0 0 C0.66 0.99 1.32 1.98 2 3 C-3.35691486 5.04072947 -8.18365362 6.81428849 -14 6 C-15.6953125 3.97265625 -15.6953125 3.97265625 -17 2 C-14.91952703 1.4678559 -12.83547707 0.94968214 -10.75 0.4375 C-9.58984375 0.14746094 -8.4296875 -0.14257812 -7.234375 -0.44140625 C-2.68756604 -1.22666432 -2.68756604 -1.22666432 0 0 Z " fill="#737374" transform="translate(224,322)"/>
<path d="M0 0 C1.25 2.0625 1.25 2.0625 2 4 C-3.38027025 5.19088986 -8.45291384 6.2919519 -14 6 C-14.66 4.68 -15.32 3.36 -16 2 C-14.08654673 1.46748234 -12.1690705 0.94940517 -10.25 0.4375 C-9.18265625 0.14746094 -8.1153125 -0.14257812 -7.015625 -0.44140625 C-2.60047413 -1.2592386 -2.60047413 -1.2592386 0 0 Z " fill="#757576" transform="translate(204,326)"/>
<path d="M0 0 C0 0.66 0 1.32 0 2 C-5.8883776 3.43358891 -10.99845201 4.59224743 -17 3 C-18.69140625 1.44921875 -18.69140625 1.44921875 -20 0 C-18.10787298 -0.53414112 -16.21108364 -1.05178329 -14.3125 -1.5625 C-13.25675781 -1.85253906 -12.20101563 -2.14257812 -11.11328125 -2.44140625 C-6.39957881 -3.28715211 -3.96366476 -2.64244318 0 0 Z " fill="#737374" transform="translate(344,299)"/>
<path d="M0 0 C0.66 1.32 1.32 2.64 2 4 C-3.48675196 5.86783046 -8.22192976 6.2358396 -14 6 C-14.66 4.68 -15.32 3.36 -16 2 C-10.54538831 0.61470179 -5.63281599 -0.2396943 0 0 Z " fill="#747474" transform="translate(165,334)"/>
<path d="M0 0 C1.75 1.5625 1.75 1.5625 3 3 C1.27318563 3.50806447 -0.45657979 4.00610467 -2.1875 4.5 C-3.63189453 4.91765625 -3.63189453 4.91765625 -5.10546875 5.34375 C-7.94989047 5.98863914 -10.111696 6.42717773 -13 6 C-14.8125 4 -14.8125 4 -16 2 C-14.08654673 1.46748234 -12.1690705 0.94940517 -10.25 0.4375 C-9.18265625 0.14746094 -8.1153125 -0.14257812 -7.015625 -0.44140625 C-4.09635313 -0.98215221 -2.68724101 -1.16252383 0 0 Z " fill="#767777" transform="translate(243,318)"/>
<path d="M0 0 C2.375 2 2.375 2 4 4 C-7.76744186 6.60465116 -7.76744186 6.60465116 -12 6 C-14.375 4 -14.375 4 -16 2 C-4.23255814 -0.60465116 -4.23255814 -0.60465116 0 0 Z " fill="#757576" transform="translate(301,305)"/>
<path d="M0 0 C1.8125 1.5625 1.8125 1.5625 3 3 C1.10787298 3.53414112 -0.78891636 4.05178329 -2.6875 4.5625 C-3.74324219 4.85253906 -4.79898437 5.14257812 -5.88671875 5.44140625 C-9.07995457 6.01434568 -10.9445549 6.03583232 -14 5 C-15.8125 3.4375 -15.8125 3.4375 -17 2 C-15.10787298 1.46585888 -13.21108364 0.94821671 -11.3125 0.4375 C-10.25675781 0.14746094 -9.20101563 -0.14257812 -8.11328125 -0.44140625 C-4.92004543 -1.01434568 -3.0554451 -1.03583232 0 0 Z " fill="#747474" transform="translate(346,319)"/>
<path d="M0 0 C1.6953125 2.0234375 1.6953125 2.0234375 3 4 C0.58685734 4.58527714 -1.8275402 5.14345404 -4.25 5.6875 C-5.27287109 5.93983398 -5.27287109 5.93983398 -6.31640625 6.19726562 C-9.59028678 6.9124337 -11.45657213 7.28282174 -14.484375 5.70703125 C-16 4 -16 4 -16 2 C-5.51782683 -0.66213922 -5.51782683 -0.66213922 0 0 Z " fill="#767676" transform="translate(282,309)"/>
<path d="M0 0 C2.4375 2 2.4375 2 4 4 C-7.76744186 6.60465116 -7.76744186 6.60465116 -12 6 C-14.375 4 -14.375 4 -16 2 C-10.65860106 0.64345424 -5.53963804 -0.65172212 0 0 Z " fill="#757575" transform="translate(321,301)"/>
<path d="M0 0 C0.66 0.99 1.32 1.98 2 3 C-10.02301808 6.7866089 -10.02301808 6.7866089 -15 5 C-15.66 4.01 -16.32 3.02 -17 2 C-4.97698192 -1.7866089 -4.97698192 -1.7866089 0 0 Z " fill="#747474" transform="translate(387,310)"/>
<path d="M0 0 C0.66 0.99 1.32 1.98 2 3 C0.10787298 3.53414112 -1.78891636 4.05178329 -3.6875 4.5625 C-4.74324219 4.85253906 -5.79898438 5.14257812 -6.88671875 5.44140625 C-10.06168234 6.01106722 -11.96640844 6.05724119 -15 5 C-15.66 4.01 -16.32 3.02 -17 2 C-15.10787298 1.46585888 -13.21108364 0.94821671 -11.3125 0.4375 C-10.25675781 0.14746094 -9.20101562 -0.14257812 -8.11328125 -0.44140625 C-4.93831766 -1.01106722 -3.03359156 -1.05724119 0 0 Z " fill="#727272" transform="translate(178,348)"/>
<path d="M0 0 C0.66 0.99 1.32 1.98 2 3 C-0.24743045 3.53181175 -2.49807102 4.05007126 -4.75 4.5625 C-6.62945312 4.99755859 -6.62945312 4.99755859 -8.546875 5.44140625 C-13.44552702 6.23383525 -13.44552702 6.23383525 -16 5 C-16.33 4.01 -16.66 3.02 -17 2 C-15.10787298 1.46585888 -13.21108364 0.94821671 -11.3125 0.4375 C-10.25675781 0.14746094 -9.20101562 -0.14257812 -8.11328125 -0.44140625 C-4.93831766 -1.01106722 -3.03359156 -1.05724119 0 0 Z " fill="#757575" transform="translate(225,346)"/>
<path d="M0 0 C0.66 0.99 1.32 1.98 2 3 C-0.24743045 3.53181175 -2.49807102 4.05007126 -4.75 4.5625 C-6.62945312 4.99755859 -6.62945312 4.99755859 -8.546875 5.44140625 C-13.37192982 6.22192982 -13.37192982 6.22192982 -16 5 C-16.66 4.01 -17.32 3.02 -18 2 C-15.94077867 1.46635113 -13.87743893 0.94857811 -11.8125 0.4375 C-10.08966797 0.00244141 -10.08966797 0.00244141 -8.33203125 -0.44140625 C-5.06887997 -0.98845271 -3.10257442 -1.09664709 0 0 Z " fill="#757575" transform="translate(266,337)"/>
<path d="M0 0 C0.66 0.99 1.32 1.98 2 3 C0.27507022 3.53469802 -1.455198 4.05219175 -3.1875 4.5625 C-4.63189453 4.99755859 -4.63189453 4.99755859 -6.10546875 5.44140625 C-9.18962355 6.03659402 -11.03833028 6.01791412 -14 5 C-14.66 4.01 -15.32 3.02 -16 2 C-10.72110287 -0.32892521 -5.64813979 -1.88271326 0 0 Z " fill="#787878" transform="translate(263,314)"/>
<path d="M0 0 C0.66 0.99 1.32 1.98 2 3 C0.10614563 3.50744423 -1.79018666 4.00564574 -3.6875 4.5 C-4.74324219 4.7784375 -5.79898438 5.056875 -6.88671875 5.34375 C-9.71142672 5.9391715 -12.12836708 6.12786492 -15 6 C-15.66 4.68 -16.32 3.36 -17 2 C-11.23913235 0.50644172 -5.96210294 -0.52299149 0 0 Z " fill="#747575" transform="translate(245,341)"/>
<path d="M0 0 C0.66 0.99 1.32 1.98 2 3 C-0.08047297 3.5321441 -2.16452293 4.05031786 -4.25 4.5625 C-5.41015625 4.85253906 -6.5703125 5.14257812 -7.765625 5.44140625 C-12.31243396 6.22666432 -12.31243396 6.22666432 -15 5 C-15.66 4.01 -16.32 3.02 -17 2 C-14.91952703 1.4678559 -12.83547707 0.94968214 -10.75 0.4375 C-9.58984375 0.14746094 -8.4296875 -0.14257812 -7.234375 -0.44140625 C-2.68756604 -1.22666432 -2.68756604 -1.22666432 0 0 Z " fill="#767676" transform="translate(306,328)"/>
<path d="M0 0 C1.875 2 1.875 2 3 4 C-7.48217317 6.66213922 -7.48217317 6.66213922 -13 6 C-14.6953125 3.9765625 -14.6953125 3.9765625 -16 2 C-4.19244887 -0.6135291 -4.19244887 -0.6135291 0 0 Z " fill="#7A7A7A" transform="translate(184,330)"/>
<path d="M0 0 C0.99 0.66 1.98 1.32 3 2 C3 2.66 3 3.32 3 4 C-3.30338787 5.3792223 -8.6496923 6.41117949 -15 5 C-15 4.01 -15 3.02 -15 2 C-9.84776142 0.55375759 -5.40540418 -0.42395327 0 0 Z " fill="#767677" transform="translate(366,314)"/>
<path d="M0 0 C0 0.66 0 1.32 0 2 C0.66 2 1.32 2 2 2 C2 2.66 2 3.32 2 4 C-3.22512279 5.46670113 -7.5814234 6.22577402 -13 6 C-13.66 4.68 -14.32 3.36 -15 2 C-9.77487721 0.53329887 -5.4185766 -0.22577402 0 0 Z " fill="#767676" transform="translate(128,342)"/>
<path d="M0 0 C1.75 1.5625 1.75 1.5625 3 3 C-7.79673663 6.77672408 -7.79673663 6.77672408 -13 5 C-14.03225145 4.03332687 -15.03855727 3.03712481 -16 2 C-14.08654673 1.46748234 -12.1690705 0.94940517 -10.25 0.4375 C-9.18265625 0.14746094 -8.1153125 -0.14257812 -7.015625 -0.44140625 C-4.09635313 -0.98215221 -2.68724101 -1.16252383 0 0 Z " fill="#797979" transform="translate(360,293)"/>
<path d="M0 0 C0.66 0.99 1.32 1.98 2 3 C0.27318563 3.50806447 -1.45657979 4.00610467 -3.1875 4.5 C-4.63189453 4.91765625 -4.63189453 4.91765625 -6.10546875 5.34375 C-8.90387024 5.9782054 -11.14794072 6.26842911 -14 6 C-14.99 5.34 -15.98 4.68 -17 4 C-17 3.34 -17 2.68 -17 2 C-11.23913235 0.50644172 -5.96210294 -0.52299149 0 0 Z " fill="#777777" transform="translate(326,323)"/>
<path d="M0 0 C0.33 0.99 0.66 1.98 1 3 C-6.425 4.485 -6.425 4.485 -14 6 C-14.99 4.68 -15.98 3.36 -17 2 C-14.91952703 1.4678559 -12.83547707 0.94968214 -10.75 0.4375 C-9.58984375 0.14746094 -8.4296875 -0.14257812 -7.234375 -0.44140625 C-2.61528608 -1.23914745 -2.61528608 -1.23914745 0 0 Z " fill="#767677" transform="translate(184,355)"/>
<path d="M0 0 C0.66 0.99 1.32 1.98 2 3 C0.10614563 3.50744423 -1.79018666 4.00564574 -3.6875 4.5 C-4.74324219 4.7784375 -5.79898438 5.056875 -6.88671875 5.34375 C-9.71142672 5.9391715 -12.12836708 6.12786492 -15 6 C-15.66 4.68 -16.32 3.36 -17 2 C-11.23913235 0.50644172 -5.96210294 -0.52299149 0 0 Z " fill="#737373" transform="translate(218,339)"/>
<path d="M0 0 C0.66 0.99 1.32 1.98 2 3 C-3.38579128 5.05173001 -8.14357233 6.71711359 -14 6 C-14.66 5.01 -15.32 4.02 -16 3 C-10.75773454 1.17130275 -5.6133971 -0.60685374 0 0 Z " fill="#767676" transform="translate(197,343)"/>
<path d="M0 0 C0.66 1.32 1.32 2.64 2 4 C-3.07476794 5.26305335 -7.72796354 6.27036084 -13 6 C-13.66 4.68 -14.32 3.36 -15 2 C-9.92523206 0.73694665 -5.27203646 -0.27036084 0 0 Z " fill="#797979" transform="translate(146,338)"/>
<path d="M0 0 C0.66 0.99 1.32 1.98 2 3 C-1.66447432 4.64800856 -4.81203466 5.33580973 -8.8125 5.625 C-9.78832031 5.69976562 -10.76414062 5.77453125 -11.76953125 5.8515625 C-12.87361328 5.92503906 -12.87361328 5.92503906 -14 6 C-14.66 5.01 -15.32 4.02 -16 3 C-10.61420872 0.94826999 -5.85642767 -0.71711359 0 0 Z " fill="#797979" transform="translate(285,332)"/>
<path d="M0 0 C0.33 0.66 0.66 1.32 1 2 C-0.91345327 2.53251766 -2.8309295 3.05059483 -4.75 3.5625 C-5.81734375 3.85253906 -6.8846875 4.14257812 -7.984375 4.44140625 C-10.84362661 4.97103446 -12.37811769 5.21905276 -15 4 C-15.33 3.01 -15.66 2.02 -16 1 C-4.44389027 -3.12718204 -4.44389027 -3.12718204 0 0 Z " fill="#757575" transform="translate(141,357)"/>
<path d="M0 0 C0.66 0.99 1.32 1.98 2 3 C0.10614563 3.50744423 -1.79018666 4.00564574 -3.6875 4.5 C-4.74324219 4.7784375 -5.79898438 5.056875 -6.88671875 5.34375 C-9.71142672 5.9391715 -12.12836708 6.12786492 -15 6 C-15.33 5.01 -15.66 4.02 -16 3 C-10.69448793 0.72620911 -5.81094562 -0.5165285 0 0 Z " fill="#7B7B7B" transform="translate(204,350)"/>
<path d="M0 0 C0.66 0.99 1.32 1.98 2 3 C0.0636296 3.50435694 -1.87414146 4.00333874 -3.8125 4.5 C-4.89144531 4.7784375 -5.97039062 5.056875 -7.08203125 5.34375 C-10 6 -10 6 -13 6 C-13.66 4.68 -14.32 3.36 -15 2 C-13.25364835 1.46706165 -11.50272348 0.94909337 -9.75 0.4375 C-8.77546875 0.14746094 -7.8009375 -0.14257812 -6.796875 -0.44140625 C-3.99496816 -1.00100496 -2.59467938 -1.14234778 0 0 Z " fill="#747575" transform="translate(146,363)"/>
<path d="M0 0 C0.66 0.99 1.32 1.98 2 3 C0.08833753 3.5590711 -1.82961576 4.09666462 -3.75 4.625 C-4.81734375 4.92664063 -5.8846875 5.22828125 -6.984375 5.5390625 C-10.23639836 6.03613343 -11.37278177 5.90289171 -14 4 C-14.33 3.34 -14.66 2.68 -15 2 C-13.25364835 1.46706165 -11.50272348 0.94909337 -9.75 0.4375 C-8.77546875 0.14746094 -7.8009375 -0.14257812 -6.796875 -0.44140625 C-3.99496816 -1.00100496 -2.59467938 -1.14234778 0 0 Z " fill="#757575" transform="translate(158,352)"/>
<path d="M0 0 C0 0.99 0 1.98 0 3 C-5.21650268 4.73883423 -9.48834035 5.4670898 -15 5 C-15.66 4.01 -16.32 3.02 -17 2 C-15.10787298 1.46585888 -13.21108364 0.94821671 -11.3125 0.4375 C-10.25675781 0.14746094 -9.20101562 -0.14257812 -8.11328125 -0.44140625 C-4.99304618 -1.00124767 -3.02306766 -0.84690764 0 0 Z " fill="#757575" transform="translate(238,335)"/>
<path d="M0 0 C0.66 0.99 1.32 1.98 2 3 C-4.93 4.485 -4.93 4.485 -12 6 C-12.99 4.68 -13.98 3.36 -15 2 C-13.25364835 1.46706165 -11.50272348 0.94909337 -9.75 0.4375 C-8.77546875 0.14746094 -7.8009375 -0.14257812 -6.796875 -0.44140625 C-3.99496816 -1.00100496 -2.59467938 -1.14234778 0 0 Z " fill="#767777" transform="translate(164,359)"/>
<path d="M0 0 C0.33 0.66 0.66 1.32 1 2 C-10.75905029 5.76374666 -10.75905029 5.76374666 -17 4 C-17.33 3.34 -17.66 2.68 -18 2 C-15.94077867 1.46635113 -13.87743893 0.94857811 -11.8125 0.4375 C-10.08966797 0.00244141 -10.08966797 0.00244141 -8.33203125 -0.44140625 C-5.09631683 -0.9838531 -3.09210953 -1.03447175 0 0 Z " fill="#757576" transform="translate(259,331)"/>
<path d="M0 0 C0.66 0.99 1.32 1.98 2 3 C-0.08047297 3.5321441 -2.16452293 4.05031786 -4.25 4.5625 C-5.41015625 4.85253906 -6.5703125 5.14257812 -7.765625 5.44140625 C-10.72090983 5.95179964 -12.24434101 6.02996165 -15 5 C-15 4.01 -15 3.02 -15 2 C-4.67407191 -0.57000877 -4.67407191 -0.57000877 0 0 Z " fill="#737373" transform="translate(278,326)"/>
<path d="M0 0 C0.66 0.99 1.32 1.98 2 3 C-0.08047297 3.5321441 -2.16452293 4.05031786 -4.25 4.5625 C-5.41015625 4.85253906 -6.5703125 5.14257812 -7.765625 5.44140625 C-12.38471392 6.23914745 -12.38471392 6.23914745 -15 5 C-15.33 4.01 -15.66 3.02 -16 2 C-14.27192682 1.66104344 -12.54248026 1.32908475 -10.8125 1 C-9.84957031 0.814375 -8.88664063 0.62875 -7.89453125 0.4375 C-5.15273808 0.02308592 -2.75848373 -0.30491012 0 0 Z " fill="#727272" transform="translate(191,337)"/>
<path d="M0 0 C0 0.66 0 1.32 0 2 C-5.80766296 3.5056904 -10.9981863 4.21824777 -17 4 C-17.33 3.01 -17.66 2.02 -18 1 C-4.73684211 -2.36842105 -4.73684211 -2.36842105 0 0 Z " fill="#727272" transform="translate(213,334)"/>
<path d="M0 0 C0.33 0.66 0.66 1.32 1 2 C-1.08047297 2.5321441 -3.16452293 3.05031786 -5.25 3.5625 C-6.41015625 3.85253906 -7.5703125 4.14257812 -8.765625 4.44140625 C-11.71308644 4.9504485 -13.29055439 5.18054416 -16 4 C-16.33 3.34 -16.66 2.68 -17 2 C-10.99723113 -0.13780702 -6.26163459 -1.73194148 0 0 Z " fill="#6F6F6F" transform="translate(272,321)"/>
<path d="M0 0 C0.66 0.99 1.32 1.98 2 3 C0.27318563 3.50806447 -1.45657979 4.00610467 -3.1875 4.5 C-4.63189453 4.91765625 -4.63189453 4.91765625 -6.10546875 5.34375 C-8.85345876 5.96677608 -11.19598416 6.12302812 -14 6 C-14.33 5.01 -14.66 4.02 -15 3 C-13.44033782 2.491217 -11.87710759 1.99336531 -10.3125 1.5 C-9.44238281 1.2215625 -8.57226562 0.943125 -7.67578125 0.65625 C-4.94101915 -0.01446538 -2.79763406 -0.34315103 0 0 Z " fill="#757575" transform="translate(171,341)"/>
<path d="M0 0 C0.33 0.66 0.66 1.32 1 2 C-1.08047297 2.5321441 -3.16452293 3.05031786 -5.25 3.5625 C-6.41015625 3.85253906 -7.5703125 4.14257812 -8.765625 4.44140625 C-11.71308644 4.9504485 -13.29055439 5.18054416 -16 4 C-16.33 3.34 -16.66 2.68 -17 2 C-15.10787298 1.46585888 -13.21108364 0.94821671 -11.3125 0.4375 C-10.25675781 0.14746094 -9.20101562 -0.14257812 -8.11328125 -0.44140625 C-4.96785188 -1.00576811 -3.01953398 -0.99563012 0 0 Z " fill="#747474" transform="translate(252,325)"/>
<path d="M0 0 C0.33 0.66 0.66 1.32 1 2 C-1.08047297 2.5321441 -3.16452293 3.05031786 -5.25 3.5625 C-6.41015625 3.85253906 -7.5703125 4.14257812 -8.765625 4.44140625 C-11.71308644 4.9504485 -13.29055439 5.18054416 -16 4 C-16.33 3.34 -16.66 2.68 -17 2 C-5.10476055 -1.74636545 -5.10476055 -1.74636545 0 0 Z " fill="#737373" transform="translate(319,318)"/>
<path d="M0 0 C0.33 0.99 0.66 1.98 1 3 C-9.12255965 6.70498915 -9.12255965 6.70498915 -13 6 C-13.66 5.01 -14.32 4.02 -15 3 C-10.00338921 1.21549615 -5.3259594 0 0 0 Z " fill="#6D6D6D" transform="translate(122,335)"/>
<path d="M0 0 C0.33 0.66 0.66 1.32 1 2 C-0.91345327 2.53251766 -2.8309295 3.05059483 -4.75 3.5625 C-5.81734375 3.85253906 -6.8846875 4.14257812 -7.984375 4.44140625 C-10.84335927 4.97098494 -12.31597383 4.98370862 -15 4 C-15 3.01 -15 2.02 -15 1 C-13.44033408 0.63355422 -11.87707349 0.28239138 -10.3125 -0.0625 C-9.44238281 -0.25972656 -8.57226562 -0.45695312 -7.67578125 -0.66015625 C-4.8024148 -1.02509476 -2.7633541 -0.84691238 0 0 Z " fill="#767676" transform="translate(135,350)"/>
<path d="M0 0 C-3.07538755 3.07538755 -6.77587073 3.42591532 -11 4 C-14.5 3.75 -14.5 3.75 -17 3 C-17.33 2.34 -17.66 1.68 -18 1 C-15.75411164 0.44153043 -13.50306332 -0.09621983 -11.25 -0.625 C-9.99703125 -0.92664063 -8.7440625 -1.22828125 -7.453125 -1.5390625 C-3.99187436 -2.00108464 -2.79597098 -1.96282811 0 0 Z " fill="#777777" transform="translate(299,323)"/>
<path d="M0 0 C0.33 0.99 0.66 1.98 1 3 C-4.45461169 4.38529821 -9.36718401 5.2396943 -15 5 C-15.33 4.01 -15.66 3.02 -16 2 C-10.61972975 0.80911014 -5.54708616 -0.2919519 0 0 Z " fill="#737373" transform="translate(291,316)"/>
<path d="M0 0 C0 0.99 0 1.98 0 3 C-11.6 6.2 -11.6 6.2 -16 4 C-16 3.34 -16 2.68 -16 2 C-10.54538831 0.61470179 -5.63281599 -0.2396943 0 0 Z " fill="#6F6F6F" transform="translate(338,313)"/>
<path d="M0 0 C0 0.66 0 1.32 0 2 C-11.54921541 4.55634807 -11.54921541 4.55634807 -16 4 C-16.66 3.01 -17.32 2.02 -18 1 C-4.73684211 -2.36842105 -4.73684211 -2.36842105 0 0 Z " fill="#717171" transform="translate(180,325)"/>
<path d="M0 0 C0 0.99 0 1.98 0 3 C-10.83180428 5.59021407 -10.83180428 5.59021407 -16 4 C-16.33 3.34 -16.66 2.68 -17 2 C-11.19233704 0.4943096 -6.0018137 -0.21824777 0 0 Z " fill="#757575" transform="translate(311,312)"/>
<path d="M0 0 C0.66 0.66 1.32 1.32 2 2 C0.27318563 2.50806447 -1.45657979 3.00610467 -3.1875 3.5 C-4.63189453 3.91765625 -4.63189453 3.91765625 -6.10546875 4.34375 C-8.91191946 4.98003032 -11.14335995 5.35522985 -14 5 C-14.66 4.01 -15.32 3.02 -16 2 C-10.45211682 0.41489052 -5.77596312 -0.39834228 0 0 Z " fill="#707070" transform="translate(358,309)"/>
<path d="M0 0 C-3.32176381 3.32176381 -7.89267616 3.63863622 -12.375 4.6875 C-13.3340625 4.92533203 -14.293125 5.16316406 -15.28125 5.40820312 C-16.20679688 5.62798828 -17.13234375 5.84777344 -18.0859375 6.07421875 C-19.3551001 6.37718872 -19.3551001 6.37718872 -20.64990234 6.6862793 C-23.09571951 7.01277785 -24.67500748 6.76616786 -27 6 C-18.40684625 2.46164257 -9.3603164 -0.29514511 0 0 Z " fill="#626262" transform="translate(304,369)"/>
<path d="M0 0 C0 0.99 0 1.98 0 3 C-4.873261 4.5912689 -8.80790596 5.21192221 -14 5 C-14.33 4.01 -14.66 3.02 -15 2 C-9.92523206 0.73694665 -5.27203646 -0.27036084 0 0 Z " fill="#727373" transform="translate(159,328)"/>
<path d="M0 0 C0 0.66 0 1.32 0 2 C-1.5811292 2.50692692 -3.16501383 3.00526443 -4.75 3.5 C-5.63171875 3.7784375 -6.5134375 4.056875 -7.421875 4.34375 C-10 5 -10 5 -14 5 C-14.33 4.01 -14.66 3.02 -15 2 C-13.25364835 1.46706165 -11.50272348 0.94909337 -9.75 0.4375 C-8.77546875 0.14746094 -7.8009375 -0.14257812 -6.796875 -0.44140625 C-4.03756068 -0.99249836 -2.6087176 -0.93789609 0 0 Z " fill="#777777" transform="translate(153,346)"/>
<path d="M0 0 C0.34675781 0.52207031 0.69351563 1.04414063 1.05078125 1.58203125 C-3.75353955 3.98419165 -8.6802577 4.19325354 -13.94921875 4.58203125 C-14.60921875 3.59203125 -15.26921875 2.60203125 -15.94921875 1.58203125 C-13.68371241 0.99844639 -11.41152074 0.4407603 -9.13671875 -0.10546875 C-7.87214844 -0.41871094 -6.60757813 -0.73195313 -5.3046875 -1.0546875 C-1.94921875 -1.41796875 -1.94921875 -1.41796875 0 0 Z " fill="#797979" transform="translate(230.94921875,329.41796875)"/>
<path d="M0 0 C0 0.99 0 1.98 0 3 C-5.07476794 4.26305335 -9.72796354 5.27036084 -15 5 C-15.33 4.01 -15.66 3.02 -16 2 C-10.61972975 0.80911014 -5.54708616 -0.2919519 0 0 Z " fill="#717171" transform="translate(198,320)"/>
<path d="M0 0 C0.66 0.99 1.32 1.98 2 3 C-3.80766296 4.5056904 -8.9981863 5.21824777 -15 5 C-15.33 4.34 -15.66 3.68 -16 3 C-14.27318563 2.49193553 -12.54342021 1.99389533 -10.8125 1.5 C-9.84957031 1.2215625 -8.88664062 0.943125 -7.89453125 0.65625 C-5.08808054 0.01996968 -2.85664005 -0.35522985 0 0 Z " fill="#727273" transform="translate(378,304)"/>
<path d="M0 0 C0.33 0.99 0.66 1.98 1 3 C-0.56116819 3.33951619 -2.12401338 3.67132544 -3.6875 4 C-4.99267578 4.2784375 -4.99267578 4.2784375 -6.32421875 4.5625 C-8.93712964 4.98972047 -11.35813038 5.07616201 -14 5 C-14 4.01 -14 3.02 -14 2 C-9.15758367 0.66416101 -5.06562383 -0.25328119 0 0 Z " fill="#717171" transform="translate(370,299)"/>
<path d="M0 0 C0 0.66 0 1.32 0 2 C-3.60116256 2.86718598 -7.20630848 3.71649241 -10.8125 4.5625 C-11.83666016 4.80935547 -12.86082031 5.05621094 -13.91601562 5.31054688 C-14.89892578 5.53935547 -15.88183594 5.76816406 -16.89453125 6.00390625 C-18.25348511 6.32597046 -18.25348511 6.32597046 -19.63989258 6.65454102 C-22 7 -22 7 -25 6 C-21.09646319 3.6952522 -16.87037658 2.87669922 -12.5 1.875 C-11.74074219 1.69324219 -10.98148437 1.51148438 -10.19921875 1.32421875 C-6.61827036 0.49012744 -3.72626421 0 0 0 Z " fill="#696969" transform="translate(333,362)"/>
<path d="M0 0 C0 0.99 0 1.98 0 3 C-8.42857143 5.28571429 -8.42857143 5.28571429 -13 5 C-13.33 4.01 -13.66 3.02 -14 2 C-9.15758367 0.66416101 -5.06562383 -0.25328119 0 0 Z " fill="#767676" transform="translate(140,332)"/>
<path d="M0 0 C0 0.99 0 1.98 0 3 C-10.41962944 5.54248039 -10.41962944 5.54248039 -14 5 C-14.66 4.01 -15.32 3.02 -16 2 C-10.61972975 0.80911014 -5.54708616 -0.2919519 0 0 Z " fill="#6C6C6D" transform="translate(217,316)"/>
<path d="M0 0 C-3.12582048 1.73656693 -6.06040291 2.61208058 -9.5625 3.3125 C-10.51253906 3.51488281 -11.46257812 3.71726562 -12.44140625 3.92578125 C-15 4 -15 4 -16.83984375 2.54296875 C-17.22269531 2.03378906 -17.60554688 1.52460938 -18 1 C-15.75411164 0.44153043 -13.50306332 -0.09621983 -11.25 -0.625 C-9.99703125 -0.92664063 -8.7440625 -1.22828125 -7.453125 -1.5390625 C-3.99187436 -2.00108464 -2.79597098 -1.96282811 0 0 Z " fill="#757575" transform="translate(332,309)"/>
<path d="M0 0 C0.66 0.99 1.32 1.98 2 3 C-9.20295203 5.4797048 -9.20295203 5.4797048 -14 5 C-14.66 4.34 -15.32 3.68 -16 3 C-14.27318563 2.49193553 -12.54342021 1.99389533 -10.8125 1.5 C-9.84957031 1.2215625 -8.88664062 0.943125 -7.89453125 0.65625 C-5.08808054 0.01996968 -2.85664005 -0.35522985 0 0 Z " fill="#747474" transform="translate(350,303)"/>
<path d="M0 0 C0.66 0.66 1.32 1.32 2 2 C-1.77494907 3.83354669 -3.97113896 4.27227191 -8 3 C-8.99 2.34 -9.98 1.68 -11 1 C-11 0.34 -11 -0.32 -11 -1 C-6.60241521 -2.02269414 -4.02870334 -2.1262601 0 0 Z " fill="#6F6F6F" transform="translate(375,291)"/>
<path d="M0 0 C-2.35307813 2.35307813 -3.59680647 2.54628975 -6.8125 3.1875 C-8.09060547 3.45626953 -8.09060547 3.45626953 -9.39453125 3.73046875 C-12.17158136 4.0177498 -14.30662196 3.68180665 -17 3 C-17 2.34 -17 1.68 -17 1 C-10.97767819 -0.46619907 -6.09632423 -1.32528788 0 0 Z " fill="#707071" transform="translate(238,313)"/>
<path d="M0 0 C0.33 0.66 0.66 1.32 1 2 C-1.07881495 2.55875662 -3.16330494 3.09643187 -5.25 3.625 C-6.99023438 4.07746094 -6.99023438 4.07746094 -8.765625 4.5390625 C-12.11615725 5.01655381 -13.26822383 4.87978657 -16 3 C-16 2.67 -16 2.34 -16 2 C-10.61972975 0.80911014 -5.54708616 -0.2919519 0 0 Z " fill="#707071" transform="translate(256,308)"/>
<path d="M0 0 C1.01836638 0.98128993 2.02084113 1.97958444 3 3 C1.23186888 3.24915939 -0.53974982 3.47366632 -2.3125 3.6875 C-3.29863281 3.81511719 -4.28476562 3.94273437 -5.30078125 4.07421875 C-8 4 -8 4 -9.85546875 2.51953125 C-10.42201172 1.76736328 -10.42201172 1.76736328 -11 1 C-3.28125 -1.5234375 -3.28125 -1.5234375 0 0 Z " fill="#767676" transform="translate(401,307)"/>
<path d="M0 0 C0.33 0.66 0.66 1.32 1 2 C-0.91345327 2.53251766 -2.8309295 3.05059483 -4.75 3.5625 C-5.81734375 3.85253906 -6.8846875 4.14257812 -7.984375 4.44140625 C-10.84646657 4.97156052 -12.35073335 5.13274719 -15 4 C-15.33 3.34 -15.66 2.68 -16 2 C-14.27192682 1.66104344 -12.54248026 1.32908475 -10.8125 1 C-9.84957031 0.814375 -8.88664062 0.62875 -7.89453125 0.4375 C-5.2065794 0.03122388 -2.71228981 -0.07933572 0 0 Z " fill="#6F6F70" transform="translate(275,304)"/>
<path d="M0 0 C0.33 0.66 0.66 1.32 1 2 C-4.45461169 3.38529821 -9.36718401 4.2396943 -15 4 C-15.33 3.34 -15.66 2.68 -16 2 C-10.61972975 0.80911014 -5.54708616 -0.2919519 0 0 Z " fill="#6B6B6B" transform="translate(314,296)"/>
<path d="M0 0 C0.33 0.66 0.66 1.32 1 2 C-4.38027025 3.19088986 -9.45291384 4.2919519 -15 4 C-15.33 3.34 -15.66 2.68 -16 2 C-10.61972975 0.80911014 -5.54708616 -0.2919519 0 0 Z " fill="#747474" transform="translate(295,300)"/>
<path d="M0 0 C0.33 0.66 0.66 1.32 1 2 C-4.38027025 3.19088986 -9.45291384 4.2919519 -15 4 C-15.33 3.34 -15.66 2.68 -16 2 C-10.61972975 0.80911014 -5.54708616 -0.2919519 0 0 Z " fill="#696969" transform="translate(353,288)"/>
<path d="M0 0 C0 0.66 0 1.32 0 2 C-5.22512279 3.46670113 -9.5814234 4.22577402 -15 4 C-15 3.34 -15 2.68 -15 2 C-13.43883181 1.66048381 -11.87598662 1.32867456 -10.3125 1 C-9.44238281 0.814375 -8.57226562 0.62875 -7.67578125 0.4375 C-5.06287036 0.01027953 -2.64186962 -0.07616201 0 0 Z " fill="#6C6C6C" transform="translate(333,292)"/>
<path d="M0 0 C0 0.66 0 1.32 0 2 C-4.455 2.495 -4.455 2.495 -9 3 C-9.33 2.01 -9.66 1.02 -10 0 C-6.30581799 -1.231394 -3.7943739 -0.64432764 0 0 Z " fill="#6E6E6E" transform="translate(385,297)"/>
<path d="M0 0 C0.66 0.99 1.32 1.98 2 3 C-2.455 3.495 -2.455 3.495 -7 4 C-7 3.01 -7 2.02 -7 1 C-4.46578263 -0.26710868 -2.80561762 -0.28056176 0 0 Z " fill="#787878" transform="translate(191,337)"/>
<path d="M0 0 C0 0.66 0 1.32 0 2 C-4.455 2.495 -4.455 2.495 -9 3 C-9 2.01 -9 1.02 -9 0 C-5.67465243 -1.10844919 -3.37817425 -0.84454356 0 0 Z " fill="#707070" transform="translate(393,302)"/>
<path d="M0 0 C1.98 0 3.96 0 6 0 C6 0.99 6 1.98 6 3 C3.36 3.33 0.72 3.66 -2 4 C-1.34 2.68 -0.68 1.36 0 0 Z " fill="#747575" transform="translate(211,316)"/>
<path d="M0 0 C2.375 -0.1875 2.375 -0.1875 5 0 C5.66 0.99 6.32 1.98 7 3 C4.36 3.33 1.72 3.66 -1 4 C-0.67 2.68 -0.34 1.36 0 0 Z " fill="#69696A" transform="translate(373,304)"/>
<path d="M0 0 C-0.33 0.99 -0.66 1.98 -1 3 C-3.9375 2.625 -3.9375 2.625 -7 2 C-7.33 1.34 -7.66 0.68 -8 0 C-4.94736336 -0.98120464 -3.05263664 -0.98120464 0 0 Z " fill="#6F6F6F" transform="translate(302,314)"/>
<path d="M0 0 C0.33 0.99 0.66 1.98 1 3 C-0.98 3.33 -2.96 3.66 -5 4 C-5 3.01 -5 2.02 -5 1 C-3 0 -3 0 0 0 Z " fill="#787878" transform="translate(122,335)"/>
<path d="M0 0 C2.31 0 4.62 0 7 0 C6.67 0.99 6.34 1.98 6 3 C3.03 2.505 3.03 2.505 0 2 C0 1.34 0 0.68 0 0 Z " fill="#757575" transform="translate(322,315)"/>
<path d="M0 0 C0 0.66 0 1.32 0 2 C-2.64 2.33 -5.28 2.66 -8 3 C-5.53387212 -0.1151089 -3.89156016 -0.31553191 0 0 Z " fill="#737373" transform="translate(333,292)"/>
</svg>
