<?xml version="1.0" encoding="UTF-8"?>
<svg version="1.1" xmlns="http://www.w3.org/2000/svg" width="500" height="500">
<path d="M0 0 C3.79232166 2.98250297 7.26615443 6.74298823 10.0625 10.6796875 C10.0625 11.3396875 10.0625 11.9996875 10.0625 12.6796875 C10.7225 12.6796875 11.3825 12.6796875 12.0625 12.6796875 C13.07154375 14.9260111 14.0698602 17.17612687 15.0625 19.4296875 C15.34867187 20.06390625 15.63484375 20.698125 15.9296875 21.3515625 C17.42256702 24.76385854 18.0625 26.88750667 18.0625 30.6796875 C18.7225 31.0096875 19.3825 31.3396875 20.0625 31.6796875 C20.32805047 34.96871973 20.42911901 38.21584935 20.453125 41.51367188 C20.62589002 46.71101958 21.8791341 49.42102434 25.0625 53.6796875 C26.40281189 56.95471047 27.51134454 60.2428376 26.421875 63.73046875 C24.63058669 66.29901147 22.68070241 67.24832658 19.9375 68.7421875 C13.53826005 72.62863689 10.12577164 77.51984191 6.0625 83.6796875 C3.40709869 87.25808927 1.15530828 89.80806521 -2.9375 91.6796875 C-4.18660156 92.28296875 -4.18660156 92.28296875 -5.4609375 92.8984375 C-13.19803022 96.37482985 -20.51746299 97.84515721 -28.9375 98.6796875 C-28.9375 101.3196875 -28.9375 103.9596875 -28.9375 106.6796875 C-28.174375 106.9478125 -27.41125 107.2159375 -26.625 107.4921875 C-23.85894636 108.71439725 -22.67060975 109.24328684 -20.9375 111.6796875 C-20.68330546 114.27005092 -20.61002751 116.59619928 -20.6875 119.1796875 C-20.69918213 119.92581299 -20.71086426 120.67193848 -20.72290039 121.44067383 C-20.97008699 133.91000854 -21.78037838 146.365673 -22.75390625 158.796875 C-22.92197487 161.43590996 -22.95057334 164.03664708 -22.9375 166.6796875 C-18.78104647 168.710339 -14.6224198 170.73645287 -10.46191406 172.75878906 C-9.05346374 173.44413677 -7.64556483 174.13061909 -6.23828125 174.81835938 C1.0903057 178.39889757 8.43976854 181.93155329 15.8984375 185.234375 C17.01524902 185.73179199 18.13206055 186.22920898 19.28271484 186.74169922 C22.09801224 188.00281857 22.09801224 188.00281857 25.0625 186.6796875 C34.25568104 185.89966002 42.40419248 185.91232011 50.0625 191.6796875 C52.89329043 195.09328772 53.0625 196.17280017 53.0625 200.6796875 C54.34125 200.6384375 55.62 200.5971875 56.9375 200.5546875 C59.1171875 200.484375 59.1171875 200.484375 61.0625 200.6796875 C63.68092828 203.29811578 63.70685501 205.15052886 64.3515625 208.78125 C64.68027344 210.59882813 64.68027344 210.59882813 65.015625 212.453125 C65.23734375 213.72414062 65.4590625 214.99515625 65.6875 216.3046875 C65.91695312 217.5834375 66.14640625 218.8621875 66.3828125 220.1796875 C66.94976401 223.34516679 67.50933235 226.51177537 68.0625 229.6796875 C69.19778767 229.68299765 70.33307533 229.68630779 71.50276566 229.68971825 C99.10179411 229.77064175 126.70076659 229.86293551 154.29971695 229.96721458 C167.64625242 230.01737835 180.99277887 230.06382081 194.33935547 230.1015625 C205.96955829 230.13445997 217.59971307 230.17427872 229.22986293 230.22247756 C235.39033353 230.24776486 241.55077216 230.26953956 247.71128082 230.28303146 C253.50602719 230.29583153 259.30066407 230.31786375 265.09535027 230.34707069 C267.22545885 230.35616255 269.35558507 230.36184043 271.48571205 230.36390114 C274.38775578 230.3672123 277.28948692 230.38265874 280.19146729 230.4012146 C281.03971549 230.39927987 281.8879637 230.39734513 282.7619164 230.39535177 C289.80126448 230.46291742 289.80126448 230.46291742 293.0625 232.6796875 C293.25827631 240.4010294 292.71290426 247.78905757 291.625 255.4296875 C291.42293945 256.91275391 291.42293945 256.91275391 291.21679688 258.42578125 C290.68568235 262.30680345 290.13402201 266.18457363 289.57397461 270.06152344 C289.0637541 273.670816 288.58819659 277.28282443 288.125 280.8984375 C288.04000244 281.56000854 287.95500488 282.22157959 287.86743164 282.90319824 C287.59865319 284.9953016 287.33049558 287.08748372 287.0625 289.1796875 C286.70890197 291.94017751 286.35464594 294.70058194 286 297.4609375 C285.84402344 298.67845703 285.68804687 299.89597656 285.52734375 301.15039062 C285.06454221 304.66418217 284.56792093 308.17179853 284.0625 311.6796875 C283.52931354 315.5114004 283.01306085 319.34523272 282.5 323.1796875 C282.36142578 324.18644531 282.22285156 325.19320313 282.08007812 326.23046875 C281.51881202 330.44964152 280.97536157 334.57420779 281.03515625 338.8359375 C281.04869141 340.24359375 281.04869141 340.24359375 281.0625 341.6796875 C280.7325 342.0096875 280.4025 342.3396875 280.0625 342.6796875 C279.70681599 345.63873933 279.39973976 348.58794578 279.125 351.5546875 C278.50392702 357.92691998 277.69577375 364.15595301 276.43359375 370.4375 C275.91783152 373.55378965 275.99399674 376.52853757 276.0625 379.6796875 C275.7325 380.0096875 275.4025 380.3396875 275.0625 380.6796875 C274.5243242 384.00371447 274.09629523 387.33693576 273.66015625 390.67578125 C273.0625 393.6796875 273.0625 393.6796875 271.0625 395.6796875 C268.31764407 395.82476445 265.67769457 395.86621173 262.9375 395.8046875 C262.18339844 395.79566406 261.42929687 395.78664063 260.65234375 395.77734375 C258.78892746 395.7537562 256.92567407 395.71788469 255.0625 395.6796875 C255.0625 397.6596875 255.0625 399.6396875 255.0625 401.6796875 C255.63693848 401.65350342 256.21137695 401.62731934 256.80322266 401.6003418 C259.43103171 401.4957695 262.05840231 401.43117806 264.6875 401.3671875 C265.59113281 401.32529297 266.49476563 401.28339844 267.42578125 401.24023438 C271.82460643 401.15996384 275.04630009 401.14010225 278.5859375 403.94921875 C282.96011154 408.77184911 282.96011154 408.77184911 283.1796875 412.86328125 C282.63893174 417.89579857 281.95245468 421.11389571 278.0625 424.6796875 C274.42980743 426.44677628 271.56307947 426.91991744 267.54296875 426.875 C266.52138672 426.86855469 265.49980469 426.86210937 264.44726562 426.85546875 C263.39216797 426.83871094 262.33707031 426.82195312 261.25 426.8046875 C260.17556641 426.79566406 259.10113281 426.78664063 257.99414062 426.77734375 C255.35003146 426.75384056 252.70638128 426.72098325 250.0625 426.6796875 C251.32434467 429.20337684 252.1871865 429.2600359 254.75 430.3046875 C260.63074132 433.13420038 263.7593053 437.76301366 266.375 443.6171875 C266.601875 444.6278125 266.82875 445.6384375 267.0625 446.6796875 C267.24167969 447.32292969 267.42085938 447.96617187 267.60546875 448.62890625 C268.93474419 454.95716624 266.99165462 459.37224824 263.9453125 464.93359375 C260.18474023 470.41841182 255.31568062 473.576848 249.0625 475.6796875 C246.9665014 475.95845268 244.85987389 476.16557494 242.75 476.3046875 C241.68136719 476.37945312 240.61273438 476.45421875 239.51171875 476.53125 C238.70347656 476.58023437 237.89523437 476.62921875 237.0625 476.6796875 C237.0625 476.0196875 237.0625 475.3596875 237.0625 474.6796875 C236.4025 474.6384375 235.7425 474.5971875 235.0625 474.5546875 C229.64965869 472.97594212 225.52835978 469.96671688 222.47265625 465.19921875 C218.29887048 457.0089203 217.43673067 451.62182362 220.0625 442.6796875 C223.14765005 436.0946623 227.42902584 431.68757862 234.0625 428.6796875 C235.3825 428.3496875 236.7025 428.0196875 238.0625 427.6796875 C197.4725 427.3496875 156.8825 427.0196875 115.0625 426.6796875 C115.0625 427.3396875 115.0625 427.9996875 115.0625 428.6796875 C116.3 428.7415625 116.3 428.7415625 117.5625 428.8046875 C123.25945635 430.22892659 127.19772698 433.149887 130.68359375 437.87890625 C134.33287289 444.29874293 135.25170307 450.40061386 134.0625 457.6796875 C131.38591557 465.83419684 127.32991069 470.33679536 119.875 474.4296875 C114.52735926 476.4764615 108.36500456 477.63866219 102.7890625 476.01953125 C100.73911189 475.04953546 98.93037881 473.9633399 97.0625 472.6796875 C96.010625 471.9784375 94.95875 471.2771875 93.875 470.5546875 C88.92234858 466.06337895 86.29773132 460.54712757 85.75390625 453.91796875 C85.75044006 450.48990558 85.84072081 447.10001543 86.0625 443.6796875 C86.7225 443.6796875 87.3825 443.6796875 88.0625 443.6796875 C88.124375 442.9578125 88.18625 442.2359375 88.25 441.4921875 C89.32953931 437.75532064 91.17265139 436.24114423 94.0625 433.6796875 C94.866875 432.9371875 95.67125 432.1946875 96.5 431.4296875 C99.40931227 429.44284009 101.5860443 429.00307873 105.0625 428.6796875 C105.0625 428.0196875 105.0625 427.3596875 105.0625 426.6796875 C104.12567383 426.7111084 104.12567383 426.7111084 103.16992188 426.74316406 C100.3009494 426.82704594 97.43223592 426.87857261 94.5625 426.9296875 C93.58023438 426.96320313 92.59796875 426.99671875 91.5859375 427.03125 C84.92052548 427.12012216 80.73771335 426.23983291 75.0625 422.6796875 C72.03513624 418.39092217 72.88570809 412.7379004 73.0625 407.6796875 C73.7225 407.6796875 74.3825 407.6796875 75.0625 407.6796875 C75.31 407.0609375 75.5575 406.4421875 75.8125 405.8046875 C77.3317069 403.22203576 78.29910225 402.76114759 81.0625 401.6796875 C83.53613281 401.45263672 83.53613281 401.45263672 86.265625 401.484375 C87.2453125 401.49082031 88.225 401.49726563 89.234375 401.50390625 C90.25015625 401.52066406 91.2659375 401.53742188 92.3125 401.5546875 C93.34375 401.56371094 94.375 401.57273437 95.4375 401.58203125 C97.97940287 401.60556739 100.5208328 401.63844727 103.0625 401.6796875 C103.0625 399.6996875 103.0625 397.7196875 103.0625 395.6796875 C95.4725 395.6796875 87.8825 395.6796875 80.0625 395.6796875 C79.7325 394.6896875 79.4025 393.6996875 79.0625 392.6796875 C78.4025 392.3496875 77.7425 392.0196875 77.0625 391.6796875 C76.60546875 389.6953125 76.60546875 389.6953125 76.25 386.9296875 C75.19147068 379.80397793 73.48885165 372.87627465 71.73901367 365.89160156 C71.52349854 365.01729492 71.3079834 364.14298828 71.0859375 363.2421875 C70.79082275 362.06849609 70.79082275 362.06849609 70.48974609 360.87109375 C70.0625 358.6796875 70.0625 358.6796875 70.0625 354.6796875 C69.4025 354.3496875 68.7425 354.0196875 68.0625 353.6796875 C67.60546875 351.9140625 67.60546875 351.9140625 67.25 349.4296875 C66.27237423 343.46143988 64.91568377 337.61830685 63.5 331.7421875 C63.27787842 330.81825195 63.05575684 329.89431641 62.8269043 328.94238281 C61.73041266 324.3986343 61.73041266 324.3986343 60.60571289 319.86181641 C59.23773181 314.36652882 57.93466602 308.85513777 56.62402344 303.34594727 C56.25169476 301.78524256 55.8773672 300.22501328 55.50097656 298.6652832 C51.96512791 284.00456099 51.96512791 284.00456099 51.4375 278.16015625 C51.31375 277.01160156 51.19 275.86304688 51.0625 274.6796875 C50.4025 274.3496875 49.7425 274.0196875 49.0625 273.6796875 C48.60546875 271.9140625 48.60546875 271.9140625 48.25 269.4296875 C47.27237423 263.46143988 45.91568377 257.61830685 44.5 251.7421875 C44.27787842 250.81825195 44.05575684 249.89431641 43.8269043 248.94238281 C42.69737026 244.25639964 42.69737026 244.25639964 41.52587891 239.58081055 C40.86914327 236.88639514 40.44617784 234.16624492 40 231.4296875 C39.73509766 229.81320313 39.73509766 229.81320313 39.46484375 228.1640625 C39.33207031 227.34421875 39.19929687 226.524375 39.0625 225.6796875 C38.47235107 225.70063477 37.88220215 225.72158203 37.27416992 225.74316406 C34.59962001 225.82632433 31.92534185 225.87834441 29.25 225.9296875 C28.32123047 225.96320313 27.39246094 225.99671875 26.43554688 226.03125 C25.54287109 226.04414063 24.65019531 226.05703125 23.73046875 226.0703125 C22.90828857 226.09125977 22.0861084 226.11220703 21.23901367 226.13378906 C19.0625 225.6796875 19.0625 225.6796875 17.3059082 223.79174805 C15.98795596 221.55306654 15.5546179 219.77747348 15.0625 217.2421875 C14.14458312 214.44753958 13.56215082 213.0426026 11.1640625 211.30078125 C8.1765908 209.94840841 5.13586186 208.82530179 2.0625 207.6796875 C-1.47113772 206.18840782 -4.98332107 204.6479553 -8.5 203.1171875 C-10.25018308 202.36328234 -12.00146964 201.6119332 -13.75390625 200.86328125 C-14.51131104 200.53900146 -15.26871582 200.21472168 -16.04907227 199.88061523 C-20.32715225 198.10190883 -24.6329625 196.39318933 -28.9375 194.6796875 C-29.27359975 200.83541917 -29.5946195 206.99168588 -29.90185547 213.14892578 C-30.00841586 215.24223836 -30.11905178 217.3353477 -30.23388672 219.42822266 C-30.39849588 222.44128609 -30.54830271 225.45478285 -30.6953125 228.46875 C-30.74938263 229.40022858 -30.80345276 230.33170715 -30.85916138 231.29141235 C-31.08617234 236.26432329 -30.85224275 239.98980525 -28.9375 244.6796875 C-28.68983559 246.58951202 -28.49975584 248.50791661 -28.375 250.4296875 C-28.18593784 254.19805933 -28.18593784 254.19805933 -26.9375 257.6796875 C-26.95279577 259.69435888 -26.9695474 261.70902515 -26.99169922 263.72363281 C-26.87324797 270.18402815 -26.11538744 276.62556454 -25.5 283.0546875 C-25.36354903 284.51038079 -25.22747889 285.96610983 -25.09179688 287.421875 C-24.83902701 290.12963202 -24.58365981 292.83709317 -24.32641602 295.54443359 C-23.5506041 303.74611722 -22.8223361 311.95223366 -22.08752441 320.15766907 C-21.65360835 324.99808578 -21.21722087 329.83827881 -20.78076172 334.6784668 C-20.55112131 337.22982728 -20.32228569 339.78126031 -20.09423828 342.33276367 C-19.76286888 346.03844349 -19.42859254 349.74385135 -19.09375 353.44921875 C-18.94214417 355.15559258 -18.94214417 355.15559258 -18.78747559 356.8964386 C-18.69067505 357.96162216 -18.59387451 359.02680573 -18.49414062 360.12426758 C-18.41055298 361.05483475 -18.32696533 361.98540192 -18.24084473 362.94416809 C-18.02950347 364.85001334 -17.74707089 366.74873969 -17.41079712 368.6365509 C-16.9213395 371.78359395 -16.810486 374.74174113 -16.80810547 377.92529297 C-16.80495331 379.14030487 -16.80180115 380.35531677 -16.79855347 381.60714722 C-16.80158981 383.55731247 -16.80158981 383.55731247 -16.8046875 385.546875 C-16.80401284 386.90919004 -16.80304146 388.27150495 -16.80178833 389.63381958 C-16.800318 392.48326773 -16.80244384 395.33268443 -16.80712891 398.18212891 C-16.81281491 401.81548517 -16.80955013 405.44876737 -16.80355644 409.0821209 C-16.79992356 411.89442491 -16.80110207 414.7067117 -16.80368423 417.51901627 C-16.80466635 419.50412291 -16.80165387 421.48923025 -16.79855347 423.47433472 C-16.81445988 429.63733372 -16.97651808 435.58837909 -17.9375 441.6796875 C-16.32681641 441.68355469 -16.32681641 441.68355469 -14.68359375 441.6875 C-1.7253406 441.95344281 -1.7253406 441.95344281 2.5 445.6171875 C6.19510454 450.03328804 6.40863726 452.51585982 6.34375 458.13671875 C5.93068756 461.87149168 4.55375668 463.91910578 2.0625 466.6796875 C-3.61837932 470.91218937 -9.84227158 470.16563756 -16.60205078 470.12573242 C-18.79946075 470.11723791 -20.99425372 470.14598077 -23.19140625 470.17773438 C-24.6041659 470.17934723 -26.01693009 470.17876724 -27.4296875 470.17578125 C-28.70183105 470.17763428 -29.97397461 470.1794873 -31.28466797 470.18139648 C-35.8290417 469.55723608 -38.15058175 468.23631255 -41.9375 465.6796875 C-45.86124908 460.44802206 -46.10503296 455.45053972 -46.25390625 449.0859375 C-46.27473267 448.32224854 -46.29555908 447.55855957 -46.3170166 446.77172852 C-46.38354398 444.2411539 -46.44229112 441.71047767 -46.5 439.1796875 C-46.52117889 438.31351807 -46.54235779 437.44734863 -46.56417847 436.55493164 C-47.07832799 415.26481028 -47.03676541 393.97440795 -46.9375 372.6796875 C-47.40800781 373.82566406 -47.87851563 374.97164063 -48.36328125 376.15234375 C-48.99216017 377.6823029 -49.62106795 379.21225019 -50.25 380.7421875 C-50.55873047 381.49435547 -50.86746094 382.24652344 -51.18554688 383.02148438 C-51.80159906 384.5194639 -52.42023264 386.01638453 -53.04150391 387.51220703 C-53.62596288 388.92605628 -54.20160128 390.34359366 -54.76708984 391.76513672 C-56.71829405 396.57008453 -56.71829405 396.57008453 -58.9375 397.6796875 C-59.08316406 398.55753906 -59.22882813 399.43539063 -59.37890625 400.33984375 C-60.00038377 404.05567088 -61.21490835 406.73841274 -62.875 410.1171875 C-66.21891771 417.04239144 -69.3224256 424.05902661 -72.375 431.1171875 C-72.82415771 432.15480225 -73.27331543 433.19241699 -73.73608398 434.26147461 C-74.80487411 436.73350479 -75.87209128 439.20619851 -76.9375 441.6796875 C-76.33421875 441.71779541 -75.7309375 441.75590332 -75.109375 441.79516602 C-67.15359772 442.45520681 -67.15359772 442.45520681 -63.9375 445.6171875 C-63.1021875 446.40416016 -63.1021875 446.40416016 -62.25 447.20703125 C-59.14286959 450.69330555 -59.60944907 454.44651722 -59.65625 458.91015625 C-60.04941057 462.78169576 -61.27656278 464.87491583 -63.9375 467.6796875 C-67.57853652 469.45641322 -70.85341026 470.05146424 -74.875 470.3671875 C-75.87402344 470.45355469 -76.87304688 470.53992188 -77.90234375 470.62890625 C-81.06532046 470.68182607 -83.82562063 470.22861529 -86.9375 469.6796875 C-89.72571144 469.42866215 -92.51745028 469.27134485 -95.3125 469.1171875 C-96.04855469 469.07400391 -96.78460938 469.03082031 -97.54296875 468.98632812 C-99.34098068 468.88124951 -101.13921958 468.78006657 -102.9375 468.6796875 C-102.9375 468.0196875 -102.9375 467.3596875 -102.9375 466.6796875 C-104.05125 466.3703125 -104.05125 466.3703125 -105.1875 466.0546875 C-108.932107 464.182384 -110.09502389 462.43287958 -111.9375 458.6796875 C-112.93039636 452.61198752 -111.63539113 448.17182302 -108.9375 442.6796875 C-108.31369159 441.14799374 -107.70273514 439.61103122 -107.1015625 438.0703125 C-105.06357877 432.93461223 -102.84792453 427.89680411 -100.5625 422.8671875 C-100.1711084 422.00134033 -99.7797168 421.13549316 -99.37646484 420.2434082 C-96.6925025 414.31499281 -93.9781298 408.40127125 -91.2265625 402.50390625 C-90.31266621 400.50164257 -89.42815709 398.48584712 -88.56445312 396.46142578 C-87.24616075 393.37700648 -85.87905296 390.31696393 -84.48873901 387.26420593 C-83.24272783 384.52421605 -82.01403087 381.77654459 -80.78466797 379.02905273 C-80.13795885 377.59092887 -79.48627986 376.15502933 -78.82958984 374.72143555 C-73.53976999 363.17670161 -73.53976999 363.17670161 -71.9375 350.6796875 C-71.92444824 349.72199463 -71.91139648 348.76430176 -71.89794922 347.77758789 C-71.87511744 344.72274409 -71.89846309 341.67182561 -71.9375 338.6171875 C-71.96286547 336.56385307 -71.98394714 334.5104596 -72 332.45703125 C-72.01160156 331.56234131 -72.02320313 330.66765137 -72.03515625 329.74584961 C-71.9375 327.6796875 -71.9375 327.6796875 -70.9375 326.6796875 C-70.77875122 325.06294156 -70.68613685 323.43962466 -70.62109375 321.81640625 C-70.55825195 320.28149536 -70.55825195 320.28149536 -70.49414062 318.71557617 C-70.45482422 317.61060791 -70.41550781 316.50563965 -70.375 315.3671875 C-70.31022461 313.68556519 -70.31022461 313.68556519 -70.24414062 311.9699707 C-69.95729643 303.93548746 -69.85541862 295.91447566 -69.97436523 287.87573242 C-70.03874314 282.07620276 -70.03874314 282.07620276 -69.43188477 279.69946289 C-68.89682506 277.5135128 -68.88929299 275.72277333 -68.96484375 273.4765625 C-69.03312056 266.68860649 -68.33969699 259.97332367 -67.71206665 253.22302246 C-66.03870051 235.12687643 -64.66281139 217.0582043 -65 198.87109375 C-64.9375 195.6796875 -64.9375 195.6796875 -64.46704102 192.59423828 C-63.84701865 188.01081802 -63.60357325 183.47313835 -63.40234375 178.85546875 C-63.35936661 177.91398483 -63.31638947 176.97250092 -63.27210999 176.00248718 C-63.18220445 174.00979184 -63.0940598 172.01701637 -63.00756836 170.02416992 C-62.87737115 167.04641828 -62.73888995 164.06913568 -62.59960938 161.09179688 C-62.13123671 150.70566808 -61.82827944 140.35411099 -61.9775238 129.95637512 C-62.05922701 122.23873156 -60.47417275 113.01257454 -55.4453125 106.8515625 C-52.85394916 104.60829274 -51.41063748 103.6796875 -47.9375 103.6796875 C-48.2159375 102.7515625 -48.2159375 102.7515625 -48.5 101.8046875 C-48.9375 99.6796875 -48.9375 99.6796875 -47.9375 97.6796875 C-49.04544922 97.26009766 -49.04544922 97.26009766 -50.17578125 96.83203125 C-60.53858993 92.73694421 -69.5943233 88.15099687 -76.59765625 79.28125 C-77.86535444 77.5494842 -77.86535444 77.5494842 -79.9375 76.6796875 C-80.2675 75.6896875 -80.5975 74.6996875 -80.9375 73.6796875 C-81.5975 73.0196875 -82.2575 72.3596875 -82.9375 71.6796875 C-83.87137072 69.57989335 -84.73817734 67.44985466 -85.5625 65.3046875 C-86.23152344 63.59152344 -86.23152344 63.59152344 -86.9140625 61.84375 C-87.9375 58.6796875 -87.9375 58.6796875 -87.9375 54.6796875 C-88.5975 54.3496875 -89.2575 54.0196875 -89.9375 53.6796875 C-90.02570927 50.51320095 -90.0782905 47.34703658 -90.125 44.1796875 C-90.15013672 43.2928125 -90.17527344 42.4059375 -90.20117188 41.4921875 C-90.26684339 35.53797038 -89.43101504 31.06905352 -86.9375 25.6796875 C-86.66172119 25.03354492 -86.38594238 24.38740234 -86.10180664 23.72167969 C-80.29846187 10.34997857 -72.46831756 0.03658117 -58.9375 -6.3203125 C-38.16756278 -14.40473112 -18.59409145 -12.67097361 0 0 Z M74.0625 257.6796875 C74.76679704 263.31406384 75.55256441 267.4056982 77.0625 272.6796875 C78.20202503 278.21532137 79.19336036 283.78001253 80.20703125 289.33984375 C80.52220703 291.02787109 80.52220703 291.02787109 80.84375 292.75 C81.03001953 293.76852051 81.21628906 294.78704102 81.40820312 295.83642578 C82.08318667 299.10287091 82.08318667 299.10287091 84.0625 303.6796875 C96.2725 303.6796875 108.4825 303.6796875 121.0625 303.6796875 C121.0625 288.4996875 121.0625 273.3196875 121.0625 257.6796875 C105.5525 257.6796875 90.0425 257.6796875 74.0625 257.6796875 Z M148.0625 257.6796875 C148.0625 272.8596875 148.0625 288.0396875 148.0625 303.6796875 C161.5925 303.6796875 175.1225 303.6796875 189.0625 303.6796875 C189.0625 288.4996875 189.0625 273.3196875 189.0625 257.6796875 C175.5325 257.6796875 162.0025 257.6796875 148.0625 257.6796875 Z M219.0625 257.6796875 C219.0625 272.8596875 219.0625 288.0396875 219.0625 303.6796875 C232.2625 303.6796875 245.4625 303.6796875 259.0625 303.6796875 C259.35125 300.4828125 259.64 297.2859375 259.9375 293.9921875 C260.60887607 286.72830258 261.42438337 279.55673155 262.6953125 272.37109375 C263.09449152 269.44519643 263.08287089 266.62939255 263.0625 263.6796875 C263.39583333 262.01302083 263.72916667 260.34635417 264.0625 258.6796875 C263.08616535 257.48397364 263.08616535 257.48397364 261.27183533 257.55943298 C260.49240067 257.56165359 259.712966 257.56387421 258.90991211 257.56616211 C257.57011292 257.56634338 257.57011292 257.56634338 256.20324707 257.56652832 C255.25832397 257.57164429 254.31340088 257.57676025 253.33984375 257.58203125 C252.04391296 257.58354187 252.04391296 257.58354187 250.72180176 257.58508301 C247.48118775 257.590332 244.2405926 257.60429314 241 257.6171875 C230.1409375 257.648125 230.1409375 257.648125 219.0625 257.6796875 Z M90.0625 326.6796875 C90.857892 336.6737962 90.857892 336.6737962 93.0625 345.6796875 C93.29239971 347.71594207 93.51867186 349.75281668 93.7109375 351.79296875 C94.52323094 358.46280045 95.86588263 365.07227855 97.0625 371.6796875 C104.9825 371.6796875 112.9025 371.6796875 121.0625 371.6796875 C121.0625 356.8296875 121.0625 341.9796875 121.0625 326.6796875 C110.8325 326.6796875 100.6025 326.6796875 90.0625 326.6796875 Z M148.0625 326.6796875 C148.0625 341.5296875 148.0625 356.3796875 148.0625 371.6796875 C161.5925 371.6796875 175.1225 371.6796875 189.0625 371.6796875 C189.0625 356.8296875 189.0625 341.9796875 189.0625 326.6796875 C175.5325 326.6796875 162.0025 326.6796875 148.0625 326.6796875 Z M219.0625 326.6796875 C219.0625 341.5296875 219.0625 356.3796875 219.0625 371.6796875 C224.321875 371.7003125 229.58125 371.7209375 235 371.7421875 C236.661521 371.7512915 238.32304199 371.76039551 240.03491211 371.76977539 C241.33178955 371.77227295 242.62866699 371.77477051 243.96484375 371.77734375 C244.65066528 371.78245972 245.33648682 371.78757568 246.04309082 371.79284668 C247.71665231 371.79315804 249.3900958 371.74191587 251.0625 371.6796875 C252.92356551 369.81862199 252.41421545 366.72280655 252.5625 364.22265625 C252.6234082 363.23535271 252.6234082 363.23535271 252.68554688 362.22810364 C252.81557683 360.10803718 252.93930896 357.9876614 253.0625 355.8671875 C253.18642479 353.79265753 253.31170012 351.71821675 253.43798828 349.64382935 C253.5207693 348.28344106 253.60248098 346.92298728 253.68310547 345.56246948 C254.00155701 340.30745954 254.4539224 335.07157127 254.9765625 329.83325195 C255.01910156 328.76723755 255.01910156 328.76723755 255.0625 327.6796875 C253.90581499 326.29547685 253.90581499 326.29547685 250.73608398 326.56616211 C249.26024445 326.56641315 247.78439903 326.57197236 246.30859375 326.58203125 C245.62156372 326.58303833 244.93453369 326.58404541 244.22668457 326.58508301 C241.65110616 326.59032974 239.07555147 326.60429091 236.5 326.6171875 C230.745625 326.6378125 224.99125 326.6584375 219.0625 326.6796875 Z M113.0625 395.6796875 C113.0625 397.6596875 113.0625 399.6396875 113.0625 401.6796875 C156.6225 401.6796875 200.1825 401.6796875 245.0625 401.6796875 C245.0625 399.6996875 245.0625 397.7196875 245.0625 395.6796875 C201.5025 395.6796875 157.9425 395.6796875 113.0625 395.6796875 Z " fill="#000000" transform="translate(154.9375,17.3203125)"/>
<path d="M0 0 C4.29 0 8.58 0 13 0 C15.69950825 10.02674495 17.27057415 19.62344489 19 30 C129.385 30.495 129.385 30.495 242 31 C240.87600627 47.85990599 240.87600627 47.85990599 239.94921875 54.03125 C239.85059036 54.70199051 239.75196198 55.37273102 239.65034485 56.063797 C239.44161789 57.48068784 239.23044098 58.89721988 239.0168457 60.31338501 C238.4392256 64.14836073 237.8827638 67.98642646 237.32421875 71.82421875 C237.21077118 72.60097458 237.09732361 73.37773041 236.98043823 74.17802429 C235.54231094 84.07025686 234.2956801 93.98613855 233.03515625 103.90234375 C232.28897908 109.77183318 231.52371403 115.63850374 230.74609375 121.50390625 C230.63852753 122.31563797 230.5309613 123.12736969 230.4201355 123.96369934 C229.98490025 127.24715515 229.54953666 130.5305939 229.1138916 133.81399536 C227.61127997 145.15481475 226.17554205 156.49956445 224.90014648 167.86865234 C224.74074585 169.25624756 224.74074585 169.25624756 224.578125 170.671875 C224.48950195 171.4669043 224.40087891 172.26193359 224.30957031 173.08105469 C224 175 224 175 223 177 C164.59 177 106.18 177 46 177 C44.61158339 172.14054187 43.27953594 167.28906245 42.046875 162.390625 C41.86634583 161.67534134 41.68581665 160.96005768 41.49981689 160.22309875 C40.91457554 157.89922192 40.33188658 155.57471902 39.75 153.25 C39.44787598 152.04451004 39.44787598 152.04451004 39.13964844 150.81466675 C36.35881126 139.69806633 33.73701599 128.56156241 31.30517578 117.36279297 C29.22052919 107.83116041 26.94222714 98.35215631 24.625 88.875 C24.4334433 88.09111908 24.2418866 87.30723816 24.04452515 86.49960327 C22.88722211 81.76636458 21.7266802 77.03392446 20.56500244 72.30175781 C18.97577072 65.82740255 17.3910018 59.35197966 15.8125 52.875 C15.6482251 52.20264313 15.4839502 51.53028625 15.31469727 50.83755493 C13.54339414 43.57879074 11.82546438 36.31315662 10.23828125 29.01171875 C9.96459717 27.75439941 9.69091309 26.49708008 9.40893555 25.20166016 C8.89899858 22.83444731 8.39616935 20.46568837 7.90161133 18.09521484 C7.67884521 17.05445801 7.4560791 16.01370117 7.2265625 14.94140625 C7.03658691 14.03076416 6.84661133 13.12012207 6.65087891 12.18188477 C6.1335783 9.81660184 6.1335783 9.81660184 4 8 C1.42938689 7.35232207 1.42938689 7.35232207 -1 7 C-0.67 4.69 -0.34 2.38 0 0 Z M33 48 C33.70429704 53.63437634 34.49006441 57.7260107 36 63 C37.13952503 68.53563387 38.13086036 74.10032503 39.14453125 79.66015625 C39.45970703 81.34818359 39.45970703 81.34818359 39.78125 83.0703125 C39.96751953 84.08883301 40.15378906 85.10735352 40.34570312 86.15673828 C41.02068667 89.42318341 41.02068667 89.42318341 43 94 C55.21 94 67.42 94 80 94 C80 78.82 80 63.64 80 48 C64.49 48 48.98 48 33 48 Z M107 48 C107 63.18 107 78.36 107 94 C120.53 94 134.06 94 148 94 C148 78.82 148 63.64 148 48 C134.47 48 120.94 48 107 48 Z M178 48 C178 63.18 178 78.36 178 94 C191.2 94 204.4 94 218 94 C218.28875 90.803125 218.5775 87.60625 218.875 84.3125 C219.54637607 77.04861508 220.36188337 69.87704405 221.6328125 62.69140625 C222.03199152 59.76550893 222.02037089 56.94970505 222 54 C222.33333333 52.33333333 222.66666667 50.66666667 223 49 C222.02366535 47.80428614 222.02366535 47.80428614 220.20933533 47.87974548 C219.42990067 47.88196609 218.650466 47.88418671 217.84741211 47.88647461 C216.50761292 47.88665588 216.50761292 47.88665588 215.14074707 47.88684082 C214.19582397 47.89195679 213.25090088 47.89707275 212.27734375 47.90234375 C210.98141296 47.90385437 210.98141296 47.90385437 209.65930176 47.90539551 C206.41868775 47.9106445 203.1780926 47.92460564 199.9375 47.9375 C189.0784375 47.9684375 189.0784375 47.9684375 178 48 Z M49 117 C49.795392 126.9941087 49.795392 126.9941087 52 136 C52.22989971 138.03625457 52.45617186 140.07312918 52.6484375 142.11328125 C53.46073094 148.78311295 54.80338263 155.39259105 56 162 C63.92 162 71.84 162 80 162 C80 147.15 80 132.3 80 117 C69.77 117 59.54 117 49 117 Z M107 117 C107 131.85 107 146.7 107 162 C120.53 162 134.06 162 148 162 C148 147.15 148 132.3 148 117 C134.47 117 120.94 117 107 117 Z M178 117 C178 131.85 178 146.7 178 162 C183.259375 162.020625 188.51875 162.04125 193.9375 162.0625 C195.599021 162.071604 197.26054199 162.08070801 198.97241211 162.09008789 C200.26928955 162.09258545 201.56616699 162.09508301 202.90234375 162.09765625 C203.58816528 162.10277222 204.27398682 162.10788818 204.98059082 162.11315918 C206.65415231 162.11347054 208.3275958 162.06222837 210 162 C211.86106551 160.13893449 211.35171545 157.04311905 211.5 154.54296875 C211.5609082 153.55566521 211.5609082 153.55566521 211.62304688 152.54841614 C211.75307683 150.42834968 211.87680896 148.3079739 212 146.1875 C212.12392479 144.11297003 212.24920012 142.03852925 212.37548828 139.96414185 C212.4582693 138.60375356 212.53998098 137.24329978 212.62060547 135.88278198 C212.93905701 130.62777204 213.3914224 125.39188377 213.9140625 120.15356445 C213.95660156 119.08755005 213.95660156 119.08755005 214 118 C212.84331499 116.61578935 212.84331499 116.61578935 209.67358398 116.88647461 C208.19774445 116.88672565 206.72189903 116.89228486 205.24609375 116.90234375 C204.55906372 116.90335083 203.87203369 116.90435791 203.16418457 116.90539551 C200.58860616 116.91064224 198.01305147 116.92460341 195.4375 116.9375 C189.683125 116.958125 183.92875 116.97875 178 117 Z " fill="#AEACAC" transform="translate(196,227)"/>
<path d="M0 0 C8.18474082 6.57297647 14.66362165 16.59285698 16.5390625 27.0390625 C16.69791115 30.39606397 16.83465832 33.74706546 16.88085938 37.10742188 C17.08267501 42.11526571 18.31342994 44.32127157 21.5390625 48.0390625 C20.35505108 51.59109676 19.42214111 52.0264981 16.4140625 54.1015625 C12.82465364 56.78226026 10.38762897 59.36872583 7.9140625 63.1015625 C2.61830324 71.08761594 -3.22699182 75.33145359 -12.4609375 78.0390625 C-16.45928579 78.57190478 -20.36973422 78.60068702 -24.3984375 78.5390625 C-25.90954102 78.56226562 -25.90954102 78.56226562 -27.45117188 78.5859375 C-39.30391291 78.52495877 -49.72655841 74.33896552 -58.3984375 66.2265625 C-68.23988285 55.70639678 -71.15398633 43.81161855 -70.83984375 29.82421875 C-70.20906258 18.32320156 -63.9059331 9.03540143 -55.7109375 1.3515625 C-38.97350805 -12.63888425 -17.70287595 -11.98897939 0 0 Z " fill="#FCFCFC" transform="translate(147.4609375,25.9609375)"/>
<path d="M0 0 C1.05449341 -0.00630432 2.10898682 -0.01260864 3.19543457 -0.019104 C4.909505 -0.01303131 4.909505 -0.01303131 6.65820312 -0.00683594 C8.41142883 -0.00970612 8.41142883 -0.00970612 10.20007324 -0.01263428 C12.67488825 -0.0139972 15.14971039 -0.01029335 17.62451172 -0.00195312 C21.42366517 0.00874461 25.22234572 -0.00184512 29.02148438 -0.01464844 C31.42122501 -0.01332686 33.82096534 -0.01076451 36.22070312 -0.00683594 C37.36341675 -0.0108844 38.50613037 -0.01493286 39.68347168 -0.019104 C41.26521179 -0.00964752 41.26521179 -0.00964752 42.87890625 0 C43.80997192 0.00159119 44.7410376 0.00318237 45.70031738 0.00482178 C47.93945312 0.25878906 47.93945312 0.25878906 49.93945312 2.25878906 C50.19342041 4.64978027 50.19342041 4.64978027 50.19824219 7.68652344 C50.20454651 8.82109985 50.21085083 9.95567627 50.21734619 11.12463379 C50.21329773 12.35484253 50.20924927 13.58505127 50.20507812 14.85253906 C50.2079483 16.73894104 50.2079483 16.73894104 50.21087646 18.66345215 C50.21223962 21.32671781 50.20953319 23.98961836 50.20019531 26.65283203 C50.18880064 30.069503 50.1953606 33.48585979 50.20734024 36.90251923 C50.21629766 40.15670386 50.2100294 43.41085034 50.20507812 46.66503906 C50.20912659 47.8952478 50.21317505 49.12545654 50.21734619 50.39294434 C50.21104187 51.52752075 50.20473755 52.66209717 50.19824219 53.83105469 C50.196651 54.83317993 50.19505981 55.83530518 50.19342041 56.86779785 C49.93945312 59.25878906 49.93945312 59.25878906 47.93945312 61.25878906 C45.70031738 61.51275635 45.70031738 61.51275635 42.87890625 61.51757812 C41.29716614 61.52703461 41.29716614 61.52703461 39.68347168 61.53668213 C38.54075806 61.53263367 37.39804443 61.52858521 36.22070312 61.52441406 C34.46747742 61.52728424 34.46747742 61.52728424 32.67883301 61.5302124 C30.204018 61.53157532 27.72919586 61.52787147 25.25439453 61.51953125 C21.45524108 61.50883352 17.65656053 61.51942324 13.85742188 61.53222656 C11.45768124 61.53090499 9.05794091 61.52834264 6.65820312 61.52441406 C4.94413269 61.53048676 4.94413269 61.53048676 3.19543457 61.53668213 C2.14094116 61.53037781 1.08644775 61.52407349 0 61.51757812 C-0.93106567 61.51598694 -1.86213135 61.51439575 -2.82141113 61.51275635 C-5.06054688 61.25878906 -5.06054688 61.25878906 -7.06054688 59.25878906 C-7.31451416 56.86779785 -7.31451416 56.86779785 -7.31933594 53.83105469 C-7.32564026 52.69647827 -7.33194458 51.56190186 -7.33843994 50.39294434 C-7.33439148 49.1627356 -7.33034302 47.93252686 -7.32617188 46.66503906 C-7.32808533 45.40743774 -7.32999878 44.14983643 -7.33197021 42.85412598 C-7.33333337 40.19086031 -7.33062694 37.52795976 -7.32128906 34.86474609 C-7.30989439 31.44807512 -7.31645435 28.03171834 -7.32843399 24.6150589 C-7.33739141 21.36087427 -7.33112315 18.10672779 -7.32617188 14.85253906 C-7.33022034 13.62233032 -7.3342688 12.39212158 -7.33843994 11.12463379 C-7.33213562 9.99005737 -7.3258313 8.85548096 -7.31933594 7.68652344 C-7.31774475 6.68439819 -7.31615356 5.68227295 -7.31451416 4.64978027 C-6.80813801 -0.11753033 -4.11673386 0.00703548 0 0 Z M0.93945312 8.25878906 C0.93945312 23.10878906 0.93945312 37.95878906 0.93945312 53.25878906 C14.46945312 53.25878906 27.99945313 53.25878906 41.93945312 53.25878906 C41.93945312 38.40878906 41.93945312 23.55878906 41.93945312 8.25878906 C28.40945313 8.25878906 14.87945312 8.25878906 0.93945312 8.25878906 Z " fill="#020202" transform="translate(302.060546875,335.7412109375)"/>
<path d="M0 0 C1.11448013 -0.00622879 2.22896027 -0.01245758 3.37721252 -0.01887512 C5.18197304 -0.0050605 5.18197304 -0.0050605 7.02319336 0.0090332 C8.25718369 0.0085347 9.49117401 0.00803619 10.76255798 0.00752258 C14.04168738 0.0104649 17.32038429 0.02750238 20.59942627 0.04974365 C22.61258533 0.05981219 24.62549329 0.06012501 26.63867188 0.05664062 C30.49612822 0.05024587 34.35325973 0.05812758 38.21069336 0.0715332 C39.41589127 0.0706218 40.62108917 0.06971039 41.86280823 0.06877136 C42.9741362 0.07830338 44.08546417 0.08783539 45.23046875 0.09765625 C46.2118129 0.10226364 47.19315704 0.10687103 48.20423889 0.11161804 C50.55053711 0.37231445 50.55053711 0.37231445 52.55053711 2.37231445 C52.59918209 5.03844109 52.51967363 7.56441079 52.32788086 10.21606445 C52.27631332 11.01306763 52.22474579 11.8100708 52.1716156 12.63122559 C51.56981188 21.21684052 50.56141512 29.75048017 49.44873047 38.28295898 C49.10624181 40.92472965 48.78017755 43.56822697 48.45483398 46.2121582 C48.23900568 47.90108434 48.02224597 49.58989178 47.80444336 51.27856445 C47.70853409 52.06485229 47.61262482 52.85114014 47.5138092 53.66125488 C46.78002168 59.14282988 46.78002168 59.14282988 44.55053711 61.37231445 C42.3873291 61.62628174 42.3873291 61.62628174 39.67358398 61.63110352 C38.15190613 61.64056 38.15190613 61.64056 36.5994873 61.65020752 C35.50052124 61.64615906 34.40155518 61.6421106 33.26928711 61.63793945 C32.14486206 61.63985291 31.02043701 61.64176636 29.86193848 61.64373779 C27.48128028 61.64510062 25.10061468 61.6413974 22.7199707 61.63305664 C19.06566758 61.62235875 15.4118561 61.6329489 11.75756836 61.64575195 C9.44897352 61.64443038 7.14037899 61.64186802 4.83178711 61.63793945 C3.18333801 61.64401215 3.18333801 61.64401215 1.50158691 61.65020752 C0.48713501 61.6439032 -0.52731689 61.63759888 -1.57250977 61.63110352 C-2.9158136 61.62871674 -2.9158136 61.62871674 -4.28625488 61.62628174 C-6.44946289 61.37231445 -6.44946289 61.37231445 -8.44946289 59.37231445 C-8.7101593 57.02601624 -8.7101593 57.02601624 -8.72412109 54.05224609 C-8.73365311 52.94091812 -8.74318512 51.82959015 -8.75300598 50.68458557 C-8.75209457 49.47938766 -8.75118317 48.27418976 -8.75024414 47.0324707 C-8.75452927 45.7994371 -8.75881439 44.5664035 -8.76322937 43.29600525 C-8.77045714 40.01406734 -8.76733804 36.73231187 -8.76165771 33.45037842 C-8.76196236 31.43832139 -8.77199737 29.42655881 -8.78564453 27.41455078 C-8.81007334 23.55788251 -8.81430218 19.70170651 -8.81274414 15.8449707 C-8.82195389 14.64179703 -8.83116364 13.43862335 -8.84065247 12.19898987 C-8.83442368 11.08450974 -8.82819489 9.9700296 -8.82177734 8.82177734 C-8.82240677 7.8396376 -8.82303619 6.85749786 -8.82368469 5.84559631 C-8.44946289 3.37231445 -8.44946289 3.37231445 -7.26678467 1.55499268 C-4.75932647 -0.07681312 -2.98291006 -0.00191166 0 0 Z M-0.44946289 8.37231445 C-0.44946289 23.55231445 -0.44946289 38.73231445 -0.44946289 54.37231445 C12.75053711 54.37231445 25.95053711 54.37231445 39.55053711 54.37231445 C39.83928711 51.17543945 40.12803711 47.97856445 40.42553711 44.68481445 C41.09691318 37.42092954 41.91242047 30.2493585 43.18334961 23.0637207 C43.58252863 20.13782339 43.570908 17.3220195 43.55053711 14.37231445 C43.88387044 12.70564779 44.21720378 11.03898112 44.55053711 9.37231445 C43.57420246 8.17660059 43.57420246 8.17660059 41.75987244 8.25205994 C40.98043777 8.25428055 40.20100311 8.25650116 39.39794922 8.25878906 C38.05815002 8.25897034 38.05815002 8.25897034 36.69128418 8.25915527 C35.74636108 8.26427124 34.80143799 8.26938721 33.82788086 8.2746582 C32.53195007 8.27616882 32.53195007 8.27616882 31.20983887 8.27770996 C27.96922486 8.28295895 24.72862971 8.29692009 21.48803711 8.30981445 C10.62897461 8.34075195 10.62897461 8.34075195 -0.44946289 8.37231445 Z " fill="#060606" transform="translate(374.449462890625,266.627685546875)"/>
<path d="M0 0 C1.55159569 -0.00945648 1.55159569 -0.00945648 3.13453674 -0.019104 C4.2502153 -0.01505554 5.36589386 -0.01100708 6.51538086 -0.00683594 C7.66058701 -0.00874939 8.80579315 -0.01066284 9.98570251 -0.01263428 C12.40746277 -0.01399588 14.82923032 -0.01030121 17.25097656 -0.00195312 C20.96883434 0.00875625 24.68620995 -0.00185459 28.40405273 -0.01464844 C30.75366318 -0.01332703 33.10327333 -0.01076503 35.45288086 -0.00683594 C36.57058365 -0.0108844 37.68828644 -0.01493286 38.83985901 -0.019104 C40.38672646 -0.00964752 40.38672646 -0.00964752 41.96484375 0 C42.87512833 0.00159119 43.7854129 0.00318237 44.72328186 0.00482178 C46.91772461 0.25878906 46.91772461 0.25878906 48.91772461 2.25878906 C49.16496277 4.69447327 49.16496277 4.69447327 49.16064453 7.79418945 C49.16525948 9.53092674 49.16525948 9.53092674 49.16996765 11.30274963 C49.16278214 12.55796921 49.15559662 13.81318878 49.14819336 15.10644531 C49.14773514 16.38861435 49.14727692 17.67078339 49.14680481 18.99180603 C49.14523999 21.7062623 49.13694974 24.42058667 49.12353516 27.13500977 C49.10652831 30.62120896 49.10272129 34.10726336 49.10348034 37.59349918 C49.10314371 40.91033411 49.09430998 44.22712112 49.08569336 47.54394531 C49.08458054 48.80118912 49.08346771 50.05843292 49.08232117 51.35377502 C49.07594131 52.50844772 49.06956146 53.66312042 49.06298828 54.8527832 C49.05727058 56.38594933 49.05727058 56.38594933 49.05143738 57.9500885 C48.91772461 60.25878906 48.91772461 60.25878906 47.91772461 61.25878906 C46.24064037 61.36275924 44.55919669 61.39731816 42.87890625 61.40405273 C41.80431656 61.41043259 40.72972687 61.41681244 39.62257385 61.42338562 C37.86795082 61.42505486 37.86795082 61.42505486 36.07788086 61.42675781 C34.88545273 61.43008621 33.6930246 61.43341461 32.46446228 61.43684387 C29.93659858 61.44191822 27.40872816 61.44425204 24.88085938 61.4440918 C21.00045807 61.44627766 17.12034115 61.46442663 13.23999023 61.48339844 C10.79012142 61.48633229 8.34025125 61.48831714 5.89038086 61.48925781 C4.13879417 61.50003609 4.13879417 61.50003609 2.3518219 61.5110321 C0.73520912 61.50641716 0.73520912 61.50641716 -0.9140625 61.50170898 C-2.34183266 61.50384651 -2.34183266 61.50384651 -3.79844666 61.50602722 C-6.08227539 61.25878906 -6.08227539 61.25878906 -8.08227539 59.25878906 C-8.3429718 56.86779785 -8.3429718 56.86779785 -8.35693359 53.83105469 C-8.36646561 52.69647827 -8.37599762 51.56190186 -8.38581848 50.39294434 C-8.38490707 49.1627356 -8.38399567 47.93252686 -8.38305664 46.66503906 C-8.38734177 45.40743774 -8.39162689 44.14983643 -8.39604187 42.85412598 C-8.40179396 40.19085788 -8.40321022 37.52797627 -8.39794922 34.86474609 C-8.39214997 31.44797342 -8.40909397 28.03174203 -8.43229389 24.6150589 C-8.45054571 21.3608893 -8.44684659 18.10675068 -8.44555664 14.85253906 C-8.45476639 13.62233032 -8.46397614 12.39212158 -8.47346497 11.12463379 C-8.46723618 9.99005737 -8.46100739 8.85548096 -8.45458984 7.68652344 C-8.45553398 6.18333557 -8.45553398 6.18333557 -8.45649719 4.64978027 C-8.333004 3.86075317 -8.2095108 3.07172607 -8.08227539 2.25878906 C-4.79369059 0.06639919 -3.81659979 0.00666563 0 0 Z M-0.08227539 8.25878906 C-0.08227539 23.43878906 -0.08227539 38.61878906 -0.08227539 54.25878906 C13.44772461 54.25878906 26.97772461 54.25878906 40.91772461 54.25878906 C40.91772461 39.07878906 40.91772461 23.89878906 40.91772461 8.25878906 C27.38772461 8.25878906 13.85772461 8.25878906 -0.08227539 8.25878906 Z " fill="#040404" transform="translate(303.082275390625,266.7412109375)"/>
<path d="M0 0 C1.76204018 -0.00956978 1.76204018 -0.00956978 3.55967712 -0.01933289 C5.4783535 -0.02100212 5.4783535 -0.02100212 7.43579102 -0.02270508 C8.73919937 -0.02603348 10.04260773 -0.02936188 11.38551331 -0.03279114 C14.14878161 -0.03878833 16.91201861 -0.04063044 19.67529297 -0.04003906 C23.220882 -0.03993742 26.76627084 -0.05358863 30.3118124 -0.07081127 C33.68647526 -0.08458646 37.06110036 -0.08401955 40.43579102 -0.08520508 C42.35143105 -0.09598335 42.35143105 -0.09598335 44.30577087 -0.10697937 C46.07253929 -0.10236443 46.07253929 -0.10236443 47.875 -0.09765625 C49.43600685 -0.09979378 49.43600685 -0.09979378 51.02854919 -0.10197449 C53.50219727 0.14526367 53.50219727 0.14526367 55.50219727 2.14526367 C55.74943542 4.58094788 55.74943542 4.58094788 55.74511719 7.68066406 C55.74973213 9.41740135 55.74973213 9.41740135 55.75444031 11.18922424 C55.74725479 12.44444382 55.74006927 13.69966339 55.73266602 14.99291992 C55.73220779 16.27508896 55.73174957 17.557258 55.73127747 18.87828064 C55.72971265 21.59273691 55.72142239 24.30706128 55.70800781 27.02148438 C55.69100097 30.50768357 55.68719395 33.99373797 55.687953 37.47997379 C55.68761637 40.79680872 55.67878263 44.11359573 55.67016602 47.43041992 C55.66905319 48.68766373 55.66794037 49.94490753 55.66679382 51.24024963 C55.66041397 52.39492233 55.65403412 53.54959503 55.64746094 54.73925781 C55.64174324 56.27242393 55.64174324 56.27242393 55.63591003 57.83656311 C55.50219727 60.14526367 55.50219727 60.14526367 54.50219727 61.14526367 C52.97852005 61.25405132 51.44987128 61.2943001 49.92236328 61.30639648 C48.94787735 61.31600403 47.97339142 61.32561157 46.96937561 61.33551025 C45.37880592 61.34188507 45.37880592 61.34188507 43.75610352 61.34838867 C42.67465561 61.35408875 41.5932077 61.35978882 40.47898865 61.36566162 C38.18652327 61.37512749 35.89404419 61.38165187 33.6015625 61.38549805 C30.08317514 61.39521265 26.56536944 61.42622533 23.04711914 61.45776367 C20.82511742 61.46429234 18.6031115 61.46954335 16.38110352 61.47338867 C15.32274796 61.48573547 14.2643924 61.49808228 13.17396545 61.51080322 C12.19632736 61.50780212 11.21868927 61.50480103 10.21142578 61.50170898 C8.91689232 61.50717743 8.91689232 61.50717743 7.59620667 61.51275635 C6.90518356 61.39148376 6.21416046 61.27021118 5.50219727 61.14526367 C3.11939504 57.57106034 2.49399874 54.16620296 1.66235352 50.03198242 C1.49473007 49.22598099 1.32710663 48.41997955 1.15440369 47.58955383 C0.61832566 45.00518839 0.09131036 42.41907264 -0.43530273 39.83276367 C-0.95881656 37.29409676 -1.48415476 34.75581224 -2.00967407 32.21755981 C-2.35233936 30.55693861 -2.69282701 28.89586651 -3.03109741 27.23434448 C-3.79910621 23.46864671 -4.58588807 19.71172409 -5.45532227 15.96801758 C-5.73875488 14.7335791 -6.0221875 13.49914062 -6.31420898 12.22729492 C-6.56759033 11.16357666 -6.82097168 10.0998584 -7.08203125 9.00390625 C-7.51311073 6.04001337 -7.33224385 4.00643326 -6.49780273 1.14526367 C-4.75727141 -0.59526765 -2.36777271 0.00867938 0 0 Z M1.50219727 8.14526367 C2.20649431 13.77964001 2.99226168 17.87127437 4.50219727 23.14526367 C5.6417223 28.68089754 6.63305763 34.2455887 7.64672852 39.80541992 C7.9619043 41.49344727 7.9619043 41.49344727 8.28344727 43.21557617 C8.4697168 44.23409668 8.65598633 45.25261719 8.84790039 46.30200195 C9.52288393 49.56844708 9.52288393 49.56844708 11.50219727 54.14526367 C23.71219727 54.14526367 35.92219727 54.14526367 48.50219727 54.14526367 C48.50219727 38.96526367 48.50219727 23.78526367 48.50219727 8.14526367 C32.99219727 8.14526367 17.48219727 8.14526367 1.50219727 8.14526367 Z " fill="#040404" transform="translate(227.497802734375,266.854736328125)"/>
<path d="M0 0 C1.43158447 -0.00945648 1.43158447 -0.00945648 2.89208984 -0.019104 C3.92543457 -0.01505554 4.9587793 -0.01100708 6.0234375 -0.00683594 C7.08127441 -0.00874939 8.13911133 -0.01066284 9.22900391 -0.01263428 C11.46842689 -0.01399696 13.70785776 -0.01029476 15.94726562 -0.00195312 C19.38429427 0.00874504 22.8208002 -0.00184581 26.2578125 -0.01464844 C28.42968866 -0.01332686 30.60156449 -0.0107645 32.7734375 -0.00683594 C33.80678223 -0.0108844 34.84012695 -0.01493286 35.90478516 -0.019104 C36.8591748 -0.01279968 37.81356445 -0.00649536 38.796875 0 C39.63911621 0.00159119 40.48135742 0.00318237 41.34912109 0.00482178 C43.3984375 0.25878906 43.3984375 0.25878906 45.3984375 2.25878906 C46.16644884 9.12283149 45.18297497 16.33556494 44.59375 23.19238281 C44.50970917 24.19213638 44.42566833 25.19188995 44.33908081 26.22193909 C44.16141191 28.31538811 43.98146265 30.40864477 43.79931641 32.50170898 C43.5221644 35.71103116 43.2588866 38.92130993 42.99609375 42.13183594 C42.8211562 44.17292405 42.64540416 46.21394255 42.46875 48.25488281 C42.35299118 49.69389198 42.35299118 49.69389198 42.2348938 51.16197205 C42.15496185 52.05042313 42.07502991 52.93887421 41.99267578 53.85424805 C41.92605743 54.63460922 41.85943909 55.4149704 41.790802 56.21897888 C41.3984375 58.25878906 41.3984375 58.25878906 39.3984375 61.25878906 C37.50097656 61.63301086 37.50097656 61.63301086 35.1640625 61.63110352 C34.28975586 61.63733231 33.41544922 61.6435611 32.51464844 61.64997864 C31.56879883 61.64076889 30.62294922 61.63155914 29.6484375 61.62207031 C28.67938477 61.62256882 27.71033203 61.62306732 26.71191406 61.62358093 C24.66078646 61.62123791 22.60965612 61.611496 20.55859375 61.5949707 C17.411198 61.57138469 14.26464909 61.5744072 11.1171875 61.58105469 C9.12759909 61.57547799 7.13801427 61.56836817 5.1484375 61.55957031 C4.20258789 61.56048172 3.25673828 61.56139313 2.28222656 61.56233215 C1.40791992 61.55280014 0.53361328 61.54326813 -0.3671875 61.53344727 C-1.13836914 61.52883987 -1.90955078 61.52423248 -2.70410156 61.51948547 C-4.6015625 61.25878906 -4.6015625 61.25878906 -6.6015625 59.25878906 C-6.85552979 56.86779785 -6.85552979 56.86779785 -6.86035156 53.83105469 C-6.86665588 52.69647827 -6.87296021 51.56190186 -6.87945557 50.39294434 C-6.8754071 49.1627356 -6.87135864 47.93252686 -6.8671875 46.66503906 C-6.86910095 45.40743774 -6.8710144 44.14983643 -6.87298584 42.85412598 C-6.87434899 40.19086031 -6.87164256 37.52795976 -6.86230469 34.86474609 C-6.85091002 31.44807512 -6.85746998 28.03171834 -6.86944962 24.6150589 C-6.87840704 21.36087427 -6.87213878 18.10672779 -6.8671875 14.85253906 C-6.87123596 13.62233032 -6.87528442 12.39212158 -6.87945557 11.12463379 C-6.87315125 9.99005737 -6.86684692 8.85548096 -6.86035156 7.68652344 C-6.85876038 6.68439819 -6.85716919 5.68227295 -6.85552979 4.64978027 C-6.3727732 0.10483763 -3.97971176 0.00751859 0 0 Z M1.3984375 8.25878906 C1.3984375 23.10878906 1.3984375 37.95878906 1.3984375 53.25878906 C6.6578125 53.27941406 11.9171875 53.30003906 17.3359375 53.32128906 C18.9974585 53.33039307 20.65897949 53.33949707 22.37084961 53.34887695 C23.66772705 53.35137451 24.96460449 53.35387207 26.30078125 53.35644531 C26.98660278 53.36156128 27.67242432 53.36667725 28.37902832 53.37194824 C30.05258981 53.3722596 31.7260333 53.32101743 33.3984375 53.25878906 C35.25950301 51.39772355 34.75015295 48.30190811 34.8984375 45.80175781 C34.9593457 44.81445427 34.9593457 44.81445427 35.02148438 43.8072052 C35.15151433 41.68713874 35.27524646 39.56676296 35.3984375 37.44628906 C35.52236229 35.3717591 35.64763762 33.29731831 35.77392578 31.22293091 C35.8567068 29.86254263 35.93841848 28.50208884 36.01904297 27.14157104 C36.33749451 21.88656111 36.7898599 16.65067283 37.3125 11.41235352 C37.35503906 10.34633911 37.35503906 10.34633911 37.3984375 9.25878906 C36.24175249 7.87457841 36.24175249 7.87457841 33.07202148 8.14526367 C31.59618195 8.14551471 30.12033653 8.15107392 28.64453125 8.16113281 C27.95750122 8.16213989 27.27047119 8.16314697 26.56262207 8.16418457 C23.98704366 8.1694313 21.41148897 8.18339247 18.8359375 8.19628906 C13.0815625 8.21691406 7.3271875 8.23753906 1.3984375 8.25878906 Z " fill="#050505" transform="translate(372.6015625,335.7412109375)"/>
<path d="M0 0 C0.75341675 0.00142502 1.5068335 0.00285004 2.28308105 0.00431824 C3.13736694 0.00124161 3.99165283 -0.00183502 4.87182617 -0.00500488 C5.795802 0.00218063 6.71977783 0.00936615 7.67175293 0.01676941 C8.61860962 0.01722763 9.56546631 0.01768585 10.54101562 0.01815796 C12.54505667 0.02118206 14.54909534 0.02907306 16.55310059 0.04142761 C19.62789194 0.05966337 22.70238195 0.06193747 25.77722168 0.06169128 C27.72123471 0.06660718 29.66524569 0.07243582 31.60925293 0.07926941 C32.99521667 0.08093864 32.99521667 0.08093864 34.40917969 0.0826416 C35.69060852 0.09221138 35.69060852 0.09221138 36.9979248 0.10197449 C38.12804993 0.10769218 38.12804993 0.10769218 39.28100586 0.11352539 C41.14050293 0.24723816 41.14050293 0.24723816 43.14050293 1.24723816 C43.14050293 20.71723816 43.14050293 40.18723816 43.14050293 60.24723816 C40.09685199 61.76906363 36.91837902 61.43083908 33.57800293 61.45036316 C32.83091064 61.45606323 32.08381836 61.46176331 31.31408691 61.46763611 C29.73377906 61.47708495 28.15345152 61.48361963 26.57312012 61.48747253 C24.14992233 61.49720035 21.72756486 61.52823227 19.30456543 61.55973816 C17.77071631 61.56626603 16.23686112 61.57151735 14.70300293 61.57536316 C13.97589111 61.58770996 13.2487793 61.60005676 12.49963379 61.61277771 C10.45690918 61.60368347 10.45690918 61.60368347 7.14050293 61.24723816 C5.14659364 58.25637422 4.69377083 56.75450657 4.08728027 53.30436707 C3.90724457 52.29967377 3.72720886 51.29498047 3.54171753 50.25984192 C3.35517609 49.1754483 3.16863464 48.09105469 2.97644043 46.97380066 C2.77950592 45.85790558 2.58257141 44.7420105 2.37966919 43.59230042 C1.96451224 41.23080519 1.55285049 38.86869324 1.14440918 36.50602722 C0.51894887 32.89214863 -0.11859245 29.28055881 -0.75793457 25.66911316 C-1.15969682 23.3749684 -1.56076163 21.08070137 -1.96105957 18.78630066 C-2.15164948 17.70595551 -2.34223938 16.62561035 -2.53860474 15.51252747 C-2.71233612 14.50152985 -2.8860675 13.49053223 -3.06506348 12.44889832 C-3.2189151 11.56304047 -3.37276672 10.67718262 -3.53128052 9.76448059 C-3.86635767 7.19462109 -4.05590274 4.83359509 -3.85949707 2.24723816 C-1.85949707 0.24723816 -1.85949707 0.24723816 0 0 Z M5.14050293 8.24723816 C5.93589493 18.24134686 5.93589493 18.24134686 8.14050293 27.24723816 C8.37040264 29.28349273 8.59667479 31.32036734 8.78894043 33.36051941 C9.60123387 40.0303511 10.94388556 46.63982921 12.14050293 53.24723816 C20.06050293 53.24723816 27.98050293 53.24723816 36.14050293 53.24723816 C36.14050293 38.39723816 36.14050293 23.54723816 36.14050293 8.24723816 C25.91050293 8.24723816 15.68050293 8.24723816 5.14050293 8.24723816 Z " fill="#010101" transform="translate(239.8594970703125,335.7527618408203)"/>
<path d="M0 0 C0.72041741 0.00514356 1.44083482 0.01028713 2.18308306 0.01558656 C2.94700507 0.01317214 3.71092708 0.01075772 4.49799824 0.00827014 C7.0714568 0.00261035 9.64466963 0.01131335 12.21811724 0.01990479 C14.057509 0.01883247 15.89690043 0.01689454 17.73629045 0.01415223 C22.74237817 0.0092927 27.74837715 0.01697336 32.75445414 0.02710527 C37.98391801 0.03586786 43.21337896 0.03412868 48.44284868 0.03374451 C57.22618905 0.03468198 66.00949493 0.04337699 74.79282427 0.05701417 C84.95956541 0.07274055 95.12626877 0.07801232 105.2930212 0.07727861 C115.05764495 0.076669 124.82225635 0.08176831 134.58687639 0.09007043 C138.74952589 0.09360842 142.91217102 0.09543441 147.07482195 0.09596413 C151.97325898 0.09696609 156.87166408 0.10305062 161.77009058 0.11313027 C163.57208927 0.11605987 165.37409164 0.11727972 167.17609262 0.11670274 C169.62759448 0.11621469 172.07900587 0.12184159 174.53049517 0.12911195 C175.61112128 0.12678904 175.61112128 0.12678904 176.71357822 0.12441921 C181.62843132 0.14864582 181.62843132 0.14864582 183.85678911 1.26282471 C183.52678911 2.91282471 183.19678911 4.56282471 182.85678911 6.26282471 C120.81678911 6.26282471 58.77678911 6.26282471 -5.14321089 6.26282471 C-5.80321089 4.94282471 -6.46321089 3.62282471 -7.14321089 2.26282471 C-4.69042972 -0.18995645 -3.34707672 0.0235308 0 0 Z " fill="#AEACAC" transform="translate(244.14321088790894,427.7371752858162)"/>
<path d="M0 0 C4.68713878 2.20682188 7.28176592 6.22712754 9 11 C9.53288768 15.26310147 9.33138313 17.37405409 7.3125 21.1875 C3.77580961 25.4888802 0.46432334 28.75839967 -5.1875 29.3125 C-11.119049 28.82630746 -14.42796632 26.69295935 -18.4375 22.375 C-20.55696682 17.79695166 -20.7990206 13.96361284 -20 9 C-15.71451397 0.27030624 -9.19290608 -1.43090755 0 0 Z " fill="#090808" transform="translate(271,455)"/>
<path d="M0 0 C4.04112962 2.02056481 6.62577433 4.18088842 9 8 C9.73777149 12.85337912 9.66197648 17.48691089 7.6875 22 C7.130625 22.66 6.57375 23.32 6 24 C5.54625 24.556875 5.0925 25.11375 4.625 25.6875 C1.13160219 28.50909054 -1.9524006 29.21059997 -6.375 29 C-11.49169996 28.30693529 -14.62248042 25.78965738 -18 22 C-20.10051203 17.79897594 -19.54201741 12.5624762 -19 8 C-15.02529207 -0.07218677 -8.1235857 -0.95298144 0 0 Z " fill="#050505" transform="translate(403,455)"/>
<path d="M0 0 C4.04112962 2.02056481 6.62577433 4.18088842 9 8 C9.73777149 12.85337912 9.66197648 17.48691089 7.6875 22 C7.130625 22.66 6.57375 23.32 6 24 C5.54625 24.556875 5.0925 25.11375 4.625 25.6875 C1.13160219 28.50909054 -1.9524006 29.21059997 -6.375 29 C-11.49169996 28.30693529 -14.62248042 25.78965738 -18 22 C-20.10051203 17.79897594 -19.54201741 12.5624762 -19 8 C-15.02529207 -0.07218677 -8.1235857 -0.95298144 0 0 Z M-13.125 5.875 C-15.76867052 10.28111753 -16.01243586 13.98720783 -15 19 C-12.48577015 22.73325038 -10.86635918 23.74796824 -6.5625 25 C-2.46905764 25 -0.40934749 24.22004022 3 22 C5.83953044 17.74070434 5.73987876 13.99617057 5 9 C3.33333333 5.66666667 3.33333333 5.66666667 0 4 C-5.02622846 3.01123375 -8.70513784 3.2230827 -13.125 5.875 Z " fill="#A4A2A2" transform="translate(403,455)"/>
<path d="M0 0 C4.68713878 2.20682188 7.28176592 6.22712754 9 11 C9.53288768 15.26310147 9.33138313 17.37405409 7.3125 21.1875 C3.77580961 25.4888802 0.46432334 28.75839967 -5.1875 29.3125 C-11.119049 28.82630746 -14.42796632 26.69295935 -18.4375 22.375 C-20.55696682 17.79695166 -20.7990206 13.96361284 -20 9 C-15.71451397 0.27030624 -9.19290608 -1.43090755 0 0 Z M-16 9 C-16.92072276 12.54714347 -16.94394516 15.45596638 -16 19 C-13.36154023 22.81110855 -10.45491556 24.70307846 -5.9375 25.625 C-1.53426084 24.6881406 1.69218411 22.78338531 4.375 19.125 C5.56898007 15.06546777 5.51725935 12.08378149 3.6875 8.25 C1.7688113 5.69174841 0.16223646 4.21030945 -3.05078125 3.62890625 C-9.11276227 3.45092062 -12.18454037 4.10838509 -16 9 Z " fill="#A6A4A4" transform="translate(271,455)"/>
<path d="M0 0 C1.9375 1.0625 1.9375 1.0625 3 3 C2.875 6.5625 2.875 6.5625 2 10 C-1.23253796 12.15502531 -2.25150923 12.46856135 -6 12 C-7.8125 10.875 -7.8125 10.875 -9 9 C-9.39365568 5.85075452 -9.52854531 3.88090884 -7.875 1.125 C-5.11909116 -0.52854531 -3.14924548 -0.39365568 0 0 Z " fill="#0B0A0A" transform="translate(150,53)"/>
<path d="M0 0 C2.67567717 0.20582132 4.54110424 0.73995907 6.875 2.0625 C8.77229882 5.33007019 7.65475809 8.36906876 7 12 C5.35 12.33 3.7 12.66 2 13 C-1.14031285 9.58661647 -1.74525692 6.58537549 -2 2 C-1.34 1.34 -0.68 0.68 0 0 Z " fill="#F4F4F4" transform="translate(179,220)"/>
<path d="M0 0 C6.57692308 0.57692308 6.57692308 0.57692308 8 2 C8.1875 4.9375 8.1875 4.9375 8 8 C6 10 6 10 3 10.25 C0 10 0 10 -2 8 C-2.25 5 -2.25 5 -2 2 C-1.34 1.34 -0.68 0.68 0 0 Z " fill="#A7A5A5" transform="translate(395,464)"/>
<path d="M0 0 C1 1 1 1 1.1875 3.9375 C1 7 1 7 -1 9 C-4 9.3125 -4 9.3125 -7 9 C-9 6 -9 6 -8.75 2.875 C-8.37875 1.451875 -8.37875 1.451875 -8 0 C-5.11795733 -1.44102133 -3.08226581 -0.65580124 0 0 Z " fill="#ABA9A9" transform="translate(269,465)"/>
<path d="M0 0 C6.4 0.49230769 6.4 0.49230769 9.4375 3.0625 C10.2109375 4.0215625 10.2109375 4.0215625 11 5 C8.3125 5.3125 8.3125 5.3125 5 5 C2.125 2.5 2.125 2.5 0 0 Z " fill="#E9E9E9" transform="translate(188,213)"/>
</svg>
