<?xml version="1.0" standalone="no"?>
<!DOCTYPE svg PUBLIC "-//W3C//DTD SVG 20010904//EN"
 "http://www.w3.org/TR/2001/REC-SVG-20010904/DTD/svg10.dtd">
<svg version="1.0" xmlns="http://www.w3.org/2000/svg"
 width="500.000000pt" height="500.000000pt" viewBox="0 0 500.000000 500.000000"
 preserveAspectRatio="xMidYMid meet">

<g transform="translate(0.000000,500.000000) scale(0.100000,-0.100000)"
fill="#000000" stroke="none">
<path d="M1060 4916 c-183 -51 -342 -215 -385 -397 -63 -270 85 -545 346 -640
55 -20 59 -24 59 -53 0 -27 -5 -34 -34 -44 -38 -14 -68 -55 -85 -116 -5 -21
-22 -307 -36 -635 -13 -328 -29 -626 -35 -662 -5 -36 -19 -306 -31 -599 l-22
-534 -200 -455 c-109 -251 -201 -469 -203 -486 -6 -37 21 -91 58 -118 22 -17
57 -23 184 -34 146 -12 159 -12 193 4 44 22 81 75 81 117 0 73 -66 136 -142
136 -21 0 -38 3 -38 8 -1 18 316 729 323 725 4 -2 7 -205 7 -451 0 -426 1
-449 20 -479 30 -50 60 -60 217 -68 161 -8 198 -1 237 46 50 59 44 129 -15
185 -27 26 -38 29 -109 32 l-79 4 -3 112 c-2 61 -5 233 -6 381 -2 234 -10 352
-57 885 -31 338 -60 627 -66 641 -7 19 -7 91 1 245 6 121 12 222 13 226 1 3
94 -34 205 -83 112 -49 209 -89 215 -89 12 0 47 -74 47 -100 1 -38 17 -45 122
-50 l103 -5 198 -835 c109 -459 203 -840 209 -847 7 -9 43 -13 119 -13 l109 0
0 -29 0 -29 -109 -4 c-92 -2 -114 -6 -138 -24 -60 -45 -61 -138 -2 -188 29
-25 36 -26 150 -26 97 0 119 -3 119 -14 0 -8 -8 -17 -18 -20 -10 -4 -38 -19
-63 -34 -129 -83 -135 -284 -11 -379 143 -109 347 -26 377 154 16 100 -60 226
-154 254 -23 7 -41 18 -41 26 0 11 110 13 630 13 508 0 630 -2 630 -13 0 -7
-19 -18 -42 -24 -171 -47 -218 -288 -80 -403 138 -114 342 -43 381 132 23 100
-29 209 -122 256 -79 41 -64 52 73 52 135 0 169 10 195 60 32 62 9 136 -51
165 -21 10 -62 15 -118 15 l-86 0 0 30 0 30 74 0 c55 0 77 4 87 16 8 9 52 309
115 792 57 427 103 782 104 789 0 6 -7 19 -16 27 -14 14 -130 16 -1128 16
l-1113 0 -28 145 c-29 153 -35 165 -87 165 -18 0 -27 8 -37 36 -16 44 -85 90
-150 100 -26 4 -71 2 -103 -5 l-57 -12 -228 107 c-126 59 -229 108 -231 109
-1 1 7 119 18 261 23 286 21 299 -34 332 -29 17 -31 23 -28 58 l4 40 74 12
c134 21 228 81 305 194 24 34 57 68 83 83 67 39 79 57 74 109 -3 24 -14 57
-25 73 -13 18 -23 53 -27 98 -4 39 -14 95 -22 125 -50 178 -202 329 -379 375
-71 18 -221 18 -285 1z m295 -117 c164 -61 271 -211 283 -399 4 -71 9 -91 31
-119 l26 -34 -25 -16 c-35 -22 -100 -90 -131 -138 -60 -91 -160 -135 -309
-136 -115 -1 -182 17 -268 72 -129 84 -198 226 -190 391 4 77 9 98 41 163 99
200 334 294 542 216z m614 -1957 l26 -17 -28 -3 c-19 -2 -38 5 -60 24 l-32 27
34 -7 c19 -3 46 -14 60 -24z m-125 -63 c28 -22 34 -56 16 -90 -16 -29 -48 -23
-70 14 -23 36 -26 67 -8 85 17 17 32 15 62 -9z m271 -197 c15 -75 32 -143 37
-149 8 -10 245 -13 1120 -13 l1110 0 -6 -32 c-7 -41 -186 -1403 -186 -1417 0
-8 -265 -11 -885 -11 -487 0 -885 2 -885 4 0 3 -78 334 -174 738 -96 403 -184
776 -196 828 -27 117 -33 127 -68 135 -24 5 -28 10 -24 33 3 27 5 27 66 24
l63 -4 28 -136z m1885 -1742 l0 -30 -665 0 -665 0 0 30 0 30 665 0 665 0 0
-30z m270 -135 c7 -8 10 -22 6 -30 -5 -13 -113 -15 -948 -13 -914 3 -943 4
-946 22 -2 10 2 22 10 27 7 5 430 9 939 9 808 0 928 -2 939 -15z m-1555 -269
c97 -41 100 -202 6 -251 -96 -49 -211 16 -211 120 0 109 102 174 205 131z
m1331 -2 c96 -46 99 -200 5 -249 -98 -50 -211 16 -211 124 0 107 107 172 206
125z"/>
<path d="M1427 4452 c-36 -39 -7 -102 45 -102 25 0 58 36 58 63 0 50 -70 76
-103 39z"/>
<path d="M2210 2314 c-11 -13 -4 -62 45 -292 32 -156 64 -285 73 -294 14 -16
38 -18 244 -18 215 0 229 1 248 20 19 19 20 33 20 293 0 253 -1 275 -18 290
-16 15 -53 17 -309 17 -251 0 -292 -2 -303 -16z m550 -294 l0 -230 -190 0
c-104 0 -190 2 -190 4 0 4 -72 341 -89 419 l-9 37 239 0 239 0 0 -230z"/>
<path d="M2968 2319 c-17 -9 -18 -34 -18 -294 0 -244 2 -286 16 -299 13 -14
51 -16 265 -16 154 0 258 4 270 10 18 10 19 24 19 298 0 211 -3 291 -12 300
-15 15 -514 17 -540 1z m482 -299 l0 -230 -210 0 -210 0 0 230 0 230 210 0
210 0 0 -230z"/>
<path d="M3676 2314 c-14 -13 -16 -54 -16 -293 0 -257 1 -279 18 -294 16 -15
49 -17 258 -17 177 0 245 3 257 13 13 9 23 66 47 266 34 283 35 312 18 329 -9
9 -87 12 -289 12 -239 0 -280 -2 -293 -16z m514 -86 c0 -13 -11 -115 -25 -228
-14 -113 -25 -206 -25 -207 0 -2 -90 -3 -200 -3 l-200 0 0 230 0 230 225 0
225 0 0 -22z"/>
<path d="M2367 1633 c-4 -3 -7 -18 -7 -32 -1 -42 92 -545 103 -558 7 -10 56
-13 183 -13 161 0 174 1 184 19 14 26 14 546 0 572 -10 18 -23 19 -234 19
-122 0 -226 -3 -229 -7z m393 -298 l0 -235 -120 0 c-66 0 -120 3 -120 8 0 4
-18 104 -40 222 -22 118 -40 221 -40 228 0 9 39 12 160 12 l160 0 0 -235z"/>
<path d="M2962 1628 c-17 -17 -17 -569 0 -586 14 -14 524 -17 546 -4 9 7 12
74 10 303 l-3 294 -270 3 c-202 2 -274 -1 -283 -10z m488 -293 l0 -235 -210 0
-210 0 0 235 0 235 210 0 210 0 0 -235z"/>
<path d="M3672 1628 c-17 -17 -17 -569 0 -586 18 -18 441 -17 457 2 13 15 58
554 48 579 -6 15 -32 17 -250 17 -176 0 -246 -3 -255 -12z m428 -100 c0 -24
-7 -122 -15 -218 -8 -96 -15 -183 -15 -192 0 -16 -15 -18 -165 -18 l-165 0 0
235 0 235 180 0 180 0 0 -42z"/>
<path d="M2603 404 c-31 -15 -63 -66 -63 -99 0 -48 59 -105 110 -105 53 0 110
57 110 110 0 34 -28 78 -60 95 -36 19 -57 19 -97 -1z m82 -64 c40 -45 -20
-105 -65 -65 -24 22 -25 43 -3 67 21 23 45 23 68 -2z"/>
<path d="M3933 405 c-33 -14 -63 -59 -63 -95 0 -34 28 -78 60 -95 37 -19 63
-19 100 0 32 17 60 61 60 95 0 37 -30 81 -65 96 -42 17 -51 17 -92 -1z m82
-65 c22 -24 13 -66 -15 -75 -52 -16 -90 36 -55 75 10 11 26 20 35 20 9 0 25
-9 35 -20z"/>
</g>
</svg>
