<?xml version="1.0" encoding="UTF-8"?>
<!-- Generator: visioncortex VTracer 0.6.4 -->
<svg version="1.1" xmlns="http://www.w3.org/2000/svg" width="500" height="500">
<path d="M0 0 C2.23 0 4.47 -0.02 6.7 -0.05 C30.25 -0.15 57.39 5.19 74.87 22.04 C78.65 26.08 82.23 30.01 84 35.32 C96.87 35.81 96.87 35.81 110 36.32 C109.63 34.11 109.26 31.9 108.87 29.63 C108.65 26.59 108.87 24.16 110 21.32 C114.3 16.36 120.17 13 125.78 9.71 C127.85 8.41 129.52 6.99 131.34 5.39 C134.4 3.24 136.33 3.14 140.01 3.53 C141.08 3.64 142.15 3.75 143.25 3.87 C151.02 4.8 158.79 5.79 166.55 6.82 C168.41 7.07 170.28 7.31 172.14 7.56 C177.02 8.2 181.89 8.84 186.76 9.48 C191.75 10.14 196.74 10.8 201.73 11.45 C211.48 12.74 221.24 14.03 231 15.32 C231.72 20.33 232.43 25.35 233.14 30.37 C233.38 32.07 233.62 33.78 233.86 35.48 C234.21 37.94 234.56 40.4 234.91 42.85 C235.02 43.61 235.12 44.37 235.24 45.15 C235.8 49.22 236.29 53.19 236 57.32 C234.19 59.19 234.19 59.19 232 60.32 C231.01 60.32 230.02 60.32 229 60.32 C228.81 70.5 228.67 80.68 228.59 90.86 C228.54 95.59 228.49 100.32 228.4 105.05 C227.64 133.81 227.64 133.81 235.97 161.03 C237.7 164.87 238.89 168.85 240.12 172.87 C240.58 174.37 241.05 175.86 241.52 177.35 C241.97 178.82 242.42 180.29 242.87 181.75 C243.35 183.28 243.83 184.81 244.3 186.33 C247.6 196.91 247.6 196.91 249.05 202 C249.6 203.92 250.18 205.83 250.82 207.72 C253.19 214.65 253.58 221.28 253.75 228.57 C253.78 229.76 253.82 230.95 253.85 232.17 C254.37 253.96 254.37 253.96 251.68 258.58 C249.01 261.33 245.7 262.01 242 262.32 C239.36 261.99 236.72 261.66 234 261.32 C234 271.88 234 282.44 234 293.32 C233.01 293.65 232.02 293.98 231 294.32 C231 294.98 231 295.64 231 296.32 C222.42 296.32 213.84 296.32 205 296.32 C205 295.66 205 295 205 294.32 C204.34 294.32 203.68 294.32 203 294.32 C201.69 287.36 201.89 280.43 201.94 273.38 C201.94 272.12 201.95 270.87 201.95 269.57 C201.96 266.49 201.98 263.4 202 260.32 C195.35 260.58 188.69 260.85 182.04 261.12 C179.78 261.21 177.52 261.3 175.26 261.39 C172 261.51 168.74 261.65 165.48 261.78 C163.98 261.84 163.98 261.84 162.45 261.9 C156.97 262.13 151.53 262.51 146.08 263.1 C143.59 263.36 141.13 263.45 138.62 263.44 C137.83 263.44 137.04 263.45 136.23 263.45 C134.03 263.32 132.11 262.92 130 262.32 C129.67 262.98 129.34 263.64 129 264.32 C128.04 264.31 127.08 264.31 126.09 264.3 C122.54 264.28 118.99 264.27 115.44 264.26 C113.9 264.26 112.36 264.25 110.82 264.24 C108.61 264.23 106.4 264.22 104.19 264.22 C103.16 264.21 103.16 264.21 102.11 264.2 C98.43 264.15 98.43 264.15 95 265.32 C90.42 265.63 85.83 265.61 81.25 265.63 C80.55 265.63 79.86 265.64 79.14 265.64 C65.38 265.68 51.86 264.42 38.21 262.74 C28.73 261.59 19.55 261.06 10 261.32 C10 260.66 10 260 10 259.32 C8.82 259.32 7.63 259.33 6.41 259.33 C1.97 259.35 -2.47 259.36 -6.91 259.37 C-8.83 259.38 -10.74 259.38 -12.65 259.39 C-15.42 259.4 -18.19 259.41 -20.96 259.41 C-21.8 259.42 -22.64 259.42 -23.5 259.43 C-27.84 259.43 -32.08 259.25 -36.4 258.82 C-42.17 258.25 -47.89 258.17 -53.69 258.18 C-54.75 258.18 -55.82 258.18 -56.92 258.18 C-59.14 258.18 -61.37 258.18 -63.6 258.19 C-67.02 258.19 -70.44 258.19 -73.86 258.18 C-76.03 258.18 -78.2 258.18 -80.38 258.18 C-81.4 258.18 -82.42 258.18 -83.47 258.18 C-84.42 258.18 -85.36 258.18 -86.34 258.19 C-87.17 258.19 -88 258.19 -88.85 258.19 C-91.19 258.23 -91.19 258.23 -94 259.32 C-95.57 259.39 -97.13 259.4 -98.7 259.38 C-100.12 259.37 -100.12 259.37 -101.58 259.35 C-102.6 259.34 -103.63 259.33 -104.69 259.32 C-113.29 259.25 -121.84 259.44 -130.44 259.88 C-150.34 260.8 -169.29 258.06 -189 255.32 C-189 268.19 -189 281.06 -189 294.32 C-189.66 294.32 -190.32 294.32 -191 294.32 C-191 294.98 -191 295.64 -191 296.32 C-199.91 296.32 -208.82 296.32 -218 296.32 C-218 295.66 -218 295 -218 294.32 C-218.66 294.32 -219.32 294.32 -220 294.32 C-220 279.8 -220 265.28 -220 250.32 C-224.29 249.66 -228.58 249 -233 248.32 C-233.66 247.99 -234.32 247.66 -235 247.32 C-235.08 242.21 -235.13 237.11 -235.17 232 C-235.18 230.27 -235.2 228.54 -235.23 226.8 C-235.26 224.3 -235.28 221.79 -235.29 219.29 C-235.31 218.53 -235.32 217.76 -235.34 216.98 C-235.34 211.25 -233.98 206.65 -232 201.32 C-231.57 199.99 -231.16 198.66 -230.75 197.33 C-230.55 196.67 -230.35 196.02 -230.14 195.35 C-229.93 194.67 -229.72 193.99 -229.5 193.28 C-222.67 171.23 -215.58 149.24 -206.99 127.79 C-205.87 124.98 -204.81 122.15 -203.76 119.31 C-203.33 118.16 -202.9 117 -202.47 115.82 C-201.8 114.02 -201.8 114.02 -201.13 112.19 C-200.69 111.02 -200.26 109.84 -199.81 108.64 C-197.85 103.34 -195.9 98.05 -193.99 92.73 C-191.8 86.69 -189.41 80.72 -187 74.75 C-186.58 73.69 -186.15 72.64 -185.71 71.54 C-184.87 69.45 -184.03 67.37 -183.19 65.28 C-180.89 59.55 -178.6 53.83 -176.33 48.09 C-176.08 47.45 -175.83 46.81 -175.56 46.15 C-175.05 44.85 -174.54 43.55 -174.03 42.25 C-172.11 37.43 -172.11 37.43 -171 36.32 C-168.85 36.23 -166.71 36.21 -164.56 36.22 C-163.25 36.22 -161.95 36.22 -160.6 36.23 C-159.22 36.24 -157.83 36.24 -156.44 36.25 C-155.05 36.26 -153.65 36.26 -152.26 36.27 C-148.84 36.28 -145.42 36.3 -142 36.32 C-142.64 34.67 -143.29 33.02 -143.94 31.38 C-144.48 30 -144.48 30 -145.03 28.6 C-145.8 26.39 -145.8 26.39 -147 25.32 C-148.85 24.92 -150.7 24.57 -152.56 24.25 C-154.08 23.99 -154.08 23.99 -155.63 23.72 C-156.41 23.59 -157.19 23.45 -158 23.32 C-158.33 23.98 -158.66 24.64 -159 25.32 C-162.96 24.99 -166.92 24.66 -171 24.32 C-171 20.69 -171 17.06 -171 13.32 C-161.17 11.4 -148.09 10.3 -139 15.32 C-133.68 18.9 -132.84 23.51 -131.48 29.48 C-131 32.32 -131 32.32 -131 36.32 C-113.84 36.32 -96.68 36.32 -79 36.32 C-78.01 33.35 -78.01 33.35 -77 30.32 C-67.42 14.78 -49.61 7.7 -32.65 3.32 C-21.75 0.84 -11.14 -0.03 0 0 Z " fill="#060706" transform="translate(241.00048828125,192.684326171875)"/>
<path d="M0 0 C8.91 0 17.82 0 27 0 C28.31 3.28 29.32 5.93 30.07 9.29 C30.33 10.45 30.33 10.45 30.6 11.64 C30.86 12.84 30.86 12.84 31.12 14.06 C31.31 14.86 31.49 15.67 31.68 16.49 C31.93 17.66 31.93 17.66 32.2 18.85 C32.35 19.55 32.51 20.25 32.66 20.97 C33 23 33 23 33 27 C31.5 27.36 31.5 27.36 29.96 27.73 C19.87 30 19.87 30 11 35 C9.52 39.06 10.19 42.47 10.73 46.68 C11.23 50.98 11.44 55.3 11.68 59.63 C11.77 61.15 11.77 61.15 11.86 62.71 C11.99 64.87 12.12 67.04 12.24 69.21 C12.44 72.58 12.64 75.96 12.84 79.34 C13.96 97.86 13.96 97.86 14.39 106.74 C14.5 108.96 14.61 111.17 14.73 113.39 C14.86 115.98 14.99 118.57 15.09 121.16 C15.15 122.29 15.21 123.42 15.28 124.59 C15.32 125.55 15.36 126.51 15.41 127.49 C16.17 130.71 17.46 131.94 20 134 C26.49 136.73 33.3 136.33 40.25 136.31 C42 136.34 42 136.34 43.78 136.36 C52.55 136.37 61.27 135.51 69 131 C70.12 128.76 70.25 127.23 70.45 124.74 C70.52 123.85 70.6 122.96 70.67 122.04 C70.75 121.07 70.82 120.1 70.9 119.11 C70.98 118.1 71.07 117.09 71.15 116.05 C71.42 112.77 71.68 109.48 71.94 106.19 C72.12 103.94 72.3 101.69 72.48 99.44 C72.99 92.96 73.5 86.48 74 80 C74.07 79.15 74.13 78.29 74.2 77.41 C74.56 72.69 74.91 67.97 75.25 63.25 C75.37 61.63 75.37 61.63 75.49 59.97 C75.7 56.98 75.86 53.99 76 51 C76.06 49.86 76.12 48.71 76.19 47.53 C76.22 46.38 76.26 45.23 76.3 44.05 C76.34 43.01 76.38 41.97 76.42 40.9 C75.89 37.23 74.55 35.64 72 33 C69.63 31.61 69.63 31.61 67.06 30.75 C66.23 30.44 65.39 30.12 64.54 29.8 C59.6 28.25 54.84 27.77 49.69 27.44 C48.43 27.35 47.18 27.27 45.89 27.18 C44.46 27.09 44.46 27.09 43 27 C42 22.88 41 18.75 40 14.62 C39.71 13.45 39.43 12.27 39.13 11.06 C38.73 9.38 38.73 9.38 38.31 7.66 C38.06 6.63 37.81 5.59 37.55 4.52 C37 2 37 2 37 0 C53.83 0 70.66 0 88 0 C88.99 10.4 88.99 10.4 90 21 C97.76 45.33 110.96 63.66 133.69 75.69 C152.2 84.71 174.57 86.36 194.28 79.93 C195.16 79.58 196.03 79.23 196.94 78.88 C199.94 77.69 201.76 77 205 77 C205.05 77.64 205.1 78.28 205.15 78.94 C205.65 85.66 206.15 92.38 206.65 99.09 C206.84 101.6 207.03 104.1 207.22 106.6 C207.48 110.21 207.76 113.82 208.03 117.43 C208.11 118.54 208.19 119.65 208.28 120.79 C208.43 122.88 208.6 124.97 208.77 127.06 C208.92 129.01 209.06 130.95 209.18 132.9 C209.24 133.79 209.31 134.68 209.37 135.6 C209.45 136.77 209.45 136.77 209.52 137.96 C210.11 140.47 211.03 141.39 213 143 C219.94 146.61 227.36 146.42 235 146.31 C236.12 146.32 237.25 146.32 238.41 146.32 C244.86 146.28 250.79 145.78 257 144 C257.67 143.82 258.34 143.64 259.02 143.45 C261.21 142.8 261.21 142.8 264 141 C266.67 134.4 266.75 127.2 267.29 120.18 C267.4 118.82 267.51 117.47 267.62 116.12 C267.84 113.3 268.07 110.47 268.29 107.64 C268.57 104.05 268.86 100.46 269.15 96.87 C269.37 94.08 269.6 91.29 269.82 88.5 C269.97 86.54 270.13 84.59 270.29 82.63 C272.26 69.21 272.26 69.21 268.81 57 C258.94 50.83 247.28 50.29 236 50 C236.35 49.43 236.7 48.85 237.07 48.26 C246.08 32.75 249.86 17.83 251 0 C259.91 0 268.82 0 278 0 C278.35 11.94 278.68 23.87 279 35.81 C279.02 36.7 279.05 37.59 279.07 38.5 C279.95 71.68 280.26 104.81 280 138 C280.96 138.11 281.93 138.21 282.92 138.32 C292.15 139.39 301.19 140.9 310.28 142.8 C314.06 143.59 317.84 144.35 321.62 145.12 C322.39 145.28 323.16 145.43 323.96 145.6 C333.67 147.56 343.41 149.3 353.16 151.05 C360.13 152.29 367.07 153.57 374 155 C374.26 154.28 374.51 153.56 374.78 152.81 C376.07 149.84 377.61 147.59 379.56 145 C380.27 144.04 380.97 143.08 381.7 142.09 C383.27 139.98 384.86 137.91 386.49 135.85 C392.24 128.38 394.39 122.49 394 113 C396.06 116.1 397.04 118.73 398.21 122.26 C398.41 122.87 398.62 123.49 398.83 124.12 C399.5 126.12 400.15 128.12 400.81 130.12 C401.27 131.5 401.72 132.87 402.18 134.24 C405.32 143.77 408.26 153.35 411 163 C411.26 163.64 411.52 164.28 411.79 164.94 C415.22 174.13 414.32 183.98 414.19 193.62 C414.17 195.51 414.16 197.39 414.15 199.27 C414.11 203.85 414.06 208.42 414 213 C412.73 212.99 412.73 212.99 411.44 212.99 C365.6 212.36 365.6 212.36 319.81 213.94 C318.8 214.01 318.8 214.01 317.76 214.08 C317.08 214.12 316.41 214.17 315.71 214.21 C314.35 214.31 312.98 214.4 311.62 214.49 C310.95 214.53 310.28 214.58 309.59 214.62 C291.77 215.76 273.85 215.77 256 216 C255.11 216.01 254.23 216.02 253.32 216.04 C248.38 216.1 243.44 216.15 238.5 216.18 C237.04 216.18 235.58 216.19 234.13 216.21 C225.46 216.29 217.01 215.79 208.4 214.81 C199.83 213.84 191.23 213.21 182.62 212.62 C179.96 212.44 177.3 212.25 174.64 212.06 C151.23 210.4 127.85 209.83 104.39 209.87 C100.98 209.88 97.58 209.87 94.18 209.87 C79.73 209.85 65.32 210.06 50.88 210.77 C44.67 211.08 38.47 211.15 32.25 211.12 C31.11 211.12 29.97 211.12 28.8 211.11 C25.53 211.09 22.27 211.05 19 211 C18.17 210.99 17.33 210.97 16.47 210.96 C-9.82 210.41 -36.16 205.55 -62 201 C-62.89 182.19 -61.88 166.01 -55.7 148.05 C-54.64 144.94 -53.63 141.82 -52.62 138.7 C-37.36 91.92 -20.37 44.82 0 0 Z " fill="#FCFCFC" transform="translate(74,235)"/>
<path d="M0 0 C46.2 0 92.4 0 140 0 C140 54.78 140 109.56 140 166 C93.8 166 47.6 166 0 166 C0 111.22 0 56.44 0 0 Z " fill="#98C83B" transform="translate(180,8)"/>
<path d="M0 0 C16.83 0 33.66 0 51 0 C51.99 10.4 51.99 10.4 53 21 C60.76 45.33 73.96 63.66 96.69 75.69 C115.2 84.71 137.57 86.36 157.28 79.93 C158.16 79.58 159.03 79.23 159.94 78.88 C162.94 77.69 164.76 77 168 77 C168.05 77.64 168.1 78.28 168.15 78.94 C168.65 85.66 169.15 92.38 169.65 99.09 C169.84 101.6 170.03 104.1 170.22 106.6 C170.48 110.21 170.76 113.82 171.03 117.43 C171.11 118.54 171.19 119.65 171.28 120.79 C171.43 122.88 171.6 124.97 171.77 127.06 C171.92 129.01 172.06 130.95 172.18 132.9 C172.24 133.79 172.31 134.68 172.37 135.6 C172.45 136.77 172.45 136.77 172.52 137.96 C173.11 140.47 174.03 141.39 176 143 C182.94 146.61 190.36 146.42 198 146.31 C199.12 146.32 200.25 146.32 201.41 146.32 C207.86 146.28 213.79 145.78 220 144 C220.67 143.82 221.34 143.64 222.02 143.45 C224.21 142.8 224.21 142.8 227 141 C229.67 134.4 229.75 127.2 230.29 120.18 C230.4 118.82 230.51 117.47 230.62 116.12 C230.84 113.3 231.07 110.47 231.29 107.64 C231.57 104.05 231.86 100.46 232.15 96.87 C232.37 94.08 232.6 91.29 232.82 88.5 C232.97 86.54 233.13 84.59 233.29 82.63 C235.26 69.21 235.26 69.21 231.81 57 C221.94 50.83 210.28 50.29 199 50 C199.35 49.43 199.7 48.85 200.07 48.26 C209.08 32.75 212.86 17.83 214 0 C222.91 0 231.82 0 241 0 C241.35 11.94 241.68 23.87 242 35.81 C242.02 36.7 242.05 37.59 242.07 38.5 C242.95 71.68 243.26 104.81 243 138 C243.96 138.11 244.92 138.21 245.91 138.32 C255.98 139.48 265.83 141.24 275.75 143.31 C278.81 143.94 281.86 144.57 284.92 145.19 C285.68 145.34 286.44 145.5 287.22 145.66 C295.97 147.42 304.76 148.94 313.56 150.4 C314.63 150.58 315.71 150.77 316.81 150.96 C317.75 151.11 318.68 151.27 319.64 151.43 C322 152 322 152 325 154 C290.14 154.26 255.28 154.51 220.42 154.76 C216.23 154.79 212.04 154.82 207.84 154.85 C206.59 154.86 206.59 154.86 205.32 154.87 C193.73 154.96 182.15 155.04 170.57 155.13 C150.53 155.28 130.49 155.42 110.45 155.56 C109.27 155.57 109.27 155.57 108.06 155.58 C45.71 156.01 -16.64 156.13 -79 156 C-77.91 150.84 -76.73 145.81 -75.06 140.8 C-74.68 139.65 -74.3 138.51 -73.91 137.32 C-73.49 136.1 -73.08 134.87 -72.66 133.6 C-72.22 132.27 -71.77 130.94 -71.33 129.61 C-70.14 126.03 -68.94 122.44 -67.74 118.86 C-66.49 115.1 -65.24 111.35 -63.99 107.59 C-61.89 101.29 -59.78 94.99 -57.68 88.7 C-55.24 81.41 -52.81 74.12 -50.38 66.84 C-48.05 59.82 -45.71 52.8 -43.37 45.79 C-42.37 42.8 -41.37 39.82 -40.38 36.83 C-39.21 33.32 -38.04 29.82 -36.86 26.31 C-36.23 24.41 -35.59 22.5 -34.96 20.59 C-34.58 19.47 -34.2 18.34 -33.82 17.18 C-33.49 16.2 -33.16 15.22 -32.82 14.21 C-32 12 -32 12 -31 11 C-29.22 10.91 -27.44 10.89 -25.65 10.9 C-24.57 10.91 -23.49 10.91 -22.38 10.91 C-20.68 10.92 -20.68 10.92 -18.94 10.94 C-17.23 10.94 -17.23 10.94 -15.48 10.95 C-12.65 10.96 -9.83 10.98 -7 11 C-4 22.5 -4 22.5 -4 27 C-5.5 27.36 -5.5 27.36 -7.04 27.73 C-17.13 30 -17.13 30 -26 35 C-27.48 39.06 -26.81 42.47 -26.27 46.68 C-25.77 50.98 -25.56 55.3 -25.32 59.63 C-25.26 60.64 -25.2 61.66 -25.14 62.71 C-25.01 64.87 -24.88 67.04 -24.76 69.21 C-24.56 72.58 -24.36 75.96 -24.16 79.34 C-23.04 97.86 -23.04 97.86 -22.61 106.74 C-22.5 108.96 -22.39 111.17 -22.27 113.39 C-22.14 115.98 -22.01 118.57 -21.91 121.16 C-21.85 122.29 -21.79 123.42 -21.72 124.59 C-21.68 125.55 -21.64 126.51 -21.59 127.49 C-20.83 130.71 -19.54 131.94 -17 134 C-10.51 136.73 -3.7 136.33 3.25 136.31 C5 136.34 5 136.34 6.78 136.36 C15.55 136.37 24.27 135.51 32 131 C33.12 128.76 33.25 127.23 33.45 124.74 C33.52 123.85 33.6 122.96 33.67 122.04 C33.75 121.07 33.82 120.1 33.9 119.11 C33.98 118.1 34.07 117.09 34.15 116.05 C34.42 112.77 34.68 109.48 34.94 106.19 C35.12 103.94 35.3 101.69 35.48 99.44 C35.99 92.96 36.5 86.48 37 80 C37.07 79.15 37.13 78.29 37.2 77.41 C37.56 72.69 37.91 67.97 38.25 63.25 C38.33 62.17 38.41 61.08 38.49 59.97 C38.7 56.98 38.86 53.99 39 51 C39.06 49.86 39.12 48.71 39.19 47.53 C39.22 46.38 39.26 45.23 39.3 44.05 C39.34 43.01 39.38 41.97 39.42 40.9 C38.89 37.23 37.55 35.64 35 33 C32.63 31.61 32.63 31.61 30.06 30.75 C29.23 30.44 28.39 30.12 27.54 29.8 C22.6 28.25 17.84 27.77 12.69 27.44 C11.43 27.35 10.18 27.27 8.89 27.18 C7.46 27.09 7.46 27.09 6 27 C5 22.88 4 18.75 3 14.62 C2.71 13.45 2.43 12.27 2.13 11.06 C1.73 9.38 1.73 9.38 1.31 7.66 C1.06 6.63 0.81 5.59 0.55 4.52 C0 2 0 2 0 0 Z " fill="#FCFCFC" transform="translate(111,235)"/>
<path d="M0 0 C7.71 0.57 15.33 1.37 22.98 2.49 C24.49 2.7 24.49 2.7 26.03 2.93 C28.16 3.23 30.29 3.54 32.41 3.85 C35.57 4.3 38.73 4.76 41.88 5.21 C56.94 7.37 71.97 9.66 87 12 C87.03 25.35 87.05 38.71 87.06 52.06 C87.06 53.05 87.06 54.05 87.07 55.07 C87.09 82.38 86.98 109.69 86.5 137 C86.49 137.68 86.48 138.36 86.46 139.05 C86.32 147.04 86.17 155.02 86 163 C81.44 162.37 76.93 161.65 72.41 160.8 C71.14 160.56 69.88 160.33 68.58 160.08 C67.22 159.83 65.86 159.57 64.5 159.31 C63.09 159.05 61.67 158.78 60.26 158.51 C48.95 156.38 37.66 154.21 26.37 152.01 C19.95 150.76 13.54 149.54 7.1 148.44 C5 148 5 148 3 147 C1.81 141.28 1.8 135.52 1.7 129.69 C1.68 128.68 1.66 127.66 1.64 126.62 C1.58 123.27 1.52 119.91 1.46 116.56 C1.42 114.2 1.38 111.84 1.33 109.48 C1.24 104.52 1.16 99.56 1.07 94.6 C0.96 88.34 0.85 82.08 0.73 75.82 C0.26 50.54 -0.19 25.28 0 0 Z " fill="#FCFCFC" transform="translate(357,221)"/>
<path d="M0 0 C38.94 0 77.88 0 118 0 C118 28.38 118 56.76 118 86 C116.35 86.33 114.7 86.66 113 87 C110.44 89.21 108.36 91.57 106.19 94.16 C101.9 99.18 97.86 102.9 92 106 C91.22 105.4 91.22 105.4 90.43 104.79 C85.98 101.41 85.98 101.41 81.25 98.44 C78.52 96.69 77.02 94.52 75 92 C72.38 90.21 72.38 90.21 70 89 C70.17 88.07 70.33 87.14 70.5 86.19 C71.6 77.8 72.33 70.95 66.97 63.88 C62.55 59.66 57.3 58.32 51.38 57.5 C45.74 58.33 41.55 60.37 37.62 64.5 C33.6 70.69 33.37 75.65 34 83 C35.64 87.76 38.23 90.7 42 94 C42.99 94.33 43.98 94.66 45 95 C44.34 96.32 43.68 97.64 43 99 C39.77 97.49 37.65 96.29 36 93 C35.44 92.88 34.89 92.75 34.31 92.62 C32 92 32 92 29.19 89.94 C25.34 87.6 23.43 87.37 19 88 C14.03 90.59 10.2 94.46 6.15 98.29 C4 100 4 100 0 101 C0 67.67 0 34.34 0 0 Z " fill="#B4E1E5" transform="translate(191,18)"/>
<path d="M0 0 C46.2 0 92.4 0 140 0 C140 54.78 140 109.56 140 166 C93.8 166 47.6 166 0 166 C0 111.22 0 56.44 0 0 Z M11 10 C11 43.33 11 76.66 11 111 C11.99 111 12.98 111 14 111 C13.01 111.99 12.02 112.98 11 114 C11 127.53 11 141.06 11 155 C49.94 155 88.88 155 129 155 C129 136.52 129 118.04 129 99 C127.02 98.5 127.02 98.5 125 98 C124.22 98.97 123.43 99.94 122.62 100.94 C121.09 102.84 120.21 103.9 118 105 C121.42 98.4 121.42 98.4 124.06 96.56 C126 96 126 96 129 96 C129 67.62 129 39.24 129 10 C90.06 10 51.12 10 11 10 Z " fill="#0B0802" transform="translate(180,8)"/>
<path d="M0 0 C10.88 0.62 21.63 2.28 32.41 3.85 C35.57 4.3 38.73 4.76 41.88 5.21 C56.94 7.38 71.96 9.69 87 12 C87 41.04 87 70.08 87 100 C86.67 100 86.34 100 86 100 C85.67 87.79 85.34 75.58 85 63 C82.36 63.33 79.72 63.66 77 64 C63.68 64.92 50.04 63.16 38.05 56.93 C32.46 54.4 27.08 53.68 21 53.75 C20.33 53.74 19.65 53.73 18.96 53.73 C14.31 53.74 10.41 54.61 6 56 C4.34 56.35 2.67 56.68 1 57 C0.08 37.98 -0.12 19.03 0 0 Z " fill="#3EBBEA" transform="translate(357,221)"/>
<path d="M0 0 C0.33 0 0.66 0 1 0 C1.07 6.47 0.9 12.87 0.41 19.33 C0.35 20.19 0.29 21.05 0.23 21.93 C-0.1 26.63 -0.45 31.32 -0.8 36.01 C-0.95 37.94 -1.09 39.87 -1.23 41.8 C-1.34 43.23 -1.34 43.23 -1.44 44.69 C-1.86 50.58 -2.16 56.46 -2.36 62.36 C-2.42 63.75 -2.48 65.14 -2.54 66.54 C-2.63 69.08 -2.7 71.62 -2.74 74.16 C-3.09 82.08 -3.09 82.08 -5.58 84.59 C-7.71 85.73 -9.67 86.39 -12 87 C-12.64 87.21 -13.28 87.43 -13.94 87.65 C-19.33 89.28 -24.73 89.35 -30.31 89.31 C-31.7 89.31 -31.7 89.31 -33.11 89.3 C-47.02 89.06 -47.02 89.06 -52 86 C-53.71 82.48 -54.29 79.46 -54.49 75.57 C-54.54 74.51 -54.6 73.45 -54.66 72.36 C-54.71 71.22 -54.76 70.08 -54.82 68.9 C-54.88 67.72 -54.94 66.53 -55 65.31 C-55.2 61.52 -55.38 57.73 -55.56 53.94 C-55.75 50.17 -55.94 46.41 -56.13 42.64 C-56.25 40.3 -56.37 37.96 -56.48 35.62 C-56.79 29.25 -57.22 22.91 -57.8 16.56 C-58.06 13.27 -58.1 10.05 -58.06 6.75 C-58.05 5.65 -58.04 4.55 -58.04 3.42 C-58.02 2.62 -58.01 1.82 -58 1 C-56.93 1.4 -56.93 1.4 -55.83 1.8 C-48.28 4.48 -40.95 6.03 -33 7 C-32.67 9.31 -32.34 11.62 -32 14 C-31.01 14 -30.02 14 -29 14 C-29 11.69 -29 9.38 -29 7 C-28.01 7.33 -27.02 7.66 -26 8 C-25.5 10.97 -25.5 10.97 -25 14 C-24.01 14 -23.02 14 -22 14 C-22.5 10.04 -22.5 10.04 -23 6 C-21.75 5.84 -21.75 5.84 -20.47 5.67 C-9.54 4.7 -9.54 4.7 0 0 Z " fill="#F48B1D" transform="translate(146,280)"/>
<path d="M0 0 C2.69 2 2.69 2 4 4 C3.5 2.02 3.5 2.02 3 0 C19.89 -0.37 19.89 -0.37 27 2 C25 6 23 10 21 14 C21.99 15.32 22.98 16.64 24 18 C19.25 21 19.25 21 17 21 C16.5 15.06 16.5 15.06 16 9 C10.5 8.91 10.5 8.91 5 9 C4.67 9.33 4.34 9.66 4 10 C7.63 10 11.26 10 15 10 C15.88 16.73 16.09 23.21 16 30 C10.39 30 4.78 30 -1 30 C-0.38 25.65 0.26 21.37 1.06 17.06 C1.33 15.63 1.33 15.63 1.6 14.16 C1.73 13.45 1.86 12.73 2 12 C0.98 14.04 0.41 15.93 -0.19 18.13 C-0.41 18.94 -0.64 19.74 -0.87 20.57 C-1.1 21.42 -1.33 22.26 -1.56 23.12 C-1.91 24.4 -1.91 24.4 -2.27 25.7 C-2.85 27.8 -3.43 29.9 -4 32 C0.63 31.93 5.25 31.84 9.88 31.74 C11.45 31.7 13.03 31.68 14.6 31.65 C16.86 31.62 19.13 31.57 21.39 31.51 C22.44 31.5 22.44 31.5 23.52 31.49 C27.61 31.37 30.02 30.87 33 28 C32.5 22.25 32.5 22.25 29 18 C30.45 16.99 31.91 16 33.38 15 C34.19 14.44 35 13.89 35.84 13.31 C38 12 38 12 40 12 C39.24 11.26 38.47 10.51 37.69 9.75 C35.56 7.57 33.74 5.48 32 3 C46.45 3.88 62.16 10.43 73 20 C73 20.33 73 20.66 73 21 C71.91 21.27 70.81 21.54 69.69 21.81 C66.27 22.91 65.22 23.42 63 26 C62.34 26 61.68 26 61 26 C60 23.88 59 21.75 58 19.62 C57.44 18.44 56.89 17.26 56.31 16.04 C55 13 55 13 55 11 C48.4 13.97 41.8 16.94 35 20 C37.59 21.01 37.59 21.01 40.22 22.05 C42.5 22.95 44.78 23.85 47.06 24.75 C48.2 25.19 49.33 25.64 50.5 26.09 C59.96 29.85 59.96 29.85 64.05 32.3 C68.26 34.73 70.22 34.62 75 34 C77.97 32.16 77.97 32.16 80 30 C79.11 37.55 74.28 42.24 68.73 46.98 C54.21 57.71 36.63 61.54 19 63 C20.32 60.36 21.64 57.72 23 55 C24.86 55.05 24.86 55.05 26.76 55.11 C28.4 55.13 30.05 55.16 31.69 55.19 C32.5 55.21 33.32 55.24 34.16 55.26 C38.98 55.32 42.04 55.07 46 52 C44.56 47.09 42.46 43 39.88 38.62 C39.5 37.98 39.13 37.34 38.75 36.68 C37.84 35.12 36.92 33.56 36 32 C31.09 33.44 27 35.54 22.62 38.12 C21.98 38.5 21.34 38.87 20.68 39.25 C19.12 40.16 17.56 41.08 16 42 C16.15 42.61 16.31 43.23 16.46 43.86 C16.98 45.91 17.49 47.95 18 50 C13.07 50.97 13.07 50.97 10 50 C6.83 46.64 4.4 42.93 2 39 C-3.69 44.46 -3.69 44.46 -8 51 C-2.72 51 2.56 51 8 51 C7.34 51.99 6.68 52.98 6 54 C5.42 56.41 5.42 56.41 6 59 C7.62 60.71 9.29 62.38 11 64 C-16.25 64.57 -44.22 61.33 -65.07 42.11 C-66.88 40.14 -67.97 38.45 -69 36 C-68.5 35.5 -68.5 35.5 -68 35 C-68.66 34.34 -69.32 33.68 -70 33 C-69.67 29.7 -69.38 28.38 -67 26 C-67 25.01 -67 24.02 -67 23 C-64.81 21.18 -64.81 21.18 -62 19.31 C-61.07 18.69 -60.14 18.07 -59.19 17.43 C-58.47 16.96 -57.74 16.48 -57 16 C-57 19.2 -57.74 21.09 -59 24 C-58.22 24.31 -57.43 24.62 -56.62 24.94 C-54 26 -54 26 -52 27 C-50.06 27.05 -50.06 27.05 -47.87 26.88 C-47.06 26.83 -46.26 26.78 -45.43 26.73 C-44.58 26.68 -43.74 26.62 -42.88 26.56 C-42.03 26.51 -41.18 26.46 -40.3 26.4 C-38.2 26.27 -36.1 26.14 -34 26 C-33.01 28.64 -32.02 31.28 -31 34 C-32.65 33.67 -34.3 33.34 -36 33 C-36 40.59 -36 48.18 -36 56 C-32.81 55.5 -32.81 55.5 -29.56 55 C-23.95 54.19 -18.66 53.8 -13 54 C-13.68 52.89 -14.36 51.77 -15.06 50.62 C-16.22 48.73 -16.22 48.73 -17 47 C-16.5 46.01 -16.5 46.01 -16 45 C-15.39 45.03 -14.77 45.07 -14.14 45.11 C-12.92 45.15 -12.92 45.15 -11.69 45.19 C-10.89 45.22 -10.09 45.26 -9.26 45.29 C-6.94 45.17 -6.94 45.17 -5.2 43.71 C-3.65 41.86 -3.65 41.86 -4.06 38.44 C-4.64 35.03 -4.64 35.03 -6.69 33.62 C-9.44 32.88 -12.17 32.39 -15 32 C-14.92 30.93 -14.84 29.85 -14.75 28.75 C-14.73 25.09 -14.73 25.09 -16.31 22.56 C-20.63 20.05 -25.13 20.7 -30 21 C-29.69 20.24 -29.38 19.47 -29.06 18.69 C-28.32 16.81 -27.64 14.91 -27 13 C-27.7 12.73 -28.4 12.46 -29.12 12.19 C-32.16 10.93 -35.07 9.5 -38 8 C-37 6 -37 6 -34.67 5.22 C-31.33 4.43 -27.98 3.64 -24.62 2.88 C-23.48 2.6 -22.34 2.32 -21.16 2.04 C-14.18 0.42 -7.18 -0.97 0 0 Z " fill="#F3F3F3" transform="translate(239,209)"/>
<path d="M0 0 C0.46 0.36 0.92 0.73 1.4 1.1 C14.96 11.55 29.3 17.57 46 21 C46.86 21.18 47.72 21.36 48.61 21.55 C56.38 23.03 64.03 23.31 71.92 23.26 C74 23.25 76.08 23.26 78.16 23.27 C86.3 23.28 94.01 22.6 102 21 C103.18 20.81 104.35 20.62 105.57 20.43 C120.5 17.67 134.25 11.62 146 2 C146.99 1.34 147.98 0.68 149 0 C146.51 11.2 142.28 22.72 134 31 C131.64 31.53 129.26 31.97 126.88 32.38 C120.13 33.6 114 35 109 40 C108.76 42.9 108.76 42.9 108.88 46.12 C108.89 47.22 108.91 48.32 108.93 49.45 C108.95 50.29 108.98 51.13 109 52 C106.86 52.97 104.71 53.92 102.56 54.88 C101.37 55.41 100.17 55.94 98.94 56.49 C91.47 59.52 84.2 60.34 76.19 60.25 C75.31 60.24 74.43 60.23 73.52 60.23 C51.68 59.85 33.94 51.64 18.59 36.14 C9.06 26.06 2.45 13.66 0 0 Z " fill="#91C63C" transform="translate(169,254)"/>
<path d="M0 0 C-0.62 14.3 -1.35 28.59 -2.4 42.87 C-2.55 45.03 -2.69 47.19 -2.82 49.34 C-3.01 52.51 -3.24 55.68 -3.48 58.85 C-3.52 59.81 -3.57 60.77 -3.62 61.77 C-4.17 68.22 -4.17 68.22 -6.57 70.49 C-19.29 77.93 -37.25 75.97 -51 73 C-53.33 72.24 -53.33 72.24 -55 71 C-56.09 66.89 -56.37 62.67 -56.72 58.45 C-56.78 57.72 -56.84 56.99 -56.91 56.24 C-57.04 54.7 -57.17 53.15 -57.3 51.6 C-57.5 49.3 -57.69 47 -57.89 44.69 C-58.55 37.08 -59.13 29.46 -59.59 21.83 C-59.65 20.82 -59.65 20.82 -59.72 19.78 C-60.07 13.52 -60.1 7.27 -60 1 C-59.37 1.2 -58.74 1.41 -58.09 1.62 C-56.81 2.03 -56.81 2.03 -55.5 2.44 C-54.66 2.7 -53.83 2.97 -52.97 3.25 C-33.57 8.17 -17.9 0 0 0 Z " fill="#FCFCFC" transform="translate(342,304)"/>
<path d="M0 0 C0.33 0 0.66 0 1 0 C1 1.98 1 3.96 1 6 C-6.59 6.33 -14.18 6.66 -22 7 C-37.84 54.52 -53.68 102.04 -70 151 C-45.02 150.8 -45.02 150.8 -19.53 150.6 C-8.67 150.51 2.18 150.42 13.04 150.34 C13.72 150.33 14.4 150.33 15.1 150.32 C37.07 150.15 59.04 149.98 81 149.81 C83.2 149.79 85.4 149.77 87.59 149.76 C100.73 149.65 113.87 149.55 127 149.45 C135.62 149.39 144.25 149.32 152.87 149.25 C153.56 149.25 154.26 149.24 154.97 149.24 C175.94 149.07 196.9 148.9 217.86 148.72 C232.39 148.6 246.91 148.48 261.43 148.37 C270.14 148.3 278.86 148.22 287.57 148.14 C293.38 148.09 299.19 148.04 305 148 C308.24 147.97 311.49 147.95 314.74 147.91 C318.18 147.88 321.61 147.85 325.05 147.83 C326.51 147.81 326.51 147.81 328.01 147.79 C334.23 147.77 339.95 148.55 346 150 C346.25 149.29 346.5 148.58 346.76 147.84 C348.13 144.7 349.83 142.25 351.88 139.5 C352.89 138.12 352.89 138.12 353.93 136.72 C355.91 134.11 357.94 131.55 360 129 C361.17 132.27 362.34 135.54 363.5 138.81 C363.83 139.74 364.17 140.67 364.51 141.63 C364.83 142.52 365.14 143.41 365.47 144.33 C365.91 145.57 365.91 145.57 366.36 146.82 C367 149 367 149 367 152 C348.31 152.81 329.64 153.18 310.94 153.28 C308.08 153.3 305.22 153.32 302.36 153.34 C295.36 153.38 288.37 153.42 281.37 153.46 C275.59 153.49 269.82 153.52 264.04 153.56 C199.66 153.95 135.28 154.25 70.91 154.55 C67.26 154.56 63.61 154.58 59.96 154.6 C45.93 154.66 31.91 154.73 17.88 154.79 C13.6 154.81 9.32 154.83 5.04 154.85 C-21.64 154.97 -48.32 155.03 -75 155 C-74.4 150.6 -73.68 146.57 -72.24 142.36 C-71.88 141.29 -71.52 140.23 -71.14 139.13 C-70.75 137.99 -70.36 136.85 -69.95 135.68 C-69.32 133.83 -68.69 131.99 -68.07 130.15 C-67.4 128.21 -66.73 126.26 -66.06 124.32 C-64.67 120.28 -63.29 116.23 -61.91 112.19 C-61.45 110.83 -60.99 109.48 -60.53 108.13 C-60.3 107.46 -60.07 106.79 -59.84 106.11 C-59.15 104.1 -58.47 102.09 -57.78 100.08 C-54.39 90.17 -51.05 80.25 -47.75 70.31 C-47.3 68.96 -46.85 67.61 -46.4 66.26 C-45.47 63.45 -44.54 60.65 -43.61 57.85 C-40.55 48.63 -37.48 39.41 -34.41 30.19 C-33.33 26.93 -32.25 23.67 -31.17 20.41 C-30.5 18.41 -29.84 16.42 -29.18 14.43 C-28.87 13.5 -28.56 12.58 -28.25 11.63 C-27.96 10.78 -27.68 9.93 -27.39 9.06 C-27.02 7.95 -27.02 7.95 -26.65 6.82 C-26 5 -26 5 -25 3 C-16.75 3 -8.5 3 0 3 C0 2.01 0 1.02 0 0 Z " fill="#959595" transform="translate(102,240)"/>
<path d="M0 0 C0.55 0.28 1.11 0.55 1.68 0.84 C3.27 1.64 4.89 2.37 6.53 3.06 C10.01 5.03 11.76 6.64 14 10 C16.02 18.1 15.36 26.83 15.26 35.11 C15.26 37.61 15.26 40.1 15.27 42.6 C15.28 48.5 15.24 54.39 15.17 60.28 C15.13 64.97 15.13 69.65 15.15 74.33 C15.19 80.81 15.19 87.29 15.15 93.77 C15.14 96.23 15.14 98.69 15.15 101.15 C15.23 124.41 15.23 124.41 8.05 131.98 C7.37 132.65 6.7 133.31 6 134 C4.82 135.7 3.67 137.43 2.56 139.19 C1.73 140.48 0.89 141.75 0 143 C-0.33 143 -0.66 143 -1 143 C-1.14 108.1 -0.94 73.21 -0.5 38.31 C-0.49 37.36 -0.48 36.4 -0.46 35.42 C-0.32 23.61 -0.16 11.81 0 0 Z " fill="#FAFAFA" transform="translate(449,236)"/>
<path d="M0 0 C0 1.32 0 2.64 0 4 C-15.37 5.66 -30.52 6.29 -45.97 6.23 C-48.19 6.23 -50.41 6.23 -52.63 6.23 C-57.25 6.23 -61.86 6.22 -66.47 6.21 C-72.34 6.19 -78.22 6.18 -84.09 6.19 C-88.66 6.19 -93.23 6.18 -97.81 6.17 C-99.97 6.17 -102.14 6.17 -104.3 6.17 C-114.63 6.16 -124.89 6.09 -135.19 5.23 C-141.98 4.67 -148.81 4.71 -155.62 4.69 C-156.96 4.68 -156.96 4.68 -158.32 4.68 C-171.45 4.65 -184.53 5.12 -197.63 5.89 C-198.37 5.94 -199.1 5.98 -199.86 6.03 C-203.71 6.25 -207.56 6.48 -211.42 6.72 C-242.19 8.55 -272.85 9.38 -303.69 9.31 C-304.61 9.31 -305.53 9.31 -306.48 9.31 C-325.5 9.28 -344.51 9.1 -363.52 8.54 C-364.2 8.52 -364.88 8.5 -365.59 8.49 C-372.06 8.3 -378.47 8.04 -384.9 7.24 C-388.88 6.79 -392.88 6.64 -396.88 6.47 C-397.82 6.43 -398.76 6.39 -399.73 6.35 C-411.78 5.85 -423.83 5.65 -435.88 5.44 C-438.23 5.39 -440.59 5.35 -442.95 5.31 C-448.63 5.2 -454.32 5.1 -460 5 C-460 4.01 -460 3.02 -460 2 C-449.81 0.9 -439.67 0.8 -429.44 0.81 C-428.57 0.81 -427.71 0.81 -426.81 0.81 C-416.53 0.82 -406.32 0.99 -396.06 1.88 C-344.38 6.27 -291.07 7.45 -239.29 3.61 C-237.92 3.51 -236.54 3.41 -235.16 3.31 C-232.55 3.12 -229.94 2.92 -227.33 2.72 C-204.56 1.04 -181.9 0.74 -159.07 0.83 C-154.19 0.85 -149.32 0.85 -144.44 0.86 C-135.25 0.87 -126.05 0.89 -116.86 0.91 C-100.38 0.96 -83.9 0.99 -67.41 1.01 C-61.65 1.02 -55.89 1.03 -50.13 1.05 C-46.54 1.06 -42.95 1.07 -39.37 1.08 C-37.72 1.08 -36.08 1.09 -34.43 1.09 C-24.68 1.13 -15.01 0.87 -5.29 0.22 C-3.53 0.1 -1.76 0 0 0 Z " fill="#030303" transform="translate(477,405)"/>
<path d="M0 0 C40.92 0 81.84 0 124 0 C124 49.83 124 99.66 124 151 C83.08 151 42.16 151 0 151 C0 101.17 0 51.34 0 0 Z M3 3 C3 36.33 3 69.66 3 104 C3.99 104 4.98 104 6 104 C5.01 104.99 4.02 105.98 3 107 C3 120.53 3 134.06 3 148 C41.94 148 80.88 148 121 148 C121 129.52 121 111.04 121 92 C119.02 91.5 119.02 91.5 117 91 C116.22 91.97 115.43 92.94 114.62 93.94 C113.09 95.84 112.21 96.9 110 98 C113.42 91.4 113.42 91.4 116.06 89.56 C118 89 118 89 121 89 C121 60.62 121 32.24 121 3 C82.06 3 43.12 3 3 3 Z " fill="#000000" transform="translate(188,15)"/>
<path d="M0 0 C4.5 0.44 8.65 0.91 12.9 2.52 C17.79 4.34 22.8 4.84 27.96 5.35 C31.06 5.67 33.78 6.11 36.73 7.16 C40.46 8.31 43.4 8.06 47.28 7.71 C51.44 7.35 55.53 7 59.71 7.08 C59.57 7.64 59.43 8.2 59.28 8.77 C59 9.91 59 9.91 58.71 11.08 C58.49 11.91 58.26 12.73 58.03 13.58 C57.66 16.52 58.28 17.56 59.71 20.08 C59.71 21.07 59.71 22.06 59.71 23.08 C56.34 23.71 56.34 23.71 52.71 24.08 C52.05 23.42 51.39 22.76 50.71 22.08 C47.63 21.92 47.63 21.92 44.71 22.08 C44.32 22.97 43.93 23.86 43.53 24.77 C40.76 29.82 37.86 32.51 32.71 35.08 C32.71 38.71 32.71 42.34 32.71 46.08 C26.05 44.75 26.05 44.75 22.71 42.08 C22.34 39.46 22.34 39.46 22.71 37.08 C23.04 36.75 23.37 36.42 23.71 36.08 C24.08 33.75 24.42 31.42 24.71 29.08 C23.89 29.02 23.08 28.96 22.23 28.9 C21.15 28.81 20.08 28.73 18.96 28.64 C17.9 28.56 16.83 28.48 15.73 28.4 C12.71 28.08 12.71 28.08 10.51 27.48 C8.49 26.87 8.49 26.87 5.71 28.08 C6.04 28.82 6.37 29.57 6.71 30.33 C7.71 33.08 7.71 33.08 7.71 37.08 C6.13 37.31 4.55 37.51 2.96 37.71 C2.08 37.82 1.2 37.94 0.29 38.06 C-2.51 38.08 -3.92 37.53 -6.29 36.08 C-6.52 31.67 -6.6 28.39 -4.79 24.33 C-2.16 18.06 -2.78 11.04 -3.91 4.46 C-4.1 3.28 -4.1 3.28 -4.29 2.08 C-2.29 0.08 -2.29 0.08 0 0 Z " fill="#101110" transform="translate(376.28515625,313.91796875)"/>
<path d="M0 0 C4.48 2.67 7.08 6.83 9.38 11.41 C9.83 17.77 9.51 23.41 7.38 29.41 C8.49 29.79 8.49 29.79 9.62 30.16 C12.61 31.52 14.27 32.92 16.38 35.41 C16.38 36.07 16.38 36.73 16.38 37.41 C17.1 37.68 17.83 37.95 18.57 38.22 C21.38 39.41 23.68 40.82 26.19 42.54 C27.37 43.35 27.37 43.35 28.58 44.17 C29.17 44.58 29.77 44.99 30.38 45.41 C35.34 41.66 40.11 37.96 44.38 33.41 C44.7 34.4 45.03 35.39 45.38 36.41 C42.25 40.96 38.62 43.79 34.16 46.96 C31.91 48.79 30.82 50.94 29.38 53.41 C26.44 54.96 24.71 55.41 21.38 55.41 C21.38 54.42 21.38 53.43 21.38 52.41 C23.36 51.75 25.33 51.09 27.38 50.41 C25.91 46.72 24.05 45.24 20.75 43.1 C15.94 39.86 11.62 36.35 7.38 32.41 C6.57 31.67 5.77 30.93 4.94 30.16 C3.38 28.41 3.38 28.41 2.38 25.41 C-2.49 25.83 -5.12 28.22 -8.5 31.48 C-9.29 32.22 -9.29 32.22 -10.1 32.98 C-13.03 35.76 -15.74 38.61 -18.31 41.73 C-21.3 45.31 -24.61 47.62 -28.61 49.99 C-30.75 51.33 -30.75 51.33 -32.14 53.59 C-32.63 54.19 -33.12 54.79 -33.62 55.41 C-34.94 55.41 -36.26 55.41 -37.62 55.41 C-35.63 49.43 -30.52 46.54 -25.3 43.53 C-23.46 42.51 -23.46 42.51 -22.62 40.41 C-23.39 40.13 -24.15 39.84 -24.94 39.54 C-27.62 38.41 -27.62 38.41 -30.62 36.41 C-30.62 35.75 -30.62 35.09 -30.62 34.41 C-31.24 34.1 -31.86 33.8 -32.5 33.48 C-33.88 32.79 -35.25 32.1 -36.62 31.41 C-40.8 30.99 -42.96 30.99 -46.54 33.28 C-47.88 34.49 -47.88 34.49 -49.25 35.73 C-52.58 38.69 -55.73 41.24 -59.62 43.41 C-60.12 41.93 -60.12 41.93 -60.62 40.41 C-55.62 36.41 -55.62 36.41 -50.62 32.41 C-49.73 31.69 -48.84 30.96 -47.92 30.21 C-44.03 27.16 -41.58 27 -36.62 27.41 C-33.56 29.29 -33.56 29.29 -30.62 31.41 C-29.55 31.74 -28.48 32.07 -27.38 32.41 C-24.62 33.41 -24.62 33.41 -23.25 35.54 C-23.04 36.16 -22.84 36.78 -22.62 37.41 C-21.31 37.41 -19.99 37.41 -18.62 37.41 C-18.13 36.42 -18.13 36.42 -17.62 35.41 C-18.21 35.33 -18.79 35.24 -19.39 35.16 C-22.26 34.2 -23.38 32.83 -25.31 30.54 C-25.91 29.84 -26.52 29.14 -27.14 28.42 C-30.78 23.51 -30.27 17.24 -29.62 11.41 C-27.37 5.22 -23.12 1.77 -17.62 -1.59 C-11.29 -3.7 -5.99 -2.54 0 0 Z " fill="#0E0E07" transform="translate(253.625,77.5859375)"/>
<path d="M0 0 C14.45 0.88 30.16 7.43 41 17 C41 17.33 41 17.66 41 18 C39.91 18.27 38.81 18.54 37.69 18.81 C34.27 19.91 33.22 20.42 31 23 C30.34 23 29.68 23 29 23 C28 20.88 27 18.75 26 16.62 C25.44 15.44 24.89 14.26 24.31 13.04 C23 10 23 10 23 8 C16.4 10.97 9.8 13.94 3 17 C4.72 17.68 6.45 18.35 8.22 19.05 C10.5 19.95 12.78 20.85 15.06 21.75 C16.2 22.19 17.33 22.64 18.5 23.09 C27.96 26.85 27.96 26.85 32.05 29.3 C36.26 31.73 38.22 31.62 43 31 C45.97 29.16 45.97 29.16 48 27 C47.11 34.55 42.28 39.24 36.73 43.98 C22.21 54.71 4.63 58.54 -13 60 C-11.68 57.36 -10.36 54.72 -9 52 C-7.76 52.03 -6.52 52.07 -5.24 52.11 C-3.6 52.13 -1.95 52.16 -0.31 52.19 C0.5 52.21 1.32 52.24 2.16 52.26 C6.98 52.32 10.04 52.07 14 49 C12.56 44.09 10.46 40 7.88 35.62 C7.32 34.66 7.32 34.66 6.75 33.68 C5.84 32.12 4.92 30.56 4 29 C3.07 29.31 2.14 29.62 1.19 29.94 C-0.88 30.62 -2.94 31.31 -5 32 C-5 31.34 -5 30.68 -5 30 C-6.32 29.67 -7.64 29.34 -9 29 C-6.98 28.54 -4.96 28.09 -2.95 27.63 C-0.79 27.1 -0.79 27.1 1 25 C0.83 20.23 0.83 20.23 -1.55 16.28 C-2.03 15.86 -2.51 15.43 -3 15 C-1.55 13.99 -0.09 13 1.38 12 C2.19 11.44 3 10.89 3.84 10.31 C6 9 6 9 8 9 C7.24 8.26 6.47 7.51 5.69 6.75 C3.56 4.57 1.74 2.48 0 0 Z " fill="#F5F5F5" transform="translate(271,212)"/>
<path d="M0 0 C38.94 0 77.88 0 118 0 C118 28.38 118 56.76 118 86 C116.35 86.33 114.7 86.66 113 87 C110.44 89.21 108.36 91.57 106.19 94.16 C101.9 99.18 97.86 102.9 92 106 C91.22 105.4 91.22 105.4 90.43 104.79 C85.98 101.41 85.98 101.41 81.25 98.44 C78.52 96.69 77.02 94.52 75 92 C72.38 90.21 72.38 90.21 70 89 C70.67 84.33 71.33 79.67 72 75 C73.52 75.05 73.52 75.05 75.07 75.09 C78.84 75.2 82.6 75.32 86.36 75.43 C87.99 75.48 89.62 75.52 91.25 75.57 C93.59 75.64 95.93 75.71 98.27 75.78 C99 75.8 99.73 75.82 100.48 75.85 C103.32 75.93 106.16 76 109 76 C110.27 76.28 110.27 76.28 111.56 76.56 C114 77.25 114 77.25 116 76 C116.33 51.25 116.66 26.5 117 1 C78.39 1 39.78 1 0 1 C0 0.67 0 0.34 0 0 Z " fill="#CFC994" transform="translate(191,18)"/>
<path d="M0 0 C2.2 -0.01 4.4 -0.04 6.59 -0.07 C29.41 -0.24 54.81 5.16 71.78 21.32 C74.2 23.88 76.02 26.08 77.6 29.24 C77.18 31.41 77.18 31.41 76.6 33.24 C75.9 32.25 75.2 31.26 74.47 30.24 C66.69 21.1 53.06 16.19 41.97 12.68 C41.04 12.37 41.04 12.37 40.09 12.05 C27.96 8.2 15.58 7.84 2.97 7.87 C2.18 7.86 1.39 7.86 0.57 7.86 C-11.53 7.88 -22.75 8.76 -34.4 12.24 C-36.53 12.87 -38.65 13.49 -40.78 14.12 C-41.57 14.38 -42.36 14.65 -43.18 14.92 C-46.08 15.34 -47.8 14.5 -50.4 13.24 C-50.61 13.78 -50.82 14.33 -51.03 14.88 C-52.77 18.91 -53.61 20.85 -57.65 22.87 C-59.51 23.55 -59.51 23.55 -61.4 24.24 C-64.19 26.09 -66.79 28.15 -69.4 30.24 C-70.39 31.02 -71.38 31.81 -72.4 32.62 C-73.06 33.15 -73.72 33.69 -74.4 34.24 C-73.98 27.45 -68.68 22.26 -64.03 17.74 C-46.1 2.89 -22.39 0.06 0 0 Z " fill="#8EBE40" transform="translate(241.40185546875,198.759765625)"/>
<path d="M0 0 C42.24 0 84.48 0 128 0 C128 50.82 128 101.64 128 154 C85.76 154 43.52 154 0 154 C0 103.18 0 52.36 0 0 Z M2 1 C2 50.83 2 100.66 2 152 C42.92 152 83.84 152 126 152 C126 102.17 126 52.34 126 1 C85.08 1 44.16 1 2 1 Z " fill="#8E6820" transform="translate(186,14)"/>
<path d="M0 0 C6.7 -0.22 12.82 0.38 19.31 1.95 C19.98 2.11 20.64 2.26 21.33 2.42 C25.61 3.56 28.48 5.22 31.75 8.2 C31.46 10.94 31.02 11.97 28.87 13.76 C13.17 20.98 -5.89 21.24 -22.25 16.2 C-25.05 15.09 -26.83 14.06 -29.25 12.2 C-29.92 10.07 -29.92 10.07 -30.25 8.2 C-20.55 1.44 -11.6 0.71 0 0 Z " fill="#AFDCE2" transform="translate(310.25390625,287.80078125)"/>
<path d="M0 0 C10.15 -0.63 10.15 -0.63 13.69 2 C14.12 2.66 14.55 3.32 15 4 C14.67 2.68 14.34 1.36 14 0 C30.89 -0.37 30.89 -0.37 38 2 C36 6 34 10 32 14 C32.99 15.32 33.98 16.64 35 18 C30.25 21 30.25 21 28 21 C27.5 15.06 27.5 15.06 27 9 C21.5 8.91 21.5 8.91 16 9 C15.67 9.33 15.34 9.66 15 10 C18.63 10 22.26 10 26 10 C26.88 16.73 27.09 23.21 27 30 C21.39 30 15.78 30 10 30 C10.62 25.65 11.26 21.37 12.06 17.06 C12.24 16.1 12.42 15.15 12.6 14.16 C12.73 13.45 12.86 12.73 13 12 C10.69 12.33 8.38 12.66 6 13 C6.25 13.72 6.5 14.44 6.75 15.19 C7 18 7 18 5.06 20.81 C4.38 21.53 3.7 22.26 3 23 C-0.99 22.44 -3.53 21.24 -6.81 18.94 C-7.6 18.39 -8.39 17.84 -9.21 17.28 C-9.8 16.86 -10.39 16.43 -11 16 C-9.52 12.76 -7.67 10.07 -5.5 7.25 C-4.59 6.05 -4.59 6.05 -3.66 4.83 C-3.11 4.22 -2.56 3.62 -2 3 C-1.34 3 -0.68 3 0 3 C0 2.01 0 1.02 0 0 Z " fill="#151108" transform="translate(228,209)"/>
<path d="M0 0 C3.4 2.44 4.86 6.08 6.76 9.73 C7.19 10.49 7.61 11.26 8.06 12.05 C8.65 13.17 8.65 13.17 9.25 14.31 C9.61 14.99 9.97 15.67 10.35 16.37 C10.88 18.35 10.88 18.35 10.1 20.53 C8.58 22.81 7.46 23.45 4.88 24.35 C-1.13 24.95 -7.17 24.23 -13.12 23.35 C-13.22 24.09 -13.32 24.84 -13.43 25.6 C-14.21 28.73 -14.67 30.22 -17.12 32.35 C-20.97 32.92 -23.49 33.19 -26.97 31.4 C-29.63 29.41 -31 27.96 -31.62 24.66 C-31.12 22.35 -31.12 22.35 -29.12 20.35 C-34.07 20.02 -39.02 19.69 -44.12 19.35 C-42.41 15.09 -41.43 13.25 -38.49 10.04 C-37.86 9.34 -37.23 8.64 -36.58 7.93 C-36.1 7.41 -35.61 6.89 -35.12 6.35 C-31.86 9.52 -28.8 12.68 -26.12 16.35 C-26.12 17.01 -26.12 17.67 -26.12 18.35 C-23.48 18.35 -20.84 18.35 -18.12 18.35 C-18.63 17.61 -19.15 16.87 -19.68 16.1 C-21.12 13.35 -21.12 13.35 -20.95 11.35 C-19.3 7.4 -14.91 5.94 -11.3 3.98 C-10.48 3.5 -9.66 3.03 -8.82 2.54 C-8.02 2.1 -7.23 1.66 -6.41 1.2 C-5.68 0.8 -4.96 0.4 -4.21 -0.02 C-2.12 -0.65 -2.12 -0.65 0 0 Z " fill="#1B1811" transform="translate(275.116455078125,240.6484375)"/>
<path d="M0 0 C6.34 0.58 12.68 1.21 19 2 C19 15.2 19 28.4 19 42 C19.99 42 20.98 42 22 42 C22 42.99 22 43.98 22 45 C13.75 45 5.5 45 -3 45 C-3 44.01 -3 43.02 -3 42 C-2.01 42 -1.02 42 0 42 C0 28.14 0 14.28 0 0 Z " fill="#B5872B" transform="translate(27,444)"/>
<path d="M0 0 C0 3.2 -0.74 5.09 -2 8 C-1.22 8.31 -0.43 8.62 0.38 8.94 C3 10 3 10 5 11 C6.94 11.05 6.94 11.05 9.13 10.88 C9.94 10.83 10.74 10.78 11.57 10.73 C12.42 10.68 13.26 10.62 14.12 10.56 C14.97 10.51 15.82 10.46 16.7 10.4 C18.8 10.27 20.9 10.14 23 10 C23.99 12.64 24.98 15.28 26 18 C24.35 17.67 22.7 17.34 21 17 C21 25.25 21 33.5 21 42 C9.15 38.45 -4.79 33.28 -11.28 21.73 C-11.52 21.16 -11.75 20.59 -12 20 C-11.67 19.67 -11.34 19.34 -11 19 C-11.66 18.34 -12.32 17.68 -13 17 C-12.67 13.7 -12.38 12.38 -10 10 C-10 9.01 -10 8.02 -10 7 C-7.81 5.18 -7.81 5.18 -5 3.31 C-4.07 2.69 -3.14 2.07 -2.19 1.43 C-1.1 0.72 -1.1 0.72 0 0 Z " fill="#F3F3F3" transform="translate(182,225)"/>
<path d="M0 0 C3.11 0.14 6.23 0.29 9.44 0.44 C10.91 0.5 10.91 0.5 12.42 0.57 C13.57 0.63 13.57 0.63 14.75 0.68 C15.54 0.72 16.33 0.76 17.14 0.79 C19 1 19 1 20 2 C20.09 4.38 20.12 6.72 20.1 9.1 C20.1 9.81 20.09 10.52 20.09 11.25 C20.09 13.52 20.08 15.79 20.06 18.06 C20.06 19.6 20.05 21.14 20.05 22.67 C20.04 26.45 20.02 30.22 20 34 C21.49 34.5 21.49 34.5 23 35 C23 35.66 23 36.32 23 37 C14.42 37 5.84 37 -3 37 C-3 36.01 -3 35.02 -3 34 C-2.01 34 -1.02 34 0 34 C0 22.78 0 11.56 0 0 Z " fill="#AD8129" transform="translate(449,452)"/>
<path d="M0 0 C4.83 2.13 7.33 4.56 9.86 9.3 C11.03 12.83 11.06 15.61 10.86 19.3 C10.2 19.96 9.54 20.62 8.86 21.3 C8.15 21.06 7.45 20.81 6.73 20.55 C2.61 20.2 0.91 22.09 -2.22 24.6 C-3.89 26.08 -5.39 27.6 -6.89 29.24 C-8.01 30.26 -8.01 30.26 -9.14 31.3 C-12.42 30.97 -14.33 29.62 -16.77 27.49 C-17.36 26.99 -17.95 26.49 -18.56 25.97 C-21.41 22.97 -22.46 20.16 -22.58 16.05 C-22.44 10.79 -20.63 7.2 -17.14 3.3 C-12.07 -1.07 -6.28 -2.04 0 0 Z " fill="#F3A019" transform="translate(249.14453125,79.6953125)"/>
<path d="M0 0 C2.52 2.57 2.98 3.6 3.19 7.25 C3.09 8.61 3.09 8.61 3 10 C3.63 10.18 4.25 10.36 4.9 10.55 C5.72 10.8 6.53 11.05 7.38 11.31 C8.59 11.68 8.59 11.68 9.84 12.05 C12 13 12 13 14 16 C14.49 19.19 14.27 20.56 12.56 23.31 C8.81 25.79 5.37 25.34 1 25 C1.5 25.95 1.99 26.9 2.5 27.88 C4 31 4 31 4 33 C1.83 33.2 -0.33 33.38 -2.5 33.56 C-3.71 33.67 -4.91 33.77 -6.16 33.88 C-10 34 -10 34 -18 33 C-17.67 26.73 -17.34 20.46 -17 14 C-6.96 16.28 -6.96 16.28 -3.88 20.69 C-3.26 21.78 -2.64 22.87 -2 24 C-2.16 23.36 -2.33 22.72 -2.5 22.06 C-3 20 -3 20 -3 19 C-5.9 16.44 -8.34 14.32 -11.81 12.62 C-14 11 -14 11 -15.12 7.56 C-15 4 -15 4 -13.19 1.56 C-8.9 -0.54 -4.69 -1.08 0 0 Z " fill="#251E11" transform="translate(222,230)"/>
<path d="M0 0 C0.91 0.09 1.82 0.18 2.76 0.27 C17.06 1.75 31.3 3.74 45.55 5.66 C49.51 6.19 53.47 6.72 57.44 7.25 C65.15 8.28 72.87 9.31 80.58 10.35 C79.01 13.68 77.88 15.55 74.58 17.35 C61.66 18.3 47.87 14.88 35.17 12.9 C29.33 12 23.49 11.15 17.64 10.29 C6.62 8.66 -4.4 7.01 -15.42 5.35 C-9.88 -0.33 -7.73 -0.78 0 0 Z " fill="#3BB6E4" transform="translate(375.41796875,210.6484375)"/>
<path d="M0 0 C1.64 0.22 1.64 0.22 3.32 0.44 C6.55 0.87 9.79 1.33 13.02 1.8 C17.37 2.42 21.72 3.01 26.06 3.61 C34.36 4.75 42.65 5.91 50.95 7.09 C54.91 7.66 58.87 8.2 62.84 8.68 C63.54 8.77 64.23 8.85 64.95 8.94 C66.79 9.17 68.63 9.38 70.47 9.6 C73.31 10.12 73.31 10.12 76.31 12.12 C73.62 15.17 71.95 17 67.8 17.32 C64.66 17.08 61.57 16.67 58.45 16.2 C56.68 15.97 56.68 15.97 54.88 15.73 C52.34 15.39 49.8 15.04 47.26 14.68 C43.31 14.12 39.35 13.61 35.39 13.11 C27.98 12.17 20.58 11.19 13.18 10.21 C9.68 9.75 6.18 9.28 2.68 8.82 C-4.11 7.93 -10.9 7.03 -17.69 6.12 C-16.61 2.89 -15.52 1.64 -12.64 -0.14 C-8.52 -1.69 -4.25 -0.64 0 0 Z " fill="#3CB7E5" transform="translate(388.6875,202.875)"/>
<path d="M0 0 C0.66 0 1.32 0 2 0 C2.06 0.85 2.13 1.69 2.19 2.56 C2.97 9.8 4.12 14.34 9.25 19.61 C11.06 21.21 11.06 21.21 14 22 C13.34 23.32 12.68 24.64 12 26 C8.77 24.49 6.65 23.29 5 20 C4.44 19.88 3.89 19.75 3.31 19.62 C1 19 1 19 -1.81 16.94 C-5.66 14.6 -7.57 14.37 -12 15 C-16.97 17.59 -20.8 21.46 -24.85 25.29 C-27.04 27.03 -28.33 27.44 -31 28 C-31.09 24.04 -31.14 20.08 -31.19 16.12 C-31.21 15 -31.24 13.87 -31.26 12.71 C-31.27 11.63 -31.28 10.55 -31.29 9.45 C-31.31 8.45 -31.32 7.46 -31.34 6.43 C-31.23 5.63 -31.12 4.83 -31 4 C-27.51 1.67 -25.96 1.71 -21.84 1.62 C-20.63 1.59 -19.43 1.55 -18.19 1.52 C-16.93 1.49 -15.67 1.46 -14.38 1.44 C-11.88 1.38 -9.39 1.31 -6.9 1.25 C-5.24 1.21 -5.24 1.21 -3.54 1.17 C-1.07 1.28 -1.07 1.28 0 0 Z " fill="#CBCDA2" transform="translate(222,91)"/>
<path d="M0 0 C2.31 0.33 4.62 0.66 7 1 C9.03 5.33 9.52 9.29 10 14 C11.98 14.66 13.96 15.32 16 16 C16.27 15.38 16.54 14.76 16.81 14.12 C18 12 18 12 21 10 C21.73 7.44 21.73 7.44 22 5 C24.64 5 27.28 5 30 5 C30.81 7.91 31.22 9.46 30.06 12.31 C29.54 13.15 29.54 13.15 29 14 C27.35 14 25.7 14 24 14 C24.83 16.17 24.83 16.17 27 16.94 C29 18 29 18 30 21 C30.5 20.5 30.5 20.5 31 20 C33 19.96 35 19.96 37 20 C36.19 21.94 36.19 21.94 35 24 C34.01 24.33 33.02 24.66 32 25 C31.27 27.02 31.27 27.02 31 29 C30.34 29 29.68 29 29 29 C29 28.34 29 27.68 29 27 C28.34 27 27.68 27 27 27 C27 31.95 27 36.9 27 42 C26.01 41.5 26.01 41.5 25 41 C24.69 39.18 24.69 39.18 24.56 36.88 C23.98 30.54 23.98 30.54 21 25 C17.43 24.13 14.01 23.75 10.35 23.48 C6.83 22.97 5.68 22.17 3 20 C-0.62 19.99 -0.62 19.99 -4 21 C-6.14 24.2 -6.23 25.02 -6.12 28.69 C-6.11 29.5 -6.09 30.3 -6.07 31.14 C-6.05 31.75 -6.02 32.37 -6 33 C-7.32 32.67 -8.64 32.34 -10 32 C-9.72 30.42 -9.42 28.83 -9.12 27.25 C-8.96 26.37 -8.8 25.49 -8.63 24.58 C-8.02 22.09 -7.35 20.17 -6 18 C-5.13 17.5 -4.27 17.01 -3.38 16.5 C-2.59 16 -1.81 15.51 -1 15 C-1 13.68 -1 12.36 -1 11 C-1.66 10.67 -2.32 10.34 -3 10 C-3 9.34 -3 8.68 -3 8 C-2.5 7.57 -2.01 7.13 -1.5 6.69 C0.27 5.04 0.27 5.04 0.19 2.31 C0.13 1.55 0.06 0.79 0 0 Z " fill="#F7F7F7" transform="translate(381,317)"/>
<path d="M0 0 C0.99 0 1.98 0 3 0 C3 0.99 3 1.98 3 3 C3.66 3 4.32 3 5 3 C5 2.34 5 1.68 5 1 C8.72 2.24 9.63 3.96 12 7 C12.99 7.66 13.98 8.32 15 9 C15 9.66 15 10.32 15 11 C12.81 12.73 12.81 12.73 10 14.62 C9.07 15.26 8.14 15.89 7.19 16.54 C6.47 17.02 5.74 17.5 5 18 C5.97 18.91 5.97 18.91 6.96 19.84 C9 22 9 22 9.56 24.5 C8.74 28.15 7.12 29.02 4 31 C1.28 31.34 -1.01 31.47 -3.71 31.39 C-4.43 31.38 -5.16 31.38 -5.91 31.37 C-8.21 31.35 -10.51 31.3 -12.81 31.25 C-14.38 31.23 -15.95 31.21 -17.51 31.2 C-21.34 31.15 -25.17 31.08 -29 31 C-28.87 30.35 -28.74 29.7 -28.6 29.03 C-27.65 24.32 -26.72 19.61 -25.88 14.88 C-25.71 13.94 -25.54 13.01 -25.37 12.05 C-25.25 11.38 -25.12 10.7 -25 10 C-24.01 10.33 -23.02 10.66 -22 11 C-22.29 12.69 -22.58 14.38 -22.88 16.06 C-23.04 17 -23.2 17.94 -23.37 18.91 C-24.06 22.32 -25.05 25.66 -26 29 C-20.39 29 -14.78 29 -9 29 C-9.25 26.56 -9.25 26.56 -9.5 24.06 C-9.96 19.01 -10.08 14.07 -10 9 C-13.63 9 -17.26 9 -21 9 C-20.67 8.34 -20.34 7.68 -20 7 C-16.37 7.33 -12.74 7.66 -9 8 C-7.93 12.3 -7.93 15.6 -8 20 C-6.02 18.68 -4.04 17.36 -2 16 C-2.99 14.68 -3.98 13.36 -5 12 C-4.56 11.3 -4.11 10.6 -3.65 9.88 C-3.09 8.97 -2.52 8.06 -1.94 7.12 C-1.37 6.22 -0.8 5.32 -0.21 4.38 C0.39 3.2 0.39 3.2 1 2 C0.67 1.34 0.34 0.68 0 0 Z " fill="#1C1A13" transform="translate(264,210)"/>
<path d="M0 0 C38.94 0 77.88 0 118 0 C118 28.38 118 56.76 118 86 C116.51 85.5 116.51 85.5 115 85 C115.66 85 116.32 85 117 85 C117 84.34 117 83.68 117 83 C102.15 83 87.3 83 72 83 C72 80.36 72 77.72 72 75 C73.52 75.05 73.52 75.05 75.07 75.09 C78.84 75.2 82.6 75.32 86.36 75.43 C87.99 75.48 89.62 75.52 91.25 75.57 C93.59 75.64 95.93 75.71 98.27 75.78 C99 75.8 99.73 75.82 100.48 75.85 C103.32 75.93 106.16 76 109 76 C110.27 76.28 110.27 76.28 111.56 76.56 C114 77.25 114 77.25 116 76 C116.33 51.25 116.66 26.5 117 1 C78.39 1 39.78 1 0 1 C0 0.67 0 0.34 0 0 Z " fill="#9DB6AC" transform="translate(191,18)"/>
<path d="M0 0 C1.98 0.99 1.98 0.99 4 2 C5.28 2.58 5.28 2.58 6.58 3.17 C9.96 5.17 11.78 6.72 14 10 C15.86 17.35 16.23 26.88 13.15 33.94 C9.86 39.14 5.18 41.89 0 45 C0 30.15 0 15.3 0 0 Z " fill="#3DB9E7" transform="translate(449,236)"/>
<path d="M0 0 C1 2.12 2 4.25 3 6.38 C3.56 7.56 4.11 8.74 4.69 9.96 C6 13 6 13 6 15 C6.66 15 7.32 15 8 15 C8.33 14.01 8.66 13.02 9 12 C12.64 9.57 14.71 9.84 19 10 C19 10.66 19 11.32 19 12 C19.66 12.39 20.32 12.78 21 13.19 C23 15 23 15 23.44 18.56 C23.29 19.7 23.15 20.83 23 22 C19.35 24.43 16.23 24.84 12 24 C10.41 23.08 8.83 22.15 7.25 21.21 C2.27 18.53 -3.15 16.73 -8.44 14.75 C-9.65 14.29 -10.85 13.83 -12.1 13.36 C-15.06 12.23 -18.03 11.11 -21 10 C-19.71 7.43 -18.64 7.2 -16.04 6.05 C-15.24 5.7 -14.44 5.35 -13.61 4.98 C-12.77 4.62 -11.93 4.25 -11.06 3.88 C-10.23 3.5 -9.39 3.13 -8.53 2.75 C-2.27 0 -2.27 0 0 0 Z " fill="#211E17" transform="translate(294,220)"/>
<path d="M0 0 C1.29 -0 1.29 -0 2.6 -0 C14.38 0.01 26.05 0.38 37.79 1.4 C50.32 2.49 62.87 2.84 75.44 3.19 C75.44 3.52 75.44 3.85 75.44 4.19 C73.13 4.52 70.82 4.85 68.44 5.19 C68.44 5.85 68.44 6.51 68.44 7.19 C65.79 7.21 63.15 7.23 60.5 7.25 C59.76 7.26 59.03 7.27 58.27 7.28 C57.16 7.28 57.16 7.28 56.04 7.29 C55.37 7.29 54.71 7.3 54.02 7.3 C51.74 7.2 49.53 6.98 47.27 6.71 C42.37 6.15 37.48 5.87 32.55 5.66 C31.61 5.62 30.67 5.58 29.7 5.53 C17.66 5.03 5.61 4.84 -6.44 4.62 C-8.79 4.58 -11.15 4.54 -13.51 4.49 C-19.19 4.39 -24.88 4.29 -30.56 4.19 C-30.56 3.2 -30.56 2.21 -30.56 1.19 C-20.37 0.09 -10.24 -0.01 0 0 Z " fill="#222322" transform="translate(47.5625,405.8125)"/>
<path d="M0 0 C39.27 0 78.54 0 119 0 C117 3 117 3 114.66 3.51 C104.45 4.09 94.27 4.15 84.04 4.13 C82.13 4.13 80.21 4.13 78.29 4.14 C74.3 4.14 70.3 4.14 66.3 4.13 C61.22 4.12 56.14 4.13 51.06 4.13 C47.11 4.14 43.16 4.14 39.2 4.13 C37.33 4.13 35.46 4.13 33.59 4.14 C22.35 4.15 11.21 3.86 0 3 C0 2.01 0 1.02 0 0 Z " fill="#050505" transform="translate(116,410)"/>
<path d="M0 0 C4.79 0.58 8.25 2.64 12.31 5.06 C12.96 5.44 13.6 5.82 14.27 6.21 C15.85 7.13 17.42 8.06 19 9 C18.69 9.77 18.38 10.54 18.06 11.33 C17.36 13.1 16.69 14.89 16.06 16.69 C11.96 21.29 4.96 20.84 -0.88 21.31 C-4.34 20.97 -6.21 20.03 -9 18 C-7.65 13.46 -5.81 9.68 -3.38 5.62 C-2.74 4.57 -2.11 3.51 -1.46 2.41 C-0.74 1.22 -0.74 1.22 0 0 Z " fill="#F4A019" transform="translate(191,214)"/>
<path d="M0 0 C10 0.15 21.45 0.45 29 8 C28.88 9.99 28.88 9.99 28 12 C20.87 16.69 12.38 18.29 4 18 C1.93 12.07 0 6.32 0 0 Z " fill="#A9CED8" transform="translate(118,265)"/>
<path d="M0 0 C3.51 3.15 5.55 6.46 7.75 10.62 C8.36 11.77 8.98 12.92 9.61 14.1 C11 17 11 17 11 19 C6.35 21.69 2.22 21.19 -3 21 C-4.23 21.06 -4.23 21.06 -5.48 21.12 C-8.01 21.13 -9.68 21.04 -12 20 C-14.27 16.88 -15.69 13.62 -17 10 C-11.45 6.44 -5.79 3.15 0 0 Z " fill="#F5A019" transform="translate(273,242)"/>
<path d="M0 0 C8.91 0 17.82 0 27 0 C27 4.29 27 8.58 27 13 C18.09 13 9.18 13 0 13 C0 8.71 0 4.42 0 0 Z " fill="#F7F7F7" transform="translate(325,235)"/>
<path d="M0 0 C14.45 0.88 30.16 7.43 41 17 C41 17.33 41 17.66 41 18 C39.91 18.27 38.81 18.54 37.69 18.81 C34.27 19.91 33.22 20.42 31 23 C30.34 23 29.68 23 29 23 C28 20.88 27 18.75 26 16.62 C25.44 15.44 24.89 14.26 24.31 13.04 C23 10 23 10 23 8 C22.41 8.27 21.82 8.53 21.21 8.81 C18.54 10.02 15.86 11.23 13.19 12.44 C12.26 12.86 11.33 13.28 10.37 13.71 C9.03 14.32 9.03 14.32 7.67 14.93 C6.85 15.31 6.02 15.68 5.18 16.06 C3 17 3 17 0 18 C-0.99 17.01 -1.98 16.02 -3 15 C-1.55 13.99 -0.09 13 1.38 12 C2.19 11.44 3 10.89 3.84 10.31 C6 9 6 9 8 9 C7.24 8.26 6.47 7.51 5.69 6.75 C3.56 4.57 1.74 2.48 0 0 Z " fill="#F4F4F4" transform="translate(271,212)"/>
<path d="M0 0 C4.15 3.67 7.23 8.22 10 13 C10 13.66 10 14.32 10 15 C7.69 15 5.38 15 3 15 C3 23.58 3 32.16 3 41 C2.01 41 1.02 41 0 41 C0 42.98 0 44.96 0 47 C-0.99 47 -1.98 47 -3 47 C-2.67 36.44 -2.34 25.88 -2 15 C-4.64 15 -7.28 15 -10 15 C-7.09 9.62 -3.76 4.82 0 0 Z " fill="#030303" transform="translate(245,26)"/>
<path d="M0 0 C0.75 -0.02 1.49 -0.04 2.26 -0.06 C8.18 -0.1 12.18 1.09 16.77 5.05 C18.93 7.53 19.45 9.05 20.11 12.25 C20.33 13.26 20.54 14.28 20.77 15.33 C21.1 16.99 21.1 16.99 21.44 18.69 C21.95 21.1 22.45 23.52 22.96 25.93 C23.24 27.26 23.51 28.59 23.78 29.93 C24.77 34.68 25.81 39.42 26.85 44.16 C27.41 46.69 27.96 49.22 28.51 51.75 C28.88 53.41 29.25 55.08 29.61 56.75 C30.13 59.1 30.64 61.46 31.15 63.81 C31.3 64.52 31.46 65.23 31.62 65.96 C32.23 68.79 32.69 71.34 32.69 74.25 C31.7 74.25 30.71 74.25 29.69 74.25 C29.45 73.13 29.21 72.01 28.96 70.85 C23.47 45.06 23.47 45.06 17.25 19.44 C17.02 18.53 16.78 17.63 16.54 16.7 C15.13 11.27 15.13 11.27 12.69 6.25 C9.83 5.3 7.78 5.06 4.8 4.93 C3.86 4.89 2.93 4.85 1.96 4.81 C0.98 4.77 0.01 4.73 -1 4.69 C-1.99 4.64 -2.98 4.6 -3.99 4.56 C-6.43 4.45 -8.87 4.35 -11.31 4.25 C-11.31 3.26 -11.31 2.27 -11.31 1.25 C-7.52 -0.01 -3.95 0.03 0 0 Z " fill="#36A6D0" transform="translate(85.3125,208.75)"/>
<path d="M0 0 C1.84 5.65 2.55 11.09 3 17 C-3.98 17.65 -10.59 15.72 -17 13 C-19.39 10.86 -19.39 10.86 -21 9 C-19.63 5.62 -18.42 4.34 -15.12 2.81 C-14.45 2.49 -13.77 2.17 -13.07 1.83 C-8.62 0.04 -4.8 -0.09 0 0 Z " fill="#AACFD8" transform="translate(108,266)"/>
<path d="M0 0 C2.44 0.5 2.44 0.5 4.11 1.96 C7.29 4.06 10.48 4.31 14.19 4.69 C15.23 4.81 15.23 4.81 16.3 4.94 C18.01 5.13 19.72 5.32 21.44 5.5 C22.96 9.86 23.83 13.92 24.44 18.5 C24.93 19.99 24.93 19.99 25.44 21.5 C25.43 20.9 25.41 20.29 25.4 19.67 C25.39 18.87 25.38 18.07 25.38 17.25 C25.36 16.46 25.35 15.67 25.34 14.86 C25.43 12.59 25.81 10.67 26.44 8.5 C27.1 8.5 27.76 8.5 28.44 8.5 C28.44 9.16 28.44 9.82 28.44 10.5 C29.1 10.5 29.76 10.5 30.44 10.5 C30.53 9.66 30.53 9.66 30.62 8.81 C31.79 5.51 33.84 3.78 36.44 1.5 C37.1 1.5 37.76 1.5 38.44 1.5 C37.04 5.95 34.92 8.43 31.44 11.5 C29.46 12.49 29.46 12.49 27.44 13.5 C27.44 17.13 27.44 20.76 27.44 24.5 C20.77 23.17 20.77 23.17 17.44 20.5 C17.06 17.88 17.06 17.88 17.44 15.5 C17.77 15.17 18.1 14.84 18.44 14.5 C18.81 12.17 19.14 9.84 19.44 7.5 C18.62 7.44 17.8 7.38 16.95 7.32 C15.88 7.23 14.8 7.15 13.69 7.06 C12.62 6.98 11.55 6.9 10.45 6.82 C7.44 6.5 7.44 6.5 5.23 5.9 C3.21 5.29 3.21 5.29 0.44 6.5 C0.77 7.24 1.1 7.99 1.44 8.75 C2.44 11.5 2.44 11.5 2.44 15.5 C-0.86 15.83 -4.16 16.16 -7.56 16.5 C-6.9 16.17 -6.24 15.84 -5.56 15.5 C-5.78 14.42 -5.78 14.42 -6 13.31 C-6.19 12.38 -6.37 11.46 -6.56 10.5 C-6.85 9.68 -7.14 8.85 -7.44 8 C-7.56 5.5 -7.56 5.5 -5.44 2.69 C-2.56 0.5 -2.56 0.5 0 0 Z " fill="#2E2F2D" transform="translate(381.5625,335.5)"/>
<path d="M0 0 C3.96 0 7.92 0 12 0 C12.97 6.39 13.08 12.53 13 19 C7.39 19 1.78 19 -4 19 C-3.06 12.43 -1.66 6.41 0 0 Z " fill="#F4A019" transform="translate(242,220)"/>
<path d="M0 0 C15.18 0.33 30.36 0.66 46 1 C46 1.66 46 2.32 46 3 C37.68 8.49 29.32 8.17 19.56 8.12 C18.69 8.13 17.81 8.13 16.9 8.14 C10.88 8.13 4.98 7.71 -1 7 C-0.67 4.69 -0.34 2.38 0 0 Z " fill="#C6D0AF" transform="translate(262,100)"/>
<path d="M0 0 C2.11 2.11 2.58 3.25 3.51 6.03 C3.77 6.82 4.04 7.61 4.31 8.43 C4.58 9.26 4.85 10.08 5.12 10.94 C5.54 12.17 5.54 12.17 5.96 13.44 C8 19.61 8 19.61 8 23 C0.74 23 -6.52 23 -14 23 C-11.79 17.84 -10.25 14.64 -7 10.38 C-4.45 7.01 -2.11 3.66 0 0 Z " fill="#8E8F8F" transform="translate(461,369)"/>
<path d="M0 0 C0.66 0 1.32 0 2 0 C2.03 1.48 2.05 2.96 2.06 4.44 C2.07 5.26 2.09 6.08 2.1 6.93 C2 9 2 9 1 10 C-1.38 10.09 -3.72 10.12 -6.1 10.1 C-7.16 10.1 -7.16 10.1 -8.25 10.09 C-10.52 10.09 -12.79 10.08 -15.06 10.06 C-16.6 10.06 -18.14 10.05 -19.67 10.05 C-23.45 10.04 -27.22 10.02 -31 10 C-31.19 7.12 -31.19 7.12 -31 4 C-27.51 1.67 -25.96 1.71 -21.84 1.62 C-20.63 1.59 -19.43 1.55 -18.19 1.52 C-16.93 1.49 -15.67 1.46 -14.38 1.44 C-11.88 1.38 -9.39 1.31 -6.9 1.25 C-5.24 1.21 -5.24 1.21 -3.54 1.17 C-1.07 1.28 -1.07 1.28 0 0 Z " fill="#BAD2BF" transform="translate(222,91)"/>
<path d="M0 0 C16.83 0 33.66 0 51 0 C51 3.96 51 7.92 51 12 C35.16 12 19.32 12 3 12 C2.67 10.68 2.34 9.36 2 8 C17.84 8 33.68 8 50 8 C50 5.69 50 3.38 50 1 C33.5 1.33 17 1.66 0 2 C0 1.34 0 0.68 0 0 Z " fill="#9D9E9E" transform="translate(111,235)"/>
<path d="M0 0 C3.96 1.98 7.92 3.96 12 6 C11 11 11 11 9 14 C9.66 13.67 10.32 13.34 11 13 C12.54 12.93 14.08 12.92 15.62 12.94 C16.85 12.95 16.85 12.95 18.1 12.96 C19.04 12.98 19.04 12.98 20 13 C20 13.33 20 13.66 20 14 C19.3 14.12 18.6 14.24 17.88 14.37 C16.97 14.53 16.06 14.7 15.12 14.88 C13.77 15.12 13.77 15.12 12.38 15.37 C9.83 15.83 9.83 15.83 8 18 C8.32 21.6 8.32 21.6 9 25 C9.57 25.18 10.13 25.36 10.71 25.55 C11.45 25.8 12.18 26.05 12.94 26.31 C13.67 26.56 14.4 26.8 15.15 27.05 C17 28 17 28 18 31 C18.99 30.34 19.98 29.68 21 29 C20.81 29.91 20.63 30.81 20.44 31.75 C20.04 34.68 20.05 36.26 21 39 C18.66 36.74 16.81 34.72 15 32 C12.59 30.77 12.59 30.77 9.88 29.81 C8.96 29.47 8.05 29.12 7.12 28.77 C6.42 28.52 5.72 28.26 5 28 C5.01 28.95 5.02 29.91 5.04 30.89 C5.04 32.14 5.05 33.4 5.06 34.69 C5.07 35.93 5.09 37.17 5.1 38.45 C5.01 41.46 4.71 44.08 4 47 C6.64 47 9.28 47 12 47 C12 47.33 12 47.66 12 48 C7.55 48.5 7.55 48.5 3 49 C3 41.41 3 33.82 3 26 C4.32 26 5.64 26 7 26 C6.34 25.01 5.68 24.02 5 23 C5 21.68 5 20.36 5 19 C4.29 19.14 3.57 19.29 2.84 19.44 C-6.23 21.19 -12.08 22.17 -20 17 C-19.44 13.06 -18.32 10.25 -16 7 C-15.34 7 -14.68 7 -14 7 C-14.31 7.74 -14.62 8.49 -14.94 9.25 C-15.81 11.51 -16.48 13.65 -17 16 C-13.29 18.42 -10.32 18.07 -6 17.69 C-4.17 17.54 -4.17 17.54 -2.31 17.39 C-1.22 17.26 -0.13 17.13 1 17 C1.75 16.91 2.5 16.83 3.27 16.74 C5.86 15.63 6.49 13.91 7.75 11.44 C8.18 10.61 8.61 9.78 9.05 8.93 C9.36 8.3 9.68 7.66 10 7 C9.28 6.73 8.56 6.46 7.81 6.19 C5 5 2.52 3.73 0 2 C0 1.34 0 0.68 0 0 Z " fill="#191610" transform="translate(200,216)"/>
<path d="M0 0 C0 2 0 2 -2.19 4.25 C-3.12 5.16 -4.04 6.06 -5 7 C-8.6 10.5 -8.6 10.5 -10 15 C-7.54 16.64 -7.54 16.64 -5 18 C-5.33 18.99 -5.66 19.98 -6 21 C-6.66 20.67 -7.32 20.34 -8 20 C-9.87 19.93 -11.75 19.92 -13.62 19.94 C-15.13 19.95 -15.13 19.95 -16.66 19.96 C-17.43 19.98 -18.21 19.99 -19 20 C-18.69 19.24 -18.38 18.47 -18.06 17.69 C-17.32 15.81 -16.64 13.91 -16 12 C-16.7 11.73 -17.4 11.46 -18.12 11.19 C-21.16 9.93 -24.07 8.5 -27 7 C-26 5 -26 5 -24.15 4.31 C-23.35 4.11 -22.56 3.92 -21.74 3.71 C-20.87 3.49 -19.99 3.27 -19.1 3.05 C-18.18 2.83 -17.26 2.6 -16.31 2.38 C-15.41 2.15 -14.51 1.92 -13.59 1.68 C-8.97 0.54 -4.8 -0.3 0 0 Z " fill="#EFEFEF" transform="translate(228,210)"/>
<path d="M0 0 C16.89 -0.37 16.89 -0.37 24 2 C21 8 21 8 18 14 C18.99 15.32 19.98 16.64 21 18 C16.25 21 16.25 21 14 21 C13.67 17.04 13.34 13.08 13 9 C9.37 9 5.74 9 2 9 C1.86 7.89 1.71 6.77 1.56 5.62 C1.22 2.18 1.22 2.18 0 0 Z " fill="#F5F5F5" transform="translate(242,209)"/>
<path d="M0 0 C-0.66 0.66 -1.32 1.32 -2 2 C-0.68 2.66 0.64 3.32 2 4 C-18.79 4.99 -39.58 5.98 -61 7 C-60.67 6.34 -60.34 5.68 -60 5 C-60.66 4.34 -61.32 3.68 -62 3 C-41.35 1.22 -20.74 -0.29 0 0 Z " fill="#1C1D1D" transform="translate(294,406)"/>
<path d="M0 0 C-0.54 2.17 -1.09 4.34 -1.69 6.5 C-2.06 9.44 -1.43 10.48 0 13 C0 13.99 0 14.98 0 16 C-3.38 16.62 -3.38 16.62 -7 17 C-7.66 16.34 -8.32 15.68 -9 15 C-12.58 14.83 -12.58 14.83 -16 15 C-16.07 14.1 -16.07 14.1 -16.15 13.17 C-16.22 12.37 -16.3 11.57 -16.38 10.75 C-16.44 9.96 -16.51 9.17 -16.59 8.36 C-17.02 5.91 -17.79 4.15 -19 2 C-12.65 -0.31 -6.71 -0.2 0 0 Z " fill="#222322" transform="translate(436,321)"/>
<path d="M0 0 C6.15 1.25 9.92 2.02 13.5 7.38 C15.33 10.48 16.72 13.64 18 17 C11.93 17.9 6.14 18.09 0 18 C0 12.06 0 6.12 0 0 Z " fill="#F5A119" transform="translate(205,244)"/>
<path d="M0 0 C0 1.32 0 2.64 0 4 C-15.38 5.7 -30.53 6.26 -46 6 C-46 5.67 -46 5.34 -46 5 C-43.36 4.67 -40.72 4.34 -38 4 C-61.1 3.67 -84.2 3.34 -108 3 C-108 2.67 -108 2.34 -108 2 C-106.92 1.99 -105.85 1.98 -104.74 1.97 C-94.51 1.87 -84.29 1.77 -74.07 1.66 C-68.81 1.61 -63.56 1.55 -58.31 1.5 C-53.22 1.45 -48.14 1.4 -43.06 1.35 C-41.13 1.33 -39.21 1.31 -37.28 1.29 C-26.55 1.19 -15.88 0.92 -5.17 0.21 C-3.45 0.09 -1.73 0 0 0 Z " fill="#2D2E2D" transform="translate(477,405)"/>
<path d="M0 0 C1.78 0 1.78 0 3.6 0.01 C4.58 0.01 4.58 0.01 5.58 0.01 C7.75 0.01 9.92 0.01 12.09 0.02 C13.59 0.02 15.09 0.03 16.59 0.03 C20.55 0.03 24.51 0.04 28.46 0.05 C32.5 0.06 36.53 0.07 40.57 0.07 C48.49 0.08 56.41 0.1 64.34 0.12 C64.01 0.78 63.68 1.44 63.34 2.12 C57.97 3.05 52.71 3.26 47.27 3.23 C46.12 3.23 46.12 3.23 44.96 3.23 C42.47 3.23 39.98 3.23 37.49 3.22 C35.76 3.22 34.02 3.21 32.28 3.21 C27.73 3.21 23.18 3.2 18.63 3.19 C13.98 3.18 9.32 3.17 4.67 3.17 C-4.44 3.16 -13.55 3.14 -22.66 3.12 C-22.66 2.79 -22.66 2.46 -22.66 2.12 C-22.09 2.1 -21.52 2.07 -20.94 2.04 C-18.37 1.93 -15.8 1.81 -13.23 1.68 C-12.33 1.64 -11.43 1.6 -10.51 1.56 C-9.65 1.52 -8.8 1.48 -7.92 1.44 C-7.13 1.4 -6.34 1.36 -5.52 1.33 C-2.92 1.04 -2.89 0.13 0 0 Z " fill="#0C0D0C" transform="translate(375.66383361816406,407.87974548339844)"/>
<path d="M0 0 C0 3.2 -0.74 5.09 -2 8 C-1.01 8.33 -0.02 8.66 1 9 C2.52 12.05 2.24 14.64 2 18 C0.36 20.9 -1.14 21.04 -4.38 22 C-8 22 -8 22 -11 19.88 C-13 17 -13 17 -12.94 14.31 C-12 12 -12 12 -10 10 C-10 9.01 -10 8.02 -10 7 C-7.81 5.18 -7.81 5.18 -5 3.31 C-4.07 2.69 -3.14 2.07 -2.19 1.43 C-1.1 0.72 -1.1 0.72 0 0 Z " fill="#EF9D19" transform="translate(182,225)"/>
<path d="M0 0 C2.86 2.71 5.11 5.44 7.25 8.75 C7.77 9.55 8.29 10.35 8.83 11.17 C9.21 11.78 9.6 12.38 10 13 C8.02 15.31 6.04 17.62 4 20 C2.39 19.21 0.79 18.42 -0.81 17.62 C-1.71 17.18 -2.6 16.74 -3.52 16.29 C-6 15 -6 15 -9 13 C-7.51 9.72 -5.61 7.07 -3.38 4.25 C-2.74 3.45 -2.11 2.65 -1.46 1.83 C-0.98 1.22 -0.5 0.62 0 0 Z " fill="#EF9C18" transform="translate(189,238)"/>
<path d="M0 0 C0.09 5 -0.16 8.98 -1 14 C-5.62 14 -10.24 14 -15 14 C-15 5.68 -15 5.68 -10.93 1.31 C-7.5 -1.02 -3.97 -0.56 0 0 Z " fill="#EC9A18" transform="translate(303,245)"/>
<path d="M0 0 C2.06 1.12 2.06 1.12 3 3 C2.88 6.56 2.88 6.56 2 10 C-1.68 12.45 -4.72 12.7 -9 12 C-11.91 10.04 -12.79 8.91 -13.56 5.5 C-13 3 -13 3 -11 0.62 C-6.73 -1.69 -4.69 -1.14 0 0 Z " fill="#F29E19" transform="translate(220,231)"/>
<path d="M0 0 C1.57 0.09 1.57 0.09 3.17 0.18 C17.77 1 32.38 1.51 47 2 C47 2.33 47 2.66 47 3 C44.69 3.33 42.38 3.66 40 4 C40 4.66 40 5.32 40 6 C37.35 6.03 34.71 6.05 32.06 6.06 C31.33 6.07 30.59 6.08 29.83 6.09 C25.3 6.11 20.92 5.81 16.41 5.26 C11.77 4.76 7.1 4.63 2.44 4.44 C1.43 4.39 0.42 4.35 -0.62 4.31 C-3.08 4.2 -5.54 4.1 -8 4 C-8 3.67 -8 3.34 -8 3 C-5.36 2.67 -2.72 2.34 0 2 C0 1.34 0 0.68 0 0 Z " fill="#202020" transform="translate(76,407)"/>
<path d="M0 0 C0.86 0.1 1.72 0.19 2.61 0.29 C15.55 1.76 28.47 3.51 41.38 5.23 C44.93 5.7 48.48 6.17 52.03 6.64 C58.93 7.55 65.83 8.46 72.73 9.38 C69.58 11.26 67.64 11.56 64.01 11.14 C63.03 11.03 62.06 10.92 61.06 10.8 C59.96 10.66 58.86 10.53 57.73 10.38 C56.52 10.24 55.3 10.09 54.05 9.94 C49.81 9.42 45.58 8.87 41.35 8.32 C39.79 8.12 38.24 7.92 36.69 7.72 C32.63 7.19 28.58 6.67 24.53 6.14 C20.38 5.6 16.23 5.07 12.08 4.53 C3.96 3.49 -4.15 2.43 -12.27 1.38 C-8.05 -1.01 -4.67 -0.56 0 0 Z " fill="#0D2129" transform="translate(383.265625,209.6171875)"/>
<path d="M0 0 C0.66 0.33 1.32 0.66 2 1 C-2.8 11.36 -2.8 11.36 -7.38 13.81 C-8.57 14.2 -9.77 14.6 -11 15 C-13.79 16.84 -16.39 18.91 -19 21 C-19.99 21.78 -20.98 22.57 -22 23.38 C-22.66 23.91 -23.32 24.45 -24 25 C-23.56 18.03 -18.08 12.8 -13.19 8.31 C-9.2 4.97 -4.86 1.94 0 0 Z " fill="#87B838" transform="translate(191,208)"/>
<path d="M0 0 C2.19 2.75 3.78 5.4 5.19 8.62 C5.53 9.4 5.88 10.18 6.23 10.98 C7 13 7 13 7 15 C-0.12 12.96 -7.07 10.6 -14 8 C-11.5 5.09 -8.8 3.83 -5.31 2.31 C-4.32 1.88 -3.32 1.44 -2.3 0.99 C-1.54 0.66 -0.78 0.34 0 0 Z " fill="#EC9B18" transform="translate(292,222)"/>
<path d="M0 0 C1.29 2.56 2.59 5.12 3.88 7.69 C4.24 8.41 4.6 9.13 4.98 9.87 C6.82 13.53 8.56 17.16 10 21 C6.04 19.27 2.77 16.69 -0.62 14.06 C-1.21 13.62 -1.8 13.18 -2.4 12.72 C-5.13 10.62 -7.07 8.89 -9 6 C-7.88 4.99 -6.75 4 -5.62 3 C-4.69 2.16 -4.69 2.16 -3.73 1.31 C-2 0 -2 0 0 0 Z " fill="#3CB6E5" transform="translate(460,223)"/>
<path d="M0 0 C0.66 0 1.32 0 2 0 C2.67 1.75 3.34 3.5 4 5.25 C4.56 6.71 4.56 6.71 5.12 8.2 C6 11 6 11 6 15 C1.05 15 -3.9 15 -9 15 C-7.39 10.97 -5.94 8.17 -3.5 4.69 C-2.89 3.8 -2.28 2.92 -1.66 2.01 C-1.11 1.35 -0.56 0.68 0 0 Z " fill="#F4F4F4" transform="translate(458,374)"/>
<path d="M0 0 C0.99 0.5 0.99 0.5 2 1 C2.86 0.85 3.72 0.71 4.61 0.55 C8.53 -0.09 12.29 -0.02 16.24 0.12 C17.39 0.16 17.39 0.16 18.57 0.19 C21.01 0.27 23.44 0.35 25.88 0.44 C27.53 0.49 29.19 0.54 30.85 0.6 C34.9 0.72 38.95 0.86 43 1 C40.07 4.42 37.87 4.53 33.55 4.87 C29.22 5.09 24.9 5.14 20.56 5.12 C19.69 5.13 18.81 5.13 17.9 5.14 C11.88 5.13 5.98 4.71 0 4 C0 2.68 0 1.36 0 0 Z " fill="#CACCA2" transform="translate(261,103)"/>
<path d="M0 0 C0.33 0 0.66 0 1 0 C1 2.97 1 5.94 1 9 C9.25 9 17.5 9 26 9 C26 6.03 26 3.06 26 0 C26.33 0 26.66 0 27 0 C27 4.29 27 8.58 27 13 C18.09 13 9.18 13 0 13 C0 8.71 0 4.42 0 0 Z " fill="#949595" transform="translate(325,235)"/>
<path d="M0 0 C7.92 0 15.84 0 24 0 C21.95 4.09 21.07 4.93 17.38 7.25 C16.15 8.03 16.15 8.03 14.9 8.83 C13.96 9.41 13.96 9.41 13 10 C11.77 9.08 10.54 8.17 9.31 7.25 C8.63 6.74 7.94 6.23 7.24 5.7 C4.79 3.84 2.4 1.92 0 0 Z " fill="#D5BA72" transform="translate(270,114)"/>
<path d="M0 0 C3.5 0.81 3.5 0.81 5.5 2.06 C6.5 3.81 6.5 3.81 6.38 6.38 C5.5 8.81 5.5 8.81 2.5 10.81 C-1.18 11.28 -2.86 11.26 -5.94 9.12 C-7.5 6.81 -7.5 6.81 -7.44 4.19 C-5.87 0.22 -4.12 -0.22 0 0 Z " fill="#E89818" transform="translate(253.5,260.1875)"/>
<path d="M0 0 C3.52 2.33 4.94 6.01 6.85 9.68 C7.28 10.45 7.71 11.22 8.15 12.01 C8.54 12.75 8.94 13.5 9.34 14.27 C9.71 14.95 10.07 15.62 10.44 16.32 C10.98 18.31 10.98 18.31 10.19 20.48 C8.67 22.76 7.55 23.4 4.98 24.31 C-1.03 24.91 -7.07 24.19 -13.02 23.31 C-13.35 24.3 -13.68 25.29 -14.02 26.31 C-14.02 24.99 -14.02 23.67 -14.02 22.31 C-8.38 21.58 -2.97 21.22 2.72 21.37 C5.3 21.38 5.3 21.38 8.98 20.31 C5.68 14.37 2.38 8.43 -1.02 2.31 C-3.44 3.54 -3.44 3.54 -5.9 4.81 C-10.77 7.31 -10.77 7.31 -13.02 7.31 C-13.02 6.65 -13.02 5.99 -13.02 5.31 C-11.28 4.24 -9.53 3.21 -7.77 2.18 C-6.8 1.6 -5.82 1.02 -4.82 0.42 C-2.02 -0.69 -2.02 -0.69 0 0 Z " fill="#241F15" transform="translate(275.02294921875,240.6943359375)"/>
<path d="M0 0 C3.71 0.32 5 0.79 7.62 3.31 C6.88 8.06 6.88 8.06 4.62 10.31 C-2.41 10.87 -2.41 10.87 -5.44 9.12 C-6.38 7.31 -6.38 7.31 -6.19 4.75 C-4.91 0.92 -4.04 0.37 0 0 Z " fill="#F09D18" transform="translate(309.375,231.6875)"/>
<path d="M0 0 C2.44 1.75 2.44 1.75 4 4 C3.82 7.02 3.16 7.84 1 10 C-6.03 10.56 -6.03 10.56 -9.06 8.81 C-10 7 -10 7 -9.88 4.44 C-8.13 -0.42 -4.6 -0.56 0 0 Z " fill="#EE9C19" transform="translate(239,209)"/>
<path d="M0 0 C2.38 1.19 2.38 1.19 4 3 C4.38 5.56 4.38 5.56 4 8 C2 10 2 10 -0.09 10.27 C-0.89 10.26 -1.68 10.26 -2.5 10.25 C-3.29 10.26 -4.09 10.26 -4.91 10.27 C-7 10 -7 10 -9 8 C-9.36 5.19 -9.38 3.62 -7.88 1.19 C-5.12 -0.56 -3.2 -0.39 0 0 Z " fill="#F19E19" transform="translate(230,243)"/>
<path d="M0 0 C0.82 0 1.64 0 2.49 0 C3.36 0.01 4.24 0.01 5.14 0.02 C6.5 0.02 6.5 0.02 7.88 0.02 C10.77 0.03 13.65 0.04 16.53 0.05 C18.49 0.06 20.45 0.06 22.4 0.06 C27.2 0.08 31.99 0.09 36.78 0.11 C36.47 2.05 36.47 2.05 35.78 4.11 C32.56 5.19 31.88 4.98 28.78 4.11 C27.79 4.11 26.8 4.11 25.78 4.11 C23.28 4.05 20.77 3.97 18.27 3.89 C17.18 3.86 17.18 3.86 16.06 3.83 C13.74 3.76 11.42 3.69 9.09 3.61 C7.52 3.57 5.94 3.52 4.37 3.47 C0.5 3.35 -3.36 3.23 -7.22 3.11 C-7.55 2.45 -7.88 1.79 -8.22 1.11 C-5.41 0.32 -2.92 -0.01 0 0 Z " fill="#B5D8D1" transform="translate(271.2177734375,90.886474609375)"/>
<path d="M0 0 C2.38 1.5 2.38 1.5 4 3 C3.25 7.75 3.25 7.75 1 10 C-0.88 10.27 -0.88 10.27 -3 10.25 C-3.7 10.26 -4.4 10.26 -5.12 10.27 C-7 10 -7 10 -9 8 C-9.31 5 -9.31 5 -9 2 C-5.51 -0.33 -4.1 -0.42 0 0 Z " fill="#F4A019" transform="translate(267,229)"/>
<path d="M0 0 C3.8 1.49 5.84 3.55 8 7 C8 9.69 8 9.69 7 12 C5.2 13.29 5.2 13.29 3 14 C0.86 13.1 0.86 13.1 -1.25 11.62 C-1.96 11.14 -2.66 10.66 -3.39 10.16 C-3.92 9.78 -4.45 9.4 -5 9 C-3.75 5.54 -2.32 2.85 0 0 Z " fill="#EF9C18" transform="translate(225,216)"/>
<path d="M0 0 C0.99 3.3 1.98 6.6 3 10 C-0.85 10.65 -4.01 11.15 -7.88 10.56 C-11.27 8.07 -11.28 5.07 -12 1 C-10.68 1 -9.36 1 -8 1 C-7.67 1.66 -7.34 2.32 -7 3 C-4.98 3.65 -4.98 3.65 -3 4 C-3 3.01 -3 2.02 -3 1 C-4.32 0.67 -5.64 0.34 -7 0 C-5 -1 -5 -1 0 0 Z " fill="#EFEFEF" transform="translate(430,323)"/>
<path d="M0 0 C3.82 1.56 6.19 4.04 9 7 C6.03 9.31 3.06 11.62 0 14 C-1.65 13.01 -3.3 12.02 -5 11 C-4.47 6.49 -2.63 3.65 0 0 Z " fill="#F09D19" transform="translate(267,213)"/>
<path d="M0 0 C0 0.99 0 1.98 0 3 C-4.36 3.19 -8.72 3.37 -13.08 3.54 C-14.56 3.6 -16.05 3.66 -17.53 3.72 C-19.66 3.82 -21.79 3.9 -23.93 3.98 C-25.85 4.06 -25.85 4.06 -27.81 4.14 C-31 4 -31 4 -34 2 C-34 1.34 -34 0.68 -34 0 C-29.48 -0.17 -24.96 -0.33 -20.44 -0.48 C-18.9 -0.54 -17.36 -0.59 -15.82 -0.65 C-13.61 -0.73 -11.4 -0.81 -9.2 -0.88 C-8.51 -0.91 -7.82 -0.93 -7.11 -0.96 C-2.23 -1.11 -2.23 -1.11 0 0 Z " fill="#C6D1AF" transform="translate(225,101)"/>
<path d="M0 0 C1.21 0.01 2.42 0.01 3.67 0.02 C4.97 0.02 6.28 0.02 7.62 0.03 C9.01 0.03 10.4 0.04 11.79 0.05 C13.18 0.06 14.57 0.06 15.96 0.06 C19.38 0.08 22.8 0.09 26.22 0.11 C25.08 2.08 25.08 2.08 23.22 4.11 C20.62 4.62 20.62 4.62 17.53 4.61 C16.42 4.61 15.31 4.61 14.17 4.61 C13.01 4.59 11.86 4.57 10.66 4.55 C9.5 4.56 8.34 4.57 7.14 4.57 C0.74 4.52 0.74 4.52 -1.78 4.11 C-2.44 3.12 -3.1 2.13 -3.78 1.11 C-2.78 0.11 -2.78 0.11 0 0 Z " fill="#D3C487" transform="translate(271.775634765625,109.886474609375)"/>
<path d="M0 0 C0.72 0.1 1.44 0.21 2.19 0.31 C1.86 1.96 1.53 3.61 1.19 5.31 C0.2 5.64 -0.79 5.97 -1.81 6.31 C-0.82 8.95 0.17 11.59 1.19 14.31 C-1.78 14.97 -4.75 15.63 -7.81 16.31 C-7.15 15.98 -6.49 15.65 -5.81 15.31 C-6.03 14.23 -6.03 14.23 -6.25 13.12 C-6.44 12.2 -6.62 11.27 -6.81 10.31 C-7.1 9.49 -7.39 8.66 -7.69 7.81 C-7.81 5.31 -7.81 5.31 -5.69 2.5 C-2.81 0.31 -2.81 0.31 0 0 Z " fill="#76706A" transform="translate(381.8125,335.6875)"/>
<path d="M0 0 C0.33 0.66 0.66 1.32 1 2 C3.31 2 5.62 2 8 2 C8 10.58 8 19.16 8 28 C8.99 28 9.98 28 11 28 C11 19.42 11 10.84 11 2 C13.64 1.67 16.28 1.34 19 1 C19 1.66 19 2.32 19 3 C16.69 3 14.38 3 12 3 C12 11.58 12 20.16 12 29 C11.01 29 10.02 29 9 29 C9 30.98 9 32.96 9 35 C8.01 35 7.02 35 6 35 C6.33 24.44 6.66 13.88 7 3 C4.36 3 1.72 3 -1 3 C-0.67 2.01 -0.34 1.02 0 0 Z " fill="#475355" transform="translate(236,38)"/>
<path d="M0 0 C2.86 2.71 5.11 5.44 7.25 8.75 C7.77 9.55 8.29 10.35 8.83 11.17 C9.21 11.78 9.6 12.38 10 13 C8.02 15.31 6.04 17.62 4 20 C2.39 19.21 0.79 18.42 -0.81 17.62 C-1.71 17.18 -2.6 16.74 -3.52 16.29 C-6 15 -6 15 -9 13 C-7.51 9.72 -5.61 7.07 -3.38 4.25 C-2.74 3.45 -2.11 2.65 -1.46 1.83 C-0.98 1.22 -0.5 0.62 0 0 Z M0 3 C-1.22 4.31 -2.4 5.65 -3.56 7 C-4.2 7.74 -4.84 8.49 -5.5 9.25 C-6.24 10.12 -6.24 10.12 -7 11 C-4.53 13.55 -2.22 15.43 1 17 C4.04 16.74 4.81 16.19 7 14 C6.64 10.86 5.35 8.77 3.5 6.25 C3.06 5.64 2.61 5.02 2.16 4.39 C1.77 3.93 1.39 3.47 1 3 C0.67 3 0.34 3 0 3 Z " fill="#1D1A14" transform="translate(189,238)"/>
<path d="M0 0 C0.09 5 -0.16 8.98 -1 14 C-5.62 14 -10.24 14 -15 14 C-15 5.68 -15 5.68 -10.93 1.31 C-7.5 -1.02 -3.97 -0.56 0 0 Z M-10.88 4.75 C-13.36 7.91 -13.36 7.91 -13 12 C-9.37 12 -5.74 12 -2 12 C-2 8.7 -2 5.4 -2 2 C-6.41 1.38 -7.57 1.59 -10.88 4.75 Z " fill="#272520" transform="translate(303,245)"/>
<path d="M0 0 C0 3.2 -0.74 5.09 -2 8 C-1.01 8.33 -0.02 8.66 1 9 C2.52 12.05 2.24 14.64 2 18 C0.94 19.88 0.94 19.88 -1 21 C-4.69 21.69 -4.69 21.69 -8 22 C-6.38 18.75 -3.25 18.3 0 17 C-0.38 13.71 -0.38 13.71 -2 11 C-3.51 10.61 -5.03 10.26 -6.56 9.94 C-7.39 9.76 -8.22 9.58 -9.07 9.4 C-9.7 9.27 -10.34 9.14 -11 9 C-7.57 5.36 -4.2 2.64 0 0 Z " fill="#1C1A12" transform="translate(182,225)"/>
<path d="M0 0 C2.31 -0.25 2.31 -0.25 5 0 C7.65 2.38 7.98 3.67 8.19 7.25 C8.13 8.16 8.06 9.06 8 10 C10.97 10.99 13.94 11.98 17 13 C17 13.99 17 14.98 17 16 C16.46 15.67 15.93 15.34 15.38 15 C11.7 13.45 8.5 13.46 4.75 14.81 C2.7 16.04 2.7 16.04 1 19 C-0.65 17.02 -2.3 15.04 -4 13 C-1.36 12.34 1.28 11.68 4 11 C4.94 7.7 4.94 7.7 5 4 C2.7 1.51 2.7 1.51 0 0 Z " fill="#2B2B28" transform="translate(217,230)"/>
<path d="M0 0 C9.24 0 18.48 0 28 0 C28 0.99 28 1.98 28 3 C18.76 3 9.52 3 0 3 C0 2.01 0 1.02 0 0 Z " fill="#161717" transform="translate(266,94)"/>
<path d="M0 0 C9.24 0 18.48 0 28 0 C28 0.99 28 1.98 28 3 C18.76 3 9.52 3 0 3 C0 2.01 0 1.02 0 0 Z " fill="#161717" transform="translate(194,94)"/>
<path d="M0 0 C7.16 5.83 13.53 12.44 20 19 C19.67 19.99 19.34 20.98 19 22 C11.84 16.17 5.47 9.56 -1 3 C-0.67 2.01 -0.34 1.02 0 0 Z " fill="#141514" transform="translate(209,59)"/>
<path d="M0 0 C0.66 0.33 1.32 0.66 2 1 C0.54 4.36 -1.31 6.55 -3.91 9.11 C-4.67 9.86 -5.44 10.62 -6.22 11.39 C-7.01 12.17 -7.81 12.95 -8.62 13.75 C-9.43 14.54 -10.23 15.34 -11.05 16.15 C-13.03 18.11 -15.01 20.06 -17 22 C-17.66 21.67 -18.32 21.34 -19 21 C-17.54 17.64 -15.69 15.45 -13.09 12.89 C-12.33 12.14 -11.56 11.38 -10.78 10.61 C-9.99 9.83 -9.19 9.05 -8.38 8.25 C-7.57 7.46 -6.77 6.66 -5.95 5.85 C-3.97 3.89 -1.99 1.94 0 0 Z " fill="#141515" transform="translate(278,59)"/>
<path d="M0 0 C3 2 3 2 3.43 4.15 C3.46 5.02 3.48 5.89 3.51 6.79 C3.55 7.73 3.58 8.67 3.62 9.64 C3.64 10.63 3.66 11.61 3.69 12.62 C3.72 13.62 3.76 14.61 3.79 15.63 C3.87 18.09 3.94 20.54 4 23 C2.04 22.11 2.04 22.11 0 21 C-0.61 19.22 -0.61 19.22 -0.75 17.06 C-0.8 16.27 -0.86 15.48 -0.91 14.66 C-1.23 4.82 -1.23 4.82 -1 1 C-0.67 0.67 -0.34 0.34 0 0 Z " fill="#1A1A1A" transform="translate(282,341)"/>
<path d="M0 0 C9.24 0 18.48 0 28 0 C27 2 27 2 25.28 2.62 C22.67 3.06 20.22 3.11 17.58 3.1 C16.55 3.09 15.53 3.09 14.47 3.09 C13.41 3.08 12.35 3.07 11.25 3.06 C10.17 3.06 9.09 3.05 7.98 3.05 C5.32 3.04 2.66 3.02 0 3 C0 2.01 0 1.02 0 0 Z " fill="#000000" transform="translate(17,407)"/>
<path d="M0 0 C0.34 2.21 0.67 4.42 1 6.62 C1.19 7.85 1.37 9.08 1.56 10.35 C1.95 13.62 2.08 16.72 2 20 C-0.25 17.13 -2.11 14.22 -3.81 11 C-4.27 10.15 -4.73 9.31 -5.21 8.44 C-6 6 -6 6 -5.32 3.81 C-2.54 0 -2.54 0 0 0 Z " fill="#3BB3E1" transform="translate(467,216)"/>
<path d="M0 0 C0.66 0 1.32 0 2 0 C1.53 4.27 -1.03 6.1 -4 9 C-5.3 11.17 -5.3 11.17 -6 13 C-4.92 13.43 -4.92 13.43 -3.81 13.88 C-1.21 14.92 1.4 15.96 4 17 C5.32 15.35 6.64 13.7 8 12 C8.33 12.99 8.66 13.98 9 15 C7.06 17.69 7.06 17.69 5 20 C1.01 19.44 -1.53 18.24 -4.81 15.94 C-5.6 15.39 -6.39 14.84 -7.21 14.28 C-7.8 13.86 -8.39 13.43 -9 13 C-7.52 9.76 -5.67 7.07 -3.5 4.25 C-2.89 3.45 -2.28 2.65 -1.66 1.83 C-1.11 1.22 -0.56 0.62 0 0 Z " fill="#27251F" transform="translate(226,212)"/>
<path d="M0 0 C1.32 0 2.64 0 4 0 C4.33 0.99 4.66 1.98 5 3 C3.35 4.32 1.7 5.64 0 7 C1.33 11.73 3.4 15.65 5.88 19.85 C6.96 21.91 7.54 23.73 8 26 C7.01 26 6.02 26 5 26 C3.83 23.71 2.66 21.42 1.5 19.12 C1.17 18.47 0.83 17.82 0.49 17.15 C-2 12.23 -2 12.23 -2 10 C-2.66 9.67 -3.32 9.34 -4 9 C-2.77 5.31 -1.06 4.28 2 2 C1.34 1.34 0.68 0.68 0 0 Z " fill="#0F262F" transform="translate(462,213)"/>
<path d="M0 0 C3.96 0 7.92 0 12 0 C8.84 3.26 5.67 6.32 2 9 C1.34 9 0.68 9 0 9 C0 6.03 0 3.06 0 0 Z " fill="#CFC085" transform="translate(191,110)"/>
<path d="M0 0 C0.99 0.33 1.98 0.66 3 1 C2.71 2.69 2.42 4.38 2.12 6.06 C1.96 7 1.8 7.94 1.63 8.91 C0.94 12.32 -0.05 15.66 -1 19 C4.61 19 10.22 19 16 19 C16.33 17.68 16.66 16.36 17 15 C17 16.65 17 18.3 17 20 C10.73 20 4.46 20 -2 20 C-2.92 14.5 -2.88 12.33 -1.56 7.19 C-1.28 6.05 -0.99 4.91 -0.69 3.73 C-0.46 2.83 -0.24 1.93 0 1 C0 0.67 0 0.34 0 0 Z " fill="#3D2F18" transform="translate(239,220)"/>
<path d="M0 0 C0.99 0.33 1.98 0.66 3 1 C4.05 4.98 3.84 7.98 3 12 C-1.88 11.12 -1.88 11.12 -3 10 C-3.47 5.75 -2.39 3.49 0 0 Z " fill="#3A3B30" transform="translate(402,346)"/>
<path d="M0 0 C2.65 2.58 4.94 4.92 7 8 C2.71 8 -1.58 8 -6 8 C-2.25 2.25 -2.25 2.25 0 0 Z " fill="#EA9918" transform="translate(240,250)"/>
<path d="M0 0 C0.33 0.99 0.66 1.98 1 3 C-4.94 4.32 -10.88 5.64 -17 7 C-15 3 -15 3 -13.05 1.95 C-8.57 0.58 -4.74 -0.36 0 0 Z " fill="#0E0E0C" transform="translate(221,208)"/>
<path d="M0 0 C0.33 0 0.66 0 1 0 C1.99 5.28 2.98 10.56 4 16 C3.34 16 2.68 16 2 16 C2 16.66 2 17.32 2 18 C1.34 18 0.68 18 0 18 C-2.91 5.82 -2.91 5.82 0 0 Z " fill="#0F1110" transform="translate(111,265)"/>
<path d="M0 0 C2.65 2.58 4.94 4.92 7 8 C4 8 4 8 1.81 6 C0.92 5.01 0.92 5.01 0 4 C-1.98 6.31 -3.96 8.62 -6 11 C-3.69 11.33 -1.38 11.66 1 12 C1 12.33 1 12.66 1 13 C-2.3 13 -5.6 13 -9 13 C-7.48 7.6 -3.73 4.02 0 0 Z " fill="#2F2C25" transform="translate(240,247)"/>
<path d="M0 0 C-3.95 2.65 -7.99 2.3 -12.56 2.25 C-13.33 2.26 -14.1 2.27 -14.89 2.27 C-18.77 2.26 -20.7 2.2 -24 0 C-16.09 -1.71 -7.93 -1.41 0 0 Z " fill="#DADADA" transform="translate(323,305)"/>
<path d="M0 0 C2.04 1.62 4.04 3.29 6 5 C6.99 5.33 7.98 5.66 9 6 C8.34 7.32 7.68 8.64 7 10 C3.77 8.49 1.65 7.29 0 4 C-2.02 3.35 -2.02 3.35 -4 3 C-3 1 -3 1 0 0 Z " fill="#BCAE78" transform="translate(227,107)"/>
<path d="M0 0 C0.66 0 1.32 0 2 0 C2.29 0.97 2.58 1.94 2.88 2.94 C3.64 6.11 3.64 6.11 6 7 C9.38 7.14 11.77 7.08 15 6 C15 5.34 15 4.68 15 4 C15.66 4 16.32 4 17 4 C16 6 15 8 14 10 C6.23 10.67 6.23 10.67 2.5 7.81 C0 5 0 5 -0.38 2.19 C-0.25 1.47 -0.13 0.74 0 0 Z " fill="#22211D" transform="translate(244,263)"/>
<path d="M0 0 C1.78 0.03 1.78 0.03 3.59 0.07 C5.37 0.1 5.37 0.1 7.19 0.12 C8.1 0.15 9.02 0.17 9.96 0.2 C9.65 2.13 9.65 2.13 8.96 4.2 C5.74 5.27 5.06 5.07 1.96 4.2 C0.97 4.2 -0.02 4.2 -1.04 4.2 C-3.23 3.2 -3.23 3.2 -5.04 2.2 C-3.04 0.2 -3.04 0.2 0 0 Z " fill="#BADED7" transform="translate(298.0390625,90.8046875)"/>
<path d="M0 0 C0.99 0.66 1.98 1.32 3 2 C3 2.66 3 3.32 3 4 C5.31 4 7.62 4 10 4 C10 4.33 10 4.66 10 5 C2.38 7 2.38 7 -1 7 C-0.67 6.67 -0.34 6.34 0 6 C-4.29 5.34 -8.58 4.68 -13 4 C-13 3.67 -13 3.34 -13 3 C-6.56 2.5 -6.56 2.5 0 2 C0 1.34 0 0.68 0 0 Z " fill="#090A09" transform="translate(246,255)"/>
<path d="M0 0 C0.66 0 1.32 0 2 0 C2.5 1.94 3 3.87 3.5 5.81 C3.78 6.89 4.06 7.97 4.34 9.08 C5 12 5 12 5 15 C4.01 15 3.02 15 2 15 C0.74 9.93 -0.27 5.27 0 0 Z " fill="#36A7D1" transform="translate(113,268)"/>
<path d="M0 0 C0.99 0 1.98 0 3 0 C2.47 5.35 0.53 9.36 -2 14 C-1.01 14.33 -0.02 14.66 1 15 C0.67 15.99 0.34 16.98 0 18 C-0.99 17.67 -1.98 17.34 -3 17 C-3 16.34 -3 15.68 -3 15 C-3.66 14.01 -4.32 13.02 -5 12 C-4.56 11.3 -4.11 10.6 -3.65 9.88 C-2.8 8.52 -2.8 8.52 -1.94 7.12 C-1.37 6.22 -0.8 5.32 -0.21 4.38 C0.19 3.6 0.59 2.81 1 2 C0.67 1.34 0.34 0.68 0 0 Z " fill="#2B271E" transform="translate(264,210)"/>
<path d="M0 0 C4.95 0 9.9 0 15 0 C13 3 13 3 10.72 3.55 C9.41 3.65 9.41 3.65 8.06 3.75 C6.75 3.87 6.75 3.87 5.41 3.98 C3 4 3 4 0 3 C0 2.01 0 1.02 0 0 Z " fill="#CFC994" transform="translate(191,107)"/>
<path d="M0 0 C0.66 0.33 1.32 0.66 2 1 C2 1.66 2 2.32 2 3 C1.01 3.77 1.01 3.77 0 4.56 C-2.95 8.16 -2.34 11.52 -2 16 C-3.32 15.67 -4.64 15.34 -6 15 C-5.72 13.42 -5.42 11.83 -5.12 10.25 C-4.96 9.37 -4.8 8.49 -4.63 7.58 C-4.03 5.1 -3.32 3.17 -2 1 C-1.34 0.67 -0.68 0.34 0 0 Z " fill="#E5E5E5" transform="translate(377,334)"/>
<path d="M0 0 C0.33 1.32 0.66 2.64 1 4 C2.26 3.93 3.53 3.86 4.83 3.78 C6.49 3.69 8.15 3.59 9.81 3.5 C10.65 3.45 11.48 3.4 12.34 3.36 C13.14 3.31 13.94 3.27 14.77 3.22 C15.51 3.18 16.25 3.13 17.01 3.09 C18.67 3.02 20.34 3 22 3 C22 3.66 22 4.32 22 5 C7.4 6.33 7.4 6.33 0 5 C0 3.35 0 1.7 0 0 Z " fill="#483619" transform="translate(204,258)"/>
<path d="M0 0 C0.33 0 0.66 0 1 0 C1.2 6.71 1.31 12.65 -1 19 C-2.32 19.33 -3.64 19.66 -5 20 C-4.61 17.19 -4.33 15.4 -2.5 13.19 C-0.63 10.45 -0.51 8.53 -0.31 5.25 C-0.25 4.27 -0.18 3.28 -0.11 2.27 C-0.08 1.52 -0.04 0.77 0 0 Z " fill="#212222" transform="translate(371,320)"/>
<path d="M0 0 C0 3.2 -0.74 5.09 -2 8 C-1.01 8.33 -0.02 8.66 1 9 C-1.55 10.27 -2.43 9.8 -5.12 9.06 C-5.85 8.87 -6.57 8.67 -7.32 8.47 C-7.87 8.32 -8.43 8.16 -9 8 C-6.35 4.37 -3.98 2.1 0 0 Z " fill="#D7D8D8" transform="translate(182,225)"/>
<path d="M0 0 C0.66 0 1.32 0 2 0 C1.69 0.74 1.38 1.49 1.06 2.25 C0.19 4.51 -0.48 6.65 -1 9 C2.67 10.96 5.87 12.39 10 13 C10 13.33 10 13.66 10 14 C3.88 14.5 0.98 13.25 -4 10 C-3.44 6.06 -2.32 3.25 0 0 Z " fill="#211F1A" transform="translate(184,223)"/>
<path d="M0 0 C4.62 0 9.24 0 14 0 C14.33 1.32 14.66 2.64 15 4 C12.81 4.69 12.81 4.69 10 5 C7.5 3.62 7.5 3.62 5 2 C2.31 1.29 2.31 1.29 0 1 C0 0.67 0 0.34 0 0 Z " fill="#BEBF99" transform="translate(212,104)"/>
<path d="M0 0 C0 3.3 0 6.6 0 10 C-2.64 8.35 -5.28 6.7 -8 5 C-3 0 -3 0 0 0 Z " fill="#A1C1C9" transform="translate(147,280)"/>
<path d="M0 0 C0 2.97 0 5.94 0 9 C-2.97 7.35 -5.94 5.7 -9 4 C-3 0 -3 0 0 0 Z " fill="#A8D3D9" transform="translate(342,304)"/>
<path d="M0 0 C3.96 1.98 7.92 3.96 12 6 C11.1 10.48 10.75 11.77 8 15 C7.67 14.01 7.34 13.02 7 12 C8.44 9.31 8.44 9.31 10 7 C9.28 6.73 8.56 6.46 7.81 6.19 C5 5 2.52 3.73 0 2 C0 1.34 0 0.68 0 0 Z " fill="#1E1C16" transform="translate(200,216)"/>
<path d="M0 0 C0.99 0.5 0.99 0.5 2 1 C3.07 4.21 3.17 6.63 3.19 10 C3.2 11.05 3.22 12.1 3.23 13.19 C3 16 3 16 1 19 C-0.01 14.84 -0.1 10.96 -0.06 6.69 C-0.05 5.43 -0.04 4.18 -0.04 2.89 C-0.02 1.46 -0.02 1.46 0 0 Z " fill="#B1B2B1" transform="translate(371,318)"/>
<path d="M0 0 C0.66 0 1.32 0 2 0 C1.52 4.28 -1.03 6.1 -4 9 C-5.05 10.63 -6.07 12.29 -7 14 C-7.66 13.67 -8.32 13.34 -9 13 C-7.52 9.76 -5.67 7.07 -3.5 4.25 C-2.89 3.45 -2.28 2.65 -1.66 1.83 C-1.11 1.22 -0.56 0.62 0 0 Z " fill="#2C281F" transform="translate(226,212)"/>
<path d="M0 0 C0.79 0.22 1.58 0.44 2.39 0.67 C3.19 0.88 3.99 1.09 4.81 1.31 C5.72 1.58 5.72 1.58 6.64 1.86 C5.65 2.19 4.66 2.52 3.64 2.86 C3.64 3.52 3.64 4.18 3.64 4.86 C0.34 4.2 -2.96 3.54 -6.36 2.86 C-2.36 -0.14 -2.36 -0.14 0 0 Z " fill="#10110E" transform="translate(278.359375,209.14453125)"/>
<path d="M0 0 C0.66 0 1.32 0 2 0 C3.29 4.12 4.26 7.67 4 12 C3.34 12 2.68 12 2 12 C0.41 7.82 -0.21 4.47 0 0 Z " fill="#3AB0DE" transform="translate(105,233)"/>
<path d="M0 0 C3.72 1.24 4.63 2.96 7 6 C7.99 6.66 8.98 7.32 10 8 C10 8.66 10 9.32 10 10 C9.01 10.33 8.02 10.66 7 11 C6.77 10.42 6.55 9.84 6.31 9.25 C5.06 6.79 5.06 6.79 2.38 4.94 C1.59 4.3 0.81 3.66 0 3 C0 2.01 0 1.02 0 0 Z " fill="#302E28" transform="translate(269,211)"/>
<path d="M0 0 C0.99 0.5 0.99 0.5 2 1 C2 2.98 2 4.96 2 7 C2.66 7 3.32 7 4 7 C4 5.02 4 3.04 4 1 C5.56 2.75 5.56 2.75 7 5 C6.69 7.25 6.69 7.25 6 9 C4.33 9.04 2.67 9.04 1 9 C0 8 0 8 -0.1 6.15 C-0.07 4.1 -0.03 2.05 0 0 Z " fill="#2B2C2B" transform="translate(370,342)"/>
<path d="M0 0 C2.31 0 4.62 0 7 0 C7.33 0.66 7.66 1.32 8 2 C7.34 2 6.68 2 6 2 C5.67 2.99 5.34 3.98 5 5 C3.04 6.4 1.05 7.74 -1 9 C-1 6 -1 6 1.5 3.31 C2.32 2.55 3.15 1.79 4 1 C2.68 0.67 1.36 0.34 0 0 Z " fill="#08161A" transform="translate(452,220)"/>
<path d="M0 0 C2.47 0.99 2.47 0.99 5 2 C5 5 5 5 2.5 7.69 C1.68 8.45 0.85 9.21 0 10 C0 6.7 0 3.4 0 0 Z " fill="#D0D1D1" transform="translate(183,235)"/>
<path d="M0 0 C-1.67 1.67 -3.33 3.33 -5 5 C-6.65 3.02 -8.3 1.04 -10 -1 C-5.92 -1.93 -3.58 -2.34 0 0 Z " fill="#635D52" transform="translate(223,244)"/>
<path d="M0 0 C2.31 -0.25 2.31 -0.25 5 0 C7.65 2.38 7.98 3.67 8.19 7.25 C8.13 8.16 8.06 9.06 8 10 C7.01 9.67 6.02 9.34 5 9 C5.15 7.89 5.15 7.89 5.31 6.75 C5.27 3.75 5.27 3.75 2.5 1.69 C1.68 1.13 0.85 0.57 0 0 Z " fill="#292317" transform="translate(217,230)"/>
<path d="M0 0 C1.34 0.32 2.67 0.66 4 1 C6.66 1.38 9.33 1.69 12 2 C12 2.33 12 2.66 12 3 C6.39 3 0.78 3 -5 3 C-3.68 2.34 -2.36 1.68 -1 1 C-0.67 0.67 -0.34 0.34 0 0 Z " fill="#0E0F0E" transform="translate(45,407)"/>
<path d="M0 0 C-2 2 -2 2 -5 2.81 C-8.21 3.71 -8.21 3.71 -9.38 6.62 C-9.58 7.41 -9.79 8.19 -10 9 C-10.33 9 -10.66 9 -11 9 C-11.48 3.58 -11.48 3.58 -9.44 1.12 C-6.2 -0.37 -3.52 -0.2 0 0 Z " fill="#1D1C18" transform="translate(313,230)"/>
<path d="M0 0 C0.33 0 0.66 0 1 0 C1 2.64 1 5.28 1 8 C-0.65 7.67 -2.3 7.34 -4 7 C-3.67 5.35 -3.34 3.7 -3 2 C-2.01 3.49 -2.01 3.49 -1 5 C-0.67 3.35 -0.34 1.7 0 0 Z " fill="#4B4C4C" transform="translate(408,352)"/>
<path d="M0 0 C-0.33 1.32 -0.66 2.64 -1 4 C-2.65 4 -4.3 4 -6 4 C-6 3.01 -6 2.02 -6 1 C-4 0 -4 0 0 0 Z " fill="#D2B1B3" transform="translate(384,337)"/>
<path d="M0 0 C0.66 0 1.32 0 2 0 C2 1.32 2 2.64 2 4 C3.32 4.66 4.64 5.32 6 6 C5.34 6.66 4.68 7.32 4 8 C1.29 6.39 -1.37 4.75 -4 3 C-2.35 3 -0.7 3 1 3 C0.67 2.01 0.34 1.02 0 0 Z " fill="#2B2A26" transform="translate(300,235)"/>
<path d="M0 0 C1.32 0 2.64 0 4 0 C4.33 0.99 4.66 1.98 5 3 C-0.75 8 -0.75 8 -3 8 C-3 7.34 -3 6.68 -3 6 C-1.37 4.62 0.29 3.28 2 2 C1.34 1.34 0.68 0.68 0 0 Z " fill="#0E252D" transform="translate(462,213)"/>
<path d="M0 0 C2.47 0.99 2.47 0.99 5 2 C4.34 2.66 3.68 3.32 3 4 C2.01 3.67 1.02 3.34 0 3 C-0.33 4.32 -0.66 5.64 -1 7 C-1.99 6.67 -2.98 6.34 -4 6 C-2.68 4.02 -1.36 2.04 0 0 Z " fill="#1D1B09" transform="translate(191,211)"/>
<path d="M0 0 C1.65 0 3.3 0 5 0 C5 0.99 5 1.98 5 3 C3.35 3.66 1.7 4.32 0 5 C0 3.35 0 1.7 0 0 Z " fill="#D1B872" transform="translate(191,114)"/>
<path d="M0 0 C5.88 3.75 5.88 3.75 7 6 C6.01 6.33 5.02 6.66 4 7 C1.81 5.81 1.81 5.81 0 4 C0 2.68 0 1.36 0 0 Z " fill="#151710" transform="translate(262,107)"/>
<path d="M0 0 C0.99 0.33 1.98 0.66 3 1 C3 2.98 3 4.96 3 7 C2.01 7 1.02 7 0 7 C0 4.69 0 2.38 0 0 Z " fill="#35A4CE" transform="translate(117,287)"/>
<path d="M0 0 C1.98 0.66 3.96 1.32 6 2 C6 2.66 6 3.32 6 4 C4.02 4.66 2.04 5.32 0 6 C0 4.02 0 2.04 0 0 Z " fill="#ABC7C6" transform="translate(88,281)"/>
<path d="M0 0 C2.65 2.58 4.94 4.92 7 8 C6.01 8.66 5.02 9.32 4 10 C2.67 6.67 1.33 3.33 0 0 Z " fill="#1A1711" transform="translate(192,243)"/>
<path d="M0 0 C2.56 2.25 2.56 2.25 5 5 C4.81 7.31 4.81 7.31 4 9 C3.34 9 2.68 9 2 9 C0.14 5.87 -0.2 3.63 0 0 Z " fill="#143743" transform="translate(465,230)"/>
<path d="M0 0 C1.46 2.65 2 3.89 2 7 C1.34 7 0.68 7 0 7 C-0.33 7.66 -0.66 8.32 -1 9 C-1.33 6.69 -1.66 4.38 -2 2 C-1.34 2 -0.68 2 0 2 C0 1.34 0 0.68 0 0 Z " fill="#3094BA" transform="translate(113,261)"/>
<path d="M0 0 C1.46 2.65 2 3.89 2 7 C1.34 7 0.68 7 0 7 C-0.33 7.66 -0.66 8.32 -1 9 C-1.33 6.69 -1.66 4.38 -2 2 C-1.34 2 -0.68 2 0 2 C0 1.34 0 0.68 0 0 Z " fill="#3195BC" transform="translate(109,243)"/>
<path d="M0 0 C0.66 0.33 1.32 0.66 2 1 C1.67 3.64 1.34 6.28 1 9 C0.34 9 -0.32 9 -1 9 C-0.67 6.03 -0.34 3.06 0 0 Z " fill="#DAC6C3" transform="translate(402,347)"/>
<path d="M0 0 C1.32 1.32 2.64 2.64 4 4 C3.34 4.66 2.68 5.32 2 6 C1.34 5.34 0.68 4.68 0 4 C-0.99 4 -1.98 4 -3 4 C-2.01 2.68 -1.02 1.36 0 0 Z " fill="#29251C" transform="translate(189,238)"/>
<path d="M0 0 C0.99 0 1.98 0 3 0 C3 1.98 3 3.96 3 6 C2.01 6 1.02 6 0 6 C0 4.02 0 2.04 0 0 Z " fill="#141718" transform="translate(242,67)"/>
<path d="M0 0 C2.31 0.66 4.62 1.32 7 2 C4.67 3.21 2.5 4.17 0 5 C0 3.35 0 1.7 0 0 Z " fill="#A0C5CA" transform="translate(282,305)"/>
<path d="M0 0 C3.49 0.65 6.03 2.1 9 4 C8.01 4.33 7.02 4.66 6 5 C2.81 3.12 2.81 3.12 0 1 C0 0.67 0 0.34 0 0 Z " fill="#1E1A12" transform="translate(219,225)"/>
<path d="M0 0 C1.94 0.19 1.94 0.19 4 1 C5.25 3.06 5.25 3.06 6 5 C3 5 3 5 0.81 3 C0.21 2.34 -0.38 1.68 -1 1 C-0.67 0.67 -0.34 0.34 0 0 Z " fill="#D3AA5A" transform="translate(279,118)"/>
</svg>
