<?xml version="1.0" standalone="no"?>
<!DOCTYPE svg PUBLIC "-//W3C//DTD SVG 20010904//EN"
 "http://www.w3.org/TR/2001/REC-SVG-20010904/DTD/svg10.dtd">
<svg version="1.0" xmlns="http://www.w3.org/2000/svg"
 width="500.000000pt" height="500.000000pt" viewBox="0 0 500.000000 500.000000"
 preserveAspectRatio="xMidYMid meet">

<g transform="translate(0.000000,500.000000) scale(0.100000,-0.100000)"
fill="#000000" stroke="none">
<path d="M1800 4090 l0 -830 700 0 700 0 0 830 0 830 -700 0 -700 0 0 -830z
m700 -760 l630 0 -2 765 c-2 421 0 765 5 765 4 0 7 -346 7 -770 l0 -770 -640
0 -640 0 2 773 3 772 2 -767 3 -768 630 0z m590 1060 l0 -420 -24 0 c-17 0
-40 -19 -81 -67 -57 -68 -130 -132 -151 -133 -6 0 -17 7 -25 16 -7 8 -29 24
-48 34 -20 10 -54 36 -76 57 -22 22 -49 44 -59 50 -17 9 -17 14 -7 43 6 18 11
55 11 82 0 176 -214 261 -336 133 -87 -90 -74 -233 28 -301 31 -21 37 -44 11
-44 -24 1 -48 21 -48 40 0 9 -7 14 -19 12 -10 -2 -28 5 -40 16 -11 11 -36 27
-55 37 -44 22 -70 11 -168 -72 -41 -34 -78 -63 -84 -63 -5 0 -9 193 -9 500 l0
500 590 0 590 0 0 -420z m-570 -209 c47 -34 70 -79 70 -138 0 -50 -1 -52 -19
-41 -26 16 -75 -6 -135 -62 -24 -22 -51 -40 -61 -40 -9 0 -32 15 -50 33 -110
110 -24 290 130 271 22 -2 51 -13 65 -23z m50 -231 c7 -17 32 -44 55 -60 24
-16 45 -36 48 -43 3 -8 30 -29 59 -46 93 -52 108 -83 49 -96 -16 -3 -32 -13
-35 -22 -5 -13 0 -15 30 -10 38 6 74 32 74 52 0 7 17 25 38 41 20 15 68 60
105 100 43 47 73 71 82 67 13 -4 15 -48 15 -279 l0 -274 -590 0 -590 0 0 200
c0 168 2 200 14 200 8 0 49 29 91 64 41 36 85 68 96 71 31 10 63 -1 107 -37
21 -18 52 -42 68 -54 l28 -21 -52 -29 c-29 -16 -55 -37 -58 -47 -3 -10 -16
-23 -29 -29 -14 -6 -21 -16 -18 -24 8 -22 22 -17 64 26 22 22 52 46 67 54 16
8 66 54 113 102 74 77 132 124 150 124 4 0 12 -14 19 -30z"/>
<path d="M2398 4667 l-48 -72 41 -3 42 -3 -5 -160 c-4 -128 -2 -159 9 -159 8
0 13 12 13 29 0 16 6 31 15 35 12 4 15 29 15 131 l0 125 36 0 c29 0 35 3 30
16 -9 23 -88 134 -95 134 -3 0 -27 -33 -53 -73z"/>
<path d="M2080 4397 c0 -21 197 -211 205 -197 5 8 -28 48 -91 111 -98 98 -114
111 -114 86z"/>
<path d="M2685 4310 c-66 -66 -96 -103 -89 -110 6 -6 43 24 109 90 66 66 96
103 89 110 -6 6 -43 -24 -109 -90z"/>
<path d="M1940 4045 c0 -13 22 -15 140 -15 118 0 140 2 140 15 0 13 -22 15
-140 15 -118 0 -140 -2 -140 -15z"/>
<path d="M2660 4045 c0 -13 22 -15 140 -15 118 0 140 2 140 15 0 13 -22 15
-140 15 -118 0 -140 -2 -140 -15z"/>
<path d="M2250 3060 c-313 -44 -544 -163 -612 -317 l-19 -43 -258 0 -259 0
-17 78 c-19 87 -53 133 -114 154 -40 13 -175 16 -233 5 -38 -8 -38 -8 -38 -58
l0 -49 84 6 c45 4 104 4 129 0 43 -7 46 -9 61 -53 30 -87 35 -83 -128 -83
l-145 0 -119 -302 c-234 -590 -413 -1090 -487 -1362 -33 -122 -35 -139 -35
-282 l0 -152 78 -14 77 -14 5 -219 c5 -219 5 -220 28 -223 l22 -3 0 216 0 217
27 -6 c16 -3 51 -8 78 -11 93 -12 85 9 85 -216 0 -109 3 -199 8 -199 4 0 17 3
30 6 22 6 22 8 22 200 l0 194 23 -5 c99 -21 364 -38 567 -34 772 13 1354 1
1715 -37 230 -23 806 -15 1493 22 l122 7 0 -171 c0 -146 2 -171 16 -176 43
-17 44 -14 44 164 l0 170 44 0 c24 0 64 -3 90 -6 l46 -7 0 -163 c0 -172 1
-175 44 -158 14 5 16 29 16 164 l0 157 78 7 c42 4 82 10 88 14 28 18 31 51 27
246 l-5 201 -54 181 c-29 100 -84 266 -121 370 l-68 189 -3 413 c-1 226 1 412
6 412 4 0 12 -4 18 -10 6 -6 19 -2 36 13 l26 22 -27 192 c-14 105 -29 194 -33
198 -7 7 -873 125 -921 125 -20 0 -62 -25 -143 -85 -63 -47 -119 -85 -124 -85
-6 0 -10 -34 -10 -80 l0 -80 -129 0 -129 0 -34 63 c-71 129 -239 225 -488 278
-109 23 -375 33 -480 19z m491 -78 c227 -53 397 -156 439 -267 9 -24 3 -21
-46 24 -220 202 -722 269 -1096 147 -66 -22 -74 -22 -95 -9 -27 18 -44 8 -63
-36 -6 -16 -21 -32 -33 -35 -12 -3 -55 -30 -94 -61 -40 -30 -73 -52 -73 -47 0
4 13 29 29 54 69 109 257 203 485 243 119 21 432 13 547 -13z m1905 -125 c2
-2 -10 -15 -28 -29 l-33 -25 -435 58 c-239 32 -437 58 -439 58 -3 1 12 14 33
29 l37 28 430 -57 c237 -32 432 -59 435 -62z m-3716 42 c94 -20 91 -13 174
-389 41 -184 72 -337 70 -339 -10 -11 -20 24 -69 241 -69 306 -93 398 -111
425 -19 31 -84 46 -176 41 -56 -2 -78 0 -78 9 0 21 114 28 190 12z m1468 -5
c27 -19 29 -60 3 -74 -56 -29 -125 7 -103 54 9 21 24 29 67 35 6 0 21 -6 33
-15z m254 -2 c5 -5 -7 -33 -26 -62 -35 -55 -35 -55 -15 -76 19 -21 19 -21 -8
-34 -16 -8 -31 -16 -34 -18 -4 -1 -9 24 -13 58 l-7 60 -54 0 -55 0 0 33 c0 18
-6 39 -12 46 -11 11 7 12 102 7 63 -4 118 -10 122 -14z m-372 -2 c0 -5 -6 -13
-14 -17 -15 -8 -96 -107 -96 -116 0 -7 115 -77 127 -77 5 0 22 17 36 37 25 34
25 38 10 55 -15 17 -14 18 20 18 21 0 37 -2 37 -4 0 -3 -11 -47 -25 -98 -14
-51 -25 -94 -25 -95 0 -2 52 -3 115 -3 83 0 115 3 115 12 0 9 3 9 12 0 19 -19
82 -14 112 9 33 26 34 63 2 92 l-24 23 54 34 c30 19 54 37 54 40 0 3 -22 23
-50 45 -27 21 -48 40 -46 42 6 6 156 -36 223 -63 37 -15 99 -47 138 -73 68
-45 69 -45 40 -51 -38 -8 -75 -28 -75 -40 0 -28 -20 -2 -49 65 -18 41 -34 75
-36 75 -1 0 -38 -16 -81 -36 -44 -20 -90 -40 -104 -46 -22 -8 -9 -16 120 -65
80 -31 156 -64 169 -74 35 -28 96 -25 126 6 30 29 32 18 6 -33 -40 -78 -141
-152 -279 -202 -75 -27 -257 -70 -298 -70 -16 0 -16 1 0 19 9 10 18 29 19 40
1 21 4 22 87 15 76 -5 91 -4 127 15 l41 21 -55 100 c-30 55 -59 103 -64 106
-5 3 -56 -21 -114 -52 l-105 -57 20 -32 c11 -18 20 -35 20 -38 0 -3 -16 -5
-36 -4 -32 2 -42 10 -81 60 -24 31 -46 57 -48 57 -2 0 -25 -26 -50 -57 -55
-67 -51 -71 53 -72 l62 -1 -16 -25 c-19 -30 -12 -57 24 -86 l27 -22 -120 7
c-211 11 -379 51 -509 119 -61 32 -149 106 -167 139 -9 17 -8 18 10 9 44 -24
103 -4 122 40 9 24 9 33 -5 55 l-17 25 32 -16 c31 -17 43 -17 162 1 31 5 37 3
37 -13 0 -10 7 -29 16 -41 15 -22 15 -23 -10 -16 l-26 6 0 -117 0 -117 33 5
c17 4 69 9 115 13 45 4 82 8 82 10 0 2 -9 18 -20 36 -22 36 -26 53 -9 43 24
-15 81 -7 105 16 41 39 27 90 -31 109 -19 6 -45 8 -57 5 -19 -6 -21 -5 -10 6
16 18 15 60 -3 86 -21 30 -72 45 -113 34 -35 -11 -39 -6 -17 23 24 32 18 41
-41 73 l-57 31 49 16 c105 34 224 54 224 36z m1840 -50 c217 -28 405 -53 418
-56 21 -4 21 -6 -13 -35 l-35 -31 -440 63 -441 64 33 27 c23 19 41 26 58 23
14 -2 203 -27 420 -55z m-1399 -5 l38 -34 -44 -31 c-51 -35 -56 -36 -80 -10
-17 18 -16 21 11 65 16 25 31 45 33 45 2 0 21 -16 42 -35z m-763 5 c12 -12 22
-18 22 -15 0 4 27 -8 59 -26 l59 -33 -18 -35 c-11 -20 -23 -42 -28 -49 -4 -6
-45 -17 -90 -22 -72 -9 -86 -9 -112 7 l-29 17 47 88 c26 48 52 88 58 88 5 0
20 -9 32 -20z m333 -33 c40 -51 42 -56 21 -81 l-19 -25 -44 26 c-24 15 -46 27
-48 29 -4 3 52 83 59 84 3 0 17 -15 31 -33z m2383 -34 c4 -32 9 -76 12 -98 5
-37 2 -35 -36 38 l-41 78 23 19 c13 11 26 19 29 20 3 0 9 -26 13 -57z m-2139
-5 c3 -18 9 -61 14 -95 l8 -63 -89 0 c-51 0 -88 4 -88 10 0 12 41 162 47 173
2 4 26 7 53 7 48 0 49 -1 55 -32z m1504 -46 l395 -58 -3 -744 c-1 -410 -5
-748 -9 -751 -7 -6 -809 145 -818 153 -4 5 -16 483 -29 1146 l-6 322 38 -5
c21 -4 215 -32 432 -63z m-1079 -22 c16 -36 28 -66 26 -67 -4 -4 -196 71 -196
77 0 7 123 60 133 57 5 -1 21 -32 37 -67z m1688 -36 c29 -58 47 -102 40 -98
-7 5 -51 37 -96 73 l-84 66 39 32 c21 18 40 33 43 33 3 0 29 -48 58 -106z
m-2833 55 c-9 -17 -14 -36 -12 -43 3 -8 -7 -10 -34 -8 -22 2 -36 8 -33 14 6 9
84 68 91 68 2 0 -4 -14 -12 -31z m873 -25 c61 -42 -20 -110 -89 -74 -42 23 -8
90 46 90 11 0 31 -7 43 -16z m-507 -4 c5 0 18 -9 29 -20 64 -64 -46 -137 -116
-77 -22 19 -26 29 -20 51 7 28 59 60 84 51 8 -3 18 -5 23 -5z m961 -22 c42
-34 16 -88 -42 -88 -29 0 -70 29 -70 50 0 6 9 19 20 30 23 23 68 26 92 8z
m-2128 -35 c12 -41 57 -246 54 -248 -2 -2 -34 -11 -73 -20 -116 -26 -176 -73
-161 -122 3 -10 17 -209 31 -443 14 -234 28 -435 31 -448 9 -44 81 -65 230
-70 172 -6 288 20 314 68 5 10 24 219 41 464 35 497 36 474 -34 516 -40 25
-151 50 -217 50 -44 0 -52 3 -60 24 -8 21 -31 130 -47 219 l-5 27 246 0 246 0
1 -37 c1 -21 1 -42 0 -46 -4 -25 54 -222 84 -286 182 -382 610 -567 1002 -432
l83 28 4 -31 c3 -17 15 -157 26 -310 12 -154 25 -287 30 -296 18 -34 89 -52
222 -58 184 -7 316 24 334 80 3 12 21 188 39 392 l32 371 -24 33 c-13 17 -38
39 -54 48 -43 22 -153 44 -221 44 -64 0 -69 7 -37 51 52 73 116 266 123 369 6
90 -9 80 131 80 140 0 138 2 133 -85 -6 -114 27 -1287 36 -1291 6 -2 189 -38
406 -79 217 -42 409 -80 425 -84 55 -17 95 -21 95 -10 0 5 26 46 58 90 131
185 142 205 142 262 1 37 3 47 10 36 13 -22 110 -318 155 -472 l35 -123 -2
-184 -3 -185 -150 1 c-82 0 -211 2 -285 3 -74 1 -281 -5 -460 -13 -560 -27
-943 -31 -1105 -12 -387 44 -973 62 -1495 46 -308 -10 -427 -10 -540 -1 -180
15 -418 45 -587 74 l-128 22 0 155 0 155 48 159 c83 275 249 731 454 1251 52
132 99 250 104 263 8 21 13 22 143 22 120 0 135 -2 140 -17z m796 -3 c11 -11
20 -24 20 -30 0 -21 -41 -50 -70 -50 -29 0 -70 29 -70 50 0 21 41 50 70 50 17
0 39 -9 50 -20z m2768 -55 l52 -39 0 -558 0 -557 -71 -103 c-40 -57 -74 -105
-76 -108 -5 -5 8 1184 12 1235 2 17 4 65 4 108 1 87 -4 86 79 22z m-1807 -52
c17 -32 40 -72 51 -89 l18 -32 -26 -17 c-22 -14 -40 -16 -113 -10 l-87 7 -27
48 -27 49 87 50 c49 27 89 50 90 50 1 1 16 -25 34 -56z m-443 20 c28 -37 0
-73 -57 -73 -43 0 -64 18 -59 52 6 45 86 59 116 21z m-135 -2 c-4 -17 -8 -18
-24 -8 -19 12 -19 12 3 19 13 3 24 6 25 7 0 1 -1 -8 -4 -18z m-78 -7 c34 -12
48 -27 77 -77 22 -37 31 -63 25 -65 -7 -1 -47 -6 -89 -10 l-78 -8 0 88 c0 97
0 97 65 72z m345 -106 c0 -11 -97 -10 -104 0 -2 4 7 23 21 41 l26 34 28 -34
c16 -19 29 -37 29 -41z m-598 -90 c163 -80 291 -108 520 -115 186 -6 277 3
417 38 139 35 275 102 348 171 l32 31 -15 -48 c-19 -66 -55 -142 -96 -206
l-35 -55 -75 -12 c-86 -15 -153 -45 -180 -83 -16 -21 -17 -32 -9 -67 11 -51 3
-58 -95 -91 -170 -57 -353 -52 -517 14 -190 76 -356 242 -427 429 -49 127 -49
126 8 75 28 -25 84 -62 124 -81z m720 30 c14 -15 15 -24 7 -39 -22 -42 -86
-44 -119 -4 -17 20 -5 44 31 62 29 15 58 8 81 -19z m-1252 -38 c91 -18 146
-52 134 -83 -6 -18 -84 -53 -134 -61 -19 -3 -51 -8 -72 -11 l-36 -6 -17 73
c-8 40 -18 81 -21 90 -4 15 1 17 48 12 29 -3 73 -9 98 -14z m-236 -59 c23
-100 23 -101 -21 -95 -116 15 -211 56 -200 87 7 21 52 47 107 61 96 26 96 25
114 -53z m-49 -133 l79 -13 9 -36 c7 -30 12 -36 28 -32 16 5 18 11 13 39 -4
21 -2 34 4 34 6 0 14 -16 18 -35 7 -39 15 -48 37 -39 12 4 13 12 6 37 -5 17
-7 32 -6 33 1 2 34 8 72 14 38 6 90 20 114 31 24 10 45 18 47 16 2 -1 -10
-185 -26 -407 -34 -459 -26 -429 -123 -450 -111 -24 -349 -9 -376 24 -5 6 -18
166 -30 356 -11 190 -24 375 -27 412 l-6 68 43 -19 c24 -11 80 -26 124 -33z
m2236 -40 c72 -13 134 -47 134 -73 0 -30 -69 -62 -169 -80 -133 -23 -243 -16
-360 22 -103 33 -106 76 -9 113 101 38 260 45 404 18z m114 -480 c-21 -255
-31 -337 -43 -351 -43 -49 -301 -70 -424 -34 -56 17 -57 18 -62 60 -6 44 -44
583 -45 628 l0 27 62 -21 c124 -40 391 -34 492 12 22 10 42 17 44 15 2 -1 -9
-153 -24 -336z"/>
<path d="M1846 2563 c-25 -32 -46 -60 -46 -63 0 -3 28 -22 63 -43 l62 -37 32
36 32 36 -46 62 c-26 33 -47 62 -49 64 -1 2 -22 -23 -48 -55z m87 -31 l31 -43
-21 -21 -21 -21 -46 27 c-25 15 -46 29 -46 32 0 12 56 74 64 71 5 -2 22 -22
39 -45z"/>
<path d="M2911 2508 c-54 -74 -40 -98 60 -98 l46 0 7 46 c12 92 11 94 -38 94
-40 0 -47 -4 -75 -42z m95 -9 c-3 -17 -6 -40 -6 -50 0 -15 -7 -19 -34 -19 -40
0 -66 8 -66 22 0 5 12 25 28 44 19 24 35 34 56 34 27 0 28 -2 22 -31z"/>
<path d="M3730 1845 c-7 -9 -16 -48 -19 -88 -5 -54 -12 -80 -31 -105 -18 -25
-21 -35 -12 -44 9 -9 15 -9 23 -1 15 15 36 121 32 158 -3 26 -2 28 8 11 14
-23 6 -114 -16 -175 -23 -67 -20 -100 11 -112 15 -5 28 -8 30 -6 7 7 7 52 -1
70 -4 9 -3 17 3 17 5 0 14 -17 19 -37 7 -32 13 -39 37 -41 26 -3 28 -1 22 20
-3 13 -9 32 -11 43 -7 26 28 50 53 36 9 -4 43 -12 75 -15 52 -7 57 -9 57 -32
0 -14 -5 -34 -10 -44 -16 -29 -3 -63 31 -83 41 -23 72 -23 65 1 -3 9 -8 34
-12 54 -5 31 -3 39 13 45 22 9 97 90 106 116 8 21 59 23 77 2 16 -19 54 -19
69 -1 9 11 8 22 -6 50 -16 35 -16 38 0 66 10 16 14 31 10 33 -10 6 -108 0
-154 -8 -25 -5 -46 -2 -67 9 -17 9 -48 15 -69 14 -40 -1 -121 15 -188 37 -70
24 -130 28 -145 10z m148 -40 c2 -11 10 -27 18 -35 7 -9 11 -25 8 -37 -8 -28
12 -63 35 -63 25 0 91 64 91 89 0 18 6 21 44 21 40 0 44 -2 42 -22 -4 -37 -25
-68 -46 -68 -29 0 -25 -19 6 -30 19 -8 25 -16 21 -30 -5 -21 7 -28 18 -10 7
12 65 14 65 3 -1 -5 -19 -28 -40 -52 -26 -28 -40 -38 -40 -27 0 9 -4 16 -9 16
-13 0 -25 -83 -18 -120 5 -21 3 -28 -7 -24 -8 3 -13 23 -13 52 0 26 -6 63 -14
82 -13 32 -18 35 -59 38 -63 5 -116 20 -130 37 -19 23 -58 18 -86 -11 -22 -21
-25 -32 -22 -70 2 -36 0 -44 -12 -42 -39 8 0 131 50 160 32 18 41 55 15 64
-12 5 -12 10 6 32 13 17 18 34 14 50 -5 21 -3 23 27 20 24 -2 34 -9 36 -23z
m416 -37 c2 -7 8 -29 15 -48 7 -19 13 -39 14 -45 1 -5 -24 -9 -56 -10 -54 -1
-58 1 -63 25 -3 14 -9 32 -14 42 -7 12 -4 18 7 23 10 3 20 0 25 -10 11 -19 48
-20 48 0 0 9 -9 15 -22 15 -19 0 -20 2 -8 10 21 14 50 12 54 -2z m-460 -146
c11 -19 -12 -35 -40 -28 -28 7 -28 8 -10 22 22 16 42 18 50 6z m-15 -93 c9
-26 8 -30 -6 -27 -9 2 -17 10 -19 18 -2 8 -6 26 -10 40 -7 22 -6 23 8 12 9 -7
21 -27 27 -43z m216 -53 c-4 -20 -11 -36 -15 -36 -12 0 -19 39 -9 46 5 3 9 15
9 27 0 15 3 18 11 10 6 -6 8 -25 4 -47z"/>
<path d="M4645 938 c-57 -5 -445 -7 -906 -3 -803 5 -954 2 -1464 -30 -361 -23
-799 -17 -1471 21 -341 19 -647 13 -642 -13 3 -12 52 -15 323 -17 176 -2 394
-8 485 -14 91 -7 336 -16 545 -22 370 -9 564 -5 945 19 408 27 742 33 1045 21
293 -13 1140 -8 1228 6 27 5 37 11 35 22 -4 20 -7 21 -123 10z"/>
</g>
</svg>
