<?xml version="1.0" encoding="UTF-8"?>
<svg version="1.1" xmlns="http://www.w3.org/2000/svg" width="500" height="500">
<path d="M0 0 C0.96164062 0.53367187 1.92328125 1.06734375 2.9140625 1.6171875 C3.60242188 2.07351562 4.29078125 2.52984375 5 3 C5 3.66 5 4.32 5 5 C5.680625 5.165 6.36125 5.33 7.0625 5.5 C10.6804904 7.34748446 12.55023517 9.64184248 15.1171875 12.7421875 C16.97995901 14.97596745 18.94479099 17.06975826 20.9375 19.1875 C38.81165189 39.34345852 45.04975171 65.77129145 45.1328125 92.1015625 C45 94 45 94 44 95 C43.69514383 96.72349377 43.43245813 98.45447848 43.1875 100.1875 C41.11212685 113.11630609 37.47876846 126.23878606 30.1484375 137.2109375 C28.94723293 139.08220176 27.96188509 140.99680812 27 143 C26.34 143 25.68 143 25 143 C24.61134766 143.84498047 24.61134766 143.84498047 24.21484375 144.70703125 C19.91642582 152.82012233 13.33753811 158.69969926 6.125 164.1875 C5.42375 164.785625 4.7225 165.38375 4 166 C4 166.66 4 167.32 4 168 C0.535 168.99 0.535 168.99 -3 170 C-3 170.66 -3 171.32 -3 172 C-13.47775175 177.16834021 -23.80683976 181.61109559 -35 185 C-35.33 186.65 -35.66 188.3 -36 190 C-34.845 189.87625 -33.69 189.7525 -32.5 189.625 C-27.07577068 189.61538257 -23.77910628 192.33998321 -20 196 C-16.68460966 199.75094162 -14.33649874 203.78637419 -12.125 208.25 C-11.60728027 209.28858154 -11.60728027 209.28858154 -11.07910156 210.34814453 C-7.64866632 217.41687211 -5.12403528 224.72983883 -2.63183594 232.16845703 C-1.79777621 234.58619893 -0.85073649 236.94879727 0.125 239.3125 C3.56597415 247.75073951 6.21217766 256.34141752 8.2890625 265.2109375 C8.9665663 268.02500161 8.9665663 268.02500161 9.9609375 270.8046875 C11.24093437 274.74091847 12.1263103 278.70738435 13 282.75 C13.17515137 283.54768799 13.35030273 284.34537598 13.53076172 285.16723633 C14.6068374 290.09482053 15.61032765 295.03287418 16.5703125 299.984375 C16.96210132 301.82222073 17.47510007 303.6331565 18 305.4375 C19.34741885 310.23767964 20.15585431 315.09062636 21 320 C21.226875 321.155 21.45375 322.31 21.6875 323.5 C22 326 22 326 21 329 C21.66 329.33 22.32 329.66 23 330 C23.33 336.27 23.66 342.54 24 349 C24.66 349.33 25.32 349.66 26 350 C25.979375 351.051875 25.95875 352.10375 25.9375 353.1875 C25.88038855 356.75206699 25.88038855 356.75206699 26.4453125 359.20581055 C27.18897433 362.95194153 27.55224163 366.72370264 27.9375 370.51953125 C28.02249756 371.33693283 28.10749512 372.15433441 28.19506836 372.99650574 C28.46560778 375.60161215 28.73297023 378.2070317 29 380.8125 C29.2675594 383.40719833 29.5358075 386.00182275 29.80493164 388.59635925 C29.97181357 390.20685883 30.13772785 391.81745908 30.30249023 393.42817688 C30.6786193 397.07311125 31.08464254 400.70892068 31.55859375 404.3425293 C31.99313507 407.94311754 32 411.37715051 32 415 C32.21926398 417.30227177 32.48788737 419.592786 32.78125 421.88671875 C33 424 33 424 33 428 C22.90994238 429.46764474 13.2165875 430.28734152 3 430 C2.67 430.66 2.34 431.32 2 432 C0.02 431.67 -1.96 431.34 -4 431 C-5.78545943 426.34479404 -6.33171426 422.219259 -6.5625 417.25 C-6.61172606 412.45725531 -6.61172606 412.45725531 -8 408 C-8.13845858 406.64967202 -8.22503885 405.29374361 -8.28125 403.9375 C-8.31863281 403.14085937 -8.35601562 402.34421875 -8.39453125 401.5234375 C-8.46484375 399.84114583 -8.53515625 398.15885417 -8.60546875 396.4765625 C-8.64285156 395.67992187 -8.68023437 394.88328125 -8.71875 394.0625 C-8.74904297 393.33160156 -8.77933594 392.60070312 -8.81054688 391.84765625 C-8.89957573 389.9061423 -8.89957573 389.9061423 -10 388 C-10.04582856 386.45901465 -10.03817199 384.91619402 -10 383.375 C-9.81951331 375.46293754 -9.81951331 375.46293754 -12 368 C-12 366 -12 364 -12 362 C-12.32441604 360.33157466 -12.65939189 358.66519519 -13 357 C-13.18008853 355.37643266 -13.34524293 353.75117743 -13.5 352.125 C-14.02113532 346.70519263 -14.59899442 341.39693212 -16 336.125 C-16.93685602 332.54290347 -17.36287507 329.04277379 -17.71875 325.36328125 C-18.11684574 322.01817122 -18.80088793 318.7505045 -19.5 315.45703125 C-20.07155465 312.64837596 -20.53429633 309.82793705 -21 307 C-20.99214478 308.55110474 -20.99214478 308.55110474 -20.98413086 310.13354492 C-20.96598615 313.98200612 -20.95453341 317.83046355 -20.94506836 321.67895508 C-20.94004977 323.34237301 -20.93323348 325.00578656 -20.92456055 326.66918945 C-20.91238643 329.06462693 -20.90674686 331.46000591 -20.90234375 333.85546875 C-20.89718246 334.5952446 -20.89202118 335.33502045 -20.88670349 336.09721375 C-20.88639665 338.94232089 -20.92510357 341.63756973 -21.50219727 344.43017578 C-22.26428725 348.36433921 -22.1011415 352.26502025 -22.0625 356.26171875 C-22.05871338 357.16638382 -22.05492676 358.07104889 -22.05102539 359.00312805 C-22.0348337 362.85053287 -22.0071023 366.69782861 -21.97949219 370.54516602 C-21.897278 383.09256588 -22.20971168 395.47063726 -23 408 C-23.33 414.93 -23.66 421.86 -24 429 C-48.75 429 -73.5 429 -99 429 C-99.60688411 421.11050651 -100.14788002 413.47727186 -100.12939453 405.60742188 C-100.13202301 404.18284668 -100.13202301 404.18284668 -100.13470459 402.72949219 C-100.13904666 399.64255862 -100.13621437 396.55568397 -100.1328125 393.46875 C-100.13348729 391.30212391 -100.13445878 389.1354979 -100.13571167 386.96887207 C-100.13717788 382.45385001 -100.13506723 377.93884786 -100.13037109 373.42382812 C-100.12464696 367.63918238 -100.12797652 361.85458276 -100.13394356 356.06993866 C-100.13755498 351.60729626 -100.13640837 347.14466483 -100.13381577 342.68202209 C-100.13314953 340.54818211 -100.13396433 338.41434113 -100.13629532 336.28050232 C-100.13883434 333.3061152 -100.13496477 330.33180339 -100.12939453 327.35742188 C-100.13141876 326.47944946 -100.13344299 325.60147705 -100.13552856 324.69689941 C-100.12141607 320.62967986 -99.85258335 316.98729918 -99 313 C-98.91931698 310.79363383 -98.89238555 308.5850157 -98.90234375 306.37719727 C-98.90380402 305.73261566 -98.90526428 305.08803406 -98.9067688 304.42391968 C-98.910559 303.03147674 -98.91665876 301.63903855 -98.92483521 300.24661446 C-98.93765785 298.03923198 -98.94412963 295.83190998 -98.94897461 293.62449646 C-98.96230985 288.14269894 -98.9865105 282.66095915 -99.01037598 277.17919922 C-99.03014783 272.54305783 -99.04577155 267.906938 -99.05593872 263.2707653 C-99.06239192 261.10271689 -99.07489977 258.93475808 -99.08764648 256.76673889 C-99.09128147 255.42855913 -99.09463289 254.09037855 -99.09765625 252.75219727 C-99.10289307 251.59035416 -99.10812988 250.42851105 -99.11352539 249.23146057 C-99.00241593 246.06876847 -98.59483865 243.10487471 -98 240 C-99.7726041 240.61996001 -101.54302667 241.24615993 -103.3125 241.875 C-104.29863281 242.22304688 -105.28476562 242.57109375 -106.30078125 242.9296875 C-109.15594377 243.95305924 -109.15594377 243.95305924 -112 246 C-113.32 246 -114.64 246 -116 246 C-116.33 246.66 -116.66 247.32 -117 248 C-127.8853877 254.77276746 -139.05741648 256.48873109 -151.63745117 257.75439453 C-154.77310582 258.08037041 -157.88293725 258.52976882 -161 259 C-161.6894873 259.1026416 -162.37897461 259.2052832 -163.08935547 259.31103516 C-166.32309521 259.79250772 -169.55594954 260.27980807 -172.78881836 260.76708984 C-177.4074746 261.46267818 -182.02687175 262.15211088 -186.6484375 262.828125 C-187.5556958 262.9617041 -188.4629541 263.0952832 -189.39770508 263.23291016 C-191.14462267 263.48994631 -192.89184766 263.74490379 -194.6394043 263.99755859 C-195.43000244 264.11437988 -196.22060059 264.23120117 -197.03515625 264.3515625 C-197.7300415 264.45291504 -198.42492676 264.55426758 -199.14086914 264.65869141 C-201.21951603 264.99554503 -201.21951603 264.99554503 -204 266 C-205.64177778 266.20275815 -207.28881427 266.36442526 -208.9375 266.5 C-210.38576172 266.62568359 -210.38576172 266.62568359 -211.86328125 266.75390625 C-214.02614489 266.92359543 -216.19039218 267.07621836 -218.35546875 267.21484375 C-219.97388672 267.32505859 -219.97388672 267.32505859 -221.625 267.4375 C-222.62789063 267.49808594 -223.63078125 267.55867188 -224.6640625 267.62109375 C-225.43492187 267.74613281 -226.20578125 267.87117188 -227 268 C-227.33 268.66 -227.66 269.32 -228 270 C-229.65449105 270.38929201 -231.32546201 270.708776 -233 271 C-233.97324219 271.33257812 -234.94648438 271.66515625 -235.94921875 272.0078125 C-241.1185442 273.49595164 -246.3449845 273.38275224 -251.6875 273.375 C-253.33177979 273.37367065 -253.33177979 273.37367065 -255.00927734 273.37231445 C-267.82833119 273.18934433 -280.28624571 271.33107271 -292 266 C-292.99 265.67 -293.98 265.34 -295 265 C-295 264.34 -295 263.68 -295 263 C-295.99 262.67 -296.98 262.34 -298 262 C-301.73115406 256.05862177 -303.36467938 248.79348422 -305.1640625 242.0859375 C-305.44220795 241.07205963 -305.72035339 240.05818176 -306.00692749 239.01358032 C-306.88629657 235.80249974 -307.75586604 232.58886424 -308.625 229.375 C-309.21548385 227.21075678 -309.80662385 225.04669247 -310.3984375 222.8828125 C-311.48409788 218.91174924 -312.5653653 214.93953841 -313.64306641 210.96630859 C-314.7303566 206.96791929 -315.85228242 202.98143097 -317 199 C-318.12450361 194.92540975 -319 191.27165723 -319 187 C-319.66 186.67 -320.32 186.34 -321 186 C-321.4921875 184.05859375 -321.4921875 184.05859375 -321.875 181.4375 C-322.80013541 175.73747215 -324.15820974 170.22458947 -325.67919922 164.65991211 C-326.72818522 160.67485697 -327.19149951 157.11723938 -327 153 C-327.66 152.67 -328.32 152.34 -329 152 C-329.34375 150.25 -329.34375 150.25 -329.5 148 C-329.78614749 144.76551144 -330.23502116 141.7180377 -331 138.5625 C-331.951665 134.51616141 -332.42768534 130.53321531 -332.77734375 126.39453125 C-332.97259432 124.29473131 -333.28920138 122.20695146 -333.625 120.125 C-334.57032893 112.62335749 -334.23390212 104.43553123 -330 98 C-328 96 -328 96 -324.6875 95.5625 C-321 96 -321 96 -318.125 98.25 C-316.181192 100.76551624 -315.53825783 101.98575615 -315 105 C-314.34 105.33 -313.68 105.66 -313 106 C-312.66666667 108.33333333 -312.33333333 110.66666667 -312 113 C-311.34 113.33 -310.68 113.66 -310 114 C-309.26216932 116.48233724 -308.63466598 118.91667747 -308.0625 121.4375 C-307.71123482 122.90793508 -307.35837253 124.37798955 -307.00390625 125.84765625 C-306.83262207 126.56324707 -306.66133789 127.27883789 -306.48486328 128.01611328 C-304.629263 135.60856437 -302.01854999 142.79838327 -299 150 C-298.67 149.67 -298.34 149.34 -298 149 C-298.06482409 146.50427272 -298.19126804 144.04977139 -298.375 141.5625 C-298.41882813 140.86833984 -298.46265625 140.17417969 -298.5078125 139.45898438 C-298.73235441 135.6024661 -298.73235441 135.6024661 -300 132 C-300.20873282 129.22559288 -300.37466621 126.46573236 -300.5 123.6875 C-300.56948495 122.17041185 -300.6423193 120.65347284 -300.71875 119.13671875 C-300.74904297 118.46342529 -300.77933594 117.79013184 -300.81054688 117.09643555 C-300.96545293 114.92823555 -300.96545293 114.92823555 -301.51367188 112.55249023 C-302.0065931 109.96539617 -302.09905863 107.65312028 -302.0625 105.0234375 C-302.05476563 104.105625 -302.04703125 103.1878125 -302.0390625 102.2421875 C-302.01972656 100.82292969 -302.01972656 100.82292969 -302 99.375 C-301.97448698 97.48703661 -301.95345551 95.59900586 -301.9375 93.7109375 C-301.92589844 92.87868652 -301.91429687 92.04643555 -301.90234375 91.18896484 C-301.90800641 88.81992743 -301.90800641 88.81992743 -303 86 C-302.34 86 -301.68 86 -301 86 C-301.10699219 85.35933594 -301.21398437 84.71867187 -301.32421875 84.05859375 C-302.3572967 76.60488079 -301.61316107 72.73308724 -297.25 66.5 C-295 65 -295 65 -291.5625 64.9375 C-283.92173194 67.21632556 -281.18404763 73.64654859 -277.2578125 80.16015625 C-276 83 -276 83 -276.3046875 85.37109375 C-276.53414062 85.90863281 -276.76359375 86.44617188 -277 87 C-276.01 87.495 -276.01 87.495 -275 88 C-274.4375 90.1875 -274.4375 90.1875 -274 93 C-272.96354532 99.24301998 -271.91694278 105.39395209 -269.8125 111.375 C-269 114 -269 114 -270 117 C-269.34 117.33 -268.68 117.66 -268 118 C-267.09020872 121.2853574 -266.59454381 124.64507419 -266 128 C-266.00507568 127.30922363 -266.01015137 126.61844727 -266.01538086 125.90673828 C-266.04911908 117.55480731 -265.84295764 109.22175423 -265.5625 100.875 C-265.52318359 99.58207031 -265.48386719 98.28914063 -265.44335938 96.95703125 C-265.21098443 89.92858296 -264.7851516 82.98680451 -264 76 C-263.80604142 73.79222455 -263.61730017 71.58397358 -263.4375 69.375 C-263.31181641 67.83972656 -263.31181641 67.83972656 -263.18359375 66.2734375 C-263.12300781 65.52320312 -263.06242187 64.77296875 -263 64 C-262.34 64 -261.68 64 -261 64 C-260.855625 62.906875 -260.71125 61.81375 -260.5625 60.6875 C-259.77445278 55.52141266 -258.81708565 53.35829629 -254.6796875 50.08203125 C-252.11604111 48.43056602 -250.02611436 48.06438541 -247 48 C-242.50428859 49.07040748 -240.51144252 51.18953548 -238 55 C-235.76690685 60.38618722 -235.32943774 65.74658522 -234.875 71.5 C-234.78935791 72.56154297 -234.70371582 73.62308594 -234.61547852 74.71679688 C-233.7817556 86.55716151 -233.85903051 98.39679827 -233.98583984 110.25976562 C-234.08419239 120.55131172 -233.73923123 130.73407946 -233 141 C-230.95369634 134.86108901 -230.89930491 128.70228225 -231.0625 122.296875 C-231 120 -231 120 -230.51147461 118.11694336 C-229.99186498 115.96632996 -229.82846165 114.04032715 -229.75390625 111.83203125 C-229.72264648 111.02975098 -229.69138672 110.2274707 -229.65917969 109.40087891 C-229.61132324 108.11963135 -229.61132324 108.11963135 -229.5625 106.8125 C-228.13669079 75.88815768 -228.13669079 75.88815768 -222 65 C-218.82549479 62.45019662 -216.09049171 60.42336015 -211.9375 60.3125 C-207.78858651 61.03691347 -207.34816435 61.17274483 -205 64.3125 C-203.34400203 66.91089156 -203 67.82175844 -203 71 C-202.34 71.33 -201.68 71.66 -201 72 C-199.68220247 78.46918786 -200.22099731 84.48034669 -201 91 C-200.34 91.33 -199.68 91.66 -199 92 C-199.16371094 93.01803711 -199.32742187 94.03607422 -199.49609375 95.08496094 C-199.9579251 98.67310409 -200.10031084 102.02863994 -200.0625 105.640625 C-200.05476562 106.87683594 -200.04703125 108.11304688 -200.0390625 109.38671875 C-200.01317881 111.94661619 -199.98713908 114.50651205 -199.9609375 117.06640625 C-199.91976055 123.67530658 -200.05631903 130.14947561 -200.78125 136.72167969 C-201.06371613 139.28214859 -201.06371613 139.28214859 -201 143 C-200.43152344 142.18015625 -199.86304688 141.3603125 -199.27734375 140.515625 C-191.25100204 129.19942664 -191.25100204 129.19942664 -185 127 C-181.57058299 127.16865985 -179.06660382 127.46669809 -176 129 C-171.32537921 139.27129981 -171.36083615 153.88222844 -174.3671875 164.6796875 C-175.23433301 167.85922102 -175.81641215 171.0763054 -176.4375 174.3125 C-177.56905418 180.03345413 -178.86400215 185.67807267 -180.3515625 191.31640625 C-181.04720887 194.19537645 -181.54459844 197.07425977 -182 200 C-182.66 200 -183.32 200 -184 200 C-184.020625 201.03125 -184.04125 202.0625 -184.0625 203.125 C-184.87025122 209.95416938 -188.8105182 216.01880087 -192 222 C-192.67209218 223.33060675 -193.34070308 224.66300718 -194 226 C-194.33 226.66 -194.66 227.32 -195 228 C-194.40912598 227.87471924 -193.81825195 227.74943848 -193.20947266 227.62036133 C-191.40336321 227.23838633 -189.59693315 226.85792593 -187.7902832 226.47851562 C-185.64219383 226.02653045 -183.4949169 225.57067013 -181.34838867 225.11132812 C-175.79219614 223.93697198 -170.25380346 222.85231744 -164.63671875 222.01171875 C-148.03114861 219.42557376 -134.35584215 213.93061815 -119.34838867 206.62207031 C-114.91547945 204.47462235 -110.44304633 202.41772933 -105.96679688 200.36254883 C-102.01961311 198.54974167 -98.08220231 196.71616447 -94.14453125 194.8828125 C-92 194 -92 194 -90 194 C-90 193.34 -90 192.68 -90 192 C-86.7 191.34 -83.4 190.68 -80 190 C-80.33 188.68 -80.66 187.36 -81 186 C-80.67 185.34 -80.34 184.68 -80 184 C-81.7634375 183.814375 -81.7634375 183.814375 -83.5625 183.625 C-96.32414018 182.28166945 -107.49604385 175.26115959 -117.875 168.1875 C-118.58325928 167.70740479 -119.29151855 167.22730957 -120.02124023 166.73266602 C-121.72149187 165.54461703 -123.36695802 164.27886275 -125 163 C-125 162.34 -125 161.68 -125 161 C-125.99 161 -126.98 161 -128 161 C-128 160.34 -128 159.68 -128 159 C-128.66 159 -129.32 159 -130 159 C-130 158.34 -130 157.68 -130 157 C-130.66 157 -131.32 157 -132 157 C-133 155.33333333 -134 153.66666667 -135 152 C-135.77730469 151.24460938 -136.55460938 150.48921875 -137.35546875 149.7109375 C-149.9631536 136.78666381 -156.43277622 117.80928912 -159.38671875 100.40625 C-159.91097915 97.02852916 -159.91097915 97.02852916 -161 94 C-161.22857672 90.77495539 -161.1851662 87.54481786 -161.1875 84.3125 C-161.19974609 83.43916016 -161.21199219 82.56582031 -161.22460938 81.66601562 C-161.23714391 76.07143607 -160.53993915 71.37547531 -159 66 C-158.65852196 64.33498299 -158.32441604 62.66842534 -158 61 C-157.53654223 58.91311587 -157.05683354 56.82978672 -156.5625 54.75 C-156.19318359 53.16445312 -156.19318359 53.16445312 -155.81640625 51.546875 C-155.41228516 50.28617188 -155.41228516 50.28617188 -155 49 C-154.34 48.67 -153.68 48.34 -153 48 C-152.87496094 47.13632813 -152.74992188 46.27265625 -152.62109375 45.3828125 C-151.88024597 41.34775478 -150.16076034 38.32877366 -148.0625 34.875 C-144.86338958 29.52954204 -144.86338958 29.52954204 -142 24 C-141.34 24 -140.68 24 -140 24 C-139.67 22.68 -139.34 21.36 -139 20 C-138.34 20 -137.68 20 -137 20 C-137 19.34 -137 18.68 -137 18 C-136.34 18 -135.68 18 -135 18 C-134.773125 17.43925781 -134.54625 16.87851562 -134.3125 16.30078125 C-125.37784989 0.63855233 -102.25754272 -9.74617785 -85.56811523 -14.47558594 C-54.64545246 -22.46695422 -26.92345039 -15.88815962 0 0 Z M-266 129 C-266 132 -266 132 -266 132 Z M-266 134 C-265 136 -265 136 -265 136 Z M-202 144 C-202 145.32 -202 146.64 -202 148 C-201.67 146.68 -201.34 145.36 -201 144 C-201.33 144 -201.66 144 -202 144 Z M-203 148 C-202 150 -202 150 -202 150 Z " fill="#000000" transform="translate(398,41)"/>
<path d="M0 0 C4.32082226 3.33441791 8.16746615 7.12440397 12 11 C12.8146875 11.804375 13.629375 12.60875 14.46875 13.4375 C28.89026787 28.45168299 36.41366066 48.77534224 36.25 69.4375 C36.25773438 70.41009766 36.26546875 71.38269531 36.2734375 72.38476562 C36.2202571 92.2875313 28.68203486 110.8208388 16 126 C15.47921875 126.66644531 14.9584375 127.33289063 14.421875 128.01953125 C1.72738865 143.64114431 -19.15793567 153.56267314 -38.95117188 155.81469727 C-62.96741824 157.98680534 -85.53021718 151.90121399 -104.24609375 136.34765625 C-119.943358 122.79320037 -132.41351177 103.0739923 -134.25878906 82.05175781 C-135.61144025 54.71799514 -129.65762766 32.84536725 -111.6875 11.75 C-82.29162249 -19.57181431 -35.52101139 -23.03010628 0 0 Z " fill="#FCFCFC" transform="translate(389,55)"/>
<path d="M0 0 C3.70286096 0.62097668 5.61431133 2.39997406 8.3125 4.9375 C14.49523733 10.73511733 19.70796839 13.29043298 28.25 13.6875 C39.50058898 13.29366375 49.05603044 8.00646956 56.9375 0.125 C62.15598739 -0.32878151 62.15598739 -0.32878151 64.875 1.25 C66.51152194 4.13797989 65.7854132 5.98733043 64.9375 9.125 C56.37700054 18.51777024 44.03282213 24.17145816 31.546875 25.48046875 C18.18626452 26.02489891 7.90785062 20.78346238 -2.0625 12.125 C-6.0867704 7.64681358 -6.0867704 7.64681358 -5.9375 4.4375 C-4.59766889 0.89651779 -3.83261689 0.15643334 0 0 Z " fill="#070707" transform="translate(310.0625,165.875)"/>
<path d="M0 0 C3.89856133 3.24880111 5.97186508 6.2061905 6.8125 11.25 C6.07663121 15.99226552 4.34162939 19.22824378 1.25 22.875 C-2.09513947 25.0448202 -5.69461086 25.41529275 -9.68359375 25.33203125 C-13.54099298 24.47888246 -16.25915028 21.8423601 -18.75 18.875 C-20.10812586 14.80062242 -20.40365174 11.13099909 -19.75 6.875 C-18.09625963 3.73950826 -15.75891477 1.64038362 -12.9375 -0.5 C-8.38108713 -1.80183225 -4.3306883 -1.77164521 0 0 Z " fill="#050505" transform="translate(382.75,115.125)"/>
<path d="M0 0 C4.89270769 2.40019623 7.18686184 4.86277521 9 10 C9.54016234 14.3212987 9.3251256 16.39619532 7.25 20.25 C3.61538462 24.69230769 3.61538462 24.69230769 1 26 C-4.61874795 26.5437498 -8.15117105 26.15737699 -13 23 C-15.93666818 19.75953856 -16.89954239 17.06485065 -17.3125 12.6875 C-16.93790854 8.26732079 -15.83614013 6.37270719 -13 3 C-9.05061527 -0.29115394 -4.99650314 -0.87193878 0 0 Z " fill="#040404" transform="translate(308,114)"/>
<path d="" fill="#000000" transform="translate(0,0)"/>
</svg>
