<?xml version="1.0" encoding="UTF-8"?>
<svg version="1.1" xmlns="http://www.w3.org/2000/svg" width="500" height="500">
<path d="M0 0 C7.79429723 6.70831931 12.9990362 14.7505643 15.21484375 24.90625 C16.0048717 37.97408943 15.50880786 49.09896343 7.21484375 59.90625 C6.49296875 60.89625 5.77109375 61.88625 5.02734375 62.90625 C0.46807797 68.26760883 -6.35810028 72.21585448 -12.78515625 74.90625 C-14.10515625 74.90625 -15.42515625 74.90625 -16.78515625 74.90625 C-16.78515625 75.56625 -16.78515625 76.22625 -16.78515625 76.90625 C-15.46451172 76.80183594 -15.46451172 76.80183594 -14.1171875 76.6953125 C-12.95574219 76.64117187 -11.79429687 76.58703125 -10.59765625 76.53125 C-8.87482422 76.42683594 -8.87482422 76.42683594 -7.1171875 76.3203125 C-3.32856678 76.98654123 -2.26614006 78.10514755 0.05570984 81.07192993 C2.08084975 84.27669752 2.92289804 87.68363077 3.828125 91.3359375 C4.0438768 92.15157669 4.2596286 92.96721588 4.48191833 93.80757141 C5.17960237 96.46161708 5.85407104 99.12091669 6.52734375 101.78125 C7.00376615 103.62048818 7.48131574 105.45943473 7.95996094 107.2980957 C8.92716573 111.02623387 9.88397474 114.756818 10.83251953 118.48974609 C11.91379536 122.74111532 13.0189207 126.98558598 14.13835144 131.22705078 C14.91132709 134.16167444 15.6733839 137.09904341 16.43197632 140.03741455 C16.78458089 141.39811562 17.14050963 142.75796001 17.49990845 144.11688232 C17.99468713 145.99545818 18.47236162 147.87851391 18.94921875 149.76171875 C19.21959961 150.80996826 19.48998047 151.85821777 19.76855469 152.93823242 C20.25788486 156.19249223 19.92258909 158.7091626 19.21484375 161.90625 C17.23484375 162.23625 15.25484375 162.56625 13.21484375 162.90625 C13.39152588 163.71787598 13.56820801 164.52950195 13.75024414 165.36572266 C15.40193343 173.25144991 16.74823406 181.14263123 17.8984375 189.1171875 C18.04173492 190.10342102 18.18503235 191.08965454 18.33267212 192.10577393 C18.92571933 196.20204371 19.51526242 200.29866704 20.0871582 204.39794922 C20.51238675 207.43119839 20.95416941 210.46167636 21.3984375 213.4921875 C21.52149765 214.40487396 21.6445578 215.31756042 21.77134705 216.25790405 C22.56767702 221.59201177 23.90604977 226.04689105 26.31214905 230.88247681 C29.72470954 238.53317912 27.87808762 246.28460901 25.21484375 253.90625 C23.71641757 256.9259791 22.31819676 259.3545735 19.21484375 260.90625 C16.40234375 261.34375 16.40234375 261.34375 13.21484375 260.90625 C7.77670958 255.96249166 6.27268308 250.0347386 5.90185547 242.81591797 C5.85305724 241.38524342 5.80913104 239.95439619 5.76953125 238.5234375 C5.40838133 229.97459639 4.25002996 221.71664356 2.7456665 213.30181885 C2.32858098 210.96823509 1.92411859 208.63275638 1.52294922 206.29638672 C0.99476231 203.22051676 0.46343443 200.1452221 -0.0703125 197.0703125 C-0.99186433 191.73283969 -1.84862483 186.38652825 -2.66015625 181.03125 C-2.77987793 180.26699707 -2.89959961 179.50274414 -3.02294922 178.71533203 C-3.61832118 174.74404508 -3.8984276 170.92109018 -3.78515625 166.90625 C-4.77515625 167.56625 -5.76515625 168.22625 -6.78515625 168.90625 C-6.64600548 169.92750615 -6.64600548 169.92750615 -6.50404358 170.96939373 C-4.24702175 187.53585454 -1.99367933 204.10281122 0.25556946 220.67032909 C1.34337747 228.68224044 2.43242999 236.69397894 3.52441406 244.70532227 C4.47618551 251.68801902 5.4256202 258.67102883 6.37225056 265.65442449 C6.87356088 269.3520327 7.37603969 273.04947361 7.88131714 276.74654198 C8.44533767 280.87375424 9.00414003 285.0016568 9.5625 289.12963867 C9.73081329 290.35531052 9.89912659 291.58098236 10.07254028 292.84379578 C10.22399506 293.96975159 10.37544983 295.0957074 10.53149414 296.25578308 C10.73060143 297.72005124 10.73060143 297.72005124 10.93373108 299.21390057 C11.20389664 301.80140438 11.26655297 304.30701296 11.21484375 306.90625 C6.58984375 309.03125 6.58984375 309.03125 3.21484375 307.90625 C3.24212051 308.72120438 3.26939728 309.53615875 3.29750061 310.37580872 C3.55475864 318.09815373 3.80544499 325.82067214 4.04895878 333.5434618 C4.17434396 337.5127436 4.30216906 341.481914 4.43579102 345.45092773 C4.56491944 349.28924694 4.68735034 353.12772922 4.80535698 356.96640587 C4.85126204 358.42271139 4.89948249 359.87894605 4.95018196 361.33509254 C5.23621187 369.59828431 5.23820195 377.68547326 4.21484375 385.90625 C2.56484375 386.56625 0.91484375 387.22625 -0.78515625 387.90625 C0.56675662 392.35152282 2.27945467 394.04031694 6.15234375 396.53125 C13.91085011 401.58170627 13.91085011 401.58170627 15.08984375 406.71875 C15.450434 410.89239034 14.70907769 413.44650614 12.21484375 416.90625 C8.19385478 419.80510251 5.26353591 420.19535576 0.39282227 419.48803711 C-3.59148667 418.42373847 -6.67104136 416.11676502 -9.97265625 413.71875 C-11.00036133 413.01395508 -11.00036133 413.01395508 -12.04882812 412.29492188 C-17.31512382 408.57962376 -22.13099117 405.07949277 -23.4921875 398.4765625 C-23.52699219 397.33960938 -23.56179687 396.20265625 -23.59765625 395.03125 C-23.64535156 393.87882812 -23.69304687 392.72640625 -23.7421875 391.5390625 C-23.75636719 390.67023438 -23.77054688 389.80140625 -23.78515625 388.90625 C-26.73245162 387.74813612 -26.73245162 387.74813612 -29.78515625 387.90625 C-29.73875 388.55851562 -29.69234375 389.21078125 -29.64453125 389.8828125 C-29.39818208 395.84798166 -29.66294248 399.26875951 -33.78515625 403.90625 C-47.79694314 417.45304397 -47.79694314 417.45304397 -54.53515625 418.21875 C-58.64282854 417.82378151 -60.61442239 416.5004868 -63.78515625 413.90625 C-66.37160089 410.4968457 -66.1501874 407.0676051 -65.78515625 402.90625 C-63.72564503 397.75747195 -59.14194152 394.17383895 -54.78515625 390.90625 C-53.79515625 390.57625 -52.80515625 390.24625 -51.78515625 389.90625 C-51.78515625 389.24625 -51.78515625 388.58625 -51.78515625 387.90625 C-52.42453125 387.7825 -53.06390625 387.65875 -53.72265625 387.53125 C-54.74359375 387.221875 -54.74359375 387.221875 -55.78515625 386.90625 C-57.26504417 383.94647416 -56.91526024 380.94646991 -56.89868164 377.70263672 C-56.89882767 376.9610733 -56.89897369 376.21950989 -56.89912415 375.45547485 C-56.89842625 372.99893287 -56.89063959 370.54246627 -56.8828125 368.0859375 C-56.88094788 366.3848576 -56.87952419 364.68377716 -56.87852478 362.98269653 C-56.87470303 358.50118533 -56.86487565 354.01970643 -56.8538208 349.53820801 C-56.84359933 344.9668827 -56.83902558 340.39555219 -56.83398438 335.82421875 C-56.8232531 326.85154829 -56.80618076 317.87890183 -56.78515625 308.90625 C-57.75453125 308.596875 -58.72390625 308.2875 -59.72265625 307.96875 C-62.78515625 306.90625 -62.78515625 306.90625 -63.78515625 305.90625 C-63.72943094 298.82913519 -62.50930431 291.72469046 -61.48828125 284.734375 C-61.21742585 282.85909965 -60.94693796 280.98377119 -60.67675781 279.10839844 C-60.5324231 278.10740112 -60.38808838 277.10640381 -60.23937988 276.07507324 C-59.42974725 270.42679227 -58.6391967 264.77583998 -57.84765625 259.125 C-57.679776 257.92752136 -57.51189575 256.73004272 -57.33892822 255.49627686 C-56.82077267 251.79963364 -56.30291746 248.10294847 -55.78515625 244.40625 C-49.90482452 202.42200537 -49.90482452 202.42200537 -47.8359375 188.47265625 C-47.71025391 187.61994141 -47.58457031 186.76722656 -47.45507812 185.88867188 C-47.20807677 184.21635123 -46.95787153 182.54450178 -46.70507812 180.87304688 C-46.06681085 176.5064882 -45.63394362 172.33462001 -45.78515625 167.90625 C-46.77515625 167.57625 -47.76515625 167.24625 -48.78515625 166.90625 C-48.88747559 167.86950195 -48.98979492 168.83275391 -49.09521484 169.82519531 C-50.02089795 178.23895394 -51.15959432 186.59704984 -52.51171875 194.953125 C-52.66525818 195.9061853 -52.81879761 196.85924561 -52.97698975 197.84118652 C-53.61273816 201.77301562 -54.25212513 205.70415937 -54.90429688 209.63330078 C-57.3970972 224.36647661 -57.3970972 224.36647661 -57.83056641 239.26489258 C-57.70287266 246.6924121 -59.07117092 253.12781636 -63.78515625 258.90625 C-64.78515625 259.90625 -64.78515625 259.90625 -68.03515625 260.28125 C-71.78515625 259.90625 -71.78515625 259.90625 -74.53515625 258.09375 C-79.24759843 251.41779024 -80.76722464 242.97528014 -79.78515625 234.90625 C-79.36694246 233.6076937 -78.90789437 232.32183561 -78.41674805 231.04907227 C-76.19911089 224.61400043 -75.32753281 217.95263289 -74.3046875 211.24609375 C-74.08544705 209.84637554 -73.86552054 208.44676463 -73.64494324 207.04725647 C-73.07098529 203.39382938 -72.5062545 199.73903605 -71.94354248 196.0838623 C-71.36579814 192.34213428 -70.77918791 188.60179738 -70.19335938 184.86132812 C-69.04869175 177.54428935 -67.9137847 170.22578185 -66.78515625 162.90625 C-68.43515625 162.57625 -70.08515625 162.24625 -71.78515625 161.90625 C-72.95638011 156.98368736 -72.44077892 153.15963896 -71.16015625 148.359375 C-70.97788986 147.63885452 -70.79562347 146.91833405 -70.60783386 146.17597961 C-70.01184782 143.83292859 -69.39892588 141.49469948 -68.78515625 139.15625 C-68.36805477 137.53398897 -67.95180163 135.91150959 -67.53637695 134.28881836 C-66.3031896 129.49006236 -65.04628915 124.69772406 -63.78515625 119.90625 C-63.43397634 118.56594566 -63.08289581 117.22561527 -62.73193359 115.88525391 C-61.0290594 109.40331794 -59.28980097 102.93306615 -57.49462891 96.47607422 C-56.85987155 94.17688084 -56.24730867 91.87311949 -55.640625 89.56640625 C-55.31707031 88.39980469 -54.99351562 87.23320312 -54.66015625 86.03125 C-54.41007812 85.10570312 -54.16 84.18015625 -53.90234375 83.2265625 C-52.40222129 80.11092355 -50.68901334 78.75301955 -47.78515625 76.90625 C-45.109375 76.296875 -45.109375 76.296875 -42.47265625 76.15625 C-41.58964844 76.09953125 -40.70664063 76.0428125 -39.796875 75.984375 C-39.13300781 75.95859375 -38.46914062 75.9328125 -37.78515625 75.90625 C-38.92791016 75.48666016 -38.92791016 75.48666016 -40.09375 75.05859375 C-52.86164602 70.10127082 -60.59958257 63.54098452 -67.10546875 51.453125 C-71.40159398 41.65916119 -71.54643317 28.95989661 -68.16015625 18.84375 C-62.6816159 6.33505473 -54.41535956 -1.88709614 -41.78515625 -7.09375 C-27.77349308 -12.46348918 -11.6610095 -8.92057777 0 0 Z " fill="#020303" transform="translate(275.78515625,48.09375)"/>
<path d="M0 0 C1.2065625 0.0309375 1.2065625 0.0309375 2.4375 0.0625 C2.2725 0.5575 2.1075 1.0525 1.9375 1.5625 C-0.13419247 11.92096233 3.44341776 20.02083677 8.8125 28.71875 C10.71086251 31.45677286 12.8252948 33.80890871 15.23828125 36.1015625 C19.16612436 42.52428968 17.58989265 52.40178121 17.56787109 59.69091797 C17.56247757 61.82136028 17.56785924 63.95159507 17.57421875 66.08203125 C17.5735585 67.44531296 17.57227843 68.80859455 17.5703125 70.171875 C17.56918457 71.39874023 17.56805664 72.62560547 17.56689453 73.88964844 C17.46036881 76.5017395 17.35407664 78.62555276 16.4375 81.0625 C14.4375 82.1875 14.4375 82.1875 12.4375 83.0625 C10.8388451 86.25980979 10.94174884 89.59224187 11.4375 93.0625 C12.8603264 95.31713249 12.8603264 95.31713249 15.4375 96.0625 C19.05807268 96.06918717 19.05807268 96.06918717 22.4375 95.0625 C24.92586965 91.32994552 24.97976552 89.47809065 24.4375 85.0625 C23.61862305 84.52906982 22.79974609 83.99563965 21.95605469 83.44604492 C19.16135224 80.80115543 19.04426829 80.34638021 18.75878906 76.7121582 C18.71228718 74.92970916 18.6956166 73.14632097 18.703125 71.36328125 C18.69359802 70.41366013 18.68407104 69.464039 18.67425537 68.48564148 C18.66209553 66.47589732 18.66292611 64.46603866 18.67578125 62.45629883 C18.68739832 59.40173477 18.63536966 56.35278146 18.578125 53.29882812 C18.46696129 36.98461025 18.46696129 36.98461025 22.77734375 31.5859375 C23.98546372 30.39918794 25.20417956 29.22303828 26.4375 28.0625 C27.7894511 25.88760915 28.7190129 23.73610566 29.75 21.375 C30.22050781 20.31925781 30.69101562 19.26351562 31.17578125 18.17578125 C33.09888873 13.43052843 34.71913221 9.35636278 34.5625 4.1875 C34.54445313 3.40632812 34.52640625 2.62515625 34.5078125 1.8203125 C34.48460937 1.24023438 34.46140625 0.66015625 34.4375 0.0625 C35.0975 0.0625 35.7575 0.0625 36.4375 0.0625 C41.34200549 16.96861892 45.95596785 33.94730681 50.26379395 51.01519775 C50.62809098 52.45743309 50.9938829 53.89929169 51.36120605 55.34075928 C51.87855286 57.37440446 52.38942199 59.40956818 52.8984375 61.4453125 C53.19540527 62.62496582 53.49237305 63.80461914 53.79833984 65.02001953 C54.4375 68.0625 54.4375 68.0625 54.4375 72.0625 C52.75348074 72.57410079 51.06504778 73.07118059 49.375 73.5625 C48.43527344 73.8409375 47.49554688 74.119375 46.52734375 74.40625 C43.09122677 75.13604476 39.94036133 75.16745465 36.4375 75.0625 C36.17195313 74.12148437 35.90640625 73.18046875 35.6328125 72.2109375 C35.27960938 70.96570313 34.92640625 69.72046875 34.5625 68.4375 C34.21445312 67.20773438 33.86640625 65.97796875 33.5078125 64.7109375 C32.55583626 61.46587981 31.53038782 58.26239678 30.4375 55.0625 C27.9625 55.5575 27.9625 55.5575 25.4375 56.0625 C26.71664561 68.02736338 28.1753132 79.95414966 29.8125 91.875 C30.03331258 93.49631191 30.25393076 95.11765031 30.47436523 96.73901367 C31.47501227 104.08807501 32.48728723 111.43546769 33.51171875 118.78125 C33.8412837 121.14581412 34.17071397 123.51039702 34.5 125.875 C34.66242188 127.04111816 34.82484375 128.20723633 34.9921875 129.40869141 C36.35901782 139.30864341 37.57632746 149.22464117 38.78833008 159.14453125 C40.49417454 172.95468325 42.4958985 186.72249882 44.50732422 200.4909668 C44.63523346 201.371185 44.7631427 202.2514032 44.89492798 203.15829468 C45.13630065 204.8178585 45.37951296 206.47715614 45.62484741 208.13613892 C46.06164592 211.14095705 46.4375 214.02146536 46.4375 217.0625 C39.5075 217.0625 32.5775 217.0625 25.4375 217.0625 C21.05452128 175.61569149 21.05452128 175.61569149 19.4375 159.0625 C17.7875 159.0625 16.1375 159.0625 14.4375 159.0625 C13.69703721 162.47960718 13.23010357 165.80328256 12.97265625 169.2890625 C12.85736572 170.81877686 12.85736572 170.81877686 12.73974609 172.37939453 C12.66062988 173.47106934 12.58151367 174.56274414 12.5 175.6875 C12.41572754 176.81655762 12.33145508 177.94561523 12.24462891 179.10888672 C11.97275125 182.75988698 11.70516773 186.41118891 11.4375 190.0625 C11.24641748 192.63544073 11.05501122 195.20835744 10.86328125 197.78125 C10.38488128 204.20810445 9.91024152 210.63522696 9.4375 217.0625 C2.1775 217.0625 -5.0825 217.0625 -12.5625 217.0625 C-11.05323898 202.74329217 -9.14822068 188.50475304 -7.125 174.25 C-6.82203014 172.10094464 -6.51929486 169.9518562 -6.21679688 167.80273438 C-5.4757036 162.54298575 -4.73047829 157.2838344 -3.98318481 152.02496338 C-3.58658772 149.23212579 -3.19147293 146.43908224 -2.79663086 143.64599609 C-1.50544326 134.53417073 -0.17716474 125.42866115 1.19140625 116.328125 C1.33972397 115.34129227 1.48804169 114.35445953 1.64085388 113.33772278 C2.24586989 109.31556295 2.85136404 105.29348159 3.46069336 101.27197266 C7.1853598 78.77114576 7.1853598 78.77114576 8.4375 56.0625 C6.7875 56.0625 5.1375 56.0625 3.4375 56.0625 C1.1275 62.3325 -1.1825 68.6025 -3.5625 75.0625 C-9.79245144 74.37028317 -14.70586425 73.6597643 -20.5625 72.0625 C-19.91246015 65.89783633 -18.7236268 60.01721732 -17.25 54 C-17.02489746 53.06881348 -16.79979492 52.13762695 -16.56787109 51.17822266 C-15.04288648 44.91292441 -13.4331865 38.67475251 -11.73828125 32.453125 C-10.7226853 28.70124188 -9.75658925 24.93742298 -8.79296875 21.171875 C-8.31996338 19.32746826 -8.31996338 19.32746826 -7.83740234 17.44580078 C-7.20097485 14.96047232 -6.56714181 12.47447789 -5.93603516 9.98779297 C-5.64390137 8.84971191 -5.35176758 7.71163086 -5.05078125 6.5390625 C-4.78821533 5.50861816 -4.52564941 4.47817383 -4.25512695 3.41650391 C-3.27336793 0.07983824 -3.27336793 0.07983824 0 0 Z " fill="#FAFAFA" transform="translate(232.5625,131.9375)"/>
<path d="M0 0 C7.09832574 5.70952287 12.91293662 12.23024435 14.875 21.3125 C16.07489543 34.33205497 13.91223674 43.11939271 5.875 53.3125 C3.72145506 55.64163373 1.48793435 57.51781232 -1.125 59.3125 C-1.71152344 59.72628906 -2.29804688 60.14007813 -2.90234375 60.56640625 C-10.5661537 64.92187844 -20.61361738 64.37931131 -29.125 63.3125 C-33.01614785 62.2294958 -35.89316248 60.7073588 -39.125 58.3125 C-40.19427734 57.58546875 -40.19427734 57.58546875 -41.28515625 56.84375 C-47.94706127 51.76326916 -52.67254927 43.60094168 -54.125 35.3125 C-55.03097423 23.51998301 -53.67941123 15.23555439 -46.0625 6.0625 C-32.82516612 -7.85423346 -16.33832218 -8.82269398 0 0 Z " fill="#FBFBFB" transform="translate(268.125,52.6875)"/>
<path d="M0 0 C2.4837537 2.4837537 2.32803116 3.56777522 2.5625 7 C2.77217523 10.63718775 2.77217523 10.63718775 4 14 C10.27 14.33 16.54 14.66 23 15 C23 38.76 23 62.52 23 87 C17.39 87 11.78 87 6 87 C5.94465088 85.44796875 5.88930176 83.8959375 5.83227539 82.296875 C5.62380236 76.46704417 5.41251761 70.63731789 5.20043945 64.80761719 C5.10951856 62.29787868 5.01933191 59.78811345 4.92993164 57.27832031 C4.45075942 43.8400827 3.96721247 30.41340143 3 17 C1.05396726 16.40929986 1.05396726 16.40929986 -1 16 C-2.68655684 17.68655684 -2.20902858 19.82428916 -2.28125 22.13964844 C-2.31798828 23.23879578 -2.35472656 24.33794312 -2.39257812 25.47039795 C-2.42802734 26.67126038 -2.46347656 27.8721228 -2.5 29.109375 C-2.54060547 30.34230286 -2.58121094 31.57523071 -2.62304688 32.84552002 C-2.73119095 36.14157462 -2.83549157 39.43770085 -2.9375 42.73394775 C-3.0800267 47.33140804 -3.22658756 51.9287297 -3.37695312 56.52593994 C-3.45674537 58.97127943 -3.53373986 61.41671243 -3.60742188 63.86224365 C-3.85742492 71.59931699 -4.35921182 79.28517733 -5 87 C-10.61 87 -16.22 87 -22 87 C-22.02494748 79.31771067 -22.04297584 71.63544556 -22.05493164 63.953125 C-22.05992238 61.34634998 -22.06671732 58.7395777 -22.07543945 56.1328125 C-22.12028021 42.37461376 -22.09993994 28.7189359 -21 15 C-14.73 14.67 -8.46 14.34 -2 14 C-0.64908472 11.29816945 -0.66141942 8.88191794 -0.4375 5.875 C-0.35371094 4.77929688 -0.26992187 3.68359375 -0.18359375 2.5546875 C-0.09271484 1.29011719 -0.09271484 1.29011719 0 0 Z " fill="#61C3BF" transform="translate(249,341)"/>
<path d="M0 0 C2 0 2 0 3.625 1.5 C4.305625 2.2425 4.305625 2.2425 5 3 C5.33 2.34 5.66 1.68 6 1 C7.16525445 11.02118829 1.47417203 21.83436006 -4 30 C-4.84030762 30.82556396 -5.68061523 31.65112793 -6.54638672 32.50170898 C-10.00466093 36.65120663 -9.72137596 40.86664926 -9.6640625 46.0703125 C-9.66884613 47.0289621 -9.67362976 47.98761169 -9.67855835 48.97531128 C-9.68194988 50.99413705 -9.67279989 53.01301831 -9.65185547 55.03173828 C-9.62502032 58.12266007 -9.65165881 61.20997007 -9.68359375 64.30078125 C-9.68029067 66.26563301 -9.67388655 68.23048252 -9.6640625 70.1953125 C-9.67924423 71.57978073 -9.67924423 71.57978073 -9.69473267 72.99221802 C-9.65006523 75.43305786 -9.56556761 77.62476023 -9 80 C-6.62671022 82.42822252 -6.62671022 82.42822252 -4 84 C-3.19259668 88.44071826 -3.49668164 90.26790056 -6.0625 94 C-9 96 -9 96 -12.625 96 C-17.61768902 94.52068474 -17.61768902 94.52068474 -19 92 C-19.77419355 85.03225806 -19.77419355 85.03225806 -17.125 81.5 C-15 80 -15 80 -13 80 C-12.97512079 75.16195034 -12.95705572 70.32393865 -12.94506836 65.48583984 C-12.94006637 63.84292959 -12.93326267 62.20002373 -12.92456055 60.55712891 C-12.9123126 58.18390819 -12.90673021 55.81074677 -12.90234375 53.4375 C-12.89718246 52.71320801 -12.89202118 51.98891602 -12.88670349 51.24267578 C-12.64181644 42.68738615 -12.64181644 42.68738615 -15.3828125 34.92578125 C-15.95773438 34.39339844 -16.53265625 33.86101562 -17.125 33.3125 C-25.53702028 24.55287557 -29.20137468 14.88110593 -29 3 C-28.67 3 -28.34 3 -28 3 C-28 4.98 -28 6.96 -28 9 C-27.34 9 -26.68 9 -26 9 C-26 7.35 -26 5.7 -26 4 C-25.34 3.67 -24.68 3.34 -24 3 C-22.68463191 6.74900018 -21.37320499 10.49936725 -20.0625 14.25 C-19.68931641 15.31347656 -19.31613281 16.37695312 -18.93164062 17.47265625 C-18.57392578 18.49746094 -18.21621094 19.52226562 -17.84765625 20.578125 C-17.3527771 21.99206543 -17.3527771 21.99206543 -16.84790039 23.43457031 C-16.12792461 25.61294795 -15.51705773 27.76631062 -15 30 C-12.56694233 30.00774123 -12.56694233 30.00774123 -10 29 C-8.37331447 26.15708011 -8.37331447 26.15708011 -7.32421875 22.55859375 C-7.10933304 21.91632339 -6.89444733 21.27405304 -6.67304993 20.61231995 C-5.99139143 18.55995495 -5.33930753 16.49951651 -4.6875 14.4375 C-4.23043191 13.04429174 -3.77146968 11.65170336 -3.31054688 10.25976562 C-2.1849662 6.84676223 -1.08571318 3.42592291 0 0 Z " fill="#1C1C1C" transform="translate(262,133)"/>
<path d="M0 0 C2 2 2 2 2.14770508 5.46826172 C2.11346894 6.95562327 2.07010893 8.44279194 2.01953125 9.9296875 C1.98936336 11.54555689 1.96009458 13.16144327 1.93164062 14.77734375 C1.87587542 17.32780339 1.81242435 19.87741834 1.73266602 22.42724609 C1.66005546 24.88648214 1.6188946 27.3446913 1.58203125 29.8046875 C1.54995071 30.5652243 1.51787018 31.32576111 1.4848175 32.10934448 C1.40678264 34.54353729 1.40678264 34.54353729 2 38 C4.39152034 40.32411518 4.39152034 40.32411518 7 42 C7.80740332 46.44071826 7.50331836 48.26790056 4.9375 52 C2 54 2 54 -1.625 54 C-6.61768902 52.52068474 -6.61768902 52.52068474 -8 50 C-8.77419355 43.03225806 -8.77419355 43.03225806 -6.125 39.5 C-4 38 -4 38 -2 38 C-1.97494385 36.88439697 -1.9498877 35.76879395 -1.92407227 34.61938477 C-1.83016579 30.4950741 -1.72990486 26.3709385 -1.62768555 22.24682617 C-1.584273 20.4591073 -1.54260271 18.67134526 -1.50268555 16.88354492 C-1.4451354 14.31936609 -1.38139797 11.75540588 -1.31640625 9.19140625 C-1.29133751 7.98515343 -1.29133751 7.98515343 -1.26576233 6.75453186 C-1.11387171 1.11387171 -1.11387171 1.11387171 0 0 Z " fill="#151414" transform="translate(251,175)"/>
<path d="M0 0 C2.31 0 4.62 0 7 0 C7 1.32 7 2.64 7 4 C8.32 4 9.64 4 11 4 C11 6.31 11 8.62 11 11 C9.68 11 8.36 11 7 11 C7 12.32 7 13.64 7 15 C4.69 15 2.38 15 0 15 C0 13.68 0 12.36 0 11 C-1.32 11 -2.64 11 -4 11 C-4 8.69 -4 6.38 -4 4 C-2.68 4 -1.36 4 0 4 C0 2.68 0 1.36 0 0 Z " fill="#131212" transform="translate(234,168)"/>
<path d="M0 0 C2.99027497 0.4600423 4.2483344 1.19635744 6.6875 3.125 C10.59541445 5.33702705 12.50359293 5.31929069 16.8203125 4.62890625 C19.99224227 3.71370788 22.365621 1.94442259 25 0 C25.99 0 26.98 0 28 0 C27.875 2.25 27.875 2.25 27 5 C21.39626949 9.38552822 16.83613004 10.44285057 9.875 10.43359375 C5.23322849 9.73354397 2.30991882 7.18662671 -1 4 C-0.67 2.68 -0.34 1.36 0 0 Z " fill="#0E0E0E" transform="translate(235,97)"/>
<path d="M0 0 C0.66 0 1.32 0 2 0 C3.78964059 11.73208833 -2.15776909 21.70225387 -8.76953125 30.984375 C-9.50558594 31.97953125 -10.24164063 32.9746875 -11 34 C-12.32 32.68 -13.64 31.36 -15 30 C-14.23018799 29.967854 -13.46037598 29.93570801 -12.66723633 29.90258789 C-9.72444486 29.24557621 -9.72444486 29.24557621 -8.5144043 26.22436523 C-7.92526245 24.40980835 -7.92526245 24.40980835 -7.32421875 22.55859375 C-7.10933304 21.91632339 -6.89444733 21.27405304 -6.67304993 20.61231995 C-5.99139143 18.55995495 -5.33930753 16.49951651 -4.6875 14.4375 C-4.23043191 13.04429174 -3.77146968 11.65170336 -3.31054688 10.25976562 C-2.1849662 6.84676223 -1.08571318 3.42592291 0 0 Z " fill="#EBEBEB" transform="translate(262,133)"/>
<path d="M0 0 C1.8125 1.1875 1.8125 1.1875 3 3 C3.4375 5.5 3.4375 5.5 3 8 C1.3125 9.875 1.3125 9.875 -1 11 C-4.37036311 10.75925978 -5.58798021 10.41201979 -8 8 C-8.36487512 5.15397406 -8.40199375 3.6135694 -6.8125 1.1875 C-4.35092224 -0.42525784 -2.88934264 -0.4334014 0 0 Z " fill="#111111" transform="translate(266,73)"/>
<path d="M0 0 C2.4375 0.75 2.4375 0.75 4.4375 2.75 C4.8008156 5.58386167 4.7943671 7.15522151 3.3125 9.625 C1.4375 10.75 1.4375 10.75 -1.6875 10.5 C-4.5625 9.75 -4.5625 9.75 -5.5625 8.75 C-5.8125 5.3125 -5.8125 5.3125 -5.5625 1.75 C-2.5625 -0.25 -2.5625 -0.25 0 0 Z " fill="#0A0A0A" transform="translate(234.5625,73.25)"/>
<path d="M0 0 C2.24189777 2.24189777 2.71430135 3.66557633 3.69140625 6.6484375 C3.99626953 7.57140625 4.30113281 8.494375 4.61523438 9.4453125 C4.92783203 10.41210938 5.24042969 11.37890625 5.5625 12.375 C5.87896484 13.3340625 6.19542969 14.293125 6.52148438 15.28125 C7.79593188 19.16682669 9.05343364 23.01971427 10 27 C4.50812715 21.94986475 0.50408792 15.25388484 -0.3828125 7.76953125 C-0.37603823 5.15127708 -0.27665382 2.60259516 0 0 Z " fill="#E2E2E2" transform="translate(237,136)"/>
<path d="M0 0 C5.56818182 0.56818182 5.56818182 0.56818182 7 2 C7.1875 4.4375 7.1875 4.4375 7 7 C5 9 5 9 1.875 9.125 C0.451875 9.063125 0.451875 9.063125 -1 9 C-1.625 5.625 -1.625 5.625 -2 2 C-1.34 1.34 -0.68 0.68 0 0 Z " fill="#F5F5F5" transform="translate(248,216)"/>
<path d="M0 0 C0.33 0 0.66 0 1 0 C1.02705308 2.41674224 1.04686438 4.8331794 1.0625 7.25 C1.07087891 7.93191406 1.07925781 8.61382812 1.08789062 9.31640625 C1.10428392 12.69342554 1.05628768 15.77291639 0 19 C-0.66 19 -1.32 19 -2 19 C-3.61288642 13.25084035 -3.83286348 7.97805076 -1.5 2.4375 C-1.005 1.633125 -0.51 0.82875 0 0 Z " fill="#BABABA" transform="translate(208,277)"/>
<path d="M0 0 C2 2 2 2 2.22705078 4.33837891 C2.21657715 5.29147949 2.20610352 6.24458008 2.1953125 7.2265625 C2.18886719 8.2578125 2.18242187 9.2890625 2.17578125 10.3515625 C2.15902344 11.43179688 2.14226562 12.51203125 2.125 13.625 C2.11597656 14.71296875 2.10695312 15.8009375 2.09765625 16.921875 C2.07403409 19.61480152 2.04109556 22.30729255 2 25 C1.34 25 0.68 25 0 25 C-0.19585353 21.02119772 -0.3802867 17.04194844 -0.5625 13.0625 C-0.61857422 11.92619141 -0.67464844 10.78988281 -0.73242188 9.61914062 C-0.78076172 8.53955078 -0.82910156 7.45996094 -0.87890625 6.34765625 C-0.9260376 5.34742432 -0.97316895 4.34719238 -1.02172852 3.31665039 C-1 1 -1 1 0 0 Z " fill="#030303" transform="translate(251,175)"/>
<path d="M0 0 C0.99 0 1.98 0 3 0 C3 1.32 3 2.64 3 4 C4.32 4 5.64 4 7 4 C7 4.99 7 5.98 7 7 C5.68 7 4.36 7 3 7 C3 8.32 3 9.64 3 11 C2.01 11 1.02 11 0 11 C0 9.68 0 8.36 0 7 C-1.32 7 -2.64 7 -4 7 C-4 6.01 -4 5.02 -4 4 C-2.68 4 -1.36 4 0 4 C0 2.68 0 1.36 0 0 Z " fill="#EA0000" transform="translate(236,170)"/>
<path d="M0 0 C3.04049059 3.32929708 3.38427311 5.60704648 3.3125 10.0625 C3.30863281 11.10535156 3.30476563 12.14820313 3.30078125 13.22265625 C3 16 3 16 1 19 C-0.25433458 15.23699626 -0.10695422 11.72789091 -0.0625 7.8125 C-0.05798828 7.06291016 -0.05347656 6.31332031 -0.04882812 5.54101562 C-0.03706354 3.69397617 -0.01912865 1.84697787 0 0 Z " fill="#F2F2F2" transform="translate(291,278)"/>
<path d="M0 0 C1.32 0.33 2.64 0.66 4 1 C3.34 1 2.68 1 2 1 C2 1.99 2 2.98 2 4 C3.32 4 4.64 4 6 4 C6 5.32 6 6.64 6 8 C6.99 8 7.98 8 9 8 C9.33 7.01 9.66 6.02 10 5 C10 6.65 10 8.3 10 10 C8.02 10 6.04 10 4 10 C4 8.68 4 7.36 4 6 C2.68 6 1.36 6 0 6 C0 4.02 0 2.04 0 0 Z " fill="#080404" transform="translate(230,173)"/>
<path d="M0 0 C1 3 1 3 0.22265625 5.04296875 C-0.16019531 5.75066406 -0.54304688 6.45835937 -0.9375 7.1875 C-1.31777344 7.90292969 -1.69804687 8.61835938 -2.08984375 9.35546875 C-2.39019531 9.89816406 -2.69054687 10.44085938 -3 11 C-4.32 11 -5.64 11 -7 11 C-3.675 2.45 -3.675 2.45 0 0 Z " fill="#101010" transform="translate(262,151)"/>
<path d="M0 0 C0.33 0 0.66 0 1 0 C1 3.3 1 6.6 1 10 C0.01 10 -0.98 10 -2 10 C-1.85950482 8.52031676 -1.71245174 7.04125484 -1.5625 5.5625 C-1.48128906 4.73878906 -1.40007812 3.91507812 -1.31640625 3.06640625 C-1 1 -1 1 0 0 Z " fill="#EDEDED" transform="translate(207,279)"/>
<path d="M0 0 C1.32 0 2.64 0 4 0 C4 2.31 4 4.62 4 7 C2.68 7 1.36 7 0 7 C-0.33 8.32 -0.66 9.64 -1 11 C-1.33 9.02 -1.66 7.04 -2 5 C-1.360625 4.896875 -0.72125 4.79375 -0.0625 4.6875 C0.618125 4.460625 1.29875 4.23375 2 4 C2.33 3.01 2.66 2.02 3 1 C2.01 0.67 1.02 0.34 0 0 Z " fill="#262323" transform="translate(241,172)"/>
<path d="M0 0 C0.66 0.99 1.32 1.98 2 3 C0.35 4.65 -1.3 6.3 -3 8 C-3.99 6.68 -4.98 5.36 -6 4 C-4.35 3.67 -2.7 3.34 -1 3 C-0.67 2.01 -0.34 1.02 0 0 Z " fill="#DBDBDB" transform="translate(253,159)"/>
</svg>
