<?xml version="1.0" encoding="UTF-8"?>
<!-- Generator: visioncortex VTracer 0.6.4 -->
<svg version="1.1" xmlns="http://www.w3.org/2000/svg" width="500" height="500">
<path d="M0 0 C12.29 12.5 12.29 12.5 13.51 19.82 C13.3 21.86 13.3 21.86 12.11 25.43 C11.8 26.88 11.8 26.88 11.49 28.36 C6.22 40.1 -5.02 49.97 -15.89 56.43 C-14.56 63.92 -13.1 71.39 -11.57 78.85 C-11.12 81.2 -10.74 83.57 -10.42 85.94 C-9.86 89.57 -8.9 92.9 -7.89 96.43 C-6.82 100.93 -5.84 105.45 -4.85 109.97 C-4.39 112.09 -3.92 114.22 -3.45 116.34 C-1.88 123.48 -0.48 130.62 0.67 137.84 C1.28 141.37 2.13 144.77 3.05 148.24 C5.04 155.91 6.61 163.64 8.11 171.43 C8.38 172.77 8.66 174.11 8.93 175.45 C9.07 176.12 9.2 176.78 9.34 177.47 C9.72 179.31 10.09 181.15 10.47 182.99 C10.9 185.29 11.27 187.6 11.57 189.93 C12.13 193.55 13.08 196.91 14.11 200.43 C14.62 202.82 15.1 205.21 15.55 207.61 C16.46 212.34 17.47 217.02 18.68 221.68 C20.42 228.44 21.69 235.25 22.61 242.18 C23.05 245.46 23.05 245.46 24.06 248.68 C25.08 252.31 25.85 255.91 26.55 259.61 C27.46 264.34 28.47 269.02 29.68 273.68 C31.42 280.44 32.69 287.25 33.61 294.18 C34.04 296.97 34.7 299.54 35.52 302.24 C37.66 310.06 39.06 318.1 40.61 326.05 C41.73 331.7 43.01 337.27 44.47 342.84 C45.1 345.36 45.62 347.87 46.11 350.43 C48.99 365.35 48.99 365.35 52.6 380.11 C53.11 382.43 53.11 382.43 53.11 386.43 C51.46 386.1 49.81 385.77 48.11 385.43 C47.69 383.31 47.27 381.19 46.84 379.08 C46.48 377.25 46.11 375.43 45.75 373.61 C44.92 369.47 44.09 365.33 43.29 361.18 C43.04 359.94 42.8 358.7 42.55 357.43 C42.34 356.35 42.14 355.28 41.92 354.18 C41.24 351.01 40.48 347.89 39.68 344.75 C38.13 338.62 36.87 332.45 35.68 326.24 C34.26 319.02 32.8 311.83 31.05 304.68 C29.3 297.5 27.9 290.28 26.54 283.02 C24.42 271.64 21.9 260.37 19.18 249.12 C18.12 244.59 17.23 240.03 16.33 235.46 C15.39 230.76 14.4 226.07 13.36 221.38 C13.21 220.71 13.06 220.04 12.91 219.35 C12.31 216.63 11.7 213.9 11.09 211.18 C9.61 204.56 8.15 197.95 7.09 191.25 C6.26 186.07 5.14 181 3.93 175.89 C2.58 170.14 1.32 164.37 0.06 158.6 C-0.38 156.56 -0.83 154.52 -1.28 152.48 C-2.76 145.72 -4.22 138.95 -5.6 132.17 C-5.85 130.97 -6.1 129.77 -6.35 128.53 C-6.89 125.43 -6.89 125.43 -6.89 121.43 C-7.55 121.1 -8.21 120.77 -8.89 120.43 C-8.89 119.44 -8.89 118.45 -8.89 117.43 C-9.15 115.83 -9.45 114.23 -9.76 112.65 C-10.03 111.26 -10.03 111.26 -10.31 109.84 C-10.5 108.88 -10.69 107.92 -10.89 106.93 C-11.26 105.02 -11.64 103.11 -12.01 101.21 C-12.18 100.36 -12.35 99.52 -12.52 98.65 C-12.89 96.43 -12.89 96.43 -12.89 93.43 C-13.55 93.1 -14.21 92.77 -14.89 92.43 C-15.19 90.31 -15.19 90.31 -15.32 87.55 C-15.69 82.36 -16.75 77.71 -18.26 72.74 C-18.89 70.43 -18.89 70.43 -18.89 67.43 C-19.52 65.08 -20.18 62.75 -20.89 60.43 C-22.04 63.89 -21.7 65.48 -21.03 69.04 C-20.82 70.17 -20.61 71.31 -20.4 72.48 C-20.17 73.7 -19.94 74.92 -19.7 76.18 C-19.23 78.74 -18.75 81.3 -18.28 83.87 C-17.92 85.79 -17.92 85.79 -17.56 87.75 C-16.79 91.94 -16.07 96.14 -15.36 100.35 C-13.65 110.43 -11.72 120.45 -9.68 130.47 C-8.16 137.99 -6.76 145.53 -5.46 153.1 C-4.98 155.89 -4.44 158.65 -3.89 161.43 C-3.42 163.99 -2.96 166.55 -2.51 169.11 C-2.38 169.86 -2.25 170.6 -2.11 171.37 C-1.31 175.92 -0.55 180.47 0.19 185.04 C1.9 195.55 3.97 205.99 6.11 216.43 C6.98 220.64 7.74 224.87 8.49 229.11 C8.62 229.87 8.76 230.62 8.89 231.39 C9.54 235.07 10.17 238.74 10.77 242.42 C12.63 253.92 14.77 265.37 16.96 276.82 C18.34 284.09 19.61 291.36 20.68 298.68 C21.19 301.91 21.87 305.09 22.62 308.28 C23.55 312.31 24.32 316.37 25.11 320.43 C25.36 321.68 25.61 322.94 25.87 324.23 C27.22 331.1 28.43 337.89 28.81 344.9 C29.12 347.51 29.82 349.87 30.57 352.38 C31.68 356.54 32.29 360.81 32.99 365.05 C34.33 372.96 35.73 380.86 37.24 388.74 C37.4 389.57 37.56 390.39 37.72 391.25 C38.35 394.54 38.99 397.84 39.67 401.12 C39.94 402.45 39.94 402.45 40.22 403.81 C40.39 404.6 40.56 405.4 40.73 406.23 C41.21 408.98 41.26 411.64 41.11 414.43 C39.79 414.43 38.47 414.43 37.11 414.43 C37.07 413.79 37.02 413.15 36.97 412.49 C36.85 411.25 36.85 411.25 36.74 409.99 C36.67 409.17 36.6 408.34 36.53 407.49 C36.39 406.81 36.25 406.13 36.11 405.43 C35.45 405.1 34.79 404.77 34.11 404.43 C33.84 402.41 33.84 402.41 33.74 399.61 C33.18 391.14 31.31 382.96 29.58 374.67 C28.67 370.27 27.89 365.85 27.11 361.43 C26.76 359.47 26.41 357.51 26.05 355.55 C25.9 354.69 25.74 353.82 25.58 352.93 C25.11 350.43 24.62 347.93 24.11 345.43 C23.59 342.76 23.07 340.09 22.55 337.43 C22.41 336.73 22.27 336.03 22.13 335.31 C21.42 331.62 21.06 328.18 21.11 324.43 C20.78 324.1 20.45 323.77 20.11 323.43 C19.76 321.24 19.46 319.06 19.18 316.86 C18.41 311.09 18.41 311.09 17.11 305.43 C15.81 300.7 15.3 295.85 14.68 290.99 C14.18 287.85 13.47 284.85 12.67 281.77 C11.46 276.68 10.64 271.51 9.74 266.36 C9.52 265.13 9.3 263.89 9.07 262.61 C8.06 256.86 7.06 251.11 6.07 245.36 C4.19 234.33 2.14 223.35 -0.09 212.38 C-1.62 204.86 -3.01 197.32 -4.31 189.75 C-4.79 186.97 -5.33 184.2 -5.89 181.43 C-6.35 178.86 -6.81 176.3 -7.26 173.74 C-7.39 172.99 -7.52 172.25 -7.66 171.48 C-8.46 166.93 -9.22 162.38 -9.97 157.82 C-11.44 148.75 -13.18 139.75 -15.02 130.75 C-15.72 127.32 -16.32 123.88 -16.89 120.43 C-17.34 118.01 -17.8 115.59 -18.26 113.18 C-19.37 107.36 -20.38 101.52 -21.32 95.68 C-22.43 88.92 -23.67 82.2 -25.01 75.49 C-25.18 74.63 -25.35 73.77 -25.53 72.89 C-26.18 69.65 -26.84 66.57 -27.89 63.43 C-28.55 63.43 -29.21 63.43 -29.89 63.43 C-29.74 63.99 -29.6 64.56 -29.45 65.15 C-28.27 70.05 -27.67 74.39 -27.89 79.43 C-27.23 79.76 -26.57 80.09 -25.89 80.43 C-25.89 84.72 -25.89 89.01 -25.89 93.43 C-25.23 93.76 -24.57 94.09 -23.89 94.43 C-23.92 95.46 -23.92 95.46 -23.96 96.52 C-23.97 97.46 -23.99 98.4 -24.01 99.36 C-24.05 100.74 -24.05 100.74 -24.08 102.14 C-23.92 104.8 -23.58 106.94 -22.96 109.51 C-21.84 114.45 -21.11 119.41 -20.45 124.44 C-20.26 125.83 -20.26 125.83 -20.07 127.26 C-19.67 130.21 -19.28 133.16 -18.89 136.11 C-18.49 139.04 -18.1 141.97 -17.71 144.89 C-17.45 146.79 -17.2 148.68 -16.95 150.57 C-15.58 160.77 -14.2 170.94 -12.32 181.06 C-11.12 187.6 -10.59 194.1 -10.17 200.73 C-10.18 203.34 -10.18 203.34 -8.89 204.43 C-8.56 208.05 -8.37 211.67 -8.17 215.3 C-8.23 218.29 -8.23 218.29 -6.89 219.43 C-6.46 222 -6.1 224.57 -5.76 227.16 C-5.61 228.34 -5.61 228.34 -5.45 229.55 C-5.11 232.09 -4.78 234.63 -4.45 237.18 C-4.01 240.48 -3.58 243.79 -3.14 247.1 C-3.03 247.91 -2.93 248.71 -2.82 249.55 C-1.93 256.19 -0.94 262.81 0.11 269.43 C0.25 270.31 0.39 271.19 0.53 272.09 C1.04 275.29 1.55 278.49 2.06 281.69 C2.24 282.86 2.24 282.86 2.43 284.04 C2.54 284.72 2.65 285.4 2.76 286.09 C3.57 291.41 4.3 296.73 5.02 302.06 C5.2 303.33 5.37 304.61 5.55 305.92 C5.64 306.6 5.73 307.27 5.83 307.96 C6.12 310.1 6.41 312.23 6.7 314.36 C7.52 320.43 8.35 326.49 9.17 332.56 C9.68 336.28 10.19 340 10.69 343.73 C10.88 345.13 11.08 346.53 11.27 347.94 C13.68 366.04 13.68 366.04 16.68 384.06 C17.88 390.6 18.41 397.1 18.83 403.73 C18.82 406.34 18.82 406.34 20.11 407.43 C20.15 409.43 20.16 411.43 20.11 413.43 C18.79 413.43 17.47 413.43 16.11 413.43 C14.84 408.32 13.98 403.72 14.11 398.43 C13.78 398.1 13.45 397.77 13.11 397.43 C12.83 395.89 12.6 394.35 12.4 392.81 C12.2 391.4 12.2 391.4 12.01 389.97 C11.88 388.99 11.75 388 11.61 386.99 C11.36 385.05 11.1 383.12 10.83 381.18 C10.72 380.32 10.6 379.45 10.49 378.57 C10.21 376.38 10.21 376.38 9.11 374.43 C8.94 372.41 8.81 370.38 8.71 368.36 C8.16 359.98 6.93 351.77 5.61 343.49 C5.39 342.02 5.16 340.56 4.93 339.09 C4.51 336.4 4.09 333.71 3.67 331.03 C2.76 325.14 1.94 319.23 1.13 313.32 C0.94 311.93 0.75 310.54 0.55 309.14 C0.4 308.05 0.4 308.05 0.25 306.93 C-0.41 302.18 -1.07 297.43 -1.72 292.67 C-2.3 288.53 -2.87 284.38 -3.44 280.24 C-6.41 258.51 -6.41 258.51 -9.64 236.82 C-9.76 236.08 -9.87 235.34 -9.99 234.57 C-10.45 231.75 -10.98 229.15 -11.89 226.43 C-11.89 225.11 -11.89 223.79 -11.89 222.43 C-11.99 220.53 -12.12 218.63 -12.26 216.74 C-12.33 215.77 -12.4 214.79 -12.47 213.79 C-12.79 211.23 -13.21 208.92 -13.81 206.42 C-15.02 201.04 -15.78 195.63 -16.51 190.16 C-16.65 189.1 -16.8 188.03 -16.95 186.93 C-17.41 183.53 -17.87 180.14 -18.32 176.74 C-18.63 174.51 -18.93 172.28 -19.23 170.05 C-20.26 162.44 -21.29 154.84 -22.32 147.23 C-22.72 144.22 -23.13 141.2 -23.54 138.18 C-23.66 137.29 -23.78 136.4 -23.9 135.48 C-24.72 129.42 -25.73 123.42 -26.89 117.43 C-27.84 111.68 -28.23 105.93 -28.6 100.12 C-28.59 97.51 -28.59 97.51 -29.89 96.43 C-30.26 94.29 -30.57 92.14 -30.86 89.98 C-31.12 88.03 -31.12 88.03 -31.4 86.03 C-31.58 84.64 -31.76 83.25 -31.95 81.86 C-32.14 80.47 -32.32 79.08 -32.51 77.69 C-32.97 74.27 -33.43 70.85 -33.89 67.43 C-36.73 67.43 -39.12 67.83 -41.89 68.43 C-41.74 69.42 -41.6 70.41 -41.45 71.44 C-40.7 76.68 -40.05 81.94 -39.39 87.2 C-39.07 90.31 -39.07 90.31 -37.89 92.43 C-37.7 94.46 -37.56 96.5 -37.45 98.55 C-36.92 106.58 -35.94 114.52 -34.89 122.49 C-33.74 131.22 -32.68 139.92 -32.14 148.72 C-31.82 152.17 -31.03 155.16 -29.89 158.43 C-30.22 158.76 -30.55 159.09 -30.89 159.43 C-30.81 160.9 -30.65 162.36 -30.46 163.82 C-30.35 164.76 -30.23 165.69 -30.11 166.65 C-29.98 167.67 -29.84 168.69 -29.71 169.73 C-29.57 170.77 -29.44 171.81 -29.31 172.88 C-29.02 175.08 -28.74 177.27 -28.45 179.47 C-28.01 182.84 -27.58 186.22 -27.16 189.59 C-26.88 191.72 -26.61 193.85 -26.33 195.98 C-26.2 197 -26.07 198.01 -25.94 199.06 C-25.82 200 -25.69 200.93 -25.57 201.9 C-25.46 202.73 -25.35 203.56 -25.24 204.41 C-24.97 206.49 -24.97 206.49 -23.89 208.43 C-24.13 209.34 -24.13 209.34 -24.37 210.26 C-24.99 212.86 -24.65 214.45 -24.07 217.05 C-23.11 221.85 -22.48 226.65 -21.97 231.52 C-21.24 238.25 -20.48 244.98 -19.67 251.7 C-19.51 253.01 -19.51 253.01 -19.35 254.35 C-18.92 257.91 -18.49 261.47 -18.06 265.04 C-16.95 274.26 -15.86 283.48 -14.92 292.72 C-13.64 305.17 -12.01 317.57 -10.42 329.98 C-7.73 350.94 -7.73 350.94 -7.06 360.91 C-6.83 364.21 -6.42 367.46 -5.95 370.74 C-5.38 374.78 -4.83 378.81 -4.35 382.86 C-4.26 383.59 -4.17 384.32 -4.08 385.08 C-3.91 386.49 -3.75 387.91 -3.58 389.32 C-3.17 392.99 -3.17 392.99 -1.89 396.43 C-1.82 399.51 -1.89 402.59 -1.95 405.68 C-2.08 408.39 -2.08 408.39 -0.89 410.43 C-0.85 412.43 -0.84 414.43 -0.89 416.43 C-2.21 416.1 -3.53 415.77 -4.89 415.43 C-6.39 410.92 -6.96 407.42 -6.83 402.62 C-6.89 400.19 -7.28 397.99 -7.76 395.61 C-8.69 390.84 -9.29 386.08 -9.76 381.24 C-10.81 370.68 -12.14 360.16 -13.48 349.63 C-14.24 343.62 -15 337.62 -15.65 331.6 C-16.14 327.04 -16.67 322.48 -17.2 317.93 C-17.39 316.28 -17.39 316.28 -17.58 314.59 C-18.35 307.92 -19.15 301.26 -19.97 294.6 C-20.11 293.48 -20.11 293.48 -20.25 292.35 C-20.7 288.69 -21.15 285.03 -21.62 281.37 C-21.78 280.02 -21.95 278.67 -22.12 277.32 C-22.34 275.54 -22.34 275.54 -22.57 273.72 C-22.89 270.43 -22.89 270.43 -22.87 267.43 C-22.89 264.01 -23.36 260.8 -23.89 257.43 C-24.19 255.03 -24.49 252.64 -24.78 250.25 C-25.56 244.01 -26.36 237.78 -27.18 231.54 C-27.51 228.99 -27.84 226.44 -28.17 223.89 C-28.4 222.14 -28.63 220.4 -28.86 218.66 C-29.2 216.1 -29.53 213.54 -29.86 210.98 C-29.97 210.21 -30.07 209.44 -30.17 208.64 C-30.7 204.53 -30.89 200.58 -30.89 196.43 C-31.19 194.09 -31.52 191.75 -31.89 189.43 C-33.53 177.46 -35.04 165.48 -36.55 153.5 C-36.81 151.36 -37.09 149.23 -37.36 147.09 C-40.03 126.04 -40.03 126.04 -40.71 115.91 C-40.93 112.77 -41.32 109.67 -41.76 106.55 C-42.42 101.87 -43.04 97.19 -43.61 92.5 C-43.74 91.47 -43.87 90.43 -44 89.37 C-44.25 87.31 -44.5 85.25 -44.74 83.19 C-44.86 82.25 -44.98 81.3 -45.1 80.32 C-45.21 79.47 -45.31 78.63 -45.42 77.75 C-45.91 75.32 -46.59 73.54 -47.89 71.43 C-48.55 71.1 -49.21 70.77 -49.89 70.43 C-49.75 71.28 -49.62 72.13 -49.48 73 C-48.02 83.02 -47.42 92.96 -46.99 103.07 C-46.6 111.79 -45.91 120.45 -44.89 129.11 C-44.16 135.24 -43.69 141.32 -43.45 147.49 C-43.08 156.67 -42.25 165.79 -41.39 174.93 C-40.45 184.82 -39.63 194.69 -39.23 204.62 C-38.98 210.45 -38.49 216.24 -37.89 222.05 C-37.8 222.86 -37.72 223.68 -37.63 224.52 C-37.25 228.6 -37.25 228.6 -35.89 232.43 C-36.55 232.43 -37.21 232.43 -37.89 232.43 C-37.56 233.09 -37.23 233.75 -36.89 234.43 C-36.68 235.99 -36.52 237.56 -36.39 239.13 C-36.3 240.08 -36.22 241.04 -36.14 242.02 C-36.05 243.04 -35.97 244.06 -35.89 245.11 C-35.75 246.67 -35.75 246.67 -35.62 248.27 C-35.04 255.23 -34.54 262.2 -34.1 269.18 C-33.72 277.93 -33.72 277.93 -31.89 286.43 C-32.22 286.76 -32.55 287.09 -32.89 287.43 C-32.84 288.96 -32.73 290.5 -32.58 292.03 C-32.49 292.98 -32.4 293.94 -32.31 294.93 C-32.21 295.96 -32.11 296.99 -32.01 298.05 C-31.81 300.19 -31.62 302.32 -31.43 304.46 C-31.33 305.5 -31.23 306.53 -31.14 307.6 C-30.68 312.76 -30.36 317.93 -30.03 323.1 C-29 339.42 -27.81 355.71 -26.32 371.99 C-25.01 386.45 -23.79 400.9 -23.89 415.43 C-25.21 415.43 -26.53 415.43 -27.89 415.43 C-28.58 410.6 -29.02 405.8 -29.32 400.93 C-29.77 393.86 -30.31 386.8 -30.89 379.74 C-31.01 378.16 -31.01 378.16 -31.14 376.55 C-31.22 375.56 -31.3 374.56 -31.39 373.54 C-31.46 372.65 -31.53 371.76 -31.6 370.85 C-31.82 368.44 -31.82 368.44 -32.48 366.23 C-32.89 364.43 -32.89 364.43 -31.89 362.43 C-32.01 359.9 -32.2 357.42 -32.44 354.9 C-32.51 354.15 -32.58 353.41 -32.65 352.64 C-32.87 350.26 -33.1 347.87 -33.32 345.49 C-33.55 343.11 -33.77 340.73 -33.99 338.35 C-34.12 336.86 -34.26 335.38 -34.4 333.9 C-34.67 331.06 -34.89 328.28 -34.89 325.43 C-35.02 323.66 -35.17 321.89 -35.32 320.13 C-35.41 319.09 -35.5 318.05 -35.6 316.97 C-35.79 314.79 -35.98 312.61 -36.18 310.43 C-36.64 305.07 -36.9 299.81 -36.89 294.43 C-37.15 291.85 -37.44 289.3 -37.76 286.74 C-39.27 274.01 -40.03 261.22 -40.89 248.43 C-41.02 246.45 -41.15 244.46 -41.29 242.48 C-41.75 235.66 -42.2 228.83 -42.65 222.01 C-42.82 219.46 -42.99 216.92 -43.16 214.38 C-43.21 213.71 -43.26 213.03 -43.3 212.34 C-43.43 210.46 -43.56 208.57 -43.69 206.69 C-43.92 202.92 -43.96 199.2 -43.89 195.43 C-44.55 195.1 -45.21 194.77 -45.89 194.43 C-45.85 193.31 -45.85 193.31 -45.82 192.17 C-45.64 181.38 -46.65 170.78 -47.65 160.04 C-48.11 154.97 -48.41 149.88 -48.73 144.8 C-49.74 129.05 -50.86 113.32 -52.2 97.59 C-52.86 89.88 -53.42 82.16 -53.89 74.43 C-57.82 73.2 -60.05 73.94 -63.89 75.43 C-63.74 77.18 -63.6 78.93 -63.45 80.68 C-63.37 81.65 -63.29 82.63 -63.2 83.63 C-62.96 86.37 -62.96 86.37 -62.29 88.72 C-62.16 89.29 -62.02 89.85 -61.89 90.43 C-62.22 90.76 -62.55 91.09 -62.89 91.43 C-62.9 92.96 -62.85 94.5 -62.76 96.03 C-62.72 96.99 -62.67 97.94 -62.62 98.93 C-62.56 99.96 -62.51 100.99 -62.45 102.05 C-62.05 110.11 -61.8 118.1 -61.95 126.17 C-61.89 129.2 -61.54 132.1 -61.14 135.1 C-60.6 140.1 -60.58 145.15 -60.45 150.18 C-59.99 165.63 -59.29 181.07 -58.55 196.51 C-58.5 197.43 -58.46 198.35 -58.41 199.3 C-58.33 201.02 -58.25 202.74 -58.17 204.46 C-57.95 209.14 -57.85 213.79 -57.89 218.46 C-57.88 221.34 -57.67 224.19 -57.45 227.05 C-56.89 234.8 -56.56 242.55 -56.28 250.31 C-56.12 254.32 -55.91 258.22 -55.35 262.21 C-54.33 269.67 -54.85 277.33 -54.93 284.83 C-54.97 292.35 -54.73 299.77 -54.17 307.26 C-53.55 315.95 -53.26 324.66 -52.89 333.36 C-52.8 335.38 -52.71 337.4 -52.62 339.42 C-52.14 350.48 -51.66 361.55 -51.21 372.61 C-51.03 377.17 -50.83 381.73 -50.6 386.29 C-50.13 396.01 -49.72 405.69 -49.89 415.43 C-51.21 415.43 -52.53 415.43 -53.89 415.43 C-55.38 397.05 -55.89 378.62 -56.51 360.2 C-56.86 349.83 -57.3 339.47 -57.77 329.11 C-57.92 325.72 -58.06 322.32 -58.21 318.93 C-58.59 310.23 -58.97 301.52 -59.36 292.81 C-59.4 291.86 -59.44 290.9 -59.49 289.92 C-59.53 288.95 -59.57 287.98 -59.62 286.98 C-61.01 255.83 -61.01 255.83 -61.56 242.28 C-61.74 237.82 -61.93 233.36 -62.13 228.91 C-62.67 216.85 -63.12 204.79 -63.51 192.72 C-63.73 186.32 -63.99 179.94 -64.45 173.55 C-64.88 167.39 -64.9 161.28 -64.86 155.11 C-64.89 150.28 -65.24 145.49 -65.6 140.68 C-66.17 132.62 -66.42 124.53 -66.76 116.46 C-66.89 113.44 -67.03 110.42 -67.17 107.4 C-67.69 96.4 -68.03 85.44 -67.89 74.43 C-69.37 74.92 -69.37 74.92 -70.89 75.43 C-72.34 78.9 -72.01 82.7 -72.02 86.4 C-72.02 87.46 -72.02 87.46 -72.02 88.53 C-72.02 90.87 -72.02 93.21 -72.02 95.55 C-72.02 97.21 -72.02 98.88 -72.02 100.55 C-72.03 105.05 -72.02 109.55 -72.01 114.05 C-72.01 116.87 -72.01 119.68 -72.01 122.5 C-72 150.23 -71.75 177.96 -71.28 205.69 C-70.95 224.94 -70.79 244.17 -70.92 263.42 C-70.93 264.27 -70.93 265.12 -70.94 266 C-70.94 267.55 -70.96 269.1 -70.97 270.65 C-70.99 273.78 -70.84 276.7 -70.32 279.8 C-69.89 282.43 -69.89 282.43 -70.89 284.43 C-70.98 286.27 -71.01 288.11 -71.02 289.96 C-71.02 291.13 -71.02 292.3 -71.02 293.51 C-71.02 295.45 -71.02 295.45 -71.02 297.42 C-71.02 298.78 -71.02 300.15 -71.02 301.51 C-71.03 305.19 -71.02 308.88 -71.01 312.57 C-71.01 314.86 -71.01 317.15 -71.01 319.44 C-70.99 350.11 -70.54 380.76 -69.89 411.43 C-71.21 412.09 -72.53 412.75 -73.89 413.43 C-74.22 413.1 -74.55 412.77 -74.89 412.43 C-74.89 410.51 -74.88 408.59 -74.85 406.68 C-74.88 404.51 -75.12 402.5 -75.45 400.36 C-75.89 396.43 -75.89 396.43 -75.41 393.25 C-74.81 388.9 -74.8 384.74 -74.86 380.36 C-74.88 379.03 -74.88 379.03 -74.89 377.67 C-74.92 375.73 -74.94 373.79 -74.97 371.85 C-75.01 368.71 -75.04 365.57 -75.08 362.42 C-75.13 357.87 -75.18 353.32 -75.24 348.78 C-75.39 336.58 -75.51 324.38 -75.63 312.18 C-75.65 310.31 -75.65 310.31 -75.67 308.41 C-75.92 282.93 -75.93 257.46 -75.89 231.99 C-75.82 197.15 -76.04 162.33 -76.53 127.5 C-76.57 125.05 -76.6 122.61 -76.63 120.16 C-76.66 118.6 -76.68 117.04 -76.7 115.48 C-76.89 102.13 -76.95 88.78 -76.89 75.43 C-77.79 75.59 -78.69 75.75 -79.62 75.92 C-83.74 76.56 -87.72 76.61 -91.89 76.61 C-92.67 76.63 -93.45 76.64 -94.25 76.65 C-98.88 76.66 -102.52 76.14 -106.89 74.43 C-107.71 74.26 -108.54 74.1 -109.39 73.93 C-114.19 72.97 -119.19 71.7 -122.89 68.43 C-123.8 64.79 -123.89 61.16 -123.89 57.43 C-138.58 68.62 -151.14 80.41 -160.29 96.66 C-167.8 109.68 -179.16 121.03 -189.89 131.43 C-191.14 132.7 -191.14 132.7 -192.41 134 C-194.55 136.1 -196.68 137.94 -199.07 139.74 C-199.75 140.25 -200.42 140.76 -201.12 141.29 C-202.89 142.43 -202.89 142.43 -204.89 142.43 C-204.89 143.09 -204.89 143.75 -204.89 144.43 C-207.15 146.05 -207.15 146.05 -210.14 147.86 C-214.23 150.36 -214.23 150.36 -218.12 153.15 C-219.89 154.43 -219.89 154.43 -221.89 154.43 C-222.13 155.52 -222.38 156.61 -222.64 157.74 C-223.91 161.49 -224.44 162.65 -227.89 164.43 C-228.88 164.43 -229.87 164.43 -230.89 164.43 C-231.13 164.97 -231.37 165.52 -231.61 166.08 C-233.2 169 -235.15 171.37 -237.26 173.93 C-238.03 174.86 -238.8 175.8 -239.6 176.77 C-241.61 179.1 -243.68 181.28 -245.89 183.43 C-246.69 184.25 -247.49 185.08 -248.32 185.93 C-250.89 188.43 -250.89 188.43 -253.51 190.43 C-256.02 192.54 -257.25 194.62 -258.89 197.43 C-259.55 197.43 -260.21 197.43 -260.89 197.43 C-261.27 198.24 -261.27 198.24 -261.67 199.07 C-263.11 201.86 -264.72 204.51 -266.39 207.18 C-266.99 208.16 -267.6 209.15 -268.23 210.16 C-268.78 210.91 -269.32 211.66 -269.89 212.43 C-270.55 212.43 -271.21 212.43 -271.89 212.43 C-272.28 213.53 -272.28 213.53 -272.68 214.65 C-273.9 217.45 -275.26 219.41 -277.14 221.8 C-291.37 241.07 -303.71 263.28 -312.89 285.43 C-314.4 288.71 -315.94 291.97 -317.48 295.24 C-318.82 298.28 -319.88 301.27 -320.89 304.43 C-321.35 305.82 -321.82 307.21 -322.29 308.6 C-327.58 322.24 -327.58 322.24 -329.89 336.43 C-330.55 336.43 -331.21 336.43 -331.89 336.43 C-331.99 337.58 -332.09 338.74 -332.2 339.93 C-334.05 356.49 -338.34 372.41 -343.82 388.11 C-344.26 389.38 -344.69 390.65 -345.13 391.91 C-347.22 397.96 -349.39 403.89 -352.13 409.67 C-353.02 411.57 -353.02 411.57 -353.45 414.36 C-353.89 416.43 -353.89 416.43 -356.89 418.43 C-359.85 418.07 -360.73 417.58 -362.89 415.43 C-369.24 413.98 -377.77 413.22 -384.05 415.06 C-384.66 415.18 -385.26 415.3 -385.89 415.43 C-386.55 414.77 -387.21 414.11 -387.89 413.43 C-387.59 408.56 -385.21 403.66 -382.89 399.43 C-382.23 399.1 -381.57 398.77 -380.89 398.43 C-380.51 396.77 -380.18 395.1 -379.89 393.43 C-379.24 391.4 -378.56 389.39 -377.85 387.39 C-377.46 386.25 -377.06 385.11 -376.65 383.94 C-376.23 382.76 -375.81 381.58 -375.39 380.36 C-374.56 378.02 -373.74 375.67 -372.92 373.33 C-372.37 371.77 -372.37 371.77 -371.81 370.19 C-371.06 367.94 -370.42 365.73 -369.89 363.43 C-369.55 362.09 -369.55 362.09 -369.2 360.73 C-368.02 356.06 -366.86 351.39 -365.89 346.68 C-365.27 343.83 -364.48 341.24 -363.39 338.55 C-361.78 334.5 -361.07 330.44 -360.35 326.16 C-359.32 320.09 -358 314.44 -355.73 308.7 C-354.7 305.92 -353.86 303.09 -353.01 300.24 C-349.83 289.79 -346.12 279.05 -340.89 269.43 C-340.23 269.1 -339.57 268.77 -338.89 268.43 C-338.55 266.76 -338.22 265.09 -337.89 263.43 C-336.92 261.13 -335.89 258.86 -334.82 256.61 C-334.28 255.45 -333.73 254.29 -333.16 253.09 C-332.53 251.77 -332.53 251.77 -331.89 250.43 C-331.23 250.43 -330.57 250.43 -329.89 250.43 C-329.55 249.25 -329.55 249.25 -329.2 248.05 C-327.48 243.3 -325.21 238.91 -322.89 234.43 C-322.23 234.43 -321.57 234.43 -320.89 234.43 C-320.62 233.72 -320.35 233.01 -320.08 232.28 C-318.84 229.31 -317.39 226.56 -315.82 223.74 C-313.8 220.11 -313.8 220.11 -311.89 216.43 C-311.23 216.43 -310.57 216.43 -309.89 216.43 C-309.68 215.77 -309.47 215.11 -309.26 214.43 C-307.67 210.96 -305.59 208.27 -303.23 205.29 C-301.7 203.36 -301.7 203.36 -300.89 200.43 C-300.23 200.43 -299.57 200.43 -298.89 200.43 C-298.64 199.88 -298.39 199.33 -298.13 198.77 C-296.64 195.96 -294.84 193.53 -292.95 190.99 C-290.91 188.25 -288.98 185.59 -287.26 182.64 C-285.89 180.43 -285.89 180.43 -283.89 179.43 C-283.56 178.44 -283.23 177.45 -282.89 176.43 C-281.71 175.29 -280.53 174.16 -279.35 173.02 C-276.32 169.72 -274.11 165.79 -271.76 161.99 C-271.24 161.16 -270.71 160.32 -270.17 159.46 C-267.51 155.21 -265.03 150.97 -262.89 146.43 C-262.23 146.43 -261.57 146.43 -260.89 146.43 C-260.89 145.11 -260.89 143.79 -260.89 142.43 C-260.23 142.43 -259.57 142.43 -258.89 142.43 C-258.62 141.5 -258.35 140.57 -258.07 139.61 C-256.96 136.62 -256.41 135.27 -253.89 133.43 C-253.26 133.35 -252.64 133.28 -252 133.2 C-248.76 132.01 -248.05 129.79 -246.45 126.8 C-244.45 123.18 -242.48 119.69 -240.01 116.36 C-237.77 113.57 -237.77 113.57 -236.89 110.43 C-236.23 110.1 -235.57 109.77 -234.89 109.43 C-234.56 108.44 -234.23 107.45 -233.89 106.43 C-232.26 104.72 -230.58 103.06 -228.89 101.43 C-227.08 99.5 -225.29 97.56 -223.51 95.61 C-223.03 95.09 -222.55 94.57 -222.06 94.03 C-219.34 91.06 -216.69 88.05 -214.07 84.99 C-211.26 81.73 -208.22 79.13 -204.89 76.43 C-204.56 75.77 -204.23 75.11 -203.89 74.43 C-203.23 74.43 -202.57 74.43 -201.89 74.43 C-201.89 73.77 -201.89 73.11 -201.89 72.43 C-199.9 71.07 -197.9 69.74 -195.89 68.43 C-195.14 67.68 -194.4 66.94 -193.64 66.18 C-193.06 65.6 -192.48 65.02 -191.89 64.43 C-191.23 64.43 -190.57 64.43 -189.89 64.43 C-189.89 63.77 -189.89 63.11 -189.89 62.43 C-188.08 60.9 -188.08 60.9 -185.45 59.05 C-184.46 58.35 -183.47 57.65 -182.46 56.93 C-181.9 56.54 -181.34 56.15 -180.76 55.75 C-178.64 54.26 -176.54 52.74 -174.44 51.23 C-172.9 50.13 -171.36 49.03 -169.82 47.93 C-168.7 47.12 -168.7 47.12 -167.55 46.29 C-166.85 45.79 -166.14 45.29 -165.41 44.77 C-164.47 44.09 -164.47 44.09 -163.5 43.4 C-161.89 42.43 -161.89 42.43 -159.89 42.43 C-159.89 41.77 -159.89 41.11 -159.89 40.43 C-158.9 40.43 -157.91 40.43 -156.89 40.43 C-156.89 39.77 -156.89 39.11 -156.89 38.43 C-155.99 37.95 -155.99 37.95 -155.08 37.47 C-148.4 33.88 -141.89 30.08 -135.39 26.18 C-131.92 24.12 -128.46 22.17 -124.79 20.47 C-124.15 20.18 -123.51 19.88 -122.85 19.57 C-121.13 18.79 -119.39 18.04 -117.64 17.29 C-113.92 14.78 -113.31 12.62 -111.89 8.43 C-111.23 8.43 -110.57 8.43 -109.89 8.43 C-109.82 7.87 -109.76 7.31 -109.7 6.74 C-106.77 -1.59 -94.22 -8.68 -86.64 -12.39 C-58.31 -24.23 -22.92 -21.93 0 0 Z " fill="#070708" transform="translate(416.885986328125,70.57373046875)"/>
<path d="M0 0 C3 1 3 1 4.69 3.31 C7.65 6.76 10.88 8.21 15 10 C13.65 12.87 12.12 15.32 10.2 17.84 C9.64 18.58 9.08 19.33 8.51 20.09 C7.61 21.28 7.61 21.28 6.69 22.5 C-26.54 67.13 -49.85 116.03 -61.72 170.31 C-64.5 182.86 -67.82 195.1 -72 207.25 C-72.4 208.43 -72.81 209.61 -73.22 210.82 C-76.03 218.79 -79.33 226.39 -83 234 C-83.75 234.02 -84.5 234.04 -85.27 234.06 C-86.13 234.08 -86.99 234.1 -87.88 234.12 C-93.45 234.27 -98.59 233.19 -104 232 C-103.54 230.98 -103.08 229.95 -102.6 228.9 C-91.6 203.94 -83.34 177.36 -77.44 150.75 C-65.03 94.89 -35.63 44.31 0 0 Z " fill="#E4E4E4" transform="translate(139,251)"/>
<path d="M0 0 C0.29 0.79 0.58 1.57 0.88 2.38 C1.29 3.43 1.7 4.48 2.12 5.56 C2.72 7.11 2.72 7.11 3.32 8.69 C5.35 12.7 7.96 15.73 11 19 C10.07 19.89 9.14 20.79 8.18 21.71 C1.33 28.38 -4.93 34.84 -10 43 C-25.71 68.01 -45.46 88.6 -70.21 104.82 C-70.83 105.23 -71.45 105.64 -72.09 106.06 C-76.97 108.46 -82.32 107.41 -87.31 105.81 C-90.96 104.24 -93.12 102.6 -95 99 C-95.9 84.23 -77.33 66.01 -68.19 55.56 C-56.91 43.24 -45.27 31.2 -31.77 21.31 C-29.83 19.88 -27.92 18.42 -26 16.95 C-3.77 0 -3.77 0 0 0 Z " fill="#6B6B69" transform="translate(266,114)"/>
<path d="M0 0 C1.78 1.6 3.39 3.22 5 5 C3.47 6.53 1.92 6.3 -0.21 6.51 C-22.3 8.85 -43.47 14.54 -64 23 C-64.8 23.33 -65.59 23.65 -66.41 23.99 C-79.15 29.31 -91.08 35.76 -102.94 42.81 C-104.92 43.96 -106.94 45 -109 46 C-108.19 28.69 -102.6 12.23 -89.73 0.22 C-82.05 -6.02 -73.46 -10.19 -64 -13 C-63.26 -13.23 -62.52 -13.45 -61.76 -13.68 C-40.51 -19.01 -16.93 -13.59 0 0 Z " fill="#E5E5E5" transform="translate(409,72)"/>
<path d="M0 0 C0.84 0.02 1.68 0.04 2.54 0.05 C3.45 0.09 3.45 0.09 4.38 0.12 C1.1 13.22 -11.36 22.75 -22.25 29.6 C-41.69 41.18 -64.22 47.34 -86.81 47.31 C-88.04 47.31 -88.04 47.31 -89.29 47.31 C-107.65 47.13 -107.65 47.13 -114.62 43.12 C-110.87 38.67 -105.98 36.29 -100.94 33.56 C-99.97 33.04 -99.01 32.52 -98.01 31.98 C-70.33 17.26 -32.08 -0.92 0 0 Z " fill="#E2E2E2" transform="translate(418.625,93.875)"/>
<path d="M0 0 C1.8 3.19 2.53 6.1 3.15 9.71 C3.45 11.41 3.45 11.41 3.75 13.14 C3.96 14.35 4.16 15.56 4.38 16.81 C4.59 18.07 4.81 19.32 5.04 20.62 C6.05 26.44 7.04 32.26 8.04 38.09 C8.36 39.95 8.68 41.82 9 43.69 C9.16 44.61 9.32 45.52 9.48 46.47 C10.91 54.69 12.54 62.87 14.21 71.04 C15.73 78.57 17.13 86.1 18.42 93.67 C18.91 96.46 19.44 99.23 20 102 C20.46 104.56 20.92 107.12 21.38 109.69 C21.51 110.43 21.64 111.18 21.77 111.94 C22.57 116.49 23.34 121.05 24.08 125.61 C25.79 136.13 27.86 146.56 30 157 C30.86 161.22 31.63 165.45 32.38 169.69 C32.51 170.44 32.64 171.19 32.78 171.97 C33.42 175.64 34.06 179.31 34.65 182.99 C36.52 194.5 38.65 205.95 40.84 217.39 C42.23 224.66 43.5 231.93 44.57 239.25 C45.08 242.49 45.76 245.66 46.5 248.85 C47.43 252.88 48.21 256.94 49 261 C49.25 262.26 49.5 263.51 49.76 264.8 C51.11 271.68 52.32 278.46 52.69 285.47 C53.01 288.08 53.7 290.45 54.45 292.96 C55.57 297.12 56.17 301.38 56.88 305.62 C58.22 313.54 59.61 321.43 61.12 329.31 C61.28 330.14 61.44 330.97 61.6 331.82 C62.24 335.12 62.88 338.41 63.56 341.7 C63.74 342.58 63.92 343.47 64.11 344.38 C64.28 345.18 64.44 345.98 64.62 346.8 C65.1 349.56 65.15 352.21 65 355 C63.68 355 62.36 355 61 355 C60.95 354.36 60.9 353.72 60.85 353.07 C60.78 352.24 60.7 351.41 60.62 350.56 C60.56 349.74 60.49 348.92 60.41 348.07 C60.28 347.38 60.14 346.7 60 346 C59.34 345.67 58.68 345.34 58 345 C57.73 342.98 57.73 342.98 57.62 340.19 C57.07 331.71 55.2 323.54 53.46 315.24 C52.56 310.84 51.78 306.42 51 302 C50.65 300.04 50.29 298.08 49.94 296.12 C49.78 295.26 49.63 294.4 49.46 293.51 C49 291 48.5 288.5 48 286 C47.47 283.33 46.95 280.67 46.44 278 C46.3 277.3 46.16 276.6 46.02 275.88 C45.31 272.19 44.95 268.75 45 265 C44.67 264.67 44.34 264.34 44 264 C43.65 261.82 43.34 259.63 43.06 257.44 C42.29 251.67 42.29 251.67 41 246 C39.69 241.27 39.18 236.42 38.56 231.56 C38.07 228.42 37.36 225.42 36.56 222.34 C35.35 217.26 34.53 212.09 33.62 206.94 C33.41 205.7 33.19 204.46 32.96 203.19 C31.95 197.44 30.94 191.69 29.96 185.93 C28.08 174.9 26.02 163.92 23.79 152.96 C22.27 145.43 20.87 137.9 19.58 130.33 C19.09 127.54 18.56 124.77 18 122 C17.54 119.44 17.08 116.88 16.62 114.31 C16.49 113.57 16.36 112.82 16.23 112.06 C15.43 107.51 14.66 102.95 13.92 98.39 C12.45 89.32 10.71 80.33 8.87 71.33 C8.17 67.9 7.56 64.46 7 61 C6.55 58.58 6.09 56.17 5.62 53.75 C4.38 47.19 3.27 40.62 2.2 34.02 C1.08 27.19 -0.29 20.41 -1.73 13.64 C-3.48 5.24 -3.48 5.24 -3 2 C-2.01 1.34 -1.02 0.68 0 0 Z " fill="#7DA1B7" transform="translate(393,130)"/>
<path d="M0 0 C1.39 5.45 2.24 10.37 2 16 C2.66 16.33 3.32 16.66 4 17 C4 21.29 4 25.58 4 30 C4.66 30.33 5.32 30.66 6 31 C5.97 32.03 5.97 32.03 5.93 33.09 C5.91 34.03 5.89 34.97 5.88 35.94 C5.84 37.31 5.84 37.31 5.8 38.71 C5.96 41.38 6.3 43.52 6.92 46.08 C8.05 51.03 8.78 55.98 9.44 61.01 C9.56 61.94 9.69 62.87 9.82 63.83 C10.22 66.78 10.61 69.74 11 72.69 C11.39 75.61 11.79 78.54 12.18 81.47 C12.43 83.36 12.69 85.25 12.94 87.15 C14.31 97.34 15.68 107.51 17.56 117.63 C18.77 124.17 19.3 130.67 19.72 137.3 C19.71 139.92 19.71 139.92 21 141 C21.33 144.62 21.51 148.24 21.72 151.88 C21.65 154.86 21.65 154.86 23 156 C23.42 158.58 23.79 161.14 24.12 163.73 C24.23 164.52 24.33 165.31 24.44 166.13 C24.78 168.67 25.11 171.21 25.44 173.75 C25.87 177.06 26.31 180.36 26.75 183.67 C26.85 184.48 26.96 185.29 27.07 186.12 C27.95 192.76 28.94 199.38 30 206 C30.21 207.32 30.21 207.32 30.42 208.67 C30.92 211.87 31.43 215.07 31.94 218.27 C32.07 219.04 32.19 219.82 32.32 220.62 C32.42 221.29 32.53 221.97 32.64 222.67 C33.46 227.98 34.18 233.31 34.91 238.63 C35.08 239.91 35.26 241.18 35.43 242.5 C35.53 243.17 35.62 243.84 35.71 244.54 C36 246.67 36.29 248.8 36.58 250.94 C37.41 257 38.23 263.07 39.06 269.13 C39.57 272.85 40.07 276.58 40.58 280.3 C40.77 281.7 40.96 283.11 41.15 284.51 C43.57 302.62 43.57 302.62 46.56 320.63 C47.77 327.17 48.3 333.67 48.72 340.3 C48.71 342.92 48.71 342.92 50 344 C50.04 346 50.04 348 50 350 C48.68 350 47.36 350 46 350 C44.73 344.89 43.87 340.3 44 335 C43.67 334.67 43.34 334.34 43 334 C42.72 332.47 42.49 330.92 42.28 329.38 C42.15 328.44 42.03 327.51 41.89 326.54 C41.7 325.07 41.7 325.07 41.5 323.56 C41.24 321.63 40.98 319.69 40.72 317.75 C40.6 316.89 40.49 316.03 40.37 315.14 C40.1 312.96 40.1 312.96 39 311 C38.83 308.98 38.7 306.96 38.59 304.93 C38.05 296.56 36.81 288.35 35.5 280.06 C35.27 278.6 35.04 277.13 34.82 275.66 C34.4 272.97 33.98 270.29 33.56 267.6 C32.65 261.71 31.83 255.8 31.02 249.9 C30.82 248.5 30.63 247.11 30.44 245.72 C30.34 244.99 30.24 244.26 30.13 243.51 C29.48 238.75 28.82 234 28.16 229.25 C27.59 225.1 27.02 220.96 26.44 216.81 C23.47 195.08 23.47 195.08 20.24 173.39 C20.13 172.65 20.01 171.91 19.89 171.15 C19.44 168.32 18.91 165.72 18 163 C18 161.68 18 160.36 18 159 C17.9 157.1 17.77 155.21 17.62 153.31 C17.56 152.34 17.49 151.37 17.41 150.36 C17.1 147.8 16.67 145.49 16.08 142.99 C14.86 137.61 14.11 132.2 13.38 126.74 C13.23 125.67 13.09 124.6 12.94 123.5 C12.48 120.11 12.02 116.71 11.56 113.31 C11.26 111.08 10.96 108.85 10.65 106.62 C9.62 99.02 8.59 91.41 7.57 83.81 C7.16 80.79 6.76 77.77 6.35 74.76 C6.23 73.86 6.11 72.97 5.98 72.05 C5.16 66 4.15 60 3 54 C2.04 48.25 1.65 42.51 1.28 36.7 C1.29 34.08 1.29 34.08 0 33 C-0.37 30.9 -0.68 28.78 -0.97 26.66 C-1.15 25.37 -1.33 24.08 -1.51 22.75 C-1.6 22.07 -1.69 21.4 -1.78 20.7 C-2.06 18.64 -2.34 16.58 -2.63 14.52 C-4 4.42 -4 4.42 -4 1 C-2 0 -2 0 0 0 Z " fill="#7EA2B9" transform="translate(387,134)"/>
<path d="M0 0 C0.91 6.25 1.71 12.51 2.5 18.77 C2.81 21.88 2.81 21.88 4 24 C4.19 26.04 4.32 28.08 4.44 30.12 C4.96 38.15 5.95 46.09 7 54.06 C8.15 62.8 9.21 71.5 9.75 80.3 C10.07 83.75 10.86 86.73 12 90 C11.67 90.33 11.34 90.66 11 91 C11.08 92.47 11.23 93.94 11.42 95.4 C11.54 96.33 11.66 97.27 11.78 98.23 C11.91 99.24 12.04 100.26 12.18 101.31 C12.31 102.35 12.44 103.38 12.58 104.45 C12.86 106.65 13.15 108.85 13.43 111.05 C13.87 114.42 14.3 117.79 14.73 121.17 C15 123.3 15.28 125.43 15.55 127.56 C15.68 128.57 15.81 129.59 15.95 130.63 C16.07 131.57 16.19 132.51 16.32 133.47 C16.48 134.72 16.48 134.72 16.65 135.98 C16.91 138.06 16.91 138.06 18 140 C17.76 140.91 17.76 140.91 17.51 141.84 C16.9 144.43 17.24 146.03 17.81 148.62 C18.78 153.43 19.41 158.22 19.92 163.09 C20.64 169.82 21.41 176.55 22.22 183.28 C22.32 184.15 22.43 185.02 22.54 185.92 C22.96 189.48 23.39 193.05 23.82 196.61 C24.93 205.83 26.02 215.05 26.96 224.29 C28.24 236.74 29.88 249.14 31.47 261.56 C34.16 282.52 34.16 282.52 34.82 292.48 C35.06 295.79 35.47 299.03 35.94 302.31 C36.5 306.35 37.05 310.39 37.54 314.44 C37.63 315.17 37.71 315.9 37.8 316.65 C37.97 318.07 38.14 319.48 38.3 320.9 C38.72 324.57 38.72 324.57 40 328 C40.07 331.09 40 334.16 39.94 337.25 C39.8 339.96 39.8 339.96 41 342 C41.04 344 41.04 346 41 348 C39.68 347.67 38.36 347.34 37 347 C35.5 342.49 34.93 338.99 35.05 334.19 C34.99 331.76 34.6 329.57 34.12 327.19 C33.19 322.41 32.6 317.65 32.12 312.81 C31.08 302.25 29.74 291.73 28.41 281.21 C27.65 275.2 26.89 269.19 26.24 263.17 C25.74 258.61 25.21 254.06 24.69 249.5 C24.56 248.4 24.44 247.3 24.31 246.17 C23.54 239.5 22.74 232.83 21.91 226.17 C21.82 225.43 21.73 224.69 21.64 223.92 C21.19 220.26 20.73 216.6 20.27 212.94 C20.1 211.59 19.94 210.24 19.77 208.89 C19.62 207.71 19.47 206.52 19.32 205.3 C19 202 19 202 19.01 199.01 C19 195.59 18.53 192.38 18 189 C17.7 186.61 17.4 184.21 17.1 181.82 C16.33 175.58 15.53 169.35 14.71 163.12 C14.38 160.56 14.05 158.01 13.71 155.46 C13.49 153.72 13.26 151.98 13.03 150.24 C12.69 147.68 12.36 145.12 12.02 142.55 C11.92 141.78 11.82 141.01 11.71 140.22 C11.18 136.1 11 132.15 11 128 C10.7 125.66 10.37 123.33 10 121 C8.36 109.04 6.85 97.06 5.34 85.07 C5.07 82.94 4.8 80.8 4.53 78.66 C1.85 57.62 1.85 57.62 1.17 47.48 C0.95 44.34 0.57 41.24 0.12 38.12 C-0.05 36.89 -0.22 35.66 -0.39 34.39 C-0.49 33.71 -0.58 33.03 -0.68 32.33 C-1.47 26.54 -2.2 20.74 -2.95 14.94 C-3.55 10.28 -4.18 5.63 -5 1 C-3 0 -3 0 0 0 Z " fill="#7DA1B8" transform="translate(375,139)"/>
<path d="M0 0 C1.7 10.88 2.43 21.65 2.9 32.65 C3.28 41.37 3.97 50.02 5 58.69 C5.72 64.81 6.19 70.9 6.44 77.06 C6.81 86.24 7.63 95.36 8.5 104.5 C9.44 114.39 10.25 124.26 10.66 134.19 C10.91 140.03 11.4 145.82 12 151.62 C12.12 152.84 12.12 152.84 12.25 154.09 C12.64 158.17 12.64 158.17 14 162 C13.34 162 12.68 162 12 162 C12.5 162.99 12.5 162.99 13 164 C13.21 165.56 13.37 167.13 13.5 168.7 C13.58 169.65 13.66 170.61 13.75 171.59 C13.83 172.61 13.91 173.64 14 174.69 C14.09 175.73 14.18 176.77 14.27 177.84 C14.84 184.81 15.34 191.77 15.79 198.75 C16.16 207.51 16.16 207.51 18 216 C17.67 216.33 17.34 216.66 17 217 C17.04 218.54 17.16 220.07 17.3 221.6 C17.39 222.56 17.48 223.51 17.57 224.5 C17.67 225.53 17.77 226.56 17.88 227.62 C18.07 229.76 18.27 231.9 18.46 234.03 C18.56 235.07 18.65 236.11 18.75 237.18 C19.21 242.34 19.53 247.5 19.85 252.67 C20.89 268.99 22.08 285.28 23.56 301.56 C24.88 316.02 26.1 330.47 26 345 C24.68 345 23.36 345 22 345 C21.31 340.17 20.87 335.37 20.56 330.5 C20.11 323.43 19.57 316.37 19 309.31 C18.92 308.26 18.83 307.21 18.75 306.12 C18.67 305.13 18.58 304.14 18.5 303.11 C18.43 302.22 18.36 301.34 18.28 300.42 C18.06 298.02 18.06 298.02 17.41 295.81 C17 294 17 294 18 292 C17.88 289.47 17.69 286.99 17.44 284.47 C17.37 283.73 17.31 282.98 17.24 282.22 C17.02 279.83 16.79 277.45 16.56 275.06 C16.34 272.68 16.12 270.3 15.9 267.92 C15.76 266.44 15.62 264.95 15.48 263.47 C15.22 260.63 15 257.85 15 255 C14.87 253.23 14.72 251.47 14.56 249.7 C14.47 248.66 14.38 247.62 14.29 246.55 C14.1 244.36 13.91 242.18 13.71 240 C13.25 234.64 12.99 229.38 13 224 C12.74 221.43 12.45 218.88 12.12 216.31 C10.62 203.58 9.85 190.79 9 178 C8.87 176.02 8.73 174.04 8.6 172.06 C8.14 165.23 7.69 158.41 7.24 151.58 C7.07 149.04 6.9 146.5 6.72 143.95 C6.68 143.28 6.63 142.61 6.58 141.91 C6.45 140.03 6.32 138.15 6.19 136.26 C5.97 132.5 5.92 128.77 6 125 C5.34 124.67 4.68 124.34 4 124 C4.02 123.26 4.05 122.51 4.07 121.75 C4.25 110.95 3.23 100.35 2.23 89.61 C1.78 84.54 1.47 79.46 1.15 74.37 C0.14 58.62 -0.96 42.88 -2.32 27.16 C-2.9 20.36 -3.38 13.55 -3.75 6.73 C-3.9 3.91 -3.9 3.91 -5 1 C-3 0 -3 0 0 0 Z " fill="#7FA4BB" transform="translate(367,141)"/>
<path d="M0 0 C1.32 0 2.64 0 4 0 C4.06 0.89 4.12 1.78 4.18 2.7 C4.27 3.87 4.35 5.04 4.44 6.25 C4.52 7.41 4.6 8.57 4.68 9.77 C4.91 12.88 4.91 12.88 5.6 15.36 C5.73 15.9 5.86 16.44 6 17 C5.67 17.33 5.34 17.66 5 18 C4.98 19.53 5.04 21.07 5.12 22.6 C5.17 23.56 5.22 24.52 5.27 25.51 C5.32 26.54 5.38 27.56 5.44 28.62 C5.84 36.68 6.09 44.68 5.94 52.75 C6 55.78 6.35 58.67 6.75 61.67 C7.29 66.68 7.3 71.72 7.44 76.75 C7.89 92.2 8.6 107.64 9.34 123.08 C9.38 124 9.43 124.92 9.47 125.87 C9.55 127.6 9.64 129.32 9.72 131.04 C9.94 135.71 10.03 140.36 10 145.04 C10 147.91 10.22 150.76 10.44 153.62 C10.99 161.37 11.32 169.12 11.61 176.88 C11.77 180.89 11.97 184.8 12.53 188.78 C13.56 196.24 13.04 203.9 12.96 211.41 C12.92 218.93 13.16 226.34 13.71 233.84 C14.34 242.52 14.62 251.24 15 259.94 C15.09 261.96 15.18 263.98 15.27 266 C15.75 277.06 16.23 288.12 16.67 299.18 C16.86 303.74 17.06 308.3 17.28 312.86 C17.75 322.58 18.17 332.26 18 342 C16.68 342 15.36 342 14 342 C12.5 323.63 11.99 305.19 11.38 286.77 C11.02 276.41 10.59 266.04 10.12 255.68 C9.97 252.29 9.82 248.9 9.68 245.51 C9.3 236.8 8.92 228.09 8.53 219.39 C8.48 218.43 8.44 217.48 8.4 216.49 C8.36 215.52 8.31 214.55 8.27 213.55 C6.88 182.41 6.88 182.41 6.32 168.85 C6.14 164.39 5.95 159.94 5.75 155.48 C5.21 143.42 4.77 131.36 4.38 119.3 C4.16 112.9 3.89 106.51 3.44 100.12 C3.01 93.96 2.98 87.86 3.03 81.68 C2.99 76.85 2.64 72.07 2.29 67.25 C1.71 59.19 1.46 51.1 1.13 43.03 C1 40.02 0.86 37.02 0.71 34.01 C0.17 22.66 -0.14 11.36 0 0 Z " fill="#80A5BC" transform="translate(349,144)"/>
<path d="M0 0 C0.66 0 1.32 0 2 0 C4.74 9.85 7.15 19.59 8.5 29.75 C9.04 33.29 10.02 36.56 11 40 C12.06 44.5 13.05 49.02 14.03 53.54 C14.5 55.67 14.96 57.79 15.43 59.91 C17 67.05 18.41 74.19 19.56 81.41 C20.16 84.95 21.02 88.35 21.94 91.81 C23.92 99.49 25.5 107.21 27 115 C27.27 116.34 27.54 117.69 27.82 119.03 C27.95 119.69 28.09 120.36 28.23 121.04 C28.6 122.88 28.98 124.72 29.35 126.56 C29.79 128.86 30.16 131.18 30.46 133.5 C31.02 137.13 31.97 140.48 33 144 C33.5 146.39 33.98 148.79 34.44 151.19 C35.35 155.91 36.36 160.59 37.56 165.25 C39.3 172.02 40.58 178.82 41.5 185.75 C41.93 189.03 41.93 189.03 42.94 192.25 C43.97 195.89 44.73 199.48 45.44 203.19 C46.35 207.91 47.36 212.59 48.56 217.25 C50.3 224.02 51.58 230.82 52.5 237.75 C52.93 240.55 53.59 243.11 54.4 245.82 C56.54 253.63 57.94 261.68 59.5 269.62 C60.62 275.27 61.9 280.85 63.35 286.41 C63.98 288.94 64.51 291.45 65 294 C67.87 308.93 67.87 308.93 71.48 323.69 C72 326 72 326 72 330 C70.35 329.67 68.7 329.34 67 329 C66.58 326.88 66.15 324.77 65.73 322.65 C65.37 320.83 65 319 64.64 317.18 C63.81 313.04 62.98 308.9 62.17 304.75 C61.93 303.52 61.69 302.28 61.44 301 C61.23 299.93 61.02 298.86 60.81 297.75 C60.13 294.58 59.36 291.46 58.56 288.32 C57.01 282.19 55.76 276.02 54.56 269.81 C53.15 262.59 51.68 255.4 49.94 248.25 C48.19 241.07 46.79 233.85 45.43 226.59 C43.3 215.21 40.79 203.94 38.06 192.69 C37 188.16 36.12 183.6 35.21 179.04 C34.28 174.33 33.28 169.64 32.25 164.96 C32.1 164.29 31.95 163.62 31.8 162.93 C31.19 160.2 30.59 157.48 29.98 154.75 C28.5 148.13 27.04 141.53 25.97 134.82 C25.15 129.64 24.03 124.57 22.82 119.46 C21.46 113.71 20.21 107.94 18.95 102.17 C18.5 100.13 18.05 98.1 17.61 96.06 C16.12 89.3 14.67 82.53 13.28 75.74 C13.03 74.54 12.79 73.34 12.53 72.1 C12 69 12 69 12 65 C11.34 64.67 10.68 64.34 10 64 C10 63.01 10 62.02 10 61 C9.74 59.4 9.44 57.81 9.12 56.22 C8.94 55.29 8.76 54.37 8.58 53.42 C8.39 52.46 8.2 51.49 8 50.5 C7.62 48.59 7.25 46.69 6.88 44.78 C6.71 43.94 6.54 43.09 6.37 42.22 C6 40 6 40 6 37 C5.34 36.67 4.68 36.34 4 36 C3.69 33.88 3.69 33.88 3.56 31.12 C3.2 25.93 2.13 21.28 0.62 16.31 C0 14 0 14 0 11 C-0.33 10.34 -0.66 9.68 -1 9 C-1.19 6.31 -1.09 3.7 -1 1 C-0.67 0.67 -0.34 0.34 0 0 Z " fill="#7CA0B7" transform="translate(398,127)"/>
<path d="M0 0 C1.21 0.03 1.21 0.03 2.44 0.06 C2.28 0.74 2.11 1.42 1.95 2.12 C1.36 5.51 1.31 8.71 1.31 12.15 C1.31 12.86 1.3 13.56 1.3 14.28 C1.3 16.61 1.3 18.95 1.3 21.28 C1.3 22.95 1.3 24.61 1.3 26.28 C1.3 30.77 1.3 35.26 1.31 39.76 C1.31 42.57 1.31 45.38 1.32 48.19 C1.33 75.91 1.57 103.62 2.05 131.33 C2.37 150.57 2.53 169.81 2.4 189.05 C2.4 189.9 2.39 190.76 2.39 191.63 C2.38 193.18 2.37 194.73 2.35 196.28 C2.33 199.42 2.48 202.34 3 205.44 C3.44 208.06 3.44 208.06 2.44 210.06 C2.34 211.9 2.31 213.75 2.31 215.6 C2.3 216.77 2.3 217.94 2.3 219.15 C2.3 220.44 2.3 221.73 2.3 223.06 C2.3 224.42 2.3 225.78 2.3 227.14 C2.3 230.83 2.3 234.52 2.31 238.2 C2.31 240.49 2.31 242.78 2.32 245.08 C2.33 275.74 2.78 306.4 3.44 337.06 C2.12 337.72 0.8 338.38 -0.56 339.06 C-0.89 338.73 -1.22 338.4 -1.56 338.06 C-1.56 336.15 -1.56 334.23 -1.53 332.31 C-1.56 330.15 -1.8 328.13 -2.12 326 C-2.56 322.06 -2.56 322.06 -2.09 318.88 C-1.49 314.53 -1.47 310.38 -1.54 306 C-1.55 305.11 -1.56 304.22 -1.57 303.31 C-1.59 301.37 -1.62 299.43 -1.64 297.49 C-1.68 294.35 -1.72 291.2 -1.76 288.06 C-1.81 283.51 -1.86 278.96 -1.91 274.41 C-2.06 262.21 -2.19 250.02 -2.31 237.82 C-2.32 236.57 -2.33 235.33 -2.35 234.04 C-2.6 208.57 -2.61 183.1 -2.56 157.62 C-2.5 121.96 -2.74 86.31 -3.24 50.65 C-3.61 24.37 -3.61 24.37 -3.66 11.29 C-3.66 10.24 -3.67 9.2 -3.68 8.13 C-3.68 7.2 -3.68 6.27 -3.68 5.31 C-3.68 4.51 -3.68 3.71 -3.68 2.88 C-3.49 -0.05 -2.94 0.07 0 0 Z " fill="#7CA1B7" transform="translate(343.5625,144.9375)"/>
<path d="M0 0 C2.77 0.43 2.77 0.43 5.14 3.43 C5.68 4.42 6.21 5.41 6.77 6.43 C5.6 6.66 5.6 6.66 4.42 6.9 C-36.49 15.16 -77.24 25.51 -112.3 49.25 C-114.23 50.43 -114.23 50.43 -116.23 50.43 C-116.75 47.27 -117.03 45.46 -116.23 42.43 C-113.54 39.62 -110.3 37.88 -106.92 35.99 C-105.98 35.44 -105.03 34.88 -104.06 34.31 C-95.79 29.54 -87.26 25.33 -78.54 21.46 C-76.9 20.73 -75.28 19.98 -73.66 19.22 C-67 16.1 -60.28 13.59 -53.3 11.3 C-51.81 10.8 -51.81 10.8 -50.28 10.29 C-37.44 6.05 -24.4 3.03 -10.98 1.3 C-10.31 1.22 -9.64 1.13 -8.94 1.04 C-5.96 0.67 -2.98 0.4 0 0 Z " fill="#686866" transform="translate(416.234375,81.5703125)"/>
<path d="M0 0 C0.93 0.89 1.86 1.77 2.81 2.69 C6.69 6.04 10.84 7.95 15.55 9.92 C18 11 18 11 21 13 C20.61 13.42 20.21 13.84 19.81 14.27 C18 16.2 16.19 18.13 14.38 20.06 C13.76 20.72 13.14 21.38 12.5 22.05 C8.97 25.83 5.58 29.65 2.4 33.73 C1 35 1 35 -2.5 35.19 C-7.39 33.53 -10.71 31.57 -14 27.56 C-15 25 -15 25 -14.24 22.63 C-13.04 20.08 -11.72 17.76 -10.21 15.39 C-9.68 14.55 -9.15 13.72 -8.61 12.86 C-8.06 12 -7.51 11.14 -6.94 10.25 C-6.38 9.37 -5.83 8.5 -5.26 7.6 C-1.16 1.16 -1.16 1.16 0 0 Z " fill="#E2E2E2" transform="translate(159,222)"/>
<path d="M0 0 C-2.92 23.39 -2.92 23.39 -7.83 28.7 C-14.94 34.14 -14.94 34.14 -19.74 33.82 C-23.93 32.3 -25.56 28.74 -27.75 25.06 C-29.19 21.55 -29.64 19.75 -29 16 C-26.85 13.86 -24.32 12.48 -21.69 11 C-20.96 10.57 -20.24 10.15 -19.49 9.71 C-17.34 8.45 -15.17 7.22 -13 6 C-11.86 5.35 -10.73 4.7 -9.56 4.02 C-2.4 0 -2.4 0 0 0 Z " fill="#E2E2E2" transform="translate(300,94)"/>
<path d="M0 0 C0.66 0 1.32 0 2 0 C2.73 5.27 3.14 10.37 3.21 15.7 C3.22 16.42 3.23 17.15 3.24 17.89 C3.27 20.25 3.29 22.61 3.32 24.97 C3.34 26.62 3.36 28.26 3.38 29.91 C3.43 34.23 3.48 38.54 3.53 42.85 C3.58 47.26 3.64 51.67 3.69 56.09 C3.8 64.72 3.9 73.36 4 82 C2.02 82.99 2.02 82.99 0 84 C-0.33 83.67 -0.66 83.34 -1 83 C-1 81.08 -1 79.17 -0.96 77.25 C-1 75.09 -1.23 73.07 -1.56 70.94 C-2 67 -2 67 -1.53 64.1 C-0.62 58.26 -0.9 52.34 -0.94 46.45 C-0.94 44.46 -0.95 42.48 -0.95 40.5 C-0.97 37.04 -0.98 33.58 -1 30.12 C-1.02 25.97 -1.04 21.82 -1.05 17.67 C-1.06 15.09 -1.07 12.51 -1.09 9.93 C-1.09 8.77 -1.09 7.61 -1.1 6.42 C-1.11 4.88 -1.11 4.88 -1.11 3.31 C-1 1 -1 1 0 0 Z " fill="#82A8C0" transform="translate(343,400)"/>
<path d="M0 0 C0.33 0 0.66 0 1 0 C1 2.31 1 4.62 1 7 C1.99 6.67 2.98 6.34 4 6 C4.83 11.75 5.14 17.29 5.1 23.09 C5.1 23.93 5.09 24.76 5.09 25.62 C5.09 28.24 5.08 30.87 5.06 33.5 C5.06 35.29 5.05 37.09 5.05 38.88 C5.04 43.26 5.02 47.63 5 52 C4.67 52 4.34 52 4 52 C4 50.35 4 48.7 4 47 C1.5 48 1.5 48 0 52 C0 34.84 0 17.68 0 0 Z " fill="#7FA3BB" transform="translate(341,286)"/>
<path d="M0 0 C0.99 0.33 1.98 0.66 3 1 C3.15 2.09 3.29 3.18 3.44 4.3 C3.99 8.36 4.53 12.42 5.08 16.48 C5.32 18.23 5.55 19.99 5.79 21.74 C6.13 24.27 6.47 26.79 6.81 29.32 C6.96 30.49 6.96 30.49 7.12 31.68 C7.68 35.8 8.29 39.9 9 44 C7.68 44 6.36 44 5 44 C2.97 35.57 1.5 27.14 0.31 18.56 C0.12 17.16 0.12 17.16 -0.09 15.73 C-0.75 10.78 -1.25 5.99 -1 1 C-0.67 0.67 -0.34 0.34 0 0 Z " fill="#82A7BE" transform="translate(393,191)"/>
<path d="M0 0 C1.32 0 2.64 0 4 0 C4.06 0.89 4.12 1.78 4.18 2.7 C4.27 3.87 4.35 5.04 4.44 6.25 C4.52 7.41 4.6 8.57 4.68 9.77 C4.91 12.88 4.91 12.88 5.6 15.36 C5.73 15.9 5.86 16.44 6 17 C5.67 17.33 5.34 17.66 5 18 C4.93 20.7 4.91 23.37 4.94 26.06 C4.94 26.82 4.95 27.58 4.95 28.36 C4.96 30.24 4.98 32.12 5 34 C4.01 33.67 3.02 33.34 2 33 C2 35.31 2 37.62 2 40 C1.67 40 1.34 40 1 40 C0.33 26.66 -0.16 13.36 0 0 Z " fill="#7496AB" transform="translate(349,144)"/>
<path d="M0 0 C0.99 0.33 1.98 0.66 3 1 C3.17 5 3.33 9 3.48 13.01 C3.54 14.36 3.59 15.72 3.65 17.08 C3.73 19.05 3.81 21.01 3.88 22.97 C3.93 24.15 3.97 25.33 4.02 26.54 C4 30.12 3.58 33.48 3 37 C2.01 37 1.02 37 0 37 C-1.19 29.52 -1.15 22.12 -1.12 14.56 C-1.13 13.27 -1.13 11.98 -1.14 10.65 C-1.14 9.43 -1.13 8.2 -1.13 6.94 C-1.13 5.82 -1.13 4.71 -1.13 3.56 C-1 1 -1 1 0 0 Z " fill="#86ADC4" transform="translate(354,230)"/>
<path d="M0 0 C0.66 0 1.32 0 2 0 C3.54 3.62 4.63 7.18 5.56 11 C5.94 12.52 5.94 12.52 6.32 14.06 C7.47 19.01 8.2 23.73 8.56 28.81 C8.65 29.97 8.73 31.14 8.82 32.33 C8.88 33.21 8.94 34.09 9 35 C7.68 34.67 6.36 34.34 5 34 C4.15 30.21 3.32 26.42 2.5 22.62 C2.14 21.03 2.14 21.03 1.78 19.41 C0.37 12.83 -0.34 6.72 0 0 Z " fill="#83AAC0" transform="translate(444,347)"/>
<path d="M0 0 C0.33 0 0.66 0 1 0 C1 1.98 1 3.96 1 6 C1.99 6 2.98 6 4 6 C4.33 15.9 4.66 25.8 5 36 C3.68 36.66 2.36 37.32 1 38 C0.67 37.67 0.34 37.34 0 37 C0 35.08 0 33.17 0.04 31.25 C0 29.09 -0.23 27.07 -0.56 24.94 C-1.01 20.94 -0.58 17.97 0 14 C0.09 9.33 0.06 4.67 0 0 Z " fill="#7799AF" transform="translate(342,446)"/>
<path d="M0 0 C1.21 0.03 1.21 0.03 2.44 0.06 C2.27 0.75 2.11 1.43 1.94 2.14 C1.37 5.44 1.33 8.54 1.34 11.89 C1.34 13.19 1.35 14.48 1.35 15.81 C1.36 17.17 1.37 18.52 1.38 19.88 C1.38 21.25 1.38 22.62 1.39 24 C1.4 27.35 1.42 30.71 1.44 34.06 C1.11 34.06 0.78 34.06 0.44 34.06 C0.11 32.08 -0.22 30.1 -0.56 28.06 C-1.22 28.06 -1.88 28.06 -2.56 28.06 C-3.89 25.41 -3.69 23.4 -3.7 20.43 C-3.7 19.32 -3.7 18.2 -3.7 17.05 C-3.7 15.88 -3.69 14.71 -3.69 13.5 C-3.69 12.33 -3.7 11.15 -3.7 9.94 C-3.7 8.82 -3.7 7.71 -3.7 6.56 C-3.69 5.53 -3.69 4.5 -3.69 3.44 C-3.51 0.12 -3.34 0.08 0 0 Z " fill="#7FA4BA" transform="translate(343.5625,144.9375)"/>
<path d="M0 0 C0.23 0.54 0.45 1.07 0.69 1.62 C3.77 7.2 6.99 10.77 13 13 C16.65 13.8 20.31 14.44 24 15 C23.67 15.99 23.34 16.98 23 18 C16.87 19.81 12.64 18.24 6.89 15.68 C2.63 13.2 -0.18 10 -3 6 C-1.12 1.12 -1.12 1.12 0 0 Z " fill="#CECECE" transform="translate(165,211)"/>
<path d="M0 0 C0.99 0 1.98 0 3 0 C7.59 19.97 7.59 19.97 7 29 C5.68 28.67 4.36 28.34 3 28 C1.15 18.62 -0.56 9.62 0 0 Z " fill="#7EA3BA" transform="translate(412,246)"/>
<path d="M0 0 C0.33 0 0.66 0 1 0 C1.07 1.14 1.07 1.14 1.15 2.31 C1.56 8.02 2.22 13.4 3.59 18.95 C4.2 22.02 4.13 24.89 4 28 C3.01 28 2.02 28 1 28 C0.67 29.32 0.34 30.64 0 32 C-0.51 28.65 -1.01 25.29 -1.5 21.94 C-1.64 20.99 -1.79 20.05 -1.93 19.08 C-2.68 13.99 -3.17 9.14 -3 4 C-2.01 4 -1.02 4 0 4 C0 2.68 0 1.36 0 0 Z " fill="#789AB0" transform="translate(418,352)"/>
<path d="M0 0 C1.32 0.33 2.64 0.66 4 1 C5.62 10.5 6.26 19.37 6 29 C5.01 29 4.02 29 3 29 C1.05 19.37 -0.09 9.84 0 0 Z " fill="#7A9DB3" transform="translate(399,374)"/>
<path d="M0 0 C0.33 0 0.66 0 1 0 C1.06 0.93 1.12 1.85 1.18 2.81 C1.27 4.01 1.35 5.2 1.44 6.44 C1.52 7.63 1.6 8.83 1.68 10.06 C1.68 12.89 1.68 12.89 3 14 C3.23 16.18 3.41 18.37 3.56 20.56 C3.65 21.76 3.73 22.96 3.82 24.19 C3.88 25.12 3.94 26.05 4 27 C3.01 27.33 2.02 27.66 1 28 C0.27 30.02 0.27 30.02 0 32 C-0.05 31.24 -0.1 30.48 -0.15 29.69 C-0.56 23.98 -1.22 18.6 -2.59 13.05 C-3.2 9.98 -3.13 7.11 -3 4 C-2.34 4 -1.68 4 -1 4 C-0.67 2.68 -0.34 1.36 0 0 Z " fill="#789BB1" transform="translate(405,261)"/>
<path d="M0 0 C0.33 0 0.66 0 1 0 C1.2 1.17 1.41 2.34 1.62 3.54 C1.89 5.09 2.17 6.64 2.44 8.19 C2.64 9.34 2.64 9.34 2.85 10.52 C3.39 13.63 3.94 16.72 4.59 19.81 C5.16 22.88 5.06 25.89 5 29 C4.01 29.33 3.02 29.66 2 30 C0.13 26.84 -0.1 24.64 0 21 C-0.33 20.67 -0.66 20.34 -1 20 C-1.4 17.82 -1.74 15.63 -2.06 13.44 C-2.33 11.64 -2.33 11.64 -2.6 9.81 C-2.73 8.88 -2.86 7.95 -3 7 C-2.01 6.67 -1.02 6.34 0 6 C0 4.02 0 2.04 0 0 Z " fill="#86ADC4" transform="translate(438,374)"/>
<path d="M0 0 C0.99 0 1.98 0 3 0 C4.27 5.11 5.13 9.7 5 15 C5.33 15.33 5.66 15.66 6 16 C6.04 18 6.04 20 6 22 C4.68 22 3.36 22 2 22 C-0.02 14.56 -0.21 7.68 0 0 Z " fill="#789BB0" transform="translate(431,462)"/>
<path d="M0 0 C0.33 0 0.66 0 1 0 C1.7 3.25 2.38 6.5 3.06 9.75 C3.26 10.67 3.46 11.59 3.67 12.54 C3.85 13.43 4.03 14.32 4.22 15.23 C4.4 16.05 4.57 16.87 4.75 17.71 C5.01 20.1 4.73 21.73 4 24 C4 23.01 4 22.02 4 21 C3.34 21 2.68 21 2 21 C2 22.65 2 24.3 2 26 C1.88 25.36 1.75 24.72 1.62 24.06 C1.42 23.38 1.21 22.7 1 22 C0.34 21.67 -0.32 21.34 -1 21 C-1 20.01 -1 19.02 -1 18 C-1.47 15.48 -2.02 12.98 -2.56 10.47 C-3 8 -3 8 -3 4 C-2.01 4 -1.02 4 0 4 C0 2.68 0 1.36 0 0 Z " fill="#799CB2" transform="translate(409,170)"/>
<path d="M0 0 C0.66 0.33 1.32 0.66 2 1 C2.41 3.04 2.41 3.04 2.63 5.69 C2.72 6.64 2.8 7.58 2.89 8.55 C2.97 9.55 3.04 10.54 3.12 11.56 C3.25 13.06 3.25 13.06 3.39 14.58 C3.6 17.06 3.8 19.53 4 22 C2.35 22 0.7 22 -1 22 C-1.33 15.07 -1.66 8.14 -2 1 C-1.34 0.67 -0.68 0.34 0 0 Z " fill="#7EA2B9" transform="translate(357,306)"/>
<path d="M0 0 C0.99 0 1.98 0 3 0 C3.13 0.76 3.27 1.52 3.4 2.3 C3.58 3.29 3.76 4.29 3.94 5.31 C4.2 6.79 4.2 6.79 4.46 8.3 C4.96 11.08 4.96 11.08 6 14 C5.67 14.33 5.34 14.66 5 15 C4.96 17 4.96 19 5 21 C3.68 21.33 2.36 21.66 1 22 C-0.17 14.66 -0.09 7.42 0 0 Z " fill="#85ACC4" transform="translate(381,215)"/>
<path d="M0 0 C0.33 0 0.66 0 1 0 C1.12 0.77 1.24 1.55 1.37 2.34 C2.52 9.51 2.52 9.51 4.19 16.56 C5 20 5 20 4 23 C4 22.34 4 21.68 4 21 C3.34 21 2.68 21 2 21 C2 22.65 2 24.3 2 26 C1.67 26 1.34 26 1 26 C0.33 22.71 -0.34 19.42 -1 16.12 C-1.19 15.19 -1.38 14.25 -1.58 13.29 C-1.76 12.39 -1.94 11.49 -2.12 10.57 C-2.29 9.74 -2.46 8.92 -2.63 8.06 C-3 6 -3 6 -3 4 C-2.01 4 -1.02 4 0 4 C0 2.68 0 1.36 0 0 Z " fill="#7597AC" transform="translate(442,326)"/>
<path d="M0 0 C0.72 4.98 1.4 9.95 2.06 14.94 C2.15 15.62 2.24 16.31 2.34 17.01 C2.56 18.67 2.78 20.34 3 22 C2.34 21.34 1.68 20.68 1 20 C1 18.68 1 17.36 1 16 C0.34 16 -0.32 16 -1 16 C-1 17.98 -1 19.96 -1 22 C-1.33 22 -1.66 22 -2 22 C-2.13 20.99 -2.27 19.97 -2.4 18.93 C-2.58 17.58 -2.76 16.23 -2.94 14.88 C-3.02 14.21 -3.11 13.54 -3.2 12.86 C-3.73 8.89 -4.32 4.94 -5 1 C-3 0 -3 0 0 0 Z " fill="#7292A7" transform="translate(375,139)"/>
<path d="M0 0 C0.99 0 1.98 0 3 0 C3.12 1.01 3.25 2.02 3.38 3.06 C3.9 6.97 3.9 6.97 5.06 10.5 C6.04 14.15 6.15 17.24 6 21 C4.68 20.67 3.36 20.34 2 20 C-0.3 6.37 -0.3 6.37 0 0 Z " fill="#7FA4BA" transform="translate(458,413)"/>
<path d="M0 0 C0.66 0 1.32 0 2 0 C2.7 2.43 3.38 4.87 4.06 7.31 C4.26 8 4.46 8.69 4.67 9.4 C6.11 14.66 6.11 14.66 5 18 C4.34 18 3.68 18 3 18 C3 19.65 3 21.3 3 23 C2.67 23 2.34 23 2 23 C1.66 21.56 1.33 20.13 1 18.69 C0.72 17.49 0.72 17.49 0.44 16.26 C0 14 0 14 0 11 C-0.33 10.34 -0.66 9.68 -1 9 C-1.19 6.31 -1.09 3.7 -1 1 C-0.67 0.67 -0.34 0.34 0 0 Z " fill="#80A5BC" transform="translate(398,127)"/>
<path d="M0 0 C2 2 2 2 2.16 4.75 C2.13 5.82 2.1 6.89 2.06 8 C1.8 12.16 1.8 12.16 3 16 C3.04 18 3.04 20 3 22 C1.68 21.67 0.36 21.34 -1 21 C-2.87 15.51 -3.24 10.78 -3 5 C-2.34 5 -1.68 5 -1 5 C-0.67 3.35 -0.34 1.7 0 0 Z " fill="#789BB1" transform="translate(413,465)"/>
<path d="M0 0 C0.99 0 1.98 0 3 0 C4.33 14.6 4.33 14.6 3 22 C2.01 22 1.02 22 0 22 C-1.33 7.4 -1.33 7.4 0 0 Z " fill="#85ACC3" transform="translate(359,367)"/>
<path d="M0 0 C1.32 0.33 2.64 0.66 4 1 C4.22 3.37 4.43 5.75 4.62 8.12 C4.69 8.79 4.75 9.46 4.82 10.14 C5.17 14.59 4.68 17.88 3 22 C2.34 22 1.68 22 1 22 C0.83 19.65 0.66 17.29 0.5 14.94 C0.41 13.63 0.31 12.32 0.22 10.96 C0.02 7.3 -0.04 3.67 0 0 Z " fill="#89B1CA" transform="translate(341,271)"/>
<path d="M0 0 C0.33 0 0.66 0 1 0 C1.2 3.46 1.38 6.92 1.56 10.38 C1.62 11.36 1.67 12.34 1.73 13.36 C1.78 14.3 1.83 15.24 1.88 16.21 C1.93 17.08 1.97 17.95 2.02 18.85 C2 21 2 21 1 23 C0.01 23 -0.98 23 -2 23 C-3.53 19.93 -3.1 16.73 -3.06 13.38 C-3.06 12.67 -3.05 11.96 -3.05 11.23 C-3.04 9.49 -3.02 7.74 -3 6 C-2.01 6 -1.02 6 0 6 C0 4.02 0 2.04 0 0 Z " fill="#7EA3B9" transform="translate(364,428)"/>
<path d="M0 0 C1.63 6.15 2.2 11.64 2 18 C0.68 18.33 -0.64 18.66 -2 19 C-2.66 13.06 -3.32 7.12 -4 1 C-2 0 -2 0 0 0 Z " fill="#82A8BF" transform="translate(387,134)"/>
<path d="M0 0 C0.33 0 0.66 0 1 0 C1.17 2.35 1.34 4.71 1.5 7.06 C1.59 8.37 1.69 9.68 1.78 11.04 C1.98 14.7 2.04 18.33 2 22 C0.68 22 -0.64 22 -2 22 C-2.65 17.28 -3.12 12.78 -3 8 C-2.01 7.67 -1.02 7.34 0 7 C0 4.69 0 2.38 0 0 Z " fill="#81A7BE" transform="translate(391,464)"/>
<path d="M0 0 C1.32 0 2.64 0 4 0 C4 7.59 4 15.18 4 23 C3.67 23 3.34 23 3 23 C3 20.69 3 18.38 3 16 C2.01 16.33 1.02 16.66 0 17 C0 11.39 0 5.78 0 0 Z " fill="#648294" transform="translate(342,384)"/>
<path d="M0 0 C1.32 0.33 2.64 0.66 4 1 C4.36 3.46 4.71 5.92 5.06 8.38 C5.17 9.07 5.27 9.77 5.38 10.49 C6.11 15.77 6.11 15.77 5 18 C3.68 17.67 2.36 17.34 1 17 C0.67 11.39 0.34 5.78 0 0 Z " fill="#7FA3BB" transform="translate(397,357)"/>
<path d="M0 0 C0.66 0 1.32 0 2 0 C2.19 1.7 2.19 1.7 2.38 3.44 C2.68 5.2 2.68 5.2 3 7 C3.66 7.33 4.32 7.66 5 8 C5.05 10.12 5.09 12.25 5.12 14.38 C5.15 15.56 5.17 16.74 5.2 17.96 C5 21 5 21 3 23 C-0.22 15.22 -0.32 8.36 0 0 Z " fill="#8DB6CE" transform="translate(374,155)"/>
<path d="M0 0 C1.32 0 2.64 0 4 0 C4.06 0.89 4.12 1.78 4.18 2.7 C4.27 3.87 4.35 5.04 4.44 6.25 C4.52 7.41 4.6 8.57 4.68 9.77 C4.93 12.31 5.28 14.56 6 17 C4.02 17 2.04 17 0 17 C0 11.39 0 5.78 0 0 Z " fill="#8EB7D0" transform="translate(349,144)"/>
<path d="M0 0 C0.33 0 0.66 0 1 0 C1.33 7.26 1.66 14.52 2 22 C0.35 22 -1.3 22 -3 22 C-3 17.38 -3 12.76 -3 8 C-2.01 7.67 -1.02 7.34 0 7 C0 4.69 0 2.38 0 0 Z " fill="#82A8BF" transform="translate(362,382)"/>
<path d="M0 0 C1.32 0.33 2.64 0.66 4 1 C4 6.28 4 11.56 4 17 C3.34 17 2.68 17 2 17 C1.67 18.98 1.34 20.96 1 23 C0.67 23 0.34 23 0 23 C0 15.41 0 7.82 0 0 Z " fill="#789BB0" transform="translate(352,214)"/>
<path d="M0 0 C1.32 0 2.64 0 4 0 C4 4.62 4 9.24 4 14 C3.01 14.33 2.02 14.66 1 15 C1 17.31 1 19.62 1 22 C0.67 22 0.34 22 0 22 C0 14.74 0 7.48 0 0 Z " fill="#7A9DB3" transform="translate(358,352)"/>
<path d="M0 0 C0.66 0 1.32 0 2 0 C2 0.99 2 1.98 2 3 C2.66 3 3.32 3 4 3 C5.23 8.67 5.09 14.24 5 20 C4.34 20 3.68 20 3 20 C1.02 17.04 0.74 16.32 0.59 12.99 C0.53 11.85 0.53 11.85 0.47 10.69 C0.42 9.51 0.42 9.51 0.38 8.31 C0.32 7.12 0.32 7.12 0.26 5.9 C0.16 3.93 0.08 1.97 0 0 Z " fill="#8EB8D0" transform="translate(426,322)"/>
<path d="M0 0 C0.33 0 0.66 0 1 0 C1 1.98 1 3.96 1 6 C1.99 6 2.98 6 4 6 C5.44 8.88 5.09 11.42 5.06 14.62 C5.05 15.81 5.04 17 5.04 18.23 C5.02 19.14 5.01 20.06 5 21 C4.67 21 4.34 21 4 21 C4 19.35 4 17.7 4 16 C1.5 17 1.5 17 0 21 C0 14.07 0 7.14 0 0 Z " fill="#799CB2" transform="translate(341,317)"/>
<path d="M0 0 C0.99 0 1.98 0 3 0 C3.34 1.77 3.67 3.54 4 5.31 C4.28 6.79 4.28 6.79 4.56 8.3 C5 11 5 11 5 14 C3.35 14 1.7 14 0 14 C0 9.38 0 4.76 0 0 Z " fill="#83A9C1" transform="translate(389,283)"/>
<path d="M0 0 C0.33 0 0.66 0 1 0 C1 2.31 1 4.62 1 7 C1.99 6.67 2.98 6.34 4 6 C5.12 13.75 5.12 13.75 4 16 C3.01 16 2.02 16 1 16 C1 17.98 1 19.96 1 22 C0.67 22 0.34 22 0 22 C0 14.74 0 7.48 0 0 Z " fill="#648193" transform="translate(341,286)"/>
<path d="M0 0 C1.32 0.33 2.64 0.66 4 1 C4.33 4.96 4.66 8.92 5 13 C3.35 13 1.7 13 0 13 C0 8.71 0 4.42 0 0 Z " fill="#7DA1B8" transform="translate(396,344)"/>
<path d="M0 0 C1.32 0.33 2.64 0.66 4 1 C4.33 5.29 4.66 9.58 5 14 C3.68 13.67 2.36 13.34 1 13 C0.67 8.71 0.34 4.42 0 0 Z " fill="#84AAC1" transform="translate(404,160)"/>
<path d="M0 0 C1.67 2.96 2.33 5.37 2.62 8.75 C2.7 9.55 2.77 10.35 2.85 11.17 C2.93 12.08 2.93 12.08 3 13 C2.01 12.67 1.02 12.34 0 12 C0 13.98 0 15.96 0 18 C-0.33 18 -0.66 18 -1 18 C-1.34 16.27 -1.67 14.54 -2 12.81 C-2.19 11.85 -2.37 10.89 -2.56 9.89 C-2.98 7.15 -3.3 4.76 -3 2 C-2.01 1.34 -1.02 0.68 0 0 Z " fill="#7B9DB2" transform="translate(393,130)"/>
<path d="M0 0 C0.99 0 1.98 0 3 0 C3.33 4.29 3.66 8.58 4 13 C2.02 13.99 2.02 13.99 0 15 C-0.33 14.67 -0.66 14.34 -1 14 C-0.91 11.64 -0.75 9.29 -0.56 6.94 C-0.46 5.65 -0.36 4.36 -0.25 3.03 C-0.17 2.03 -0.09 1.03 0 0 Z " fill="#83A9C1" transform="translate(343,469)"/>
<path d="M0 0 C0.99 0 1.98 0 3 0 C3.99 4.29 4.98 8.58 6 13 C4.35 13.33 2.7 13.66 1 14 C0.67 9.38 0.34 4.76 0 0 Z " fill="#8CB4CD" transform="translate(425,425)"/>
<path d="M0 0 C2.48 0.5 2.48 0.5 5 1 C4.67 5.29 4.34 9.58 4 14 C3.01 14 2.02 14 1 14 C0.67 9.38 0.34 4.76 0 0 Z " fill="#87AEC6" transform="translate(380,366)"/>
<path d="M0 0 C0.99 0.33 1.98 0.66 3 1 C3.33 5.29 3.66 9.58 4 14 C2.68 13.67 1.36 13.34 0 13 C-0.19 11.02 -0.38 9.04 -0.56 7.06 C-0.67 5.96 -0.77 4.86 -0.88 3.72 C-0.92 2.82 -0.96 1.93 -1 1 C-0.67 0.67 -0.34 0.34 0 0 Z " fill="#84AAC1" transform="translate(438,316)"/>
<path d="M0 0 C0.99 0.33 1.98 0.66 3 1 C3.33 5.29 3.66 9.58 4 14 C2.68 13.67 1.36 13.34 0 13 C-0.19 11.02 -0.38 9.04 -0.56 7.06 C-0.67 5.96 -0.77 4.86 -0.88 3.72 C-0.92 2.82 -0.96 1.93 -1 1 C-0.67 0.67 -0.34 0.34 0 0 Z " fill="#84AAC1" transform="translate(427,264)"/>
<path d="M0 0 C0.33 0 0.66 0 1 0 C1.34 1.75 1.67 3.5 2 5.25 C2.19 6.22 2.37 7.2 2.56 8.2 C3 11 3 11 3 15 C2.01 15 1.02 15 0 15 C0 16.65 0 18.3 0 20 C-0.33 20 -0.66 20 -1 20 C-1.66 14.72 -2.32 9.44 -3 4 C-2.67 4.66 -2.34 5.32 -2 6 C-1.34 6 -0.68 6 0 6 C0 4.02 0 2.04 0 0 Z " fill="#789AB0" transform="translate(431,336)"/>
<path d="M0 0 C0.99 0 1.98 0 3 0 C3.77 4.72 4.1 9.22 4 14 C2.68 14 1.36 14 0 14 C0 9.38 0 4.76 0 0 Z " fill="#83A9C0" transform="translate(414,342)"/>
<path d="M0 0 C1.65 0 3.3 0 5 0 C4.67 4.62 4.34 9.24 4 14 C3.01 14 2.02 14 1 14 C0.67 9.38 0.34 4.76 0 0 Z " fill="#8BB4CC" transform="translate(361,451)"/>
<path d="M0 0 C0.33 0 0.66 0 1 0 C1.17 2.35 1.34 4.71 1.5 7.06 C1.59 8.37 1.69 9.68 1.78 11.04 C1.98 14.7 2.04 18.33 2 22 C1.67 22 1.34 22 1 22 C0.67 20.02 0.34 18.04 0 16 C-0.66 16 -1.32 16 -2 16 C-3.35 13.29 -3.07 10.99 -3 8 C-2.01 7.67 -1.02 7.34 0 7 C0 4.69 0 2.38 0 0 Z " fill="#7B9EB4" transform="translate(358,291)"/>
<path d="M0 0 C1.65 0 3.3 0 5 0 C4.67 4.62 4.34 9.24 4 14 C3.01 14 2.02 14 1 14 C0.67 9.38 0.34 4.76 0 0 Z " fill="#8BB3CC" transform="translate(354,284)"/>
<path d="M0 0 C0.33 0 0.66 0 1 0 C1.33 4.29 1.66 8.58 2 13 C1.01 13.33 0.02 13.66 -1 14 C-1 15.98 -1 17.96 -1 20 C-1.33 20 -1.66 20 -2 20 C-2.85 14.92 -3.09 10.15 -3 5 C-2.01 5 -1.02 5 0 5 C0 3.35 0 1.7 0 0 Z " fill="#789AB0" transform="translate(382,201)"/>
<path d="M0 0 C1.94 0.38 1.94 0.38 4 1 C5.26 3.52 5.1 5.31 5.06 8.12 C5.05 9.04 5.04 9.95 5.04 10.88 C5.02 11.58 5.01 12.28 5 13 C3.05 12.35 3.05 12.35 1 11 C0.39 8.4 0.39 8.4 0.25 5.38 C0.19 4.37 0.14 3.37 0.08 2.34 C0.05 1.57 0.03 0.79 0 0 Z " fill="#7FA4BB" transform="translate(403,202)"/>
<path d="M0 0 C1.32 0 2.64 0 4 0 C4 4.29 4 8.58 4 13 C3.01 13 2.02 13 1 13 C-0.32 10.36 -0.1 8.32 -0.06 5.38 C-0.05 4.37 -0.04 3.37 -0.04 2.34 C-0.02 1.57 -0.01 0.79 0 0 Z " fill="#80A5BC" transform="translate(419,380)"/>
<path d="M0 0 C0.99 0 1.98 0 3 0 C3.77 4.72 4.1 9.22 4 14 C3.01 14 2.02 14 1 14 C-0.38 11.24 -0.1 8.95 -0.06 5.88 C-0.05 4.78 -0.04 3.68 -0.04 2.55 C-0.02 1.71 -0.01 0.87 0 0 Z " fill="#85ABC3" transform="translate(434,366)"/>
<path d="M0 0 C0.66 0 1.32 0 2 0 C2.33 4.29 2.66 8.58 3 13 C1.35 13 -0.3 13 -2 13 C-1.86 11.02 -1.71 9.04 -1.56 7.06 C-1.48 5.96 -1.4 4.86 -1.32 3.72 C-1 1 -1 1 0 0 Z " fill="#8CB4CC" transform="translate(343,333)"/>
<path d="M0 0 C0.33 0 0.66 0 1 0 C1.33 4.95 1.66 9.9 2 15 C1.01 15 0.02 15 -1 15 C-1 16.65 -1 18.3 -1 20 C-1.33 20 -1.66 20 -2 20 C-2.33 15.71 -2.66 11.42 -3 7 C-2.01 6.67 -1.02 6.34 0 6 C0 4.02 0 2.04 0 0 Z " fill="#789BB1" transform="translate(397,329)"/>
<path d="M0 0 C0.33 0 0.66 0 1 0 C1.33 4.62 1.66 9.24 2 14 C1.01 14.33 0.02 14.66 -1 15 C-1 17.31 -1 19.62 -1 22 C-1.33 22 -1.66 22 -2 22 C-2.33 17.38 -2.66 12.76 -3 8 C-2.01 7.67 -1.02 7.34 0 7 C0 4.69 0 2.38 0 0 Z " fill="#7B9FB5" transform="translate(376,267)"/>
<path d="M0 0 C0.33 0 0.66 0 1 0 C1.33 4.62 1.66 9.24 2 14 C1.01 14.33 0.02 14.66 -1 15 C-1 17.31 -1 19.62 -1 22 C-1.33 22 -1.66 22 -2 22 C-2.33 17.38 -2.66 12.76 -3 8 C-2.01 7.67 -1.02 7.34 0 7 C0 4.69 0 2.38 0 0 Z " fill="#7B9FB5" transform="translate(372,214)"/>
<path d="M0 0 C0.99 0 1.98 0 3 0 C4.38 2.76 4.1 5.05 4.06 8.12 C4.05 9.22 4.04 10.32 4.04 11.45 C4.02 12.29 4.01 13.13 4 14 C3.01 14 2.02 14 1 14 C0.23 9.28 -0.1 4.78 0 0 Z " fill="#86ADC4" transform="translate(446,433)"/>
<path d="M0 0 C0.33 0 0.66 0 1 0 C1.36 1.96 1.71 3.92 2.06 5.88 C2.26 6.97 2.46 8.06 2.66 9.18 C3 12 3 12 2 14 C1.34 13.67 0.68 13.34 0 13 C-0.33 14.32 -0.66 15.64 -1 17 C-1.66 13.04 -2.32 9.08 -3 5 C-2.01 4.67 -1.02 4.34 0 4 C0 2.68 0 1.36 0 0 Z " fill="#789BB1" transform="translate(464,430)"/>
<path d="M0 0 C0.33 0 0.66 0 1 0 C1.33 4.95 1.66 9.9 2 15 C1.34 15 0.68 15 0 15 C-0.33 16.65 -0.66 18.3 -1 20 C-1.33 20 -1.66 20 -2 20 C-2.33 15.71 -2.66 11.42 -3 7 C-2.01 6.67 -1.02 6.34 0 6 C0 4.02 0 2.04 0 0 Z " fill="#789BB1" transform="translate(405,397)"/>
<path d="M0 0 C0.33 0 0.66 0 1 0 C1.36 1.96 1.71 3.92 2.06 5.88 C2.26 6.97 2.46 8.06 2.66 9.18 C3 12 3 12 2 14 C1.34 13.67 0.68 13.34 0 13 C-0.33 14.32 -0.66 15.64 -1 17 C-1.66 13.04 -2.32 9.08 -3 5 C-2.01 4.67 -1.02 4.34 0 4 C0 2.68 0 1.36 0 0 Z " fill="#789BB0" transform="translate(453,378)"/>
<path d="M0 0 C0.33 0 0.66 0 1 0 C1.33 4.62 1.66 9.24 2 14 C1.01 14 0.02 14 -1 14 C-1.33 15.32 -1.66 16.64 -2 18 C-2.33 13.71 -2.66 9.42 -3 5 C-2.01 5 -1.02 5 0 5 C0 3.35 0 1.7 0 0 Z " fill="#7698AD" transform="translate(420,366)"/>
<path d="M0 0 C0.99 0.33 1.98 0.66 3 1 C4.3 5.61 3.71 9.34 3 14 C1.68 14 0.36 14 -1 14 C-0.67 9.38 -0.34 4.76 0 0 Z " fill="#90B9D2" transform="translate(351,177)"/>
<path d="M0 0 C0.66 0.33 1.32 0.66 2 1 C2.41 3.72 2.41 3.72 2.62 7.06 C2.7 8.17 2.77 9.27 2.85 10.41 C2.9 11.26 2.95 12.12 3 13 C1.68 13 0.36 13 -1 13 C-1.33 9.04 -1.66 5.08 -2 1 C-1.34 0.67 -0.68 0.34 0 0 Z " fill="#84AAC1" transform="translate(364,473)"/>
<path d="M0 0 C0.33 0 0.66 0 1 0 C1.34 1.56 1.67 3.12 2 4.69 C2.19 5.56 2.37 6.43 2.56 7.32 C2.99 9.94 3.08 12.36 3 15 C2.01 15 1.02 15 0 15 C-0.33 16.32 -0.66 17.64 -1 19 C-1.33 14.71 -1.66 10.42 -2 6 C-1.34 6 -0.68 6 0 6 C0 4.02 0 2.04 0 0 Z " fill="#7B9FB5" transform="translate(450,441)"/>
<path d="M0 0 C2 2 2 2 2.2 3.95 C2.13 5.96 2.07 7.98 2 10 C1.01 10 0.02 10 -1 10 C-1 11.98 -1 13.96 -1 16 C-1.33 16 -1.66 16 -2 16 C-2.66 11.71 -3.32 7.42 -4 3 C-2.68 2.01 -1.36 1.02 0 0 Z " fill="#7A9DB3" transform="translate(388,432)"/>
<path d="M0 0 C0.33 0 0.66 0 1 0 C1.33 3.96 1.66 7.92 2 12 C1.01 12.33 0.02 12.66 -1 13 C-1 14.65 -1 16.3 -1 18 C-1.33 18 -1.66 18 -2 18 C-2.77 13.28 -3.1 8.78 -3 4 C-2.34 4 -1.68 4 -1 4 C-0.67 2.68 -0.34 1.36 0 0 Z " fill="#7698AE" transform="translate(405,261)"/>
<path d="M0 0 C0.66 0.33 1.32 0.66 2 1 C2 5.29 2 9.58 2 14 C1.01 14 0.02 14 -1 14 C-2.1 9.59 -2.08 5.52 -2 1 C-1.34 0.67 -0.68 0.34 0 0 Z " fill="#89B1C8" transform="translate(342,172)"/>
<path d="M0 0 C0.33 0 0.66 0 1 0 C1.33 4.95 1.66 9.9 2 15 C1.01 15 0.02 15 -1 15 C-1.33 15.99 -1.66 16.98 -2 18 C-2.33 14.04 -2.66 10.08 -3 6 C-2.01 6 -1.02 6 0 6 C0 4.02 0 2.04 0 0 Z " fill="#799BB1" transform="translate(423,387)"/>
<path d="M0 0 C0.33 0 0.66 0 1 0 C1.23 2.02 1.46 4.04 1.68 6.05 C1.91 8.07 1.91 8.07 3 10 C2.06 12.12 2.06 12.12 1 14 C0.34 14 -0.32 14 -1 14 C-1 15.98 -1 17.96 -1 20 C-1.33 20 -1.66 20 -2 20 C-2.33 15.05 -2.66 10.1 -3 5 C-2.67 5.66 -2.34 6.32 -2 7 C-1.34 7 -0.68 7 0 7 C0 4.69 0 2.38 0 0 Z " fill="#7699AE" transform="translate(390,269)"/>
<path d="M0 0 C0.99 0 1.98 0 3 0 C4.13 5.02 3.78 8.98 3 14 C2.01 14 1.02 14 0 14 C0 9.38 0 4.76 0 0 Z " fill="#8AB2CB" transform="translate(388,457)"/>
<path d="M0 0 C0.33 0 0.66 0 1 0 C1.33 3.63 1.66 7.26 2 11 C1.01 11.33 0.02 11.66 -1 12 C-1 13.98 -1 15.96 -1 18 C-1.33 18 -1.66 18 -2 18 C-2.33 13.38 -2.66 8.76 -3 4 C-2.34 3.67 -1.68 3.34 -1 3 C-0.67 2.01 -0.34 1.02 0 0 Z " fill="#7699AE" transform="translate(432,450)"/>
<path d="M0 0 C0.99 0 1.98 0 3 0 C3 4.62 3 9.24 3 14 C2.01 14 1.02 14 0 14 C-1.13 8.98 -0.78 5.02 0 0 Z " fill="#8FB9D2" transform="translate(375,282)"/>
<path d="M0 0 C0.99 0 1.98 0 3 0 C4.13 5.02 3.78 8.98 3 14 C2.01 14 1.02 14 0 14 C0 9.38 0 4.76 0 0 Z " fill="#8CB5CE" transform="translate(373,260)"/>
<path d="M0 0 C0.99 0.33 1.98 0.66 3 1 C2.67 5.29 2.34 9.58 2 14 C1.01 14 0.02 14 -1 14 C-1.03 11.85 -1.05 9.71 -1.06 7.56 C-1.07 6.37 -1.09 5.17 -1.1 3.94 C-1 1 -1 1 0 0 Z " fill="#90BAD3" transform="translate(354,230)"/>
<path d="M0 0 C0.99 0 1.98 0 3 0 C4.13 5.02 3.78 8.98 3 14 C2.01 14 1.02 14 0 14 C0 9.38 0 4.76 0 0 Z " fill="#8AB3CA" transform="translate(369,207)"/>
<path d="M0 0 C0.99 0 1.98 0 3 0 C3.7 4.39 4.11 8.56 4 13 C2.68 13 1.36 13 0 13 C0 8.71 0 4.42 0 0 Z " fill="#83A9C1" transform="translate(396,157)"/>
<path d="M0 0 C0.66 0.33 1.32 0.66 2 1 C2 3.97 2 6.94 2 10 C1.01 10.33 0.02 10.66 -1 11 C-1 12.98 -1 14.96 -1 17 C-1.33 17 -1.66 17 -2 17 C-2.25 14.73 -2.47 12.46 -2.69 10.19 C-2.82 8.92 -2.94 7.66 -3.07 6.36 C-3 3 -3 3 -1.52 1.05 C-1.02 0.7 -0.52 0.36 0 0 Z " fill="#779AB0" transform="translate(389,150)"/>
<path d="M0 0 C0.33 0 0.66 0 1 0 C1.66 4.29 2.32 8.58 3 13 C2.01 13.33 1.02 13.66 0 14 C0 15.65 0 17.3 0 19 C-0.33 19 -0.66 19 -1 19 C-1.33 14.71 -1.66 10.42 -2 6 C-1.34 6 -0.68 6 0 6 C0 4.02 0 2.04 0 0 Z " fill="#7B9FB5" transform="translate(446,419)"/>
<path d="M0 0 C0.33 0 0.66 0 1 0 C1.66 4.29 2.32 8.58 3 13 C2.01 13.33 1.02 13.66 0 14 C0 15.98 0 17.96 0 20 C-0.33 20 -0.66 20 -1 20 C-1.36 18.04 -1.71 16.08 -2.06 14.12 C-2.26 13.03 -2.46 11.94 -2.66 10.82 C-3 8 -3 8 -2 6 C-1.34 6 -0.68 6 0 6 C0 4.02 0 2.04 0 0 Z " fill="#799DB3" transform="translate(412,232)"/>
<path d="M0 0 C0.33 0 0.66 0 1 0 C1.33 4.62 1.66 9.24 2 14 C1.34 14 0.68 14 0 14 C-0.66 14.99 -1.32 15.98 -2 17 C-2.33 13.37 -2.66 9.74 -3 6 C-2.01 5.67 -1.02 5.34 0 5 C0 3.35 0 1.7 0 0 Z " fill="#7A9DB3" transform="translate(393,178)"/>
<path d="M0 0 C0.33 0 0.66 0 1 0 C3.59 10.98 3.59 10.98 1.12 15.25 C0.42 15.83 -0.28 16.4 -1 17 C-2.33 13.02 -2.07 9.15 -2 5 C-1.34 5 -0.68 5 0 5 C0 3.35 0 1.7 0 0 Z " fill="#7A9DB3" transform="translate(426,251)"/>
<path d="M0 0 C1.98 0.5 1.98 0.5 4 1 C4 3.64 4 6.28 4 9 C3.01 9 2.02 9 1 9 C1 10.98 1 12.96 1 15 C0.34 14.67 -0.32 14.34 -1 14 C-1.03 12.04 -1.05 10.08 -1.06 8.12 C-1.07 7.03 -1.09 5.94 -1.1 4.82 C-1 2 -1 2 0 0 Z " fill="#7B9EB5" transform="translate(372,251)"/>
<path d="M0 0 C0.33 0 0.66 0 1 0 C1.66 4.95 2.32 9.9 3 15 C0.52 14.01 0.52 14.01 -2 13 C-2.33 10.69 -2.66 8.38 -3 6 C-2.01 5.67 -1.02 5.34 0 5 C0 3.35 0 1.7 0 0 Z " fill="#7B9FB5" transform="translate(404,188)"/>
<path d="M0 0 C0.66 0 1.32 0 2 0 C2 0.99 2 1.98 2 3 C2.66 3 3.32 3 4 3 C4 6.3 4 9.6 4 13 C3.01 13 2.02 13 1 13 C-0.32 10.36 -0.1 8.32 -0.06 5.38 C-0.05 4.37 -0.04 3.37 -0.04 2.34 C-0.02 1.57 -0.01 0.79 0 0 Z " fill="#8CB4CD" transform="translate(411,191)"/>
<path d="M0 0 C0 4.29 0 8.58 0 13 C-0.66 13 -1.32 13 -2 13 C-3.8 9.03 -4.49 5.32 -5 1 C-3 0 -3 0 0 0 Z " fill="#91BBD4" transform="translate(367,141)"/>
<path d="M0 0 C0.66 0 1.32 0 2 0 C4.25 4.5 4.17 8.08 4 13 C3.01 13 2.02 13 1 13 C-0 9.99 -0.1 7.96 -0.06 4.81 C-0.05 3.91 -0.04 3.01 -0.04 2.08 C-0.02 1.39 -0.01 0.71 0 0 Z " fill="#86ADC5" transform="translate(444,347)"/>
<path d="M0 0 C0.33 0 0.66 0 1 0 C3.59 10.98 3.59 10.98 1.12 15.25 C0.42 15.83 -0.28 16.4 -1 17 C-1.98 12.95 -2.08 9.16 -2 5 C-1.34 5 -0.68 5 0 5 C0 3.35 0 1.7 0 0 Z " fill="#7B9FB5" transform="translate(437,303)"/>
<path d="M0 0 C0.66 0 1.32 0 2 0 C2 0.99 2 1.98 2 3 C2.66 3 3.32 3 4 3 C4 6.3 4 9.6 4 13 C3.01 13 2.02 13 1 13 C-0.32 10.36 -0.1 8.32 -0.06 5.38 C-0.05 4.37 -0.04 3.37 -0.04 2.34 C-0.02 1.57 -0.01 0.79 0 0 Z " fill="#85ABC3" transform="translate(422,243)"/>
<path d="M0 0 C0.33 0 0.66 0 1 0 C1.33 4.29 1.66 8.58 2 13 C1.01 13.33 0.02 13.66 -1 14 C-2.6 10.49 -3.22 7.86 -3 4 C-2.01 4 -1.02 4 0 4 C0 2.68 0 1.36 0 0 Z " fill="#7CA0B6" transform="translate(400,166)"/>
<path d="M0 0 C0.33 0 0.66 0 1 0 C1.44 1.91 1.85 3.83 2.25 5.75 C2.48 6.82 2.71 7.88 2.95 8.98 C3 12 3 12 1.05 14.39 C0.37 14.92 -0.3 15.45 -1 16 C-2.18 12.33 -2.07 8.83 -2 5 C-1.34 5 -0.68 5 0 5 C0 3.35 0 1.7 0 0 Z " fill="#7DA2B8" transform="translate(448,355)"/>
<path d="M0 0 C1.65 0 3.3 0 5 0 C5 2.64 5 5.28 5 8 C4.01 8 3.02 8 2 8 C2 9.98 2 11.96 2 14 C1.67 14 1.34 14 1 14 C0.67 9.38 0.34 4.76 0 0 Z " fill="#7DA2B8" transform="translate(378,343)"/>
<path d="M0 0 C2.06 0.44 2.06 0.44 4 1 C4.33 3.64 4.66 6.28 5 9 C3.35 9 1.7 9 0 9 C-1.37 6.27 -1.13 4.02 -1 1 C-0.67 0.67 -0.34 0.34 0 0 Z " fill="#7A9EB4" transform="translate(357,328)"/>
<path d="M0 0 C0.66 0 1.32 0 2 0 C2 0.99 2 1.98 2 3 C2.66 3 3.32 3 4 3 C4 6.3 4 9.6 4 13 C3.01 13 2.02 13 1 13 C-0 9.99 -0.1 7.96 -0.06 4.81 C-0.05 3.91 -0.04 3.01 -0.04 2.08 C-0.02 1.39 -0.01 0.71 0 0 Z " fill="#85ACC3" transform="translate(433,295)"/>
<path d="M0 0 C0.33 0 0.66 0 1 0 C1 1.98 1 3.96 1 6 C1.99 6 2.98 6 4 6 C4 9.3 4 12.6 4 16 C2.68 15.34 1.36 14.68 0 14 C0 9.38 0 4.76 0 0 Z " fill="#80A5BC" transform="translate(341,256)"/>
<path d="M0 0 C0.33 0 0.66 0 1 0 C1.66 3.96 2.32 7.92 3 12 C2.01 12.33 1.02 12.66 0 13 C-0.73 15.02 -0.73 15.02 -1 17 C-1.98 12.95 -2.08 9.16 -2 5 C-1.34 5 -0.68 5 0 5 C0 3.35 0 1.7 0 0 Z " fill="#7CA0B5" transform="translate(415,199)"/>
<path d="M0 0 C0.33 0 0.66 0 1 0 C1.33 4.62 1.66 9.24 2 14 C0.02 14.99 0.02 14.99 -2 16 C-3.61 12.79 -3.06 9.56 -3 6 C-2.67 6.66 -2.34 7.32 -2 8 C-1.34 8 -0.68 8 0 8 C0 5.36 0 2.72 0 0 Z " fill="#7B9EB4" transform="translate(367,146)"/>
<path d="M0 0 C0.99 0.33 1.98 0.66 3 1 C3 5.29 3 9.58 3 14 C2.01 14 1.02 14 0 14 C0 9.38 0 4.76 0 0 Z " fill="#95C0DA" transform="translate(343,438)"/>
<path d="M0 0 C0.66 0 1.32 0 2 0 C2 4.62 2 9.24 2 14 C1.01 14 0.02 14 -1 14 C-1.03 11.85 -1.05 9.71 -1.06 7.56 C-1.07 6.37 -1.09 5.17 -1.1 3.94 C-1 1 -1 1 0 0 Z " fill="#95C0DA" transform="translate(343,400)"/>
<path d="M0 0 C2.6 3.9 2.15 7.47 2 12 C1.01 12.33 0.02 12.66 -1 13 C-2.62 10.43 -3.04 9.32 -2.62 6.25 C-2.42 5.51 -2.21 4.76 -2 4 C-1.34 4 -0.68 4 0 4 C0 2.68 0 1.36 0 0 Z " fill="#7A9DB3" transform="translate(441,391)"/>
<path d="M0 0 C0.99 0.33 1.98 0.66 3 1 C3 5.29 3 9.58 3 14 C2.01 14 1.02 14 0 14 C0 9.38 0 4.76 0 0 Z " fill="#94C0D9" transform="translate(342,248)"/>
<path d="M0 0 C0.66 0 1.32 0 2 0 C2 4.62 2 9.24 2 14 C1.01 14 0.02 14 -1 14 C-1.03 11.85 -1.05 9.71 -1.06 7.56 C-1.07 6.37 -1.09 5.17 -1.1 3.94 C-1 1 -1 1 0 0 Z " fill="#95C0DA" transform="translate(342,210)"/>
<path d="M0 0 C1.65 0 3.3 0 5 0 C5 2.64 5 5.28 5 8 C4.01 8 3.02 8 2 8 C2 9.98 2 11.96 2 14 C1.67 14 1.34 14 1 14 C0.67 9.38 0.34 4.76 0 0 Z " fill="#7EA2B8" transform="translate(367,199)"/>
<path d="M0 0 C0.33 0 0.66 0 1 0 C1.33 3.96 1.66 7.92 2 12 C0.68 12 -0.64 12 -2 12 C-2.33 9.36 -2.66 6.72 -3 4 C-2.01 4 -1.02 4 0 4 C0 2.68 0 1.36 0 0 Z " fill="#7A9DB2" transform="translate(456,473)"/>
<path d="M0 0 C2.59 2.59 2.37 4.03 2.62 7.62 C2.7 8.63 2.77 9.63 2.85 10.66 C2.93 11.82 2.93 11.82 3 13 C2.67 12.01 2.34 11.02 2 10 C-0.02 9.27 -0.02 9.27 -2 9 C-2 6.36 -2 3.72 -2 1 C-1.34 0.67 -0.68 0.34 0 0 Z " fill="#82A8BF" transform="translate(426,415)"/>
<path d="M0 0 C0.33 0 0.66 0 1 0 C1.33 3.96 1.66 7.92 2 12 C0.68 12.33 -0.64 12.66 -2 13 C-2.33 10.03 -2.66 7.06 -3 4 C-2.01 4.33 -1.02 4.66 0 5 C0 3.35 0 1.7 0 0 Z " fill="#7FA4BA" transform="translate(408,210)"/>
<path d="M0 0 C2 2 2 2 2.2 3.95 C2.13 5.96 2.07 7.98 2 10 C0.68 9.67 -0.64 9.34 -2 9 C-2.33 6.69 -2.66 4.38 -3 2 C-2.01 1.34 -1.02 0.68 0 0 Z " fill="#7FA4BB" transform="translate(387,251)"/>
<path d="M0 0 C2.48 0.5 2.48 0.5 5 1 C4.67 3.31 4.34 5.62 4 8 C3.01 8 2.02 8 1 8 C-0.35 5.29 -0.07 2.99 0 0 Z " fill="#83A9C0" transform="translate(361,443)"/>
<path d="M0 0 C2 2 2 2 2.12 5.62 C2.08 6.74 2.04 7.85 2 9 C1.01 9.33 0.02 9.66 -1 10 C-3.12 4.38 -3.12 4.38 -2 1 C-1.34 0.67 -0.68 0.34 0 0 Z " fill="#80A5BC" transform="translate(411,310)"/>
<path d="M0 0 C1.32 0.33 2.64 0.66 4 1 C5.12 6.75 5.12 6.75 4 9 C2.68 8.67 1.36 8.34 0 8 C0 5.36 0 2.72 0 0 Z " fill="#84AAC1" transform="translate(390,297)"/>
<path d="M0 0 C2.48 0.5 2.48 0.5 5 1 C4.67 3.31 4.34 5.62 4 8 C3.01 8 2.02 8 1 8 C-0.35 5.29 -0.07 2.99 0 0 Z " fill="#83A9C0" transform="translate(354,276)"/>
<path d="M0 0 C0.66 0 1.32 0 2 0 C3.16 3.47 3.07 6.36 3 10 C1.68 9.67 0.36 9.34 -1 9 C-1.1 2.85 -1.1 2.85 -1 1 C-0.67 0.67 -0.34 0.34 0 0 Z " fill="#8AB1C9" transform="translate(398,127)"/>
<path d="M0 0 C1.32 0.33 2.64 0.66 4 1 C4.33 3.31 4.66 5.62 5 8 C3.35 8 1.7 8 0 8 C0 5.36 0 2.72 0 0 Z " fill="#83AAC1" transform="translate(397,357)"/>
<path d="M0 0 C0.99 0 1.98 0 3 0 C3 2.64 3 5.28 3 8 C1.68 7.67 0.36 7.34 -1 7 C-1.04 5 -1.04 3 -1 1 C-0.67 0.67 -0.34 0.34 0 0 Z " fill="#8AB2CA" transform="translate(411,319)"/>
<path d="M0 0 C1.32 0.33 2.64 0.66 4 1 C4 2.98 4 4.96 4 7 C2.68 7 1.36 7 0 7 C0 4.69 0 2.38 0 0 Z " fill="#89B0C8" transform="translate(433,477)"/>
<path d="M0 0 C0 1.98 0 3.96 0 6 C-1.32 6.33 -2.64 6.66 -4 7 C-4.33 5.02 -4.66 3.04 -5 1 C-3 0 -3 0 0 0 Z " fill="#8BB3CB" transform="translate(412,304)"/>
<path d="M0 0 C1.32 0.33 2.64 0.66 4 1 C4 2.98 4 4.96 4 7 C2.68 6.67 1.36 6.34 0 6 C0 4.02 0 2.04 0 0 Z " fill="#89B0C9" transform="translate(412,480)"/>
<path d="M0 0 C0.66 0 1.32 0 2 0 C2 2.31 2 4.62 2 7 C1.34 7 0.68 7 0 7 C0 8.98 0 10.96 0 13 C-0.33 13 -0.66 13 -1 13 C-1.03 11.02 -1.05 9.04 -1.06 7.06 C-1.07 5.96 -1.09 4.86 -1.1 3.72 C-1 1 -1 1 0 0 Z " fill="#84ABC2" transform="translate(423,299)"/>
<path d="M0 0 C-0.33 0.99 -0.66 1.98 -1 3 C-3.31 3 -5.62 3 -8 3 C-7.67 2.01 -7.34 1.02 -7 0 C-4.33 -1.33 -2.83 -0.67 0 0 Z " fill="#242423" transform="translate(353,135)"/>
<path d="M0 0 C0.99 0 1.98 0 3 0 C4.12 5.75 4.12 5.75 3 8 C2.01 8 1.02 8 0 8 C0 5.36 0 2.72 0 0 Z " fill="#8EB7D0" transform="translate(368,191)"/>
<path d="M0 0 C1.32 0 2.64 0 4 0 C3.67 0.99 3.34 1.98 3 3 C2.34 3 1.68 3 1 3 C1 7.62 1 12.24 1 17 C0.67 17 0.34 17 0 17 C0 11.39 0 5.78 0 0 Z " fill="#6E8C9E" transform="translate(349,144)"/>
<path d="M0 0 C0.99 0 1.98 0 3 0 C3 2.64 3 5.28 3 8 C2.01 8 1.02 8 0 8 C0 5.36 0 2.72 0 0 Z " fill="#91BBD5" transform="translate(359,381)"/>
<path d="M0 0 C0.99 0 1.98 0 3 0 C3 2.64 3 5.28 3 8 C2.01 8 1.02 8 0 8 C0 5.36 0 2.72 0 0 Z " fill="#8EB7D0" transform="translate(381,372)"/>
<path d="M0 0 C0.99 0 1.98 0 3 0 C3 2.64 3 5.28 3 8 C2.01 8 1.02 8 0 8 C0 5.36 0 2.72 0 0 Z " fill="#94BFD8" transform="translate(359,367)"/>
<path d="M0 0 C1.32 0 2.64 0 4 0 C4 1.98 4 3.96 4 6 C2.68 6 1.36 6 0 6 C0 4.02 0 2.04 0 0 Z " fill="#90BAD3" transform="translate(378,328)"/>
<path d="M0 0 C1.32 0 2.64 0 4 0 C4 1.98 4 3.96 4 6 C2.68 6 1.36 6 0 6 C0 4.02 0 2.04 0 0 Z " fill="#90BAD3" transform="translate(342,317)"/>
<path d="M0 0 C1.32 0 2.64 0 4 0 C4 1.98 4 3.96 4 6 C2.68 6 1.36 6 0 6 C0 4.02 0 2.04 0 0 Z " fill="#91BBD4" transform="translate(391,306)"/>
<path d="M0 0 C1.56 1.25 1.56 1.25 3 3 C2.69 5.19 2.69 5.19 2 7 C1.01 7 0.02 7 -1 7 C-1.33 5.02 -1.66 3.04 -2 1 C-1.34 0.67 -0.68 0.34 0 0 Z " fill="#90B9D3" transform="translate(385,245)"/>
<path d="M0 0 C0.99 0 1.98 0 3 0 C3 2.64 3 5.28 3 8 C2.01 8 1.02 8 0 8 C0 5.36 0 2.72 0 0 Z " fill="#8FB8D1" transform="translate(371,229)"/>
<path d="M0 0 C0.99 0 1.98 0 3 0 C3 2.64 3 5.28 3 8 C2.01 8 1.02 8 0 8 C0 5.36 0 2.72 0 0 Z " fill="#8EB7D0" transform="translate(367,176)"/>
<path d="M0 0 C0.66 0.33 1.32 0.66 2 1 C2 2.98 2 4.96 2 7 C1.01 7 0.02 7 -1 7 C-1.33 5.02 -1.66 3.04 -2 1 C-1.34 0.67 -0.68 0.34 0 0 Z " fill="#93BDD6" transform="translate(364,473)"/>
<path d="M0 0 C0.66 0.33 1.32 0.66 2 1 C2 2.98 2 4.96 2 7 C0.68 6.67 -0.64 6.34 -2 6 C-2 4.35 -2 2.7 -2 1 C-1.34 0.67 -0.68 0.34 0 0 Z " fill="#8EB7D0" transform="translate(343,362)"/>
<path d="M0 0 C0.66 0.33 1.32 0.66 2 1 C2 2.98 2 4.96 2 7 C1.01 7 0.02 7 -1 7 C-1.33 5.02 -1.66 3.04 -2 1 C-1.34 0.67 -0.68 0.34 0 0 Z " fill="#92BCD6" transform="translate(395,328)"/>
<path d="M0 0 C1.32 0.33 2.64 0.66 4 1 C4 2.65 4 4.3 4 6 C2.68 6 1.36 6 0 6 C0 4.02 0 2.04 0 0 Z " fill="#91BBD5" transform="translate(377,313)"/>
<path d="M0 0 C0.66 0.33 1.32 0.66 2 1 C2 2.98 2 4.96 2 7 C1.01 7 0.02 7 -1 7 C-1.33 5.02 -1.66 3.04 -2 1 C-1.34 0.67 -0.68 0.34 0 0 Z " fill="#93BDD7" transform="translate(357,306)"/>
<path d="M0 0 C0.66 0.33 1.32 0.66 2 1 C2 2.98 2 4.96 2 7 C1.01 7 0.02 7 -1 7 C-1.33 5.02 -1.66 3.04 -2 1 C-1.34 0.67 -0.68 0.34 0 0 Z " fill="#92BCD6" transform="translate(387,260)"/>
<path d="M0 0 C1.32 0 2.64 0 4 0 C4.12 2.88 4.12 2.88 4 6 C3.34 6.66 2.68 7.32 2 8 C0.74 5.09 0 3.2 0 0 Z " fill="#94BFD9" transform="translate(375,170)"/>
<path d="M0 0 C0.99 0 1.98 0 3 0 C3 2.31 3 4.62 3 7 C2.01 7 1.02 7 0 7 C0 4.69 0 2.38 0 0 Z " fill="#95C0DA" transform="translate(360,404)"/>
<path d="M0 0 C0.99 0 1.98 0 3 0 C3.66 1.98 4.32 3.96 5 6 C3.35 6 1.7 6 0 6 C0 4.02 0 2.04 0 0 Z " fill="#8FB9D3" transform="translate(380,351)"/>
<path d="M0 0 C0.99 0 1.98 0 3 0 C3.33 1.98 3.66 3.96 4 6 C2.68 6 1.36 6 0 6 C0 4.02 0 2.04 0 0 Z " fill="#92BCD6" transform="translate(357,322)"/>
<path d="M0 0 C1.32 0.33 2.64 0.66 4 1 C4 2.65 4 4.3 4 6 C2.68 6 1.36 6 0 6 C0 4.02 0 2.04 0 0 Z " fill="#8DB5CE" transform="translate(342,294)"/>
<path d="M0 0 C1.32 0 2.64 0 4 0 C4 1.98 4 3.96 4 6 C3.01 6 2.02 6 1 6 C0.67 4.02 0.34 2.04 0 0 Z " fill="#94BFD8" transform="translate(374,290)"/>
<path d="M0 0 C0.99 0 1.98 0 3 0 C3.33 1.98 3.66 3.96 4 6 C3.01 6.33 2.02 6.66 1 7 C0 6 0 6 -0.06 2.94 C-0.04 1.97 -0.02 1 0 0 Z " fill="#95C0DA" transform="translate(389,283)"/>
<path d="M0 0 C0.99 0 1.98 0 3 0 C3.33 1.98 3.66 3.96 4 6 C2.68 6 1.36 6 0 6 C-0.38 4.34 -0.71 2.68 -1 1 C-0.67 0.67 -0.34 0.34 0 0 Z " fill="#90BAD4" transform="translate(398,229)"/>
<path d="M0 0 C0.99 0 1.98 0 3 0 C3.33 1.98 3.66 3.96 4 6 C3.01 6.33 2.02 6.66 1 7 C0 6 0 6 -0.06 2.94 C-0.04 1.97 -0.02 1 0 0 Z " fill="#95C0DA" transform="translate(381,215)"/>
<path d="M0 0 C0.33 0 0.66 0 1 0 C1.33 2.97 1.66 5.94 2 9 C1.67 8.01 1.34 7.02 1 6 C0.34 6 -0.32 6 -1 6 C-1 7.65 -1 9.3 -1 11 C-1.12 10.36 -1.25 9.72 -1.38 9.06 C-1.58 8.38 -1.79 7.7 -2 7 C-2.66 6.67 -3.32 6.34 -4 6 C-2.68 5.34 -1.36 4.68 0 4 C0 2.68 0 1.36 0 0 Z " fill="#6F8FA4" transform="translate(412,185)"/>
<path d="M0 0 C0.99 0 1.98 0 3 0 C3 2.31 3 4.62 3 7 C2.01 7 1.02 7 0 7 C0 4.69 0 2.38 0 0 Z " fill="#9CC9E4" transform="translate(431,462)"/>
<path d="M0 0 C0.99 0 1.98 0 3 0 C3 2.31 3 4.62 3 7 C2.01 7 1.02 7 0 7 C0 4.69 0 2.38 0 0 Z " fill="#98C4DE" transform="translate(443,418)"/>
<path d="M0 0 C0.99 0 1.98 0 3 0 C3.33 1.98 3.66 3.96 4 6 C2.68 6 1.36 6 0 6 C0 4.02 0 2.04 0 0 Z " fill="#94BED8" transform="translate(458,413)"/>
<path d="M0 0 C0.99 0 1.98 0 3 0 C3.33 1.98 3.66 3.96 4 6 C2.68 6 1.36 6 0 6 C0 4.02 0 2.04 0 0 Z " fill="#95C0D9" transform="translate(384,404)"/>
<path d="M0 0 C0.99 0 1.98 0 3 0 C3 2.31 3 4.62 3 7 C2.01 7 1.02 7 0 7 C0 4.69 0 2.38 0 0 Z " fill="#9AC6E1" transform="translate(438,388)"/>
<path d="M0 0 C0.99 0.33 1.98 0.66 3 1 C3.33 2.65 3.66 4.3 4 6 C2.68 6.33 1.36 6.66 0 7 C0 4.69 0 2.38 0 0 Z " fill="#96C2DC" transform="translate(358,344)"/>
<path d="M0 0 C0 2.31 0 4.62 0 7 C-0.99 7 -1.98 7 -3 7 C-3.33 5.02 -3.66 3.04 -4 1 C-2 0 -2 0 0 0 Z " fill="#95C0DA" transform="translate(395,313)"/>
<path d="M0 0 C0.33 0 0.66 0 1 0 C1.19 4.82 0.76 8.5 -1 13 C-2.76 9.91 -3 8.77 -3 5 C-2.01 5 -1.02 5 0 5 C0 3.35 0 1.7 0 0 Z " fill="#7293A8" transform="translate(423,292)"/>
<path d="M0 0 C0.99 0 1.98 0 3 0 C3 2.31 3 4.62 3 7 C2.01 7 1.02 7 0 7 C0 4.69 0 2.38 0 0 Z " fill="#9CC9E4" transform="translate(404,274)"/>
<path d="M0 0 C0.99 0 1.98 0 3 0 C3 2.31 3 4.62 3 7 C2.01 7 1.02 7 0 7 C0 4.69 0 2.38 0 0 Z " fill="#95C0DA" transform="translate(353,237)"/>
<path d="M0 0 C0.99 0 1.98 0 3 0 C3 2.31 3 4.62 3 7 C2.01 7 1.02 7 0 7 C0 4.69 0 2.38 0 0 Z " fill="#9AC7E1" transform="translate(409,231)"/>
<path d="M0 0 C0.66 0.33 1.32 0.66 2 1 C2 2.98 2 4.96 2 7 C1.01 7 0.02 7 -1 7 C-1.33 5.02 -1.66 3.04 -2 1 C-1.34 0.67 -0.68 0.34 0 0 Z " fill="#95C0DA" transform="translate(395,206)"/>
<path d="M0 0 C0.99 0 1.98 0 3 0 C3 2.31 3 4.62 3 7 C2.01 7 1.02 7 0 7 C0 4.69 0 2.38 0 0 Z " fill="#9BC8E3" transform="translate(388,161)"/>
<path d="M0 0 C0.99 0 1.98 0 3 0 C3 2.31 3 4.62 3 7 C2.01 7 1.02 7 0 7 C0 4.69 0 2.38 0 0 Z " fill="#99C6E1" transform="translate(401,145)"/>
<path d="M0 0 C1.21 0.03 1.21 0.03 2.44 0.06 C1.78 1.71 1.12 3.36 0.44 5.06 C-0.55 5.06 -1.54 5.06 -2.56 5.06 C-3.12 3.12 -3.12 3.12 -3.56 1.06 C-2.56 0.06 -2.56 0.06 0 0 Z " fill="#7999AD" transform="translate(343.5625,144.9375)"/>
<path d="M0 0 C0.66 0 1.32 0 2 0 C2 2.31 2 4.62 2 7 C1.01 7 0.02 7 -1 7 C-1.04 5 -1.04 3 -1 1 C-0.67 0.67 -0.34 0.34 0 0 Z " fill="#99C5DF" transform="translate(389,464)"/>
<path d="M0 0 C0.99 0 1.98 0 3 0 C3 1.98 3 3.96 3 6 C2.01 6.33 1.02 6.66 0 7 C0 4.69 0 2.38 0 0 Z " fill="#9BC9E3" transform="translate(429,447)"/>
<path d="M0 0 C0.66 0 1.32 0 2 0 C2 2.31 2 4.62 2 7 C1.01 7 0.02 7 -1 7 C-1.04 5 -1.04 3 -1 1 C-0.67 0.67 -0.34 0.34 0 0 Z " fill="#99C6E0" transform="translate(385,411)"/>
<path d="M0 0 C0.66 0 1.32 0 2 0 C2 2.31 2 4.62 2 7 C1.01 7 0.02 7 -1 7 C-1.04 5 -1.04 3 -1 1 C-0.67 0.67 -0.34 0.34 0 0 Z " fill="#9BC8E3" transform="translate(436,373)"/>
<path d="M0 0 C0.99 0 1.98 0 3 0 C3 1.65 3 3.3 3 5 C2.01 5.33 1.02 5.66 0 6 C-0.38 4.34 -0.71 2.68 -1 1 C-0.67 0.67 -0.34 0.34 0 0 Z " fill="#91BBD4" transform="translate(343,310)"/>
<path d="M0 0 C0.66 0 1.32 0 2 0 C2 2.31 2 4.62 2 7 C1.01 7 0.02 7 -1 7 C-1.04 5 -1.04 3 -1 1 C-0.67 0.67 -0.34 0.34 0 0 Z " fill="#98C4DE" transform="translate(374,267)"/>
<path d="M0 0 C0.66 0 1.32 0 2 0 C2 2.31 2 4.62 2 7 C1.01 7 0.02 7 -1 7 C-1.04 5 -1.04 3 -1 1 C-0.67 0.67 -0.34 0.34 0 0 Z " fill="#9AC6E1" transform="translate(424,249)"/>
<path d="M0 0 C0.99 0 1.98 0 3 0 C3 1.98 3 3.96 3 6 C2.01 6.33 1.02 6.66 0 7 C0 4.69 0 2.38 0 0 Z " fill="#9BC8E3" transform="translate(412,246)"/>
<path d="M0 0 C0.99 0 1.98 0 3 0 C3.33 1.65 3.66 3.3 4 5 C2.68 5.33 1.36 5.66 0 6 C0 4.02 0 2.04 0 0 Z " fill="#95C0DA" transform="translate(372,245)"/>
<path d="M0 0 C0.66 0 1.32 0 2 0 C2 2.31 2 4.62 2 7 C1.01 7 0.02 7 -1 7 C-1.04 5 -1.04 3 -1 1 C-0.67 0.67 -0.34 0.34 0 0 Z " fill="#98C3DE" transform="translate(370,214)"/>
<path d="M0 0 C0.99 0 1.98 0 3 0 C3 2.31 3 4.62 3 7 C2.01 6.67 1.02 6.34 0 6 C0 4.02 0 2.04 0 0 Z " fill="#9CC9E4" transform="translate(415,212)"/>
<path d="M0 0 C0 1.98 0 3.96 0 6 C-0.99 6 -1.98 6 -3 6 C-3.33 4.35 -3.66 2.7 -4 1 C-2 0 -2 0 0 0 Z " fill="#94BFDA" transform="translate(344,180)"/>
<path d="M0 0 C0.66 0 1.32 0 2 0 C2 2.31 2 4.62 2 7 C1.01 7 0.02 7 -1 7 C-1.04 5 -1.04 3 -1 1 C-0.67 0.67 -0.34 0.34 0 0 Z " fill="#9CCAE5" transform="translate(391,176)"/>
<path d="M0 0 C0.99 0 1.98 0 3 0 C3 1.98 3 3.96 3 6 C2.01 6.33 1.02 6.66 0 7 C0 4.69 0 2.38 0 0 Z " fill="#9CCAE5" transform="translate(373,147)"/>
<path d="M0 0 C0.99 0 1.98 0 3 0 C3 1.98 3 3.96 3 6 C2.01 6.33 1.02 6.66 0 7 C0 4.69 0 2.38 0 0 Z " fill="#9AC7E2" transform="translate(386,146)"/>
<path d="M0 0 C0.33 0 0.66 0 1 0 C1.33 2.97 1.66 5.94 2 9 C1.67 8.01 1.34 7.02 1 6 C0.34 6 -0.32 6 -1 6 C-1 6.66 -1 7.32 -1 8 C-1.99 7.67 -2.98 7.34 -4 7 C-3.34 6.01 -2.68 5.02 -2 4 C-1.34 4 -0.68 4 0 4 C0 2.68 0 1.36 0 0 Z " fill="#6D8CA1" transform="translate(401,133)"/>
<path d="M0 0 C0.33 1.98 0.66 3.96 1 6 C-1.48 5.01 -1.48 5.01 -4 4 C-4 3.01 -4 2.02 -4 1 C-2 0 -2 0 0 0 Z " fill="#7D9FB4" transform="translate(387,134)"/>
<path d="M0 0 C3.12 -0.19 3.12 -0.19 6 0 C5.67 0.99 5.34 1.98 5 3 C2.69 3 0.38 3 -2 3 C-1.34 2.01 -0.68 1.02 0 0 Z " fill="#0A0A0A" transform="translate(385,123)"/>
<path d="M0 0 C0.99 0 1.98 0 3 0 C3 2.31 3 4.62 3 7 C2.01 6.67 1.02 6.34 0 6 C0 4.02 0 2.04 0 0 Z " fill="#9ECCE7" transform="translate(410,464)"/>
<path d="M0 0 C0.99 0.33 1.98 0.66 3 1 C3 2.65 3 4.3 3 6 C2.01 6.33 1.02 6.66 0 7 C0 4.69 0 2.38 0 0 Z " fill="#9FCDE8" transform="translate(343,461)"/>
<path d="M0 0 C0.99 0 1.98 0 3 0 C3.33 1.65 3.66 3.3 4 5 C2.68 5.33 1.36 5.66 0 6 C0 4.02 0 2.04 0 0 Z " fill="#98C4DF" transform="translate(387,442)"/>
<path d="M0 0 C0.66 0.33 1.32 0.66 2 1 C2 2.98 2 4.96 2 7 C1.01 7 0.02 7 -1 7 C-1.04 5 -1.04 3 -1 1 C-0.67 0.67 -0.34 0.34 0 0 Z " fill="#A0CFEA" transform="translate(405,411)"/>
<path d="M0 0 C0.66 0.33 1.32 0.66 2 1 C2 2.98 2 4.96 2 7 C1.01 7 0.02 7 -1 7 C-1.04 5 -1.04 3 -1 1 C-0.67 0.67 -0.34 0.34 0 0 Z " fill="#9FCDE8" transform="translate(403,396)"/>
<path d="M0 0 C0.66 0 1.32 0 2 0 C2 2.31 2 4.62 2 7 C1.01 6.67 0.02 6.34 -1 6 C-1.04 4.33 -1.04 2.67 -1 1 C-0.67 0.67 -0.34 0.34 0 0 Z " fill="#9ECCE7" transform="translate(343,385)"/>
<path d="M0 0 C2.06 0.44 2.06 0.44 4 1 C4 2.98 4 4.96 4 7 C3.67 7 3.34 7 3 7 C3 5.35 3 3.7 3 2 C0.49 3.26 0.13 4.5 -1 7 C-1.04 5 -1.04 3 -1 1 C-0.67 0.67 -0.34 0.34 0 0 Z " fill="#69879B" transform="translate(342,331)"/>
<path d="M0 0 C0.99 0 1.98 0 3 0 C3 2.31 3 4.62 3 7 C2.01 6.67 1.02 6.34 0 6 C0 4.02 0 2.04 0 0 Z " fill="#9ECBE6" transform="translate(406,289)"/>
<path d="M0 0 C0.99 0.33 1.98 0.66 3 1 C3 2.65 3 4.3 3 6 C2.01 6.33 1.02 6.66 0 7 C0 4.69 0 2.38 0 0 Z " fill="#A1D0EC" transform="translate(342,286)"/>
<path d="M0 0 C0.99 0 1.98 0 3 0 C3 1.98 3 3.96 3 6 C2.01 6 1.02 6 0 6 C0 4.02 0 2.04 0 0 Z " fill="#9FCDE8" transform="translate(402,259)"/>
<path d="M0 0 C0.66 0.33 1.32 0.66 2 1 C2 2.98 2 4.96 2 7 C1.01 7 0.02 7 -1 7 C-1.04 5 -1.04 3 -1 1 C-0.67 0.67 -0.34 0.34 0 0 Z " fill="#9ECCE8" transform="translate(393,191)"/>
<path d="M0 0 C0 1.65 0 3.3 0 5 C-1.94 4.69 -1.94 4.69 -4 4 C-4.33 3.01 -4.66 2.02 -5 1 C-3 0 -3 0 0 0 Z " fill="#80A4BA" transform="translate(367,141)"/>
<path d="M0 0 C1.98 0 3.96 0 6 0 C5.67 0.99 5.34 1.98 5 3 C3.02 3 1.04 3 -1 3 C-0.67 2.01 -0.34 1.02 0 0 Z " fill="#050505" transform="translate(368,130)"/>
<path d="M0 0 C0.99 0 1.98 0 3 0 C3 1.98 3 3.96 3 6 C2.01 6 1.02 6 0 6 C0 4.02 0 2.04 0 0 Z " fill="#A0CEEA" transform="translate(343,469)"/>
<path d="M0 0 C0.99 0 1.98 0 3 0 C3 1.98 3 3.96 3 6 C2.01 6 1.02 6 0 6 C0 4.02 0 2.04 0 0 Z " fill="#97C3DD" transform="translate(407,442)"/>
<path d="M0 0 C0.99 0 1.98 0 3 0 C3 1.98 3 3.96 3 6 C2.01 6 1.02 6 0 6 C0 4.02 0 2.04 0 0 Z " fill="#9ECCE8" transform="translate(446,433)"/>
<path d="M0 0 C0.99 0 1.98 0 3 0 C3 1.98 3 3.96 3 6 C2.01 6 1.02 6 0 6 C0 4.02 0 2.04 0 0 Z " fill="#9CCAE5" transform="translate(422,402)"/>
<path d="M0 0 C0.99 0 1.98 0 3 0 C3 1.98 3 3.96 3 6 C2.01 6 1.02 6 0 6 C0 4.02 0 2.04 0 0 Z " fill="#9CCAE5" transform="translate(342,393)"/>
<path d="M0 0 C0.33 0 0.66 0 1 0 C1.19 4.82 0.76 8.5 -1 13 C-2.06 11.19 -2.06 11.19 -3 9 C-2.67 8.01 -2.34 7.02 -2 6 C-1.34 6 -0.68 6 0 6 C0 4.02 0 2.04 0 0 Z " fill="#6E8DA2" transform="translate(438,374)"/>
<path d="M0 0 C0.99 0 1.98 0 3 0 C3 1.98 3 3.96 3 6 C2.01 6 1.02 6 0 6 C0 4.02 0 2.04 0 0 Z " fill="#A0CEEA" transform="translate(342,378)"/>
<path d="M0 0 C0.99 0 1.98 0 3 0 C3 1.98 3 3.96 3 6 C2.01 6 1.02 6 0 6 C0 4.02 0 2.04 0 0 Z " fill="#98C4DE" transform="translate(399,374)"/>
<path d="M0 0 C0.99 0 1.98 0 3 0 C3 1.98 3 3.96 3 6 C2.01 6 1.02 6 0 6 C0 4.02 0 2.04 0 0 Z " fill="#9DCAE6" transform="translate(445,354)"/>
<path d="M0 0 C0.99 0 1.98 0 3 0 C3 1.98 3 3.96 3 6 C2.01 6 1.02 6 0 6 C0 4.02 0 2.04 0 0 Z " fill="#A2D2ED" transform="translate(358,352)"/>
<path d="M0 0 C0.99 0 1.98 0 3 0 C3 1.98 3 3.96 3 6 C2.01 6 1.02 6 0 6 C0 4.02 0 2.04 0 0 Z " fill="#A0CEE9" transform="translate(431,351)"/>
<path d="M0 0 C0.99 0 1.98 0 3 0 C3 1.98 3 3.96 3 6 C2.01 6 1.02 6 0 6 C0 4.02 0 2.04 0 0 Z " fill="#A1D0EC" transform="translate(396,344)"/>
<path d="M0 0 C0.99 0 1.98 0 3 0 C3 1.98 3 3.96 3 6 C2.01 6 1.02 6 0 6 C0 4.02 0 2.04 0 0 Z " fill="#9ECCE7" transform="translate(424,314)"/>
<path d="M0 0 C0.99 0 1.98 0 3 0 C3 1.98 3 3.96 3 6 C2.01 6 1.02 6 0 6 C0 4.02 0 2.04 0 0 Z " fill="#9ECBE6" transform="translate(434,302)"/>
<path d="M0 0 C0.99 0 1.98 0 3 0 C3 1.98 3 3.96 3 6 C2.01 6 1.02 6 0 6 C0 4.02 0 2.04 0 0 Z " fill="#9FCDE8" transform="translate(420,291)"/>
<path d="M0 0 C0.99 0 1.98 0 3 0 C3 1.98 3 3.96 3 6 C2.01 6 1.02 6 0 6 C0 4.02 0 2.04 0 0 Z " fill="#97C3DD" transform="translate(384,238)"/>
<path d="M0 0 C0.66 0 1.32 0 2 0 C2 0.99 2 1.98 2 3 C2.66 3 3.32 3 4 3 C4 3.99 4 4.98 4 6 C2.68 6 1.36 6 0 6 C0 4.02 0 2.04 0 0 Z " fill="#93BED8" transform="translate(399,237)"/>
<path d="M0 0 C0.99 0 1.98 0 3 0 C3 1.98 3 3.96 3 6 C2.01 6 1.02 6 0 6 C0 4.02 0 2.04 0 0 Z " fill="#9DCBE6" transform="translate(353,223)"/>
<path d="M0 0 C0.99 0 1.98 0 3 0 C3 1.98 3 3.96 3 6 C2.01 6 1.02 6 0 6 C0 4.02 0 2.04 0 0 Z " fill="#9CCAE5" transform="translate(341,203)"/>
<path d="M0 0 C0.99 0 1.98 0 3 0 C3 1.98 3 3.96 3 6 C2.01 6 1.02 6 0 6 C0 4.02 0 2.04 0 0 Z " fill="#A0CFEA" transform="translate(341,188)"/>
<path d="M0 0 C0.99 0 1.98 0 3 0 C3 1.98 3 3.96 3 6 C2.01 6 1.02 6 0 6 C0 4.02 0 2.04 0 0 Z " fill="#98C5DF" transform="translate(350,170)"/>
<path d="M0 0 C0.99 0 1.98 0 3 0 C3 1.98 3 3.96 3 6 C2.01 6 1.02 6 0 6 C0 4.02 0 2.04 0 0 Z " fill="#9ECCE8" transform="translate(397,164)"/>
<path d="M0 0 C0.99 0.33 1.98 0.66 3 1 C3 2.65 3 4.3 3 6 C2.01 6 1.02 6 0 6 C0 4.02 0 2.04 0 0 Z " fill="#A1D0EB" transform="translate(453,471)"/>
<path d="M0 0 C0.99 0 1.98 0 3 0 C3 1.98 3 3.96 3 6 C2.01 5.67 1.02 5.34 0 5 C0 3.35 0 1.7 0 0 Z " fill="#A2D0ED" transform="translate(450,456)"/>
<path d="M0 0 C0.66 0 1.32 0 2 0 C2 1.98 2 3.96 2 6 C1.01 6 0.02 6 -1 6 C-1.04 4.33 -1.04 2.67 -1 1 C-0.67 0.67 -0.34 0.34 0 0 Z " fill="#97C2DD" transform="translate(409,450)"/>
<path d="M0 0 C0.99 0.33 1.98 0.66 3 1 C3 2.65 3 4.3 3 6 C2.01 6 1.02 6 0 6 C0 4.02 0 2.04 0 0 Z " fill="#A1D0EC" transform="translate(461,428)"/>
<path d="M0 0 C0.99 0.33 1.98 0.66 3 1 C3 2.65 3 4.3 3 6 C2.01 6 1.02 6 0 6 C0 4.02 0 2.04 0 0 Z " fill="#A0CEEA" transform="translate(453,391)"/>
<path d="M0 0 C0.66 0 1.32 0 2 0 C2 1.98 2 3.96 2 6 C1.01 6 0.02 6 -1 6 C-1.04 4.33 -1.04 2.67 -1 1 C-0.67 0.67 -0.34 0.34 0 0 Z " fill="#98C4DF" transform="translate(401,382)"/>
<path d="M0 0 C0.99 0 1.98 0 3 0 C3 1.98 3 3.96 3 6 C2.01 5.67 1.02 5.34 0 5 C0 3.35 0 1.7 0 0 Z " fill="#A3D2EE" transform="translate(419,380)"/>
<path d="M0 0 C0.99 0.33 1.98 0.66 3 1 C3 2.65 3 4.3 3 6 C2.01 6 1.02 6 0 6 C0 4.02 0 2.04 0 0 Z " fill="#A1CFEB" transform="translate(450,376)"/>
<path d="M0 0 C0.99 0.33 1.98 0.66 3 1 C3 2.65 3 4.3 3 6 C2.01 6 1.02 6 0 6 C0 4.02 0 2.04 0 0 Z " fill="#A2D0EC" transform="translate(417,365)"/>
<path d="M0 0 C0.66 0 1.32 0 2 0 C2 1.98 2 3.96 2 6 C1.01 6 0.02 6 -1 6 C-1.04 4.33 -1.04 2.67 -1 1 C-0.67 0.67 -0.34 0.34 0 0 Z " fill="#99C5DF" transform="translate(381,359)"/>
<path d="M0 0 C0.99 0.33 1.98 0.66 3 1 C3 2.65 3 4.3 3 6 C2.01 6 1.02 6 0 6 C0 4.02 0 2.04 0 0 Z " fill="#A0CFEA" transform="translate(415,350)"/>
<path d="M0 0 C0.99 0.33 1.98 0.66 3 1 C3 2.65 3 4.3 3 6 C2.01 6 1.02 6 0 6 C0 4.02 0 2.04 0 0 Z " fill="#A0CFEA" transform="translate(442,339)"/>
<path d="M0 0 C0.99 0.33 1.98 0.66 3 1 C3 2.65 3 4.3 3 6 C2.01 6 1.02 6 0 6 C0 4.02 0 2.04 0 0 Z " fill="#A1D0EB" transform="translate(439,324)"/>
<path d="M0 0 C0.99 0.33 1.98 0.66 3 1 C3 2.65 3 4.3 3 6 C2.01 6 1.02 6 0 6 C0 4.02 0 2.04 0 0 Z " fill="#A1CFEB" transform="translate(428,272)"/>
<path d="M0 0 C0.99 0.33 1.98 0.66 3 1 C3 2.65 3 4.3 3 6 C2.01 6 1.02 6 0 6 C0 4.02 0 2.04 0 0 Z " fill="#A1D0EC" transform="translate(416,269)"/>
<path d="M0 0 C0.99 0.33 1.98 0.66 3 1 C3 2.65 3 4.3 3 6 C2.01 6 1.02 6 0 6 C0 4.02 0 2.04 0 0 Z " fill="#A0CFEA" transform="translate(420,235)"/>
<path d="M0 0 C0.99 0.33 1.98 0.66 3 1 C3 2.65 3 4.3 3 6 C2.01 6 1.02 6 0 6 C0 4.02 0 2.04 0 0 Z " fill="#A0CFEB" transform="translate(417,220)"/>
<path d="M0 0 C0.99 0 1.98 0 3 0 C3 1.98 3 3.96 3 6 C2.01 5.67 1.02 5.34 0 5 C0 3.35 0 1.7 0 0 Z " fill="#A2D0EC" transform="translate(405,209)"/>
<path d="M0 0 C0.99 0.33 1.98 0.66 3 1 C3 2.65 3 4.3 3 6 C2.01 6 1.02 6 0 6 C0 4.02 0 2.04 0 0 Z " fill="#A3D2EE" transform="translate(379,200)"/>
<path d="M0 0 C0.99 0.33 1.98 0.66 3 1 C3 2.65 3 4.3 3 6 C2.01 6 1.02 6 0 6 C0 4.02 0 2.04 0 0 Z " fill="#A1CFEB" transform="translate(401,187)"/>
<path d="M0 0 C0.99 0.33 1.98 0.66 3 1 C3 2.65 3 4.3 3 6 C2.01 6 1.02 6 0 6 C0 4.02 0 2.04 0 0 Z " fill="#A0CFEA" transform="translate(409,183)"/>
<path d="M0 0 C0.99 0 1.98 0 3 0 C3 1.98 3 3.96 3 6 C2.01 5.67 1.02 5.34 0 5 C0 3.35 0 1.7 0 0 Z " fill="#9FCDE8" transform="translate(404,160)"/>
<path d="M0 0 C0.99 0 1.98 0 3 0 C3 1.98 3 3.96 3 6 C2.01 5.67 1.02 5.34 0 5 C0 3.35 0 1.7 0 0 Z " fill="#A1CFEB" transform="translate(394,149)"/>
<path d="" fill="#415267" transform="translate(0,0)"/>
<path d="" fill="#415267" transform="translate(0,0)"/>
<path d="" fill="#415267" transform="translate(0,0)"/>
</svg>
