<?xml version="1.0" standalone="no"?>
<!DOCTYPE svg PUBLIC "-//W3C//DTD SVG 20010904//EN"
 "http://www.w3.org/TR/2001/REC-SVG-20010904/DTD/svg10.dtd">
<svg version="1.0" xmlns="http://www.w3.org/2000/svg"
 width="500.000000pt" height="500.000000pt" viewBox="0 0 500.000000 500.000000"
 preserveAspectRatio="xMidYMid meet">

<g transform="translate(0.000000,500.000000) scale(0.100000,-0.100000)"
fill="#000000" stroke="none">
<path d="M3530 4473 c-209 -35 -390 -146 -475 -290 -24 -41 -42 -57 -85 -78
-190 -93 -486 -284 -678 -438 -239 -192 -452 -426 -568 -627 -31 -53 -53 -80
-69 -84 -13 -3 -35 -26 -52 -53 -157 -255 -209 -333 -283 -428 -184 -235 -340
-474 -463 -713 -146 -283 -201 -429 -278 -737 -91 -366 -171 -614 -249 -778
-32 -68 -34 -97 -5 -97 26 0 102 168 169 376 50 156 68 220 135 485 33 129 81
291 106 360 132 348 387 780 662 1119 2 2 15 -10 29 -28 14 -18 45 -42 67 -54
23 -11 43 -22 45 -23 2 -2 -26 -42 -62 -89 -150 -196 -310 -454 -427 -687
-136 -273 -204 -465 -275 -779 -55 -247 -100 -398 -160 -545 -58 -140 -61
-153 -39 -162 25 -9 37 11 94 156 61 154 108 318 162 561 47 214 104 393 184
576 155 354 423 779 629 994 45 47 115 122 155 168 41 45 80 82 87 82 16 0 54
48 54 69 0 9 31 36 68 61 220 148 406 333 547 545 52 77 120 169 151 204 54
59 220 201 236 201 4 0 8 -30 10 -67 l3 -67 66 -23 c177 -61 405 -55 679 16
184 47 413 190 512 318 22 29 51 83 65 120 l24 66 -37 55 c-107 162 -263 267
-456 306 -71 15 -217 19 -278 9z m305 -68 c33 -9 87 -28 120 -44 59 -28 190
-119 182 -128 -2 -2 -51 -10 -108 -19 -338 -49 -715 -191 -996 -375 l-33 -21
6 49 c10 74 52 212 82 267 59 109 158 193 287 242 145 55 319 66 460 29z m374
-396 c-50 -100 -196 -219 -366 -299 -178 -85 -464 -134 -647 -112 -53 7 -111
18 -128 25 l-32 13 50 30 c221 136 504 254 789 329 149 40 349 76 353 64 2 -4
-7 -27 -19 -50z m-1229 -12 c-10 -34 -21 -91 -25 -125 l-7 -62 -66 -46 c-62
-45 -67 -47 -91 -33 -29 15 -81 110 -81 145 0 17 15 32 58 57 44 28 222 126
228 127 1 0 -7 -28 -16 -63z m-1287 -1185 c29 -31 83 -59 132 -67 61 -11 73
-20 46 -35 -19 -10 -35 -8 -93 11 -107 34 -175 108 -136 147 10 10 14 8 21
-10 4 -13 18 -34 30 -46z m-2 -112 c23 -12 58 -28 76 -34 l34 -12 -109 -114
-108 -114 -56 27 c-38 19 -60 37 -71 59 -17 34 -25 17 110 232 l25 38 28 -30
c15 -17 47 -40 71 -52z"/>
<path d="M3864 3769 c-31 -11 -38 -27 -15 -34 21 -6 61 9 61 24 0 14 -23 19
-46 10z"/>
<path d="M3685 3695 c-17 -12 -18 -16 -6 -24 18 -12 56 2 56 20 0 20 -27 22
-50 4z"/>
<path d="M3473 3650 c-36 -15 -27 -32 15 -28 25 2 37 8 37 18 0 18 -22 22 -52
10z"/>
</g>
</svg>
