<?xml version="1.0" standalone="no"?>
<!DOCTYPE svg PUBLIC "-//W3C//DTD SVG 20010904//EN"
 "http://www.w3.org/TR/2001/REC-SVG-20010904/DTD/svg10.dtd">
<svg version="1.0" xmlns="http://www.w3.org/2000/svg"
 width="500.000000pt" height="500.000000pt" viewBox="0 0 500.000000 500.000000"
 preserveAspectRatio="xMidYMid meet">

<g transform="translate(0.000000,500.000000) scale(0.100000,-0.100000)"
fill="#000000" stroke="none">
<path d="M2846 4890 c-270 -43 -523 -185 -688 -387 -281 -342 -333 -792 -139
-1188 132 -269 368 -471 654 -560 87 -27 88 -28 85 -58 -2 -26 -8 -32 -33 -37
-60 -13 -94 -42 -255 -217 -91 -98 -229 -244 -308 -325 -143 -146 -144 -147
-362 -282 -120 -75 -226 -139 -234 -142 -17 -6 -44 40 -57 96 -4 19 -3 92 3
161 13 142 7 171 -44 214 -86 73 -220 14 -281 -124 -34 -76 -34 -208 -1 -294
4 -12 -8 -19 -53 -31 -88 -25 -173 -63 -224 -100 -94 -69 -114 -176 -49 -258
32 -40 33 -40 16 -74 -37 -79 -7 -176 69 -222 33 -20 45 -33 45 -52 1 -33 32
-100 56 -122 39 -35 96 -50 181 -50 117 1 186 25 243 84 114 118 155 180 180
271 l16 60 295 181 294 180 193 192 193 192 -7 -82 c-32 -411 -119 -1702 -115
-1708 3 -3 260 -10 570 -14 l564 -7 -7 64 c-15 162 -48 641 -43 645 3 3 36
-14 73 -37 189 -116 375 -181 524 -183 112 -1 157 12 212 62 76 68 83 112 42
242 -110 351 -398 834 -749 1260 -113 137 -375 394 -424 416 -33 14 -41 23
-41 44 0 25 6 29 74 48 110 32 279 122 373 197 188 150 315 350 380 593 23 86
26 116 26 262 0 145 -3 177 -26 261 -54 206 -149 373 -291 515 -201 201 -454
310 -741 319 -71 2 -157 0 -189 -5z m294 -191 c193 -31 357 -116 500 -259 190
-190 281 -424 267 -685 -18 -323 -195 -602 -479 -754 -520 -280 -1167 9 -1310
586 -31 125 -31 314 1 433 93 351 362 604 717 674 85 17 217 19 304 5z m-242
-2370 c32 -16 78 -63 183 -185 77 -90 143 -164 146 -164 3 0 3 21 -1 46 -11
85 33 144 109 144 64 0 67 -5 69 -121 1 -98 4 -112 49 -232 48 -130 75 -254
64 -298 -4 -17 -54 -61 -155 -137 -82 -62 -156 -112 -164 -112 -32 0 -119 69
-234 184 l-120 121 -17 78 c-24 108 -22 115 16 69 17 -23 40 -44 50 -47 25 -9
54 3 60 25 5 21 -6 39 -75 123 -68 82 -71 90 -54 132 8 19 19 35 25 35 5 0 41
-41 78 -90 39 -51 78 -93 91 -96 27 -8 52 11 52 40 0 12 -59 97 -131 191 -72
94 -135 181 -141 194 -16 43 13 121 45 121 6 0 30 -10 55 -21z m-1479 -248 c7
-13 7 -47 0 -107 -6 -49 -9 -123 -7 -165 5 -85 30 -139 100 -214 21 -23 38
-51 38 -61 0 -16 -2 -16 -16 4 -21 30 -66 52 -106 52 -35 0 -112 -31 -139 -56
-14 -13 -23 -11 -73 12 -32 14 -75 28 -96 31 -32 5 -40 2 -50 -16 -16 -31 -4
-57 33 -72 18 -6 65 -28 106 -47 49 -24 77 -32 86 -26 6 5 32 24 56 42 56 42
102 42 107 -1 5 -40 -33 -111 -81 -152 -37 -32 -46 -35 -103 -35 -80 0 -167
27 -255 80 -79 49 -99 71 -99 115 0 63 112 129 283 167 126 29 130 35 86 131
-26 56 -33 85 -33 132 1 106 61 205 126 205 17 0 31 -7 37 -19z m2229 -406
c55 -82 114 -177 130 -210 42 -83 84 -197 69 -188 -7 4 -34 21 -62 39 -27 17
-77 45 -110 62 -120 62 -116 55 -131 243 -16 200 -16 226 -5 214 4 -6 53 -77
109 -160z m-2099 -366 c21 -60 9 -130 -30 -182 -12 -15 -14 -9 -11 45 2 35 -1
74 -6 87 -6 18 -4 33 7 53 20 36 27 35 40 -3z m-498 -83 c123 -57 250 -71 327
-36 l42 19 0 -24 c0 -51 -52 -72 -200 -81 -179 -11 -292 46 -260 131 5 14 11
25 13 25 2 0 37 -15 78 -34z m374 -222 c-28 -43 -98 -68 -192 -68 -68 -1 -86
3 -110 20 -15 12 -30 29 -31 38 -3 14 2 16 30 11 43 -8 222 10 273 28 46 16
54 8 30 -29z"/>
<path d="M2570 3892 c-58 -26 -90 -73 -90 -132 0 -83 57 -140 138 -140 109 0
178 132 115 219 -36 48 -116 74 -163 53z"/>
<path d="M3321 3883 c-94 -46 -95 -199 -2 -248 63 -32 148 -9 187 51 11 16 18
45 18 73 0 107 -106 171 -203 124z"/>
<path d="M2649 3346 c-19 -9 -24 -19 -24 -51 0 -36 5 -43 56 -85 172 -138 359
-166 529 -80 69 34 145 96 165 134 18 32 18 36 2 60 -17 25 -33 31 -67 26 -8
-1 -37 -22 -65 -47 -76 -69 -144 -97 -235 -97 -88 0 -148 23 -245 96 -73 55
-86 59 -116 44z"/>
<path d="M1734 3424 c-299 -227 -584 -512 -751 -753 -2 -2 -31 23 -65 55 -72
68 -143 120 -179 129 -20 5 -45 -9 -134 -77 -131 -99 -137 -113 -68 -153 159
-92 314 -249 414 -418 28 -47 38 -57 58 -55 20 3 31 22 75 123 172 399 434
808 684 1066 48 50 63 72 60 90 -5 37 -39 35 -94 -7z m-346 -436 c-129 -190
-270 -444 -363 -653 l-25 -58 -45 63 c-59 85 -182 210 -278 281 l-78 58 62 46
c34 25 67 45 74 45 18 0 98 -65 170 -139 78 -80 92 -79 146 2 71 104 157 206
283 335 66 67 121 122 122 122 1 0 -29 -46 -68 -102z"/>
</g>
</svg>
