<?xml version="1.0" standalone="no"?>
<!DOCTYPE svg PUBLIC "-//W3C//DTD SVG 20010904//EN"
 "http://www.w3.org/TR/2001/REC-SVG-20010904/DTD/svg10.dtd">
<svg version="1.0" xmlns="http://www.w3.org/2000/svg"
 width="500.000000pt" height="500.000000pt" viewBox="0 0 500.000000 500.000000"
 preserveAspectRatio="xMidYMid meet">

<g transform="translate(0.000000,500.000000) scale(0.100000,-0.100000)"
fill="#000000" stroke="none">
<path d="M2432 4859 c-212 -27 -411 -126 -563 -278 -123 -124 -203 -260 -251
-426 -17 -60 -34 -94 -70 -139 -79 -99 -134 -230 -152 -367 -8 -59 9 -214 34
-307 18 -64 18 -76 6 -100 -59 -115 -134 -938 -137 -1514 -2 -207 -1 -207 25
-252 14 -25 34 -49 43 -54 19 -11 15 -12 -137 -37 -179 -29 -305 -57 -318 -69
-7 -7 -84 -214 -172 -461 l-160 -449 0 -112 c0 -144 -1 -143 123 -121 615 113
962 149 1217 127 163 -13 247 -38 292 -85 l32 -35 227 0 c217 0 227 1 245 21
135 150 714 138 1611 -33 92 -17 95 -12 90 131 l-3 116 -162 450 c-89 247
-162 450 -162 451 0 6 -78 25 -187 45 l-123 22 27 31 c61 72 64 120 33 437
-58 582 -151 1239 -186 1312 -15 32 -15 39 7 123 31 119 34 330 5 414 -23 67
-68 160 -105 214 -20 29 -30 60 -35 104 -15 133 -70 281 -154 412 -45 71 -170
200 -247 255 -199 142 -453 206 -693 174z m225 -190 c185 -25 340 -105 472
-245 66 -70 91 -105 131 -187 27 -58 56 -136 66 -181 l17 -80 -29 -24 c-81
-68 -124 -115 -135 -149 -15 -43 -18 -210 -6 -323 l7 -76 -65 -66 c-281 -286
-739 -311 -1052 -58 -80 65 -156 158 -147 179 4 9 9 84 12 166 6 211 -6 259
-89 338 l-60 58 21 75 c92 337 388 568 747 583 17 0 67 -4 110 -10z m-946
-835 l34 -35 0 -147 c0 -125 -4 -158 -23 -222 -30 -96 -45 -120 -72 -113 -27
7 -35 24 -54 115 -20 99 -20 219 0 289 17 56 62 149 74 149 3 0 22 -16 41 -36z
m1766 -144 c25 -59 27 -76 26 -180 -1 -141 -26 -248 -61 -261 -27 -10 -34 1
-61 106 -25 94 -45 291 -36 347 5 27 18 50 39 69 l31 28 17 -22 c10 -12 30
-51 45 -87z m-1450 -618 c39 -26 78 -51 86 -57 13 -8 -1 -42 -95 -220 -144
-275 -350 -656 -353 -653 -12 13 39 588 70 806 22 152 26 166 62 221 l38 59
60 -55 c33 -30 92 -76 132 -101z m1237 71 c10 -21 28 -54 41 -73 18 -27 30
-72 49 -190 25 -152 79 -546 91 -665 3 -33 9 -73 12 -90 3 -20 2 -27 -5 -20
-26 26 -492 864 -492 885 0 5 24 22 53 36 60 31 163 102 191 133 27 30 40 26
60 -16z m-1005 -1146 c-21 -308 -39 -561 -42 -563 -2 -2 -41 1 -87 7 -49 7
-168 10 -291 7 l-208 -4 34 37 c88 97 359 560 585 997 23 45 44 81 45 80 1 -2
-15 -254 -36 -561z m828 29 c153 -262 293 -474 368 -555 l40 -43 -55 6 c-30 3
-171 8 -312 12 l-257 7 -5 41 c-3 22 -17 232 -31 466 -14 234 -28 459 -31 500
l-6 75 106 -189 c59 -103 141 -247 183 -320z m-961 -677 c97 -13 185 -41 229
-70 67 -46 65 -35 65 -473 0 -367 -4 -421 -25 -386 -4 6 -34 24 -67 41 -258
130 -781 131 -1486 3 -79 -14 -145 -24 -147 -22 -2 2 60 183 138 403 l142 400
115 22 c419 81 819 112 1036 82z m1384 -19 c85 -11 234 -34 331 -51 l177 -32
141 -400 c78 -220 140 -401 138 -403 -1 -2 -93 12 -202 31 -358 62 -528 79
-830 79 -218 1 -288 -3 -365 -17 -127 -24 -259 -69 -326 -112 -30 -19 -57 -35
-60 -35 -3 0 -4 182 -2 405 l3 404 39 40 c57 58 141 89 311 115 77 11 497 -4
645 -24z m-1437 -884 c135 -25 240 -69 295 -125 l47 -46 -64 -3 c-57 -3 -67 0
-90 22 -113 109 -462 132 -983 66 -156 -20 -472 -72 -552 -90 -58 -13 -56 -14
-56 29 0 39 0 39 53 51 173 37 549 92 752 110 151 13 494 5 598 -14z m1433 14
c220 -18 576 -68 772 -110 l52 -12 0 -40 c0 -37 -2 -40 -22 -35 -113 28 -483
86 -723 113 -211 24 -560 24 -678 1 -104 -21 -179 -49 -224 -83 -28 -21 -42
-25 -90 -22 l-58 3 35 34 c75 71 247 131 435 150 117 12 353 12 501 1z"/>
<path d="M2158 3784 c-53 -28 -73 -105 -43 -164 22 -42 53 -60 105 -60 52 0
83 18 105 60 57 110 -59 223 -167 164z"/>
<path d="M2850 3793 c-54 -20 -89 -92 -70 -148 34 -104 179 -116 225 -19 25
52 15 101 -30 142 -34 32 -81 41 -125 25z"/>
<path d="M2236 3354 c-31 -30 -17 -68 33 -93 168 -86 399 -88 563 -5 60 30 75
56 53 90 -19 30 -39 30 -101 2 -145 -64 -300 -64 -443 -2 -63 28 -84 30 -105
8z"/>
<path d="M1080 1105 c0 -13 41 -15 310 -15 269 0 310 2 310 15 0 13 -41 15
-310 15 -269 0 -310 -2 -310 -15z"/>
<path d="M1087 993 c-4 -3 -7 -12 -7 -20 0 -10 58 -13 311 -13 290 0 310 1
307 18 -3 16 -27 17 -304 20 -165 1 -303 -1 -307 -5z"/>
<path d="M1080 850 c0 -20 4 -20 308 -18 265 3 307 5 307 18 0 13 -42 15 -307
18 -304 2 -308 2 -308 -18z"/>
<path d="M1080 720 c0 -20 5 -20 307 -18 284 3 308 4 311 21 3 16 -17 17 -307
17 -305 0 -311 0 -311 -20z"/>
<path d="M2870 1105 c0 -13 41 -15 310 -15 269 0 310 2 310 15 0 13 -41 15
-310 15 -269 0 -310 -2 -310 -15z"/>
<path d="M3616 1001 c-3 -6 24 -334 28 -338 3 -3 431 -21 434 -18 2 2 -14 79
-35 172 l-38 168 -85 7 c-137 10 -301 15 -304 9z m320 -47 l40 -5 30 -134 31
-135 -171 6 c-130 5 -174 10 -182 20 -7 8 -15 63 -18 122 -4 59 -10 115 -12
124 -5 17 4 17 118 12 68 -2 141 -7 164 -10z"/>
<path d="M2877 993 c-4 -3 -7 -12 -7 -20 0 -10 58 -13 311 -13 290 0 310 1
307 18 -3 16 -27 17 -304 20 -165 1 -303 -1 -307 -5z"/>
<path d="M2870 850 c0 -20 7 -20 310 -20 303 0 310 0 310 20 0 20 -7 20 -310
20 -303 0 -310 0 -310 -20z"/>
<path d="M2872 723 c3 -17 26 -18 308 -18 282 0 305 1 308 18 3 16 -17 17
-308 17 -291 0 -311 -1 -308 -17z"/>
</g>
</svg>
