<?xml version="1.0" standalone="no"?>
<!DOCTYPE svg PUBLIC "-//W3C//DTD SVG 20010904//EN"
 "http://www.w3.org/TR/2001/REC-SVG-20010904/DTD/svg10.dtd">
<svg version="1.0" xmlns="http://www.w3.org/2000/svg"
 width="500.000000pt" height="500.000000pt" viewBox="0 0 500.000000 500.000000"
 preserveAspectRatio="xMidYMid meet">
<metadata>
Created by potrace 1.16, written by Peter Selinger 2001-2019
</metadata>
<g transform="translate(0.000000,500.000000) scale(0.100000,-0.100000)"
fill="#000000" stroke="none">
<path d="M0 2500 l0 -2500 2500 0 2500 0 0 2500 0 2500 -2500 0 -2500 0 0
-2500z m2735 1779 c191 -23 454 -108 625 -201 778 -425 1140 -1340 861 -2178
-136 -407 -406 -748 -768 -973 -114 -70 -154 -90 -282 -142 -398 -159 -842
-172 -1251 -36 -547 183 -968 603 -1149 1147 -319 957 193 1986 1145 2303 271
91 526 115 819 80z"/>
<path d="M1635 2887 c-106 -51 -160 -136 -159 -252 1 -156 111 -265 269 -265
158 0 268 109 269 265 1 157 -101 265 -259 273 -58 2 -79 -1 -120 -21z"/>
<path d="M3135 2887 c-106 -51 -160 -136 -159 -252 1 -156 111 -265 269 -265
158 0 268 109 269 265 1 157 -101 265 -259 273 -58 2 -79 -1 -120 -21z"/>
<path d="M3277 1939 c-295 -148 -672 -218 -1028 -191 -189 15 -379 48 -548 97
-145 41 -171 43 -208 11 -25 -21 -28 -31 -26 -75 3 -59 49 -203 94 -293 127
-252 356 -471 583 -559 108 -42 207 -59 338 -59 317 0 585 129 766 368 108
144 189 331 232 534 27 127 26 163 -5 193 -37 38 -83 31 -198 -26z m-7 -256
c-125 -409 -407 -634 -793 -633 -120 0 -213 21 -312 69 -151 72 -275 186 -386
355 -56 84 -97 171 -87 181 2 3 27 -2 54 -10 79 -23 319 -64 444 -75 228 -20
439 -9 659 36 115 23 326 86 396 119 44 20 45 20 25 -42z"/>
</g>
</svg>
