<?xml version="1.0" standalone="no"?>
<!DOCTYPE svg PUBLIC "-//W3C//DTD SVG 20010904//EN"
 "http://www.w3.org/TR/2001/REC-SVG-20010904/DTD/svg10.dtd">
<svg version="1.0" xmlns="http://www.w3.org/2000/svg"
 width="500.000000pt" height="500.000000pt" viewBox="0 0 500.000000 500.000000"
 preserveAspectRatio="xMidYMid meet">

<g transform="translate(0.000000,500.000000) scale(0.100000,-0.100000)"
fill="#000000" stroke="none">
<path d="M270 2640 l0 -1890 330 0 330 0 0 -183 c0 -183 0 -184 -24 -196 -85
-46 -45 -181 54 -181 99 0 139 135 54 181 -23 12 -24 18 -24 106 l0 93 303 0
303 0 32 -45 c49 -69 96 -89 221 -90 101 -1 105 -1 114 -25 30 -80 43 -102 79
-139 64 -67 129 -95 223 -95 68 -1 89 3 137 27 72 35 131 102 159 178 l22 59
684 0 685 0 6 -22 c3 -13 19 -50 36 -83 77 -147 259 -205 411 -130 84 41 139
113 171 223 2 8 28 12 86 12 l82 0 47 49 c80 83 124 249 99 374 -30 154 -179
341 -357 450 l-52 32 -1 1593 0 1592 -2105 0 -2105 0 0 -1890z m4120 1550 l0
-240 -2015 0 -2015 0 0 240 0 240 2015 0 2015 0 0 -240z m0 -1527 l-1 -1188
-27 35 c-213 274 -367 442 -457 499 -48 31 -51 31 -175 31 l-127 0 -18 40
c-24 53 -85 107 -130 116 -105 19 -185 -18 -230 -107 l-25 -49 -210 0 -210 0
-2 223 -3 222 -1095 0 -1095 0 -3 -822 -2 -823 -110 0 -110 0 0 1505 0 1505
2015 0 2015 0 0 -1187z m-2740 -451 c0 -188 0 -189 -25 -212 -14 -13 -29 -40
-35 -59 -6 -21 -10 -200 -10 -428 l0 -393 -229 0 -229 0 -98 136 c-53 75 -108
142 -120 151 -44 29 -94 -28 -94 -108 0 -36 11 -56 90 -165 l90 -124 -83 0
c-70 0 -87 -3 -101 -19 -14 -15 -15 -24 -6 -40 8 -16 20 -21 55 -21 65 0 75
-7 75 -51 l0 -39 -125 0 -125 0 0 780 0 780 485 0 485 0 0 -188z m1030 8 l0
-180 -485 0 -485 0 0 180 0 180 485 0 485 0 0 -180z m792 -101 c21 -11 53 -57
46 -65 -3 -2 -59 -3 -124 -2 l-118 3 33 37 c17 20 42 39 54 41 28 6 86 -2 109
-14z m-2 -879 l0 -710 -424 0 -425 0 -15 54 c-16 52 -66 130 -110 169 -12 10
-49 32 -84 49 -113 55 -252 39 -357 -40 -55 -41 -110 -124 -127 -189 l-10 -43
-78 0 c-71 0 -82 3 -111 27 -60 51 -59 35 -59 700 0 596 3 666 32 685 7 4 408
8 891 8 l877 0 0 -710z m392 680 c97 -64 309 -308 465 -533 48 -68 86 -113
106 -123 113 -57 270 -209 328 -316 32 -59 34 -69 34 -158 0 -160 -52 -260
-134 -260 -39 0 -40 0 -55 54 -16 52 -66 130 -110 169 -12 10 -49 32 -84 49
-113 55 -252 39 -357 -40 -55 -41 -110 -124 -127 -189 l-10 -43 -189 0 -189 0
0 710 0 710 138 0 c137 0 139 0 184 -30z m-2872 -722 c82 -115 91 -131 83
-155 -9 -25 -13 -21 -106 106 -88 121 -110 165 -90 185 9 8 4 13 113 -136z
m580 -168 c0 -19 -7 -20 -235 -20 -129 0 -235 2 -235 4 0 2 3 11 6 20 5 14 36
16 235 16 222 0 229 -1 229 -20z m10 -150 l0 -40 -295 0 -295 0 0 40 0 40 295
0 295 0 0 -40z m0 -195 l0 -65 -295 0 -295 0 0 65 0 65 295 0 295 0 0 -65z
m760 -120 c72 -65 23 -187 -74 -187 -44 0 -72 16 -91 52 -25 49 -19 88 20 127
33 33 39 35 81 30 25 -2 53 -12 64 -22z m1980 10 c37 -19 50 -43 50 -93 0 -48
-29 -89 -73 -100 -70 -19 -137 29 -137 96 1 90 81 138 160 97z"/>
<path d="M1520 3485 l0 -185 -185 0 -186 0 3 -157 3 -158 183 -3 182 -2 0
-180 0 -180 160 0 160 0 0 180 0 180 183 2 182 3 3 158 3 157 -186 0 -185 0 0
185 0 185 -160 0 -160 0 0 -185z"/>
<path d="M2480 3145 l0 -385 385 0 385 0 0 385 0 385 -385 0 -385 0 0 -385z
m690 0 l0 -305 -305 0 -305 0 0 305 0 305 305 0 305 0 0 -305z"/>
<path d="M3450 3145 l0 -385 385 0 385 0 -2 383 -3 382 -382 3 -383 2 0 -385z
m680 0 l0 -305 -300 0 -300 0 0 305 0 305 300 0 300 0 0 -305z"/>
<path d="M3402 2398 c3 -110 6 -133 18 -133 12 0 15 23 18 133 2 127 2 132
-18 132 -20 0 -20 -5 -18 -132z"/>
<path d="M3034 2389 c-6 -11 172 -199 189 -199 4 0 10 7 14 16 4 11 -21 43
-83 105 -87 88 -106 100 -120 78z"/>
<path d="M3660 2305 c-75 -75 -92 -97 -82 -107 10 -10 32 7 107 82 52 52 95
100 95 107 0 29 -30 8 -120 -82z"/>
<path d="M2806 1899 l-26 -20 0 -275 c0 -261 1 -275 20 -294 19 -19 33 -20
295 -20 262 0 276 1 295 20 19 19 20 33 20 290 l0 271 -25 24 -24 25 -264 0
c-252 0 -266 -1 -291 -21z m542 -296 l-3 -248 -252 -3 -253 -2 0 250 0 250
255 0 255 0 -2 -247z"/>
<path d="M2052 1858 c-8 -8 -12 -49 -12 -120 l0 -108 -108 0 c-71 0 -112 -4
-120 -12 -17 -17 -17 -239 0 -256 8 -8 49 -12 120 -12 l108 0 0 -110 c0 -94 2
-110 18 -118 9 -5 68 -8 130 -7 87 1 115 4 123 15 5 8 9 61 9 117 l0 102 113
3 112 3 0 135 0 135 -112 3 -113 3 0 107 c0 71 -4 112 -12 120 -8 8 -51 12
-128 12 -77 0 -120 -4 -128 -12z"/>
<path d="M3616 1914 c-14 -13 -16 -55 -16 -309 0 -254 2 -296 16 -309 13 -14
57 -16 328 -16 373 0 367 -2 323 82 -50 99 -404 547 -443 562 -8 3 -55 6 -104
6 -67 0 -92 -4 -104 -16z m294 -181 c114 -137 262 -329 280 -362 11 -21 11
-21 -255 -21 l-265 0 0 255 0 255 68 0 67 0 105 -127z"/>
</g>
</svg>
