<?xml version="1.0" standalone="no"?>
<!DOCTYPE svg PUBLIC "-//W3C//DTD SVG 20010904//EN"
 "http://www.w3.org/TR/2001/REC-SVG-20010904/DTD/svg10.dtd">
<svg version="1.0" xmlns="http://www.w3.org/2000/svg"
 width="500.000000pt" height="500.000000pt" viewBox="0 0 500.000000 500.000000"
 preserveAspectRatio="xMidYMid meet">

<g transform="translate(0.000000,500.000000) scale(0.100000,-0.100000)"
fill="#000000" stroke="none">
<path d="M2100 4434 c-94 -20 -182 -67 -256 -137 -85 -79 -145 -199 -190 -377
-25 -99 -26 -308 -2 -361 15 -34 19 -36 78 -43 l63 -7 -7 -106 c-8 -114 -4
-103 -86 -206 -4 -4 -23 -1 -43 8 -109 45 -237 -24 -268 -145 l-12 -47 -42 5
c-72 8 -132 -39 -157 -119 -10 -37 -13 -39 -51 -39 -76 0 -144 -55 -162 -132
-6 -21 -16 -30 -44 -38 -131 -36 -163 -133 -91 -288 l33 -71 -33 -52 c-35 -54
-84 -92 -141 -110 -19 -6 -144 -14 -278 -18 l-245 -6 -23 -59 c-27 -70 -58
-192 -75 -296 -17 -102 -16 -433 1 -544 l13 -88 107 6 c123 8 419 33 528 46
73 8 75 8 123 -25 92 -62 277 -104 400 -91 49 6 58 4 83 -19 l28 -25 -65 -81
c-84 -106 -138 -212 -144 -284 -5 -63 10 -95 59 -121 26 -13 36 -13 61 -3 58
24 90 134 104 352 l7 117 31 -20 c192 -127 381 -144 559 -50 32 17 77 33 100
36 l42 6 17 -50 c32 -91 140 -162 244 -162 43 0 127 32 184 70 l44 29 18 -65
c23 -82 40 -115 85 -165 60 -67 103 -84 208 -84 77 1 99 5 151 29 122 55 178
145 179 286 0 47 -4 98 -8 114 l-8 29 123 -7 c329 -16 463 -18 623 -6 159 11
178 11 285 -9 179 -32 283 -65 443 -143 123 -60 150 -70 158 -58 16 25 67 191
79 260 20 107 16 291 -9 395 -26 109 -118 301 -158 331 -16 12 -93 49 -173 83
-210 91 -372 176 -422 221 -38 35 -41 41 -26 50 9 6 31 23 49 37 108 92 85
304 -40 359 -35 15 -40 22 -46 60 -9 64 -42 106 -102 129 -46 18 -53 24 -58
56 -3 19 -19 58 -35 86 -40 70 -96 97 -183 90 -34 -3 -72 -8 -84 -12 -18 -6
-23 -3 -23 11 0 39 -61 146 -112 198 -151 150 -381 162 -557 28 -30 -24 -34
-24 -43 -9 -27 48 -119 60 -199 26 l-50 -22 -32 30 c-41 39 -63 50 -126 64
-58 12 -57 9 -66 141 l-6 87 36 7 c35 6 36 8 31 38 -8 44 10 146 32 176 43 58
47 57 329 -19 142 -39 312 -86 378 -106 l120 -35 52 55 c29 30 68 88 90 131
34 69 38 86 38 153 0 62 -5 86 -27 132 -15 30 -38 64 -50 76 -54 48 -484 173
-962 280 -267 59 -286 61 -396 37z m375 -89 c535 -121 917 -234 954 -281 81
-102 61 -264 -47 -385 l-41 -46 -153 44 c-293 84 -559 153 -592 153 -77 0
-142 -83 -153 -194 l-6 -66 -36 -7 c-51 -10 -498 -10 -604 0 -83 8 -89 11 -99
35 -19 51 -12 219 15 324 30 113 83 241 123 293 51 67 189 152 274 168 81 15
172 5 365 -38z m-86 -1035 c16 -238 16 -240 48 -240 l26 0 -7 81 -7 82 35 -6
c81 -13 156 -77 156 -134 0 -27 14 -36 40 -28 17 6 20 12 14 41 -6 33 -4 35
37 54 58 26 92 25 126 -4 l27 -24 -32 -63 c-40 -79 -56 -156 -49 -229 l5 -57
-73 -1 -73 -1 -26 37 c-29 43 -57 62 -103 73 -69 15 -174 -31 -211 -93 -11
-19 -24 -28 -42 -28 -52 0 -125 -29 -157 -62 -57 -61 -72 -118 -30 -118 17 0
28 11 42 42 26 55 71 78 150 78 60 0 61 1 70 32 15 47 74 90 133 96 41 3 52 0
78 -21 17 -14 39 -44 49 -67 15 -34 22 -40 39 -35 40 12 105 17 139 11 25 -5
37 -14 50 -41 20 -41 37 -39 -156 -22 -126 12 -142 12 -197 -5 -39 -12 -71
-30 -93 -53 -28 -29 -41 -35 -77 -35 -24 0 -58 -9 -80 -21 -38 -22 -86 -86
-97 -129 -9 -37 -22 -50 -52 -50 -43 0 -133 -51 -158 -89 -40 -60 -23 -136 47
-210 l31 -34 -21 -41 c-11 -23 -20 -53 -20 -65 0 -12 -3 -21 -7 -19 -145 73
-145 73 -240 73 -106 0 -106 0 -79 88 27 91 82 138 179 152 41 6 47 10 47 31
0 20 -5 24 -29 24 -28 0 -29 1 -21 34 20 92 83 138 185 138 56 0 65 2 71 20 8
27 -10 38 -64 38 -82 0 -133 -20 -187 -74 -43 -43 -55 -50 -85 -47 -42 3 -120
36 -120 50 0 27 44 81 75 91 81 27 188 159 225 278 52 168 2 282 -125 282 -54
0 -40 10 -239 -155 -88 -71 -204 -136 -280 -154 -135 -33 -251 -139 -343 -313
-34 -65 -38 -69 -50 -52 -25 34 -45 122 -35 152 11 34 59 67 109 75 35 6 40
11 56 57 30 83 52 102 133 109 59 5 69 9 72 26 9 61 35 107 68 121 30 13 40
12 89 -5 l55 -19 0 46 c0 54 26 117 61 149 52 47 108 50 182 9 34 -18 40 -19
47 -5 5 9 18 27 29 40 l20 24 1 -47 c0 -44 2 -48 24 -48 28 0 32 18 41 215 3
72 8 142 11 157 l6 28 250 0 c138 0 253 2 256 5 14 14 20 -24 31 -195z m986
-99 c292 -136 290 -546 -3 -684 -60 -28 -77 -32 -157 -32 -80 0 -97 4 -155 31
-79 37 -150 107 -188 183 -24 50 -27 67 -27 161 0 94 3 111 27 161 49 99 151
182 255 209 69 17 177 5 248 -29z m-1545 -184 c0 -20 -55 -94 -79 -106 -23
-13 -108 -15 -115 -3 -3 5 25 34 62 65 51 43 75 57 100 57 20 0 32 -5 32 -13z
m55 -66 c9 -41 -11 -137 -41 -198 -44 -91 -151 -191 -206 -193 -7 -1 -35 -38
-61 -83 -40 -68 -51 -96 -63 -169 -8 -48 -23 -112 -35 -143 -21 -57 -105 -159
-139 -170 -16 -5 -17 -10 -8 -31 6 -13 14 -24 18 -24 14 0 86 58 113 90 57 68
107 200 107 286 0 60 11 69 51 45 18 -11 57 -26 86 -32 48 -11 53 -15 53 -40
0 -23 -9 -32 -50 -55 -75 -41 -118 -115 -135 -229 -6 -46 -10 -51 -48 -69 -60
-28 -148 -121 -183 -191 -27 -55 -29 -69 -29 -170 0 -101 2 -115 29 -169 28
-58 106 -146 156 -178 14 -9 22 -19 18 -23 -18 -19 -191 -57 -283 -62 -134 -8
-227 9 -325 58 -43 22 -82 45 -88 52 -9 10 -31 10 -114 1 -172 -20 -567 -49
-573 -42 -17 17 -27 172 -22 353 6 212 23 327 70 457 l22 63 120 -3 c66 -2
176 1 244 7 209 19 256 52 366 258 80 152 139 238 197 287 47 40 124 80 178
91 49 11 165 70 229 117 52 39 54 40 92 28 45 -15 110 -8 145 15 14 9 39 36
56 60 34 48 43 49 53 6z m1940 -65 c33 -22 65 -86 72 -146 l6 -48 45 -7 c31
-5 55 -16 75 -36 28 -28 29 -34 24 -90 l-5 -59 31 0 c79 0 145 -89 133 -177
-8 -62 -33 -98 -82 -125 l-42 -22 -66 62 c-115 107 -297 216 -456 272 -36 13
-66 25 -68 26 -2 1 16 26 40 56 56 69 87 142 95 223 3 36 6 65 7 65 1 0 19 7
41 15 48 18 115 14 150 -9z m-1087 -291 c162 -15 164 -16 205 -49 131 -106
293 -130 443 -66 l45 20 97 -36 c212 -79 370 -180 523 -334 47 -47 101 -98
120 -112 43 -33 280 -151 419 -209 58 -24 117 -52 132 -63 37 -26 100 -151
134 -261 25 -81 27 -106 28 -245 0 -156 -15 -252 -56 -347 l-13 -32 -136 65
c-220 105 -505 166 -662 143 -57 -8 -175 -10 -392 -6 -409 8 -596 26 -687 67
-43 19 -105 27 -247 34 l-75 4 -16 68 c-9 38 -23 83 -31 99 l-15 30 -93 -1
c-85 -1 -96 -3 -113 -23 -24 -31 -24 -106 2 -173 11 -28 18 -54 15 -56 -2 -2
-20 1 -40 8 -44 14 -69 58 -68 120 0 57 29 115 84 165 45 41 162 99 219 109
19 3 109 -3 200 -14 157 -18 166 -18 192 -1 34 21 81 83 71 91 -5 4 -100 23
-213 44 -591 109 -730 149 -773 224 -17 29 -18 39 -9 70 24 80 12 78 248 48
267 -35 495 -71 607 -97 81 -19 90 -24 99 -50 7 -22 16 -29 35 -29 24 0 25 2
20 42 -3 23 -13 48 -22 55 -40 29 -350 86 -720 132 -244 30 -257 35 -302 102
-36 55 -35 95 5 130 57 51 83 52 311 13 354 -60 608 -122 737 -179 l56 -25 39
23 c44 25 44 26 26 51 -12 17 -16 17 -42 4 -26 -14 -32 -14 -71 3 -114 51
-382 117 -709 174 -82 15 -152 29 -154 31 -8 8 19 82 40 107 29 38 88 54 142
37 23 -7 62 -14 87 -17 229 -21 558 -103 752 -187 35 -15 38 -15 48 3 15 29
15 29 -45 56 -157 69 -460 147 -687 176 -54 7 -98 16 -98 20 0 16 89 57 125
58 11 1 94 -6 183 -14z m-864 -688 c69 -32 141 -105 175 -177 23 -48 26 -68
26 -155 0 -87 -3 -107 -27 -157 -88 -189 -323 -266 -510 -166 -208 111 -257
385 -102 567 35 41 120 98 130 88 9 -9 23 -132 16 -138 -4 -3 -29 -14 -57 -24
-60 -22 -136 -96 -152 -147 -12 -42 -9 -48 23 -48 17 0 24 7 29 30 13 60 97
118 193 135 34 5 42 10 38 23 -12 37 -26 127 -26 163 0 37 0 38 43 41 67 5
142 -8 201 -35z m308 -198 c54 -17 596 -129 701 -144 26 -4 47 -11 47 -16 0
-12 -3 -12 -183 8 -181 20 -225 15 -335 -39 -168 -82 -251 -238 -193 -363 44
-96 114 -115 260 -71 68 21 105 26 190 26 119 0 226 -14 256 -34 22 -14 93
-30 182 -41 50 -7 53 -9 63 -43 13 -47 13 -157 0 -201 -25 -89 -105 -152 -216
-170 -146 -23 -236 37 -283 191 -11 35 -23 84 -26 111 -8 61 -29 62 -88 4 -55
-56 -162 -101 -215 -91 -107 19 -173 84 -176 170 l-1 46 -74 -6 c-58 -6 -93
-16 -155 -47 -178 -87 -331 -71 -506 52 -57 40 -68 59 -33 59 8 0 56 14 107
31 78 27 106 32 202 33 106 1 113 2 186 39 90 44 147 102 190 194 44 92 49
222 12 317 -6 16 -4 18 12 11 10 -4 45 -16 76 -26z m372 -437 c28 -101 26
-105 -51 -126 -38 -10 -74 -20 -80 -23 -16 -6 -52 74 -60 132 -8 61 10 75 101
75 l73 0 17 -58z m-1253 -474 c-11 -94 -35 -183 -52 -194 -19 -11 -48 8 -54
35 -3 16 1 49 11 77 16 50 95 187 102 179 2 -2 -1 -46 -7 -97z"/>
<path d="M2256 3418 c2 -13 15 -135 30 -273 14 -137 27 -251 29 -253 1 -2 14
0 28 3 22 6 25 11 21 38 -5 38 -54 487 -54 499 0 4 -13 8 -29 8 -24 0 -28 -4
-25 -22z"/>
<path d="M1929 3408 c0 -7 -6 -72 -12 -145 l-12 -132 25 -4 c14 -3 26 -4 27
-3 1 1 8 64 14 140 11 118 10 139 -2 147 -20 13 -39 11 -40 -3z"/>
<path d="M2125 3238 c15 -365 18 -392 39 -396 10 -2 22 0 27 5 5 5 -13 532
-20 561 -1 1 -13 2 -27 2 l-26 0 7 -172z"/>
<path d="M3645 1986 c-71 -31 -117 -125 -97 -195 24 -79 82 -123 162 -123 80
0 138 44 162 123 8 30 8 48 -1 79 -31 103 -134 156 -226 116z m126 -41 c37
-20 69 -70 69 -110 0 -67 -66 -135 -130 -135 -63 0 -130 68 -130 133 0 93 106
155 191 112z"/>
<path d="M3115 1615 c-24 -131 -18 -283 14 -343 54 -105 181 -84 181 29 0 48
-56 205 -112 311 -28 54 -55 98 -59 98 -4 0 -15 -43 -24 -95z m115 -214 c11
-35 20 -81 20 -102 0 -35 -3 -39 -25 -39 -15 0 -31 9 -40 24 -25 38 -39 134
-30 211 l8 70 23 -50 c13 -27 32 -79 44 -114z"/>
<path d="M593 3243 c-32 -6 -73 -59 -73 -94 0 -37 35 -73 86 -90 51 -16 414
-25 414 -10 0 14 -129 105 -200 141 -95 48 -166 65 -227 53z m160 -83 c40 -17
83 -39 97 -50 l25 -20 -55 0 c-73 0 -187 17 -218 33 -32 15 -37 30 -17 51 25
25 88 19 168 -14z"/>
</g>
</svg>
