<?xml version="1.0" standalone="no"?>
<!DOCTYPE svg PUBLIC "-//W3C//DTD SVG 20010904//EN"
 "http://www.w3.org/TR/2001/REC-SVG-20010904/DTD/svg10.dtd">
<svg version="1.0" xmlns="http://www.w3.org/2000/svg"
 width="500.000000pt" height="500.000000pt" viewBox="0 0 500.000000 500.000000"
 preserveAspectRatio="xMidYMid meet">

<g transform="translate(0.000000,500.000000) scale(0.100000,-0.100000)"
fill="#000000" stroke="none">
<path d="M3095 3659 c-187 -26 -437 -62 -555 -78 -118 -17 -539 -76 -935 -131
-951 -133 -1118 -156 -1255 -175 -177 -24 -172 -22 -155 -48 19 -30 43 -150
57 -289 12 -124 0 -317 -22 -343 -8 -10 139 -175 577 -651 323 -352 592 -639
598 -638 6 1 47 6 91 12 43 7 448 64 899 127 451 64 1009 142 1240 175 231 33
566 80 745 105 179 25 336 48 350 51 22 4 29 16 50 87 32 110 40 322 16 448
-35 189 28 114 -668 790 -574 558 -624 604 -657 606 -20 1 -189 -21 -376 -48z
m-2119 -1237 c219 -228 405 -426 412 -440 15 -29 -228 213 -765 765 -216 221
-343 358 -343 371 0 22 63 -41 696 -696z m-185 101 c591 -607 622 -639 617
-654 -5 -16 -1108 1111 -1108 1133 0 10 1 18 3 18 2 0 221 -224 488 -497z
m362 -459 c241 -243 248 -252 245 -287 -3 -36 -4 -34 -543 524 -432 448 -541
567 -543 590 -3 25 42 -16 295 -273 163 -167 409 -416 546 -554z m-323 211
c233 -242 457 -474 498 -516 57 -59 73 -82 70 -100 -2 -20 -90 69 -545 549
-299 316 -543 581 -543 590 0 19 -40 60 520 -523z m84 -184 c383 -405 486
-519 486 -540 l0 -26 -34 35 c-19 19 -264 280 -545 579 -345 367 -511 550
-511 564 0 28 -9 36 604 -612z m-62 -38 c480 -509 533 -569 536 -602 2 -23 0
-32 -6 -26 -223 235 -1090 1190 -1086 1196 3 5 9 7 14 4 5 -3 249 -260 542
-572z m1596 -10 c29 -133 34 -194 30 -339 -2 -85 -8 -158 -14 -164 -10 -10
-732 -116 -739 -108 -3 2 0 53 5 114 10 117 0 283 -24 387 -10 41 -10 57 -2
57 6 1 162 23 346 49 184 27 347 49 362 50 24 1 27 -4 36 -46z"/>
</g>
</svg>
