<?xml version="1.0" encoding="UTF-8"?>
<!-- Generator: visioncortex VTracer 0.6.4 -->
<svg version="1.1" xmlns="http://www.w3.org/2000/svg" width="500" height="500">
<path d="M0 0 C0.94 0.88 1.88 1.76 2.85 2.67 C3.63 3.4 3.63 3.4 4.42 4.14 C10.94 10.29 17.24 16.68 23.54 23.05 C25.93 25.46 28.31 27.87 30.7 30.28 C31.24 30.82 31.78 31.37 32.33 31.93 C34.62 34.24 36.76 36.18 39.48 37.99 C39.48 38.65 39.48 39.31 39.48 39.99 C40.02 40.2 40.56 40.42 41.12 40.64 C44.33 42.48 46.71 45 49.28 47.63 C49.83 48.18 50.38 48.74 50.95 49.32 C52.71 51.1 54.47 52.89 56.23 54.68 C58.53 57.02 60.84 59.36 63.15 61.69 C63.71 62.26 64.27 62.82 64.85 63.4 C68.26 66.83 71.76 70.05 75.44 73.18 C80.7 77.86 85.55 83.01 90.49 88.02 C96.86 94.47 103.29 100.76 110.33 106.5 C121.93 116.07 125.46 125.25 127.48 139.99 C127.58 140.69 127.69 141.39 127.79 142.1 C129.72 155.96 128.5 169.41 125.48 182.99 C125.3 183.98 125.12 184.97 124.93 185.98 C124.37 188.35 123.91 190.03 122.48 191.99 C118.2 194.22 113.12 194.02 108.4 194.42 C102.51 194.96 96.67 195.72 90.82 196.55 C89.75 196.7 88.68 196.85 87.57 197 C85.33 197.32 83.08 197.63 80.84 197.95 C77.42 198.43 74.01 198.9 70.59 199.38 C68.4 199.68 66.2 199.99 64.01 200.3 C63 200.44 61.99 200.58 60.95 200.72 C55.45 201.5 50.02 202.43 44.58 203.58 C41.88 204.11 39.22 204.33 36.48 204.49 C32.85 204.75 29.4 205.14 25.85 205.93 C21.43 206.89 17.01 207.4 12.51 207.87 C2.76 208.91 -6.95 210.25 -16.66 211.65 C-19.51 212.06 -22.36 212.46 -25.21 212.87 C-27.03 213.13 -28.85 213.39 -30.67 213.65 C-31.52 213.77 -32.37 213.89 -33.24 214.01 C-36.44 214.48 -39.44 214.96 -42.52 215.99 C-45.61 216.3 -48.71 216.5 -51.81 216.71 C-54.49 216.83 -54.49 216.83 -56.52 217.99 C-58.12 218.15 -59.72 218.27 -61.33 218.37 C-69.88 219.02 -78.34 220.29 -86.82 221.52 C-89.65 221.93 -92.47 222.33 -95.3 222.73 C-97.13 222.99 -98.95 223.26 -100.78 223.52 C-101.61 223.64 -102.44 223.75 -103.29 223.87 C-107.43 224.48 -111.52 225.18 -115.61 226.03 C-120.02 226.93 -124.37 227.46 -128.85 227.86 C-142.05 229.15 -155.15 231.15 -168.27 233.05 C-170.82 233.42 -173.38 233.79 -175.93 234.16 C-181.57 234.97 -187.22 235.79 -192.86 236.61 C-195.11 236.93 -197.36 237.25 -199.61 237.56 C-202.54 237.95 -202.54 237.95 -205.44 238.69 C-208.73 239.33 -211.2 239.53 -214.52 238.99 C-218.91 235.88 -222.11 232.13 -225.52 227.99 C-226.67 226.7 -227.81 225.41 -228.96 224.12 C-229.5 223.48 -230.04 222.85 -230.6 222.2 C-233.1 219.33 -235.68 216.54 -238.27 213.74 C-238.79 213.18 -239.3 212.62 -239.84 212.05 C-240.89 210.92 -241.94 209.78 -242.99 208.65 C-245.34 206.1 -247.68 203.55 -250.02 200.99 C-253.82 196.84 -257.64 192.69 -261.46 188.55 C-261.95 188.02 -262.44 187.49 -262.95 186.94 C-265.58 184.08 -268.22 181.24 -270.88 178.42 C-271.42 177.84 -271.97 177.25 -272.54 176.65 C-273.58 175.53 -274.63 174.41 -275.69 173.3 C-278.13 170.69 -280.16 168.32 -281.52 164.99 C-282.18 164.99 -282.84 164.99 -283.52 164.99 C-284.92 163.56 -284.92 163.56 -286.46 161.68 C-288.6 159.06 -288.6 159.06 -290.92 156.61 C-292.61 154.9 -294.18 153.12 -295.75 151.3 C-299.37 147.14 -303.11 143.12 -306.9 139.12 C-316.79 128.61 -316.79 128.61 -321.51 123.21 C-323.52 120.93 -323.52 120.93 -325.91 118.77 C-326.67 118.04 -327.43 117.31 -328.21 116.55 C-328.89 115.94 -329.58 115.32 -330.28 114.68 C-332.04 110.86 -330.99 108.24 -330.1 104.21 C-329.02 98.2 -329.23 92.14 -329.27 86.05 C-329.26 84.77 -329.26 83.49 -329.25 82.17 C-329.27 71.95 -330.54 62.34 -333.02 52.43 C-333.26 51.46 -333.5 50.49 -333.74 49.49 C-334.46 46.78 -334.46 46.78 -336.52 43.99 C-335.02 42.49 -333.54 42.61 -331.46 42.31 C-330.58 42.19 -329.69 42.06 -328.79 41.93 C-327.81 41.8 -326.83 41.67 -325.82 41.53 C-324.78 41.38 -323.75 41.23 -322.69 41.08 C-319.19 40.59 -315.7 40.11 -312.2 39.62 C-309.71 39.27 -307.21 38.92 -304.72 38.57 C-298.61 37.72 -292.5 36.86 -286.39 36.01 C-279.21 35.01 -272.04 34.01 -264.86 33 C-251.98 31.2 -239.1 29.4 -226.22 27.6 C-213.87 25.88 -201.52 24.15 -189.16 22.42 C-188.41 22.32 -187.66 22.21 -186.89 22.1 C-183.86 21.68 -180.83 21.26 -177.81 20.83 C-158.24 18.1 -138.68 15.36 -119.11 12.63 C-118.44 12.53 -117.78 12.44 -117.09 12.34 C-109.84 11.33 -102.59 10.32 -95.34 9.31 C-92.75 8.95 -90.15 8.59 -87.56 8.23 C-86.27 8.05 -84.98 7.87 -83.66 7.69 C-75.83 6.6 -68 5.49 -60.18 4.38 C-54.08 3.52 -47.98 2.66 -41.88 1.8 C-38.23 1.29 -34.58 0.77 -30.93 0.25 C-26.92 -0.33 -22.9 -0.89 -18.88 -1.45 C-17.68 -1.63 -16.48 -1.8 -15.25 -1.98 C-14.15 -2.13 -13.06 -2.28 -11.93 -2.44 C-10.5 -2.64 -10.5 -2.64 -9.04 -2.85 C-5.02 -3.11 -3.15 -2.51 0 0 Z " fill="#D46D00" transform="translate(353.521240234375,131.009521484375)"/>
<path d="M0 0 C0.94 0.88 1.88 1.76 2.85 2.67 C3.63 3.4 3.63 3.4 4.42 4.14 C10.94 10.29 17.24 16.68 23.54 23.05 C25.93 25.46 28.31 27.87 30.7 30.28 C31.24 30.82 31.78 31.37 32.33 31.93 C34.62 34.24 36.76 36.18 39.48 37.99 C39.48 38.65 39.48 39.31 39.48 39.99 C40.02 40.2 40.56 40.42 41.12 40.64 C44.33 42.48 46.71 45 49.28 47.63 C49.83 48.18 50.38 48.74 50.95 49.32 C52.71 51.1 54.47 52.89 56.23 54.68 C58.53 57.02 60.84 59.36 63.15 61.69 C63.71 62.26 64.27 62.82 64.85 63.4 C68.26 66.83 71.76 70.05 75.44 73.18 C80.7 77.86 85.55 83.01 90.49 88.02 C96.86 94.47 103.29 100.76 110.33 106.5 C121.93 116.07 125.46 125.25 127.48 139.99 C127.58 140.69 127.69 141.39 127.79 142.1 C129.72 155.96 128.5 169.41 125.48 182.99 C125.3 183.98 125.12 184.97 124.93 185.98 C124.37 188.35 123.91 190.03 122.48 191.99 C118.2 194.22 113.12 194.02 108.4 194.42 C102.51 194.96 96.67 195.72 90.82 196.55 C89.75 196.7 88.68 196.85 87.57 197 C85.33 197.32 83.08 197.63 80.84 197.95 C77.42 198.43 74.01 198.9 70.59 199.38 C68.4 199.68 66.2 199.99 64.01 200.3 C63 200.44 61.99 200.58 60.95 200.72 C55.45 201.5 50.02 202.43 44.58 203.58 C41.88 204.11 39.22 204.33 36.48 204.49 C32.85 204.75 29.4 205.14 25.85 205.93 C21.43 206.89 17.01 207.4 12.51 207.87 C2.76 208.91 -6.95 210.25 -16.66 211.65 C-19.51 212.06 -22.36 212.46 -25.21 212.87 C-27.03 213.13 -28.85 213.39 -30.67 213.65 C-31.52 213.77 -32.37 213.89 -33.24 214.01 C-36.44 214.48 -39.44 214.96 -42.52 215.99 C-45.61 216.3 -48.71 216.5 -51.81 216.71 C-54.49 216.83 -54.49 216.83 -56.52 217.99 C-58.12 218.15 -59.72 218.27 -61.33 218.37 C-69.88 219.02 -78.34 220.29 -86.82 221.52 C-89.65 221.93 -92.47 222.33 -95.3 222.73 C-97.13 222.99 -98.95 223.26 -100.78 223.52 C-101.61 223.64 -102.44 223.75 -103.29 223.87 C-107.43 224.48 -111.52 225.18 -115.61 226.03 C-120.02 226.93 -124.37 227.46 -128.85 227.86 C-142.05 229.15 -155.15 231.15 -168.27 233.05 C-170.82 233.42 -173.38 233.79 -175.93 234.16 C-181.57 234.97 -187.22 235.79 -192.86 236.61 C-195.11 236.93 -197.36 237.25 -199.61 237.56 C-202.54 237.95 -202.54 237.95 -205.44 238.69 C-208.73 239.33 -211.2 239.53 -214.52 238.99 C-218.91 235.88 -222.11 232.13 -225.52 227.99 C-226.67 226.7 -227.81 225.41 -228.96 224.12 C-229.5 223.48 -230.04 222.85 -230.6 222.2 C-233.1 219.33 -235.68 216.54 -238.27 213.74 C-238.79 213.18 -239.3 212.62 -239.84 212.05 C-240.89 210.92 -241.94 209.78 -242.99 208.65 C-245.34 206.1 -247.68 203.55 -250.02 200.99 C-253.82 196.84 -257.64 192.69 -261.46 188.55 C-261.95 188.02 -262.44 187.49 -262.95 186.94 C-265.58 184.08 -268.22 181.24 -270.88 178.42 C-271.42 177.84 -271.97 177.25 -272.54 176.65 C-273.58 175.53 -274.63 174.41 -275.69 173.3 C-278.13 170.69 -280.16 168.32 -281.52 164.99 C-282.18 164.99 -282.84 164.99 -283.52 164.99 C-284.92 163.56 -284.92 163.56 -286.46 161.68 C-288.6 159.06 -288.6 159.06 -290.92 156.61 C-292.61 154.9 -294.18 153.12 -295.75 151.3 C-299.37 147.14 -303.11 143.12 -306.9 139.12 C-316.79 128.61 -316.79 128.61 -321.51 123.21 C-323.52 120.93 -323.52 120.93 -325.91 118.77 C-326.67 118.04 -327.43 117.31 -328.21 116.55 C-328.89 115.94 -329.58 115.32 -330.28 114.68 C-332.04 110.86 -330.99 108.24 -330.1 104.21 C-329.02 98.2 -329.23 92.14 -329.27 86.05 C-329.26 84.77 -329.26 83.49 -329.25 82.17 C-329.27 71.95 -330.54 62.34 -333.02 52.43 C-333.26 51.46 -333.5 50.49 -333.74 49.49 C-334.46 46.78 -334.46 46.78 -336.52 43.99 C-335.02 42.49 -333.54 42.61 -331.46 42.31 C-330.58 42.19 -329.69 42.06 -328.79 41.93 C-327.81 41.8 -326.83 41.67 -325.82 41.53 C-324.78 41.38 -323.75 41.23 -322.69 41.08 C-319.19 40.59 -315.7 40.11 -312.2 39.62 C-309.71 39.27 -307.21 38.92 -304.72 38.57 C-298.61 37.72 -292.5 36.86 -286.39 36.01 C-279.21 35.01 -272.04 34.01 -264.86 33 C-251.98 31.2 -239.1 29.4 -226.22 27.6 C-213.87 25.88 -201.52 24.15 -189.16 22.42 C-188.41 22.32 -187.66 22.21 -186.89 22.1 C-183.86 21.68 -180.83 21.26 -177.81 20.83 C-158.24 18.1 -138.68 15.36 -119.11 12.63 C-118.44 12.53 -117.78 12.44 -117.09 12.34 C-109.84 11.33 -102.59 10.32 -95.34 9.31 C-92.75 8.95 -90.15 8.59 -87.56 8.23 C-86.27 8.05 -84.98 7.87 -83.66 7.69 C-75.83 6.6 -68 5.49 -60.18 4.38 C-54.08 3.52 -47.98 2.66 -41.88 1.8 C-38.23 1.29 -34.58 0.77 -30.93 0.25 C-26.92 -0.33 -22.9 -0.89 -18.88 -1.45 C-17.68 -1.63 -16.48 -1.8 -15.25 -1.98 C-14.15 -2.13 -13.06 -2.28 -11.93 -2.44 C-10.5 -2.64 -10.5 -2.64 -9.04 -2.85 C-5.02 -3.11 -3.15 -2.51 0 0 Z M-15.56 6.18 C-17.69 6.41 -19.82 6.69 -21.95 6.98 C-23.12 7.13 -23.12 7.13 -24.31 7.29 C-26.82 7.62 -29.33 7.96 -31.83 8.3 C-33.57 8.54 -35.31 8.77 -37.05 9 C-45.91 10.19 -54.74 11.44 -63.55 12.9 C-70.67 14.06 -77.81 14.96 -84.96 15.87 C-96.59 17.34 -108.22 18.88 -119.83 20.49 C-120.98 20.65 -120.98 20.65 -122.14 20.81 C-132.91 22.31 -143.66 23.92 -154.41 25.61 C-162.58 26.88 -170.78 27.93 -178.99 28.92 C-184.88 29.64 -190.73 30.46 -196.58 31.43 C-205.72 32.94 -214.89 34.09 -224.07 35.25 C-232.63 36.33 -241.16 37.51 -249.67 38.92 C-255.79 39.91 -261.93 40.69 -268.08 41.43 C-280 42.87 -291.84 44.69 -303.69 46.55 C-309.29 47.42 -314.91 48.21 -320.52 48.99 C-311.04 60.31 -300.8 70.84 -290.28 81.19 C-286.78 84.66 -283.34 88.13 -280.13 91.88 C-275.56 97.2 -270.52 102.07 -265.52 106.99 C-259.95 112.48 -254.47 117.96 -249.38 123.91 C-245.31 128.47 -240.87 132.7 -236.52 136.99 C-221.71 151.6 -221.71 151.6 -216.32 159.03 C-213.55 162.52 -211.07 165.66 -206.42 166.26 C-201.63 166.23 -196.98 165.45 -192.29 164.52 C-182.92 162.74 -173.42 161.54 -163.97 160.26 C-161.57 159.93 -159.18 159.6 -156.78 159.27 C-155.54 159.11 -154.31 158.94 -153.03 158.76 C-126.96 155.2 -100.92 151.48 -74.92 147.43 C-68.49 146.43 -62.05 145.5 -55.58 144.68 C-53.61 144.42 -51.64 144.17 -49.67 143.91 C-46.54 143.51 -43.42 143.11 -40.29 142.7 C-35.28 142.06 -30.27 141.41 -25.26 140.76 C-23.57 140.54 -21.89 140.32 -20.2 140.11 C-9.78 138.83 -9.78 138.83 0.55 136.96 C5.48 135.91 10.45 135.37 15.45 134.81 C24.01 133.84 32.53 132.61 41.05 131.39 C43.81 130.99 46.56 130.59 49.32 130.2 C57.59 129.02 65.84 127.8 74.07 126.39 C77.37 125.84 80.66 125.44 83.98 125.05 C93.51 123.91 102.99 122.45 112.48 120.99 C108.47 116.1 104.21 111.74 99.54 107.49 C91.31 99.9 83.41 91.99 75.55 84.02 C69.71 78.12 69.71 78.12 63.54 72.55 C57.3 67.22 51.66 61.22 45.9 55.39 C38.94 48.28 38.94 48.28 31.58 41.59 C25.31 36.24 19.64 30.22 13.85 24.37 C11.47 21.95 9.08 19.55 6.69 17.14 C6.16 16.6 5.62 16.05 5.07 15.49 C3.56 13.97 2.02 12.48 0.48 10.99 C0 10.5 -0.47 10 -0.96 9.5 C-3.81 6.76 -5.4 6 -9.37 5.62 C-11.44 5.75 -13.49 5.99 -15.56 6.18 Z " fill="#070503" transform="translate(353.521240234375,131.009521484375)"/>
<path d="M0 0 C4.1 8.79 4.36 18.28 4.31 27.81 C4.31 28.96 4.31 30.1 4.31 31.28 C4.21 39.23 3.57 46.42 1 54 C0.67 54.99 0.34 55.98 0 57 C-7.38 58.11 -14.76 59.21 -22.14 60.31 C-24.64 60.68 -27.14 61.06 -29.65 61.43 C-53.54 65.01 -53.54 65.01 -62.74 66.04 C-73.61 67.26 -84.43 68.9 -95.25 70.5 C-97.37 70.81 -99.5 71.12 -101.62 71.43 C-109.46 72.58 -117.3 73.73 -125.13 74.96 C-132.32 76.07 -139.53 77.06 -146.74 78.03 C-149.12 78.36 -151.5 78.68 -153.88 79 C-160.64 79.93 -167.39 80.84 -174.15 81.76 C-178.31 82.33 -182.46 82.89 -186.62 83.46 C-188.96 83.78 -191.3 84.1 -193.64 84.41 C-195.07 84.61 -196.5 84.8 -197.94 85 C-199.18 85.17 -200.43 85.34 -201.71 85.51 C-203.72 85.81 -205.72 86.15 -207.7 86.56 C-210.82 87.16 -213.84 87.06 -217 87 C-216.98 86.03 -216.97 85.06 -216.95 84.06 C-216.9 80.36 -216.86 76.67 -216.84 72.98 C-216.82 71.4 -216.8 69.82 -216.77 68.24 C-216.62 58.76 -217.02 49.83 -219.03 40.54 C-219.84 36.7 -220.1 33.79 -219 30 C-191.6 25.93 -164.19 22.04 -136.73 18.36 C-121.1 16.26 -105.48 14.08 -89.89 11.65 C-80.04 10.13 -70.17 8.83 -60.27 7.6 C-52.56 6.62 -44.87 5.56 -37.19 4.42 C-36.26 4.28 -35.33 4.14 -34.38 4 C-29.79 3.32 -25.2 2.63 -20.62 1.93 C-18.93 1.68 -17.25 1.42 -15.56 1.17 C-14.42 0.99 -14.42 0.99 -13.25 0.81 C-8.78 0.15 -4.52 -0.11 0 0 Z " fill="#D36D00" transform="translate(470,259)"/>
<path d="M0 0 C3.09 11.61 5.17 22.53 5.25 34.56 C5.26 35.42 5.27 36.29 5.28 37.18 C5.25 43.62 4.32 49.7 3 56 C-15.67 58.93 -34.33 61.86 -53.06 64.38 C-54.29 64.54 -55.52 64.71 -56.78 64.88 C-58.48 65.11 -58.48 65.11 -60.22 65.34 C-61.2 65.47 -62.18 65.59 -63.18 65.73 C-66.14 66.01 -69.03 66.05 -72 66 C-71.98 64.91 -71.97 63.82 -71.95 62.69 C-71.9 58.55 -71.86 54.41 -71.84 50.27 C-71.82 48.5 -71.8 46.72 -71.77 44.95 C-71.6 32.94 -72.45 21.75 -75 10 C-62.07 7.35 -49.04 5.53 -35.96 3.78 C-32.41 3.31 -28.87 2.83 -25.32 2.34 C-23.04 2.04 -20.77 1.73 -18.5 1.43 C-17.44 1.28 -16.39 1.14 -15.31 0.99 C-10.16 0.31 -5.2 -0.17 0 0 Z " fill="#F2A900" transform="translate(244,291)"/>
<path d="M0 0 C0.48 2 0.96 4 1.44 6 C1.7 7.11 1.97 8.23 2.25 9.38 C3.8 16.86 4.19 24.07 4.19 31.69 C4.19 33.13 4.19 33.13 4.19 34.61 C4.03 53.97 4.03 53.97 1 57 C-4.07 57.93 -8.87 58.09 -14 58 C-13.93 57.31 -13.86 56.61 -13.78 55.89 C-12.38 40.58 -12.16 25.56 -15.34 10.47 C-15.9 7.52 -16.14 4.98 -16 2 C-10.55 0.61 -5.63 -0.24 0 0 Z " fill="#D06B00" transform="translate(164,302)"/>
<path d="M0 0 C3.67 3 7.04 5.93 10.09 9.56 C14.19 14.3 18.59 18.71 23.05 23.12 C24.54 24.6 26.03 26.08 27.51 27.56 C30.67 30.71 33.84 33.86 37 37 C40.67 40.65 44.34 44.3 48.01 47.95 C49.46 49.4 50.92 50.84 52.37 52.29 C56.22 56.11 60.01 59.93 63.54 64.05 C67.69 68.9 72.29 73.26 76.87 77.69 C78.76 79.54 80.65 81.39 82.54 83.24 C85.5 86.14 88.46 89.02 91.44 91.89 C93.4 93.78 95.35 95.67 97.28 97.58 C99.1 99.37 100.93 101.14 102.78 102.9 C109.54 109.62 109.54 109.62 109.56 114.61 C109.37 115.73 109.19 116.85 109 118 C104.14 114.11 99.99 109.87 95.83 105.24 C90.59 99.45 85.03 93.97 79.46 88.5 C76.04 85.12 72.71 81.73 69.58 78.08 C65.32 73.12 60.65 68.58 56 64 C46.37 54.51 46.37 54.51 42.53 50.03 C38.14 44.91 33.3 40.23 28.5 35.5 C22.99 30.07 17.59 24.64 12.56 18.76 C9.36 15.15 5.71 11.97 2.16 8.71 C0 6 0 6 -0.32 2.66 C-0.21 1.78 -0.11 0.91 0 0 Z " fill="#F1F1F1" transform="translate(31,208)"/>
<path d="M0 0 C7.71 6.4 14.67 13.36 21.19 20.97 C23.21 23.24 25.34 25.37 27.5 27.5 C30.91 30.86 34.07 34.34 37.19 37.97 C39.21 40.24 41.34 42.37 43.5 44.5 C46.91 47.86 50.07 51.34 53.19 54.97 C55.21 57.24 57.34 59.37 59.5 61.5 C62.91 64.86 66.07 68.34 69.19 71.97 C71.21 74.24 73.34 76.37 75.5 78.5 C78.91 81.86 82.07 85.34 85.19 88.97 C87.93 92.04 90.87 94.88 93.8 97.77 C96.45 100.46 98.92 103.28 101.36 106.16 C102.95 107.95 104.65 109.48 106.44 111.06 C109 114 109 114 109.38 117.88 C109.19 119.42 109.19 119.42 109 121 C107.91 119.91 107.91 119.91 106.8 118.8 C105.07 117.06 103.32 115.33 101.57 113.61 C97.24 109.32 93.05 105 89.09 100.38 C86.21 97.11 83.23 93.93 80.25 90.75 C72.67 82.66 65.14 74.52 57.75 66.25 C53.09 61.05 48.3 55.97 43.51 50.89 C39.41 46.52 35.37 42.1 31.38 37.63 C28.25 34.17 25.06 30.78 21.88 27.38 C17.71 22.93 13.56 18.47 9.6 13.84 C8.36 12.41 7.09 11.02 5.81 9.63 C5.07 8.82 4.33 8.02 3.56 7.19 C2.88 6.46 2.2 5.73 1.5 4.98 C0 3 0 3 0 0 Z " fill="#EFEFEF" transform="translate(30,237)"/>
<path d="M0 0 C6.59 5.49 12.73 11.29 18.31 17.81 C21.22 21.2 24.32 24.36 27.5 27.5 C31.22 31.17 34.74 34.93 38.12 38.91 C40.94 42.05 43.95 44.97 46.95 47.93 C50.2 51.15 53.22 54.49 56.19 57.97 C58.37 60.41 60.67 62.7 63 65 C65.93 67.9 68.76 70.8 71.44 73.94 C74.3 77.29 77.36 80.41 80.5 83.5 C84.22 87.17 87.73 90.93 91.12 94.9 C93.52 97.58 96.07 100.1 98.62 102.62 C108.87 112.81 108.87 112.81 109.31 116.88 C109.21 117.58 109.11 118.28 109 119 C103.87 114.9 99.45 110.33 95.06 105.46 C92.52 102.65 89.96 99.9 87.25 97.25 C84.92 94.96 82.75 92.6 80.62 90.12 C78.03 87.12 75.33 84.29 72.5 81.5 C69.09 78.14 65.93 74.66 62.81 71.03 C60.07 67.96 57.12 65.11 54.19 62.22 C51.58 59.57 49.17 56.79 46.75 53.96 C44.9 51.89 42.98 49.95 41 48 C38.4 45.44 35.94 42.83 33.56 40.06 C30.99 37.07 28.31 34.27 25.5 31.5 C22.75 28.79 20.13 26.06 17.62 23.12 C13.82 18.67 9.64 14.61 5.45 10.52 C0 4.92 0 4.92 0 0 Z " fill="#EDEDED" transform="translate(31,228)"/>
<path d="M0 0 C5.01 4.15 9.49 8.51 13.88 13.31 C20.12 20.07 26.54 26.62 33.1 33.06 C36.32 36.24 39.43 39.44 42.38 42.88 C46.66 47.84 51.33 52.4 56 57 C65.63 66.49 65.63 66.49 69.47 70.97 C73.86 76.09 78.7 80.77 83.5 85.5 C89.04 90.96 94.47 96.41 99.53 102.32 C101.98 105.12 104.74 107.56 107.5 110.04 C109.39 112.51 109.3 113.97 109 117 C100.54 110.04 92.85 102.29 85.74 93.96 C83.75 91.71 81.64 89.61 79.5 87.5 C76.78 84.81 74.17 82.1 71.69 79.19 C68.62 75.61 65.35 72.31 62 69 C58.1 65.15 54.39 61.24 50.84 57.06 C48.04 53.93 45.04 51.02 42.05 48.07 C38.78 44.83 35.73 41.46 32.74 37.96 C30.75 35.71 28.64 33.61 26.5 31.5 C23.78 28.81 21.17 26.1 18.69 23.19 C15.08 18.96 11.15 15.09 7.17 11.21 C1.87 6 1.87 6 0 3 C0 2.01 0 1.02 0 0 Z " fill="#ECECEC" transform="translate(31,219)"/>
<path d="M0 0 C5.44 4.54 10.5 9.35 15.5 14.38 C16.22 15.09 16.94 15.81 17.68 16.55 C18.4 17.26 19.11 17.98 19.84 18.71 C20.47 19.34 21.11 19.98 21.76 20.63 C23.67 22.65 25.49 24.71 27.31 26.81 C30.79 30.81 34.45 34.56 38.22 38.28 C38.88 38.94 39.54 39.6 40.22 40.27 C42.31 42.35 44.41 44.43 46.5 46.5 C49.26 49.24 52.02 51.98 54.78 54.72 C55.4 55.33 56.02 55.94 56.66 56.57 C60.36 60.26 63.83 64.07 67.25 68.02 C70.1 71.25 73.16 74.26 76.22 77.28 C76.88 77.94 77.54 78.6 78.22 79.27 C80.31 81.35 82.41 83.43 84.5 85.5 C87.26 88.24 90.02 90.98 92.78 93.72 C93.4 94.33 94.02 94.94 94.66 95.57 C98.44 99.33 102.01 103.22 105.48 107.26 C107.23 109.27 109.08 111.16 111 113 C110.5 114.49 110.5 114.49 110 116 C104.71 110.74 99.43 105.47 94.15 100.2 C92.35 98.41 90.56 96.63 88.76 94.84 C86.17 92.26 83.58 89.68 81 87.09 C80.2 86.3 79.41 85.51 78.59 84.7 C75.14 81.25 71.77 77.79 68.59 74.09 C64.61 69.46 60.29 65.18 55.95 60.88 C54.46 59.4 52.97 57.92 51.49 56.44 C48.33 53.29 45.16 50.14 42 47 C38.33 43.35 34.66 39.7 30.99 36.05 C29.54 34.6 28.08 33.16 26.63 31.71 C22.07 27.18 17.64 22.6 13.49 17.7 C10.53 14.32 7.21 11.28 3.92 8.23 C2.54 6.89 1.26 5.45 0 4 C0 2.68 0 1.36 0 0 Z " fill="#E8E8E8" transform="translate(30,198)"/>
<path d="M0 0 C0.66 0 1.32 0 2 0 C3.34 1.36 3.34 1.36 4.94 3.31 C9.65 8.85 14.83 13.9 20 19 C25.58 24.5 31.08 29.99 36.17 35.95 C40.08 40.33 44.32 44.38 48.5 48.5 C58.66 58.52 58.66 58.52 62.38 62.88 C67.4 68.74 73.01 74.07 78.5 79.5 C91.07 91.92 91.07 91.92 96.48 98.27 C99.4 101.6 102.66 104.59 105.9 107.6 C109.24 110.83 110.89 113.48 112 118 C111.33 117.33 110.67 116.67 109.98 115.98 C107.13 113.13 104.28 110.29 101.43 107.45 C98.44 104.48 95.46 101.51 92.48 98.54 C90.91 96.97 89.35 95.41 87.78 93.86 C85.5 91.59 83.22 89.32 80.95 87.04 C80.25 86.36 79.56 85.67 78.85 84.96 C74.98 81.09 71.32 77.11 67.74 72.96 C64.82 69.67 61.69 66.59 58.56 63.5 C57.88 62.82 57.19 62.14 56.49 61.44 C54.33 59.29 52.17 57.14 50 55 C47.14 52.17 44.29 49.34 41.44 46.5 C40.8 45.87 40.15 45.23 39.49 44.58 C35.72 40.82 32.17 36.94 28.69 32.91 C26.15 30.04 23.42 27.37 20.66 24.71 C19.51 23.57 18.35 22.44 17.19 21.3 C15.4 19.54 13.6 17.79 11.8 16.05 C10.04 14.34 8.29 12.62 6.54 10.89 C6 10.38 5.46 9.86 4.9 9.33 C1.91 6.36 0.31 4.26 0 0 Z " fill="#E7E7E7" transform="translate(28,187)"/>
</svg>
