<?xml version="1.0" standalone="no"?>
<!DOCTYPE svg PUBLIC "-//W3C//DTD SVG 20010904//EN"
 "http://www.w3.org/TR/2001/REC-SVG-20010904/DTD/svg10.dtd">
<svg version="1.0" xmlns="http://www.w3.org/2000/svg"
 width="500.000000pt" height="500.000000pt" viewBox="0 0 500.000000 500.000000"
 preserveAspectRatio="xMidYMid meet">
<metadata>
Created by potrace 1.16, written by Peter Selinger 2001-2019
</metadata>
<g transform="translate(0.000000,500.000000) scale(0.100000,-0.100000)"
fill="#000000" stroke="none">
<path d="M0 2500 l0 -2500 2500 0 2500 0 0 2500 0 2500 -2500 0 -2500 0 0
-2500z m3985 1088 c122 -626 218 -1138 214 -1138 -4 0 -67 47 -141 106 -175
138 -247 186 -398 262 -69 35 -168 88 -220 117 -346 192 -707 371 -770 381
-46 8 -118 -23 -150 -63 l-20 -26 -88 21 c-48 12 -103 22 -122 22 -48 0 -114
-35 -156 -83 -29 -34 -105 -158 -117 -190 -1 -4 -21 -5 -44 -1 -40 6 -46 12
-170 181 -70 97 -160 208 -200 248 -39 40 -84 97 -99 126 -48 95 -82 102 -183
35 -216 -145 -441 -379 -486 -507 -9 -24 -48 -107 -88 -187 l-72 -144 -60 -30
c-179 -91 -385 -272 -416 -365 -9 -28 -7 -41 14 -85 13 -29 40 -70 60 -92 20
-21 56 -68 78 -105 111 -177 302 -394 412 -469 26 -18 47 -37 47 -42 0 -6 -21
-56 -46 -112 -84 -186 -194 -441 -194 -450 0 -4 7 -8 15 -8 8 0 15 4 15 10 0
9 152 358 215 493 l27 58 25 -16 c13 -9 55 -28 91 -42 55 -21 78 -24 129 -19
l63 5 -54 -107 c-142 -284 -406 -900 -406 -949 0 -43 29 13 109 212 98 244
180 429 301 682 l81 169 84 27 c45 15 127 50 181 77 63 33 110 50 133 50 20 0
68 9 106 19 l69 19 28 -23 c15 -13 43 -28 62 -35 23 -7 33 -16 30 -25 -5 -11
201 -475 341 -768 62 -131 76 -140 210 -134 72 4 146 17 265 47 91 22 206 50
257 61 51 11 140 35 198 54 l107 35 166 -153 c253 -232 364 -327 382 -327 28
0 83 43 112 87 16 23 61 65 100 95 106 78 290 232 390 327 49 46 88 81 88 79
0 -2 36 -183 80 -403 44 -220 80 -412 80 -427 l0 -28 -2280 0 -2280 0 0 2295
0 2295 1837 -2 1837 -3 221 -1137z m-2527 -67 c12 -27 53 -79 90 -117 54 -55
296 -364 289 -370 -1 -1 -60 11 -132 27 -156 35 -423 57 -437 37 -4 -7 -8 -16
-8 -19 0 -7 115 -19 191 -19 74 0 407 -65 425 -83 3 -3 -12 -31 -34 -64 -45
-65 -94 -180 -111 -261 -16 -79 -13 -162 9 -233 10 -35 18 -64 17 -64 -1 -1
-33 -7 -70 -14 l-68 -12 -107 79 c-59 43 -195 138 -303 209 -214 143 -234 163
-304 303 -36 72 -37 77 -26 119 19 70 90 168 203 277 119 115 301 254 332 254
15 -1 27 -14 44 -49z m1469 -380 c131 -66 306 -157 388 -202 83 -45 214 -114
292 -154 178 -92 247 -137 403 -262 69 -55 140 -108 158 -117 46 -24 212 -35
500 -36 l232 0 0 -595 c0 -522 -2 -595 -15 -595 -8 0 -15 7 -15 15 0 8 -5 15
-11 15 -15 0 -666 97 -774 116 -49 8 -127 24 -171 35 -68 16 -115 19 -285 18
-157 -1 -261 5 -449 24 -344 37 -460 54 -530 78 -21 7 -106 13 -215 14 -99 2
-186 3 -193 4 -7 0 -43 30 -80 65 -57 53 -76 64 -114 70 -42 6 -48 11 -58 41
-6 18 -22 45 -36 60 -34 37 -18 46 49 28 109 -30 292 0 372 61 31 24 38 25 99
18 36 -5 68 -6 71 -4 3 3 5 15 5 28 0 19 -7 23 -52 29 -29 4 -65 16 -79 26
-15 10 -55 25 -90 33 -72 17 -643 106 -677 106 -12 0 -37 14 -56 31 l-35 31
21 29 c16 21 19 32 11 40 -8 8 -14 5 -22 -10 -15 -26 -31 -27 -31 -2 0 49 95
111 171 111 14 0 88 16 163 35 75 20 185 42 244 50 104 14 218 35 295 56 26 7
37 15 37 29 0 30 -16 33 -95 14 l-74 -17 -38 25 c-70 46 -117 65 -200 82 -46
9 -90 19 -98 22 -11 5 -15 -1 -15 -24 0 -28 4 -31 51 -42 52 -13 54 -14 63
-66 l5 -30 -102 -24 c-56 -14 -109 -26 -118 -28 -21 -4 -47 68 -55 148 -10
101 64 314 135 389 l32 34 72 -7 c40 -4 149 -25 242 -48 153 -38 183 -42 297
-43 69 0 129 3 133 7 4 4 5 18 1 31 -6 24 -8 24 -48 15 -65 -15 -176 -2 -358
42 -91 22 -173 40 -182 40 -10 0 -18 3 -18 6 0 22 73 137 112 177 44 44 50 47
99 47 92 0 203 -38 389 -133 174 -89 176 -90 263 -95 94 -5 113 2 103 35 -6
18 -16 20 -89 20 -82 0 -85 1 -183 54 -54 30 -128 68 -163 84 l-63 30 33 27
c57 48 80 42 346 -91z m-2067 -328 c-59 -94 -46 -190 33 -260 18 -16 41 -42
51 -58 11 -17 42 -53 69 -82 l49 -52 -103 -138 c-57 -75 -139 -174 -181 -220
-105 -111 -103 -144 12 -168 41 -8 130 -45 130 -53 0 -16 -74 -162 -83 -162
-15 0 -127 93 -183 152 -96 101 -211 251 -276 361 -16 27 -41 59 -57 72 -15
13 -39 44 -52 69 l-24 46 24 46 c42 79 230 232 369 301 l73 36 67 128 67 128
23 -47 24 -48 -32 -51z m119 -76 c14 -16 100 -78 191 -139 91 -61 219 -149
286 -196 l121 -86 -45 -42 c-44 -43 -44 -43 -40 -103 3 -40 1 -58 -6 -54 -41
23 -214 148 -294 212 -95 76 -202 181 -202 198 0 5 -25 34 -55 65 -51 52 -55
59 -55 103 0 31 7 60 21 82 l21 34 16 -23 c8 -13 27 -36 41 -51z m392 -611
l107 -72 -47 -77 -46 -77 -50 0 c-62 0 -162 16 -234 36 -44 12 -52 18 -48 34
6 22 -19 35 -27 14 -5 -13 -10 -12 -33 5 -16 10 -52 25 -81 31 l-52 12 32 43
c18 24 70 93 116 153 l84 110 86 -70 c48 -38 135 -102 193 -142z m271 -121
c175 -19 699 -103 712 -115 12 -12 -48 -47 -113 -66 -65 -20 -180 -21 -241 -3
-25 7 -52 14 -60 15 -8 1 -42 12 -75 24 -50 19 -91 24 -248 30 -103 4 -189 9
-192 12 -3 2 14 34 37 70 l42 66 38 -14 c20 -7 66 -16 100 -19z m-737 -21 c35
-9 71 -24 80 -34 15 -17 14 -22 -15 -74 -18 -31 -34 -56 -36 -56 -3 0 -21 8
-42 19 -20 10 -60 24 -87 30 -83 19 -84 23 -30 80 26 28 52 51 57 51 5 0 38
-7 73 -16z m224 -95 c40 -10 108 -22 151 -25 l77 -7 -38 -65 c-21 -37 -40 -70
-42 -75 -4 -13 -284 67 -304 86 -2 3 9 30 24 61 20 41 32 55 43 50 8 -3 48
-14 89 -25z m704 -56 c31 -9 57 -20 57 -25 0 -25 -228 -106 -332 -117 -63 -7
-236 3 -247 14 -2 3 16 39 40 81 l44 76 190 -7 c122 -4 211 -12 248 -22z
m-750 -109 c53 -18 113 -36 132 -40 19 -3 35 -9 35 -13 0 -3 -15 -33 -33 -66
-36 -67 -46 -72 -151 -74 -47 -1 -74 6 -128 30 -37 18 -68 36 -68 41 0 5 18
45 41 89 32 65 43 79 57 74 9 -4 61 -22 115 -41z m922 -139 c53 -7 64 -13 122
-67 35 -32 75 -63 89 -68 14 -6 103 -10 198 -10 122 0 187 -4 222 -15 42 -12
83 -46 294 -240 135 -125 251 -232 258 -240 12 -10 1 -17 -65 -38 -92 -31
-504 -132 -618 -153 -160 -28 -189 -19 -234 79 -91 199 -307 670 -327 716 -16
35 -19 51 -10 48 7 -3 39 -8 71 -12z m993 -279 c41 -39 163 -165 271 -281 282
-298 443 -484 330 -379 -24 22 -120 110 -214 195 -129 117 -483 442 -590 541
-6 6 17 7 60 3 l70 -7 73 -72z m217 38 c86 -10 250 -18 385 -19 177 -2 250 -6
295 -18 54 -14 357 -66 577 -99 l88 -13 -29 -44 c-76 -114 -295 -321 -532
-502 -66 -49 -119 -94 -119 -99 0 -15 -61 -80 -74 -80 -7 0 -31 28 -55 61 -87
123 -314 377 -616 687 l-150 155 40 -7 c22 -3 108 -13 190 -22z"/>
</g>
</svg>
