<?xml version="1.0" encoding="UTF-8"?>
<!-- Generator: visioncortex VTracer 0.6.4 -->
<svg version="1.1" xmlns="http://www.w3.org/2000/svg" width="500" height="500">
<path d="M0 0 C0.18 0.94 0.18 0.94 0.37 1.91 C1.63 8.49 2.9 15.08 4.16 21.67 C4.63 24.12 5.11 26.58 5.58 29.03 C6.26 32.57 6.94 36.11 7.62 39.65 C7.93 41.28 7.93 41.28 8.25 42.94 C9.33 48.55 10.43 54.17 11.55 59.77 C12.17 62.85 12.77 65.94 13.37 69.02 C13.61 70.28 13.85 71.54 14.11 72.84 C14.23 73.49 14.36 74.14 14.49 74.8 C14.88 76.85 15.28 78.9 15.68 80.95 C16.86 87.05 18.03 93.14 19.18 99.24 C19.35 100.16 19.52 101.08 19.7 102.03 C20.01 103.68 20.32 105.32 20.62 106.96 C21.44 111.35 22.39 115.69 23.42 120.03 C24.9 126.42 26.09 132.84 27.2 139.3 C29.26 151.07 31.48 162.79 33.77 174.51 C34.02 175.77 34.02 175.77 34.27 177.05 C35.45 183.08 36.63 189.1 37.81 195.12 C39.01 201.24 40.21 207.36 41.41 213.48 C41.89 215.91 42.36 218.33 42.84 220.75 C43.13 222.22 43.42 223.68 43.7 225.15 C44.08 227.07 44.08 227.07 44.46 229.02 C45 232 45 232 45 234 C77.17 234.5 77.17 234.5 110 235 C110 236.98 110 238.96 110 241 C109.34 241 108.68 241 108 241 C108 280.6 108 320.2 108 361 C107.34 361.33 106.68 361.66 106 362 C106 362.33 106 362.66 106 363 C88.14 362.04 88.14 362.04 80 361 C79.58 361.64 79.16 362.28 78.72 362.93 C77.9 364.17 77.9 364.17 77.06 365.44 C76.24 366.67 76.24 366.67 75.41 367.93 C74 370 74 370 73 371 C73.03 373.03 73.03 373.03 73.31 375.44 C73.39 376.24 73.47 377.04 73.55 377.87 C73.9 380.32 74.32 382.71 74.81 385.13 C75.08 386.47 75.08 386.47 75.36 387.83 C76.41 392.99 77.46 398.15 78.51 403.31 C79.69 409.06 80.86 414.81 82.03 420.56 C82.92 424.92 83.81 429.27 84.7 433.63 C85.57 437.87 86.43 442.11 87.3 446.35 C87.62 447.96 87.95 449.57 88.28 451.18 C88.74 453.42 89.2 455.67 89.65 457.91 C89.92 459.19 90.18 460.46 90.44 461.78 C91 465 91 465 91 469 C89.02 469.33 87.04 469.66 85 470 C84.34 468.02 83.68 466.04 83 464 C-67.81 464 -218.62 464 -374 464 C-374.04 348.85 -374.04 348.85 -374.05 300.89 C-374.05 290.61 -374.05 280.33 -374.05 270.05 C-374.05 268.65 -374.06 267.26 -374.06 265.86 C-374.06 243.61 -374.07 221.36 -374.08 199.1 C-374.09 175.6 -374.09 152.09 -374.09 128.58 C-374.1 114.49 -374.1 100.4 -374.11 86.31 C-374.11 76.66 -374.11 67.01 -374.11 57.36 C-374.11 51.79 -374.11 46.21 -374.12 40.63 C-374.12 35.54 -374.12 30.44 -374.12 25.35 C-374.12 23.5 -374.12 21.64 -374.12 19.79 C-374.13 17.29 -374.13 14.79 -374.12 12.29 C-374.13 11.56 -374.13 10.82 -374.13 10.07 C-374.11 5.11 -374.11 5.11 -373 4 C-371.06 3.9 -369.11 3.87 -367.16 3.86 C-365.88 3.86 -364.61 3.85 -363.29 3.84 C-361.86 3.84 -360.42 3.84 -358.98 3.84 C-357.47 3.84 -355.96 3.83 -354.45 3.83 C-350.28 3.81 -346.11 3.81 -341.94 3.8 C-337.45 3.79 -332.96 3.78 -328.47 3.76 C-320.68 3.74 -312.9 3.72 -305.11 3.71 C-293.86 3.69 -282.6 3.66 -271.34 3.63 C-253.08 3.58 -234.82 3.54 -216.55 3.5 C-198.81 3.46 -181.06 3.42 -163.32 3.37 C-162.22 3.37 -161.13 3.37 -160.01 3.36 C-154.52 3.35 -149.04 3.34 -143.56 3.32 C-98.04 3.21 -52.52 3.1 -7 3 C-7 2.01 -7 1.02 -7 0 C-3.99 -0.93 -3.13 -1.04 0 0 Z " fill="#E8E8E8" transform="translate(382,22)"/>
<path d="M0 0 C0.18 0.94 0.18 0.94 0.37 1.91 C1.63 8.49 2.9 15.08 4.16 21.67 C4.63 24.12 5.11 26.58 5.58 29.03 C6.26 32.57 6.94 36.11 7.62 39.65 C7.93 41.28 7.93 41.28 8.25 42.94 C9.33 48.55 10.43 54.17 11.55 59.77 C12.17 62.85 12.77 65.94 13.37 69.02 C13.61 70.28 13.85 71.54 14.11 72.84 C14.23 73.49 14.36 74.14 14.49 74.8 C14.88 76.85 15.28 78.9 15.68 80.95 C16.86 87.05 18.03 93.14 19.18 99.24 C19.35 100.16 19.52 101.08 19.7 102.03 C20.01 103.68 20.32 105.32 20.62 106.96 C21.44 111.35 22.39 115.69 23.42 120.03 C24.9 126.42 26.09 132.84 27.2 139.3 C29.26 151.07 31.48 162.79 33.77 174.51 C34.02 175.77 34.02 175.77 34.27 177.05 C35.45 183.08 36.63 189.1 37.81 195.12 C39.01 201.24 40.21 207.36 41.41 213.48 C41.89 215.91 42.36 218.33 42.84 220.75 C43.13 222.22 43.42 223.68 43.7 225.15 C44.08 227.07 44.08 227.07 44.46 229.02 C45 232 45 232 45 234 C77.17 234.5 77.17 234.5 110 235 C110 236.98 110 238.96 110 241 C109.34 241 108.68 241 108 241 C108 280.6 108 320.2 108 361 C107.34 361.33 106.68 361.66 106 362 C106 362.33 106 362.66 106 363 C88.14 362.04 88.14 362.04 80 361 C79.58 361.64 79.16 362.28 78.72 362.93 C77.9 364.17 77.9 364.17 77.06 365.44 C76.24 366.67 76.24 366.67 75.41 367.93 C74 370 74 370 73 371 C73.03 373.03 73.03 373.03 73.31 375.44 C73.39 376.24 73.47 377.04 73.55 377.87 C73.9 380.32 74.32 382.71 74.81 385.13 C75.08 386.47 75.08 386.47 75.36 387.83 C76.41 392.99 77.46 398.15 78.51 403.31 C79.69 409.06 80.86 414.81 82.03 420.56 C82.92 424.92 83.81 429.27 84.7 433.63 C85.57 437.87 86.43 442.11 87.3 446.35 C87.62 447.96 87.95 449.57 88.28 451.18 C88.74 453.42 89.2 455.67 89.65 457.91 C89.92 459.19 90.18 460.46 90.44 461.78 C91 465 91 465 91 469 C89.02 469.33 87.04 469.66 85 470 C83.4 466.38 82.64 463.18 82.18 459.26 C80.68 448.04 78.33 436.97 76.12 425.88 C75.69 423.65 75.25 421.43 74.81 419.2 C72.23 406.13 69.62 393.06 67 380 C64.72 379.77 64.72 379.77 62.68 382.16 C61.74 383.12 60.81 384.09 59.88 385.06 C55.42 389.61 50.86 393.89 46 398 C45.12 398.77 44.23 399.55 43.32 400.34 C38.34 404.67 33.29 408.83 27.96 412.73 C26.64 413.7 26.64 413.7 25.29 414.68 C23.56 415.95 21.82 417.2 20.07 418.43 C14.99 422.12 11.2 425.86 7.58 431 C5.17 434.05 2.83 435.69 -0.81 437.04 C-5.6 436.98 -7.69 434.5 -11.06 431.31 C-11.71 430.72 -12.36 430.13 -13.04 429.52 C-15.04 427.7 -17.02 425.85 -19 424 C-20.17 422.92 -21.34 421.85 -22.52 420.78 C-24.69 418.78 -26.86 416.78 -29.02 414.77 C-31.67 412.3 -34.36 409.86 -37.06 407.44 C-40.9 404 -44.7 400.54 -48.5 397.06 C-49.28 396.35 -49.28 396.35 -50.07 395.63 C-52.08 393.78 -54.07 391.93 -56 390 C-57.93 390.11 -57.93 390.11 -60.07 390.71 C-61.29 391.02 -61.29 391.02 -62.53 391.33 C-66.31 392.36 -70.06 393.44 -73.81 394.56 C-83.21 397.3 -92.67 399.76 -102.16 402.15 C-103.75 402.54 -105.33 402.94 -106.91 403.34 C-130.62 409.35 -130.62 409.35 -142.94 409.38 C-143.65 409.4 -144.37 409.42 -145.1 409.45 C-150.18 409.48 -152.39 408.49 -156 405 C-157.41 402.64 -158.61 400.4 -159.77 397.92 C-160.11 397.22 -160.44 396.52 -160.79 395.8 C-161.88 393.54 -162.94 391.27 -164 389 C-164.35 388.26 -164.7 387.52 -165.06 386.75 C-167.64 381.29 -170.17 375.8 -172.69 370.31 C-173.07 369.47 -173.46 368.64 -173.85 367.77 C-176.58 361.85 -179.29 355.93 -182 350 C-182.35 349.23 -182.7 348.46 -183.06 347.67 C-184.98 343.5 -186.88 339.32 -188.77 335.13 C-189.34 333.89 -189.9 332.64 -190.47 331.39 C-191.25 329.69 -192.02 327.98 -192.79 326.27 C-193.22 325.31 -193.65 324.36 -194.09 323.38 C-195 321 -195 321 -195 318 C-195.63 317.66 -196.25 317.32 -196.9 316.98 C-197.72 316.53 -198.53 316.08 -199.38 315.62 C-200.19 315.18 -201 314.74 -201.84 314.29 C-204 313 -204 313 -206 311 C-209.24 311.3 -212.14 312.04 -215.25 313 C-218.33 313.82 -220.34 314.05 -223.44 314.12 C-230.69 314.72 -236.74 318.67 -243.05 322 C-249.75 325.44 -256.43 328.48 -264 329 C-264.26 329.84 -264.52 330.68 -264.78 331.55 C-266.09 335.24 -267.71 338.69 -269.46 342.19 C-270.16 343.61 -270.86 345.03 -271.56 346.45 C-271.93 347.19 -272.29 347.93 -272.67 348.69 C-284.81 373.25 -295.48 398.33 -305.54 423.81 C-307.29 428.24 -309.09 432.64 -311 437 C-311.66 436.67 -312.32 436.34 -313 436 C-312.39 431.18 -310.97 426.95 -309.15 422.48 C-308.86 421.76 -308.57 421.03 -308.27 420.29 C-307.31 417.92 -306.34 415.55 -305.38 413.19 C-304.88 411.96 -304.88 411.96 -304.37 410.71 C-293.34 383.68 -281.1 357.09 -268 331 C-268.79 331.06 -269.58 331.12 -270.39 331.18 C-280.87 331.61 -288.76 328.65 -298 324 C-306.32 342.21 -314.46 360.45 -322 379 C-322.99 379 -323.98 379 -325 379 C-324.35 374.91 -323.03 371.45 -321.38 367.65 C-321.11 367.05 -320.85 366.44 -320.58 365.82 C-320.01 364.52 -319.45 363.23 -318.88 361.94 C-317.99 359.92 -317.11 357.9 -316.24 355.88 C-313.58 349.8 -310.9 343.73 -308.1 337.71 C-307.68 336.8 -307.26 335.89 -306.82 334.94 C-306.04 333.27 -305.25 331.6 -304.45 329.94 C-302.51 326.06 -302.51 326.06 -302.32 321.85 C-303.2 319.46 -304.2 318.83 -306.31 317.44 C-322.79 305.66 -335.07 289.84 -346 273 C-346.47 272.28 -346.94 271.56 -347.43 270.82 C-347.89 270.1 -348.34 269.39 -348.82 268.65 C-349.23 268 -349.65 267.35 -350.08 266.68 C-351 265 -351 265 -351 263 C-351.6 262.76 -352.19 262.52 -352.8 262.27 C-355.44 260.75 -356.49 259.24 -358.12 256.69 C-358.62 255.93 -359.12 255.17 -359.63 254.39 C-361.71 250.76 -363.07 248.27 -362.84 244.02 C-358.88 229.79 -342.21 218.32 -330 211 C-328.72 210.4 -327.43 209.84 -326.12 209.29 C-313.58 203.99 -310.03 195.2 -305 183 C-304.09 181 -303.18 179 -302.25 177 C-301.88 176.18 -301.51 175.35 -301.12 174.5 C-300.75 173.68 -300.38 172.85 -300 172 C-299.57 171.03 -299.13 170.06 -298.69 169.06 C-288.73 147.85 -265 125.5 -244 115 C-237.84 114.43 -237.84 114.43 -234.88 116.44 C-233.24 118.67 -231.99 120.82 -230.69 123.25 C-227.53 129.16 -223.27 133.75 -218.53 138.44 C-210.36 146.7 -203.75 156.34 -197.02 165.77 C-196.5 166.48 -195.99 167.19 -195.47 167.92 C-194.51 169.28 -193.57 170.66 -192.67 172.05 C-190.22 175.77 -190.22 175.77 -186.54 178.12 C-185.77 178.23 -184.99 178.33 -184.19 178.44 C-183.4 178.56 -182.61 178.68 -181.79 178.81 C-181.2 178.87 -180.61 178.93 -180 179 C-179.76 178.15 -179.51 177.31 -179.26 176.44 C-177.87 172.64 -176 169.38 -173.81 166 C-173.41 165.38 -173.02 164.77 -172.6 164.13 C-168.76 158.35 -164.53 153.79 -158 151 C-149 149.47 -139.64 152.76 -131 155 C-130.75 154.4 -130.49 153.79 -130.23 153.17 C-128.13 149.46 -124.79 147.77 -121 146 C-110.19 143.92 -97.84 152.99 -88.42 157.78 C-85.76 159.12 -83.09 160.44 -80.41 161.76 C-65.85 168.96 -51.56 176.58 -37.36 184.47 C-34.78 185.9 -32.2 187.32 -29.62 188.75 C-28.39 189.44 -28.39 189.44 -27.13 190.13 C-22.05 192.93 -16.91 195.54 -11.69 198.06 C0.45 203.99 11.11 211.88 21.61 220.3 C26.64 224.33 31.82 228.16 37 232 C36.4 223.18 34.67 214.59 32.94 205.94 C32.63 204.36 32.31 202.78 32 201.2 C31.35 197.86 30.69 194.52 30.02 191.17 C28.48 183.4 26.96 175.63 25.45 167.86 C25.11 166.11 24.76 164.37 24.42 162.62 C22.25 151.51 20.13 140.39 18.06 129.25 C15.66 116.29 13.1 103.36 10.5 90.44 C10.31 89.47 10.11 88.5 9.91 87.5 C9.72 86.54 9.52 85.57 9.32 84.58 C4.69 61.5 0.23 38.38 -4.08 15.24 C-4.32 13.97 -4.56 12.7 -4.8 11.4 C-5.11 9.72 -5.11 9.72 -5.43 8.01 C-5.94 5.34 -6.46 2.67 -7 0 C-3.99 -0.93 -3.13 -1.04 0 0 Z " fill="#0A0A0B" transform="translate(382,22)"/>
<path d="M0 0 C17.44 6.73 26.06 36.95 33.36 52.91 C35.04 56.72 36.67 60.55 38.23 64.41 C38.56 65.21 38.89 66.01 39.23 66.83 C40.72 70.65 41.77 73.73 41.36 77.91 C36.74 73.62 33.17 68.77 29.48 63.66 C25.92 58.75 22.35 53.84 18.67 49.02 C18.13 48.31 17.59 47.6 17.04 46.87 C15.28 44.81 13.41 43.17 11.3 41.47 C6.5 37.48 2.2 31.89 0.89 25.67 C0.71 25.09 0.54 24.51 0.36 23.91 C-3.26 22.7 -5.83 22.59 -9.64 22.91 C-12.87 24.51 -12.87 24.51 -15.89 26.85 C-16.73 27.46 -16.73 27.46 -17.59 28.08 C-27.51 35.39 -36.67 43.48 -45.64 51.91 C-46.32 52.54 -47 53.17 -47.71 53.81 C-56.61 62.28 -61.87 72.72 -66.83 83.79 C-67.25 84.69 -67.67 85.59 -68.1 86.52 C-68.96 88.4 -69.8 90.29 -70.58 92.21 C-75.98 105.37 -80.71 112.21 -93.77 118.02 C-98.5 120.27 -102.55 123.67 -106.64 126.91 C-107.17 127.33 -107.71 127.74 -108.25 128.17 C-120.4 137.6 -120.4 137.6 -127.45 150.89 C-127.83 156.94 -123.96 162.09 -120.52 166.85 C-118.78 168.82 -118.78 168.82 -117.28 170.14 C-114.98 172.63 -113.3 175.47 -111.52 178.35 C-99.72 196.97 -85.25 215.65 -66.64 227.91 C-67.28 231.91 -68.54 235.22 -70.23 238.9 C-70.76 240.07 -71.3 241.24 -71.84 242.45 C-72.13 243.06 -72.41 243.68 -72.7 244.31 C-74.19 247.55 -75.65 250.79 -77.12 254.04 C-77.41 254.69 -77.71 255.35 -78.02 256.02 C-82.45 265.89 -86.55 275.9 -90.64 285.91 C-89.65 285.91 -88.66 285.91 -87.64 285.91 C-87.53 285.22 -87.42 284.52 -87.3 283.81 C-86.55 280.51 -85.37 277.66 -84.02 274.56 C-83.75 273.96 -83.49 273.35 -83.22 272.73 C-82.36 270.77 -81.5 268.81 -80.64 266.85 C-80.05 265.5 -79.46 264.15 -78.87 262.8 C-74.21 252.13 -69.46 241.51 -64.64 230.91 C-61.14 230.91 -59.35 231.84 -56.2 233.35 C-49.03 236.77 -43.74 237.01 -35.78 236.94 C-34.74 236.93 -33.71 236.92 -32.64 236.91 C-33.47 238.65 -33.47 238.65 -34.31 240.42 C-36.75 245.58 -39.2 250.75 -41.64 255.91 C-42.01 256.69 -42.38 257.47 -42.76 258.28 C-54.21 282.51 -64.94 306.93 -74.64 331.91 C-74.92 332.62 -75.2 333.32 -75.49 334.05 C-77.17 338.35 -77.17 338.35 -77.64 342.91 C-73.6 334.37 -70.09 325.64 -66.6 316.87 C-59.84 299.92 -52.54 283.36 -44.64 266.91 C-43.52 264.55 -42.39 262.2 -41.27 259.84 C-35.92 248.65 -35.92 248.65 -33.77 244.29 C-32.86 242.36 -32.05 240.38 -31.29 238.39 C-28.92 234.83 -25.88 234.15 -21.95 233.04 C-13 230.21 -4.92 226.29 3.36 221.91 C6.81 220.18 10.87 220.17 14.69 219.75 C17.69 219.38 20.29 218.94 23.09 217.78 C25.76 216.76 26.73 216.86 29.36 217.91 C31.39 219.03 31.39 219.03 33.42 220.35 C34.09 220.78 34.77 221.21 35.46 221.66 C40.35 224.88 40.35 224.88 40.87 227.13 C41.11 228.51 41.11 228.51 41.36 229.91 C42.23 232.07 43.17 234.2 44.14 236.32 C44.43 236.94 44.71 237.57 45.01 238.21 C45.95 240.28 46.91 242.34 47.86 244.41 C48.53 245.87 49.19 247.32 49.86 248.78 C51.28 251.87 52.7 254.96 54.12 258.05 C56.02 262.16 57.9 266.28 59.78 270.39 C61.29 273.7 62.81 277.01 64.32 280.31 C65.05 281.9 65.77 283.49 66.5 285.07 C68.76 290.03 71.05 294.97 73.36 299.91 C73.79 300.83 73.79 300.83 74.22 301.77 C75 303.45 75.8 305.12 76.61 306.8 C77.04 307.72 77.48 308.64 77.94 309.6 C79.49 312.12 80.81 313.4 83.36 314.91 C92.15 316.03 100.95 315.04 109.58 313.23 C110.43 313.05 111.29 312.88 112.17 312.69 C121.37 310.76 130.48 308.48 139.58 306.13 C142.38 305.4 145.19 304.69 148 303.98 C156.49 301.8 164.87 299.61 173.08 296.49 C175.64 295.84 176.92 295.95 179.36 296.91 C181.44 298.73 181.44 298.73 183.61 301.04 C186.36 303.88 189.1 306.64 192.11 309.22 C195.73 312.33 199.24 315.54 202.73 318.79 C208.23 323.87 213.74 328.95 219.36 333.91 C220.3 334.76 221.24 335.62 222.21 336.5 C223.17 337.34 224.12 338.17 225.11 339.04 C225.97 339.8 226.83 340.57 227.72 341.36 C230.3 343.19 230.3 343.19 233.49 342.79 C238.44 341.27 241.41 338.49 244.01 334.15 C246.78 329.9 250.77 327.21 254.8 324.22 C256.42 322.99 258.04 321.76 259.66 320.52 C260.46 319.91 261.26 319.3 262.08 318.68 C267.33 314.61 272.34 310.26 277.36 305.91 C278.09 305.28 278.83 304.64 279.58 303.99 C283.26 300.8 286.87 297.55 290.48 294.29 C294.04 291.07 297.64 287.94 301.36 284.91 C303.29 292.42 305.05 299.93 306.55 307.54 C306.75 308.55 306.95 309.57 307.16 310.62 C307.75 313.65 308.34 316.68 308.93 319.71 C309.41 322.16 309.89 324.6 310.37 327.05 C311.29 331.76 312.21 336.47 313.12 341.18 C313.49 343.08 313.85 344.97 314.23 346.86 C314.75 349.54 315.27 352.23 315.79 354.92 C315.94 355.72 316.1 356.52 316.27 357.35 C316.48 358.49 316.48 358.49 316.7 359.66 C316.89 360.64 316.89 360.64 317.09 361.64 C317.45 364.71 317.36 367.82 317.36 370.91 C166.55 370.91 15.74 370.91 -139.64 370.91 C-139.64 291.71 -139.64 212.51 -139.64 130.91 C-138.98 130.91 -138.32 130.91 -137.64 130.91 C-137.42 130.36 -137.19 129.81 -136.96 129.24 C-135.23 126.18 -132.98 124.1 -130.45 121.66 C-126.55 117.85 -122.86 113.95 -119.32 109.8 C-116.88 107.05 -114.24 104.5 -111.62 101.92 C-109.04 99.3 -106.65 96.53 -104.25 93.74 C-102.15 91.35 -99.93 89.13 -97.64 86.91 C-93.41 88.22 -89.57 89.85 -85.64 91.91 C-85.63 91.36 -85.61 90.81 -85.6 90.25 C-84.58 73.36 -76.08 53.61 -63.52 42.12 C-55.75 36.15 -44.8 27.91 -34.64 27.91 C-34.87 27.21 -35.09 26.51 -35.33 25.79 C-35.76 21.8 -34.91 20.21 -32.64 16.91 C-27.06 12.75 -20.71 9.87 -14.45 6.85 C-11.21 5.27 -8.4 3.74 -5.46 1.6 C-2.64 -0.09 -2.64 -0.09 0 0 Z " fill="#FEFEFE" transform="translate(147.640625,115.08984375)"/>
<path d="M0 0 C2.61 0.85 4.86 1.71 7.31 2.88 C8 3.19 8.69 3.5 9.4 3.83 C16.22 7 22.86 10.52 29.5 14.07 C33.59 16.27 37.71 18.4 41.85 20.52 C54.43 26.96 66.88 33.53 79.15 40.56 C84.58 43.67 90.06 46.62 95.69 49.38 C109.01 55.92 120.44 63.81 131.88 73.17 C132.53 73.7 133.19 74.23 133.86 74.78 C135.12 75.81 136.38 76.85 137.62 77.89 C159.83 96.04 195.5 88.43 221 89 C221 128.6 221 168.2 221 209 C220.01 208.67 219.02 208.34 218 208 C218 207.01 218 206.02 218 205 C216.74 204.89 215.49 204.79 214.19 204.68 C200.92 203.52 187.83 201.74 174.69 199.62 C172.7 199.31 170.72 199 168.73 198.68 C163.99 197.93 159.24 197.16 154.49 196.4 C152.26 196.04 150.02 195.69 147.78 195.33 C144.48 194.81 141.18 194.28 137.88 193.75 C137 193.61 136.12 193.47 135.21 193.33 C130.97 192.63 127.01 191.69 122.91 190.38 C116.25 188.51 109.71 188.89 102.87 189.12 C84.15 189.67 65.73 188.14 47.12 186.19 C45.85 186.06 44.58 185.93 43.28 185.79 C12.62 182.6 12.62 182.6 -1.55 179.13 C-7.93 177.58 -13.7 176.8 -20.23 177.02 C-21.28 177.06 -21.28 177.06 -22.35 177.09 C-25.21 177.2 -28.06 177.33 -30.92 177.51 C-42.98 178.24 -42.98 178.24 -48.13 175.08 C-50.63 172.84 -52.83 170.55 -55 168 C-57.73 165.01 -59.35 164.59 -63.38 163.94 C-66.97 163.07 -68.54 162.63 -70.76 159.62 C-72.06 156.87 -72.06 156.87 -73.1 154.18 C-73.79 151.83 -73.79 151.83 -76 151 C-76 150.34 -76 149.68 -76 149 C-72.94 148.02 -71.13 148.04 -68.06 148.94 C-57.06 151.54 -46.45 150.18 -36 146 C-34.07 144.65 -34.07 144.65 -32.5 143.19 C-29.09 140.28 -25.88 140.88 -21.56 141.19 C-19.37 141.43 -17.18 141.69 -15 142 C-14.67 140.35 -14.34 138.7 -14 137 C-15.07 136.96 -15.07 136.96 -16.16 136.92 C-17.12 136.87 -18.08 136.81 -19.06 136.75 C-20 136.7 -20.94 136.66 -21.91 136.61 C-25.17 135.97 -27.39 134.67 -30.21 132.95 C-33.09 131.42 -35.98 131.04 -39.19 130.56 C-40.7 130.32 -42.21 130.08 -43.71 129.84 C-44.97 129.65 -44.97 129.65 -46.25 129.45 C-49.28 128.95 -52.3 128.4 -55.32 127.84 C-70.11 125.1 -70.11 125.1 -85 122.96 C-86.96 122.72 -86.96 122.72 -88.96 122.47 C-91.47 122.16 -93.98 121.88 -96.5 121.61 C-103.43 120.77 -107.73 119.68 -113 115 C-112.67 114.24 -112.34 113.47 -112 112.69 C-110.83 110.01 -110.83 110.01 -111 107 C-111.66 107.99 -112.32 108.98 -113 110 C-113.66 110 -114.32 110 -115 110 C-115.44 107.88 -115.44 107.88 -115 105 C-110.13 99.38 -104.66 97.06 -97.38 96.19 C-91.97 95.42 -86.92 94.19 -81.69 92.69 C-71.44 89.8 -60.99 88.29 -50.47 86.79 C-43.31 85.75 -36.35 84.48 -29.37 82.57 C-27 82 -27 82 -24 82 C-24.33 80.68 -24.66 79.36 -25 78 C-26.06 78.24 -27.13 78.47 -28.23 78.72 C-36.21 80.24 -41.69 80.99 -48.81 76.38 C-49.35 76 -49.89 75.63 -50.45 75.25 C-58.08 70.2 -67.11 69.36 -76 68 C-76 69.65 -76 71.3 -76 73 C-74.74 73.14 -73.48 73.29 -72.19 73.44 C-69.57 73.74 -67.53 74.16 -65 75 C-64.5 79.45 -64.5 79.45 -64 84 C-67.44 84.84 -70.87 85.67 -74.31 86.5 C-75.78 86.86 -75.78 86.86 -77.27 87.22 C-78.21 87.45 -79.15 87.67 -80.11 87.91 C-80.98 88.12 -81.84 88.33 -82.73 88.54 C-85 89 -85 89 -88 89 C-93.96 75.72 -92.84 64.22 -87.8 50.96 C-81.53 35.61 -81.53 35.61 -75 32 C-67.61 31.01 -60.58 32.46 -53.44 34.25 C-52.48 34.47 -51.53 34.7 -50.54 34.93 C-46.15 35.97 -41.78 37.05 -37.42 38.22 C-24.94 41.45 -12.84 41.42 0 41 C-0.5 39.02 -0.5 39.02 -1 37 C-2.01 37.06 -3.02 37.12 -4.06 37.18 C-17.84 37.7 -30.62 35.07 -44 32 C-44.92 31.79 -45.83 31.58 -46.77 31.37 C-51.53 30.29 -56.27 29.17 -61 28 C-59.81 19.68 -53.85 11.38 -47.34 6.19 C-40.39 2.65 -32.38 4.62 -25.25 6.75 C-12.24 11.47 0.84 17.59 12.63 24.82 C17.37 27.5 21.7 27.78 27.06 27.81 C27.93 27.84 28.79 27.86 29.69 27.89 C31.79 27.95 33.89 27.98 36 28 C35.67 26.35 35.34 24.7 35 23 C34.01 23.09 33.03 23.18 32.01 23.27 C20.8 23.73 12.32 20.33 2.62 15.12 C1.73 14.64 1.73 14.64 0.82 14.15 C-4.33 11.37 -9.39 8.62 -14 5 C-9.46 0.46 -6.58 -0.82 0 0 Z " fill="#F3E3DD" transform="translate(269,174)"/>
<path d="M0 0 C0.5 0.99 0.5 0.99 1 2 C2.82 2.08 2.82 2.08 4.68 2.17 C9.23 2.38 13.79 2.59 18.34 2.8 C20.3 2.89 22.26 2.98 24.23 3.07 C27.06 3.2 29.9 3.33 32.74 3.46 C33.6 3.5 34.46 3.54 35.35 3.58 C41.59 3.88 47.79 4.39 54 5 C54.28 26.4 53.51 47.71 52.61 69.08 C52.42 73.49 52.25 77.9 52.07 82.3 C51.72 90.87 51.36 99.43 51 108 C48.45 109.27 47.01 108.98 44.18 108.75 C43.16 108.67 42.14 108.58 41.09 108.5 C39.97 108.41 38.85 108.31 37.7 108.21 C36.52 108.12 35.34 108.02 34.13 107.92 C30.9 107.66 27.66 107.39 24.43 107.12 C21.05 106.83 17.67 106.55 14.29 106.28 C8.61 105.81 2.94 105.33 -2.74 104.86 C-9.3 104.31 -15.87 103.76 -22.44 103.22 C-28.75 102.7 -35.06 102.18 -41.37 101.66 C-44.06 101.43 -46.75 101.21 -49.44 100.99 C-53.19 100.68 -56.95 100.36 -60.7 100.05 C-61.82 99.96 -62.94 99.86 -64.09 99.77 C-65.11 99.68 -66.13 99.6 -67.18 99.51 C-68.07 99.43 -68.96 99.36 -69.87 99.28 C-72 99 -72 99 -74 98 C-71.75 87.71 -68.41 77.81 -65.01 67.85 C-64.06 65.05 -63.12 62.24 -62.18 59.43 C-61.57 57.63 -60.96 55.83 -60.35 54.04 C-60.07 53.2 -59.8 52.37 -59.51 51.51 C-57.41 45.44 -54.81 41.02 -49.48 37.23 C-48.8 36.74 -48.12 36.25 -47.41 35.75 C-46.68 35.23 -45.94 34.72 -45.19 34.19 C-44.42 33.64 -43.64 33.09 -42.85 32.53 C-41.16 31.33 -39.47 30.13 -37.77 28.94 C-34.8 26.86 -31.84 24.76 -28.88 22.66 C-26.81 21.21 -24.75 19.76 -22.69 18.31 C-21.21 17.27 -21.21 17.27 -19.71 16.21 C-18.78 15.56 -17.85 14.91 -16.89 14.24 C-16.06 13.66 -15.24 13.08 -14.39 12.49 C-11.99 11 -9.65 9.96 -7 9 C-8.39 13.42 -10.09 17.55 -12.05 21.75 C-12.67 23.08 -13.29 24.41 -13.9 25.74 C-14.22 26.43 -14.55 27.13 -14.88 27.84 C-20.49 39.96 -25.83 52.15 -30.75 64.56 C-31 65.19 -31.25 65.81 -31.5 66.46 C-33.02 70.3 -34.51 74.15 -36 78 C-36.33 78.83 -36.65 79.65 -36.99 80.5 C-38.15 83.49 -39 85.76 -39 89 C-36.02 82.69 -33.27 76.3 -30.69 69.82 C-30.39 69.08 -30.1 68.34 -29.8 67.59 C-29.18 66.04 -28.57 64.5 -27.95 62.96 C-21.62 47.08 -14.84 31.52 -7.47 16.1 C-4.93 10.76 -2.47 5.38 0 0 Z " fill="#E7E7E7" transform="translate(109,369)"/>
<path d="M0 0 C2.78 1.45 3.43 3.33 4.78 6.12 C8.04 12.43 11.59 17.21 17.16 21.62 C21.48 25.29 24.62 29.64 27.9 34.25 C28.81 35.51 28.81 35.51 29.74 36.79 C31.47 39.18 33.19 41.59 34.9 44 C35.34 44.61 35.77 45.22 36.22 45.85 C38.14 48.55 40.03 51.26 41.9 54 C38.5 55.13 37.26 54.83 33.82 54.04 C32.33 53.7 32.33 53.7 30.8 53.36 C29.76 53.11 28.72 52.87 27.65 52.62 C16.76 50.13 6.44 48.8 -4.71 48.39 C-5.62 48.35 -6.52 48.32 -7.46 48.28 C-8.28 48.25 -9.1 48.22 -9.94 48.19 C-12.1 48 -12.1 48 -15.1 47 C-15.43 48.32 -15.76 49.64 -16.1 51 C-14.84 50.95 -13.58 50.9 -12.28 50.86 C0.31 50.54 11.94 51.79 24.24 54.43 C26.89 54.99 29.55 55.52 32.22 56.05 C33.86 56.38 35.51 56.72 37.15 57.06 C37.91 57.21 38.67 57.36 39.45 57.51 C44.67 58.65 44.67 58.65 46.9 62 C46.32 62.63 46.32 62.63 45.73 63.28 C39.3 70.53 35.92 77.86 32.9 87 C32.49 88.21 32.08 89.43 31.65 90.68 C29.22 101.37 30.62 112.69 33.9 123 C28.23 125.01 22.39 126.62 16.71 123.97 C11.7 120.77 7.19 116.89 2.6 113.12 C-2.18 109.36 -7.27 106.07 -12.35 102.75 C-13.88 101.73 -13.88 101.73 -15.44 100.7 C-19.84 97.78 -24.26 94.88 -28.71 92.04 C-38.95 85.48 -45.14 79.11 -51.1 68.5 C-51.51 67.78 -51.92 67.07 -52.34 66.34 C-55.16 61.04 -55.44 57.86 -54.1 52 C-48.33 33.81 -27.01 17.62 -12.1 7 C-11.15 6.27 -10.19 5.55 -9.21 4.8 C-8.33 4.15 -7.45 3.49 -6.54 2.81 C-5.77 2.24 -5.01 1.67 -4.22 1.08 C-2.1 -0 -2.1 -0 0 0 Z " fill="#9FD3ED" transform="translate(142.09765625,142.00390625)"/>
<path d="M0 0 C3.25 0.29 6.5 0.58 9.75 0.88 C11.07 0.99 11.07 0.99 12.42 1.11 C13.81 1.24 13.81 1.24 15.23 1.37 C16.79 1.51 16.79 1.51 18.37 1.65 C21.08 1.91 23.78 2.2 26.48 2.52 C39.7 4.03 52.66 4.14 65.95 3.81 C75.44 3.59 84.12 3.59 93.32 6.25 C100.13 8.18 107.04 9.26 114.03 10.36 C115.28 10.56 116.54 10.75 117.83 10.95 C121.72 11.56 125.61 12.15 129.5 12.75 C132.17 13.16 134.85 13.58 137.52 14 C144.01 15.01 150.51 16.01 157 17 C155.39 21.31 153.25 24.48 150.25 27.94 C149.77 28.5 149.29 29.05 148.8 29.63 C140.53 39.12 131.64 48 121.76 55.8 C119.26 57.79 116.83 59.84 114.42 61.93 C108.3 67.2 101.98 72.1 95.38 76.76 C91.21 79.79 88.62 82.55 86 87 C84.5 88.94 84.5 88.94 83 90 C81.2 89.97 81.2 89.97 79 89 C77.29 86.88 75.8 84.82 74.31 82.56 C70.61 77.15 66.7 72.24 62.21 67.43 C59.86 64.85 57.68 62.17 55.5 59.44 C51.94 55.04 48.16 51.05 44.11 47.11 C42.16 45.16 40.35 43.16 38.56 41.06 C35.13 37.05 31.41 33.37 27.62 29.69 C25.58 27.6 23.68 25.49 21.78 23.28 C17.61 18.47 13.1 14.03 8.56 9.56 C6.94 7.96 5.31 6.36 3.69 4.75 C2.98 4.06 2.27 3.36 1.54 2.64 C0 1 0 1 0 0 Z " fill="#FDFDFD" transform="translate(299,363)"/>
<path d="M0 0 C11.85 -0.58 11.85 -0.58 16.98 3.19 C18.65 4.92 20.27 6.71 21.82 8.55 C25.18 12.32 27.65 13.86 32.75 14.4 C34.19 14.43 35.64 14.44 37.08 14.44 C38.24 14.46 38.24 14.46 39.42 14.48 C41.89 14.52 44.35 14.54 46.81 14.56 C49.26 14.59 51.72 14.61 54.17 14.65 C55.69 14.68 57.21 14.69 58.73 14.7 C69.02 14.85 75.97 17.89 83.5 24.94 C84.02 25.42 84.54 25.9 85.07 26.4 C86.17 27.42 87.26 28.44 88.35 29.46 C90.47 31.44 92.59 33.39 94.72 35.35 C99.43 39.69 104.12 44.05 108.8 48.42 C114.79 54.03 120.81 59.6 127 65 C124.41 67.59 121.62 68.27 118.2 69.3 C117.49 69.52 116.79 69.74 116.06 69.96 C106.77 72.75 97.32 74.92 87.88 77.12 C86.04 77.56 84.21 77.99 82.38 78.43 C77.26 79.64 72.13 80.83 67 82 C65.93 82.25 65.93 82.25 64.84 82.5 C47.99 86.32 47.99 86.32 41 85 C36.45 82.05 34.47 78.59 32.36 73.75 C32.03 73.02 31.7 72.3 31.36 71.56 C30.29 69.19 29.24 66.81 28.19 64.44 C27.44 62.78 26.7 61.13 25.95 59.48 C24.41 56.05 22.87 52.62 21.33 49.19 C19.07 44.13 16.76 39.11 14.43 34.08 C13.7 32.5 12.97 30.91 12.24 29.33 C11.19 27.06 10.15 24.79 9.09 22.53 C5.67 15.13 2.35 7.83 0 0 Z " fill="#FDFDFD" transform="translate(193,341)"/>
<path d="M0 0 C3.96 5.22 3.96 5.22 5 8 C4.47 11.3 3.07 13.8 1.44 16.69 C-1.02 21.59 -2.35 25.57 -1 31 C1.74 36.54 5.61 40.71 10 45 C12.05 47.5 14.05 50.04 16.04 52.6 C17.91 54.89 19.87 56.95 22 59 C20.74 62.48 19.31 65.18 17.02 68.07 C16.44 68.82 15.85 69.56 15.25 70.33 C14.63 71.11 14.01 71.89 13.38 72.69 C12.74 73.49 12.1 74.3 11.45 75.12 C10.19 76.71 8.94 78.3 7.68 79.88 C6.32 81.6 4.98 83.32 3.65 85.05 C-0.49 90.39 -4.97 94.97 -10 99.48 C-12.5 102.63 -12.73 105.04 -13 109 C-8.06 110.89 -3.12 112.65 1.92 114.25 C4.05 115.02 6 115.95 8 117 C7.24 120.86 5.61 124.2 3.94 127.75 C3.12 129.51 3.12 129.51 2.28 131.3 C1.86 132.19 1.43 133.08 1 134 C-12.87 131.88 -26.55 111.78 -34.64 100.89 C-49 81.02 -49 81.02 -49 77 C-49.84 76.72 -49.84 76.72 -50.69 76.44 C-55.19 73.64 -57.44 69.52 -59.25 64.62 C-58.66 56.06 -50.08 49.82 -44.01 44.48 C-37.19 38.86 -30.62 34.02 -22.4 30.8 C-9.62 25.45 -5.28 11.98 0 0 Z " fill="#FCFCFC" transform="translate(84,204)"/>
<path d="M0 0 C3 3 6 6 9 9 C7.74 12.48 6.31 15.18 4.02 18.07 C3.15 19.19 3.15 19.19 2.25 20.33 C1.63 21.11 1.01 21.89 0.38 22.69 C-0.26 23.49 -0.9 24.3 -1.55 25.12 C-2.81 26.71 -4.06 28.3 -5.32 29.88 C-6.68 31.6 -8.02 33.32 -9.35 35.05 C-13.49 40.39 -17.97 44.97 -23 49.48 C-25.5 52.63 -25.73 55.04 -26 59 C-21.06 60.89 -16.12 62.65 -11.08 64.25 C-8.95 65.02 -7 65.95 -5 67 C-5.76 70.86 -7.39 74.2 -9.06 77.75 C-9.88 79.51 -9.88 79.51 -10.72 81.3 C-11.14 82.19 -11.57 83.08 -12 84 C-25.92 81.87 -39.67 61.63 -47.77 50.72 C-50.72 46.61 -53.4 42.34 -56 38 C-55.34 38 -54.68 38 -54 38 C-53.76 37.41 -53.52 36.82 -53.27 36.21 C-49.18 29.08 -39.43 25.7 -32.29 22.51 C-23.2 18.33 -15.33 12.96 -7.63 6.64 C-5.09 4.57 -3.14 3.05 0 2 C0 1.34 0 0.68 0 0 Z " fill="#9ED3ED" transform="translate(97,254)"/>
<path d="M0 0 C2.59 1.59 3.34 3.5 4.65 6.21 C7.91 12.53 11.46 17.3 17.03 21.71 C21.35 25.39 24.49 29.74 27.77 34.34 C28.69 35.6 28.69 35.6 29.62 36.88 C31.35 39.28 33.06 41.68 34.77 44.09 C35.21 44.7 35.64 45.31 36.09 45.94 C38.01 48.65 39.9 51.36 41.77 54.09 C38.37 55.22 37.13 54.92 33.7 54.13 C32.2 53.79 32.2 53.79 30.68 53.45 C29.64 53.21 28.6 52.96 27.52 52.71 C16.63 50.22 6.32 48.9 -4.84 48.48 C-5.75 48.45 -6.65 48.41 -7.59 48.37 C-8.41 48.34 -9.22 48.31 -10.07 48.28 C-12.23 48.09 -12.23 48.09 -15.23 47.09 C-15.56 48.08 -15.89 49.07 -16.23 50.09 C-19.55 48.43 -20.54 44.82 -22.1 41.59 C-22.63 40.5 -22.63 40.5 -23.18 39.39 C-23.88 37.94 -24.58 36.5 -25.28 35.05 C-26.07 33.42 -26.89 31.79 -27.71 30.17 C-30.4 24.67 -30.4 24.67 -29.64 22.14 C-24.72 15 -15.67 9.54 -8.73 4.4 C-8.14 3.96 -7.55 3.51 -6.95 3.05 C-2.89 0.12 -2.89 0.12 0 0 Z " fill="#9ED2EC" transform="translate(142.2265625,141.91015625)"/>
<path d="M0 0 C3.17 -0.12 6.33 -0.19 9.5 -0.25 C10.8 -0.3 10.8 -0.3 12.13 -0.35 C18.4 -0.44 23.81 0.61 29.85 2.26 C41.85 5.41 54.25 6.88 66.5 8.75 C69.17 9.16 71.85 9.58 74.52 10 C81.01 11.01 87.51 12.01 94 13 C92.39 17.31 90.25 20.48 87.25 23.94 C86.77 24.49 86.29 25.05 85.8 25.63 C77.42 35.25 68.47 44.63 58 52 C52.88 48.19 49.2 43.68 45.23 38.71 C42.86 35.83 40.33 33.24 37.65 30.65 C35.98 28.98 34.46 27.24 32.94 25.44 C29.44 21.39 25.71 17.6 21.94 13.81 C21.35 13.22 20.76 12.62 20.15 12.01 C13.28 4.46 13.28 4.46 4.12 1.19 C3.34 1.14 2.56 1.09 1.76 1.04 C1.18 1.03 0.6 1.01 0 1 C0 0.67 0 0.34 0 0 Z " fill="#9DD2EC" transform="translate(362,367)"/>
<path d="M0 0 C0.47 0.66 0.95 1.32 1.44 2 C7.42 9.01 14.31 13.97 22.14 18.72 C32.41 25 42.19 32.03 52 39 C52.72 39.51 53.44 40.02 54.18 40.55 C55.92 41.79 57.65 43.05 59.38 44.31 C60.27 44.97 61.16 45.62 62.09 46.3 C64 48 64 48 65 51 C63.47 52.24 61.94 53.47 60.41 54.71 C58.87 55.97 58.87 55.97 58 58 C57.93 60.04 57.92 62.08 57.94 64.12 C57.95 65.22 57.96 66.32 57.96 67.45 C57.98 68.29 57.99 69.13 58 70 C51.75 66.7 45.95 63.04 40.25 58.88 C39.47 58.31 38.69 57.74 37.89 57.16 C10.96 37.35 10.96 37.35 5 26 C5 25.34 5 24.68 5 24 C4.16 23.69 4.16 23.69 3.31 23.38 C0.07 21.45 -2.27 19.34 -4 16 C-4.94 11.05 -4.82 6.65 -2 2.38 C-1.34 1.59 -0.68 0.81 0 0 Z " fill="#9DD2EC" transform="translate(92,219)"/>
<path d="M0 0 C2.41 2.18 3.73 4.17 5.05 7.13 C5.42 7.94 5.78 8.74 6.16 9.56 C6.54 10.41 6.92 11.25 7.31 12.12 C10.4 18.82 13.57 25.08 18 31 C18.66 31.99 19.32 32.98 20 34 C16.35 38.48 12.51 42.55 8.38 46.59 C4.58 50.33 1.06 54.19 -2.32 58.3 C-4.1 60.1 -5.7 61.01 -8 62 C-13.09 57.17 -16.64 51.6 -20 45.5 C-20.41 44.79 -20.82 44.08 -21.24 43.34 C-24.07 38.05 -24.34 34.86 -23 29 C-19.3 17.33 -8.56 8.28 0 0 Z " fill="#FCFCFC" transform="translate(111,165)"/>
<path d="M0 0 C3.63 2.7 7.24 5.4 10.79 8.2 C19.86 15.33 29.35 21.71 39 28 C38.35 29.67 37.68 31.34 37 33 C36.62 33.96 36.23 34.91 35.84 35.89 C34.18 39.19 32.73 41.49 30 44 C19.8 46.51 5.38 43.69 -4 39 C-4 37.68 -4 36.36 -4 35 C-5.32 35.66 -6.64 36.32 -8 37 C-8.54 36.54 -9.08 36.08 -9.64 35.61 C-12.32 33.78 -14.61 33.1 -17.75 32.31 C-18.73 32.06 -19.72 31.81 -20.73 31.55 C-21.48 31.37 -22.23 31.19 -23 31 C-18.9 24.65 -14.5 18.62 -9.81 12.69 C-8.59 11.13 -7.37 9.57 -6.14 8.01 C-5.61 7.34 -5.08 6.66 -4.53 5.96 C-3 3.99 -1.49 2 0 0 Z " fill="#A9D5EE" transform="translate(109,266)"/>
<path d="M0 0 C1.81 0.31 3.63 0.62 5.44 0.94 C6.95 1.2 6.95 1.2 8.5 1.46 C11 2 11 2 12 3 C14.23 3.34 16.47 3.61 18.72 3.87 C20.13 4.03 21.54 4.19 22.96 4.36 C24.07 4.48 24.07 4.48 25.21 4.61 C36.81 5.94 48.36 7.34 59.83 9.59 C62.49 10.09 65.16 10.55 67.83 11 C69.35 11.27 69.35 11.27 70.89 11.54 C72.88 11.88 74.88 12.22 76.87 12.55 C77.77 12.71 78.67 12.87 79.59 13.04 C80.79 13.24 80.79 13.24 82.02 13.45 C84 14 84 14 86 16 C84.8 16.8 83.59 17.59 82.38 18.38 C81.7 18.82 81.03 19.26 80.34 19.71 C74.06 23.17 68.37 23.31 61.38 23.25 C59.96 23.26 59.96 23.26 58.52 23.27 C57.62 23.27 56.71 23.27 55.77 23.27 C54.95 23.26 54.13 23.26 53.29 23.26 C50.77 22.97 49.22 22.2 47 21 C44.32 20.27 41.64 19.58 38.94 18.94 C31.28 17.09 31.28 17.09 28 16 C26.04 15.86 24.08 15.77 22.12 15.72 C20.95 15.68 19.78 15.64 18.58 15.61 C16.75 15.55 16.75 15.55 14.88 15.5 C7.2 15.28 -0.38 14.98 -8 14 C-5.63 9.07 -3.14 4.48 0 0 Z " fill="#FAFAFA" transform="translate(150,296)"/>
<path d="M0 0 C13.36 -2.06 13.36 -2.06 19.08 1.18 C23.24 4.39 26.76 8.2 30.26 12.09 C32.41 14.45 34.67 16.66 36.95 18.87 C41.27 23.07 45.38 27.42 49.29 32 C51.36 34.41 53.49 36.77 55.62 39.12 C58.84 42.68 61.97 46.28 65 50 C63.49 54.22 60.67 55.66 57 58 C55.14 56 53.29 54 51.44 52 C50.92 51.45 50.41 50.89 49.88 50.32 C47.08 47.29 44.32 44.23 41.62 41.1 C37.79 36.69 33.7 32.56 29.56 28.44 C28.85 27.72 28.14 27.01 27.4 26.27 C23.34 22.21 19.18 18.32 14.8 14.59 C12.31 12.39 10 10.02 7.68 7.64 C6.04 6.04 4.34 4.57 2.56 3.12 C1.72 2.42 0.87 1.72 0 1 C0 0.67 0 0.34 0 0 Z " fill="#FBFDFD" transform="translate(354,368)"/>
<path d="M0 0 C2.05 0.03 4.1 0.09 6.14 0.18 C7.22 0.21 8.29 0.24 9.39 0.27 C11.56 0.33 13.73 0.4 15.9 0.49 C18.6 0.61 21.3 0.68 24 0.73 C31.76 0.94 38.06 1.73 44.96 5.62 C42.28 8.93 38.76 10.14 34.89 11.62 C34.22 11.88 33.55 12.14 32.86 12.41 C17.33 18.37 2.35 20.6 -14.04 16.62 C-13.3 15.08 -12.55 13.54 -11.79 12 C-11.38 11.14 -10.96 10.28 -10.53 9.39 C-10.04 8.48 -9.55 7.56 -9.04 6.62 C-8.31 4.98 -8.31 4.98 -7.57 3.31 C-4.66 0.21 -4.07 0.19 0 0 Z " fill="#FAFBFB" transform="translate(144.04296875,313.37890625)"/>
<path d="M0 0 C2.63 2.63 3.61 3.91 5.05 7.13 C5.42 7.94 5.78 8.74 6.16 9.56 C6.54 10.41 6.92 11.25 7.31 12.12 C10.4 18.82 13.57 25.08 18 31 C18.66 31.99 19.32 32.98 20 34 C16.35 38.48 12.51 42.55 8.38 46.59 C4.58 50.33 1.06 54.19 -2.32 58.3 C-4 60 -4 60 -8 62 C-10.31 59.36 -12.62 56.72 -15 54 C-14.31 53.48 -13.63 52.97 -12.92 52.44 C-9.42 49.52 -6.35 46.33 -3.25 43 C-2.66 42.38 -2.07 41.77 -1.46 41.13 C-0.9 40.53 -0.34 39.93 0.23 39.31 C0.74 38.77 1.25 38.23 1.77 37.68 C3.2 35.73 3.72 34.39 4 32 C2.87 29.3 1.69 26.82 0.31 24.25 C-0.4 22.88 -1.11 21.51 -1.82 20.14 C-2.18 19.47 -2.54 18.79 -2.9 18.1 C-4.65 14.75 -6.32 11.38 -8 8 C-5.36 5.36 -2.72 2.72 0 0 Z " fill="#AAD6F0" transform="translate(111,165)"/>
<path d="M0 0 C6.43 -0.55 12.26 -0.68 17.48 3.39 C21.03 6.56 24.23 10.05 27.44 13.56 C28.56 14.75 29.69 15.93 30.83 17.1 C35.89 22.4 40.78 27.83 45.57 33.38 C47.61 35.69 49.79 37.85 52 40 C55.48 43.44 58.77 46.95 61.95 50.67 C65.28 54.46 68.75 58.13 72.21 61.81 C75.92 65.78 79.5 69.85 83 74 C82.67 74.66 82.34 75.32 82 76 C81.56 75.58 81.11 75.16 80.66 74.73 C78.61 72.8 76.55 70.87 74.5 68.94 C73.8 68.28 73.11 67.62 72.39 66.95 C68.3 63.11 64.15 59.36 59.92 55.69 C56.3 52.51 52.8 49.19 49.29 45.89 C46.25 43.06 43.18 40.27 40.04 37.54 C36.04 34.06 32.17 30.46 28.31 26.81 C26.91 25.5 25.52 24.18 24.12 22.87 C23.43 22.22 22.74 21.57 22.03 20.9 C19.01 18.07 15.98 15.25 12.94 12.44 C12.41 11.95 11.88 11.46 11.33 10.95 C8.5 8.34 5.63 5.8 2.69 3.31 C1.8 2.55 0.91 1.79 0 1 C0 0.67 0 0.34 0 0 Z " fill="#F4F3F3" transform="translate(279,361)"/>
<path d="M0 0 C1.22 0.41 2.43 0.82 3.69 1.25 C12.37 4.14 21.09 6.9 30 9 C28.57 14.19 26.5 18.89 23 23 C20.44 24 20.44 24 17 24 C16.14 24.08 15.29 24.16 14.41 24.25 C5.73 24.81 -0.46 22.09 -8 18 C-7.4 13.49 -5.63 10.14 -3.44 6.19 C-2.94 5.29 -2.94 5.29 -2.44 4.38 C-1.63 2.91 -0.82 1.46 0 0 Z " fill="#FBFBFB" transform="translate(95,323)"/>
<path d="M0 0 C2.3 2.56 3 3.48 3 7 C1.16 8.69 -0.62 10.15 -2.62 11.62 C-3.5 12.28 -3.5 12.28 -4.39 12.95 C-13.74 19.88 -23.44 26.07 -34 31 C-43.94 35.25 -43.94 35.25 -51 43 C-52.94 42.25 -52.94 42.25 -55 41 C-55.78 39.14 -55.78 39.14 -56 37 C-53 31.48 -47.46 27.91 -42.25 24.69 C-41.52 24.22 -40.79 23.76 -40.03 23.28 C-32.51 18.58 -24.74 14.32 -16.95 10.08 C-9.71 6.34 -9.71 6.34 -3.37 1.34 C-2 0 -2 0 0 0 Z " fill="#FBFCFD" transform="translate(94,249)"/>
<path d="M0 0 C-0.03 1.16 -0.07 2.32 -0.11 3.52 C-0.3 12.81 0.06 21.07 3 30 C-9.63 33.14 -9.63 33.14 -15.45 30.35 C-18.12 28.36 -20.6 26.32 -23 24 C-21.83 14.76 -12.66 6.99 -6 1 C-4 0 -4 0 0 0 Z " fill="#FAFAFA" transform="translate(173,235)"/>
<path d="M0 0 C3.23 0.37 5.56 1.81 8.25 3.56 C8.96 4.02 9.66 4.47 10.39 4.94 C10.92 5.29 11.45 5.64 12 6 C11.35 7.67 10.68 9.34 10 11 C9.62 11.96 9.23 12.91 8.84 13.89 C7.18 17.19 5.73 19.49 3 22 C-7.54 24.6 -18.87 21.02 -29 18 C-26.31 14.71 -22.99 13.54 -19.12 11.94 C-17.91 11.43 -16.7 10.92 -15.45 10.4 C-13.38 9.56 -11.31 8.75 -9.22 7.97 C-6.12 6.61 -4.28 4.47 -2 2 C-1.34 1.34 -0.68 0.68 0 0 Z " fill="#9ED1EA" transform="translate(136,288)"/>
<path d="M0 0 C3.47 0.66 6.84 1.5 10.25 2.44 C18.06 4.43 25.99 5.19 34 6 C33.59 6.75 33.18 7.5 32.76 8.27 C32.22 9.25 31.68 10.24 31.12 11.25 C30.59 12.22 30.06 13.2 29.51 14.2 C28.3 16.45 27.12 18.71 26 21 C15.4 19.81 4.58 16.79 -5 12 C-3.69 7.77 -2.06 3.93 0 0 Z " fill="#9CD0E9" transform="translate(102,308)"/>
<path d="M0 0 C0.47 0.66 0.95 1.32 1.44 2 C7.61 9.23 14.71 14.43 23 19 C22.45 23.07 20.33 25.26 17.62 28.25 C16.83 29.14 16.04 30.03 15.23 30.95 C13 33 13 33 10 33 C8.61 31.54 8.61 31.54 7.31 29.62 C6.66 28.69 6.66 28.69 5.99 27.73 C5 26 5 26 5 24 C4.16 23.69 4.16 23.69 3.31 23.38 C0.07 21.45 -2.27 19.34 -4 16 C-4.94 11.05 -4.82 6.65 -2 2.38 C-1.34 1.59 -0.68 0.81 0 0 Z " fill="#F7F8F8" transform="translate(92,219)"/>
<path d="M0 0 C2.75 1.29 5.08 2.71 7.45 4.6 C8.07 5.09 8.69 5.58 9.33 6.09 C9.96 6.59 10.6 7.1 11.25 7.62 C11.9 8.14 12.55 8.66 13.22 9.19 C14.82 10.46 16.41 11.73 18 13 C15.26 16.02 13.02 17.67 9.19 19.06 C8.32 19.39 7.44 19.72 6.55 20.05 C5.71 20.37 4.87 20.68 4 21 C-0.31 22.51 -0.31 22.51 -4 25 C-8.82 25.28 -12.5 24.75 -17 23 C-11.91 14.88 -5.97 7.47 0 0 Z " fill="#FAFAFB" transform="translate(103,274)"/>
<path d="M0 0 C-0.76 3.86 -2.39 7.2 -4.06 10.75 C-4.61 11.92 -5.16 13.09 -5.72 14.3 C-6.35 15.63 -6.35 15.63 -7 17 C-13.09 16.13 -17.53 10.88 -22 7 C-22.69 6.41 -23.38 5.82 -24.09 5.21 C-25.75 3.69 -25.75 3.69 -28 1 C-27.66 -2.15 -26.97 -3.03 -24.75 -5.44 C-17.61 -9.83 -6.46 -3.67 0 0 Z " fill="#F8F8F8" transform="translate(92,321)"/>
<path d="M0 0 C2.2 0.04 4.41 0.11 6.61 0.21 C8.3 0.25 8.3 0.25 10.02 0.29 C12.8 0.36 15.58 0.46 18.36 0.59 C18.36 0.92 18.36 1.25 18.36 1.59 C17.16 1.57 15.97 1.54 14.73 1.52 C11.78 1.88 10.64 2.3 8.53 4.45 C5.62 8.66 3.63 12.36 3.36 17.59 C4.35 17.92 5.34 18.25 6.36 18.59 C-0.93 18.84 -7.55 18.31 -14.64 16.59 C-13.9 15.04 -13.14 13.5 -12.39 11.96 C-11.97 11.1 -11.56 10.24 -11.12 9.36 C-10.64 8.44 -10.15 7.53 -9.64 6.59 C-9.18 5.49 -8.71 4.4 -8.23 3.27 C-5.14 0.07 -4.3 0.16 0 0 Z " fill="#9CCFE8" transform="translate(144.640625,313.4140625)"/>
<path d="M0 0 C5.38 0.33 11.21 1.47 16 4 C17.44 5.78 17.44 5.78 18 8 C16.88 10.58 16.88 10.58 15.12 13.25 C14.55 14.14 13.98 15.03 13.38 15.95 C12.93 16.63 12.47 17.3 12 18 C9.17 17.08 6.37 16.16 3.62 15 C1.34 14.13 -0.81 13.55 -3.19 13 C-7 12 -7 12 -9 10 C-7.88 8.71 -6.75 7.42 -5.62 6.12 C-5 5.41 -4.37 4.69 -3.73 3.95 C-2.53 2.59 -1.28 1.28 0 0 Z " fill="#F2F5F6" transform="translate(82,300)"/>
<path d="M0 0 C3 -0.29 4.54 -0.31 7.08 1.41 C7.79 2.1 8.51 2.79 9.25 3.5 C10.56 4.74 10.56 4.74 11.89 6 C12.38 6.47 12.86 6.95 13.37 7.43 C15.17 9.16 17 10.86 18.83 12.56 C57.61 48.58 57.61 48.58 59 57 C56 57 56 57 53.55 54.66 C52.61 53.61 51.67 52.56 50.75 51.5 C50.3 50.99 49.85 50.49 49.38 49.97 C47.36 47.7 45.36 45.42 43.38 43.11 C38.97 38.01 34.34 33.19 29.56 28.44 C28.85 27.72 28.14 27.01 27.4 26.27 C23.34 22.21 19.18 18.32 14.8 14.59 C12.31 12.39 10 10.02 7.68 7.64 C6.04 6.04 4.34 4.57 2.56 3.12 C1.72 2.42 0.87 1.72 0 1 C0 0.67 0 0.34 0 0 Z " fill="#A9D6F0" transform="translate(354,368)"/>
<path d="M0 0 C0.99 0.33 1.98 0.66 3 1 C-0.28 8.66 -8.84 12.16 -15.94 15.69 C-22.61 19.1 -29.03 22.73 -35.31 26.81 C-36 27.26 -36.69 27.7 -37.39 28.16 C-45.03 33.19 -45.03 33.19 -51 40 C-51.99 39.67 -52.98 39.34 -54 39 C-54.49 37.51 -54.49 37.51 -55 36 C-43.17 26.55 -30.72 18.83 -17.44 11.59 C-8.08 6.68 -8.08 6.68 0 0 Z " fill="#A8D5F0" transform="translate(90,246)"/>
<path d="M0 0 C0.97 0.14 1.94 0.29 2.94 0.44 C3.6 1.43 4.26 2.42 4.94 3.44 C3.63 4.86 3.63 4.86 2.3 6.32 C-1.41 10.66 -4.15 15.4 -6.94 20.38 C-7.44 21.25 -7.93 22.12 -8.45 23.03 C-9.66 25.16 -10.86 27.3 -12.06 29.44 C-14.5 28.62 -14.5 28.62 -17.06 27.44 C-18.06 24.44 -18.06 24.44 -17.12 22.32 C-16.39 21.13 -16.39 21.13 -15.64 19.91 C-15.11 19.04 -14.58 18.16 -14.03 17.26 C-13.46 16.35 -12.9 15.44 -12.31 14.5 C-11.76 13.59 -11.21 12.69 -10.64 11.75 C-3.78 0.54 -3.78 0.54 0 0 Z " fill="#F1F6F9" transform="translate(184.0625,200.5625)"/>
<path d="M0 0 C3.32 0.57 4.73 1.57 7 4 C0.39 11.38 -6.29 18.7 -13 26 C-15.48 25.04 -16.73 24.52 -17.97 22.11 C-18 20 -18 20 -16.59 18.14 C-15.9 17.52 -15.21 16.89 -14.5 16.25 C-9.15 11.23 -4.35 5.91 0 0 Z " fill="#FAFCFD" transform="translate(118,201)"/>
<path d="M0 0 C3.82 3.47 5.56 7.78 7.75 12.38 C8.17 13.23 8.6 14.08 9.04 14.95 C9.63 16.19 9.63 16.19 10.23 17.46 C10.78 18.59 10.78 18.59 11.33 19.74 C12.16 22.56 11.85 24.21 11 27 C10.34 27.99 9.68 28.98 9 30 C8.34 30 7.68 30 7 30 C2.79 21.76 -1.12 13.39 -5 5 C-3.35 3.35 -1.7 1.7 0 0 Z " fill="#FBFDFE" transform="translate(111,165)"/>
<path d="M0 0 C0 0.99 0 1.98 0 3 C-4.34 7 -4.34 7 -7 7 C-7.25 7.56 -7.5 8.11 -7.75 8.68 C-9.23 11.42 -11.03 13.66 -13 16.06 C-15.13 18.67 -17.13 21.2 -19 24 C-21.47 23.01 -21.47 23.01 -24 22 C-24 15.77 -20.06 12.47 -16 8 C-6.24 -1.48 -6.24 -1.48 0 0 Z " fill="#F9FCFD" transform="translate(166,231)"/>
<path d="M0 0 C5.39 4.04 9.03 8.73 12.94 14.19 C13.55 15.03 14.16 15.88 14.79 16.75 C18.92 22.45 23.02 28.18 27 34 C23.09 35.3 20.8 34.48 16.81 33.56 C15.54 33.28 14.27 32.99 12.96 32.69 C11.98 32.46 11.01 32.24 10 32 C11.32 31.67 12.64 31.34 14 31 C13.41 28.6 12.8 26.21 12.19 23.81 C12.02 23.14 11.86 22.47 11.69 21.77 C10.37 16.66 8.75 12.75 5 9 C2.83 6.83 1.43 4.71 0 2 C0 1.34 0 0.68 0 0 Z " fill="#98C9E1" transform="translate(157,162)"/>
<path d="M0 0 C0.66 0.33 1.32 0.66 2 1 C1.49 7.22 -1.29 12.33 -3.94 17.88 C-9.66 30.1 -14.9 42.5 -20 55 C-20.99 55 -21.98 55 -23 55 C-22.35 50.91 -21.03 47.45 -19.38 43.65 C-19.11 43.05 -18.85 42.44 -18.58 41.82 C-17.72 39.86 -16.86 37.9 -16 35.94 C-15.41 34.59 -14.82 33.24 -14.23 31.89 C-9.57 21.22 -4.82 10.6 0 0 Z " fill="#191919" transform="translate(80,346)"/>
<path d="M0 0 C1.94 0.81 1.94 0.81 4 2 C4.33 2.99 4.66 3.98 5 5 C3.47 6.24 1.94 7.47 0.41 8.71 C-1.13 9.97 -1.13 9.97 -2 12 C-2.07 14.04 -2.08 16.08 -2.06 18.12 C-2.05 19.77 -2.05 19.77 -2.04 21.45 C-2.02 22.29 -2.01 23.13 -2 24 C-3.47 23.26 -4.92 22.51 -6.38 21.75 C-7.19 21.33 -8 20.91 -8.84 20.48 C-11.21 18.86 -11.97 17.65 -13 15 C-12.4 14.34 -11.79 13.67 -11.17 12.99 C-10.37 12.11 -9.57 11.22 -8.75 10.31 C-7.96 9.44 -7.17 8.57 -6.36 7.68 C-4.16 5.18 -2.06 2.62 0 0 Z " fill="#F7F9FA" transform="translate(152,265)"/>
<path d="M0 0 C4.65 3.19 7.47 7.03 10 12 C10 12.66 10 13.32 10 14 C10.99 14.33 11.98 14.66 13 15 C17.3 20.37 19 28.26 19 35 C17.68 35 16.36 35 15 35 C14.16 32.38 13.33 29.75 12.5 27.12 C12.26 26.38 12.02 25.63 11.78 24.86 C10 19.23 10 19.23 10 17 C9.41 16.79 8.81 16.58 8.2 16.37 C5.15 14.47 4.3 12.28 2.75 9.06 C2.23 8 1.71 6.94 1.17 5.85 C0 3 0 3 0 0 Z " fill="#F6FAFD" transform="translate(152,158)"/>
<path d="M0 0 C2.47 1.49 2.47 1.49 5 3 C1.1 7.43 -2.7 9.58 -8.12 11.81 C-8.84 12.12 -9.56 12.44 -10.29 12.76 C-13.34 14.05 -15.66 15 -19 15 C-19 13.35 -19 11.7 -19 10 C-19.66 9.67 -20.32 9.34 -21 9 C-20.24 8.77 -19.48 8.54 -18.69 8.3 C-11.98 6.18 -6 3.69 0 0 Z " fill="#F7FAFB" transform="translate(124,290)"/>
<path d="M0 0 C6.53 4.77 12.77 9.85 19 15 C18.34 16.32 17.68 17.64 17 19 C11.6 18.66 8.6 15.5 4.75 12.06 C4.11 11.51 3.48 10.96 2.82 10.39 C-1.85 6.31 -1.85 6.31 -3 4 C-2.01 2.68 -1.02 1.36 0 0 Z " fill="#F6F7F8" transform="translate(109,266)"/>
<path d="M0 0 C0 0.66 0 1.32 0 2 C-1.01 2.47 -1.01 2.47 -2.05 2.95 C-8.68 6.06 -8.68 6.06 -14 11 C-15.04 10.1 -16.05 9.18 -17.06 8.25 C-17.63 7.74 -18.2 7.23 -18.79 6.7 C-20 5 -20 5 -19.82 2.95 C-18.79 0.49 -17.41 -1.01 -15.16 -2.45 C-10.19 -3.72 -4.78 -1.45 0 0 Z " fill="#F5F8FA" transform="translate(84,317)"/>
<path d="M0 0 C0.73 0.25 1.45 0.5 2.2 0.76 C1.65 4.83 -0.47 7.02 -3.17 10.01 C-3.96 10.9 -4.75 11.8 -5.57 12.71 C-7.8 14.76 -7.8 14.76 -10.8 14.76 C-11.46 14.1 -12.12 13.44 -12.8 12.76 C-12.56 8.81 -10.21 6.68 -7.55 3.95 C-6.78 3.14 -6.01 2.33 -5.22 1.49 C-2.8 -0.24 -2.8 -0.24 0 0 Z " fill="#F8FAFB" transform="translate(112.796875,237.23828125)"/>
<path d="M0 0 C7.43 0.99 7.43 0.99 15 2 C11.38 4.72 7.99 6.47 3.88 8.19 C3.24 8.46 2.61 8.73 1.96 9.01 C-2.73 11 -2.73 11 -5 11 C-3.72 6.78 -2.33 3.88 0 0 Z " fill="#F5F5F5" transform="translate(128,333)"/>
<path d="M0 0 C5.61 0 11.22 0 17 0 C17 0.33 17 0.66 17 1 C15.8 0.98 14.61 0.96 13.38 0.94 C10.42 1.29 9.28 1.72 7.17 3.86 C4.26 8.08 2.27 11.78 2 17 C2.99 17.33 3.98 17.66 5 18 C1.37 18 -2.26 18 -6 18 C-4.68 17.67 -3.36 17.34 -2 17 C-1.94 15.85 -1.88 14.69 -1.81 13.5 C-1.22 8.51 1.11 5.01 4 1 C2.68 0.67 1.36 0.34 0 0 Z " fill="#A0C2D5" transform="translate(146,314)"/>
<path d="M0 0 C4.75 0.88 4.75 0.88 7 2 C5.56 7.03 3.17 9.08 -1 12 C-2.32 12 -3.64 12 -5 12 C-3.69 7.77 -2.06 3.93 0 0 Z " fill="#F5F9FC" transform="translate(102,308)"/>
<path d="M0 0 C2.07 1.85 3.38 3.69 5 6 C5 6.66 5 7.32 5 8 C-0.45 7.43 -4.91 6.05 -10 4 C-10 3.34 -10 2.68 -10 2 C-6.54 0.42 -3.8 -0.76 0 0 Z " fill="#EDEDED" transform="translate(191,327)"/>
<path d="M0 0 C1.65 0 3.3 0 5 0 C3.86 2.88 2.68 5.73 1.44 8.56 C0.38 11.09 -0.47 13.33 -1 16 C-2.65 16 -4.3 16 -6 16 C-6.31 13.31 -6.31 13.31 -6 10 C-4.38 8.29 -2.71 6.62 -1 5 C-0.13 2.32 -0.13 2.32 0 0 Z " fill="#F6FBFD" transform="translate(145,315)"/>
<path d="M0 0 C2.31 0.33 4.62 0.66 7 1 C7 1.66 7 2.32 7 3 C5.99 3.47 5.99 3.47 4.95 3.95 C-1.68 7.06 -1.68 7.06 -7 12 C-7.66 10.68 -8.32 9.36 -9 8 C-7.88 6.99 -6.75 6 -5.62 5 C-4.69 4.16 -4.69 4.16 -3.73 3.31 C-2 2 -2 2 0 2 C0 1.34 0 0.68 0 0 Z " fill="#A5D0EA" transform="translate(77,316)"/>
<path d="M0 0 C2.47 0.99 2.47 0.99 5 2 C1 6 -3 10 -7 14 C-7.99 13.01 -8.98 12.02 -10 11 C-9.28 10.3 -8.56 9.6 -7.81 8.88 C-5 6.07 -2.5 3.08 0 0 Z " fill="#A4D0E9" transform="translate(107,234)"/>
<path d="M0 0 C1 3 1 3 0 5.04 C-0.47 5.75 -0.95 6.46 -1.44 7.19 C-1.91 7.9 -2.38 8.62 -2.87 9.36 C-3.43 10.17 -3.43 10.17 -4 11 C-1.36 11.33 1.28 11.66 4 12 C4 12.33 4 12.66 4 13 C2.38 13.03 0.75 13.05 -0.88 13.06 C-2.23 13.08 -2.23 13.08 -3.62 13.1 C-6 13 -6 13 -8 12 C-6.43 7.54 -4.41 2.2 0 0 Z " fill="#292A2A" transform="translate(147,298)"/>
<path d="M0 0 C4.51 1.26 7.49 2.9 11 6 C7.7 6.33 4.4 6.66 1 7 C0.67 4.69 0.34 2.38 0 0 Z " fill="#D8CCC7" transform="translate(209,250)"/>
<path d="M0 0 C1.98 1.65 3.96 3.3 6 5 C4.68 6.32 3.36 7.64 2 9 C0.35 8.01 -1.3 7.02 -3 6 C-2.43 3.13 -2.14 2.14 0 0 Z " fill="#F9FCFD" transform="translate(125,193)"/>
<path d="M0 0 C0.99 0 1.98 0 3 0 C1.51 4.97 -0.6 9.42 -3 14 C-3.99 14 -4.98 14 -6 14 C-4.51 9.03 -2.4 4.58 0 0 Z " fill="#1C1B1B" transform="translate(91,324)"/>
<path d="M0 0 C0.33 0 0.66 0 1 0 C1.33 3.63 1.66 7.26 2 11 C-0.97 9.35 -3.94 7.7 -7 6 C-6.22 5.38 -5.43 4.76 -4.62 4.12 C-2.03 2.1 -2.03 2.1 0 0 Z " fill="#9CCCE5" transform="translate(148,278)"/>
<path d="M0 0 C5.44 0.99 5.44 0.99 11 2 C11 2.33 11 2.66 11 3 C6.54 3.5 6.54 3.5 2 4 C2 4.99 2 5.98 2 7 C0.02 7 -1.96 7 -4 7 C-2.68 4.69 -1.36 2.38 0 0 Z " fill="#96C1D7" transform="translate(150,296)"/>
<path d="M0 0 C2.97 0.5 2.97 0.5 6 1 C6 1.99 6 2.98 6 4 C5.34 4.66 4.68 5.32 4 6 C1.74 5.65 0.05 5.02 -2 4 C-1.34 2.68 -0.68 1.36 0 0 Z " fill="#F5F9FB" transform="translate(130,285)"/>
<path d="M0 0 C0.93 2.55 1.09 3.74 0.22 6.36 C-0.16 7.15 -0.54 7.94 -0.94 8.75 C-1.32 9.55 -1.7 10.35 -2.09 11.17 C-2.39 11.78 -2.69 12.38 -3 13 C-3.99 12.67 -4.98 12.34 -6 12 C-5.57 10.56 -5.13 9.12 -4.69 7.69 C-4.44 6.89 -4.2 6.09 -3.95 5.26 C-2.96 2.9 -1.92 1.66 0 0 Z " fill="#1D1D1D" transform="translate(72,367)"/>
<path d="M0 0 C0.99 0.33 1.98 0.66 3 1 C2.34 1 1.68 1 1 1 C0.73 1.91 0.46 2.81 0.19 3.75 C-0.9 6.71 -1.98 8.62 -4 11 C-4 10.34 -4 9.68 -4 9 C-4.66 8.67 -5.32 8.34 -6 8 C-2.25 1.12 -2.25 1.12 0 0 Z " fill="#1B1F21" transform="translate(101,307)"/>
<path d="M0 0 C0.66 0 1.32 0 2 0 C1.45 3.95 0.61 7.35 -1 11 C-1.66 10.67 -2.32 10.34 -3 10 C-2.49 6.28 -1.88 3.27 0 0 Z " fill="#0E0E0E" transform="translate(72,448)"/>
<path d="M0 0 C1 3 1 3 -0.44 6.19 C-1.21 7.58 -1.21 7.58 -2 9 C-2.99 9 -3.98 9 -5 9 C-3.91 5.22 -3.09 2.53 0 0 Z " fill="#131414" transform="translate(126,333)"/>
<path d="M0 0 C0.33 0.99 0.66 1.98 1 3 C-1.15 6.23 -2.27 7.76 -6 9 C-4.69 5.06 -3.08 2.77 0 0 Z " fill="#111618" transform="translate(136,316)"/>
<path d="M0 0 C0.69 1.75 0.69 1.75 1 4 C-0.31 6.25 -0.31 6.25 -2 8 C-2.66 8 -3.32 8 -4 8 C-2.25 2.25 -2.25 2.25 0 0 Z " fill="#121212" transform="translate(67,378)"/>
<path d="M0 0 C0.69 1.75 0.69 1.75 1 4 C-0.31 6.25 -0.31 6.25 -2 8 C-2.66 8 -3.32 8 -4 8 C-2.25 2.25 -2.25 2.25 0 0 Z " fill="#121212" transform="translate(75,360)"/>
<path d="M0 0 C1.65 0.33 3.3 0.66 5 1 C3.68 2.32 2.36 3.64 1 5 C0.01 4.67 -0.98 4.34 -2 4 C-1.34 2.68 -0.68 1.36 0 0 Z " fill="#9FCAE3" transform="translate(102,308)"/>
</svg>
