<?xml version="1.0" encoding="UTF-8"?>
<!-- Generator: visioncortex VTracer 0.6.4 -->
<svg version="1.1" xmlns="http://www.w3.org/2000/svg" width="500" height="500">
<path d="M0 0 C3.07 1.89 6.14 3.76 9.21 5.64 C10.18 6.23 10.18 6.23 11.16 6.83 C18.44 11.27 25.77 15.61 33.11 19.95 C44.56 26.72 55.97 33.57 67.33 40.5 C72.57 43.69 77.81 46.87 83.09 50 C84.01 50.54 84.92 51.09 85.87 51.65 C87.54 52.64 89.22 53.62 90.9 54.6 C98.83 59.3 104.19 63.98 108.61 72.26 C109.37 77.12 107.63 80.33 105.11 84.45 C102.14 88.38 99.23 91.7 95.11 94.45 C94.42 97.32 93.91 100.05 93.51 102.96 C93.38 103.81 93.25 104.66 93.11 105.53 C92.84 107.33 92.58 109.13 92.32 110.93 C91.93 113.67 91.51 116.41 91.1 119.15 C90.84 120.9 90.58 122.65 90.32 124.4 C90.2 125.21 90.07 126.03 89.95 126.87 C89.34 131.11 89.05 135.15 89.11 139.45 C88.38 142.03 87.34 144.03 86.11 146.45 C85.45 146.78 84.79 147.11 84.11 147.45 C83.42 148.77 82.76 150.1 82.11 151.45 C79.39 156.45 76.4 158.79 71.7 161.72 C67.68 164.4 64.07 167.56 60.4 170.69 C58.11 172.45 58.11 172.45 56.11 172.45 C56.11 173.11 56.11 173.77 56.11 174.45 C54.79 174.78 53.47 175.11 52.11 175.45 C52.11 176.11 52.11 176.77 52.11 177.45 C49.15 179.62 46.6 181.28 43.11 182.45 C43.11 183.11 43.11 183.77 43.11 184.45 C41.73 185.42 40.34 186.39 38.91 187.3 C33.2 190.61 33.2 190.61 29.11 195.45 C25.52 197.61 21.89 199.63 18.11 201.45 C18.11 202.11 18.11 202.77 18.11 203.45 C16.1 205.03 16.1 205.03 13.42 206.82 C10.55 208.77 7.81 210.69 5.11 212.88 C3.11 214.45 3.11 214.45 1.11 214.45 C1.11 215.11 1.11 215.77 1.11 216.45 C0.12 216.78 -0.87 217.11 -1.89 217.45 C-2.55 218.44 -3.21 219.43 -3.89 220.45 C-8.33 223.45 -8.33 223.45 -10.89 223.45 C-11.22 224.44 -11.55 225.43 -11.89 226.45 C-12.88 226.45 -13.87 226.45 -14.89 226.45 C-14.89 227.11 -14.89 227.77 -14.89 228.45 C-16.53 229.6 -18.23 230.67 -19.95 231.7 C-23.53 233.89 -26.82 236.09 -29.95 238.88 C-32.89 241.45 -32.89 241.45 -34.89 241.45 C-34.89 242.11 -34.89 242.77 -34.89 243.45 C-36.21 243.78 -37.53 244.11 -38.89 244.45 C-38.89 245.11 -38.89 245.77 -38.89 246.45 C-40.5 247.31 -40.5 247.31 -42.14 248.2 C-44.42 249.49 -46.02 250.57 -47.89 252.45 C-50.05 254.6 -52.34 255.92 -55.01 257.36 C-57.02 258.52 -58.84 259.82 -60.7 261.2 C-63.89 263.45 -63.89 263.45 -65.89 263.45 C-66.22 264.44 -66.55 265.43 -66.89 266.45 C-67.88 266.45 -68.87 266.45 -69.89 266.45 C-69.89 267.11 -69.89 267.77 -69.89 268.45 C-71.39 269.28 -71.39 269.28 -72.91 270.13 C-76.89 272.41 -80.71 274.89 -84.51 277.45 C-85.16 277.87 -85.8 278.3 -86.46 278.73 C-90.08 281.15 -93.49 283.71 -96.89 286.45 C-98.85 287.51 -100.86 288.51 -102.89 289.45 C-103.88 289.96 -104.87 290.48 -105.89 291.01 C-116.33 295.36 -129.07 295.42 -139.89 292.45 C-139.89 291.79 -139.89 291.13 -139.89 290.45 C-140.45 290.36 -141 290.27 -141.58 290.18 C-146.88 289.21 -150.73 287.64 -155.16 284.57 C-157.01 283.27 -157.01 283.27 -159.89 282.45 C-161.58 280.81 -163.24 279.13 -164.89 277.45 C-167.18 275.36 -169.53 273.34 -171.89 271.32 C-172.79 270.53 -172.79 270.53 -173.72 269.73 C-176.35 267.47 -178.83 265.48 -181.83 263.7 C-182.51 263.29 -183.19 262.87 -183.89 262.45 C-183.89 261.79 -183.89 261.13 -183.89 260.45 C-184.46 260.19 -185.02 259.93 -185.6 259.66 C-188.13 258.32 -190.22 256.73 -192.45 254.95 C-194.89 253 -197.29 251.18 -199.89 249.45 C-199.89 248.79 -199.89 248.13 -199.89 247.45 C-200.42 247.23 -200.95 247.01 -201.49 246.78 C-204.77 244.96 -207.46 242.53 -210.26 240.07 C-214.32 236.53 -218.38 233.41 -222.89 230.45 C-224.57 228.8 -226.25 227.13 -227.89 225.45 C-228.55 225.12 -229.21 224.79 -229.89 224.45 C-229.89 223.79 -229.89 223.13 -229.89 222.45 C-230.49 222.16 -231.09 221.87 -231.7 221.57 C-233.89 220.45 -233.89 220.45 -236.89 218.45 C-236.89 217.79 -236.89 217.13 -236.89 216.45 C-237.67 216.2 -238.46 215.95 -239.26 215.7 C-242.33 214.24 -242.51 213.39 -243.89 210.45 C-244.49 210.16 -245.09 209.86 -245.7 209.57 C-248.31 208.23 -249.85 206.67 -251.83 204.51 C-252.48 203.82 -253.12 203.13 -253.79 202.42 C-259.78 193.94 -261.75 185.53 -262.64 175.32 C-262.75 174.21 -262.86 173.09 -262.98 171.94 C-263.2 169.77 -263.41 167.61 -263.61 165.44 C-264.26 158.03 -264.26 158.03 -265.45 150.7 C-265.89 148.45 -265.89 148.45 -265.64 146.01 C-266.09 141.4 -269.74 138.59 -272.89 135.45 C-276.32 128.44 -277.64 122.33 -275.68 114.65 C-271.83 103.9 -260.93 98.39 -251.83 92.63 C-250.68 91.91 -249.54 91.18 -248.4 90.46 C-245.23 88.45 -242.06 86.44 -238.89 84.45 C-238.21 84.02 -237.54 83.59 -236.84 83.15 C-212.1 67.51 -186.28 53.47 -160.8 39.09 C-155.99 36.37 -151.19 33.66 -146.39 30.95 C-140.53 27.64 -134.68 24.33 -128.82 21.02 C-127.33 20.18 -127.33 20.18 -125.8 19.31 C-123.84 18.2 -121.87 17.09 -119.9 15.98 C-115.87 13.7 -111.83 11.42 -107.83 9.1 C-101.04 5.16 -94.18 1.55 -87.14 -1.89 C-84.22 -3.39 -81.47 -5 -78.7 -6.74 C-52.11 -23.06 -24.6 -15.17 0 0 Z " fill="#0E0F10" transform="translate(383.88916015625,181.554931640625)"/>
<path d="M0 0 C2.5 1.05 4.01 1.09 6.69 0.89 C12.9 0.57 17.14 3.73 22.25 6.95 C22.98 7.41 23.71 7.86 24.46 8.33 C27.73 10.39 31.01 12.45 34.27 14.55 C39.49 17.89 44.8 21 50.25 23.95 C50.25 24.61 50.25 25.27 50.25 25.95 C50.94 26.19 51.62 26.43 52.32 26.68 C55.82 28.19 58.95 30.13 62.13 32.2 C62.75 32.6 63.36 33 64 33.41 C75.62 41.05 75.62 41.05 77.25 45.95 C76.92 46.94 76.59 47.93 76.25 48.95 C75.59 48.95 74.93 48.95 74.25 48.95 C74.91 49.9 75.57 50.85 76.25 51.82 C78.88 56.48 79.04 60.72 78.25 65.95 C76.57 71.72 74.39 75.61 69.25 78.95 C67.92 79.94 66.58 80.94 65.25 81.95 C65.61 82.66 65.98 83.37 66.35 84.11 C71.18 94.07 71.18 94.07 70.25 99.95 C67.34 107.48 62.73 112.1 55.75 115.89 C55.15 116.22 54.55 116.55 53.93 116.89 C52.67 117.57 51.41 118.25 50.15 118.93 C48.27 119.94 46.39 120.98 44.52 122.02 C35.56 126.95 35.56 126.95 33.25 126.95 C32.92 127.61 32.59 128.27 32.25 128.95 C29.69 130.35 27.13 131.67 24.5 132.95 C23.79 133.31 23.07 133.66 22.33 134.03 C19.35 135.5 16.41 136.89 13.3 138.07 C11.08 138.76 11.08 138.76 10.25 140.95 C8.28 142 6.27 142.98 4.25 143.95 C2.74 144.75 1.23 145.55 -0.28 146.36 C-1.09 146.79 -1.9 147.22 -2.73 147.67 C-4.41 148.57 -6.08 149.46 -7.76 150.37 C-12.01 152.63 -16.09 154.61 -20.75 155.95 C-20.75 156.61 -20.75 157.27 -20.75 157.95 C-21.33 158.2 -21.91 158.46 -22.5 158.72 C-23.29 159.06 -24.07 159.41 -24.87 159.76 C-25.64 160.1 -26.4 160.43 -27.19 160.78 C-28.95 161.59 -30.7 162.43 -32.42 163.32 C-36.81 165.47 -41.3 167.36 -45.81 169.26 C-51.9 171.84 -57.93 174.48 -63.87 177.39 C-70.8 180.6 -77.81 183.36 -85.31 180.64 C-87.12 179.75 -88.94 178.85 -90.75 177.95 C-90.75 177.29 -90.75 176.63 -90.75 175.95 C-91.74 175.62 -92.73 175.29 -93.75 174.95 C-93.75 174.29 -93.75 173.63 -93.75 172.95 C-94.41 172.95 -95.07 172.95 -95.75 172.95 C-97.13 171.32 -98.47 169.66 -99.75 167.95 C-107.01 170.05 -114.17 172.42 -121.33 174.86 C-125.82 176.29 -129.87 177.08 -134.58 177.08 C-135.48 177.08 -136.38 177.08 -137.31 177.09 C-138.24 177.08 -139.16 177.08 -140.12 177.07 C-141.04 177.08 -141.96 177.08 -142.91 177.09 C-156.5 177.07 -156.5 177.07 -160.25 173.7 C-161.07 172.79 -161.9 171.88 -162.75 170.95 C-164 170.03 -165.27 169.13 -166.56 168.26 C-167.61 167.5 -168.66 166.74 -169.75 165.95 C-169.75 165.29 -169.75 164.63 -169.75 163.95 C-171.99 163 -171.99 163 -174.75 162.95 C-177.48 165.26 -177.48 165.26 -179.75 167.95 C-180.41 168.28 -181.07 168.61 -181.75 168.95 C-182.01 169.55 -182.28 170.15 -182.56 170.76 C-185.24 175.7 -189.95 177.92 -195.12 179.55 C-200.1 180.3 -204.9 179.09 -209.75 177.95 C-209.75 177.29 -209.75 176.63 -209.75 175.95 C-211.01 175.79 -211.01 175.79 -212.31 175.64 C-218.92 174.31 -224.78 170.99 -230.75 167.95 C-230.75 167.29 -230.75 166.63 -230.75 165.95 C-231.41 165.95 -232.07 165.95 -232.75 165.95 C-234.47 164.27 -234.47 164.27 -236.37 162.07 C-237.32 161 -237.32 161 -238.29 159.89 C-239.75 157.95 -239.75 157.95 -239.75 155.95 C-240.41 155.95 -241.07 155.95 -241.75 155.95 C-245.69 147.57 -247.24 140.21 -247.25 130.95 C-247.25 130.05 -247.26 129.16 -247.26 128.24 C-247.15 122.14 -246.31 117.61 -241.92 113.05 C-241.31 112.56 -240.69 112.08 -240.06 111.57 C-239.12 110.82 -239.12 110.82 -238.17 110.05 C-237.7 109.69 -237.23 109.32 -236.75 108.95 C-237.34 106.26 -238.05 104.33 -239.31 101.82 C-241.74 96.26 -241.58 90.46 -239.68 84.76 C-231.8 73.32 -219.47 67.49 -207.06 62.07 C-205.82 61.53 -204.57 60.98 -203.33 60.43 C-167.34 44.56 -130.92 29.67 -94.5 14.82 C-93.36 14.36 -92.22 13.9 -91.05 13.42 C-84.4 10.71 -77.74 8 -71.08 5.3 C-67.66 3.91 -64.24 2.51 -60.83 1.11 C-58.6 0.21 -56.37 -0.7 -54.14 -1.61 C-53.12 -2.02 -52.11 -2.44 -51.06 -2.87 C-33.11 -10.13 -17.16 -9.41 0 0 Z " fill="#FCFCFC" transform="translate(256.74609375,34.05078125)"/>
<path d="M0 0 C3.07 1.89 6.14 3.76 9.21 5.64 C10.18 6.23 10.18 6.23 11.16 6.83 C18.44 11.27 25.77 15.61 33.11 19.95 C44.56 26.72 55.97 33.57 67.33 40.5 C72.57 43.69 77.81 46.87 83.09 50 C84.01 50.54 84.92 51.09 85.87 51.65 C87.54 52.64 89.22 53.62 90.9 54.6 C98.83 59.3 104.19 63.98 108.61 72.26 C109.37 77.12 107.63 80.33 105.11 84.45 C102.14 88.38 99.23 91.7 95.11 94.45 C94.42 97.32 93.91 100.05 93.51 102.96 C93.38 103.81 93.25 104.66 93.11 105.53 C92.84 107.33 92.58 109.13 92.32 110.93 C91.93 113.67 91.51 116.41 91.1 119.15 C90.84 120.9 90.58 122.65 90.32 124.4 C90.2 125.21 90.07 126.03 89.95 126.87 C89.34 131.11 89.05 135.15 89.11 139.45 C88.38 142.03 87.34 144.03 86.11 146.45 C85.45 146.78 84.79 147.11 84.11 147.45 C83.42 148.77 82.76 150.1 82.11 151.45 C79.39 156.45 76.4 158.79 71.7 161.72 C67.68 164.4 64.07 167.56 60.4 170.69 C58.11 172.45 58.11 172.45 56.11 172.45 C56.11 173.11 56.11 173.77 56.11 174.45 C54.79 174.78 53.47 175.11 52.11 175.45 C52.11 176.11 52.11 176.77 52.11 177.45 C49.15 179.62 46.6 181.28 43.11 182.45 C43.11 183.11 43.11 183.77 43.11 184.45 C41.73 185.42 40.34 186.39 38.91 187.3 C33.2 190.61 33.2 190.61 29.11 195.45 C25.52 197.61 21.89 199.63 18.11 201.45 C18.11 202.11 18.11 202.77 18.11 203.45 C16.1 205.03 16.1 205.03 13.42 206.82 C10.55 208.77 7.81 210.69 5.11 212.88 C3.11 214.45 3.11 214.45 1.11 214.45 C1.11 215.11 1.11 215.77 1.11 216.45 C0.12 216.78 -0.87 217.11 -1.89 217.45 C-2.55 218.44 -3.21 219.43 -3.89 220.45 C-8.33 223.45 -8.33 223.45 -10.89 223.45 C-11.22 224.44 -11.55 225.43 -11.89 226.45 C-12.88 226.45 -13.87 226.45 -14.89 226.45 C-14.89 227.11 -14.89 227.77 -14.89 228.45 C-16.53 229.6 -18.23 230.67 -19.95 231.7 C-23.53 233.89 -26.82 236.09 -29.95 238.88 C-32.89 241.45 -32.89 241.45 -34.89 241.45 C-34.89 242.11 -34.89 242.77 -34.89 243.45 C-36.21 243.78 -37.53 244.11 -38.89 244.45 C-38.89 245.11 -38.89 245.77 -38.89 246.45 C-40.5 247.31 -40.5 247.31 -42.14 248.2 C-44.42 249.49 -46.02 250.57 -47.89 252.45 C-50.05 254.6 -52.34 255.92 -55.01 257.36 C-57.02 258.52 -58.84 259.82 -60.7 261.2 C-63.89 263.45 -63.89 263.45 -65.89 263.45 C-66.22 264.44 -66.55 265.43 -66.89 266.45 C-67.88 266.45 -68.87 266.45 -69.89 266.45 C-69.89 267.11 -69.89 267.77 -69.89 268.45 C-71.39 269.28 -71.39 269.28 -72.91 270.13 C-76.89 272.41 -80.71 274.89 -84.51 277.45 C-85.16 277.87 -85.8 278.3 -86.46 278.73 C-90.08 281.15 -93.49 283.71 -96.89 286.45 C-98.85 287.51 -100.86 288.51 -102.89 289.45 C-103.88 289.96 -104.87 290.48 -105.89 291.01 C-116.33 295.36 -129.07 295.42 -139.89 292.45 C-139.89 291.79 -139.89 291.13 -139.89 290.45 C-140.45 290.36 -141 290.27 -141.58 290.18 C-146.88 289.21 -150.73 287.64 -155.16 284.57 C-157.01 283.27 -157.01 283.27 -159.89 282.45 C-161.58 280.81 -163.24 279.13 -164.89 277.45 C-167.18 275.36 -169.53 273.34 -171.89 271.32 C-172.79 270.53 -172.79 270.53 -173.72 269.73 C-176.35 267.47 -178.83 265.48 -181.83 263.7 C-182.51 263.29 -183.19 262.87 -183.89 262.45 C-183.89 261.79 -183.89 261.13 -183.89 260.45 C-184.46 260.19 -185.02 259.93 -185.6 259.66 C-188.13 258.32 -190.22 256.73 -192.45 254.95 C-194.89 253 -197.29 251.18 -199.89 249.45 C-199.89 248.79 -199.89 248.13 -199.89 247.45 C-200.42 247.23 -200.95 247.01 -201.49 246.78 C-204.77 244.96 -207.46 242.53 -210.26 240.07 C-214.32 236.53 -218.38 233.41 -222.89 230.45 C-224.57 228.8 -226.25 227.13 -227.89 225.45 C-228.55 225.12 -229.21 224.79 -229.89 224.45 C-229.89 223.79 -229.89 223.13 -229.89 222.45 C-230.49 222.16 -231.09 221.87 -231.7 221.57 C-233.89 220.45 -233.89 220.45 -236.89 218.45 C-236.89 217.79 -236.89 217.13 -236.89 216.45 C-237.67 216.2 -238.46 215.95 -239.26 215.7 C-242.33 214.24 -242.51 213.39 -243.89 210.45 C-244.49 210.16 -245.09 209.86 -245.7 209.57 C-248.31 208.23 -249.85 206.67 -251.83 204.51 C-252.48 203.82 -253.12 203.13 -253.79 202.42 C-259.78 193.94 -261.75 185.53 -262.64 175.32 C-262.75 174.21 -262.86 173.09 -262.98 171.94 C-263.2 169.77 -263.41 167.61 -263.61 165.44 C-264.26 158.03 -264.26 158.03 -265.45 150.7 C-265.89 148.45 -265.89 148.45 -265.64 146.01 C-266.09 141.4 -269.74 138.59 -272.89 135.45 C-276.32 128.44 -277.64 122.33 -275.68 114.65 C-271.83 103.9 -260.93 98.39 -251.83 92.63 C-250.68 91.91 -249.54 91.18 -248.4 90.46 C-245.23 88.45 -242.06 86.44 -238.89 84.45 C-238.21 84.02 -237.54 83.59 -236.84 83.15 C-212.1 67.51 -186.28 53.47 -160.8 39.09 C-155.99 36.37 -151.19 33.66 -146.39 30.95 C-140.53 27.64 -134.68 24.33 -128.82 21.02 C-127.33 20.18 -127.33 20.18 -125.8 19.31 C-123.84 18.2 -121.87 17.09 -119.9 15.98 C-115.87 13.7 -111.83 11.42 -107.83 9.1 C-101.04 5.16 -94.18 1.55 -87.14 -1.89 C-84.22 -3.39 -81.47 -5 -78.7 -6.74 C-52.11 -23.06 -24.6 -15.17 0 0 Z M-83.89 4.45 C-84.79 4.92 -85.69 5.4 -86.61 5.89 C-98.1 12.01 -109.48 18.3 -120.76 24.79 C-127.78 28.83 -134.86 32.77 -141.95 36.7 C-164.11 48.97 -186.06 61.6 -207.89 74.45 C-208.76 74.95 -209.63 75.46 -210.53 75.99 C-220.25 81.69 -229.83 87.59 -239.26 93.76 C-240.14 94.32 -241.01 94.88 -241.91 95.46 C-248.35 99.73 -253.69 104.27 -256.89 111.45 C-258.08 119.55 -256.05 125.02 -251.4 131.52 C-246.21 137.93 -239.73 142.51 -233.12 147.33 C-229.05 150.3 -225.11 153.41 -221.2 156.57 C-216.18 160.62 -211.12 164.61 -206 168.52 C-201.38 172.06 -196.79 175.62 -192.2 179.2 C-191.44 179.79 -190.68 180.38 -189.9 180.98 C-188.35 182.2 -186.79 183.41 -185.24 184.62 C-182.9 186.43 -180.57 188.25 -178.23 190.07 C-177.47 190.66 -176.71 191.25 -175.92 191.86 C-174.41 193.04 -172.89 194.21 -171.38 195.39 C-167.9 198.09 -164.43 200.8 -161 203.56 C-144.8 216.55 -131.9 222.39 -110.89 220.45 C-106.61 219.58 -102.86 218.26 -98.89 216.45 C-98.13 216.14 -97.36 215.84 -96.58 215.52 C-88.05 211.78 -80.71 205.71 -73.27 200.2 C-69.5 197.42 -65.69 194.68 -61.89 191.95 C-60.39 190.86 -58.89 189.78 -57.39 188.7 C-56.65 188.16 -55.91 187.63 -55.14 187.07 C-52.88 185.44 -50.62 183.8 -48.35 182.16 C-40.37 176.38 -32.35 170.64 -24.28 164.96 C-16.86 159.73 -9.51 154.41 -2.16 149.09 C1.6 146.37 5.35 143.66 9.11 140.95 C13.66 137.66 18.21 134.38 22.75 131.09 C30.08 125.79 37.41 120.51 44.77 115.26 C50.44 111.22 56.07 107.15 61.7 103.06 C65.69 100.17 69.71 97.34 73.8 94.57 C80.33 90 85.89 85.37 88.11 77.45 C88.27 72.46 87.59 69.53 84.55 65.57 C79.42 60.27 73.05 56.74 66.75 53.02 C63.81 51.27 60.89 49.48 57.97 47.7 C44.07 39.2 30.1 30.83 16.07 22.56 C9.47 18.67 2.91 14.72 -3.58 10.64 C-32.2 -7.34 -53.11 -12.08 -83.89 4.45 Z " fill="#78C7FA" transform="translate(383.88916015625,181.554931640625)"/>
<path d="M0 0 C2.5 1.05 4.01 1.09 6.69 0.89 C12.9 0.57 17.14 3.73 22.25 6.95 C22.98 7.41 23.71 7.86 24.46 8.33 C27.73 10.39 31.01 12.45 34.27 14.55 C39.49 17.89 44.8 21 50.25 23.95 C50.25 24.61 50.25 25.27 50.25 25.95 C50.94 26.19 51.62 26.43 52.32 26.68 C55.82 28.19 58.95 30.13 62.13 32.2 C62.75 32.6 63.36 33 64 33.41 C75.62 41.05 75.62 41.05 77.25 45.95 C76.92 46.94 76.59 47.93 76.25 48.95 C75.59 48.95 74.93 48.95 74.25 48.95 C74.91 49.9 75.57 50.85 76.25 51.82 C78.88 56.48 79.04 60.72 78.25 65.95 C76.57 71.72 74.39 75.61 69.25 78.95 C67.92 79.94 66.58 80.94 65.25 81.95 C65.61 82.66 65.98 83.37 66.35 84.11 C71.18 94.07 71.18 94.07 70.25 99.95 C67.34 107.48 62.73 112.1 55.75 115.89 C55.15 116.22 54.55 116.55 53.93 116.89 C52.67 117.57 51.41 118.25 50.15 118.93 C48.27 119.94 46.39 120.98 44.52 122.02 C35.56 126.95 35.56 126.95 33.25 126.95 C32.92 127.61 32.59 128.27 32.25 128.95 C29.69 130.35 27.13 131.67 24.5 132.95 C23.79 133.31 23.07 133.66 22.33 134.03 C19.35 135.5 16.41 136.89 13.3 138.07 C11.08 138.76 11.08 138.76 10.25 140.95 C8.28 142 6.27 142.98 4.25 143.95 C2.74 144.75 1.23 145.55 -0.28 146.36 C-1.09 146.79 -1.9 147.22 -2.73 147.67 C-4.41 148.57 -6.08 149.46 -7.76 150.37 C-12.01 152.63 -16.09 154.61 -20.75 155.95 C-20.75 156.61 -20.75 157.27 -20.75 157.95 C-21.33 158.2 -21.91 158.46 -22.5 158.72 C-23.29 159.06 -24.07 159.41 -24.87 159.76 C-25.64 160.1 -26.4 160.43 -27.19 160.78 C-28.95 161.59 -30.7 162.43 -32.42 163.32 C-36.81 165.47 -41.3 167.36 -45.81 169.26 C-51.9 171.84 -57.93 174.48 -63.87 177.39 C-70.8 180.6 -77.81 183.36 -85.31 180.64 C-87.12 179.75 -88.94 178.85 -90.75 177.95 C-90.75 177.29 -90.75 176.63 -90.75 175.95 C-91.74 175.62 -92.73 175.29 -93.75 174.95 C-93.75 174.29 -93.75 173.63 -93.75 172.95 C-94.41 172.95 -95.07 172.95 -95.75 172.95 C-97.13 171.32 -98.47 169.66 -99.75 167.95 C-107.01 170.05 -114.17 172.42 -121.33 174.86 C-125.82 176.29 -129.87 177.08 -134.58 177.08 C-135.48 177.08 -136.38 177.08 -137.31 177.09 C-138.24 177.08 -139.16 177.08 -140.12 177.07 C-141.04 177.08 -141.96 177.08 -142.91 177.09 C-156.5 177.07 -156.5 177.07 -160.25 173.7 C-161.07 172.79 -161.9 171.88 -162.75 170.95 C-164 170.03 -165.27 169.13 -166.56 168.26 C-167.61 167.5 -168.66 166.74 -169.75 165.95 C-169.75 165.29 -169.75 164.63 -169.75 163.95 C-171.99 163 -171.99 163 -174.75 162.95 C-177.48 165.26 -177.48 165.26 -179.75 167.95 C-180.41 168.28 -181.07 168.61 -181.75 168.95 C-182.01 169.55 -182.28 170.15 -182.56 170.76 C-185.24 175.7 -189.95 177.92 -195.12 179.55 C-200.1 180.3 -204.9 179.09 -209.75 177.95 C-209.75 177.29 -209.75 176.63 -209.75 175.95 C-211.01 175.79 -211.01 175.79 -212.31 175.64 C-218.92 174.31 -224.78 170.99 -230.75 167.95 C-230.75 167.29 -230.75 166.63 -230.75 165.95 C-231.41 165.95 -232.07 165.95 -232.75 165.95 C-234.47 164.27 -234.47 164.27 -236.37 162.07 C-237.32 161 -237.32 161 -238.29 159.89 C-239.75 157.95 -239.75 157.95 -239.75 155.95 C-240.41 155.95 -241.07 155.95 -241.75 155.95 C-245.69 147.57 -247.24 140.21 -247.25 130.95 C-247.25 130.05 -247.26 129.16 -247.26 128.24 C-247.15 122.14 -246.31 117.61 -241.92 113.05 C-241.31 112.56 -240.69 112.08 -240.06 111.57 C-239.12 110.82 -239.12 110.82 -238.17 110.05 C-237.7 109.69 -237.23 109.32 -236.75 108.95 C-237.34 106.26 -238.05 104.33 -239.31 101.82 C-241.74 96.26 -241.58 90.46 -239.68 84.76 C-231.8 73.32 -219.47 67.49 -207.06 62.07 C-205.82 61.53 -204.57 60.98 -203.33 60.43 C-167.34 44.56 -130.92 29.67 -94.5 14.82 C-93.36 14.36 -92.22 13.9 -91.05 13.42 C-84.4 10.71 -77.74 8 -71.08 5.3 C-67.66 3.91 -64.24 2.51 -60.83 1.11 C-58.6 0.21 -56.37 -0.7 -54.14 -1.61 C-53.12 -2.02 -52.11 -2.44 -51.06 -2.87 C-33.11 -10.13 -17.16 -9.41 0 0 Z M-51.15 2.27 C-51.94 2.59 -52.72 2.92 -53.53 3.26 C-56.1 4.34 -58.68 5.42 -61.25 6.51 C-63.08 7.28 -64.92 8.05 -66.76 8.82 C-70.56 10.41 -74.36 12.01 -78.16 13.61 C-83.32 15.77 -88.49 17.92 -93.66 20.05 C-130.18 35.09 -166.61 50.35 -202.62 66.57 C-203.5 66.97 -204.38 67.36 -205.28 67.77 C-207.75 68.88 -210.21 69.99 -212.68 71.11 C-213.38 71.43 -214.09 71.75 -214.81 72.07 C-224.53 76.12 -224.53 76.12 -230.75 83.95 C-231.38 90.33 -230.4 94.65 -226.75 99.95 C-222.07 105.48 -216.43 109.95 -210.8 114.46 C-207.4 117.23 -204.07 120.08 -200.75 122.95 C-194.82 128.05 -188.82 133.03 -182.75 137.95 C-181.5 138.97 -180.25 139.99 -179 141.01 C-174.93 144.33 -170.84 147.64 -166.75 150.95 C-166.09 151.48 -165.42 152.02 -164.74 152.57 C-162.85 154.1 -160.96 155.62 -159.06 157.14 C-158.49 157.59 -157.93 158.05 -157.35 158.52 C-148.37 165.64 -138.72 164.6 -127.75 163.95 C-123.5 163.44 -119.77 162.4 -115.75 160.95 C-115.06 160.7 -114.37 160.45 -113.66 160.2 C-98.36 154.61 -83.91 147.34 -69.54 139.72 C-57.19 133.19 -44.74 126.9 -32.23 120.7 C-22.34 115.79 -12.51 110.8 -2.75 105.63 C4.77 101.65 12.37 97.85 19.99 94.07 C30.58 88.82 41.16 83.56 51.63 78.07 C52.35 77.7 53.06 77.33 53.8 76.94 C64.81 71.14 64.81 71.14 71.25 60.95 C71.69 57.7 71.99 55.15 70.22 52.27 C66.07 47.4 61.48 44.12 56.07 40.76 C54.75 39.92 54.75 39.92 53.4 39.07 C50.69 37.35 47.97 35.65 45.25 33.95 C43.69 32.96 42.13 31.96 40.56 30.97 C36.67 28.5 32.77 26.04 28.87 23.6 C25.98 21.78 23.1 19.94 20.22 18.11 C-3.2 3.25 -23.65 -9.48 -51.15 2.27 Z " fill="#0A0B0C" transform="translate(256.74609375,34.05078125)"/>
<path d="M0 0 C3.07 1.89 6.14 3.76 9.21 5.64 C10.18 6.23 10.18 6.23 11.16 6.83 C18.44 11.27 25.77 15.61 33.11 19.95 C44.56 26.72 55.97 33.57 67.33 40.5 C72.57 43.69 77.81 46.87 83.09 50 C84.01 50.54 84.92 51.09 85.87 51.65 C87.54 52.64 89.22 53.62 90.9 54.6 C98.83 59.3 104.19 63.98 108.61 72.26 C109.37 77.12 107.63 80.33 105.11 84.45 C102.14 88.38 99.23 91.7 95.11 94.45 C94.42 97.32 93.91 100.05 93.51 102.96 C93.38 103.81 93.25 104.66 93.11 105.53 C92.84 107.33 92.58 109.13 92.32 110.93 C91.93 113.67 91.51 116.41 91.1 119.15 C90.84 120.9 90.58 122.65 90.32 124.4 C90.2 125.21 90.07 126.03 89.95 126.87 C89.34 131.11 89.05 135.15 89.11 139.45 C88.38 142.03 87.34 144.03 86.11 146.45 C85.45 146.78 84.79 147.11 84.11 147.45 C83.42 148.77 82.76 150.1 82.11 151.45 C79.39 156.45 76.4 158.79 71.7 161.72 C67.68 164.4 64.07 167.56 60.4 170.69 C58.11 172.45 58.11 172.45 56.11 172.45 C56.11 173.11 56.11 173.77 56.11 174.45 C54.79 174.78 53.47 175.11 52.11 175.45 C52.11 176.11 52.11 176.77 52.11 177.45 C49.15 179.62 46.6 181.28 43.11 182.45 C43.11 183.11 43.11 183.77 43.11 184.45 C41.73 185.42 40.34 186.39 38.91 187.3 C33.2 190.61 33.2 190.61 29.11 195.45 C25.52 197.61 21.89 199.63 18.11 201.45 C18.11 202.11 18.11 202.77 18.11 203.45 C16.1 205.03 16.1 205.03 13.42 206.82 C10.55 208.77 7.81 210.69 5.11 212.88 C3.11 214.45 3.11 214.45 1.11 214.45 C1.11 215.11 1.11 215.77 1.11 216.45 C0.12 216.78 -0.87 217.11 -1.89 217.45 C-2.55 218.44 -3.21 219.43 -3.89 220.45 C-8.33 223.45 -8.33 223.45 -10.89 223.45 C-11.22 224.44 -11.55 225.43 -11.89 226.45 C-12.88 226.45 -13.87 226.45 -14.89 226.45 C-14.89 227.11 -14.89 227.77 -14.89 228.45 C-16.53 229.6 -18.23 230.67 -19.95 231.7 C-23.53 233.89 -26.82 236.09 -29.95 238.88 C-32.89 241.45 -32.89 241.45 -34.89 241.45 C-34.89 242.11 -34.89 242.77 -34.89 243.45 C-36.21 243.78 -37.53 244.11 -38.89 244.45 C-38.89 245.11 -38.89 245.77 -38.89 246.45 C-40.5 247.31 -40.5 247.31 -42.14 248.2 C-44.42 249.49 -46.02 250.57 -47.89 252.45 C-50.05 254.6 -52.34 255.92 -55.01 257.36 C-57.02 258.52 -58.84 259.82 -60.7 261.2 C-63.89 263.45 -63.89 263.45 -65.89 263.45 C-66.22 264.44 -66.55 265.43 -66.89 266.45 C-67.88 266.45 -68.87 266.45 -69.89 266.45 C-69.89 267.11 -69.89 267.77 -69.89 268.45 C-71.39 269.28 -71.39 269.28 -72.91 270.13 C-76.89 272.41 -80.71 274.89 -84.51 277.45 C-85.16 277.87 -85.8 278.3 -86.46 278.73 C-90.08 281.15 -93.49 283.71 -96.89 286.45 C-98.85 287.51 -100.86 288.51 -102.89 289.45 C-103.88 289.96 -104.87 290.48 -105.89 291.01 C-116.33 295.36 -129.07 295.42 -139.89 292.45 C-139.89 291.79 -139.89 291.13 -139.89 290.45 C-140.45 290.36 -141 290.27 -141.58 290.18 C-146.88 289.21 -150.73 287.64 -155.16 284.57 C-157.01 283.27 -157.01 283.27 -159.89 282.45 C-161.58 280.81 -163.24 279.13 -164.89 277.45 C-167.18 275.36 -169.53 273.34 -171.89 271.32 C-172.79 270.53 -172.79 270.53 -173.72 269.73 C-176.35 267.47 -178.83 265.48 -181.83 263.7 C-182.51 263.29 -183.19 262.87 -183.89 262.45 C-183.89 261.79 -183.89 261.13 -183.89 260.45 C-184.46 260.19 -185.02 259.93 -185.6 259.66 C-188.13 258.32 -190.22 256.73 -192.45 254.95 C-194.89 253 -197.29 251.18 -199.89 249.45 C-199.89 248.79 -199.89 248.13 -199.89 247.45 C-200.42 247.23 -200.95 247.01 -201.49 246.78 C-204.77 244.96 -207.46 242.53 -210.26 240.07 C-214.32 236.53 -218.38 233.41 -222.89 230.45 C-224.57 228.8 -226.25 227.13 -227.89 225.45 C-228.55 225.12 -229.21 224.79 -229.89 224.45 C-229.89 223.79 -229.89 223.13 -229.89 222.45 C-230.49 222.16 -231.09 221.87 -231.7 221.57 C-233.89 220.45 -233.89 220.45 -236.89 218.45 C-236.89 217.79 -236.89 217.13 -236.89 216.45 C-237.67 216.2 -238.46 215.95 -239.26 215.7 C-242.33 214.24 -242.51 213.39 -243.89 210.45 C-244.49 210.16 -245.09 209.86 -245.7 209.57 C-248.31 208.23 -249.85 206.67 -251.83 204.51 C-252.48 203.82 -253.12 203.13 -253.79 202.42 C-259.78 193.94 -261.75 185.53 -262.64 175.32 C-262.75 174.21 -262.86 173.09 -262.98 171.94 C-263.2 169.77 -263.41 167.61 -263.61 165.44 C-264.26 158.03 -264.26 158.03 -265.45 150.7 C-265.89 148.45 -265.89 148.45 -265.64 146.01 C-266.09 141.4 -269.74 138.59 -272.89 135.45 C-276.32 128.44 -277.64 122.33 -275.68 114.65 C-271.83 103.9 -260.93 98.39 -251.83 92.63 C-250.68 91.91 -249.54 91.18 -248.4 90.46 C-245.23 88.45 -242.06 86.44 -238.89 84.45 C-238.21 84.02 -237.54 83.59 -236.84 83.15 C-212.1 67.51 -186.28 53.47 -160.8 39.09 C-155.99 36.37 -151.19 33.66 -146.39 30.95 C-140.53 27.64 -134.68 24.33 -128.82 21.02 C-127.33 20.18 -127.33 20.18 -125.8 19.31 C-123.84 18.2 -121.87 17.09 -119.9 15.98 C-115.87 13.7 -111.83 11.42 -107.83 9.1 C-101.04 5.16 -94.18 1.55 -87.14 -1.89 C-84.22 -3.39 -81.47 -5 -78.7 -6.74 C-52.11 -23.06 -24.6 -15.17 0 0 Z M-83.89 4.45 C-84.79 4.92 -85.69 5.4 -86.61 5.89 C-98.1 12.01 -109.48 18.3 -120.76 24.79 C-127.78 28.83 -134.86 32.77 -141.95 36.7 C-164.11 48.97 -186.06 61.6 -207.89 74.45 C-208.76 74.95 -209.63 75.46 -210.53 75.99 C-220.25 81.69 -229.83 87.59 -239.26 93.76 C-240.14 94.32 -241.01 94.88 -241.91 95.46 C-248.35 99.73 -253.69 104.27 -256.89 111.45 C-258.08 119.55 -256.05 125.02 -251.4 131.52 C-246.21 137.93 -239.73 142.51 -233.12 147.33 C-229.05 150.3 -225.11 153.41 -221.2 156.57 C-216.18 160.62 -211.12 164.61 -206 168.52 C-201.38 172.06 -196.79 175.62 -192.2 179.2 C-191.44 179.79 -190.68 180.38 -189.9 180.98 C-188.35 182.2 -186.79 183.41 -185.24 184.62 C-182.9 186.43 -180.57 188.25 -178.23 190.07 C-177.47 190.66 -176.71 191.25 -175.92 191.86 C-174.41 193.04 -172.89 194.21 -171.38 195.39 C-167.9 198.09 -164.43 200.8 -161 203.56 C-144.8 216.55 -131.9 222.39 -110.89 220.45 C-106.61 219.58 -102.86 218.26 -98.89 216.45 C-98.13 216.14 -97.36 215.84 -96.58 215.52 C-88.05 211.78 -80.71 205.71 -73.27 200.2 C-69.5 197.42 -65.69 194.68 -61.89 191.95 C-60.39 190.86 -58.89 189.78 -57.39 188.7 C-56.65 188.16 -55.91 187.63 -55.14 187.07 C-52.88 185.44 -50.62 183.8 -48.35 182.16 C-40.37 176.38 -32.35 170.64 -24.28 164.96 C-16.86 159.73 -9.51 154.41 -2.16 149.09 C1.6 146.37 5.35 143.66 9.11 140.95 C13.66 137.66 18.21 134.38 22.75 131.09 C30.08 125.79 37.41 120.51 44.77 115.26 C50.44 111.22 56.07 107.15 61.7 103.06 C65.69 100.17 69.71 97.34 73.8 94.57 C80.33 90 85.89 85.37 88.11 77.45 C88.27 72.46 87.59 69.53 84.55 65.57 C79.42 60.27 73.05 56.74 66.75 53.02 C63.81 51.27 60.89 49.48 57.97 47.7 C44.07 39.2 30.1 30.83 16.07 22.56 C9.47 18.67 2.91 14.72 -3.58 10.64 C-32.2 -7.34 -53.11 -12.08 -83.89 4.45 Z M88.11 98.45 C78.25 105.08 68.49 111.8 59.03 119 C53.64 123.08 48.14 126.99 42.6 130.88 C35.14 136.11 27.76 141.46 20.38 146.8 C15.88 150.06 11.37 153.31 6.86 156.57 C3.1 159.29 -0.66 162.01 -4.42 164.73 C-12.41 170.51 -20.43 176.25 -28.5 181.93 C-35.92 187.16 -43.27 192.48 -50.62 197.8 C-52.88 199.44 -55.14 201.07 -57.39 202.7 C-58.14 203.24 -58.88 203.77 -59.64 204.32 C-61.14 205.4 -62.63 206.48 -64.13 207.56 C-67.95 210.31 -71.76 213.08 -75.53 215.91 C-93.54 229.3 -111.79 239.38 -135.05 235.98 C-148.16 233.05 -157.66 226.34 -167.75 217.87 C-171.69 214.58 -175.75 211.49 -179.89 208.45 C-185.34 204.41 -190.65 200.25 -195.89 195.95 C-201.79 191.09 -207.82 186.45 -213.95 181.9 C-218.57 178.46 -223.1 174.93 -227.58 171.32 C-242.93 156.54 -242.93 156.54 -259.89 147.45 C-260.07 155.67 -259.56 163.71 -258.7 171.88 C-258.6 173.02 -258.5 174.16 -258.4 175.33 C-257.24 186.27 -254.46 195.98 -246.26 203.63 C-245.74 204.13 -245.22 204.62 -244.68 205.13 C-240.55 208.99 -236.22 212.59 -231.8 216.1 C-228.43 218.81 -225.16 221.62 -221.89 224.45 C-216.87 228.77 -211.8 233 -206.65 237.18 C-203.6 239.69 -200.59 242.25 -197.58 244.82 C-192.53 249.12 -187.36 253.25 -182.12 257.32 C-178.11 260.44 -174.24 263.69 -170.39 267.01 C-156.29 279.06 -142.89 288.53 -123.7 288.76 C-122.9 288.79 -122.1 288.82 -121.28 288.85 C-111.18 288.95 -103.28 284.45 -95.01 279.07 C-94.21 278.55 -93.4 278.03 -92.56 277.5 C-83.16 271.41 -74 264.96 -64.89 258.45 C-64.12 257.9 -63.36 257.35 -62.56 256.78 C-46.16 245.04 -29.94 233.03 -13.82 220.9 C-11.91 219.46 -9.99 218.03 -8.08 216.59 C2.19 208.92 12.39 201.16 22.58 193.38 C24.92 191.59 27.26 189.81 29.6 188.03 C37.64 181.89 45.66 175.71 53.64 169.48 C57.03 166.83 60.43 164.19 63.89 161.62 C76.2 152.44 83.27 144.43 85.63 129.05 C85.97 126.71 86.29 124.37 86.6 122.03 C86.93 119.62 87.27 117.21 87.62 114.8 C87.83 113.26 88.04 111.72 88.26 110.18 C88.36 109.46 88.46 108.74 88.56 108 C89.01 104.58 89.31 101.73 88.11 98.45 Z " fill="#060809" transform="translate(383.88916015625,181.554931640625)"/>
<path d="M0 0 C0.83 0.02 1.66 0.03 2.52 0.05 C21.31 0.72 37.39 14.46 52.28 24.9 C54.84 26.69 57.41 28.48 59.97 30.26 C65.84 34.33 71.7 38.41 77.56 42.5 C78.49 43.15 79.41 43.79 80.37 44.45 C89.83 51.05 99.28 57.65 108.56 64.5 C107.24 67.56 106.03 69.19 103.28 71.06 C102.61 71.52 101.95 71.98 101.26 72.46 C100.53 72.95 99.81 73.43 99.06 73.94 C97.51 75.01 95.96 76.08 94.41 77.15 C93.61 77.7 92.81 78.25 91.98 78.82 C88.11 81.51 84.31 84.29 80.5 87.06 C77.52 89.21 74.54 91.36 71.56 93.5 C70.85 94.02 70.13 94.53 69.39 95.06 C53.38 106.53 38.68 113.67 18.56 111.5 C9.76 109.44 3.33 105.29 -3.44 99.5 C-5.58 97.8 -7.72 96.12 -9.88 94.44 C-11.09 93.48 -12.3 92.53 -13.51 91.58 C-20.03 86.46 -26.58 81.38 -33.12 76.3 C-36.9 73.37 -40.67 70.43 -44.44 67.5 C-45.17 66.93 -45.9 66.36 -46.66 65.77 C-50.58 62.72 -54.51 59.67 -58.43 56.61 C-59.25 55.98 -60.06 55.34 -60.91 54.69 C-62.47 53.47 -64.04 52.25 -65.6 51.03 C-66.31 50.48 -67.01 49.93 -67.74 49.36 C-68.67 48.64 -68.67 48.64 -69.62 47.9 C-71.54 46.42 -73.49 44.96 -75.44 43.5 C-73.99 39.91 -72.25 38.37 -69.06 36.23 C-67.71 35.32 -67.71 35.32 -66.34 34.4 C-65.38 33.77 -64.42 33.14 -63.44 32.5 C-62.5 31.88 -61.55 31.27 -60.58 30.63 C-57.56 28.68 -54.53 26.74 -51.5 24.81 C-50.41 24.12 -49.33 23.43 -48.2 22.72 C-46 21.31 -43.79 19.91 -41.59 18.51 C-38.69 16.66 -35.81 14.8 -32.94 12.93 C-31.29 11.87 -29.65 10.81 -28 9.75 C-27.27 9.27 -26.55 8.8 -25.8 8.31 C-17.57 3.03 -9.87 -0.24 0 0 Z " fill="#F5F5F5" transform="translate(234.4375,286.5)"/>
<path d="M0 0 C7.79 3.39 14.87 8.42 21.88 13.17 C24.83 15.17 27.8 17.16 30.76 19.15 C31.37 19.56 31.97 19.96 32.6 20.38 C38.66 24.45 44.76 28.45 50.88 32.44 C52.47 33.48 52.47 33.48 54.09 34.54 C56.27 35.96 58.46 37.38 60.64 38.81 C66.53 42.65 72.42 46.51 78.31 50.38 C80.75 51.97 83.18 53.57 85.61 55.16 C86.52 55.76 86.52 55.76 87.45 56.36 C91.81 59.22 96.18 62.08 100.54 64.93 C106 68.5 111.46 72.08 116.91 75.66 C119.71 77.5 122.5 79.33 125.31 81.16 C128.31 83.12 131.31 85.09 134.31 87.06 C135.2 87.64 136.09 88.22 137.01 88.81 C137.81 89.34 138.6 89.87 139.43 90.41 C140.12 90.87 140.82 91.32 141.53 91.79 C142.02 92.19 142.5 92.59 143 93 C143 93.66 143 94.32 143 95 C141.55 96.25 141.55 96.25 139.53 97.64 C138.42 98.41 138.42 98.41 137.3 99.2 C136.52 99.73 135.74 100.26 134.94 100.81 C133.43 101.86 131.91 102.91 130.4 103.96 C129.66 104.46 128.92 104.97 128.16 105.49 C126.75 106.47 125.37 107.49 124.02 108.54 C119.47 112.05 119.47 112.05 117.05 111.79 C114.73 110.9 112.96 109.78 110.94 108.33 C110.15 107.78 109.37 107.22 108.56 106.65 C107.71 106.04 106.87 105.44 106 104.81 C104.18 103.53 102.37 102.24 100.55 100.95 C99.63 100.29 98.7 99.63 97.75 98.96 C93.55 95.97 89.34 93.02 85.12 90.06 C84.31 89.49 83.5 88.92 82.66 88.33 C72.83 81.46 62.93 74.72 53 68 C52.27 67.5 51.54 67.01 50.78 66.5 C46.54 63.63 42.29 60.8 38 58 C37.42 57.62 36.85 57.24 36.26 56.86 C34.55 55.75 32.84 54.65 31.12 53.56 C30.16 52.95 29.19 52.33 28.2 51.69 C20.55 47.65 13.72 46.5 5.12 46.56 C4.21 46.54 3.29 46.52 2.35 46.5 C-8.67 46.51 -17.2 50.63 -26.12 56.75 C-27.85 57.91 -29.58 59.06 -31.31 60.21 C-32.22 60.82 -33.13 61.43 -34.07 62.06 C-37.2 64.13 -40.36 66.15 -43.54 68.16 C-45.19 69.21 -45.19 69.21 -46.88 70.29 C-49.03 71.64 -51.18 73 -53.33 74.35 C-59.5 78.27 -65.3 82.44 -71 87 C-72.33 88 -73.66 89.01 -75 90 C-77.55 87.99 -80.09 85.97 -82.62 83.94 C-83.34 83.38 -84.05 82.81 -84.79 82.24 C-97.23 72.24 -97.23 72.24 -99 65 C-99.44 60.42 -99.52 58.07 -97.5 53.94 C-91.85 47.3 -85.11 42.53 -77.69 38.06 C-76.79 37.51 -75.89 36.97 -74.96 36.4 C-71.98 34.59 -68.99 32.79 -66 31 C-64.95 30.37 -63.89 29.74 -62.81 29.09 C-10.73 -2.09 -10.73 -2.09 0 0 Z " fill="#FDFDFD" transform="translate(230,237)"/>
<path d="M0 0 C2.35 1.36 2.35 1.36 4.06 3.19 C4.65 3.78 5.24 4.37 5.85 4.98 C7 7 7 7 7.15 9.36 C5.51 13.12 3.2 13.66 -0.49 15.18 C-1.86 15.71 -1.86 15.71 -3.26 16.26 C-5.18 17.06 -7.11 17.86 -9.03 18.66 C-12.07 19.89 -15.11 21.12 -18.16 22.33 C-33.18 27.74 -33.18 27.74 -42.88 39.61 C-45.63 45.49 -51.55 48.09 -57.38 50.25 C-64.17 52.21 -70.9 52.43 -77.94 52.81 C-88.1 53.42 -96.97 54.19 -105 61 C-106.68 63.47 -107.8 65.8 -108.89 68.58 C-112.59 76.68 -122.21 80.79 -130 84 C-140.98 87.82 -157.41 93.3 -169 89.31 C-173.44 87.02 -176.28 84.08 -179 80 C-180.28 75.78 -180.45 73.92 -178.5 69.94 C-168.3 57.96 -153.4 51.93 -138 50 C-133.59 49.75 -129.18 49.72 -124.77 49.65 C-116.94 49.35 -110.87 47.04 -103.96 43.5 C-101 42 -101 42 -99 42 C-98.9 41.26 -98.8 40.52 -98.69 39.75 C-97.25 34 -92.23 29.61 -87.5 26.25 C-80.85 22.46 -72.64 19.99 -64.97 20.01 C-52.04 19.94 -41.65 14.69 -30.06 9.44 C-27.04 8.08 -24.02 6.73 -20.98 5.39 C-19.11 4.57 -17.24 3.73 -15.38 2.87 C-9.96 0.47 -5.94 -0.58 0 0 Z " fill="#171717" transform="translate(242,54)"/>
<path d="M0 0 C2.56 2.25 2.56 2.25 3.25 4.75 C2.29 8.24 0.47 9.15 -2.44 11.25 C-4.29 12.3 -6.18 13.29 -8.09 14.24 C-9.71 15.05 -9.71 15.05 -11.36 15.87 C-13.07 16.71 -13.07 16.71 -14.81 17.56 C-15.98 18.14 -17.14 18.72 -18.34 19.32 C-23.93 22.1 -29.53 24.76 -35.27 27.2 C-41.5 29.88 -45.07 32.42 -48.86 38.05 C-54.36 45.72 -62.87 49.09 -71.44 52.25 C-72.18 52.57 -72.91 52.89 -73.68 53.22 C-78.43 55.15 -81.84 55.16 -86.94 54.69 C-98.39 54.3 -108.32 60.9 -118.15 66.15 C-120.44 67.25 -120.44 67.25 -122.44 67.25 C-122.62 68.14 -122.62 68.14 -122.81 69.04 C-123.02 69.83 -123.22 70.62 -123.44 71.44 C-123.72 72.6 -123.72 72.6 -124 73.79 C-127.86 80.39 -136.81 82.82 -143.62 85.31 C-144.55 85.66 -145.48 86 -146.43 86.35 C-149.1 87.33 -151.77 88.29 -154.44 89.25 C-155.11 89.5 -155.77 89.74 -156.46 90 C-164.31 92.88 -172.07 94.73 -180.44 93.25 C-185.86 90.56 -189.07 85.67 -191.44 80.25 C-191.26 77.1 -190.9 75.71 -188.63 73.47 C-181.64 68.81 -174.42 64.94 -166.81 61.38 C-166.19 61.08 -165.57 60.79 -164.93 60.49 C-156.56 56.59 -149.96 54.38 -140.66 54.68 C-131.5 54.35 -122.18 48.9 -113.93 45.27 C-111.44 44.25 -111.44 44.25 -109.16 43.74 C-108.59 43.58 -108.02 43.42 -107.44 43.25 C-107.17 42.57 -106.9 41.89 -106.62 41.19 C-102.52 31.03 -92.08 25.04 -82.44 20.88 C-78.3 19.44 -74.87 19.24 -70.52 19.39 C-56.55 19.69 -45.39 13.2 -33.23 7.08 C-28.02 4.47 -22.77 1.97 -17.39 -0.3 C-15.64 -1.05 -15.64 -1.05 -13.85 -1.81 C-8.55 -3.27 -4.84 -2.46 0 0 Z " fill="#F4F4F4" transform="translate(288.4375,82.75)"/>
<path d="M0 0 C0.83 -0.02 1.67 -0.05 2.53 -0.07 C13.21 -0.12 21.37 4.78 30.12 10.44 C30.97 10.97 31.81 11.5 32.68 12.04 C38.86 15.98 38.86 15.98 41.12 19.38 C32.33 25.76 23.52 32.12 14.62 38.38 C4.91 45.21 -4.71 52.18 -14.32 59.15 C-16.76 60.91 -19.19 62.68 -21.62 64.44 C-22.36 64.97 -23.1 65.51 -23.86 66.06 C-25.24 67.06 -26.62 68.05 -28 69.03 C-29.2 69.89 -30.39 70.78 -31.54 71.7 C-33.08 72.87 -33.08 72.87 -35.88 74.38 C-40.18 73.53 -43.67 70.65 -47.25 68.19 C-48.56 67.3 -49.88 66.41 -51.2 65.52 C-51.93 65.03 -52.66 64.53 -53.41 64.03 C-58.28 60.76 -63.21 57.57 -68.12 54.38 C-70.11 53.08 -72.09 51.79 -74.08 50.5 C-74.93 49.95 -75.78 49.39 -76.66 48.82 C-78.41 47.68 -80.14 46.53 -81.88 45.38 C-81.88 44.72 -81.88 44.06 -81.88 43.38 C-79.64 41.84 -77.41 40.43 -75.09 39.05 C-73.61 38.14 -72.13 37.24 -70.65 36.33 C-69.87 35.85 -69.09 35.37 -68.28 34.87 C-64.26 32.37 -60.3 29.76 -56.35 27.14 C-55.55 26.61 -54.74 26.08 -53.91 25.53 C-50.6 23.34 -47.29 21.15 -43.99 18.96 C-38.63 15.41 -33.26 11.88 -27.88 8.38 C-26.85 7.71 -25.82 7.04 -24.77 6.35 C-16.59 1.19 -9.58 0.01 0 0 Z " fill="#F5F5F5" transform="translate(413.875,253.625)"/>
<path d="M0 0 C0 0.66 0 1.32 0 2 C-2.07 3.42 -4.15 4.72 -6.31 6 C-13.24 10.22 -20.02 14.62 -26.76 19.13 C-28.45 20.26 -30.15 21.39 -31.84 22.52 C-37.79 26.48 -43.71 30.48 -49.6 34.53 C-52.6 36.59 -55.6 38.64 -58.61 40.68 C-60.07 41.68 -61.53 42.69 -62.99 43.7 C-65.03 45.12 -67.08 46.52 -69.14 47.92 C-70.05 48.56 -70.05 48.56 -70.98 49.22 C-73.87 51.15 -75.64 52.01 -79.15 51.92 C-81.97 51.01 -84.01 50.01 -86.44 48.33 C-87.26 47.77 -88.08 47.22 -88.93 46.64 C-89.8 46.04 -90.67 45.43 -91.56 44.81 C-93.42 43.55 -95.28 42.28 -97.14 41.01 C-98.1 40.35 -99.05 39.7 -100.04 39.02 C-104.94 35.68 -109.88 32.4 -114.81 29.12 C-116.59 27.94 -118.37 26.76 -120.14 25.57 C-120.89 25.07 -121.64 24.58 -122.41 24.06 C-123.19 23.54 -123.19 23.54 -124 23 C-121.35 20.19 -118.84 18.12 -115.48 16.21 C-114.58 15.69 -113.67 15.17 -112.74 14.63 C-111.75 14.07 -110.77 13.51 -109.75 12.94 C-107.59 11.7 -105.44 10.46 -103.29 9.22 C-102.71 8.89 -102.14 8.56 -101.55 8.22 C-96.89 5.54 -92.28 2.78 -87.68 -0 C-86.26 -0.86 -84.84 -1.72 -83.41 -2.58 C-81.32 -3.84 -79.23 -5.1 -77.14 -6.38 C-49.08 -23.5 -25.65 -21 0 0 Z " fill="#F4F4F4" transform="translate(380,226)"/>
<path d="M0 0 C0.59 0.34 1.18 0.69 1.79 1.05 C3.7 2.16 5.61 3.29 7.52 4.41 C8.16 4.79 8.81 5.17 9.48 5.57 C17.31 10.18 25.12 14.82 32.77 19.72 C33.42 20.14 34.08 20.56 34.75 20.98 C39.64 24.18 43.52 27.6 46.77 32.47 C47.37 35.7 47.18 37.71 45.6 40.61 C41.84 45.99 41.84 45.99 38.5 47.49 C34.41 47.46 31.88 45.25 28.7 42.91 C14.5 32.97 1.21 26.65 -16.39 28.87 C-31.93 31.78 -45.3 42.67 -58.17 51.35 C-59.72 52.38 -61.26 53.42 -62.8 54.45 C-63.56 54.96 -64.32 55.47 -65.1 56 C-66.62 57.01 -68.13 58.02 -69.64 59.03 C-73.29 61.47 -76.92 63.94 -80.49 66.49 C-81.17 66.97 -81.84 67.44 -82.54 67.92 C-83.8 68.81 -85.05 69.71 -86.29 70.62 C-89.15 72.61 -90.85 73.48 -94.37 73.4 C-97.2 72.49 -99.3 71.47 -101.76 69.82 C-102.55 69.29 -103.34 68.76 -104.16 68.22 C-104.97 67.66 -105.78 67.11 -106.61 66.54 C-107.86 65.71 -107.86 65.71 -109.13 64.87 C-113.64 61.82 -113.64 61.82 -115.23 60.47 C-115.23 59.81 -115.23 59.15 -115.23 58.47 C-113.22 57.09 -111.21 55.84 -109.11 54.6 C-101.27 49.82 -93.61 44.77 -85.98 39.66 C-83.4 37.93 -80.82 36.21 -78.24 34.48 C-77.55 34.02 -76.86 33.56 -76.15 33.09 C-67.06 27.01 -57.95 20.97 -48.83 14.94 C-46.86 13.63 -44.89 12.33 -42.93 11.03 C-40.15 9.18 -37.37 7.34 -34.59 5.5 C-33.76 4.95 -32.93 4.4 -32.08 3.84 C-20.06 -4.08 -13.04 -7.63 0 0 Z " fill="#FCFCFC" transform="translate(421.234375,221.52734375)"/>
<path d="M0 0 C19.13 -0.95 34.84 10.73 50.49 20.07 C51.98 20.96 53.48 21.85 54.97 22.73 C58.58 24.89 62.19 27.04 65.8 29.2 C65.12 36.87 65.12 36.87 62.26 39.76 C60.67 40.75 60.67 40.75 59.05 41.76 C58.01 42.44 56.96 43.12 55.88 43.82 C52.35 45.4 51.42 45.27 47.8 44.2 C45.47 42.88 45.47 42.88 43.07 41.21 C41.72 40.31 41.72 40.31 40.35 39.38 C39.41 38.74 38.47 38.1 37.49 37.45 C22.98 27.95 9.55 22.64 -8.01 26.2 C-22.13 30.19 -34.92 39.55 -47.36 47.07 C-54.64 51.47 -61.94 55.81 -69.26 60.13 C-70.46 60.84 -71.66 61.56 -72.86 62.27 C-75.64 63.91 -78.42 65.55 -81.2 67.2 C-82.02 66.71 -82.84 66.23 -83.69 65.73 C-85.31 64.79 -85.31 64.79 -86.96 63.82 C-88.03 63.19 -89.1 62.57 -90.2 61.92 C-91.89 60.95 -93.59 59.99 -95.32 59.09 C-96.95 58.2 -96.95 58.2 -99.2 56.2 C-99.65 52.8 -99.65 52.8 -99.2 49.2 C-97.2 47.22 -97.2 47.22 -94.2 45.57 C-93.35 45.09 -93.35 45.09 -92.49 44.6 C-90.4 43.44 -88.3 42.32 -86.2 41.2 C-84.37 40.2 -82.55 39.21 -80.73 38.22 C-77.67 36.56 -74.62 34.9 -71.55 33.26 C-64.83 29.65 -58.18 25.94 -51.57 22.13 C-44.23 17.91 -36.86 13.73 -29.45 9.63 C-28.55 9.13 -27.66 8.63 -26.74 8.11 C-17.96 3.29 -9.95 0.89 0 0 Z " fill="#FCFCFC" transform="translate(333.1953125,178.8046875)"/>
<path d="M0 0 C0.66 0 1.32 0 2 0 C5.78 5.83 8.03 9.99 7 17 C-0.53 30.37 -20.62 37.3 -33.62 44.2 C-38.92 47.02 -44.21 49.89 -49.5 52.75 C-50.5 53.29 -51.49 53.83 -52.52 54.38 C-57.68 57.18 -62.83 60.02 -67.95 62.9 C-82.79 71.25 -97.91 78.87 -113.62 85.44 C-114.58 85.84 -115.54 86.24 -116.53 86.65 C-121.42 88.66 -126.36 90.56 -131.34 92.35 C-132.28 92.69 -133.22 93.03 -134.19 93.38 C-137.48 94.11 -139.75 93.82 -143 93 C-145.48 91.33 -145.48 91.33 -147.75 89.25 C-148.51 88.57 -149.27 87.9 -150.05 87.2 C-152.11 84.87 -152.93 82.89 -154 80 C-153.04 79.52 -152.09 79.05 -151.1 78.56 C-141.01 73.53 -130.96 68.41 -120.94 63.25 C-120.18 62.86 -119.42 62.47 -118.63 62.06 C-107.61 56.39 -96.6 50.68 -85.61 44.93 C-79.17 41.56 -72.71 38.22 -66.25 34.88 C-58.06 30.64 -49.89 26.37 -41.74 22.06 C-36.36 19.22 -30.95 16.42 -25.53 13.64 C-24.78 13.26 -24.03 12.87 -23.26 12.47 C-19.46 10.52 -15.66 8.57 -11.85 6.62 C-10.45 5.9 -9.05 5.18 -7.65 4.46 C-6.99 4.13 -6.34 3.79 -5.66 3.45 C-2.63 2.01 -2.63 2.01 0 0 Z " fill="#AED5FB" transform="translate(315,117)"/>
<path d="M0 0 C5.9 3.9 12.02 7.45 18.11 11.04 C21.62 13.12 25.13 15.19 28.64 17.27 C29.34 17.69 30.04 18.1 30.76 18.53 C38.7 23.24 46.58 28.03 54.46 32.84 C60.66 36.62 66.87 40.36 73.11 44.06 C74.49 44.88 75.86 45.69 77.23 46.51 C79.22 47.69 81.21 48.87 83.2 50.04 C102.68 61.48 102.68 61.48 104.46 68.12 C104.87 73.23 103.79 76.09 100.51 80.02 C94.46 86.15 87.35 90.82 80.24 95.64 C76.45 98.24 72.73 100.94 69.01 103.65 C67.5 104.74 65.99 105.83 64.48 106.93 C63.73 107.47 62.98 108.01 62.21 108.57 C58.46 111.29 54.7 114 50.95 116.71 C46.4 119.99 41.85 123.28 37.3 126.57 C29.97 131.87 22.63 137.16 15.26 142.41 C10.56 145.76 5.88 149.14 1.2 152.52 C0.44 153.07 -0.32 153.62 -1.1 154.18 C-4.94 156.95 -8.77 159.73 -12.61 162.51 C-20.59 168.29 -28.6 174.02 -36.66 179.69 C-41.8 183.31 -46.9 186.97 -51.99 190.65 C-52.73 191.18 -53.47 191.72 -54.24 192.27 C-58.1 195.07 -61.95 197.87 -65.8 200.68 C-86.27 215.59 -104.08 226.53 -130.24 222.75 C-141.52 219.68 -150.25 211.79 -159.05 204.5 C-164.01 200.4 -169.13 196.5 -174.25 192.6 C-177.84 189.84 -181.42 187.06 -184.99 184.27 C-186.15 183.37 -186.15 183.37 -187.33 182.45 C-192.48 178.45 -197.61 174.42 -202.74 170.39 C-207.41 166.71 -212.11 163.05 -216.8 159.4 C-217.56 158.81 -218.31 158.23 -219.08 157.62 C-223 154.58 -226.92 151.54 -230.85 148.52 C-257.86 127.74 -257.86 127.74 -259.43 117.83 C-259.71 113.72 -259.84 110.46 -257.59 106.9 C-252.63 101.47 -247.53 97.45 -241.24 93.65 C-240.3 93.06 -239.35 92.48 -238.37 91.87 C-235.28 89.96 -232.17 88.08 -229.05 86.21 C-227.45 85.24 -227.45 85.24 -225.82 84.26 C-202.73 70.38 -179.34 57.01 -155.86 43.79 C-153.06 42.21 -150.26 40.63 -147.46 39.04 C-133.86 31.33 -120.21 23.72 -106.55 16.15 C-102.39 13.84 -98.24 11.53 -94.08 9.21 C-89.03 6.4 -83.98 3.6 -78.92 0.8 C-76.44 -0.57 -73.98 -1.97 -71.52 -3.37 C-46.73 -17.34 -23.29 -15.46 0 0 Z M-77.05 2.21 C-77.95 2.69 -78.85 3.17 -79.78 3.66 C-91.26 9.78 -102.65 16.06 -113.92 22.56 C-120.95 26.6 -128.03 30.54 -135.12 34.46 C-157.27 46.73 -179.22 59.37 -201.05 72.21 C-201.93 72.72 -202.8 73.23 -203.69 73.76 C-213.42 79.46 -223 85.35 -232.43 91.52 C-233.3 92.09 -234.18 92.65 -235.08 93.23 C-241.51 97.5 -246.86 102.04 -250.05 109.21 C-251.24 117.32 -249.22 122.79 -244.57 129.29 C-239.37 135.69 -232.89 140.28 -226.28 145.1 C-222.22 148.07 -218.28 151.17 -214.37 154.34 C-209.35 158.38 -204.29 162.37 -199.17 166.29 C-194.55 169.82 -189.96 173.39 -185.37 176.96 C-184.61 177.55 -183.85 178.14 -183.07 178.75 C-181.51 179.96 -179.96 181.17 -178.4 182.38 C-176.07 184.2 -173.73 186.02 -171.39 187.83 C-170.63 188.42 -169.87 189.01 -169.09 189.62 C-167.57 190.8 -166.06 191.98 -164.54 193.15 C-161.06 195.85 -157.6 198.57 -154.16 201.32 C-137.96 214.31 -125.07 220.16 -104.05 218.21 C-99.77 217.35 -96.02 216.02 -92.05 214.21 C-91.29 213.91 -90.53 213.6 -89.74 213.29 C-81.21 209.54 -73.88 203.47 -66.43 197.96 C-62.66 195.18 -58.86 192.45 -55.05 189.71 C-53.56 188.63 -52.06 187.55 -50.56 186.46 C-49.82 185.93 -49.07 185.39 -48.31 184.84 C-46.04 183.2 -43.78 181.57 -41.52 179.93 C-33.53 174.14 -25.51 168.4 -17.45 162.73 C-10.03 157.5 -2.67 152.18 4.68 146.85 C8.43 144.13 12.19 141.42 15.95 138.71 C20.49 135.43 25.04 132.14 29.59 128.86 C36.91 123.56 44.25 118.27 51.61 113.03 C57.27 108.99 62.9 104.91 68.53 100.83 C72.53 97.94 76.55 95.1 80.63 92.34 C87.16 87.77 92.72 83.13 94.95 75.21 C95.1 70.22 94.42 67.3 91.38 63.34 C86.26 58.04 79.88 54.51 73.59 50.79 C70.65 49.03 67.72 47.25 64.8 45.46 C50.91 36.97 36.94 28.6 22.91 20.33 C16.31 16.43 9.75 12.49 3.26 8.41 C-25.37 -9.57 -46.27 -14.31 -77.05 2.21 Z " fill="#A8CEF3" transform="translate(377.0546875,183.7890625)"/>
<path d="M0 0 C1.94 2 1.94 2 3 4 C-7.51 9.47 -18.2 14.37 -29.13 18.97 C-33.76 20.95 -38.08 22.92 -42.2 25.85 C-48.88 30.53 -56.51 33.52 -63.94 36.81 C-65.47 37.5 -67 38.19 -68.53 38.87 C-71.32 40.12 -74.1 41.37 -76.89 42.6 C-78.6 43.37 -80.32 44.16 -82 45 C-83.37 45.05 -84.75 45.09 -86.12 45.12 C-93.75 45.87 -101.67 48.63 -108 53 C-109.93 55.49 -110.93 57.66 -112.04 60.58 C-115.14 68.37 -122.92 72.09 -130.16 75.43 C-141.68 80.37 -159.32 85.75 -171.43 81.06 C-174.11 79.29 -175.79 77.41 -177.25 74.56 C-176.95 71.5 -175.98 69.77 -173.87 67.54 C-161.37 57.28 -138.97 51.24 -123 52 C-122.33 52.18 -121.65 52.36 -120.96 52.55 C-117.19 53.45 -114.94 53.55 -111.52 51.55 C-110.05 50.46 -108.58 49.35 -107.12 48.23 C-100.98 43.67 -94.23 40.41 -87.38 37.06 C-86.13 36.45 -84.88 35.84 -83.64 35.23 C-81.79 34.33 -79.95 33.42 -78.11 32.52 C-73.13 30.09 -68.25 27.51 -63.38 24.88 C-48.15 16.75 -32.39 9.53 -16.31 3.25 C-15.47 2.91 -14.63 2.58 -13.76 2.23 C-9.08 0.46 -5.08 -0.74 0 0 Z " fill="#F9F9F9" transform="translate(244,59)"/>
<path d="M0 0 C3.3 1.49 5.65 3.98 8.22 6.47 C13.06 11.06 18.01 15.39 23.21 19.57 C26.74 22.45 30.17 25.42 33.59 28.41 C40.04 34.03 46.56 39.53 53.16 44.97 C51.42 48.76 49.1 51.03 46.16 53.97 C45.68 54.84 45.21 55.71 44.72 56.6 C42.55 59.9 40.91 60.7 37.16 61.97 C25.8 63.89 13.96 58.44 4.72 52.11 C4.2 51.73 3.69 51.36 3.16 50.97 C1.86 50.11 1.86 50.11 0.53 49.22 C-6.77 42.3 -11.46 32.57 -12.05 22.51 C-12.07 20.57 -12.07 20.57 -12.09 18.6 C-12.12 17.31 -12.15 16.02 -12.17 14.7 C-11.75 9.96 -10.51 6.67 -7.16 3.26 C-6.58 2.85 -6 2.45 -5.41 2.04 C-4.83 1.61 -4.25 1.19 -3.66 0.76 C-1.84 -0.03 -1.84 -0.03 0 0 Z " fill="#AED5FB" transform="translate(25.84375,146.02734375)"/>
<path d="M0 0 C2.56 2.25 2.56 2.25 3.25 4.75 C2.29 8.24 0.47 9.15 -2.44 11.25 C-4.29 12.3 -6.18 13.29 -8.09 14.24 C-9.71 15.05 -9.71 15.05 -11.36 15.87 C-13.07 16.71 -13.07 16.71 -14.81 17.56 C-15.98 18.14 -17.14 18.72 -18.34 19.32 C-23.93 22.1 -29.53 24.76 -35.27 27.2 C-41.5 29.88 -45.07 32.42 -48.86 38.05 C-54.36 45.72 -62.87 49.09 -71.44 52.25 C-72.18 52.57 -72.91 52.89 -73.68 53.22 C-78.43 55.15 -81.84 55.16 -86.94 54.69 C-98.39 54.3 -108.32 60.9 -118.15 66.15 C-120.44 67.25 -120.44 67.25 -122.44 67.25 C-122.62 68.14 -122.62 68.14 -122.81 69.04 C-123.02 69.83 -123.22 70.62 -123.44 71.44 C-123.72 72.6 -123.72 72.6 -124 73.79 C-127.86 80.39 -136.81 82.82 -143.62 85.31 C-144.55 85.66 -145.48 86 -146.43 86.35 C-149.1 87.33 -151.77 88.29 -154.44 89.25 C-155.11 89.5 -155.77 89.74 -156.46 90 C-164.31 92.88 -172.07 94.73 -180.44 93.25 C-185.86 90.56 -189.07 85.67 -191.44 80.25 C-191.26 77.1 -190.9 75.71 -188.63 73.47 C-181.64 68.81 -174.42 64.94 -166.81 61.38 C-166.19 61.08 -165.57 60.79 -164.93 60.49 C-156.56 56.59 -149.96 54.37 -140.66 54.68 C-133.37 54.43 -126.35 50.53 -119.77 47.67 C-118.74 47.22 -117.7 46.77 -116.64 46.3 C-115.71 45.89 -114.78 45.47 -113.82 45.04 C-111.44 44.25 -111.44 44.25 -108.44 45.25 C-114.61 52.24 -128.73 57.14 -137.74 58.63 C-139.64 58.73 -141.54 58.71 -143.44 58.69 C-158.7 58.64 -174.87 69.18 -187.44 77.25 C-186.12 77.91 -184.8 78.57 -183.44 79.25 C-183.44 79.58 -183.44 79.91 -183.44 80.25 C-182.71 80.07 -181.99 79.9 -181.24 79.72 C-177.93 78.91 -174.62 78.11 -171.31 77.31 C-170.17 77.03 -169.03 76.76 -167.85 76.47 C-166.74 76.2 -165.63 75.94 -164.49 75.66 C-163.48 75.41 -162.46 75.17 -161.41 74.91 C-158.43 74.25 -155.45 73.72 -152.44 73.25 C-152.11 73.91 -151.78 74.57 -151.44 75.25 C-160.42 78.63 -169.41 81.99 -178.44 85.25 C-177.84 85.1 -177.24 84.96 -176.62 84.81 C-173.87 84.14 -171.12 83.48 -168.38 82.81 C-167.43 82.58 -166.49 82.35 -165.52 82.12 C-160.5 80.91 -155.56 79.87 -150.44 79.25 C-150.44 79.91 -150.44 80.57 -150.44 81.25 C-157.7 83.89 -164.96 86.53 -172.44 89.25 C-163.6 87.68 -155.48 85.38 -147.06 82.31 C-146.14 81.98 -145.21 81.64 -144.26 81.29 C-134.53 78.34 -134.53 78.34 -127.34 72.17 C-127.21 71.46 -127.08 70.74 -126.94 70 C-124.81 64.27 -120.17 62.53 -114.96 60.12 C-113.49 59.47 -112.02 58.82 -110.54 58.17 C-107.51 56.84 -104.54 55.38 -101.56 53.94 C-94.71 50.72 -87.73 47.81 -80.75 44.88 C-72.52 41.41 -64.29 37.93 -56.12 34.31 C-55.31 33.96 -54.5 33.61 -53.67 33.24 C-50.49 31.82 -47.8 30.54 -45.09 28.34 C-40.91 25.05 -36.12 23.05 -31.31 20.81 C-30.33 20.35 -29.35 19.88 -28.34 19.4 C-25.38 18.01 -22.41 16.63 -19.44 15.25 C-18.41 14.77 -17.38 14.29 -16.31 13.79 C-15.33 13.33 -14.34 12.87 -13.32 12.4 C-12.43 11.99 -11.54 11.57 -10.62 11.15 C-8.44 10.25 -8.44 10.25 -6.44 10.25 C-7.43 8.77 -7.43 8.77 -8.44 7.25 C-13.21 7.86 -17.37 9.25 -21.78 11.09 C-22.46 11.37 -23.15 11.65 -23.85 11.93 C-26.03 12.83 -28.2 13.73 -30.38 14.62 C-31.83 15.22 -33.28 15.82 -34.74 16.41 C-41.59 19.19 -41.59 19.19 -48.37 22.12 C-53.19 24.28 -53.19 24.28 -55.88 23.94 C-56.39 23.71 -56.91 23.48 -57.44 23.25 C-56.78 22.59 -56.12 21.93 -55.44 21.25 C-56.1 21.58 -56.76 21.91 -57.44 22.25 C-59.54 22.33 -61.65 22.4 -63.76 22.44 C-76.7 22.75 -87.25 25.91 -97.44 34.25 C-98.41 35.32 -99.35 36.43 -100.25 37.56 C-102.44 40.25 -102.44 40.25 -104.75 41.12 C-105.31 41.17 -105.86 41.21 -106.44 41.25 C-104.51 34.18 -98.64 29.82 -92.69 26.06 C-85.3 21.93 -79.13 19.08 -70.51 19.39 C-56.55 19.7 -45.39 13.19 -33.23 7.08 C-28.02 4.47 -22.77 1.97 -17.39 -0.3 C-15.64 -1.05 -15.64 -1.05 -13.85 -1.81 C-8.55 -3.27 -4.84 -2.46 0 0 Z " fill="#121313" transform="translate(288.4375,82.75)"/>
<path d="M0 0 C0.66 0.33 1.32 0.66 2 1 C0.65 4.13 -0.73 5.82 -3.44 7.88 C-7.39 11.18 -9.6 14.05 -10.31 19.32 C-10.7 27.31 -8.09 32.57 -3.25 38.75 C1.44 43.88 7.15 47.77 12.74 51.85 C16.81 54.83 20.76 57.95 24.69 61.12 C29.71 65.17 34.76 69.16 39.89 73.08 C44.5 76.61 49.1 80.18 53.69 83.75 C54.45 84.34 55.2 84.93 55.99 85.54 C57.54 86.75 59.1 87.96 60.65 89.17 C62.99 90.99 65.32 92.81 67.66 94.62 C68.42 95.21 69.18 95.8 69.97 96.41 C71.48 97.59 73 98.77 74.51 99.94 C77.99 102.64 81.46 105.36 84.89 108.11 C101.03 121.06 114.03 127.05 135 125 C139.22 124.06 143.03 122.67 147 121 C149.32 120.28 151.65 119.64 154 119 C153.81 120.84 153.81 120.84 153 123 C149.58 125.19 145.77 126.53 142 128 C141.26 128.32 140.51 128.65 139.75 128.98 C129.55 132.85 114.33 132.91 104.12 129.02 C95.07 124.69 87.7 118.66 80 112.29 C75.04 108.19 69.93 104.29 64.81 100.39 C61.21 97.63 57.64 94.85 54.06 92.06 C53.29 91.46 52.52 90.86 51.72 90.24 C46.58 86.24 41.44 82.21 36.32 78.18 C31.64 74.5 26.95 70.84 22.25 67.19 C21.5 66.6 20.75 66.02 19.97 65.41 C16.06 62.37 12.14 59.33 8.2 56.31 C-18.8 35.53 -18.8 35.53 -20.38 25.62 C-20.75 20.09 -20.38 16.63 -16.75 12.31 C-11.78 7.36 -5.96 3.64 0 0 Z " fill="#A9D0F4" transform="translate(138,276)"/>
<path d="M0 0 C0.99 0.33 1.98 0.66 3 1 C1.68 1.66 0.36 2.32 -1 3 C-0.67 3.66 -0.34 4.32 0 5 C-1.17 5.47 -1.17 5.47 -2.36 5.94 C-29.37 16.74 -29.37 16.74 -54.45 31.37 C-55.29 31.94 -55.29 31.94 -56.16 32.53 C-58.97 34.44 -61.75 36.38 -64.49 38.38 C-71.39 43.15 -76.21 44.61 -84.57 44.76 C-90.26 45.16 -95 47.44 -100.12 49.81 C-122.26 59.72 -122.26 59.72 -133 59 C-131.58 55.42 -130.1 54.16 -126.7 52.41 C-125.83 51.96 -124.96 51.51 -124.07 51.04 C-122.67 50.34 -122.67 50.34 -121.25 49.62 C-120.3 49.14 -119.34 48.66 -118.36 48.16 C-116.45 47.2 -114.54 46.24 -112.62 45.29 C-111.04 44.51 -109.47 43.73 -107.9 42.92 C-101.32 39.56 -96.04 37.8 -88.62 37.75 C-77.6 37.54 -68.04 32.46 -58.18 27.9 C-56 27 -56 27 -54 27 C-54 25.68 -54 24.36 -54 23 C-53.34 23 -52.68 23 -52 23 C-52 22.34 -52 21.68 -52 21 C-50.64 20.09 -49.27 19.19 -47.88 18.33 C-45.68 16.78 -43.87 14.99 -41.94 13.12 C-35.27 7.05 -25.76 2.08 -16.62 1.72 C-15.36 1.66 -15.36 1.66 -14.08 1.61 C-12.31 1.54 -10.55 1.46 -8.78 1.39 C-7.95 1.36 -7.11 1.32 -6.25 1.28 C-5.48 1.25 -4.71 1.22 -3.92 1.19 C-1.92 1.11 -1.92 1.11 0 0 Z " fill="#161617" transform="translate(233,103)"/>
<path d="M0 0 C0.33 0 0.66 0 1 0 C1.84 5.48 -0.14 8.37 -3.13 12.7 C-6.19 16.46 -9.85 19.07 -13.81 21.81 C-14.65 22.41 -15.48 23 -16.34 23.62 C-18.88 25.43 -21.44 27.21 -24 29 C-25.46 30.04 -26.93 31.07 -28.39 32.11 C-31.17 34.08 -33.96 36.05 -36.76 38.01 C-43.46 42.72 -50.09 47.55 -56.73 52.36 C-60.49 55.08 -64.24 57.79 -68 60.5 C-69.5 61.58 -71 62.67 -72.5 63.75 C-75.5 65.92 -78.5 68.08 -81.5 70.25 C-82.24 70.79 -82.99 71.32 -83.75 71.88 C-85.25 72.96 -86.75 74.04 -88.25 75.12 C-92.01 77.84 -95.78 80.56 -99.54 83.29 C-107.52 89.07 -115.54 94.81 -123.61 100.48 C-131.03 105.71 -138.38 111.03 -145.73 116.36 C-150.23 119.62 -154.74 122.87 -159.24 126.12 C-163.04 128.86 -166.83 131.6 -170.61 134.36 C-174.35 137.08 -178.11 139.79 -181.88 142.49 C-183.25 143.47 -184.62 144.45 -185.99 145.44 C-200.91 156.23 -217.18 163.41 -236.02 160.54 C-246.18 158.27 -255.23 154.12 -262.83 146.97 C-265.48 144.57 -268.28 142.41 -271.12 140.25 C-272.26 139.39 -273.39 138.52 -274.53 137.66 C-275.1 137.22 -275.68 136.78 -276.27 136.33 C-279.09 134.16 -281.89 131.96 -284.69 129.75 C-292.33 123.73 -300.01 117.76 -307.69 111.8 C-311.46 108.87 -315.23 105.93 -319 103 C-320.5 101.83 -322 100.67 -323.5 99.5 C-326.5 97.17 -329.5 94.83 -332.5 92.5 C-333.24 91.92 -333.99 91.34 -334.75 90.75 C-336.24 89.59 -337.74 88.43 -339.23 87.26 C-343.09 84.25 -346.98 81.25 -350.89 78.29 C-351.69 77.68 -352.49 77.06 -353.32 76.43 C-354.84 75.27 -356.37 74.12 -357.9 72.97 C-365.11 67.44 -372.04 61.21 -374 52 C-374.31 49.19 -374.25 46.85 -374 44 C-373.34 43.34 -372.68 42.68 -372 42 C-372 42.61 -371.99 43.21 -371.99 43.84 C-371.55 53.42 -367.56 59.88 -360.62 66.38 C-355.68 70.6 -350.47 74.48 -345.24 78.34 C-340.52 81.84 -335.89 85.43 -331.31 89.12 C-326.73 92.82 -322.12 96.48 -317.44 100.06 C-313.04 103.43 -308.66 106.82 -304.31 110.25 C-298.12 115.13 -291.91 119.96 -285.69 124.8 C-281.57 128 -277.46 131.21 -273.37 134.44 C-271.12 136.21 -268.86 137.98 -266.6 139.74 C-265.54 140.58 -264.48 141.42 -263.42 142.26 C-249.98 152.96 -236.42 158.82 -219 157 C-201.83 153.65 -189.02 144.8 -175.17 134.6 C-172.14 132.37 -169.07 130.18 -166 128 C-160.65 124.19 -155.32 120.35 -150 116.5 C-144.12 112.25 -138.23 108.02 -132.33 103.81 C-127.54 100.39 -122.77 96.95 -118 93.5 C-112.12 89.25 -106.23 85.02 -100.33 80.81 C-95.54 77.39 -90.77 73.95 -86 70.5 C-80.12 66.25 -74.23 62.02 -68.33 57.81 C-63.54 54.39 -58.77 50.95 -54 47.5 C-48.68 43.65 -43.35 39.81 -38 36 C-36.3 34.79 -34.6 33.57 -32.9 32.36 C-31.53 31.38 -30.15 30.4 -28.78 29.42 C-26.39 27.72 -24.01 26.02 -21.62 24.31 C-20.89 23.79 -20.15 23.27 -19.39 22.73 C-10.31 16.21 -3.6 10.81 0 0 Z " fill="#9EC2E5" transform="translate(486,254)"/>
<path d="M0 0 C-6.17 6.99 -20.29 11.89 -29.31 13.38 C-31.2 13.48 -33.1 13.46 -35 13.44 C-50.27 13.39 -66.44 23.93 -79 32 C-77.68 32.66 -76.36 33.32 -75 34 C-75 34.33 -75 34.66 -75 35 C-74.27 34.82 -73.55 34.65 -72.8 34.47 C-69.49 33.66 -66.18 32.86 -62.88 32.06 C-61.16 31.65 -61.16 31.65 -59.41 31.22 C-58.31 30.95 -57.2 30.69 -56.05 30.41 C-55.04 30.16 -54.02 29.92 -52.98 29.66 C-50 29 -47.02 28.47 -44 28 C-43.5 28.99 -43.5 28.99 -43 30 C-51.98 33.38 -60.97 36.74 -70 40 C-69.4 39.85 -68.8 39.71 -68.18 39.56 C-65.44 38.89 -62.69 38.23 -59.94 37.56 C-58.99 37.33 -58.05 37.1 -57.08 36.87 C-52.06 35.66 -47.12 34.62 -42 34 C-42 34.66 -42 35.32 -42 36 C-49.26 38.64 -56.52 41.28 -64 44 C-55.16 42.43 -47.04 40.13 -38.62 37.06 C-37.7 36.73 -36.77 36.39 -35.82 36.04 C-26.09 33.09 -26.09 33.09 -18.91 26.92 C-18.71 25.85 -18.71 25.85 -18.5 24.75 C-16.65 19.73 -13.18 18.01 -8.56 15.81 C-6.42 14.83 -4.27 13.87 -2.1 12.93 C-0.1 12.04 1.85 11.09 3.8 10.1 C4.94 9.53 6.08 8.96 7.25 8.38 C8.77 7.61 8.77 7.61 10.33 6.84 C13 6 13 6 15.36 6.85 C15.9 7.23 16.44 7.61 17 8 C11.49 10.77 5.93 13.44 0.38 16.12 C-0.78 16.69 -1.94 17.25 -3.13 17.83 C-4.24 18.36 -5.34 18.9 -6.48 19.45 C-7.99 20.18 -7.99 20.18 -9.54 20.93 C-12 22 -12 22 -14 22 C-14.19 22.89 -14.19 22.89 -14.38 23.79 C-14.58 24.58 -14.79 25.37 -15 26.19 C-15.28 27.35 -15.28 27.35 -15.56 28.54 C-19.42 35.14 -28.37 37.57 -35.19 40.06 C-36.11 40.41 -37.04 40.75 -37.99 41.1 C-40.66 42.08 -43.33 43.04 -46 44 C-46.67 44.25 -47.34 44.49 -48.03 44.75 C-55.87 47.63 -63.64 49.48 -72 48 C-77.42 45.31 -80.64 40.42 -83 35 C-82.82 31.85 -82.46 30.46 -80.19 28.22 C-73.21 23.56 -65.98 19.69 -58.38 16.12 C-57.75 15.83 -57.13 15.54 -56.49 15.24 C-48.13 11.34 -41.52 9.12 -32.23 9.43 C-24.93 9.18 -17.91 5.28 -11.34 2.42 C-10.3 1.97 -9.27 1.52 -8.2 1.05 C-7.27 0.64 -6.34 0.22 -5.38 -0.21 C-3 -1 -3 -1 0 0 Z " fill="#161717" transform="translate(180,128)"/>
<path d="M0 0 C0.33 0 0.66 0 1 0 C1.2 0.93 1.2 0.93 1.41 1.87 C4.92 15.67 15.5 23.3 26 32 C26.68 32.57 27.37 33.14 28.07 33.72 C32.31 37.24 36.57 40.74 40.84 44.23 C43.71 46.58 46.57 48.94 49.43 51.31 C52.25 53.63 55.06 55.94 57.88 58.26 C60.04 60.03 62.19 61.81 64.34 63.59 C65.75 64.75 67.16 65.91 68.56 67.06 C69.19 67.59 69.82 68.11 70.47 68.65 C83.25 79.12 93.66 80.29 110 79 C126.78 76.6 142.28 67.44 157.23 59.89 C159.99 58.5 162.76 57.14 165.52 55.77 C174.83 51.17 184.07 46.47 193.25 41.62 C194.41 41.01 194.41 41.01 195.59 40.39 C196.32 40 197.06 39.61 197.82 39.21 C199.22 38.47 200.61 37.74 202 37 C202.64 36.66 203.28 36.32 203.94 35.97 C205.64 35.08 207.35 34.19 209.06 33.31 C210.44 32.6 210.44 32.6 211.85 31.86 C212.91 31.44 212.91 31.44 214 31 C214.66 31.33 215.32 31.66 216 32 C202.52 39.13 188.99 46.17 175.44 53.18 C171.72 55.11 168 57.04 164.28 58.98 C130.98 76.33 130.98 76.33 117 81.38 C115.96 81.75 115.96 81.75 114.89 82.14 C108.37 84.39 102.03 85.16 95.12 85.25 C93.99 85.28 92.86 85.3 91.7 85.33 C83.24 84.58 77.74 81.61 71.62 75.88 C70.32 74.7 69.02 73.52 67.71 72.35 C67.08 71.78 66.45 71.2 65.8 70.61 C63.35 68.41 60.81 66.33 58.25 64.25 C57.37 63.54 56.5 62.83 55.59 62.09 C54.74 61.4 53.88 60.71 53 60 C46.06 54.4 39.27 48.66 32.55 42.8 C28.89 39.61 25.18 36.52 21.38 33.5 C17.08 30 13.03 26.31 9.06 22.44 C8.52 21.92 7.97 21.4 7.41 20.87 C2.79 16.27 -0.7 11.23 -1.31 4.62 C-1 2 -1 2 0 0 Z " fill="#E5E5E6" transform="translate(21,122)"/>
<path d="M0 0 C2.31 1.53 2.31 1.53 4 3.5 C4.58 4.15 5.16 4.8 5.75 5.47 C6.16 5.97 6.57 6.48 7 7 C6.01 7.33 5.02 7.66 4 8 C3.01 7.01 3.01 7.01 2 6 C-4.79 5.08 -10.26 7.73 -16.44 10.31 C-17.55 10.77 -18.66 11.23 -19.81 11.7 C-23.22 13.11 -26.61 14.55 -30 16 C-30.92 16.39 -31.84 16.78 -32.78 17.18 C-46.85 23.23 -60.5 30.17 -74.15 37.09 C-76.15 38.1 -78.15 39.11 -80.16 40.12 C-93.71 46.91 -93.71 46.91 -106.35 55.22 C-112.33 59.56 -112.33 59.56 -116.39 59.52 C-117.66 59.29 -118.94 59.05 -120.25 58.81 C-133.9 57.01 -146.15 61.73 -158.71 66.73 C-163.97 68.76 -163.97 68.76 -166 69 C-166.66 68.34 -167.32 67.68 -168 67 C-138.54 54.63 -138.54 54.63 -125.19 55.2 C-116.73 55.55 -110.98 55.6 -103.95 50.26 C-97.59 45.44 -90.59 41.98 -83.5 38.38 C-82.28 37.75 -81.05 37.12 -79.83 36.49 C-71.58 32.27 -63.29 28.13 -55 24 C-62.9 23.78 -70.24 24.48 -78 26 C-77.67 24.68 -77.34 23.36 -77 22 C-71.67 20.6 -67.1 20 -61.59 20.03 C-50.28 19.6 -40.19 14.03 -30.06 9.44 C-27.04 8.08 -24.02 6.73 -20.98 5.39 C-19.11 4.57 -17.24 3.73 -15.38 2.87 C-9.96 0.47 -5.94 -0.6 0 0 Z " fill="#1D1D1E" transform="translate(242,54)"/>
<path d="M0 0 C-3.48 2.86 -7.32 4.77 -11.34 6.73 C-12.05 7.08 -12.77 7.44 -13.51 7.8 C-16.55 9.31 -19.59 10.8 -22.64 12.3 C-39.96 20.42 -39.96 20.42 -55.77 31 C-60.24 33.77 -63.52 33.32 -68.62 32.94 C-80.24 32.51 -90.14 35.09 -101 39 C-102.07 39.38 -102.07 39.38 -103.16 39.78 C-110.52 42.5 -116.44 45.44 -122 51 C-122.66 51.66 -123.32 52.32 -124 53 C-123.51 48.72 -121.05 45.84 -118 43 C-105.24 33.61 -90.55 30.1 -74.93 29.92 C-64.26 29.69 -53.99 26.94 -45 21 C-42.79 18.51 -41.53 16.35 -40.16 13.33 C-37.47 7.93 -32.07 5.2 -26.56 3.25 C-25.05 2.81 -23.53 2.4 -22 2 C-21.3 1.8 -20.61 1.59 -19.89 1.38 C-13.3 -0.37 -6.77 -0.19 0 0 Z " fill="#EFF2F6" transform="translate(189,77)"/>
<path d="M0 0 C0.99 0.5 0.99 0.5 2 1 C2 1.66 2 2.32 2 3 C0.57 4.26 0.57 4.26 -1.45 5.69 C-2.19 6.22 -2.93 6.74 -3.69 7.29 C-4.49 7.85 -5.3 8.42 -6.12 9 C-7.36 9.88 -7.36 9.88 -8.62 10.77 C-10.29 11.96 -11.97 13.15 -13.65 14.34 C-16.23 16.16 -18.79 17.99 -21.36 19.83 C-22.46 20.62 -23.57 21.41 -24.68 22.19 C-29.4 25.56 -34.11 28.97 -38.81 32.38 C-44.68 36.62 -50.57 40.83 -56.5 45 C-64.63 50.72 -72.69 56.53 -80.73 62.36 C-84.49 65.08 -88.24 67.79 -92 70.5 C-93.5 71.58 -95 72.67 -96.5 73.75 C-99.5 75.92 -102.5 78.08 -105.5 80.25 C-106.24 80.79 -106.99 81.32 -107.75 81.88 C-109.25 82.96 -110.75 84.04 -112.25 85.12 C-116.01 87.84 -119.78 90.56 -123.54 93.29 C-136.93 102.99 -150.44 112.53 -164 122 C-164.33 120.68 -164.66 119.36 -165 118 C-164.12 117.47 -164.12 117.47 -163.23 116.93 C-154.64 111.6 -146.52 105.68 -138.36 99.72 C-134.58 96.97 -130.79 94.23 -127 91.5 C-125.51 90.42 -124.01 89.34 -122.52 88.26 C-121.77 87.73 -121.03 87.19 -120.27 86.64 C-117.96 84.97 -115.66 83.31 -113.36 81.64 C-106.03 76.35 -98.69 71.06 -91.33 65.81 C-86.54 62.39 -81.77 58.95 -77 55.5 C-71.12 51.25 -65.23 47.02 -59.33 42.81 C-54.54 39.39 -49.77 35.95 -45 32.5 C-39.68 28.65 -34.35 24.81 -29 21 C-23.44 17.04 -17.91 13.06 -12.38 9.06 C-11.6 8.51 -10.83 7.95 -10.04 7.38 C-9.31 6.85 -8.59 6.33 -7.84 5.79 C-6.87 5.09 -6.87 5.09 -5.88 4.38 C-3.91 2.93 -1.95 1.47 0 0 Z " fill="#9FC4E7" transform="translate(456,276)"/>
<path d="M0 0 C-0.25 1.87 -0.25 1.87 -1 4 C-2.71 5.13 -2.71 5.13 -4.95 6.02 C-5.79 6.37 -6.63 6.71 -7.49 7.07 C-8.4 7.43 -9.32 7.79 -10.26 8.16 C-12.18 8.96 -14.11 9.76 -16.03 10.57 C-19.07 11.82 -22.11 13.06 -25.16 14.27 C-40.18 19.72 -40.18 19.72 -49.88 31.61 C-52.32 36.84 -56.93 39.19 -62.12 41.21 C-72.67 44.65 -81.95 45.15 -93 45 C-93.33 44.34 -93.66 43.68 -94 43 C-93.36 42.78 -92.71 42.56 -92.05 42.33 C-84.47 39.67 -77.22 36.47 -69.94 33.06 C-68.83 32.55 -67.72 32.04 -66.58 31.51 C-61.6 29.19 -56.63 26.85 -51.69 24.43 C-50.97 24.08 -50.25 23.73 -49.51 23.37 C-47.34 22.18 -45.29 20.92 -43.21 19.58 C-39.25 17.08 -35.19 15.14 -30.89 13.3 C-29.78 12.82 -29.78 12.82 -28.66 12.33 C-26.34 11.32 -24.01 10.31 -21.69 9.31 C-19.35 8.3 -17.01 7.28 -14.67 6.27 C-13.22 5.64 -11.77 5.01 -10.32 4.39 C-0.21 0 -0.21 0 0 0 Z " fill="#19191A" transform="translate(249,62)"/>
<path d="M0 0 C0.99 0.33 1.98 0.66 3 1 C-0.12 3.47 -3.37 5.39 -6.86 7.3 C-7.43 7.61 -8 7.93 -8.58 8.25 C-9.81 8.92 -11.04 9.59 -12.26 10.26 C-15.55 12.06 -18.84 13.86 -22.12 15.67 C-22.79 16.03 -23.45 16.4 -24.14 16.78 C-33.45 21.89 -42.7 27.09 -51.95 32.29 C-55.01 34.01 -58.07 35.71 -61.13 37.42 C-115.85 67.91 -115.85 67.91 -169 101 C-169 98 -169 98 -167.4 96.06 C-164.63 93.68 -161.68 91.82 -158.52 89.98 C-157.89 89.61 -157.26 89.23 -156.6 88.84 C-154.53 87.62 -152.45 86.4 -150.38 85.19 C-148.93 84.33 -147.48 83.48 -146.03 82.63 C-141.69 80.07 -137.35 77.53 -133 75 C-132.06 74.45 -132.06 74.45 -131.11 73.9 C-116.42 65.33 -101.63 56.93 -86.81 48.58 C-84 47 -81.2 45.42 -78.4 43.83 C-64.24 35.8 -50.02 27.88 -35.78 19.99 C-30.86 17.26 -25.94 14.53 -21.03 11.8 C-19.3 10.84 -17.57 9.88 -15.84 8.92 C-14.26 8.04 -14.26 8.04 -12.64 7.14 C-11.66 6.6 -10.67 6.06 -9.66 5.5 C-7.38 4.22 -5.15 2.88 -2.92 1.51 C-1.96 1.01 -0.99 0.51 0 0 Z " fill="#9EC2E5" transform="translate(308,179)"/>
<path d="M0 0 C0.33 0 0.66 0 1 0 C1.84 5.48 -0.14 8.37 -3.13 12.7 C-6.19 16.46 -9.85 19.07 -13.81 21.81 C-14.65 22.41 -15.48 23 -16.34 23.62 C-18.88 25.43 -21.44 27.21 -24 29 C-25.46 30.04 -26.93 31.07 -28.39 32.11 C-31.17 34.08 -33.96 36.05 -36.76 38.01 C-43.46 42.72 -50.09 47.55 -56.73 52.36 C-60.49 55.08 -64.24 57.79 -68 60.5 C-69.5 61.58 -71 62.67 -72.5 63.75 C-75.5 65.92 -78.5 68.08 -81.5 70.25 C-82.24 70.79 -82.99 71.32 -83.75 71.88 C-85.25 72.96 -86.75 74.04 -88.25 75.12 C-92.01 77.84 -95.78 80.56 -99.54 83.29 C-107.52 89.07 -115.54 94.81 -123.61 100.48 C-131.03 105.71 -138.38 111.03 -145.73 116.36 C-150.23 119.62 -154.74 122.87 -159.24 126.12 C-163.04 128.86 -166.83 131.6 -170.61 134.36 C-177.77 139.57 -184.96 144.74 -192.31 149.69 C-192.92 150.1 -193.52 150.51 -194.14 150.93 C-197.32 153.04 -200.39 154.73 -204 156 C-204.33 155.01 -204.66 154.02 -205 153 C-204.2 152.65 -203.4 152.29 -202.57 151.93 C-192.55 147.23 -183.97 141.19 -175.12 134.58 C-172.11 132.34 -169.06 130.17 -166 128 C-160.65 124.19 -155.32 120.35 -150 116.5 C-144.12 112.25 -138.23 108.02 -132.33 103.81 C-127.54 100.39 -122.77 96.95 -118 93.5 C-112.12 89.25 -106.23 85.02 -100.33 80.81 C-95.54 77.39 -90.77 73.95 -86 70.5 C-80.12 66.25 -74.23 62.02 -68.33 57.81 C-63.54 54.39 -58.77 50.95 -54 47.5 C-48.68 43.65 -43.35 39.81 -38 36 C-36.3 34.79 -34.6 33.57 -32.9 32.36 C-31.53 31.38 -30.15 30.4 -28.78 29.42 C-26.39 27.72 -24.01 26.02 -21.62 24.31 C-20.89 23.79 -20.15 23.27 -19.39 22.73 C-10.31 16.21 -3.6 10.81 0 0 Z " fill="#8DAECE" transform="translate(486,254)"/>
<path d="M0 0 C0.99 0.5 0.99 0.5 2 1 C-3.44 4.63 -3.44 4.63 -5.11 5.72 C-7.58 7.34 -9.97 8.98 -12.27 10.83 C-16.86 14.45 -19.96 15.25 -25.81 15.31 C-33.58 15.52 -39.07 17.96 -45.99 21.34 C-55.93 26.11 -66.4 29.05 -77 32 C-75.58 28.42 -74.1 27.16 -70.7 25.41 C-69.83 24.96 -68.96 24.51 -68.07 24.04 C-66.67 23.34 -66.67 23.34 -65.25 22.62 C-64.3 22.14 -63.34 21.66 -62.36 21.16 C-60.45 20.2 -58.54 19.24 -56.62 18.29 C-55.04 17.51 -53.47 16.73 -51.9 15.92 C-45.32 12.56 -40.04 10.8 -32.62 10.75 C-21.58 10.55 -12.03 5.4 -2.18 0.79 C-1.46 0.53 -0.74 0.27 0 0 Z " fill="#EAEDF0" transform="translate(177,130)"/>
<path d="M0 0 C0.66 0.33 1.32 0.66 2 1 C-1.5 8.83 -9.31 12.92 -17 16 C-18.73 16.25 -18.73 16.25 -20.5 16.5 C-21.74 16.75 -21.74 16.75 -23 17 C-24.16 19.47 -24.16 19.47 -25 22 C-27.95 23.08 -30.88 23.19 -34 23.25 C-34.85 23.28 -35.69 23.3 -36.56 23.33 C-39.47 22.94 -40.82 21.92 -43 20 C-41.56 17.12 -39.73 16.86 -36.78 15.64 C-35.14 14.96 -35.14 14.96 -33.48 14.27 C-32.31 13.79 -31.14 13.31 -29.94 12.81 C-27.56 11.83 -25.18 10.84 -22.81 9.85 C-21.65 9.36 -20.48 8.88 -19.28 8.38 C-14.33 6.3 -9.42 4.11 -4.55 1.84 C-3.06 1.17 -1.53 0.58 0 0 Z " fill="#191A1A" transform="translate(237,115)"/>
<path d="M0 0 C-2.46 2.82 -5.03 4.13 -8.42 5.67 C-9.5 6.17 -10.58 6.66 -11.7 7.18 C-12.85 7.7 -14 8.22 -15.19 8.75 C-16.37 9.28 -17.55 9.82 -18.76 10.36 C-21.12 11.43 -23.47 12.49 -25.82 13.54 C-28.45 14.75 -31.03 16 -33.61 17.31 C-41.64 21.31 -48.22 22.53 -57.19 22.66 C-67.74 22.9 -76.88 27.35 -85 34 C-85.97 35.07 -86.91 36.18 -87.81 37.31 C-90 40 -90 40 -92.31 40.88 C-92.87 40.92 -93.43 40.96 -94 41 C-92.07 33.93 -86.2 29.57 -80.25 25.81 C-72.86 21.68 -66.69 18.84 -58.08 19.14 C-43.34 19.47 -31.2 12.13 -18.38 5.66 C-4.26 -1.42 -4.26 -1.42 0 0 Z " fill="#151515" transform="translate(276,83)"/>
<path d="M0 0 C0.75 0 1.5 0.01 2.27 0.01 C4.12 0.03 5.97 0.04 7.81 0.06 C7.81 0.72 7.81 1.38 7.81 2.06 C7.04 2.38 6.26 2.71 5.46 3.04 C-13.71 10.89 -13.71 10.89 -31.91 20.73 C-34.19 22.06 -34.19 22.06 -36.19 22.06 C-34.87 16.06 -32.03 12.64 -27.19 9.06 C-18.4 3.95 -10.3 -0.12 0 0 Z " fill="#EDF1F4" transform="translate(220.1875,104.9375)"/>
<path d="M0 0 C2.31 1.53 2.31 1.53 4 3.5 C4.58 4.15 5.16 4.8 5.75 5.47 C6.37 6.23 6.37 6.23 7 7 C6.01 7.33 5.02 7.66 4 8 C3.34 7.34 2.68 6.68 2 6 C-4.98 4.99 -10.73 7.96 -17.06 10.62 C-18.17 11.08 -19.28 11.53 -20.42 12 C-25.19 13.96 -29.93 15.95 -34.64 18.04 C-35.29 18.32 -35.94 18.6 -36.6 18.9 C-38.25 19.63 -39.89 20.38 -41.52 21.14 C-44 22 -44 22 -47 21 C-46.01 20.67 -45.02 20.34 -44 20 C-43.99 19.25 -43.98 18.51 -43.97 17.74 C-43 15 -43 15 -39.8 13.06 C-38.39 12.43 -36.96 11.82 -35.53 11.23 C-34.77 10.9 -34.01 10.58 -33.24 10.24 C-31.63 9.56 -30.02 8.88 -28.41 8.21 C-25.96 7.2 -23.53 6.15 -21.1 5.09 C-19.53 4.42 -17.97 3.76 -16.4 3.11 C-15.32 2.64 -15.32 2.64 -14.22 2.16 C-9.25 0.14 -5.36 -0.43 0 0 Z " fill="#141515" transform="translate(242,54)"/>
<path d="M0 0 C0.51 0.23 1.02 0.47 1.55 0.71 C-7.62 8.6 -14.12 11.49 -26.25 10.81 C-36.65 10.34 -45.74 13.22 -55.45 16.71 C-56.16 16.97 -56.88 17.22 -57.61 17.49 C-64.97 20.21 -70.89 23.15 -76.45 28.71 C-77.11 29.37 -77.77 30.03 -78.45 30.71 C-77.96 26.44 -75.5 23.55 -72.45 20.71 C-60.41 11.85 -46.17 7.85 -31.35 7.62 C-22.41 7.44 -15.66 6.15 -7.63 2.06 C-2.88 -0.34 -2.88 -0.34 0 0 Z " fill="#DFE1E4" transform="translate(143.44921875,99.2890625)"/>
<path d="M0 0 C-2.2 2.49 -3.88 3.48 -7.06 4.38 C-16.47 7.03 -16.47 7.03 -23.46 13.3 C-24.24 15.03 -25.01 16.76 -25.75 18.51 C-30.29 27.57 -41.37 32.04 -50.43 35.19 C-61.47 38.52 -72.45 40.47 -84 40 C-83.34 39.01 -82.68 38.02 -82 37 C-79.23 36.55 -76.6 36.26 -73.81 36.06 C-58.28 34.62 -40.39 30.94 -29.34 18.95 C-27.81 16.72 -27.02 14.52 -26.06 12 C-23.12 5.52 -17.29 3.64 -11.01 1.18 C-7.21 -0.11 -3.99 -0.24 0 0 Z " fill="#1F2020" transform="translate(159,104)"/>
<path d="M0 0 C0.66 0.33 1.32 0.66 2 1 C2 1.66 2 2.32 2 3 C0.61 3.6 0.61 3.6 -0.82 4.21 C-7.97 7.45 -12.85 10.17 -17.38 16.8 C-23.55 25.2 -34.06 29.78 -44 32 C-43.88 30.14 -43.88 30.14 -43 28 C-40.38 26.76 -40.38 26.76 -37 25.69 C-30.77 23.47 -23.16 20.43 -20.07 14.1 C-17.2 8.49 -12.25 5.74 -6.81 3.12 C-6.18 2.81 -5.56 2.49 -4.91 2.16 C-3.3 1.37 -1.65 0.68 0 0 Z " fill="#101111" transform="translate(257,104)"/>
<path d="M0 0 C0.66 0.33 1.32 0.66 2 1 C-7 9.72 -19.85 17.23 -32.75 17.25 C-33.82 17.17 -34.9 17.09 -36 17 C-34.44 13.88 -31.35 13.29 -28.26 12.03 C-27.58 11.75 -26.91 11.47 -26.21 11.18 C-24.04 10.28 -21.86 9.39 -19.69 8.5 C-17.52 7.61 -15.36 6.71 -13.2 5.82 C-11.85 5.26 -10.5 4.71 -9.15 4.16 C-6.6 3.11 -4.11 2.06 -1.68 0.75 C-1.12 0.5 -0.57 0.26 0 0 Z " fill="#E2E4E7" transform="translate(236,118)"/>
<path d="M0 0 C1.81 1.56 1.81 1.56 3 3 C2.67 3.99 2.34 4.98 2 6 C1.01 6.33 0.02 6.66 -1 7 C-1.99 5.68 -2.98 4.36 -4 3 C-9.26 3.61 -13.56 5.32 -18.36 7.41 C-19.96 8.1 -21.57 8.78 -23.18 9.47 C-25.69 10.55 -28.21 11.63 -30.72 12.72 C-33.16 13.77 -35.6 14.81 -38.04 15.85 C-38.8 16.18 -39.55 16.51 -40.33 16.85 C-45.66 19.11 -45.66 19.11 -49 18 C-44.99 16.09 -40.97 14.19 -36.95 12.29 C-35.59 11.65 -34.23 11.01 -32.87 10.36 C-6.61 -2.15 -6.61 -2.15 0 0 Z " fill="#DDDFE2" transform="translate(285,84)"/>
<path d="M0 0 C0 3 0 3 -2.06 5.44 C-9.9 12.28 -19.57 15.7 -30 15 C-26.84 12.43 -23.62 10.77 -19.92 9.08 C-18.76 8.55 -17.6 8.02 -16.41 7.47 C-15.19 6.92 -13.97 6.37 -12.75 5.81 C-11.52 5.25 -10.28 4.68 -9.05 4.12 C-6.03 2.74 -3.02 1.37 0 0 Z " fill="#E9ECEF" transform="translate(198,89)"/>
<path d="M0 0 C-2.85 2.33 -5.39 3.67 -8.88 4.82 C-9.8 5.13 -10.72 5.44 -11.67 5.75 C-12.62 6.06 -13.58 6.37 -14.56 6.69 C-15.52 7.01 -16.48 7.33 -17.47 7.66 C-24.59 10 -24.59 10 -28 10 C-28 9.34 -28 8.68 -28 8 C-30.31 8 -32.62 8 -35 8 C-35 7.01 -35 6.02 -35 5 C-34.01 5 -33.02 5 -32 5 C-32 5.33 -32 5.66 -32 6 C-27.9 5.02 -23.79 4.04 -19.69 3.06 C-18.52 2.78 -17.35 2.51 -16.15 2.22 C-14.47 1.82 -14.47 1.82 -12.76 1.41 C-11.73 1.16 -10.7 0.92 -9.64 0.66 C-3.14 -0.97 -3.14 -0.97 0 0 Z " fill="#0E0F0F" transform="translate(137,157)"/>
<path d="M0 0 C-0.33 0.99 -0.66 1.98 -1 3 C-3.34 3.96 -3.34 3.96 -6.38 4.81 C-15.8 7.78 -23.46 11.31 -29.46 19.36 C-31.25 21.27 -32.45 21.62 -35 22 C-33.07 14.93 -27.2 10.57 -21.25 6.81 C-14.67 3.06 -7.71 -0.36 0 0 Z " fill="#111212" transform="translate(217,102)"/>
<path d="M0 0 C-1.98 0.99 -1.98 0.99 -4 2 C-3.5 2.99 -3.5 2.99 -3 4 C-3.83 4.34 -4.66 4.69 -5.52 5.04 C-8.65 6.33 -11.77 7.62 -14.9 8.91 C-16.24 9.46 -17.59 10.02 -18.93 10.57 C-26.33 13.62 -33.71 16.7 -41 20 C-41.33 19.01 -41.66 18.02 -42 17 C-38.29 15.32 -34.57 13.65 -30.85 11.98 C-29.59 11.42 -28.32 10.85 -27.06 10.28 C-25.24 9.45 -23.42 8.64 -21.59 7.82 C-20.5 7.33 -19.4 6.84 -18.27 6.33 C-14.87 4.95 -11.55 3.95 -8 3 C-8 2.34 -8 1.68 -8 1 C-3.38 -1.12 -3.38 -1.12 0 0 Z " fill="#181819" transform="translate(236,104)"/>
<path d="M0 0 C0.33 0 0.66 0 1 0 C1.84 5.48 -0.14 8.37 -3.13 12.7 C-6.19 16.46 -9.85 19.07 -13.81 21.81 C-14.63 22.4 -15.46 22.98 -16.3 23.59 C-18.86 25.41 -21.43 27.2 -24 29 C-25.68 30.19 -27.35 31.38 -29.02 32.57 C-33 35.39 -37 38.2 -41 41 C-41.66 40.67 -42.32 40.34 -43 40 C-40.69 38.25 -38.38 36.5 -36.06 34.75 C-35.35 34.21 -34.64 33.67 -33.9 33.12 C-29.39 29.73 -24.81 26.46 -20.15 23.27 C-10.7 16.77 -3.44 11.33 0 0 Z " fill="#8FAFCF" transform="translate(486,254)"/>
<path d="M0 0 C0.99 0.33 1.98 0.66 3 1 C2.51 1.38 2.01 1.75 1.5 2.14 C-2.5 5.33 -2.5 5.33 -5.25 9.56 C-5.18 12.2 -5.18 12.2 -3.12 14.62 C0.71 17.54 4.39 18.77 9 20 C9 20.33 9 20.66 9 21 C4.46 21.59 0.59 21.98 -3.41 19.51 C-8.46 15.09 -8.46 15.09 -10 12 C-10.04 10 -10.04 8 -10 6 C-9.46 5.94 -8.93 5.88 -8.38 5.81 C-5.91 4.97 -4.85 4.09 -2.94 2.38 C-1.97 1.59 -1 0.81 0 0 Z " fill="#080808" transform="translate(73,122)"/>
<path d="M0 0 C0 0.66 0 1.32 0 2 C-3.56 3.32 -7.12 4.63 -10.69 5.94 C-11.69 6.31 -12.7 6.68 -13.74 7.07 C-14.72 7.43 -15.69 7.78 -16.7 8.15 C-17.59 8.48 -18.49 8.81 -19.41 9.15 C-21.93 9.98 -24.39 10.54 -27 11 C-26.67 9.35 -26.34 7.7 -26 6 C-24.99 5.73 -23.97 5.47 -22.93 5.2 C-21.58 4.84 -20.23 4.48 -18.88 4.12 C-18.21 3.95 -17.54 3.78 -16.86 3.6 C-13.76 2.78 -10.73 1.91 -7.69 0.88 C-4.96 -0.01 -2.85 -0.17 0 0 Z " fill="#090A0A" transform="translate(138,162)"/>
<path d="M0 0 C0 0.66 0 1.32 0 2 C-12.23 5.78 -24.1 8.52 -37 8 C-36.34 7.01 -35.68 6.02 -35 5 C-32.23 4.55 -29.6 4.26 -26.81 4.06 C-19.16 3.4 -12.19 1.93 -4.84 -0.29 C-2 -1 -2 -1 0 0 Z " fill="#202020" transform="translate(112,136)"/>
<path d="M0 0 C-2.32 1.72 -4.65 3.4 -7 5.06 C-7.65 5.55 -8.3 6.03 -8.96 6.53 C-12.63 9.09 -14.97 10.37 -19.5 9.81 C-20.66 9.54 -21.81 9.27 -23 9 C-23 8.34 -23 7.68 -23 7 C-21.8 6.51 -20.59 6.01 -19.35 5.5 C-17.78 4.86 -16.2 4.21 -14.62 3.56 C-13.43 3.07 -13.43 3.07 -12.22 2.58 C-11.46 2.26 -10.7 1.95 -9.91 1.63 C-9.21 1.34 -8.51 1.05 -7.79 0.76 C-4.52 -0.63 -3.49 -1.05 0 0 Z " fill="#EAEDF0" transform="translate(145,100)"/>
<path d="M0 0 C0.99 0.33 1.98 0.66 3 1 C-3.35 9.53 -10.77 13 -21.16 14.74 C-21.77 14.82 -22.38 14.91 -23 15 C-23 14.01 -23 13.02 -23 12 C-22.05 11.76 -21.09 11.52 -20.11 11.27 C-18.86 10.93 -17.6 10.6 -16.31 10.25 C-15.07 9.93 -13.83 9.6 -12.55 9.27 C-8.97 7.99 -6.86 6.45 -4 4 C-3.34 4 -2.68 4 -2 4 C-1.34 2.68 -0.68 1.36 0 0 Z " fill="#212222" transform="translate(198,91)"/>
<path d="M0 0 C0 0.66 0 1.32 0 2 C-0.54 2.23 -1.08 2.45 -1.63 2.69 C-4.11 3.73 -6.59 4.77 -9.06 5.81 C-9.91 6.17 -10.76 6.53 -11.63 6.89 C-12.88 7.42 -12.88 7.42 -14.16 7.96 C-15.4 8.47 -15.4 8.47 -16.66 9 C-18.13 9.63 -19.59 10.28 -21.04 10.97 C-25.51 13.06 -25.51 13.06 -28.44 12.69 C-28.95 12.46 -29.47 12.23 -30 12 C-23.83 8.71 -17.51 5.87 -11.06 3.19 C-10.32 2.87 -9.57 2.56 -8.8 2.24 C-5.73 0.97 -3.36 0 0 0 Z " fill="#141516" transform="translate(261,94)"/>
<path d="M0 0 C0.66 0.66 1.32 1.32 2 2 C-4.91 4.71 -11.69 6.63 -19 8 C-18 5 -18 5 -14.98 3.36 C-13.72 2.81 -12.46 2.28 -11.19 1.75 C-10.56 1.47 -9.93 1.19 -9.28 0.9 C-3.37 -1.6 -3.37 -1.6 0 0 Z " fill="#0D0E0E" transform="translate(238,55)"/>
<path d="M0 0 C2.91 0.09 4.57 0.58 6.67 2.62 C8.16 4.38 9.6 6.16 11 8 C7.12 7.12 7.12 7.12 6 6 C0.93 5.59 -2.58 6.37 -7.11 8.44 C-9.42 9.12 -10.75 8.75 -13 8 C-12.15 7.67 -11.29 7.35 -10.41 7.01 C-9.31 6.57 -8.2 6.14 -7.06 5.69 C-5.96 5.26 -4.86 4.83 -3.72 4.39 C-0.69 3.24 -0.69 3.24 0 0 Z " fill="#0D0D0E" transform="translate(238,54)"/>
<path d="M0 0 C0.66 0.33 1.32 0.66 2 1 C2 1.66 2 2.32 2 3 C-7.9 7.95 -7.9 7.95 -18 13 C-18.33 12.01 -18.66 11.02 -19 10 C-15.88 8.3 -12.75 6.62 -9.62 4.94 C-8.29 4.21 -8.29 4.21 -6.93 3.47 C-6.08 3.01 -5.23 2.56 -4.35 2.09 C-3.57 1.67 -2.78 1.24 -1.97 0.8 C-1.32 0.54 -0.67 0.27 0 0 Z " fill="#29292A" transform="translate(169,87)"/>
<path d="M0 0 C0.66 0 1.32 0 2 0 C1.74 1.86 1.74 1.86 1 4 C-1.69 5.93 -4.78 7.07 -7.81 8.38 C-9.04 8.95 -9.04 8.95 -10.3 9.53 C-11.09 9.88 -11.89 10.23 -12.71 10.59 C-13.8 11.07 -13.8 11.07 -14.91 11.56 C-17.6 12.13 -18.72 11.43 -21 10 C-20.4 9.73 -19.8 9.47 -19.18 9.19 C-16.47 7.98 -13.77 6.77 -11.06 5.56 C-9.64 4.93 -9.64 4.93 -8.2 4.29 C-6.85 3.68 -6.85 3.68 -5.47 3.07 C-4.64 2.69 -3.81 2.32 -2.95 1.94 C-1.04 1.15 -1.04 1.15 0 0 Z " fill="#202121" transform="translate(247,62)"/>
<path d="M0 0 C0.33 0.99 0.66 1.98 1 3 C0.01 3 -0.98 3 -2 3 C-6.61 3.57 -10.57 4.85 -14.88 6.56 C-16.03 7.02 -17.18 7.47 -18.37 7.94 C-19.24 8.29 -20.1 8.64 -21 9 C-21.33 8.01 -21.66 7.02 -22 6 C-19.28 4.8 -16.55 3.61 -13.81 2.44 C-13.04 2.1 -12.27 1.75 -11.48 1.4 C-4.39 -1.61 -4.39 -1.61 0 0 Z " fill="#1F2020" transform="translate(282,87)"/>
<path d="M0 0 C0 0.33 0 0.66 0 1 C2.47 1.5 2.47 1.5 5 2 C5 2.33 5 2.66 5 3 C4 3.13 3 3.27 1.96 3.4 C0.62 3.58 -0.72 3.76 -2.06 3.94 C-2.72 4.02 -3.38 4.11 -4.05 4.2 C-8.37 4.78 -12.69 5.38 -17 6 C-16.67 4.68 -16.34 3.36 -16 2 C-10.55 0.61 -5.63 -0.24 0 0 Z " fill="#202121" transform="translate(181,74)"/>
<path d="M0 0 C0.99 0.33 1.98 0.66 3 1 C0.1 4.03 -1.12 4.98 -5.48 5.1 C-6.86 5.09 -8.24 5.08 -9.62 5.06 C-10.33 5.06 -11.04 5.05 -11.77 5.05 C-13.51 5.04 -15.26 5.02 -17 5 C-16.67 4.01 -16.34 3.02 -16 2 C-15.01 1.94 -14.03 1.88 -13.01 1.82 C-11.73 1.73 -10.45 1.65 -9.12 1.56 C-7.85 1.48 -6.57 1.4 -5.26 1.32 C-2.12 1.21 -2.12 1.21 0 0 Z " fill="#1C1C1C" transform="translate(233,100)"/>
<path d="M0 0 C0.52 0.38 1.04 0.77 1.58 1.16 C1.05 1.43 0.51 1.7 -0.04 1.97 C-1.82 2.86 -3.59 3.76 -5.36 4.67 C-6.41 5.21 -7.46 5.74 -8.54 6.29 C-9.6 6.83 -10.65 7.37 -11.74 7.92 C-14.42 9.16 -14.42 9.16 -16.42 9.16 C-16.31 7.38 -16.31 7.38 -15.42 5.16 C-12.62 3.39 -12.62 3.39 -9.11 1.79 C-7.95 1.25 -6.8 0.7 -5.62 0.14 C-2.42 -0.84 -2.42 -0.84 0 0 Z " fill="#141415" transform="translate(195.41796875,134.8359375)"/>
<path d="M0 0 C-3.08 1.65 -6.16 3.3 -9.25 4.94 C-10.12 5.41 -11 5.87 -11.89 6.36 C-13.16 7.03 -13.16 7.03 -14.45 7.71 C-15.23 8.13 -16 8.54 -16.8 8.97 C-18.87 9.94 -20.77 10.54 -23 11 C-22 8 -22 8 -20.19 6.82 C-19.03 6.27 -19.03 6.27 -17.85 5.7 C-17.01 5.3 -16.17 4.9 -15.3 4.49 C-13.98 3.88 -13.98 3.88 -12.62 3.25 C-11.31 2.61 -11.31 2.61 -9.97 1.96 C-3.38 -1.13 -3.38 -1.13 0 0 Z " fill="#131314" transform="translate(193,78)"/>
<path d="M0 0 C0.99 0.33 1.98 0.66 3 1 C0.46 2.3 -2.08 3.59 -4.62 4.88 C-5.34 5.24 -6.05 5.6 -6.79 5.98 C-10.79 8 -14.69 9.71 -19 11 C-18.72 9.1 -18.72 9.1 -18 7 C-15.33 5.74 -12.85 4.74 -10.06 3.81 C-8.59 3.3 -7.13 2.78 -5.66 2.27 C-4.45 1.85 -3.24 1.43 -2 1 C-1.34 0.67 -0.68 0.34 0 0 Z " fill="#E2E3E3" transform="translate(160,191)"/>
<path d="M0 0 C1.67 0.04 3.33 0.05 5 0 C5 0.66 5 1.32 5 2 C0.65 2.84 -3.44 3.11 -7.88 3.06 C-9.03 3.05 -10.18 3.04 -11.37 3.04 C-12.24 3.02 -13.1 3.01 -14 3 C-14.33 2.34 -14.66 1.68 -15 1 C-13.57 0.47 -12.13 -0.05 -10.69 -0.56 C-9.89 -0.85 -9.09 -1.14 -8.26 -1.44 C-5.1 -2.22 -3.04 -1.01 0 0 Z " fill="#0C0D0D" transform="translate(170,104)"/>
<path d="M0 0 C-2.68 3.52 -6.34 4.21 -10.44 5.25 C-11.11 5.44 -11.77 5.62 -12.46 5.81 C-16.05 6.75 -18.47 7.08 -22 6 C-18.9 4.8 -15.8 3.62 -12.69 2.44 C-11.81 2.1 -10.93 1.75 -10.02 1.4 C-8.75 0.92 -8.75 0.92 -7.45 0.43 C-6.28 -0.01 -6.28 -0.01 -5.08 -0.47 C-3 -1 -3 -1 0 0 Z " fill="#E2E2E2" transform="translate(136,166)"/>
<path d="M0 0 C-1.98 0.99 -1.98 0.99 -4 2 C-3.67 2.66 -3.34 3.32 -3 4 C-8.28 5.98 -13.56 7.96 -19 10 C-19 9.01 -19 8.02 -19 7 C-17.54 6.33 -16.08 5.66 -14.62 5 C-13.81 4.63 -13 4.26 -12.16 3.88 C-10 3 -10 3 -8 3 C-8 2.34 -8 1.68 -8 1 C-3.38 -1.12 -3.38 -1.12 0 0 Z " fill="#212222" transform="translate(236,104)"/>
<path d="M0 0 C1.37 0.96 2.7 1.95 4 3 C3.05 3.13 2.09 3.27 1.11 3.4 C-0.14 3.58 -1.4 3.76 -2.69 3.94 C-4.55 4.2 -4.55 4.2 -6.45 4.46 C-9.32 4.9 -12.16 5.4 -15 6 C-14.67 4.68 -14.34 3.36 -14 2 C-4.78 -0.54 -4.78 -0.54 0 0 Z " fill="#1C1C1D" transform="translate(104,105)"/>
<path d="M0 0 C-3.92 2.31 -8.18 3.16 -12.56 4.19 C-13.33 4.38 -14.1 4.57 -14.89 4.76 C-20.64 6.12 -20.64 6.12 -24 5 C-20.76 3.77 -17.51 2.57 -14.25 1.38 C-13.33 1.02 -12.41 0.67 -11.46 0.31 C-10.57 -0.01 -9.68 -0.33 -8.77 -0.66 C-7.95 -0.97 -7.13 -1.27 -6.29 -1.58 C-3.49 -2.09 -2.36 -1.5 0 0 Z " fill="#C3C3C3" transform="translate(131,163)"/>
<path d="M0 0 C0.66 0.33 1.32 0.66 2 1 C2 1.66 2 2.32 2 3 C-3.61 5.31 -9.22 7.62 -15 10 C-15.33 9.01 -15.66 8.02 -16 7 C-13.38 5.8 -10.75 4.62 -8.12 3.44 C-7.01 2.92 -7.01 2.92 -5.86 2.4 C-3.93 1.54 -1.97 0.76 0 0 Z " fill="#212222" transform="translate(237,115)"/>
<path d="M0 0 C0.66 0.33 1.32 0.66 2 1 C1 4 1 4 -2.16 5.82 C-3.46 6.46 -4.76 7.08 -6.06 7.69 C-6.73 8.01 -7.39 8.33 -8.07 8.66 C-9.71 9.45 -11.35 10.23 -13 11 C-12.04 7.66 -11.33 6.24 -8.47 4.16 C-7.49 3.66 -6.51 3.15 -5.5 2.62 C-4.52 2.1 -3.54 1.58 -2.53 1.04 C-1.7 0.7 -0.86 0.35 0 0 Z " fill="#171818" transform="translate(114,148)"/>
<path d="M0 0 C0.66 0.33 1.32 0.66 2 1 C1 4 1 4 -1.94 5.61 C-3.73 6.39 -3.73 6.39 -5.56 7.19 C-6.76 7.72 -7.96 8.25 -9.19 8.79 C-10.12 9.19 -11.05 9.59 -12 10 C-12.33 9.34 -12.66 8.68 -13 8 C-10.62 5.33 -8.13 3.85 -4.94 2.25 C-4.06 1.8 -3.18 1.35 -2.28 0.89 C-1.53 0.6 -0.77 0.3 0 0 Z " fill="#1D1D1E" transform="translate(271,97)"/>
<path d="M0 0 C1.32 0.66 2.64 1.32 4 2 C0.73 5.82 -3.24 8.41 -8 10 C-8.99 9.67 -9.98 9.34 -11 9 C-8.76 5.64 -8.07 5.42 -4.38 4.31 C-3.15 3.94 -3.15 3.94 -1.9 3.55 C-1.27 3.37 -0.65 3.19 0 3 C0 2.01 0 1.02 0 0 Z " fill="#101010" transform="translate(282,90)"/>
<path d="M0 0 C-1.3 3.89 -2.68 4.19 -6.25 6.06 C-7.2 6.57 -8.16 7.08 -9.14 7.6 C-11.73 8.87 -14.31 9.97 -17 11 C-15.61 6.83 -12.72 5.82 -9.06 3.81 C-8.42 3.44 -7.77 3.08 -7.1 2.7 C-2.28 0 -2.28 0 0 0 Z " fill="#111313" transform="translate(150,98)"/>
<path d="M0 0 C-5.44 2.47 -5.44 2.47 -11 5 C-11 5.66 -11 6.32 -11 7 C-12.65 7 -14.3 7 -16 7 C-15.83 5.18 -15.83 5.18 -15 3 C-12.64 1.45 -12.64 1.45 -9.69 0.12 C-8.24 -0.55 -8.24 -0.55 -6.76 -1.24 C-4 -2 -4 -2 0 0 Z " fill="#272828" transform="translate(181,98)"/>
<path d="M0 0 C2.96 0.23 4.55 0.61 6.81 2.56 C7.2 3.04 7.6 3.51 8 4 C7.67 4.99 7.34 5.98 7 7 C6.01 7.33 5.02 7.66 4 8 C3.57 7.38 3.13 6.76 2.69 6.12 C1 3.78 1 3.78 -2 2 C-1.34 1.34 -0.68 0.68 0 0 Z " fill="#EEF1F4" transform="translate(280,83)"/>
<path d="M0 0 C-2.97 2.97 -6.59 4.1 -10.44 5.69 C-11.21 6.02 -11.99 6.35 -12.79 6.7 C-13.54 7.01 -14.29 7.32 -15.06 7.64 C-15.74 7.92 -16.43 8.21 -17.13 8.5 C-19 9 -19 9 -22 8 C-18.9 6.46 -15.8 4.95 -12.69 3.44 C-11.81 3 -10.93 2.56 -10.02 2.11 C-9.17 1.7 -8.32 1.29 -7.45 0.87 C-6.67 0.49 -5.89 0.11 -5.08 -0.29 C-3 -1 -3 -1 0 0 Z " fill="#C8C9CA" transform="translate(258,94)"/>
<path d="M0 0 C-2.93 2.33 -5.89 4.05 -9.25 5.69 C-10.59 6.34 -10.59 6.34 -11.95 7.01 C-12.63 7.34 -13.3 7.66 -14 8 C-14.66 7.34 -15.32 6.68 -16 6 C-13.9 4.8 -11.8 3.61 -9.69 2.44 C-8.8 1.92 -8.8 1.92 -7.88 1.4 C-3.34 -1.11 -3.34 -1.11 0 0 Z " fill="#9ABDDF" transform="translate(311,180)"/>
<path d="M0 0 C0.66 0.33 1.32 0.66 2 1 C1.35 1.56 1.35 1.56 0.69 2.12 C-1.2 4.06 -1.2 4.06 -2.56 7.12 C-4 10 -4 10 -6 11 C-7.13 13.02 -7.13 13.02 -8 15 C-7.86 8.07 -4.78 4.8 0 0 Z " fill="#232424" transform="translate(70,117)"/>
<path d="M0 0 C0.33 0.99 0.66 1.98 1 3 C-1.24 6.36 -2.22 6.92 -6 8 C-8.31 7.62 -8.31 7.62 -10 7 C-8.72 4.44 -7.56 4.14 -5 2.94 C-2.3 1.76 -2.3 1.76 0 0 Z " fill="#0F0F0F" transform="translate(145,93)"/>
<path d="M0 0 C2.71 -0.36 2.71 -0.36 5.94 -0.31 C7.53 -0.31 7.53 -0.31 9.15 -0.3 C12 0 12 0 15 2 C9.29 2.99 3.79 3.1 -2 3 C-1.34 2.01 -0.68 1.02 0 0 Z " fill="#373838" transform="translate(77,141)"/>
<path d="M0 0 C3.96 0 7.92 0 12 0 C12.33 0.99 12.66 1.98 13 3 C8.17 3.08 3.76 2.95 -1 2 C-0.67 1.34 -0.34 0.68 0 0 Z " fill="#0C0C0C" transform="translate(140,138)"/>
<path d="M0 0 C0.99 0.33 1.98 0.66 3 1 C1.56 3.06 1.56 3.06 -1 5 C-4.08 5.06 -6.99 4.59 -10 4 C-9.34 3.01 -8.68 2.02 -8 1 C-4.44 0.88 -4.44 0.88 -1 1 C-0.67 0.67 -0.34 0.34 0 0 Z " fill="#313232" transform="translate(131,108)"/>
<path d="M0 0 C-2.67 3.46 -5.86 4.06 -10 5 C-11.32 5 -12.64 5 -14 5 C-14 4.34 -14 3.68 -14 3 C-9.03 0.57 -5.65 -0.35 0 0 Z " fill="#2A2B2B" transform="translate(159,104)"/>
<path d="M0 0 C0.99 0.33 1.98 0.66 3 1 C1.02 3.97 1.02 3.97 -1 7 C-3.97 6.5 -3.97 6.5 -7 6 C-4.74 3.66 -2.72 1.81 0 0 Z " fill="#0D0D0E" transform="translate(202,84)"/>
<path d="M0 0 C1.04 3.12 1.32 4.07 0 7 C-2.56 8.25 -2.56 8.25 -5 9 C-5 7.35 -5 5.7 -5 4 C-4.34 4 -3.68 4 -3 4 C-3 3.34 -3 2.68 -3 2 C-2.01 1.34 -1.02 0.68 0 0 Z " fill="#1E1E1E" transform="translate(184,122)"/>
<path d="M0 0 C-0.54 3.77 -2 5.68 -5 8 C-7.14 7.61 -7.14 7.61 -9 7 C-7.88 5.83 -6.75 4.66 -5.62 3.5 C-4.69 2.53 -4.69 2.53 -3.73 1.53 C-2 0 -2 0 0 0 Z " fill="#262727" transform="translate(133,121)"/>
<path d="M0 0 C0.66 0.33 1.32 0.66 2 1 C0.57 1.98 -0.87 2.96 -2.31 3.94 C-3.11 4.48 -3.91 5.03 -4.74 5.59 C-7 7 -7 7 -10 8 C-10.33 7.01 -10.66 6.02 -11 5 C-9.21 4.14 -7.42 3.28 -5.62 2.44 C-4.63 1.96 -3.63 1.49 -2.6 1 C-1.74 0.67 -0.88 0.34 0 0 Z " fill="#95B7D7" transform="translate(292,402)"/>
<path d="M0 0 C1.67 0.34 3.33 0.68 5 1 C5 1.33 5 1.66 5 2 C1.04 2.66 -2.92 3.32 -7 4 C-6.67 2.68 -6.34 1.36 -6 0 C-3.44 -1.28 -2.7 -0.77 0 0 Z " fill="#1B1B1C" transform="translate(140,139)"/>
<path d="M0 0 C0.99 0.33 1.98 0.66 3 1 C2.28 1.61 2.28 1.61 1.54 2.24 C0.91 2.78 0.28 3.32 -0.38 3.88 C-1 4.41 -1.63 4.94 -2.27 5.49 C-3.56 6.61 -4.79 7.79 -6 9 C-6 5 -6 5 -3.19 2.19 C-2.14 1.47 -1.08 0.74 0 0 Z " fill="#101112" transform="translate(73,122)"/>
<path d="M0 0 C0.66 0.33 1.32 0.66 2 1 C2 1.66 2 2.32 2 3 C-0.97 4.32 -3.94 5.64 -7 7 C-7 5.68 -7 4.36 -7 3 C-4.7 1.93 -2.36 0.94 0 0 Z " fill="#101111" transform="translate(242,96)"/>
<path d="M0 0 C0.66 0.33 1.32 0.66 2 1 C2 1.66 2 2.32 2 3 C-4.96 6.35 -4.96 6.35 -9 5 C-7.55 4.14 -6.09 3.28 -4.62 2.44 C-3.41 1.72 -3.41 1.72 -2.16 1 C-1.45 0.67 -0.74 0.34 0 0 Z " fill="#1E1F20" transform="translate(212,78)"/>
<path d="M0 0 C-1.98 0.99 -1.98 0.99 -4 2 C-3.67 2.66 -3.34 3.32 -3 4 C-5.31 4.33 -7.62 4.66 -10 5 C-10 4.34 -10 3.68 -10 3 C-9.34 3 -8.68 3 -8 3 C-8 2.34 -8 1.68 -8 1 C-3.38 -1.12 -3.38 -1.12 0 0 Z " fill="#4C4C4D" transform="translate(236,104)"/>
<path d="M0 0 C2.87 0.57 3.86 0.86 6 3 C4.73 3.53 3.46 4.05 2.19 4.56 C1.48 4.85 0.77 5.14 0.04 5.44 C-2 6 -2 6 -5 5 C-3.68 4.67 -2.36 4.34 -1 4 C-0.67 2.68 -0.34 1.36 0 0 Z " fill="#3B3C3C" transform="translate(234,54)"/>
<path d="M0 0 C0 0.99 0 1.98 0 3 C-1.68 4.42 -1.68 4.42 -3.88 5.75 C-4.59 6.2 -5.31 6.65 -6.05 7.11 C-6.7 7.4 -7.34 7.7 -8 8 C-8.66 7.67 -9.32 7.34 -10 7 C-7.22 3.73 -3.72 2.04 0 0 Z " fill="#0F1010" transform="translate(185,127)"/>
<path d="M0 0 C4.94 -0.34 5.78 -0.16 10 3 C6.37 3.33 2.74 3.66 -1 4 C-0.67 2.68 -0.34 1.36 0 0 Z " fill="#292A2A" transform="translate(98,105)"/>
<path d="M0 0 C-0.33 0.99 -0.66 1.98 -1 3 C-4.56 4.19 -4.56 4.19 -8 5 C-8 3.68 -8 2.36 -8 1 C-5.07 0.02 -3.04 -0.08 0 0 Z " fill="#222323" transform="translate(283,80)"/>
<path d="M0 0 C0.33 0 0.66 0 1 0 C1.5 5.29 0.19 7.81 -3 12 C-3.66 11.67 -4.32 11.34 -5 11 C-4.72 10.46 -4.45 9.91 -4.16 9.36 C-3.8 8.64 -3.44 7.92 -3.06 7.19 C-2.52 6.13 -2.52 6.13 -1.97 5.04 C-0.89 2.88 -0.89 2.88 0 0 Z " fill="#A1C5E8" transform="translate(486,254)"/>
<path d="M0 0 C0.66 0.33 1.32 0.66 2 1 C-0.83 4.25 -2.69 5.52 -7 6 C-2.25 1.12 -2.25 1.12 0 0 Z " fill="#0B0B0B" transform="translate(132,140)"/>
<path d="M0 0 C0.66 0.33 1.32 0.66 2 1 C-0.65 4.63 -3.02 6.9 -7 9 C-5.44 5.18 -2.96 2.81 0 0 Z " fill="#0C0C0D" transform="translate(75,114)"/>
<path d="M0 0 C0.66 0 1.32 0 2 0 C1.39 3.56 0.42 6.68 -1 10 C-1.66 9.67 -2.32 9.34 -3 9 C-2.01 6.03 -1.02 3.06 0 0 Z " fill="#151516" transform="translate(135,112)"/>
<path d="M0 0 C2 1 2 1 3 3 C0.03 3.66 -2.94 4.32 -6 5 C-6 4.34 -6 3.68 -6 3 C-4.04 1.93 -2.03 0.93 0 0 Z " fill="#A3C8EB" transform="translate(316,175)"/>
<path d="M0 0 C0.33 0 0.66 0 1 0 C1.66 2.97 2.32 5.94 3 9 C2.01 9.33 1.02 9.66 0 10 C-1.37 7.26 -1.13 5.03 -1 2 C-0.67 1.34 -0.34 0.68 0 0 Z " fill="#B7B7B8" transform="translate(21,122)"/>
<path d="M0 0 C0 0.66 0 1.32 0 2 C-5.46 5.1 -5.46 5.1 -8.2 4.59 C-8.8 4.4 -9.39 4.2 -10 4 C-8.71 3.33 -7.42 2.66 -6.12 2 C-5.41 1.63 -4.69 1.26 -3.95 0.88 C-2 0 -2 0 0 0 Z " fill="#0C0D0D" transform="translate(241,102)"/>
<path d="M0 0 C-2.97 1.65 -5.94 3.3 -9 5 C-8 1 -8 1 -6.19 -0.31 C-4 -1 -4 -1 0 0 Z " fill="#DADDDF" transform="translate(145,100)"/>
<path d="M0 0 C1.32 0.66 2.64 1.32 4 2 C2.68 3.32 1.36 4.64 0 6 C-0.99 5.67 -1.98 5.34 -3 5 C-2.67 4.34 -2.34 3.68 -2 3 C-1.34 3 -0.68 3 0 3 C0 2.01 0 1.02 0 0 Z " fill="#080808" transform="translate(282,90)"/>
<path d="M0 0 C-0.33 0.66 -0.66 1.32 -1 2 C-4.44 2.75 -4.44 2.75 -8 3 C-8.66 2.34 -9.32 1.68 -10 1 C-8.71 0.64 -7.42 0.29 -6.12 -0.06 C-5.41 -0.26 -4.69 -0.46 -3.95 -0.66 C-2 -1 -2 -1 0 0 Z " fill="#222323" transform="translate(113,159)"/>
<path d="M0 0 C0.66 0.33 1.32 0.66 2 1 C2 1.66 2 2.32 2 3 C-1.47 4.48 -1.47 4.48 -5 6 C-5.33 5.01 -5.66 4.02 -6 3 C-4.04 1.93 -2.03 0.93 0 0 Z " fill="#282929" transform="translate(200,118)"/>
<path d="M0 0 C-2.35 2.72 -4.62 3.81 -8 5 C-7.62 3.06 -7.62 3.06 -7 1 C-4.54 -0.23 -2.72 -0.07 0 0 Z " fill="#212222" transform="translate(158,95)"/>
<path d="M0 0 C0.66 0.33 1.32 0.66 2 1 C1.67 1.99 1.34 2.98 1 4 C-2.06 5.19 -2.06 5.19 -5 6 C-4.75 4.12 -4.75 4.12 -4 2 C-2.06 0.69 -2.06 0.69 0 0 Z " fill="#1F2020" transform="translate(263,86)"/>
<path d="M0 0 C2.64 0 5.28 0 8 0 C8 0.99 8 1.98 8 3 C5.03 2.67 2.06 2.34 -1 2 C-0.67 1.34 -0.34 0.68 0 0 Z " fill="#020303" transform="translate(181,74)"/>
<path d="M0 0 C0.66 0.33 1.32 0.66 2 1 C2 1.66 2 2.32 2 3 C0.02 3.99 -1.96 4.98 -4 6 C-4.33 5.01 -4.66 4.02 -5 3 C-2.62 1.44 -2.62 1.44 0 0 Z " fill="#97BADB" transform="translate(183,249)"/>
<path d="M0 0 C0.66 0.33 1.32 0.66 2 1 C2 1.66 2 2.32 2 3 C-1.23 5.15 -2.28 5.2 -6 5 C-5.2 4.36 -4.39 3.72 -3.56 3.06 C-1.72 1.59 -1.72 1.59 0 0 Z " fill="#242526" transform="translate(174,133)"/>
<path d="M0 0 C0 0.66 0 1.32 0 2 C-2.88 2.62 -2.88 2.62 -6 3 C-6.66 2.34 -7.32 1.68 -8 1 C-2.25 -1.12 -2.25 -1.12 0 0 Z " fill="#2F2F2F" transform="translate(112,136)"/>
<path d="M0 0 C2.87 0.57 3.86 0.86 6 3 C3.69 3.33 1.38 3.66 -1 4 C-0.67 2.68 -0.34 1.36 0 0 Z " fill="#2C2C2D" transform="translate(165,76)"/>
<path d="M0 0 C2.64 0 5.28 0 8 0 C8 0.33 8 0.66 8 1 C5.36 1 2.72 1 0 1 C0 0.67 0 0.34 0 0 Z " fill="#000000" transform="translate(112,215)"/>
<path d="M0 0 C2 1 2 1 2 1 Z " fill="#000000" transform="translate(94,207)"/>
<path d="M0 0 C2 1 2 1 2 1 Z " fill="#000000" transform="translate(92,205)"/>
<path d="" fill="#000000" transform="translate(0,0)"/>
<path d="" fill="#000000" transform="translate(0,0)"/>
<path d="" fill="#000000" transform="translate(0,0)"/>
<path d="" fill="#000000" transform="translate(0,0)"/>
<path d="" fill="#000000" transform="translate(0,0)"/>
<path d="" fill="#000000" transform="translate(0,0)"/>
<path d="" fill="#000000" transform="translate(0,0)"/>
</svg>
