<?xml version="1.0" encoding="UTF-8"?>
<svg version="1.1" xmlns="http://www.w3.org/2000/svg" width="500" height="500">
<path d="M0 0 C0.33 0.99 0.66 1.98 1 3 C1.66 3 2.32 3 3 3 C12 23.21359223 12 23.21359223 12 31 C12.66 31.33 13.32 31.66 14 32 C14.74551403 34.87943476 15.37380818 37.70904353 15.9375 40.625 C16.10862305 41.47642578 16.27974609 42.32785156 16.45605469 43.20507812 C16.80676268 44.95404647 17.15390993 46.70373246 17.49755859 48.45410156 C17.9611062 50.80292298 18.43955412 53.14797218 18.92578125 55.4921875 C21 65.56832902 21 65.56832902 21 69 C22.11375 69.103125 23.2275 69.20625 24.375 69.3125 C34.70713367 70.69851793 42.67348837 74.82577455 51.55859375 80.0390625 C54.83165407 82.05217164 54.83165407 82.05217164 58 83 C58 83.66 58 84.32 58 85 C58.66 85.20625 59.32 85.4125 60 85.625 C66.68207924 88.68761965 71.62449768 93.3458545 76.26171875 98.97265625 C78.04295161 101.10922274 78.04295161 101.10922274 80.375 103.328125 C83.28156014 106.286588 85.79757954 109.39761146 88.3125 112.6875 C88.76689453 113.26822266 89.22128906 113.84894531 89.68945312 114.44726562 C93 118.7534657 93 118.7534657 93 121 C93.66 121 94.32 121 95 121 C98 126.75 98 126.75 98 129 C98.66 129.33 99.32 129.66 100 130 C101.2956475 132.08337685 102.47830237 134.14817747 103.625 136.3125 C103.97401367 136.97040527 104.32302734 137.62831055 104.68261719 138.30615234 C111.21541929 150.95358704 116.04753377 164.34953127 120 178 C120.76506256 180.37061639 121.55492529 182.73102319 122.35546875 185.08984375 C122.90524008 186.71916606 123.42459365 188.35869967 123.9375 190 C124.80322493 192.44439979 125.77093837 194.66299796 126.875 197 C131.17808819 206.50869676 135.12121652 218.46056474 134 229 C133.319375 230.010625 132.63875 231.02125 131.9375 232.0625 C129.68397803 234.79386601 129.68397803 234.79386601 130.3125 237.6875 C130.539375 238.450625 130.76625 239.21375 131 240 C130.67 240.99 130.34 241.98 130 243 C130.66 243.33 131.32 243.66 132 244 C131.87625 245.155 131.7525 246.31 131.625 247.5 C131.60302455 254.46621834 134.65682746 260.73135636 137.23046875 267.08007812 C138.64147326 270.60042695 139.90872338 274.17226943 141.1875 277.7421875 C141.85131298 279.58682163 142.54624326 281.42023247 143.25 283.25 C144.15691404 286.57535146 144.13720766 289.56980848 144 293 C144.66 293.33 145.32 293.66 146 294 C146.08172936 296.5215021 146.14083373 299.04029917 146.1875 301.5625 C146.22520508 302.61920898 146.22520508 302.61920898 146.26367188 303.69726562 C146.34334002 309.45992787 145.44040154 314.26153415 141.46484375 318.72265625 C140.96082031 319.16480469 140.45679688 319.60695313 139.9375 320.0625 C136.05443845 324.29856715 136.06560618 328.9873014 135.48828125 334.515625 C134.92321008 338.54797287 133.66080648 341.7207754 132.015625 345.41015625 C130.37691591 349.58886444 129.53837404 353.92993751 128.61328125 358.3125 C128 361 128 361 127 363 C126.96235851 364.96323308 126.98731017 366.92782008 127.04296875 368.890625 C127.06423828 370.07527344 127.08550781 371.25992187 127.10742188 372.48046875 C127.16048141 374.97814951 127.22543855 377.47560802 127.30273438 379.97265625 C127.46617172 391.14692828 127.46617172 391.14692828 123 396 C122.54625 396.598125 122.0925 397.19625 121.625 397.8125 C119.24662926 399.55054016 116.87947295 399.68005856 114 400 C114 400.66 114 401.32 114 402 C113.05125 402.103125 112.1025 402.20625 111.125 402.3125 C108.19818663 402.72978824 105.50258885 403.41479402 102.6875 404.3125 C95.56172697 406.54825259 88.24430818 408.00573045 80.94775391 409.56689453 C78.0049808 410.22125395 75.17541978 410.9384492 72.328125 411.9375 C68.18336695 413.26070914 64.00978545 414.13299007 59.75 415 C58.90606689 415.17515137 58.06213379 415.35030273 57.19262695 415.53076172 C52.86325871 416.42643551 48.52897779 417.28984549 44.1875 418.125 C41.48990879 418.64665962 39.18598744 419.28120434 36.5625 420.1875 C34 421 34 421 31 420 C31 420.66 31 421.32 31 422 C29.96875 422.103125 28.9375 422.20625 27.875 422.3125 C17.96970774 423.55284524 8.22043594 426.14028179 -1.453125 428.546875 C-4 429 -4 429 -6 428 C-6 428.66 -6 429.32 -6 430 C-7.03125 430.103125 -8.0625 430.20625 -9.125 430.3125 C-14.34586319 430.9453319 -19.42046589 432.17646498 -24.53515625 433.37890625 C-28.09716118 434.01741672 -31.38930022 434.1057912 -35 434 C-35 434.66 -35 435.32 -35 436 C-35.60585937 436.04898437 -36.21171875 436.09796875 -36.8359375 436.1484375 C-42.17117262 436.62450463 -47.34103565 437.37525598 -52.578125 438.5 C-68.79702941 441.84841897 -79.93216196 440.59107527 -94 432 C-95.09054688 431.35675781 -96.18109375 430.71351563 -97.3046875 430.05078125 C-104.20721732 425.83053424 -104.20721732 425.83053424 -106.96875 422.9375 C-109.28150852 420.73148418 -111.26506682 419.84971222 -114.25 418.75 C-115.58804688 418.24726562 -115.58804688 418.24726562 -116.953125 417.734375 C-117.62859375 417.49203125 -118.3040625 417.2496875 -119 417 C-119 416.34 -119 415.68 -119 415 C-119.99 415 -120.98 415 -122 415 C-122 414.34 -122 413.68 -122 413 C-122.99 412.67 -123.98 412.34 -125 412 C-126.38671875 409.890625 -126.38671875 409.890625 -127.6875 407.25 C-128.34298828 405.95835937 -128.34298828 405.95835937 -129.01171875 404.640625 C-130.04127438 401.88971748 -130.19360389 399.90929095 -130 397 C-130.66 396.67 -131.32 396.34 -132 396 C-131.78601563 395.01 -131.57203125 394.02 -131.3515625 393 C-129.74291751 385.77943057 -129.74291751 385.77943057 -130.9921875 378.75 C-132.0269432 377.54904002 -133.09869843 376.37928048 -134.19921875 375.23828125 C-136.67343624 372.16295235 -137.91186631 368.85202923 -139.3125 365.1875 C-139.56644531 364.52814453 -139.82039063 363.86878906 -140.08203125 363.18945312 C-145.76290302 348.19997897 -147.52847544 332.8697265 -146 317 C-145.92652344 315.98808594 -145.85304688 314.97617187 -145.77734375 313.93359375 C-145.48149519 309.97998118 -145.20015663 306.56711044 -143.875 302.8125 C-142.90498204 299.69458513 -143.18569864 297.46151523 -143.7109375 294.2734375 C-144.15471006 290.78322626 -144.02098804 287.32030962 -143.9375 283.80859375 C-143.94542908 280.91565039 -143.94542908 280.91565039 -144.46875 277.74609375 C-145.08957543 273.36836149 -145.30963406 269.03866967 -145.5 264.625 C-145.9585684 254.0048942 -145.9585684 254.0048942 -147.5 243.5 C-148.58434495 238.07827525 -149.1784114 232.5307533 -149 227 C-149.66 226.67 -150.32 226.34 -151 226 C-151.75 224.0625 -151.75 224.0625 -152 222 C-151.01 221.01 -151.01 221.01 -150 220 C-149.20863159 218.17702906 -149.20863159 218.17702906 -148.5625 216.078125 C-148.17964844 214.91023438 -148.17964844 214.91023438 -147.7890625 213.71875 C-147.52867187 212.9040625 -147.26828125 212.089375 -147 211.25 C-146.73960937 210.45078125 -146.47921875 209.6515625 -146.2109375 208.828125 C-145.70059374 207.2610088 -145.19400005 205.69266575 -144.69140625 204.12304688 C-144.11665066 202.35819002 -143.5009219 200.6067403 -142.875 198.859375 C-141.14194059 193.19598444 -140.87254521 187.55953183 -140.8671875 181.66796875 C-140.86623077 180.99131668 -140.86527405 180.31466461 -140.86428833 179.61750793 C-140.86361231 178.19479275 -140.86542593 176.77207437 -140.86962891 175.34936523 C-140.87496015 173.20354051 -140.86967713 171.05792748 -140.86328125 168.91210938 C-140.26257491 155.51637736 -140.26257491 155.51637736 -144.0625 143.0625 C-146.76987323 138.25593159 -146.5303018 133.38125928 -146 128 C-145.67 127.01 -145.34 126.02 -145 125 C-144.9314505 123.10529184 -144.91519628 121.2083166 -144.9375 119.3125 C-144.94652344 118.31863281 -144.95554687 117.32476562 -144.96484375 116.30078125 C-144.97644531 115.54152344 -144.98804688 114.78226562 -145 114 C-144.34 114 -143.68 114 -143 114 C-143.17402344 113.46890625 -143.34804687 112.9378125 -143.52734375 112.390625 C-144.12121071 109.38693428 -143.86021606 106.79331972 -143.5625 103.75 C-143.40974609 102.13351563 -143.40974609 102.13351563 -143.25390625 100.484375 C-143.17011719 99.66453125 -143.08632812 98.8446875 -143 98 C-142.34 98 -141.68 98 -141 98 C-141.18304688 97.41476563 -141.36609375 96.82953125 -141.5546875 96.2265625 C-142.13443259 93.32783705 -141.32885949 91.10503737 -140.546875 88.3046875 C-139.58735033 84.26097638 -139.32205149 80.13581914 -139 76 C-138.34 76 -137.68 76 -137 76 C-136.96261719 75.27296875 -136.92523438 74.5459375 -136.88671875 73.796875 C-136.4477745 67.08360997 -135.40065218 60.88658832 -133.62109375 54.3984375 C-132.91643715 52.09023594 -132.91643715 52.09023594 -133 50 C-132.34 50 -131.68 50 -131 50 C-130.90332031 49.06285156 -130.80664062 48.12570313 -130.70703125 47.16015625 C-129.97572027 42.06915599 -128.31956896 37.2994916 -126.6875 32.4375 C-126.39166016 31.51775391 -126.09582031 30.59800781 -125.79101562 29.65039062 C-124.08976242 24.53928219 -122.3404601 20.24961625 -119 16 C-116.63283738 14.81641869 -114.83256783 14.70113524 -112.1953125 14.46484375 C-111.22489014 14.37726807 -110.25446777 14.28969238 -109.25463867 14.19946289 C-104.17148239 13.773983 -99.08719267 13.37401843 -94 13 C-92.73285156 12.89945313 -91.46570313 12.79890625 -90.16015625 12.6953125 C-81.48201005 12.30758981 -75.72875774 15.29482281 -68.8125 20.3125 C-65.29297488 23.67560178 -62.12628998 27.27250041 -59 31 C-58.97421875 30.3915625 -58.9484375 29.783125 -58.921875 29.15625 C-58.53186379 23.12880401 -57.58983701 17.31686398 -56.25 11.4375 C-56.10530273 10.73496094 -55.96060547 10.03242187 -55.81152344 9.30859375 C-55.07937263 6.27941223 -54.60541474 4.40515327 -51.95703125 2.6328125 C-47.79992354 1.74318047 -43.64670543 1.0323728 -39.4375 0.4375 C-38.09776123 0.24353638 -38.09776123 0.24353638 -36.73095703 0.0456543 C-9.44223993 -3.81707572 -9.44223993 -3.81707572 0 0 Z M-97 47 C-99.21052273 53.65213118 -101.25966398 60.00088279 -101.78515625 67.01171875 C-102 69 -102 69 -103.0625 72.6875 C-104.12765116 75.87726578 -104.12765116 75.87726578 -104 78.8125 C-104 81.57282623 -104.29458229 83.41782007 -104.93359375 86.05078125 C-106.58693203 94.05599757 -106.691463 102.23158658 -107.0625 110.375 C-107.17842293 112.83468701 -107.29655078 115.29421428 -107.41929626 117.75357056 C-107.49480797 119.27368995 -107.56626633 120.79401779 -107.6330719 122.31454468 C-107.97658061 129.36878382 -107.97658061 129.36878382 -109 132 C-109.50155609 132.42822556 -110.00311218 132.85645111 -110.51986694 133.2976532 C-112.50842989 135.58476094 -112.36326497 136.92793541 -112.34057617 139.93041992 C-112.34034958 140.93123093 -112.34012299 141.93204193 -112.33988953 142.96318054 C-112.32440567 144.04138565 -112.30892181 145.11959076 -112.29296875 146.23046875 C-112.28872391 147.33602615 -112.28447906 148.44158356 -112.28010559 149.5806427 C-112.26329437 153.11650812 -112.22563685 156.65180645 -112.1875 160.1875 C-112.17245636 162.58267407 -112.1587674 164.97785706 -112.14648438 167.37304688 C-112.11338285 173.24889185 -112.06315893 179.12440542 -112 185 C-109.74068906 182.74068906 -109.4417458 181.5363726 -108.625 178.5 C-105.97545552 169.33152677 -102.20870036 161.27910706 -97.48828125 152.98046875 C-94.37584229 146.7474217 -94.72296316 140.1373501 -94.5703125 133.30078125 C-94.22008494 124.18027182 -91.11661396 116.72727802 -87 108.6875 C-86.65710938 107.99849609 -86.31421875 107.30949219 -85.9609375 106.59960938 C-84.53683317 103.78129604 -83.1706735 101.223628 -81.25 98.70703125 C-79.70459838 96.94921943 -79.70459838 96.94921943 -80 94 C-79.401875 93.71125 -78.80375 93.4225 -78.1875 93.125 C-75.80672208 91.95257974 -75.80672208 91.95257974 -73 90 C-74.15773087 85.45813273 -75.60376004 81.98777248 -78 78 C-78.80276175 76.13844618 -79.5723271 74.26231373 -80.3125 72.375 C-82.77637401 66.32048033 -85.75371423 60.66705558 -89 55 C-89.66 55 -90.32 55 -91 55 C-91.103125 54.4225 -91.20625 53.845 -91.3125 53.25 C-92.10896465 50.64338842 -93.19065277 49.0264689 -95 47 C-95.66 47 -96.32 47 -97 47 Z M-114 191 C-114.2475 191.78375 -114.495 192.5675 -114.75 193.375 C-116.23645209 196.4965494 -117.01823602 196.53088271 -120 198 C-125.02429207 202.49541922 -127.87790271 207.31098987 -130.08203125 213.625 C-130.95791315 215.89111146 -131.99386215 217.58026894 -133.375 219.5625 C-135.59909246 224.26731098 -134.60162935 227.22288587 -133 232 C-129.03627616 243.89117153 -125.95531428 261.86594284 -130 274 C-130.31063078 276.03886751 -130.59957796 278.08107854 -130.875 280.125 C-131.47013022 284.19172318 -132.18361942 287.9017858 -133.625 291.75 C-138.25935612 304.68855769 -132.17932736 319.64223149 -128.0625 332 C-127.70220703 333.093125 -127.34191406 334.18625 -126.97070312 335.3125 C-126.44573242 336.8903125 -126.44573242 336.8903125 -125.91015625 338.5 C-125.59183838 339.4590625 -125.27352051 340.418125 -124.94555664 341.40625 C-124.10482406 343.71245784 -123.15095087 345.83530616 -122 348 C-121.34 348 -120.68 348 -120 348 C-119.76159166 345.85432498 -119.52379009 343.7085808 -119.2890625 341.5625 C-119.1079523 339.95698255 -118.91681801 338.35252938 -118.7109375 336.75 C-118.10678518 331.91678141 -117.93516641 327.22988481 -118.0625 322.359375 C-118 320 -118 320 -117.5078125 317.8203125 C-116.74695774 313.59464222 -116.85618172 309.40929428 -116.875 305.125 C-116.87113281 304.25230469 -116.86726563 303.37960937 -116.86328125 302.48046875 C-116.87070168 297.54588482 -117.24312439 292.88580152 -118 288 C-118.27746596 284.5702831 -118.43412521 281.1336556 -118.60546875 277.69726562 C-118.79362975 273.85905366 -118.79362975 273.85905366 -119.50488281 270.0949707 C-123.0908202 254.92192892 -119.6766164 236.56971064 -117.65625 221.359375 C-117.14910889 217.53211084 -116.944699 213.86492526 -117 210 C-116.38290413 207.98415349 -115.71706982 205.98248715 -115 204 C-113.98471491 199.71324073 -113.51844408 195.36974297 -113 191 C-113.33 191 -113.66 191 -114 191 Z M-121 349 C-120 351 -120 351 -120 351 Z " fill="#040503" transform="translate(253,31)"/>
<path d="M0 0 C0.74741959 -0.00807175 1.49483917 -0.01614349 2.26490784 -0.02445984 C3.8405635 -0.0382004 5.41624768 -0.0489667 6.99194336 -0.05688477 C8.56723063 -0.06832441 10.14248164 -0.08864689 11.7175293 -0.1184082 C26.43302146 -0.39518377 39.94878431 1.80669425 53.69140625 7.30078125 C54.3359375 7.54376953 54.98046875 7.78675781 55.64453125 8.03710938 C63.09698545 10.91577252 63.09698545 10.91577252 65.94140625 13.23828125 C66.8671875 16.34765625 66.8671875 16.34765625 67.25390625 19.98828125 C67.39441406 21.179375 67.53492188 22.37046875 67.6796875 23.59765625 C67.93574207 27.15948995 67.99174692 30.66867023 67.94140625 34.23828125 C67.42868164 33.9865918 66.91595703 33.73490234 66.38769531 33.47558594 C47.55631594 24.27494335 31.33139119 18.83040164 10.12890625 18.92578125 C9.46577423 18.92826874 8.80264221 18.93075623 8.11941528 18.93331909 C-1.67713901 18.99014793 -10.6432896 19.36701932 -20.05859375 22.23828125 C-20.85523438 22.47466309 -21.651875 22.71104492 -22.47265625 22.95458984 C-37.67811081 27.52127227 -51.87989305 32.74513172 -64.05859375 43.23828125 C-64.70957031 43.74617188 -65.36054688 44.2540625 -66.03125 44.77734375 C-86.22654623 61.07811963 -97.03922629 88.42145283 -101.05859375 113.23828125 C-98.41859375 113.23828125 -95.77859375 113.23828125 -93.05859375 113.23828125 C-92.72859375 116.20828125 -92.39859375 119.17828125 -92.05859375 122.23828125 C-88.09859375 121.24828125 -84.13859375 120.25828125 -80.05859375 119.23828125 C-80.92484375 117.91828125 -81.79109375 116.59828125 -82.68359375 115.23828125 C-83.22242188 114.41328125 -83.76125 113.58828125 -84.31640625 112.73828125 C-85.98531546 110.24574048 -85.98531546 110.24574048 -87.86328125 108.17578125 C-88.42273438 107.53640625 -88.9821875 106.89703125 -89.55859375 106.23828125 C-90.08453125 105.68140625 -90.61046875 105.12453125 -91.15234375 104.55078125 C-93.3648767 98.90500751 -89.72816769 91.91794154 -87.44555664 86.65625 C-87.11160889 85.92019531 -86.77766113 85.18414062 -86.43359375 84.42578125 C-85.90463501 83.25402344 -85.90463501 83.25402344 -85.36499023 82.05859375 C-80.25973396 71.04765682 -73.4403384 62.00641838 -65.05859375 53.23828125 C-64.4346875 52.53960937 -63.81078125 51.8409375 -63.16796875 51.12109375 C-47.35680319 34.04769229 -19.92205297 26.13301613 2.75439453 25.11157227 C26.94870695 24.47100216 50.71140138 28.20794441 69.94140625 44.23828125 C73.8881521 48.32312687 75.39833831 52.62139118 77.06640625 57.92578125 C77.32502441 58.73015625 77.58364258 59.53453125 77.85009766 60.36328125 C84.25956251 80.67017183 84.25956251 80.67017183 80.81640625 90.42578125 C78.94140625 93.23828125 78.94140625 93.23828125 77.44140625 94.734375 C73.95575059 98.22840964 72.63866149 100.37024507 72.50390625 105.36328125 C72.16191687 116.57768309 67.21281665 127.95684616 62.94140625 138.23828125 C62.16023437 138.30144531 61.3790625 138.36460937 60.57421875 138.4296875 C52.24312331 139.31103947 44.43849332 141.08767 36.37890625 143.36328125 C9.79646212 150.78956922 -17.34113787 155.78197414 -44.63574219 159.73950195 C-52.56773266 160.89535477 -60.48579918 162.1374564 -68.39648438 163.43041992 C-82.40528301 165.69892414 -95.87730016 166.37054202 -110.05859375 166.23828125 C-112.56060957 155.2832794 -112.32539828 144.40983459 -112.24609375 133.23828125 C-112.23922896 131.26367308 -112.23272151 129.28906363 -112.2265625 127.31445312 C-112.16822017 114.26991395 -111.8299657 101.25622788 -111.2890625 88.22265625 C-111.05508566 82.47773883 -110.91403251 76.73778108 -110.87109375 70.98828125 C-110.85820312 70.20775391 -110.8453125 69.42722656 -110.83203125 68.62304688 C-110.82423133 64.20439374 -111.40444978 60.38229034 -112.57592773 56.12695312 C-113.8412333 51.17581307 -113.96016754 46.25287414 -113.05859375 41.23828125 C-111.0580335 38.12921384 -108.29967412 36.89493375 -105.05859375 35.23828125 C-103.39183594 34.26568359 -103.39183594 34.26568359 -101.69140625 33.2734375 C-77.67148017 19.52310117 -50.39478881 10.75215561 -23.87109375 3.23828125 C-23.18329834 3.04250488 -22.49550293 2.84672852 -21.78686523 2.64501953 C-14.57537796 0.68732051 -7.44288148 0.07935511 0 0 Z " fill="#ED8F00" transform="translate(309.05859375,251.76171875)"/>
<path d="M0 0 C3.55847896 3.14989526 6.82588126 6.46586779 10 10 C10.85271484 10.93779297 10.85271484 10.93779297 11.72265625 11.89453125 C15 15.64658774 15 15.64658774 15 18 C13.72382813 17.71253906 12.44765625 17.42507812 11.1328125 17.12890625 C-2.52599904 14.09984195 -15.98446379 11.43058483 -30 11 C-30.13535156 10.443125 -30.27070313 9.88625 -30.41015625 9.3125 C-32.20027563 2.96668759 -34.90072611 -1.73201926 -40 -6 C-42.0336644 -6.97631327 -43.9972219 -7.65022117 -46.16015625 -8.28125 C-48 -9 -48 -9 -50.5625 -11.6875 C-52.88771605 -14.34324577 -52.88771605 -14.34324577 -56.625 -14.5 C-59.86004788 -14.19968778 -59.86004788 -14.19968778 -62 -13 C-63.67584116 -9.64831768 -63.11992342 -6.43581444 -62 -3 C-60.00979883 -0.34115399 -60.00979883 -0.34115399 -57 1 C-54.66700175 1.03954234 -52.33291811 1.04401732 -50 1 C-47.79086 4.31371 -47.77518447 5.3446021 -47.875 9.1875 C-47.89304687 10.08855469 -47.91109375 10.98960937 -47.9296875 11.91796875 C-47.95289063 12.60503906 -47.97609375 13.29210937 -48 14 C-49.21171875 14.268125 -50.4234375 14.53625 -51.671875 14.8125 C-72.21963154 19.53867048 -90.16780885 27.73548054 -108.63842773 37.79833984 C-111.04544221 39.02312277 -113.47876597 40.03539775 -116 41 C-115.01 42.98 -114.02 44.96 -113 47 C-110.525 46.505 -110.525 46.505 -108 46 C-107.49564306 47.9363704 -106.99666126 49.87414146 -106.5 51.8125 C-106.08234375 53.43091797 -106.08234375 53.43091797 -105.65625 55.08203125 C-105 58 -105 58 -105 61 C-101.37 59.68 -97.74 58.36 -94 57 C-96.71683272 52.06945173 -99.66657898 47.53715638 -103 43 C-98.50786209 38.95614196 -93.48402044 36.59952447 -88.0625 34.0625 C-86.65460205 33.40109009 -86.65460205 33.40109009 -85.21826172 32.72631836 C-73.05773627 27.08818072 -61.20643909 23.27505884 -48 21 C-46.68253472 25.77581163 -45.53516639 30.00303874 -46 35 C-46.66 35.99 -47.32 36.98 -48 38 C-48.54712108 43.54947609 -48.54712108 43.54947609 -46.5625 48.5625 C-43.16890326 50.466225 -40.85064517 50.2953081 -37.06640625 49.671875 C-34.76896226 49.10259531 -34.76896226 49.10259531 -32.875 46.8125 C-31.81375256 43.40134751 -32.03334546 41.42046992 -33 38 C-35.01461763 34.31297122 -35.01461763 34.31297122 -41 33 C-41.33 28.71 -41.66 24.42 -42 20 C-38.67481078 18.33740539 -35.52949415 17.96345711 -32 19 C-28.41715221 22.73930402 -26.26307731 27.38924436 -24 32 C-24.66 32.99 -25.32 33.98 -26 35 C-26.5582086 39.94413333 -26.77750793 41.90234175 -23.875 46 C-21.15610238 48.18293783 -21.15610238 48.18293783 -18 48.5625 C-14.34092496 47.87642343 -12.64832324 46.57265686 -10 44 C-8.55569145 41.11138291 -8.62311494 39.20352299 -9 36 C-11.27103194 33.14498842 -12.96910213 31.3618055 -16.4375 30.14453125 C-19.55748735 28.75100031 -20.79875011 27.17075965 -22.8125 24.4375 C-23.41707031 23.63183594 -24.02164063 22.82617188 -24.64453125 21.99609375 C-26 20 -26 20 -26 19 C-9.24591913 18.11040279 11.78635005 20.67401433 25 32 C29.59783597 38.01199687 32.92885237 44.55090742 36 51.4375 C36.42933838 52.39253418 36.85867676 53.34756836 37.30102539 54.33154297 C42.48631278 66.08069538 46.36978166 77.98427131 49.29296875 90.48046875 C50.14558711 93.51880491 51.45160886 96.04763041 52.95703125 98.8046875 C55.24986102 103.63079361 56.5202764 108.87989443 58 114 C58.22945312 114.71929687 58.45890625 115.43859375 58.6953125 116.1796875 C59.8625064 119.87854141 60.18886268 123.12831513 60 127 C55.67997277 128.27797539 53.4794732 127.68775559 49.4375 125.8125 C24.39583051 114.81488116 -7.42611069 110.65230549 -33.7578125 119.9765625 C-36.54162363 120.8553077 -39.02115272 121.34081937 -41.890625 121.78125 C-49.4807906 123.10350707 -56.55760569 125.82428014 -63.75 128.5 C-64.47243896 128.76600006 -65.19487793 129.03200012 -65.93920898 129.30606079 C-83.83636875 135.90111386 -101.26364434 143.17918333 -117.9921875 152.3828125 C-121 154 -121 154 -122 154 C-125.51928711 122.32641602 -125.51928711 122.32641602 -125.75627136 120.13931274 C-125.91305105 118.76318891 -126.08465141 117.38863024 -126.27461243 116.01669312 C-127.28129627 108.36557885 -127.20328753 100.67196151 -127.23828125 92.96875 C-127.24235678 92.20387772 -127.2464323 91.43900543 -127.25063133 90.6509552 C-127.27138917 86.59836103 -127.28573219 82.54579964 -127.29516602 78.49316406 C-127.30618084 74.35947265 -127.34055303 70.22632681 -127.38033772 66.09282684 C-127.40678978 62.86839975 -127.41488301 59.6440969 -127.41844749 56.41957092 C-127.42324376 54.89848669 -127.43465159 53.37740525 -127.45348549 51.85643005 C-127.6814976 32.21544493 -123.60593253 13.89320888 -109.55859375 -0.72265625 C-79.1392653 -27.79818066 -30.87729395 -23.81047354 0 0 Z " fill="#7CBFA3" transform="translate(319,131)"/>
<path d="M0 0 C0.66 0.33 1.32 0.66 2 1 C1.38125 1.53173828 1.38125 1.53173828 0.75 2.07421875 C-6.81310856 9.04645945 -12.9618134 18.20469316 -15.35604858 28.28948975 C-15.78978258 30.11515612 -16.25801596 31.93292838 -16.75820923 33.74151611 C-19.13638211 42.82358066 -19.44076361 51.49257954 -19.3984375 60.796875 C-19.40046755 62.39992403 -19.40338663 64.00297214 -19.40713501 65.60601807 C-19.41153002 68.95439508 -19.40522968 72.3025303 -19.39111328 75.65087891 C-19.37418694 79.86302015 -19.38404045 84.07458552 -19.4014616 88.28670597 C-19.45694337 104.17981291 -19.29992304 119.79355083 -17.09336853 135.56425476 C-15.7219428 145.3983541 -15.511296 155.14604215 -15.4375 165.0625 C-15.41346273 167.66556618 -15.38522871 170.26832093 -15.34571838 172.87120056 C-15.32190908 174.45943701 -15.30660971 176.0478372 -15.30210876 177.63624573 C-15.23004962 182.72615732 -14.31782407 187.0843481 -13 192 C-12.77102788 194.73922942 -12.76133544 197.44028299 -12.8125 200.1875 C-12.81894531 200.91638428 -12.82539063 201.64526855 -12.83203125 202.39624023 C-12.92364843 208.95331065 -13.36437641 215.47350775 -14 222 C-26.43972003 228.18844658 -39.23468086 230.19994174 -53 230.0625 C-53.87011719 230.05798828 -54.74023438 230.05347656 -55.63671875 230.04882812 C-57.75784293 230.0371736 -59.8789311 230.01924357 -62 230 C-62.61916858 195.09794343 -62.61916858 195.09794343 -59 182 C-56.27893306 184.72106694 -56.39344428 186.84776311 -55.875 190.625 C-55.70742187 191.81351563 -55.53984375 193.00203125 -55.3671875 194.2265625 C-55.24601563 195.14179688 -55.12484375 196.05703125 -55 197 C-49.555 195.02 -49.555 195.02 -44 193 C-46.95485849 187.45964033 -50.47502937 182.77604181 -54.48828125 177.94140625 C-56.51033741 174.0070179 -55.85235948 171.15119634 -55 167 C-54.74114526 165.40965171 -54.48755836 163.81844012 -54.23828125 162.2265625 C-53.92988013 160.35934317 -53.62127099 158.4921582 -53.3125 156.625 C-51.51746406 145.63379173 -49.93829361 134.61854295 -48.39047241 123.59039307 C-46.37963189 109.2849011 -44.37120821 95.00566401 -41.54931641 80.83300781 C-40.88814992 77.42315186 -40.28007522 74.00493389 -39.66796875 70.5859375 C-37.19771837 57.01687522 -34.72648093 44.15611914 -28 32 C-27.3709375 30.84886719 -26.741875 29.69773438 -26.09375 28.51171875 C-19.54947944 17.25401522 -10.88717624 7.25811749 0 0 Z " fill="#7CBEA2" transform="translate(205,123)"/>
<path d="M0 0 C2.19055361 6.99563895 2.05078908 16.70369905 0 23.75 C-2.65590971 28.06585328 -5.32171142 28.83042786 -10 30 C-10.9796875 30.29132813 -11.959375 30.58265625 -12.96875 30.8828125 C-15.96894752 31.77305803 -18.97751517 32.62237144 -21.99560547 33.44970703 C-23.32372989 33.81433461 -24.65089995 34.18245775 -25.97705078 34.55419922 C-38.12680465 37.95238381 -50.40635058 40.69125056 -62.73974609 43.32543945 C-70.10102059 44.90272299 -77.42896807 46.57264015 -84.74609375 48.34375 C-96.61783126 51.20439312 -108.55736799 53.72740786 -120.5090332 56.22949219 C-124.16633412 56.9955665 -127.8224758 57.76699479 -131.47851562 58.5390625 C-143.46619312 61.06280526 -155.4651909 63.5253268 -167.48828125 65.875 C-168.57521774 66.090354 -169.66215424 66.30570801 -170.7820282 66.52758789 C-171.7902211 66.72215576 -172.798414 66.91672363 -173.8371582 67.1171875 C-174.71684769 67.28847168 -175.59653717 67.45975586 -176.50288391 67.63623047 C-179.03859818 68.00562282 -181.44136571 68.06483865 -184 68 C-183.01101978 65.51871926 -182.01663235 63.04041141 -181 60.5703125 C-180.67 59.76335937 -180.34 58.95640625 -180 58.125 C-179.67 57.32320313 -179.34 56.52140625 -179 55.6953125 C-176.70935779 49.52131592 -175.55546045 43.57149465 -174.875 37.0625 C-174.78863281 36.28326172 -174.70226562 35.50402344 -174.61328125 34.70117188 C-174.40348677 32.8013663 -174.20098006 30.90075826 -174 29 C-173.39043457 28.96559814 -172.78086914 28.93119629 -172.15283203 28.89575195 C-154.57388041 27.84919262 -137.34599531 25.61208935 -119.96333313 22.90318298 C-115.40758181 22.19841535 -110.84571723 21.57487465 -106.2734375 20.984375 C-99.57696146 20.1055147 -92.94880053 19.00049409 -86.3125 17.75 C-85.17111572 17.53674072 -84.02973145 17.32348145 -82.85375977 17.10375977 C-70.89367569 14.83896921 -58.9966063 12.29306475 -47.10839844 9.68017578 C-44.30607951 9.06697593 -41.50153746 8.46610838 -38.6953125 7.87109375 C-30.93651121 6.21149957 -23.3372974 4.33553128 -15.796875 1.83203125 C-10.48174228 0.2508535 -5.53079969 -0.11061599 0 0 Z " fill="#7CBDA2" transform="translate(372,395)"/>
<path d="M0 0 C0.06989976 10.05848561 0.12301243 20.11691223 0.15543652 30.17559242 C0.17100836 34.84761843 0.19208913 39.51947672 0.22631836 44.19140625 C0.25921755 48.71073399 0.27691656 53.22990169 0.28463173 57.74934006 C0.29012096 59.46268605 0.30083782 61.17602455 0.31719017 62.8893013 C0.47289065 79.89850314 -1.36527566 95.11577656 -12 109 C-20.90241909 108.60433693 -28.09041802 103.74298347 -34.75 98.125 C-39.41216211 94.2048862 -44.35963793 91.49969759 -49.82324219 88.87744141 C-54.92780545 86.34664137 -57.69115411 83.61769178 -60.2265625 78.546875 C-62.49468091 71.07812144 -61.53043349 63.72163995 -58.0703125 56.83984375 C-57.10961767 55.18843037 -56.05976786 53.58965179 -55 52 C-51.97581768 42.28254267 -51.14992748 32.26739246 -50.3125 22.1875 C-50.1824793 20.70500433 -50.05162442 19.22258158 -49.91992188 17.74023438 C-49.60369856 14.160942 -49.29864069 10.58080751 -49 7 C-48.30551758 6.98541748 -47.61103516 6.97083496 -46.89550781 6.95581055 C-43.67984235 6.88030164 -40.46510173 6.78398946 -37.25 6.6875 C-36.15816406 6.66494141 -35.06632812 6.64238281 -33.94140625 6.61914062 C-23.70025554 6.28584874 -14.44167505 4.03747977 -4.83984375 0.55078125 C-3 0 -3 0 0 0 Z " fill="#7CBFA3" transform="translate(191,353)"/>
<path d="M0 0 C5.57425454 0.13935636 8.36137776 2.59922885 12.36328125 6.11328125 C14.19457859 8.22429942 14.63785795 9.25524702 15 12 C14.31274414 14.23754883 14.31274414 14.23754883 13.22265625 16.64453125 C5.48587253 34.82780164 3.43295708 55.75862204 2.515625 75.3203125 C2.45685432 76.53831795 2.45685432 76.53831795 2.39689636 77.78092957 C2.20401375 81.85881392 2.03688764 85.93541104 1.90942383 90.01586914 C1.84761844 91.52492086 1.78538201 93.03395501 1.72265625 94.54296875 C1.70910095 95.23677643 1.69554565 95.93058411 1.68157959 96.64541626 C1.45139295 101.57861241 1.45139295 101.57861241 -1.00970459 103.87611389 C-3.51638096 106.55104098 -3.48161638 107.76353846 -3.43481445 111.37597656 C-3.43193924 112.45099426 -3.42906403 113.52601196 -3.42610168 114.63360596 C-3.40537094 115.79092224 -3.3846402 116.94823853 -3.36328125 118.140625 C-3.36314679 120.59765633 -3.36382335 123.05468782 -3.36523438 125.51171875 C-3.34437555 129.38066186 -3.31251277 133.24897294 -3.2644043 137.11767578 C-3.22550799 140.85506197 -3.22954546 144.59058916 -3.23828125 148.328125 C-3.21147781 149.47734436 -3.18467438 150.62656372 -3.15705872 151.81060791 C-3.19172815 157.54011005 -3.51958451 161.16692064 -7.33276367 165.60449219 C-8.52015634 166.77301374 -9.74197195 167.90788765 -11 169 C-11.88495903 169.78567352 -11.88495903 169.78567352 -12.78779602 170.58721924 C-14.16034517 171.76264892 -15.57545294 172.88815839 -17 174 C-18.0017292 171.32872214 -17.95456279 169.69033969 -17.53515625 166.83203125 C-16.71256648 160.69290658 -16.8512078 154.5105541 -16.86962891 148.32885742 C-16.8749614 146.2028888 -16.86967364 144.07713385 -16.86328125 141.95117188 C-16.29308208 127.34224058 -16.29308208 127.34224058 -21 114 C-24.54483696 88.14192571 -16.73084735 58.40275981 -10.4375 33.4375 C-10.2542215 32.70949188 -10.07094299 31.98148376 -9.8821106 31.23141479 C-3.93077385 7.8615477 -3.93077385 7.8615477 0 0 Z " fill="#7CBEA3" transform="translate(137,57)"/>
<path d="M0 0 C7.88839468 13.76273115 11.47072458 29.00120886 14.875 44.375 C15.19803101 45.82773315 15.19803101 45.82773315 15.52758789 47.30981445 C15.72215576 48.22593506 15.91672363 49.14205566 16.1171875 50.0859375 C16.28847168 50.8907959 16.45975586 51.6956543 16.63623047 52.52490234 C17 55 17 55 17 61 C4.46 61 -8.08 61 -21 61 C-21.886875 56.895625 -22.77375 52.79125 -23.6875 48.5625 C-28.58846425 25.23709418 -28.58846425 25.23709418 -39 4 C-27.06407256 -1.31975792 -12.79221236 -0.24785772 0 0 Z " fill="#7CBEA3" transform="translate(248,37)"/>
<path d="M0 0 C6.86456887 -0.32642705 10.90779858 0.81886258 16.16796875 5.2421875 C17.13476562 6.04462891 17.13476562 6.04462891 18.12109375 6.86328125 C26.89640595 14.89580127 32.53059922 25.81761552 38.10546875 36.1796875 C38.4830835 36.87698975 38.86069824 37.57429199 39.24975586 38.29272461 C41.48032669 42.54174584 43.00785768 46.5835216 44.16796875 51.2421875 C43.22695312 51.77328125 42.2859375 52.304375 41.31640625 52.8515625 C40.05852703 53.56498654 38.80071828 54.27853485 37.54296875 54.9921875 C36.92550781 55.34023437 36.30804688 55.68828125 35.671875 56.046875 C31.71970609 58.29337101 27.92205087 60.67786064 24.16796875 63.2421875 C23.75546875 62.26121094 23.34296875 61.28023437 22.91796875 60.26953125 C16.94263161 46.22880512 10.12538406 33.25336588 1.46484375 20.6796875 C-4.83203125 11.42020183 -4.83203125 11.42020183 -4.83203125 8.2421875 C-5.40953125 8.0153125 -5.98703125 7.7884375 -6.58203125 7.5546875 C-9.39839735 5.91180727 -10.91280239 3.84685523 -12.83203125 1.2421875 C-8.56252239 0.72354868 -4.28466143 0.36641243 0 0 Z " fill="#7CBEA2" transform="translate(161.83203125,51.7578125)"/>
<path d="M0 0 C1.12039459 3.36118378 0.85888635 4.56118485 0.109375 7.953125 C-0.10412598 8.9531958 -0.31762695 9.9532666 -0.53759766 10.98364258 C-0.89023682 12.6004895 -0.89023682 12.6004895 -1.25 14.25 C-3.61753857 25.5500609 -5.26486394 36.81429262 -6.65283203 48.26855469 C-7.31899884 53.50981644 -8.14162688 58.72751988 -8.95239258 63.94799805 C-9.70261779 68.83299278 -10.29872836 73.70820543 -10.8125 78.625 C-12.19212213 90.26181277 -15.2329965 101.6300364 -18 113 C-18.33 113 -18.66 113 -19 113 C-19.42544146 70.49512533 -19.42544146 70.49512533 -17 55 C-16.82259277 53.78497803 -16.82259277 53.78497803 -16.64160156 52.54541016 C-13.90187925 34.2910517 -8.67914598 16.33551198 0 0 Z " fill="#78B89E" transform="translate(160,190)"/>
<path d="M0 0 C-2.73741124 2.73741124 -4.87332024 2.67353669 -8.6875 3.3125 C-10.13455306 3.57046905 -11.58114251 3.83104758 -13.02734375 4.09375 C-14.21432861 4.30837891 -14.21432861 4.30837891 -15.42529297 4.52734375 C-40.17008094 9.06991055 -59.0026747 15.37696674 -74.09375 37 C-79.18124032 44.98344635 -83.17506931 53.35804723 -87 62 C-87.33 62 -87.66 62 -88 62 C-88.50345334 50.46499546 -83.55496899 39.30665383 -77 30 C-76.60039062 29.42894531 -76.20078125 28.85789063 -75.7890625 28.26953125 C-72.98821886 24.61339643 -69.61008357 22.09314877 -65.91015625 19.4375 C-63.79914139 17.91855697 -63.79914139 17.91855697 -61.4375 15.4375 C-45.7892867 -0.2107133 -20.76488128 -0.62782956 0 0 Z " fill="#74B298" transform="translate(254,104)"/>
<path d="M0 0 C0.33 0 0.66 0 1 0 C1.24234375 1.01578125 1.4846875 2.0315625 1.734375 3.078125 C5.32674145 18.01274534 5.32674145 18.01274534 11.03125 32.23828125 C11.39508789 32.98408447 11.75892578 33.7298877 12.13378906 34.49829102 C12.85906705 35.96137914 13.59983712 37.41692516 14.35839844 38.86303711 C16.86074172 43.85411111 17.49516392 47.41172152 17 53 C15.5 56.5 15.5 56.5 14 59 C9.3467283 57.15643685 8.28904582 54.3630047 6.234375 50 C2.51892106 40.97003599 -0.14076687 31.95407933 -0.09765625 22.16796875 C-0.09443359 20.87568359 -0.09121094 19.58339844 -0.08789062 18.25195312 C-0.07953665 16.89713474 -0.07107172 15.54231703 -0.0625 14.1875 C-0.05748 12.81315265 -0.05291797 11.43880355 -0.04882812 10.06445312 C-0.03705668 6.70959076 -0.02061283 3.35481779 0 0 Z " fill="#4F7FB2" transform="translate(114,346)"/>
<path d="M0 0 C2.45765318 2.45765318 2.76586877 4.18435159 3.65625 7.53125 C3.95660156 8.65273437 4.25695312 9.77421875 4.56640625 10.9296875 C5.02853516 12.69699219 5.02853516 12.69699219 5.5 14.5 C5.80808594 15.64726563 6.11617187 16.79453125 6.43359375 17.9765625 C11 35.18387876 11 35.18387876 11 42 C8.69 42.66 6.38 43.32 4 44 C-0.64819756 35.21348369 -4.28038033 28.16301891 -3 18 C-2.85311681 16.61208987 -2.70736921 15.22405929 -2.5625 13.8359375 C-1.31949951 2.63899902 -1.31949951 2.63899902 0 0 Z " fill="#78B99E" transform="translate(209,57)"/>
<path d="M0 0 C1.86328125 0.62109375 1.86328125 0.62109375 4 2 C5.23046875 4.72265625 5.23046875 4.72265625 6.1875 8.0625 C6.51105469 9.14660156 6.83460937 10.23070312 7.16796875 11.34765625 C8.97788787 19.29260639 9.19288036 27.18748107 9.1875 35.3125 C9.1884668 36.82565796 9.1884668 36.82565796 9.18945312 38.36938477 C9.13933698 45.43519122 8.66003508 52.10789005 7 59 C6.67 59 6.34 59 6 59 C5.92483154 57.99437012 5.84966309 56.98874023 5.7722168 55.95263672 C4.36187552 37.22278134 2.91241776 18.56924515 0 0 Z " fill="#4A77A6" transform="translate(109,255)"/>
<path d="M0 0 C4.43936951 1.35647402 6.4156882 3.16808939 9 7 C10.42143792 9.98501964 11 11.67730616 11 15 C8.69 15 6.38 15 4 15 C3.79503906 14.16855469 3.59007812 13.33710938 3.37890625 12.48046875 C3.10949219 11.39378906 2.84007812 10.30710938 2.5625 9.1875 C2.29566406 8.10855469 2.02882813 7.02960938 1.75390625 5.91796875 C1.23922588 3.9259157 0.65062825 1.95188476 0 0 Z " fill="#76B59B" transform="translate(273,128)"/>
<path d="M0 0 C4.70588235 0.70588235 4.70588235 0.70588235 6 2 C6.125 4.5 6.125 4.5 6 7 C5 8 5 8 2.5625 8.1875 C0 8 0 8 -2 6 C-1.44444444 1.44444444 -1.44444444 1.44444444 0 0 Z " fill="#EAA000" transform="translate(299,166)"/>
<path d="M0 0 C3 0.3125 3 0.3125 6 1 C6.33 1.66 6.66 2.32 7 3 C6.34 3 5.68 3 5 3 C5 5.31 5 7.62 5 10 C2.13275314 9.42655063 1.1385485 9.1385485 -1 7 C-1.1875 3.9375 -1.1875 3.9375 -1 1 C-0.67 0.67 -0.34 0.34 0 0 Z " fill="#6FAB92" transform="translate(260,119)"/>
<path d="M0 0 C1.65 0 3.3 0 5 0 C4.47557578 3.7758544 3.67345333 6.22372155 1 9 C0.01 9 -0.98 9 -2 9 C-1.125 2.25 -1.125 2.25 0 0 Z " fill="#4D7BAC" transform="translate(113,241)"/>
<path d="M0 0 C-1.47721422 3.45201639 -3.43794001 5.64961936 -6.125 8.25 C-6.84945312 8.95640625 -7.57390625 9.6628125 -8.3203125 10.390625 C-8.87460938 10.92171875 -9.42890625 11.4528125 -10 12 C-10 8.07290865 -8.72099538 7.1810287 -6.125 4.3125 C-5.04605469 3.10013672 -5.04605469 3.10013672 -3.9453125 1.86328125 C-2 0 -2 0 0 0 Z " fill="#131D19" transform="translate(210,121)"/>
<path d="M0 0 C0.5625 1.9375 0.5625 1.9375 1 4 C0 5 0 5 -2.5625 5.0625 C-3.7690625 5.0315625 -3.7690625 5.0315625 -5 5 C-5.33 4.01 -5.66 3.02 -6 2 C-4.02 1.34 -2.04 0.68 0 0 Z " fill="#DF9500" transform="translate(281,171)"/>
<path d="M0 0 C2.66735273 2.48952921 4.55746343 4.63408134 6 8 C4.68 8.33 3.36 8.66 2 9 C1.34 6.03 0.68 3.06 0 0 Z " fill="#BC7100" transform="translate(218,361)"/>
<path d="M0 0 C2.5 2.3125 2.5 2.3125 5 5 C5 5.99 5 6.98 5 8 C3.68 7.67 2.36 7.34 1 7 C0.67 4.69 0.34 2.38 0 0 Z " fill="#669C86" transform="translate(151,307)"/>
<path d="M0 0 C2.5 2.3125 2.5 2.3125 5 5 C5 5.99 5 6.98 5 8 C3.68 7.67 2.36 7.34 1 7 C0.67 4.69 0.34 2.38 0 0 Z " fill="#669C86" transform="translate(215,179)"/>
<path d="M0 0 C2.64465038 3.1254959 3.84414715 6.08788267 5 10 C4.01 9.67 3.02 9.34 2 9 C0.68964993 5.82757352 0 3.44118336 0 0 Z " fill="#355448" transform="translate(173,103)"/>
</svg>
