<?xml version="1.0" encoding="UTF-8"?>
<!-- Generator: visioncortex VTracer 0.6.4 -->
<svg version="1.1" xmlns="http://www.w3.org/2000/svg" width="500" height="500">
<path d="M0 0 C1.13 0.12 2.27 0.25 3.44 0.38 C4.1 1.37 4.76 2.35 5.44 3.38 C8.11 3.74 8.11 3.74 11.21 3.56 C12.94 3.53 12.94 3.53 14.71 3.49 C17.15 3.41 19.59 3.34 22.03 3.26 C23.76 3.22 23.76 3.22 25.53 3.19 C27.12 3.14 27.12 3.14 28.74 3.08 C31.86 3.42 32.43 4.1 34.44 6.38 C37.4 6.43 37.4 6.43 40.75 6.06 C49.78 5.85 55.24 9.43 62.44 14.38 C63.24 14.91 64.05 15.44 64.88 16 C70.91 20.23 76.17 25.22 78.44 32.38 C79.37 42.86 78.41 54.57 75.82 64.81 C74.07 72.21 74.93 76.94 77.76 83.9 C78.13 84.88 78.5 85.85 78.88 86.86 C79.67 88.94 80.48 91.02 81.29 93.09 C83.01 97.46 84.67 101.85 86.33 106.24 C87.17 108.46 88.02 110.67 88.86 112.89 C93.84 125.96 98.28 139.18 102.53 152.5 C103.91 156.79 105.38 161.04 106.91 165.29 C112.62 181.73 113.63 197.48 113.7 214.74 C113.7 215.44 113.71 216.14 113.72 216.86 C113.67 221.96 113.11 225.71 109.44 229.38 C104.28 230.41 99.8 230.38 94.44 230.38 C94.44 240.61 94.44 250.84 94.44 261.38 C89.69 262.96 87.49 263.62 82.82 263.57 C81.9 263.57 80.98 263.56 80.04 263.56 C78.89 263.54 77.74 263.52 76.56 263.5 C72.89 263.46 69.22 263.42 65.44 263.38 C65.44 251.82 65.44 240.27 65.44 228.38 C58.57 228.81 58.57 228.81 51.56 229.25 C-54.63 235.53 -54.63 235.53 -105.33 230.18 C-134.27 227.18 -163.5 227.19 -192.56 227.19 C-193.23 227.19 -193.91 227.19 -194.6 227.19 C-209.7 227.18 -224.77 227.33 -239.85 228.14 C-262.26 229.33 -284.33 227.15 -306.56 224.38 C-306.56 236.59 -306.56 248.8 -306.56 261.38 C-307.88 261.38 -309.2 261.38 -310.56 261.38 C-310.56 262.04 -310.56 262.69 -310.56 263.38 C-314.52 263.43 -318.48 263.47 -322.44 263.5 C-323.57 263.52 -324.69 263.53 -325.86 263.55 C-326.93 263.56 -328.01 263.56 -329.12 263.57 C-330.11 263.58 -331.11 263.59 -332.13 263.6 C-334.56 263.38 -334.56 263.38 -336.56 261.38 C-336.8 259.54 -336.8 259.54 -336.79 257.29 C-336.79 256.45 -336.79 255.61 -336.79 254.74 C-336.78 253.84 -336.77 252.93 -336.76 251.99 C-336.75 251.06 -336.75 250.13 -336.75 249.18 C-336.74 246.2 -336.71 243.23 -336.69 240.25 C-336.68 238.24 -336.67 236.22 -336.66 234.21 C-336.64 229.26 -336.6 224.32 -336.56 219.38 C-337.43 219.3 -337.43 219.3 -338.32 219.23 C-343 218.78 -347.14 218.08 -351.56 216.38 C-352.49 197.6 -351.27 181.47 -345.28 163.52 C-344.49 161.14 -343.71 158.76 -342.93 156.38 C-330.24 117.52 -315.6 79.43 -300.51 41.45 C-299.54 39 -298.57 36.55 -297.6 34.1 C-295.25 28.19 -292.91 22.28 -290.56 16.38 C-289.39 16.37 -288.22 16.37 -287.01 16.37 C-259.16 16.33 -231.3 16.28 -203.45 16.2 C-200.02 16.19 -196.59 16.18 -193.16 16.17 C-192.48 16.17 -191.8 16.16 -191.09 16.16 C-180.04 16.13 -169 16.11 -157.95 16.1 C-146.61 16.09 -135.26 16.06 -123.92 16.02 C-117.56 16 -111.19 15.98 -104.82 15.98 C-98.82 15.98 -92.83 15.97 -86.83 15.93 C-84.63 15.93 -82.43 15.92 -80.24 15.93 C-77.23 15.94 -74.22 15.92 -71.22 15.89 C-69.92 15.91 -69.92 15.91 -68.59 15.92 C-61.32 15.82 -56.52 13.35 -50.56 9.38 C-47.96 9.23 -45.47 9.19 -42.88 9.25 C-41.82 9.26 -41.82 9.26 -40.75 9.28 C-39.02 9.3 -37.29 9.34 -35.56 9.38 C-35.29 8.76 -35.03 8.14 -34.75 7.5 C-33.56 5.37 -33.56 5.37 -30.56 3.38 C-27.88 3.25 -27.88 3.25 -25.56 3.38 C-25.23 4.03 -24.9 4.69 -24.56 5.38 C-21.62 5.12 -18.69 4.85 -15.75 4.56 C-14.92 4.49 -14.08 4.42 -13.22 4.35 C-12.02 4.23 -12.02 4.23 -10.79 4.11 C-10.05 4.04 -9.32 3.97 -8.56 3.9 C-4.69 2.88 -4.39 0.46 0 0 Z " fill="#FCFCFC" transform="translate(369.5625,229.625)"/>
<path d="M0 0 C35.31 0 70.62 0 107 0 C107.66 8.58 108.32 17.16 109 26 C110.15 31.32 111.22 35.96 113 41 C113.35 42.03 113.7 43.05 114.05 44.11 C120.76 61.97 133.13 73.69 150 82 C170.14 90.05 194 89.4 214.19 81.81 C221.6 78.53 228.4 73.89 234 68 C234.66 67.34 235.32 66.68 236 66 C236.99 66 237.98 66 239 66 C239.46 67.34 239.46 67.34 239.93 68.71 C240.85 71.41 241.78 74.12 242.71 76.82 C243.79 79.96 244.86 83.1 245.93 86.24 C248.69 94.29 251.46 102.34 254.25 110.38 C255 112.57 255.76 114.76 256.52 116.95 C257.01 118.36 257.49 119.76 257.98 121.17 C258.66 123.12 259.34 125.08 260.02 127.04 C260.4 128.14 260.78 129.25 261.18 130.39 C262 133 262 133 262 135 C198 135.61 134 136.14 70 136.56 C69.17 136.57 68.34 136.57 67.48 136.58 C-4.68 137.05 -76.84 137.12 -149 137 C-147.31 130.66 -145.55 124.36 -143.46 118.14 C-143.22 117.44 -142.99 116.73 -142.75 116.01 C-141.99 113.73 -141.22 111.45 -140.46 109.18 C-139.92 107.58 -139.39 105.98 -138.86 104.38 C-137.46 100.21 -136.07 96.04 -134.67 91.87 C-133.24 87.6 -131.81 83.33 -130.38 79.06 C-127.59 70.7 -124.8 62.35 -122 54 C-120 56 -120 56 -119.19 59.5 C-115.98 72.96 -106.48 83.64 -95 91 C-71.18 105.18 -41.69 109.12 -14.66 103.04 C4.37 97.64 23.28 89.43 34.06 72 C40 60.77 42.1 49.22 38.44 36.88 C31.76 18.93 16.69 8.85 0 1 C0 0.67 0 0.34 0 0 Z " fill="#FDFDFD" transform="translate(191,262)"/>
<path d="M0 0 C1.13 0.12 2.27 0.25 3.44 0.38 C4.1 1.37 4.76 2.35 5.44 3.38 C8.11 3.74 8.11 3.74 11.21 3.56 C12.94 3.53 12.94 3.53 14.71 3.49 C17.15 3.41 19.59 3.34 22.03 3.26 C23.76 3.22 23.76 3.22 25.53 3.19 C27.12 3.14 27.12 3.14 28.74 3.08 C31.86 3.42 32.43 4.1 34.44 6.38 C37.4 6.43 37.4 6.43 40.75 6.06 C49.78 5.85 55.24 9.43 62.44 14.38 C63.24 14.91 64.05 15.44 64.88 16 C70.91 20.23 76.17 25.22 78.44 32.38 C79.37 42.86 78.41 54.57 75.82 64.81 C74.07 72.21 74.93 76.94 77.76 83.9 C78.13 84.88 78.5 85.85 78.88 86.86 C79.67 88.94 80.48 91.02 81.29 93.09 C83.01 97.46 84.67 101.85 86.33 106.24 C87.17 108.46 88.02 110.67 88.86 112.89 C93.84 125.96 98.28 139.18 102.53 152.5 C103.91 156.79 105.38 161.04 106.91 165.29 C112.62 181.73 113.63 197.48 113.7 214.74 C113.7 215.44 113.71 216.14 113.72 216.86 C113.67 221.96 113.11 225.71 109.44 229.38 C104.28 230.41 99.8 230.38 94.44 230.38 C94.44 240.61 94.44 250.84 94.44 261.38 C89.69 262.96 87.49 263.62 82.82 263.57 C81.9 263.57 80.98 263.56 80.04 263.56 C78.89 263.54 77.74 263.52 76.56 263.5 C72.89 263.46 69.22 263.42 65.44 263.38 C65.44 251.82 65.44 240.27 65.44 228.38 C58.57 228.81 58.57 228.81 51.56 229.25 C-54.63 235.53 -54.63 235.53 -105.33 230.18 C-134.27 227.18 -163.5 227.19 -192.56 227.19 C-193.23 227.19 -193.91 227.19 -194.6 227.19 C-209.7 227.18 -224.77 227.33 -239.85 228.14 C-262.26 229.33 -284.33 227.15 -306.56 224.38 C-306.56 236.59 -306.56 248.8 -306.56 261.38 C-307.88 261.38 -309.2 261.38 -310.56 261.38 C-310.56 262.04 -310.56 262.69 -310.56 263.38 C-314.52 263.43 -318.48 263.47 -322.44 263.5 C-323.57 263.52 -324.69 263.53 -325.86 263.55 C-326.93 263.56 -328.01 263.56 -329.12 263.57 C-330.11 263.58 -331.11 263.59 -332.13 263.6 C-334.56 263.38 -334.56 263.38 -336.56 261.38 C-336.8 259.54 -336.8 259.54 -336.79 257.29 C-336.79 256.45 -336.79 255.61 -336.79 254.74 C-336.78 253.84 -336.77 252.93 -336.76 251.99 C-336.75 251.06 -336.75 250.13 -336.75 249.18 C-336.74 246.2 -336.71 243.23 -336.69 240.25 C-336.68 238.24 -336.67 236.22 -336.66 234.21 C-336.64 229.26 -336.6 224.32 -336.56 219.38 C-337.43 219.3 -337.43 219.3 -338.32 219.23 C-343 218.78 -347.14 218.08 -351.56 216.38 C-352.49 197.6 -351.27 181.47 -345.28 163.52 C-344.49 161.14 -343.71 158.76 -342.93 156.38 C-330.24 117.52 -315.6 79.43 -300.51 41.45 C-299.54 39 -298.57 36.55 -297.6 34.1 C-295.25 28.19 -292.91 22.28 -290.56 16.38 C-289.39 16.37 -288.22 16.37 -287.01 16.37 C-259.16 16.33 -231.3 16.28 -203.45 16.2 C-200.02 16.19 -196.59 16.18 -193.16 16.17 C-192.48 16.17 -191.8 16.16 -191.09 16.16 C-180.04 16.13 -169 16.11 -157.95 16.1 C-146.61 16.09 -135.26 16.06 -123.92 16.02 C-117.56 16 -111.19 15.98 -104.82 15.98 C-98.82 15.98 -92.83 15.97 -86.83 15.93 C-84.63 15.93 -82.43 15.92 -80.24 15.93 C-77.23 15.94 -74.22 15.92 -71.22 15.89 C-69.92 15.91 -69.92 15.91 -68.59 15.92 C-61.32 15.82 -56.52 13.35 -50.56 9.38 C-47.96 9.23 -45.47 9.19 -42.88 9.25 C-41.82 9.26 -41.82 9.26 -40.75 9.28 C-39.02 9.3 -37.29 9.34 -35.56 9.38 C-35.29 8.76 -35.03 8.14 -34.75 7.5 C-33.56 5.37 -33.56 5.37 -30.56 3.38 C-27.88 3.25 -27.88 3.25 -25.56 3.38 C-25.23 4.03 -24.9 4.69 -24.56 5.38 C-21.62 5.12 -18.69 4.85 -15.75 4.56 C-14.92 4.49 -14.08 4.42 -13.22 4.35 C-12.02 4.23 -12.02 4.23 -10.79 4.11 C-10.05 4.04 -9.32 3.97 -8.56 3.9 C-4.69 2.88 -4.39 0.46 0 0 Z M-286.56 22.38 C-296.41 46.07 -296.41 46.07 -305.81 69.94 C-306.12 70.73 -306.42 71.52 -306.73 72.34 C-317.09 99.4 -327.06 126.61 -336.31 154.06 C-336.56 154.78 -336.8 155.49 -337.05 156.23 C-342.05 170.98 -346.31 185.2 -345.81 200.94 C-345.79 202.05 -345.78 203.17 -345.76 204.32 C-345.71 207 -345.65 209.69 -345.56 212.38 C-314.26 219.02 -283.11 222.4 -251.12 222.5 C-250.45 222.5 -249.78 222.51 -249.08 222.51 C-240.99 222.53 -232.95 222.33 -224.87 221.88 C-214.28 221.3 -203.72 221.18 -193.12 221.19 C-192.13 221.19 -191.14 221.19 -190.12 221.19 C-156.53 221.24 -123.03 222.3 -89.61 225.77 C-70.24 227.76 -51.02 227.82 -31.56 227.38 C-30.21 227.35 -28.86 227.32 -27.51 227.29 C-16.32 227.04 -5.15 226.64 6.02 225.86 C8.8 225.67 11.59 225.49 14.38 225.31 C15.08 225.27 15.79 225.22 16.52 225.17 C37.84 223.86 59.23 224.24 80.57 224.35 C83.68 224.36 86.79 224.38 89.89 224.39 C92.08 224.4 94.26 224.42 96.44 224.44 C97.75 224.44 99.05 224.45 100.39 224.46 C101.54 224.47 102.69 224.47 103.87 224.48 C106.37 224.67 106.37 224.67 107.44 223.38 C107.52 220.77 107.53 218.2 107.49 215.6 C107.48 214.8 107.47 214 107.46 213.18 C107.43 211.47 107.4 209.76 107.36 208.05 C107.33 206.34 107.31 204.63 107.3 202.91 C107.22 190.29 105.33 179.36 101.44 167.38 C101.08 166.19 100.72 165.01 100.35 163.79 C99.31 160.37 98.23 156.96 97.12 153.56 C96.92 152.94 96.72 152.32 96.52 151.68 C92.28 138.59 87.72 125.6 83.12 112.62 C82.78 111.65 82.44 110.67 82.08 109.67 C76.85 94.78 76.85 94.78 70.44 80.38 C68.18 83.34 66.23 86.36 64.31 89.56 C54.73 104.64 40.44 113.62 23.38 118.19 C7.83 121.2 -10.85 121.74 -25.56 115.38 C-27.32 114.63 -27.32 114.63 -29.12 113.87 C-44.86 106.78 -56.79 95.26 -63.5 79.25 C-67.87 67.39 -69.78 57.15 -69.88 44.56 C-69.9 43.32 -69.93 42.07 -69.96 40.79 C-69.97 39.57 -69.98 38.36 -69.99 37.11 C-70.01 35.46 -70.01 35.46 -70.03 33.77 C-69.56 30.37 -69.56 30.37 -65.56 22.38 C-138.49 22.38 -211.42 22.38 -286.56 22.38 Z " fill="#060706" transform="translate(369.5625,229.625)"/>
<path d="M0 0 C43.56 0 87.12 0 132 0 C132.04 39.08 132.04 39.08 132.05 55.4 C132.05 66.69 132.06 77.98 132.08 89.27 C132.09 97.5 132.09 105.72 132.09 113.94 C132.1 118.29 132.1 122.65 132.11 127 C132.11 131.1 132.11 135.19 132.11 139.29 C132.11 140.8 132.12 142.3 132.12 143.81 C132.12 145.86 132.12 147.91 132.12 149.96 C132.12 151.68 132.12 151.68 132.12 153.44 C132 156 132 156 131 157 C129.3 157.1 127.6 157.12 125.91 157.12 C124.25 157.12 124.25 157.12 122.57 157.12 C120.73 157.12 120.73 157.12 118.86 157.11 C117.56 157.11 116.26 157.11 114.93 157.11 C111.4 157.11 107.88 157.11 104.35 157.1 C101.05 157.1 97.75 157.1 94.45 157.09 C84.78 157.09 75.11 157.08 65.44 157.06 C43.84 157.04 22.25 157.02 0 157 C0 105.19 0 53.38 0 0 Z " fill="#010101" transform="translate(185,22)"/>
<path d="M0 0 C1.23 0.01 2.45 0.01 3.72 0.02 C29.54 0.36 51.6 8.73 69.96 27.09 C77.88 35.65 81.74 46.49 81.5 58.07 C80.16 72.07 72.94 84.4 62.19 93.31 C38.9 110.44 10.77 115.37 -17.52 111.81 C-38.34 108.54 -57.99 99.56 -71.81 83.31 C-79.77 71.78 -81.84 61.3 -80.81 47.31 C-77.37 32.79 -65.94 21.19 -53.81 13.31 C-36.99 3.69 -19.25 -0.09 0 0 Z " fill="#AFDDE3" transform="translate(150.8125,255.6875)"/>
<path d="M0 0 C5.12 1.82 9.22 5.16 12.75 9.25 C14.38 13.48 14.63 17.49 14.81 22 C14.84 22.65 14.87 23.29 14.9 23.96 C15.18 31.72 15.44 39.07 12.73 46.46 C11.15 50.84 10.13 55.39 8.97 59.9 C7.66 63.4 6.84 64.82 3.81 67 C0.87 68.14 -2.12 68.9 -5.19 69.62 C-6.05 69.84 -6.91 70.05 -7.8 70.27 C-10.26 70.86 -12.72 71.43 -15.19 72 C-16.2 72.25 -17.22 72.5 -18.26 72.76 C-35.85 76.47 -52.89 75.74 -68.19 66 C-71.46 63.53 -74.3 60.89 -77.19 58 C-78.14 57.28 -79.09 56.56 -80.06 55.81 C-83.36 53.12 -85.3 49.9 -87.54 46.32 C-89.28 43.88 -91.16 42.07 -93.38 40.06 C-97.59 36.04 -99.49 31.79 -100.19 26 C-99.93 23.17 -99.44 22.25 -97.4 20.24 C-94.82 18.79 -93.71 18.82 -90.81 19.12 C-86.36 19.26 -83.2 18.44 -79.06 16.81 C-65.67 11.65 -51.14 9.47 -36.97 7.53 C-33.96 6.96 -31.3 6.01 -28.44 4.94 C-22.58 2.81 -17.05 2.46 -10.89 2.33 C-6.69 2.22 -3.77 0 0 0 Z " fill="#F3E713" transform="translate(189.1875,276)"/>
<path d="M0 0 C0.53 0.38 1.07 0.75 1.62 1.14 C27.98 19.24 62.59 22.71 93.61 17.27 C95.74 16.87 97.87 16.44 100 16 C101.12 15.77 102.23 15.54 103.38 15.31 C116.14 12.39 127.16 7.23 138 0 C136.24 20.26 130.03 37.71 115 52 C98.2 66.02 78.17 68.64 57 67 C38.63 64.64 25.01 55.58 13.19 41.81 C4.71 30.22 -0.84 14.34 0 0 Z " fill="#3DBBEB" transform="translate(304,278)"/>
<path d="M0 0 C2.69 -0.25 2.69 -0.25 5 0 C5.5 1.49 5.5 1.49 6 3 C4.45 3.28 4.45 3.28 2.88 3.56 C-1.86 4.91 -4.32 8.01 -7 12 C-8.37 14.75 -8.37 14.75 -9 17 C-8.34 17.33 -7.68 17.66 -7 18 C-7.64 18.62 -8.28 19.24 -8.94 19.88 C-11.04 21.83 -11.04 21.83 -12 24 C-12.66 24 -13.32 24 -14 24 C-14.56 23.24 -15.11 22.47 -15.69 21.69 C-19.47 17.29 -24.38 15.85 -30 15 C-30 14.34 -30 13.68 -30 13 C-29.07 13.06 -28.14 13.12 -27.19 13.19 C-24.02 13.31 -24.02 13.31 -22.12 11.5 C-21.75 11 -21.38 10.51 -21 10 C-23 10.33 -25 10.66 -27 11 C-28.36 11.19 -28.36 11.19 -29.75 11.38 C-32.36 11.84 -32.36 11.84 -34 15 C-35.95 15.77 -35.95 15.77 -38.25 16.38 C-45.55 18.69 -48.64 22.04 -52.25 28.62 C-52.73 29.57 -53.21 30.51 -53.7 31.48 C-55 34 -55 34 -57 37 C-56.15 36.48 -55.31 35.97 -54.44 35.44 C-50.24 33.68 -48.4 33.97 -44 35 C-41.55 36.28 -39.39 37.84 -37.19 39.5 C-36.06 40.32 -34.93 41.15 -33.79 41.97 C-32.41 42.97 -32.41 42.97 -31 44 C-28.71 45.14 -27.41 45.1 -24.88 45.06 C-22.96 45.03 -22.96 45.03 -21 45 C-20.34 43.68 -19.68 42.36 -19 41 C-16.36 41 -13.72 41 -11 41 C-10.92 39.89 -10.83 38.77 -10.75 37.62 C-10 34 -10 34 -7.94 32.56 C-7.3 32.38 -6.66 32.19 -6 32 C-7.65 31.67 -9.3 31.34 -11 31 C-10.6 26.05 -9.6 22.89 -6.97 18.69 C-5.82 16.84 -5.82 16.84 -5.06 13.88 C-3.68 10.14 -2.17 8.41 1 6 C6.9 4.36 10.1 5.01 15.43 7.89 C17 9 17 9 18 11 C12.25 14 12.25 14 10 14 C10 14.66 10 15.32 10 16 C12.83 15.1 15.54 14.24 18.19 12.88 C20 12 20 12 23 12 C23 11.34 23 10.68 23 10 C22.04 9.63 22.04 9.63 21.06 9.25 C19 8 19 8 18.19 5.94 C18.13 5.3 18.06 4.66 18 4 C19.94 2.06 23.3 2.74 25.88 2.69 C27.13 2.65 28.39 2.61 29.68 2.57 C33 3 33 3 34.78 4.97 C35.18 5.64 35.58 6.31 36 7 C38.6 7.8 38.6 7.8 41 8 C40.01 8.66 39.02 9.32 38 10 C31.18 14.73 25.43 18.85 23.69 27.38 C23.44 28.91 23.2 30.45 23 32 C24.11 32.21 25.23 32.41 26.38 32.62 C30 34 30 34 31.44 37.12 C31.62 38.07 31.81 39.02 32 40 C31.22 40.25 30.43 40.5 29.62 40.75 C26.68 42.15 26.1 43.01 25 46 C24.34 46 23.68 46 23 46 C22.34 43.69 21.68 41.38 21 39 C17.39 39.66 17.39 39.66 14 41 C13.71 40.36 13.42 39.72 13.12 39.06 C12.17 36.85 12.17 36.85 10 36 C10 35.34 10 34.68 10 34 C8 34.79 8 34.79 6 36 C5.67 36.99 5.34 37.98 5 39 C7.31 39 9.62 39 12 39 C12 40.65 12 42.3 12 44 C12.76 43.69 13.53 43.38 14.31 43.06 C16.19 42.32 18.09 41.64 20 41 C20.66 43.31 21.32 45.62 22 48 C23.32 48 24.64 48 26 48 C26.66 46.35 27.32 44.7 28 43 C30.31 43.33 32.62 43.66 35 44 C35.09 43.26 35.18 42.53 35.27 41.77 C36.14 38.48 37.34 37.12 39.75 34.75 C40.43 34.06 41.1 33.38 41.8 32.67 C44.27 30.8 45.97 30.46 49 30 C50.24 29.23 50.24 29.23 51.5 28.44 C54.28 26.84 55.85 26.73 59 27 C59 26.34 59 25.68 59 25 C57.68 24.67 56.36 24.34 55 24 C55.99 23.34 56.98 22.68 58 22 C56.33 17.14 54.42 13.29 49.74 10.8 C47.51 9.8 45.28 8.87 43 8 C43.66 7.34 44.32 6.68 45 6 C49.44 6.25 52.89 6.64 56 10 C56 11.32 56 12.64 56 14 C56.93 14.27 57.86 14.54 58.81 14.81 C61.76 15.91 63.06 16.62 65 19 C64.34 19 63.68 19 63 19 C63 19.66 63 20.32 63 21 C64.32 21 65.64 21 67 21 C67.2 23.05 67.39 25.1 67.59 27.15 C67.72 27.76 67.86 28.37 68 29 C68.66 29.33 69.32 29.66 70 30 C70 27.69 70 25.38 70 23 C73.52 25.82 74.88 27.31 75.69 31.81 C75.28 37.07 72.78 40.47 69 44 C61.97 49.03 54.32 52.7 46 55 C45.35 55.18 44.7 55.36 44.03 55.55 C31.78 58.82 19.67 59.38 7.06 59.38 C5.95 59.38 5.95 59.38 4.82 59.38 C-4.97 59.38 -14.34 58.67 -24 57 C-24.14 56.24 -24.29 55.47 -24.44 54.69 C-24.96 51.92 -24.96 51.92 -26 49 C-28.77 47.61 -30.93 47.81 -34 48 C-34.99 48.66 -35.98 49.32 -37 50 C-37.99 47.69 -38.98 45.38 -40 43 C-42.97 43.5 -42.97 43.5 -46 44 C-45.01 44 -44.02 44 -43 44 C-40.62 45.74 -40.05 46.8 -39.31 49.69 C-39.21 50.45 -39.11 51.21 -39 52 C-38.09 51.69 -37.19 51.38 -36.25 51.06 C-33.83 50.27 -31.47 49.57 -29 49 C-27.68 50.98 -26.36 52.96 -25 55 C-31.84 57.54 -40.27 53.2 -46.6 50.42 C-53.66 46.83 -59.36 43.28 -63 36 C-63.36 30.48 -63.4 28.35 -60 24 C-60.02 22.74 -60.04 21.48 -60.06 20.19 C-59.76 17 -59.12 16.12 -56.73 13.89 C-49.65 9.25 -45.03 8.7 -36.79 9.93 C-34.03 10.27 -34.03 10.27 -32.21 8.79 C-30.75 6.94 -30.75 6.94 -29 4 C-26.94 2.88 -26.94 2.88 -25 3 C-22.94 4.88 -22.94 4.88 -21 7 C-20.01 7.33 -19.02 7.66 -18 8 C-17.67 7.34 -17.34 6.68 -17 6 C-17.66 5.67 -18.32 5.34 -19 5 C-17.88 4.97 -16.76 4.95 -15.61 4.92 C-14.13 4.87 -12.66 4.81 -11.19 4.75 C-10.45 4.74 -9.71 4.72 -8.95 4.71 C-6.51 4.64 -6.51 4.64 -3 4 C-1.13 2.08 -1.13 2.08 0 0 Z " fill="#64B742" transform="translate(367,233)"/>
<path d="M0 0 C1 1 1 1 1.29 3.72 C0.94 7.71 -0.23 9.31 -2.69 12.44 C-3.41 13.38 -4.14 14.32 -4.89 15.3 C-5.58 16.19 -6.28 17.08 -7 18 C-8.01 19.39 -9.01 20.78 -10 22.19 C-10.66 23.12 -11.32 24.04 -12 25 C-11.18 25.66 -10.35 26.32 -9.5 27 C-6.85 30.18 -6.32 31.81 -6.56 35.91 C-7.04 38.18 -7.83 39.71 -8.99 41.71 C-11.3 46.15 -11.6 49.94 -11.65 54.88 C-11.71 56.56 -11.76 58.24 -11.82 59.92 C-11.88 62.53 -11.94 65.14 -11.99 67.75 C-12.04 70.3 -12.13 72.84 -12.21 75.38 C-12.22 76.16 -12.23 76.93 -12.23 77.73 C-12.44 83.44 -13.91 86 -18 90 C-20.28 91.21 -20.28 91.21 -22.5 91.81 C-23.6 92.13 -23.6 92.13 -24.72 92.46 C-34.59 94.81 -44.56 95.26 -54 91 C-56.93 89.1 -59.41 87.18 -61 84 C-61.16 81.59 -61.26 79.21 -61.32 76.8 C-61.35 75.74 -61.35 75.74 -61.38 74.66 C-61.44 72.4 -61.5 70.14 -61.56 67.88 C-61.61 66.34 -61.65 64.81 -61.69 63.28 C-61.8 59.52 -61.9 55.76 -62 52 C-62.64 51.69 -63.28 51.38 -63.94 51.06 C-66 50 -66 50 -67 49 C-67.74 42.07 -66.11 37.61 -62 32 C-59.6 29.53 -57.1 27.55 -54 26 C-51.89 26.05 -49.77 26.15 -47.66 26.28 C-34.06 27.28 -34.06 27.28 -21.49 23.42 C-17.69 19.59 -15.26 15.12 -13.05 10.23 C-7.37 -1.89 -7.37 -1.89 0 0 Z " fill="#151616" transform="translate(294,294)"/>
<path d="M0 0 C6.17 2.8 11 6.59 13.8 12.87 C14.66 15.33 15.47 17.69 15.98 20.24 C16.64 20.24 17.3 20.24 17.98 20.24 C20.97 29.6 22.15 38.73 18.98 48.24 C18.32 48.24 17.66 48.24 16.98 48.24 C16.71 49.7 16.71 49.7 16.42 51.18 C13.68 60.61 5.16 67.79 -3.14 72.43 C-5.95 73.64 -7.13 73.29 -10.02 72.24 C-20.75 65.78 -27.96 56.18 -31.62 44.26 C-33.83 32.86 -31.08 21.39 -24.7 11.8 C-21.57 7.67 -18.19 4.31 -14.02 1.24 C-13.19 0.6 -12.37 -0.04 -11.52 -0.7 C-7.4 -2.45 -4.1 -1.54 0 0 Z " fill="#030303" transform="translate(269.015625,59.7578125)"/>
<path d="M0 0 C-4.56 3.71 -4.56 3.71 -6.87 5.25 C-16.76 12.02 -21.65 21.38 -24 33 C-25.46 43.7 -22.38 53.58 -16.19 62.38 C-11.68 67.87 -6.29 72.66 0 76 C-4.23 80.23 -10.27 79.36 -15.88 79.39 C-26.93 79.18 -36.14 74.74 -44 67 C-52.09 57.76 -55.77 47.36 -55.32 35.1 C-54.04 22.57 -48.02 12.98 -38.52 4.91 C-27.34 -3.58 -12.88 -5.95 0 0 Z " fill="#FBFBFB" transform="translate(262,57)"/>
<path d="M0 0 C1.23 0.01 2.45 0.01 3.72 0.02 C29.54 0.36 51.6 8.73 69.96 27.09 C77.88 35.65 81.74 46.49 81.5 58.07 C80.16 72.07 72.94 84.4 62.19 93.31 C38.9 110.44 10.77 115.37 -17.52 111.81 C-38.34 108.54 -57.99 99.56 -71.81 83.31 C-79.77 71.78 -81.84 61.3 -80.81 47.31 C-77.37 32.79 -65.94 21.19 -53.81 13.31 C-36.99 3.69 -19.25 -0.09 0 0 Z M-66.1 30.14 C-73.72 39.8 -77.12 50.09 -75.81 62.31 C-71.98 77.28 -62.23 87.84 -49.38 95.94 C-26.14 108.89 3.65 111.12 29.19 104.31 C47.35 98.78 63.06 89.03 72.62 72.38 C76.6 64.58 77.53 56.08 75.54 47.52 C70.7 32.83 59.91 22.33 46.6 14.95 C31.94 7.93 17.8 4.93 1.56 5 C0.9 5 0.23 5 -0.45 5.01 C-25.2 5.15 -48.6 11.64 -66.1 30.14 Z " fill="#08090A" transform="translate(150.8125,255.6875)"/>
<path d="M0 0 C43.56 0 87.12 0 132 0 C132.04 39.08 132.04 39.08 132.05 55.4 C132.05 66.69 132.06 77.98 132.08 89.27 C132.09 97.5 132.09 105.72 132.09 113.94 C132.1 118.29 132.1 122.65 132.11 127 C132.11 131.1 132.11 135.19 132.11 139.29 C132.11 140.8 132.12 142.3 132.12 143.81 C132.12 145.86 132.12 147.91 132.12 149.96 C132.12 151.68 132.12 151.68 132.12 153.44 C132 156 132 156 131 157 C129.3 157.1 127.6 157.12 125.91 157.12 C124.25 157.12 124.25 157.12 122.57 157.12 C120.73 157.12 120.73 157.12 118.86 157.11 C117.56 157.11 116.26 157.11 114.93 157.11 C111.4 157.11 107.88 157.11 104.35 157.1 C101.05 157.1 97.75 157.1 94.45 157.09 C84.78 157.09 75.11 157.08 65.44 157.06 C43.84 157.04 22.25 157.02 0 157 C0 105.19 0 53.38 0 0 Z M3 4 C3 53.17 3 102.34 3 153 C44.25 153 85.5 153 128 153 C128 103.83 128 54.66 128 4 C86.75 4 45.5 4 3 4 Z " fill="#000000" transform="translate(185,22)"/>
<path d="M0 0 C0.33 0 0.66 0 1 0 C2.26 10.64 -1.47 19.85 -4.87 29.72 C-5.48 31.52 -6.08 33.31 -6.68 35.11 C-8.26 39.81 -9.86 44.5 -11.46 49.19 C-13.09 53.98 -14.7 58.77 -16.31 63.57 C-18.67 70.55 -21.03 77.54 -23.41 84.51 C-23.66 85.24 -23.91 85.98 -24.16 86.73 C-25.88 91.77 -25.88 91.77 -27 94 C-26.41 94 -25.83 93.99 -25.23 93.99 C10.08 93.73 45.38 93.48 80.69 93.24 C85 93.21 89.32 93.18 93.63 93.15 C94.49 93.14 95.35 93.13 96.23 93.13 C108.16 93.04 120.08 92.96 132.01 92.87 C152.64 92.72 173.27 92.58 193.9 92.44 C194.71 92.43 195.52 92.43 196.35 92.42 C258.9 92 321.45 91.87 384 92 C383.66 91.05 383.32 90.1 382.97 89.13 C382.52 87.86 382.07 86.6 381.62 85.34 C381.18 84.1 380.73 82.86 380.28 81.59 C377.53 73.87 374.86 66.13 372.18 58.39 C371.11 55.32 370.04 52.25 368.96 49.19 C368.03 46.53 367.11 43.87 366.18 41.21 C365.73 39.91 365.27 38.61 364.82 37.31 C364.18 35.48 363.54 33.66 362.91 31.83 C362.35 30.25 362.35 30.25 361.79 28.64 C361 26 361 26 361 23 C360.34 22.67 359.68 22.34 359 22 C360.32 20.68 361.64 19.36 363 18 C363.27 18.78 363.53 19.55 363.81 20.36 C366.34 27.73 368.87 35.09 371.4 42.46 C372.7 46.25 374 50.04 375.3 53.83 C376.56 57.49 377.81 61.15 379.07 64.82 C379.55 66.21 380.03 67.6 380.5 68.98 C383.02 76.33 385.57 83.66 388.31 90.93 C389 93 389 93 389 95 C188.37 97.01 188.37 97.01 98.32 97.59 C94.4 97.62 90.49 97.65 86.57 97.67 C47.05 97.93 7.52 98.06 -32 98 C-30.2 91.18 -28.25 84.45 -26 77.76 C-25.71 76.91 -25.43 76.06 -25.14 75.19 C-24.22 72.42 -23.29 69.66 -22.36 66.89 C-21.72 64.96 -21.07 63.02 -20.43 61.09 C-18.74 56.03 -17.04 50.97 -15.35 45.91 C-13.62 40.74 -11.89 35.56 -10.16 30.39 C-6.78 20.26 -3.39 10.13 0 0 Z " fill="#949494" transform="translate(69,305)"/>
<path d="M0 0 C0 1.32 0 2.64 0 4 C-5.74 4.78 -11.42 5.28 -17.2 5.55 C-18.07 5.6 -18.94 5.64 -19.83 5.68 C-29.48 6.12 -39.12 6.15 -48.78 6.13 C-50.7 6.13 -52.61 6.13 -54.53 6.14 C-58.5 6.14 -62.47 6.14 -66.45 6.13 C-71.51 6.12 -76.57 6.13 -81.63 6.13 C-85.57 6.14 -89.51 6.14 -93.45 6.13 C-95.31 6.13 -97.18 6.13 -99.05 6.14 C-107.89 6.15 -116.64 6.09 -125.45 5.23 C-129.4 4.87 -133.34 4.82 -137.3 4.8 C-138.58 4.79 -138.58 4.79 -139.89 4.78 C-142.7 4.76 -145.51 4.75 -148.31 4.75 C-149.29 4.75 -150.26 4.75 -151.27 4.74 C-178.26 4.73 -205.34 6.07 -232.25 8.26 C-241.5 9 -250.7 9.15 -259.97 9.13 C-261.59 9.13 -263.2 9.13 -264.82 9.14 C-268.19 9.14 -271.56 9.14 -274.93 9.13 C-279.16 9.12 -283.39 9.13 -287.62 9.13 C-312.16 9.16 -336.65 8.98 -361.12 7 C-386.33 5.08 -411.74 5.3 -437 5 C-437 4.01 -437 3.02 -437 2 C-427.2 0.74 -417.43 0.8 -407.56 0.81 C-406.65 0.81 -405.74 0.81 -404.79 0.81 C-392.84 0.82 -381.03 1.13 -369.11 2.2 C-360.66 2.94 -352.22 3.32 -343.74 3.55 C-343.02 3.57 -342.3 3.59 -341.55 3.61 C-324.17 4.1 -306.79 4.22 -289.4 4.24 C-285.92 4.24 -282.43 4.26 -278.94 4.28 C-259.6 4.41 -240.42 4.05 -221.12 2.7 C-195.82 0.96 -170.61 0.72 -145.27 0.74 C-144.3 0.74 -143.33 0.74 -142.33 0.74 C-130.36 0.76 -118.4 0.79 -106.43 0.84 C-90.13 0.9 -73.83 0.94 -57.53 0.97 C-51.83 0.98 -46.14 1 -40.44 1.03 C-36.93 1.04 -33.41 1.05 -29.89 1.06 C-28.27 1.06 -26.65 1.07 -25.03 1.08 C-22.81 1.09 -20.59 1.1 -18.37 1.1 C-17.13 1.1 -15.89 1.11 -14.62 1.11 C-9.71 0.96 -4.9 0 0 0 Z " fill="#1B1B1B" transform="translate(466,413)"/>
<path d="M0 0 C41.25 0 82.5 0 125 0 C125 49.17 125 98.34 125 149 C83.75 149 42.5 149 0 149 C0 99.83 0 50.66 0 0 Z M3 2 C3 49.52 3 97.04 3 146 C42.27 146 81.54 146 122 146 C122 98.48 122 50.96 122 2 C82.73 2 43.46 2 3 2 Z " fill="#A17826" transform="translate(188,26)"/>
<path d="M0 0 C-0.14 3.77 -0.29 7.54 -0.44 11.31 C-0.48 12.37 -0.52 13.42 -0.56 14.5 C-0.77 19.72 -1.02 24.93 -1.41 30.13 C-1.47 31.01 -1.54 31.89 -1.61 32.79 C-2 35 -2 35 -4 37.56 C-13.67 42.19 -24.63 41.98 -34.96 39.83 C-37.87 38.65 -39.77 37.2 -42 35 C-43.9 28.01 -43.03 19.77 -43.01 12.54 C-43.01 11.71 -43.01 10.89 -43.01 10.04 C-43.01 8.03 -43 6.01 -43 4 C-41.91 3.99 -40.81 3.97 -39.68 3.96 C-35.61 3.9 -31.54 3.82 -27.47 3.74 C-25.71 3.7 -23.95 3.68 -22.19 3.65 C-19.65 3.62 -17.12 3.57 -14.58 3.51 C-13.8 3.51 -13.01 3.5 -12.21 3.49 C-7.7 3.37 -3.68 0 0 0 Z " fill="#AED8E5" transform="translate(279,343)"/>
<path d="M0 0 C1.26 -0.04 2.51 -0.07 3.8 -0.11 C7.12 0.31 7.12 0.31 8.9 2.29 C9.31 2.95 9.71 3.62 10.12 4.31 C12.72 5.12 12.72 5.12 15.12 5.31 C14.13 5.97 13.14 6.63 12.12 7.31 C5.31 12.05 -0.45 16.16 -2.19 24.69 C-2.43 26.23 -2.67 27.77 -2.88 29.31 C-1.2 29.62 -1.2 29.62 0.5 29.94 C4.12 31.31 4.12 31.31 5.56 34.44 C5.75 35.39 5.93 36.33 6.12 37.31 C5.34 37.56 4.56 37.81 3.75 38.06 C0.8 39.47 0.22 40.32 -0.88 43.31 C-1.53 43.31 -2.19 43.31 -2.88 43.31 C-3.53 41 -4.19 38.69 -4.88 36.31 C-8.48 36.97 -8.48 36.97 -11.88 38.31 C-12.31 37.35 -12.31 37.35 -12.75 36.38 C-13.7 34.16 -13.7 34.16 -15.88 33.31 C-15.88 32.65 -15.88 31.99 -15.88 31.31 C-17.86 32.3 -17.86 32.3 -19.88 33.31 C-19.75 34.95 -19.75 34.95 -19.62 36.62 C-19.88 40.31 -19.88 40.31 -21.88 42.25 C-22.54 42.6 -23.19 42.95 -23.88 43.31 C-26.34 42.16 -27.92 41.26 -29.88 39.31 C-30.14 36.62 -29.96 34.02 -29.88 31.31 C-30.87 30.98 -31.86 30.65 -32.88 30.31 C-32.55 29.98 -32.21 29.65 -31.88 29.31 C-33.52 28.98 -35.18 28.65 -36.88 28.31 C-36.47 23.36 -35.47 20.2 -32.84 16 C-31.7 14.15 -31.7 14.15 -30.94 11.19 C-29.56 7.45 -28.05 5.73 -24.88 3.31 C-18.98 1.67 -15.77 2.32 -10.44 5.21 C-8.88 6.31 -8.88 6.31 -7.88 8.31 C-13.62 11.31 -13.62 11.31 -15.88 11.31 C-15.88 11.97 -15.88 12.63 -15.88 13.31 C-13.04 12.41 -10.33 11.55 -7.69 10.19 C-5.88 9.31 -5.88 9.31 -2.88 9.31 C-2.88 8.65 -2.88 7.99 -2.88 7.31 C-3.51 7.06 -4.15 6.82 -4.81 6.56 C-6.88 5.31 -6.88 5.31 -7.69 3.25 C-7.75 2.61 -7.81 1.97 -7.88 1.31 C-5.94 -0.62 -2.57 0.05 0 0 Z " fill="#65B742" transform="translate(392.875,235.6875)"/>
<path d="M0 0 C5.12 1.82 9.22 5.16 12.75 9.25 C14.38 13.48 14.63 17.49 14.81 22 C14.84 22.65 14.87 23.29 14.9 23.96 C15.18 31.72 15.44 39.07 12.73 46.46 C11.15 50.84 10.13 55.39 8.97 59.9 C7.66 63.4 6.84 64.82 3.81 67 C0.87 68.14 -2.12 68.9 -5.19 69.62 C-6.05 69.84 -6.91 70.05 -7.8 70.27 C-10.26 70.86 -12.72 71.43 -15.19 72 C-16.2 72.25 -17.22 72.5 -18.26 72.76 C-35.85 76.47 -52.89 75.74 -68.19 66 C-71.46 63.53 -74.3 60.89 -77.19 58 C-78.14 57.28 -79.09 56.56 -80.06 55.81 C-83.36 53.12 -85.3 49.9 -87.54 46.32 C-89.28 43.88 -91.16 42.07 -93.38 40.06 C-97.59 36.04 -99.49 31.79 -100.19 26 C-99.93 23.17 -99.44 22.25 -97.4 20.24 C-94.82 18.79 -93.71 18.82 -90.81 19.12 C-86.36 19.26 -83.2 18.44 -79.06 16.81 C-65.67 11.65 -51.14 9.47 -36.97 7.53 C-33.96 6.96 -31.3 6.01 -28.44 4.94 C-22.58 2.81 -17.05 2.46 -10.89 2.33 C-6.69 2.22 -3.77 0 0 0 Z M-5.19 6 C-7.68 6.18 -10.13 6.27 -12.62 6.31 C-20.28 6.59 -27.22 8.06 -34.59 10.06 C-40.37 11.6 -46.08 12.72 -52 13.56 C-61.47 14.94 -70.95 16.67 -79.75 20.59 C-83.04 21.94 -85.47 22.44 -89 22.62 C-92.74 22.77 -92.74 22.77 -96.19 24 C-95.68 31.81 -93.31 35.51 -87.57 40.7 C-85.11 43.07 -83.33 45.48 -81.44 48.31 C-79.05 51.88 -76.89 54.68 -73.19 57 C-72.53 57 -71.87 57 -71.19 57 C-70.94 57.61 -70.68 58.22 -70.43 58.85 C-68.99 61.35 -67.91 62.03 -65.38 63.32 C-64.63 63.71 -63.88 64.1 -63.12 64.5 C-62.33 64.89 -61.55 65.28 -60.75 65.69 C-59.97 66.09 -59.2 66.49 -58.4 66.91 C-44.96 73.82 -30.89 71.25 -16.44 68.69 C-14.62 68.37 -14.62 68.37 -12.76 68.04 C-3.15 66.34 -3.15 66.34 4.81 61 C5.36 59.14 5.83 57.26 6.25 55.38 C7.12 51.68 8.04 48.15 9.44 44.62 C12 37.86 12.21 31.18 11.81 24 C11.32 23.01 11.32 23.01 10.81 22 C10.68 20.4 10.58 18.79 10.5 17.19 C10.07 12.63 9.29 10.19 5.81 7 C1.51 3.95 -0.55 2.91 -5.19 6 Z " fill="#11130B" transform="translate(189.1875,276)"/>
<path d="M0 0 C4.44 0.25 7.89 0.64 11 4 C11 5.32 11 6.64 11 8 C11.93 8.27 12.86 8.54 13.81 8.81 C16.76 9.91 18.06 10.62 20 13 C19.34 13 18.68 13 18 13 C18 13.66 18 14.32 18 15 C19.32 15 20.64 15 22 15 C22.2 17.05 22.39 19.1 22.59 21.15 C22.79 22.07 22.79 22.07 23 23 C23.66 23.33 24.32 23.66 25 24 C25 21.69 25 19.38 25 17 C28.52 19.82 29.88 21.31 30.69 25.81 C30.28 31.07 27.78 34.47 24 38 C15.13 44.34 4.93 49.03 -6 50 C-6.33 45.38 -6.66 40.76 -7 36 C-7.99 36 -8.98 36 -10 36 C-7.94 31.41 -4.87 28.17 -1 25 C1.62 24.25 1.62 24.25 4 24 C4.82 23.48 5.65 22.97 6.5 22.44 C9.28 20.84 10.85 20.73 14 21 C14 20.34 14 19.68 14 19 C12.68 18.67 11.36 18.34 10 18 C10.99 17.34 11.98 16.68 13 16 C11.33 11.14 9.42 7.29 4.74 4.8 C2.51 3.8 0.28 2.87 -2 2 C-1.34 1.34 -0.68 0.68 0 0 Z " fill="#62B440" transform="translate(412,239)"/>
<path d="M0 0 C13 1 13 1 18 2 C18.03 3.14 18.05 4.27 18.08 5.44 C18.17 9.65 18.27 13.86 18.37 18.07 C18.42 19.89 18.46 21.72 18.5 23.54 C18.56 26.16 18.62 28.78 18.68 31.39 C18.7 32.21 18.72 33.03 18.73 33.87 C18.82 37.14 18.96 39.87 20 43 C12.08 43 4.16 43 -4 43 C-4.49 41.51 -4.49 41.51 -5 40 C-3.35 40 -1.7 40 0 40 C0 26.8 0 13.6 0 0 Z " fill="#B5872B" transform="translate(39,450)"/>
<path d="M0 0 C5.94 0.33 11.88 0.66 18 1 C18 11.56 18 22.12 18 33 C18.66 33.33 19.32 33.66 20 34 C17.44 35.28 15.63 35.11 12.77 35.1 C11.74 35.09 10.71 35.09 9.65 35.09 C8.03 35.08 8.03 35.08 6.38 35.06 C4.74 35.06 4.74 35.06 3.08 35.05 C0.39 35.04 -2.31 35.02 -5 35 C-4.67 34.01 -4.34 33.02 -4 32 C-2.68 32 -1.36 32 0 32 C0 21.44 0 10.88 0 0 Z " fill="#B3862B" transform="translate(440,458)"/>
<path d="M0 0 C1.69 0.97 3.34 2 4.99 3.04 C2.37 5.19 0.34 6.44 -3.01 7.04 C-2.76 7.97 -2.76 7.97 -2.51 8.91 C-2.01 11.04 -2.01 11.04 -2.01 13.04 C-1.02 14.52 -1.02 14.52 -0.01 16.04 C-0.58 22.61 -0.58 22.61 -2.01 24.04 C-4.68 24.18 -7.34 24.08 -10.01 24.04 C-10.01 28.66 -10.01 33.28 -10.01 38.04 C-14.01 38.04 -14.01 38.04 -15.76 37.04 C-17.78 33.81 -17.2 30.79 -17.01 27.04 C-18 26.71 -18.99 26.38 -20.01 26.04 C-19.68 25.71 -19.35 25.38 -19.01 25.04 C-20.66 24.71 -22.31 24.38 -24.01 24.04 C-23.61 19.09 -22.61 15.93 -19.98 11.73 C-18.83 9.88 -18.83 9.88 -18.07 6.91 C-16.74 3.32 -14.91 1.51 -12.01 -0.96 C-7.74 -2.38 -4.09 -1.96 0 0 Z " fill="#111610" transform="translate(380.01171875,239.9609375)"/>
<path d="M0 0 C2.69 -0.25 2.69 -0.25 5 0 C5.5 1.49 5.5 1.49 6 3 C4.45 3.28 4.45 3.28 2.88 3.56 C-1.86 4.91 -4.32 8.01 -7 12 C-8.37 14.75 -8.37 14.75 -9 17 C-8.34 17.33 -7.68 17.66 -7 18 C-7.64 18.62 -8.28 19.24 -8.94 19.88 C-11.04 21.83 -11.04 21.83 -12 24 C-12.66 24 -13.32 24 -14 24 C-14.56 23.24 -15.11 22.47 -15.69 21.69 C-19.47 17.29 -24.38 15.85 -30 15 C-30 14.34 -30 13.68 -30 13 C-29.07 13.06 -28.14 13.12 -27.19 13.19 C-24.02 13.31 -24.02 13.31 -22.12 11.5 C-21.75 11 -21.38 10.51 -21 10 C-23 10.33 -25 10.66 -27 11 C-28.36 11.19 -28.36 11.19 -29.75 11.38 C-32.36 11.84 -32.36 11.84 -34 15 C-35.95 15.77 -35.95 15.77 -38.25 16.38 C-43.89 18.16 -47.5 20.41 -50.48 25.55 C-51.72 28.01 -52.89 30.48 -54 33 C-54.66 32.67 -55.32 32.34 -56 32 C-56 30.35 -56 28.7 -56 27 C-57.98 27.66 -59.96 28.32 -62 29 C-61.12 25.12 -61.12 25.12 -60 24 C-60.09 22.21 -60.09 22.21 -60.19 20.38 C-59.81 17.14 -59.15 16.14 -56.72 13.88 C-49.64 9.26 -45.02 8.7 -36.79 9.93 C-34.03 10.27 -34.03 10.27 -32.21 8.79 C-30.75 6.94 -30.75 6.94 -29 4 C-26.94 2.88 -26.94 2.88 -25 3 C-22.94 4.88 -22.94 4.88 -21 7 C-20.01 7.33 -19.02 7.66 -18 8 C-17.67 7.34 -17.34 6.68 -17 6 C-17.66 5.67 -18.32 5.34 -19 5 C-17.88 4.97 -16.76 4.95 -15.61 4.92 C-14.13 4.87 -12.66 4.81 -11.19 4.75 C-10.45 4.74 -9.71 4.72 -8.95 4.71 C-6.51 4.64 -6.51 4.64 -3 4 C-1.13 2.08 -1.13 2.08 0 0 Z " fill="#64B742" transform="translate(367,233)"/>
<path d="M0 0 C3.57 2.83 5.67 5.38 6.59 9.9 C6.84 12.61 6.99 15.28 7 18 C5.93 18.14 4.86 18.29 3.75 18.44 C1.08 18.84 -1.41 19.28 -4 20 C-5.32 17.69 -6.64 15.38 -8 13 C-11.34 12.93 -13.8 12.93 -17 14 C-17 14.66 -17 15.32 -17 16 C-19.96 15.39 -21.38 14.75 -24 13 C-26.32 12.61 -28.66 12.27 -31 12 C-29.76 5.66 -25.98 2.67 -21 -1 C-14.45 -4.86 -6.33 -3.7 0 0 Z " fill="#E71F23" transform="translate(347,253)"/>
<path d="M0 0 C0.66 0.66 1.32 1.32 2 2 C0.38 3.56 0.38 3.56 -2 5 C-5.25 4.69 -5.25 4.69 -8 4 C-8 4.66 -8 5.32 -8 6 C-7.43 6 -6.86 6.01 -6.28 6.01 C-0.52 6.3 2.55 7.62 6.79 11.53 C8 13 8 13 8 15 C8.66 15 9.32 15 10 15 C10 14.34 10 13.68 10 13 C10.99 12.67 11.98 12.34 13 12 C12.34 15.3 11.68 18.6 11 22 C12.98 22 14.96 22 17 22 C16.34 22.99 15.68 23.98 15 25 C14.01 25 13.02 25 12 25 C12 27.31 12 29.62 12 32 C9.04 33.48 6.26 33.06 3 33 C2.34 34.32 1.68 35.64 1 37 C-7.07 38.07 -11.59 34.61 -18 30 C-18.59 29.54 -19.18 29.08 -19.79 28.61 C-22.7 26.4 -23.88 25.99 -27.62 26.19 C-28.74 26.46 -29.85 26.72 -31 27 C-31.8 27.19 -32.61 27.37 -33.44 27.56 C-34.21 27.78 -34.21 27.78 -35 28 C-34.72 27.44 -34.43 26.88 -34.14 26.3 C-33.38 24.76 -32.65 23.21 -31.96 21.63 C-28.6 14.28 -24.52 9.27 -17 6 C-14.25 5.88 -14.25 5.88 -12 6 C-11.77 5.36 -11.55 4.72 -11.31 4.06 C-10 2 -10 2 -7.69 1.31 C-6.8 1.21 -5.91 1.11 -5 1 C-4.11 0.77 -3.23 0.55 -2.31 0.31 C-1.55 0.21 -0.79 0.11 0 0 Z M-26.87 17.22 C-28.09 19.14 -28.58 20.78 -29 23 C-27.93 23.1 -26.86 23.21 -25.75 23.31 C-22.04 23.99 -20.8 24.7 -18 27 C-17.01 27 -16.02 27 -15 27 C-15 26.34 -15 25.68 -15 25 C-12.03 24.67 -9.06 24.34 -6 24 C-4.68 26.31 -3.36 28.62 -2 31 C1.63 30.34 5.26 29.68 9 29 C8.9 21.39 8.38 16.97 2.89 11.53 C-1.5 7.98 -6.23 7.54 -11.7 7.69 C-18.35 8.58 -22.68 12.2 -26.87 17.22 Z " fill="#090E06" transform="translate(345,242)"/>
<path d="M0 0 C12.87 0 25.74 0 39 0 C35.98 1.51 33.02 2.8 29.87 4 C15.1 9.7 2.11 16.64 -7 30 C-8.32 31.67 -9.65 33.34 -11 35 C-9.48 27.21 -7.02 19.91 -4.38 12.44 C-2.93 8.33 -1.49 4.23 0 0 Z " fill="#969696" transform="translate(85,258)"/>
<path d="M0 0 C1.25 6.62 1.25 6.62 -1 10 C-0.15 9.48 0.69 8.97 1.56 8.44 C5.75 6.69 7.61 6.97 12 8 C15.21 10 15.21 10 18.38 12.44 C23.5 16.24 27.63 18.24 34 19 C34 19.33 34 19.66 34 20 C30.86 20.6 28.01 21 24.81 20.94 C21.79 20.75 21.79 20.75 19 23 C17.51 19.54 17.51 19.54 16 16 C14.02 16.33 12.04 16.66 10 17 C10.99 17 11.98 17 13 17 C15.38 18.74 15.95 19.8 16.69 22.69 C16.79 23.45 16.89 24.21 17 25 C18.36 24.54 18.36 24.54 19.75 24.06 C22.17 23.27 24.53 22.57 27 22 C28.98 24.97 28.98 24.97 31 28 C24.16 30.54 15.73 26.2 9.4 23.42 C2.34 19.83 -3.36 16.28 -7 9 C-7.13 6.33 -7.04 3.68 -7 1 C-4 0 -4 0 0 0 Z " fill="#11803D" transform="translate(311,260)"/>
<path d="M0 0 C4.04 2.69 7.45 5.34 9 10 C8.24 10.48 7.48 10.97 6.69 11.47 C-0.07 15.86 -6.14 20.44 -12 26 C-14 25 -14 25 -15.12 22.56 C-16.53 16.83 -17.04 11.36 -14.62 5.88 C-14.09 5.26 -13.55 4.64 -13 4 C-12.34 4 -11.68 4 -11 4 C-11 3.34 -11 2.68 -11 2 C-7.29 -0.38 -4.33 -0.65 0 0 Z " fill="#E81F23" transform="translate(414,244)"/>
<path d="M0 0 C39.27 0 78.54 0 119 0 C118.67 5.94 118.34 11.88 118 18 C117.67 18 117.34 18 117 18 C117 13.05 117 8.1 117 3 C115.67 3.02 114.33 3.04 112.96 3.06 C100.38 3.24 87.8 3.4 75.22 3.55 C68.76 3.62 62.29 3.7 55.82 3.8 C49.58 3.89 43.33 3.97 37.09 4.03 C34.71 4.06 32.33 4.09 29.95 4.13 C26.61 4.19 23.28 4.22 19.94 4.25 C18.47 4.28 18.47 4.28 16.97 4.31 C10.78 4.34 5.74 3.35 0 1 C0 0.67 0 0.34 0 0 Z " fill="#8A8B8B" transform="translate(181,259)"/>
<path d="M0 0 C-1.5 3 -1.5 3 -3 6 C-1.37 5.91 0.25 5.8 1.88 5.69 C2.78 5.63 3.68 5.57 4.62 5.51 C7.36 5.21 7.36 5.21 9 2 C14.75 2.88 14.75 2.88 17 4 C15.99 6.9 15.31 7.84 12.52 9.27 C-0.15 13.23 -12.84 14.08 -25 8 C-23.95 4.94 -23.06 4.04 -20.25 2.31 C-13.58 -0.38 -7.08 -0.11 0 0 Z " fill="#F9F9F9" transform="translate(261,330)"/>
<path d="M0 0 C7.14 3.17 7.14 3.17 9 7 C9.55 11.3 9.47 14.3 7 18 C5.91 17.83 4.81 17.67 3.69 17.5 C0.12 16.93 0.12 16.93 -3 17 C-4.46 18.54 -4.46 18.54 -5.69 20.5 C-6.34 21.47 -6.34 21.47 -7.01 22.47 C-7.34 22.97 -7.66 23.48 -8 24 C-9.32 23.34 -10.64 22.68 -12 22 C-11.5 18.27 -11.13 16.19 -9 13 C-10.32 11.68 -11.64 10.36 -13 9 C-11.78 5.34 -10.16 4.58 -6.86 2.79 C-4.49 1.78 -2.54 1.69 0 2 C0 1.34 0 0.68 0 0 Z " fill="#070906" transform="translate(426,258)"/>
<path d="M0 0 C1.98 0 3.96 0 6 0 C6 1.65 6 3.3 6 5 C6.76 4.69 7.53 4.38 8.31 4.06 C10.19 3.32 12.09 2.64 14 2 C14.66 4.31 15.32 6.62 16 9 C17.32 9 18.64 9 20 9 C20.66 7.35 21.32 5.7 22 4 C24.31 4.33 26.62 4.66 29 5 C29 4.34 29 3.68 29 3 C29.99 3 30.98 3 32 3 C32.5 8.94 32.5 8.94 33 15 C29.27 14.5 27.19 14.13 24 12 C23.48 12.5 22.97 12.99 22.44 13.5 C19.05 15.58 16.91 15.56 13 15 C10.69 12.62 10.69 12.62 9 10 C8.34 9.34 7.68 8.68 7 8 C6.42 8.35 5.85 8.7 5.25 9.06 C3 10 3 10 -1 9 C-0.67 6.03 -0.34 3.06 0 0 Z " fill="#14833E" transform="translate(373,272)"/>
<path d="M0 0 C1.3 0.19 2.6 0.37 3.94 0.56 C4.95 0.71 5.96 0.85 7 1 C6.76 2.91 6.76 2.91 6 5 C4.14 5.87 4.14 5.87 1.81 6.44 C-3.89 8.15 -7.48 10.38 -10.48 15.55 C-11.72 18.01 -12.89 20.48 -14 23 C-14.66 22.67 -15.32 22.34 -16 22 C-16 20.35 -16 18.7 -16 17 C-17.98 17.66 -19.96 18.32 -22 19 C-21.12 15.12 -21.12 15.12 -20 14 C-20.06 12.8 -20.12 11.61 -20.19 10.38 C-19.83 7 -19.15 6.13 -16.51 3.88 C-10.8 0.35 -6.72 -2.11 0 0 Z " fill="#65B842" transform="translate(327,243)"/>
<path d="M0 0 C3.34 1.17 5.77 2.19 8 5 C8 5.66 8 6.32 8 7 C8.66 7 9.32 7 10 7 C10 6.34 10 5.68 10 5 C10.99 4.67 11.98 4.34 13 4 C12.34 7.3 11.68 10.6 11 14 C12.98 14 14.96 14 17 14 C16.34 14.99 15.68 15.98 15 17 C14.01 17 13.02 17 12 17 C12 19.31 12 21.62 12 24 C9.59 25.2 8.05 25.1 5.38 25.06 C4.15 25.05 4.15 25.05 2.9 25.04 C2.27 25.02 1.65 25.01 1 25 C0.67 25.66 0.34 26.32 0 27 C-6.67 26.72 -10.71 23.92 -16 20 C-15 17 -15 17 -12 15 C-9 14.62 -9 14.62 -6 15 C-3.74 17.26 -3.02 18.95 -2 22 C-1.23 21.75 -1.23 21.75 -0.44 21.5 C2.73 20.85 5.77 20.94 9 21 C8.32 13.48 6.9 8.9 1.46 3.56 C0 2 0 2 0 0 Z " fill="#130F09" transform="translate(345,250)"/>
<path d="M0 0 C0.33 0 0.66 0 1 0 C1.33 3.3 1.66 6.6 2 10 C2.66 10 3.32 10 4 10 C4.33 9.34 4.66 8.68 5 8 C5.66 9.98 6.32 11.96 7 14 C8.27 13.07 9.54 12.13 10.81 11.19 C11.52 10.67 12.23 10.14 12.96 9.61 C14.79 8.17 16.4 6.68 18 5 C18.66 5.33 19.32 5.66 20 6 C20 6.99 20 7.98 20 9 C18.35 10.02 16.68 11.02 15 12 C11.44 15.01 8.85 17.29 8 22 C5.69 22 3.38 22 1 22 C0.01 24.48 0.01 24.48 -1 27 C-5.88 26.12 -5.88 26.12 -7 25 C-7.04 23 -7.04 21 -7 19 C-7.58 19.5 -8.15 19.99 -8.75 20.5 C-11 22 -11 22 -15 22 C-15 20.35 -15 18.7 -15 17 C-15.78 17.19 -16.57 17.37 -17.38 17.56 C-20 18 -20 18 -22 17 C-21.67 15.68 -21.34 14.36 -21 13 C-19.68 12.67 -18.36 12.34 -17 12 C-17 12.66 -17 13.32 -17 14 C-16.36 14.29 -15.72 14.58 -15.06 14.88 C-13 16 -13 16 -12 18 C-11.34 17.34 -10.68 16.68 -10 16 C-5.44 16.56 -5.44 16.56 -4 18 C-3.96 20 -3.96 22 -4 24 C-3.34 24 -2.68 24 -2 24 C-1.88 23.38 -1.75 22.76 -1.62 22.12 C-1 20 -1 20 1 18 C2.32 18 3.64 18 5 18 C4.34 16.02 3.68 14.04 3 12 C0.52 11.5 0.52 11.5 -2 11 C-1.86 9.35 -1.71 7.71 -1.56 6.06 C-1.48 5.15 -1.4 4.23 -1.32 3.29 C-1 1 -1 1 0 0 Z " fill="#0A1108" transform="translate(394,255)"/>
<path d="M0 0 C3.12 1.69 3.12 1.69 5 4 C5.31 6.75 5.31 6.75 5 9 C1.71 9.8 0.29 10.1 -3 9 C-4 12.31 -4.1 15.3 -4.06 18.75 C-4.05 20.23 -4.05 20.23 -4.04 21.73 C-4.02 22.48 -4.01 23.23 -4 24 C-4.66 23.67 -5.32 23.34 -6 23 C-6.48 21.07 -6.48 21.07 -6.75 18.69 C-6.85 17.91 -6.95 17.13 -7.05 16.32 C-6.99 13.7 -6.33 12.24 -5 10 C-5.52 10.33 -6.03 10.66 -6.56 11 C-9.78 12.32 -12.56 12.13 -16 12 C-15.76 7.97 -15.3 5.46 -13.06 2.06 C-8.73 -0.86 -5.08 -0.9 0 0 Z " fill="#F4F4F4" transform="translate(372,252)"/>
<path d="M0 0 C7.92 0 15.84 0 24 0 C20.64 2.52 17.66 4.25 13.94 6.12 C7.21 9.68 1.71 13.95 -4 19 C-5.79 14.83 -4.01 11.25 -2.56 7.25 C-1.72 4.86 -0.87 2.46 0 0 Z " fill="#F8F8F8" transform="translate(87,262)"/>
<path d="M0 0 C1.1 0.01 1.1 0.01 2.22 0.03 C4 0.05 5.78 0.09 7.56 0.12 C7.56 0.79 7.56 1.44 7.56 2.12 C6.58 2.19 5.59 2.25 4.57 2.31 C3.29 2.39 2.01 2.48 0.69 2.56 C-0.59 2.64 -1.86 2.72 -3.18 2.81 C-6.32 2.92 -6.32 2.92 -8.44 4.12 C-8.11 4.79 -7.78 5.44 -7.44 6.12 C-9.26 6.53 -9.26 6.53 -11.12 6.94 C-14.66 7.82 -17.46 8.96 -20.44 11.12 C-20.77 11.79 -21.1 12.44 -21.44 13.12 C-19.46 13.79 -17.48 14.44 -15.44 15.12 C-15.44 16.12 -15.44 17.11 -15.44 18.12 C-14.78 18.45 -14.12 18.79 -13.44 19.12 C-15.02 19.21 -16.6 19.26 -18.19 19.31 C-19.51 19.36 -19.51 19.36 -20.86 19.42 C-23.88 19.07 -25.19 18.12 -27.44 16.12 C-26.69 8.38 -26.69 8.38 -24.44 6.12 C-24.44 6.79 -24.44 7.44 -24.44 8.12 C-23.87 7.72 -23.3 7.31 -22.71 6.88 C-21.94 6.34 -21.17 5.81 -20.38 5.25 C-19.24 4.45 -19.24 4.45 -18.09 3.63 C-12.2 0.29 -6.58 -0.16 0 0 Z " fill="#1B1C1C" transform="translate(257.4375,324.875)"/>
<path d="M0 0 C1.69 0.97 3.34 2 4.99 3.04 C3.69 4.08 2.34 5.07 0.99 6.04 C0.02 6.76 -0.95 7.48 -1.95 8.23 C-7.15 11.22 -13.22 10.35 -19.01 10.04 C-17.52 5.08 -15.99 2.44 -12.01 -0.96 C-7.74 -2.38 -4.09 -1.96 0 0 Z " fill="#E21E22" transform="translate(380.01171875,239.9609375)"/>
<path d="M0 0 C2.94 1.56 2.94 1.56 5 4 C5.81 7.75 5.81 7.75 6 11 C4.02 11.99 4.02 11.99 2 13 C1.44 12.55 0.89 12.09 0.31 11.62 C-2.07 9.95 -4.29 9.06 -7 8 C-8.68 7.03 -10.35 6.03 -12 5 C-10.07 -0.8 -5.39 -0.83 0 0 Z " fill="#EEEEEE" transform="translate(427,261)"/>
<path d="M0 0 C4.2 -0.54 6.28 0.59 9.61 3.1 C10.15 3.52 10.69 3.94 11.25 4.38 C16.42 8.19 20.59 10.24 27 11 C27 11.33 27 11.66 27 12 C23.86 12.6 21.01 13 17.81 12.94 C14.79 12.75 14.79 12.75 12 15 C11.01 12.03 10.02 9.06 9 6 C6.36 6.33 3.72 6.66 1 7 C0.67 4.69 0.34 2.38 0 0 Z " fill="#15823C" transform="translate(318,268)"/>
<path d="M0 0 C0.33 0 0.66 0 1 0 C1.33 3.3 1.66 6.6 2 10 C2.66 10 3.32 10 4 10 C4.33 9.34 4.66 8.68 5 8 C5.66 9.98 6.32 11.96 7 14 C8.27 13.07 9.54 12.13 10.81 11.19 C11.52 10.67 12.23 10.14 12.96 9.61 C14.79 8.17 16.4 6.68 18 5 C18.66 5.33 19.32 5.66 20 6 C20 6.99 20 7.98 20 9 C18.35 10.02 16.68 11.02 15 12 C13.45 13.58 11.97 15.21 10.53 16.89 C9 18 9 18 6.88 17.83 C6.26 17.55 5.64 17.28 5 17 C4.69 16.18 4.38 15.35 4.06 14.5 C3.71 13.68 3.36 12.85 3 12 C0.45 11.11 0.45 11.11 -2 11 C-1.86 9.35 -1.71 7.71 -1.56 6.06 C-1.48 5.15 -1.4 4.23 -1.32 3.29 C-1 1 -1 1 0 0 Z " fill="#120B05" transform="translate(394,255)"/>
<path d="M0 0 C0.99 0 1.98 0 3 0 C2.38 3.47 1.05 5.59 -1.06 8.38 C-1.69 9.21 -2.32 10.05 -2.97 10.91 C-3.64 11.78 -4.31 12.66 -5 13.56 C-5.68 14.46 -6.35 15.35 -7.05 16.27 C-11.89 22.63 -16.83 28.9 -22 35 C-22.66 34.67 -23.32 34.34 -24 34 C-23.39 33.24 -22.79 32.47 -22.16 31.68 C-16.5 24.47 -11.25 17.08 -6.23 9.41 C-5.85 8.84 -5.48 8.28 -5.09 7.69 C-4.35 6.55 -3.63 5.39 -2.93 4.23 C-1.9 2.56 -1.9 2.56 0 0 Z " fill="#C0C0C0" transform="translate(289,297)"/>
<path d="M0 0 C0.53 0.67 1.06 1.33 1.61 2.02 C3.59 1.36 5.57 0.7 7.61 0.02 C7.28 1.01 6.95 2 6.61 3.02 C7.27 3.35 7.93 3.68 8.61 4.02 C7.97 4.63 7.33 5.25 6.67 5.89 C4.57 7.84 4.57 7.84 3.61 10.02 C2.95 10.02 2.29 10.02 1.61 10.02 C0.77 8.87 0.77 8.87 -0.08 7.7 C-3.86 3.31 -8.77 1.87 -14.39 1.02 C-14.39 0.36 -14.39 -0.3 -14.39 -0.98 C-12.48 -1.26 -10.56 -1.5 -8.64 -1.73 C-7.57 -1.87 -6.51 -2.01 -5.41 -2.16 C-2.39 -1.98 -2.39 -1.98 0 0 Z " fill="#0C7C3D" transform="translate(351.390625,246.984375)"/>
<path d="M0 0 C0.93 0.17 1.86 0.33 2.81 0.5 C7.86 1.24 12.91 1.08 18 1 C17.67 1.99 17.34 2.98 17 4 C15.35 4 13.7 4 12 4 C11.67 4.99 11.34 5.98 11 7 C9.4 7.05 7.79 7.09 6.19 7.12 C5.29 7.15 4.4 7.17 3.48 7.2 C1 7 1 7 -2 5 C-1.34 3.35 -0.68 1.7 0 0 Z " fill="#FDDA00" transform="translate(138,336)"/>
<path d="M0 0 C2.56 0.94 2.56 0.94 4.38 4 C4.77 4.97 5.16 5.94 5.56 6.94 C6.22 6.28 6.88 5.62 7.56 4.94 C11.62 4.59 13.11 4.64 16.56 6.94 C18.14 9.3 18.66 10.35 18.19 13.19 C17.88 14.05 17.88 14.05 17.56 14.94 C14.55 13.43 13.95 10.91 12.56 7.94 C9.81 8.44 9.81 8.44 7.56 9.94 C5.9 9.98 4.23 9.98 2.56 9.94 C1.57 7.63 0.58 5.32 -0.44 2.94 C-1.76 3.27 -3.08 3.6 -4.44 3.94 C-4.44 2.95 -4.44 1.96 -4.44 0.94 C-2.44 -0.06 -2.44 -0.06 0 0 Z " fill="#060C05" transform="translate(325.4375,275.0625)"/>
<path d="M0 0 C0.33 1.65 0.66 3.3 1 5 C1.91 4.69 2.81 4.38 3.75 4.06 C6.17 3.27 8.53 2.57 11 2 C12.32 3.98 13.64 5.96 15 8 C11.04 9.54 8.09 8.43 4.12 7.25 C2.33 6.73 2.33 6.73 0.51 6.2 C-2.85 5.05 -5.87 3.66 -9 2 C-5.56 -0.29 -4.01 -0.18 0 0 Z " fill="#62B340" transform="translate(327,280)"/>
<path d="M0 0 C2.44 1 2.44 1 3.75 3.56 C4.09 4.77 4.09 4.77 4.44 6 C5.14 5.48 5.84 4.97 6.56 4.44 C10.05 2.7 11.74 3.05 15.44 4 C15.44 4.99 15.44 5.98 15.44 7 C14.49 6.96 13.54 6.92 12.56 6.88 C9.34 6.65 9.34 6.65 7.44 9 C4.81 9.12 4.81 9.12 2.44 9 C0.95 6.03 0.95 6.03 -0.56 3 C-1.16 3.82 -1.76 4.65 -2.38 5.5 C-3.1 6.32 -3.82 7.15 -4.56 8 C-5.55 8 -6.54 8 -7.56 8 C-4.75 0 -4.75 0 0 0 Z " fill="#0B1207" transform="translate(356.5625,278)"/>
<path d="M0 0 C1.33 1.33 2.67 2.67 4 4 C4.99 4.33 5.98 4.66 7 5 C7.69 7.06 7.69 7.06 8 9 C6.35 9.33 4.7 9.66 3 10 C3 9.01 3 8.02 3 7 C1.95 7.22 1.95 7.22 0.88 7.44 C-2.08 8.01 -5.03 8.52 -8 9 C-8 5.06 -6.57 3.87 -4 1 C-2 0 -2 0 0 0 Z " fill="#50A63E" transform="translate(342,236)"/>
<path d="M0 0 C2.31 0.33 4.62 0.66 7 1 C6.67 3.64 6.34 6.28 6 9 C4.38 9.75 4.38 9.75 2 10 C-1.85 7.92 -4.5 6.21 -6 2 C-4.02 2 -2.04 2 0 2 C0 1.34 0 0.68 0 0 Z " fill="#D9BE02" transform="translate(140,292)"/>
<path d="M0 0 C0.66 0.33 1.32 0.66 2 1 C2.38 2.32 2.7 3.66 3 5 C3.65 6.67 4.31 8.34 5 10 C4.34 10 3.68 10 3 10 C2.67 10.66 2.34 11.32 2 12 C1.6 10.82 1.6 10.82 1.19 9.62 C0.15 6.72 0.15 6.72 -3 5 C-5.75 4.76 -5.75 4.76 -8.69 4.88 C-9.68 4.89 -10.68 4.91 -11.7 4.93 C-12.46 4.95 -13.22 4.98 -14 5 C-13.67 3.68 -13.34 2.36 -13 1 C-11.72 1.02 -11.72 1.02 -10.41 1.04 C-8.75 1.05 -8.75 1.05 -7.06 1.06 C-5.41 1.08 -5.41 1.08 -3.72 1.1 C-1.09 1.31 -1.09 1.31 0 0 Z " fill="#1E1A17" transform="translate(375,248)"/>
<path d="M0 0 C1.98 0 3.96 0 6 0 C6 1.65 6 3.3 6 5 C6.99 5.33 7.98 5.66 9 6 C6.25 8.06 6.25 8.06 3 10 C1.68 9.67 0.36 9.34 -1 9 C-0.67 6.03 -0.34 3.06 0 0 Z " fill="#0F7E3C" transform="translate(373,272)"/>
<path d="M0 0 C0.99 0.33 1.98 0.66 3 1 C3 1.66 3 2.32 3 3 C2.07 3.37 1.14 3.74 0.19 4.12 C-3.6 6.36 -4.46 7.94 -6 12 C-6.17 12.91 -6.33 13.81 -6.5 14.75 C-7 17 -7 17 -10 19 C-10 11.45 -8.75 8.18 -3.69 2.64 C-2 1 -2 1 0 0 Z " fill="#130E06" transform="translate(368,236)"/>
<path d="M0 0 C0 0.66 0 1.32 0 2 C-0.85 2.06 -0.85 2.06 -1.71 2.12 C-4.31 2.31 -6.9 2.53 -9.5 2.75 C-10.83 2.84 -10.83 2.84 -12.19 2.94 C-18.38 3.48 -22.54 5.07 -28 8 C-28.66 7.67 -29.32 7.34 -30 7 C-21.31 -1.13 -11.13 -0.37 0 0 Z " fill="#DFDFDF" transform="translate(265,325)"/>
<path d="M0 0 C1.98 0.66 3.96 1.32 6 2 C5.34 3.98 4.68 5.96 4 8 C2.4 7.89 0.79 7.76 -0.81 7.62 C-1.71 7.56 -2.6 7.49 -3.52 7.41 C-6 7 -6 7 -9 5 C-9 4.34 -9 3.68 -9 3 C-6.53 3.99 -6.53 3.99 -4 5 C-2.68 3.35 -1.36 1.7 0 0 Z " fill="#D3B701" transform="translate(173,307)"/>
<path d="M0 0 C2.64 0 5.28 0 8 0 C8.98 1.76 9.95 3.52 10.93 5.27 C12.01 7.16 12.01 7.16 14 9 C7.83 8.68 3.83 5.51 -1 2 C-0.67 1.34 -0.34 0.68 0 0 Z " fill="#60AE3E" transform="translate(330,268)"/>
<path d="M0 0 C0 0.66 0 1.32 0 2 C-0.52 2.22 -1.04 2.44 -1.57 2.66 C-6.79 5.04 -9.6 7.4 -13 12 C-13.66 12.66 -14.32 13.32 -15 14 C-15.66 14 -16.32 14 -17 14 C-15.13 7.84 -11.19 3.38 -5.81 0 C-3 -1 -3 -1 0 0 Z " fill="#131008" transform="translate(331,249)"/>
<path d="M0 0 C0.91 0.62 1.81 1.24 2.75 1.88 C6.04 4.12 6.04 4.12 10 6 C8.02 8.97 6.04 11.94 4 15 C3.01 14.01 2.02 13.02 1 12 C1.66 10.35 2.32 8.7 3 7 C1.68 5.68 0.36 4.36 -1 3 C-0.67 2.01 -0.34 1.02 0 0 Z " fill="#30322F" transform="translate(414,264)"/>
<path d="M0 0 C2.97 0 5.94 0 9 0 C10 3 10 3 9 6 C7.02 6.33 5.04 6.66 3 7 C0 3.38 0 3.38 0 0 Z " fill="#FDDA00" transform="translate(135,310)"/>
<path d="M0 0 C0.89 0.1 1.77 0.21 2.69 0.31 C3.02 0.97 3.35 1.63 3.69 2.31 C2.06 4.81 2.06 4.81 -0.31 7.31 C-3.38 7.56 -3.38 7.56 -6.31 7.31 C-7.3 7.64 -8.29 7.97 -9.31 8.31 C-7.7 3.47 -5.21 0.49 0 0 Z " fill="#C0A702" transform="translate(191.3125,321.6875)"/>
<path d="M0 0 C0.62 1.81 0.62 1.81 1 4 C0.01 5.49 0.01 5.49 -1 7 C-4.12 7.19 -4.12 7.19 -7 7 C-7.66 5.35 -8.32 3.7 -9 2 C-3.38 0 -3.38 0 0 0 Z " fill="#FDDA00" transform="translate(196,301)"/>
<path d="M0 0 C2.19 -0.31 2.19 -0.31 5 0 C7.81 2.5 7.81 2.5 10 5 C7.03 5.66 4.06 6.32 1 7 C0.67 4.69 0.34 2.38 0 0 Z " fill="#61B542" transform="translate(318,268)"/>
<path d="M0 0 C0.66 0.33 1.32 0.66 2 1 C1.67 1.66 1.34 2.32 1 3 C4.46 2.5 4.46 2.5 8 2 C8 2.66 8 3.32 8 4 C6.42 4.43 6.42 4.43 4.81 4.88 C1.77 5.77 -1.09 6.76 -4 8 C-4.33 7.01 -4.66 6.02 -5 5 C-3.35 3.35 -1.7 1.7 0 0 Z " fill="#080404" transform="translate(418,256)"/>
<path d="M0 0 C0.66 0 1.32 0 2 0 C1.12 4.88 1.12 4.88 0 6 C-2.67 6.14 -5.32 6.04 -8 6 C-8.33 7.98 -8.66 9.96 -9 12 C-9.33 12 -9.66 12 -10 12 C-10.12 5.25 -10.12 5.25 -9 3 C-7.89 3.06 -6.77 3.12 -5.62 3.19 C-4.43 3.13 -3.23 3.06 -2 3 C-1.34 2.01 -0.68 1.02 0 0 Z " fill="#0C0D0B" transform="translate(378,258)"/>
<path d="M0 0 C0 0.66 0 1.32 0 2 C-0.76 2.25 -1.52 2.51 -2.3 2.77 C-3.29 3.11 -4.29 3.46 -5.31 3.81 C-6.3 4.15 -7.28 4.49 -8.3 4.83 C-10.9 5.96 -12.11 6.97 -14 9 C-14.66 9 -15.32 9 -16 9 C-14.49 4.78 -11.76 3.23 -8 1 C-5.07 0.02 -3.04 -0.08 0 0 Z " fill="#090A0A" transform="translate(249,324)"/>
<path d="M0 0 C3.4 1.06 6.01 2.01 9 4 C9 5.32 9 6.64 9 8 C5.41 7.7 4.22 7.23 1.69 4.56 C0 2 0 2 0 0 Z " fill="#EBCD02" transform="translate(124,323)"/>
<path d="M0 0 C0.33 1.65 0.66 3.3 1 5 C1.99 5 2.98 5 4 5 C3.67 5.66 3.34 6.32 3 7 C-0.96 5.35 -4.92 3.7 -9 2 C-5.56 -0.29 -4.01 -0.18 0 0 Z " fill="#59A53C" transform="translate(327,280)"/>
<path d="M0 0 C0.33 2.64 0.66 5.28 1 8 C-2.8 6.51 -4.61 4.24 -7 1 C-3.38 -1.12 -3.38 -1.12 0 0 Z " fill="#60B140" transform="translate(312,270)"/>
<path d="M0 0 C0.93 3.01 1.04 3.87 0 7 C-1.65 7 -3.3 7 -5 7 C-5.66 5.68 -6.32 4.36 -7 3 C-4.69 2.01 -2.38 1.02 0 0 Z " fill="#FDDA00" transform="translate(169,328)"/>
<path d="M0 0 C0.99 0.33 1.98 0.66 3 1 C2.23 1.9 1.46 2.81 0.66 3.74 C-0.35 4.93 -1.36 6.12 -2.38 7.31 C-2.88 7.91 -3.39 8.5 -3.91 9.12 C-4.4 9.69 -4.89 10.27 -5.4 10.86 C-5.85 11.39 -6.3 11.92 -6.76 12.47 C-7.93 13.91 -8.97 15.45 -10 17 C-10.66 16.67 -11.32 16.34 -12 16 C-11.3 15.1 -10.6 14.19 -9.88 13.26 C-8.96 12.07 -8.04 10.88 -7.12 9.69 C-6.66 9.09 -6.2 8.5 -5.73 7.88 C-3.74 5.3 -1.81 2.72 0 0 Z " fill="#B3B3B3" transform="translate(277,315)"/>
<path d="M0 0 C0.33 0.66 0.66 1.32 1 2 C3.36 2.47 3.36 2.47 6.06 2.62 C7.44 2.74 7.44 2.74 8.85 2.85 C9.56 2.9 10.27 2.95 11 3 C10.01 4.49 10.01 4.49 9 6 C4.38 5.34 -0.24 4.68 -5 4 C-3.74 1.49 -2.5 1.13 0 0 Z " fill="#040301" transform="translate(335,246)"/>
<path d="M0 0 C1.13 0.96 2.25 1.92 3.38 2.88 C4 3.41 4.63 3.94 5.27 4.49 C6.56 5.61 7.79 6.79 9 8 C2.95 8.2 2.95 8.2 1 8 C0.34 7.34 -0.32 6.68 -1 6 C-0.62 2.88 -0.62 2.88 0 0 Z " fill="#EFEFEF" transform="translate(231,335)"/>
<path d="M0 0 C1.65 0.33 3.3 0.66 5 1 C5.62 3.38 5.62 3.38 6 6 C5.34 6.66 4.68 7.32 4 8 C2.02 6.35 0.04 4.7 -2 3 C-1.34 2.01 -0.68 1.02 0 0 Z " fill="#E1E1E1" transform="translate(278,323)"/>
<path d="M0 0 C1.98 1.65 3.96 3.3 6 5 C4 7 4 7 0.88 7.12 C-0.55 7.06 -0.55 7.06 -2 7 C-1.12 1.12 -1.12 1.12 0 0 Z " fill="#FDDA00" transform="translate(191,286)"/>
<path d="M0 0 C2.69 -0.25 2.69 -0.25 5 0 C5.33 0.99 5.66 1.98 6 3 C4.93 3.27 3.86 3.54 2.75 3.81 C-0.57 4.86 -2.44 5.75 -5 8 C-5 7.34 -5 6.68 -5 6 C-6.98 6 -8.96 6 -11 6 C-11 5.67 -11 5.34 -11 5 C-9.11 4.88 -9.11 4.88 -7.19 4.75 C-3.72 4.41 -3.72 4.41 -1.31 1.94 C-0.66 0.98 -0.66 0.98 0 0 Z " fill="#509335" transform="translate(367,233)"/>
<path d="M0 0 C0.33 0 0.66 0 1 0 C1.66 3.96 2.32 7.92 3 12 C1.35 11.67 -0.3 11.34 -2 11 C-1.86 9.35 -1.71 7.71 -1.56 6.06 C-1.48 5.15 -1.4 4.23 -1.32 3.29 C-1 1 -1 1 0 0 Z " fill="#D52020" transform="translate(394,255)"/>
<path d="M0 0 C0.33 0.66 0.66 1.32 1 2 C-0.99 2.49 -2.97 2.98 -4.96 3.46 C-6.66 3.91 -8.33 4.44 -10 5 C-9.81 3.12 -9.81 3.12 -9 1 C-5.76 -0.84 -3.49 -1.5 0 0 Z " fill="#262626" transform="translate(249,329)"/>
<path d="M0 0 C0.66 0 1.32 0 2 0 C2.66 0.99 3.32 1.98 4 3 C6.06 3.72 6.06 3.72 8 4 C8 4.99 8 5.98 8 7 C2.25 6.25 2.25 6.25 0 4 C0 2.68 0 1.36 0 0 Z " fill="#0B1509" transform="translate(398,280)"/>
<path d="M0 0 C1.98 0.66 3.96 1.32 6 2 C6 3.65 6 5.3 6 7 C5.34 7 4.68 7 4 7 C4 6.34 4 5.68 4 5 C2.35 4.67 0.7 4.34 -1 4 C-0.67 2.68 -0.34 1.36 0 0 Z " fill="#B39D03" transform="translate(117,300)"/>
<path d="M0 0 C1.21 0.04 1.21 0.04 2.45 0.08 C3.06 0.12 3.68 0.15 4.31 0.19 C3.31 2.19 3.31 2.19 1.69 2.81 C-1.45 3.31 -4.51 3.25 -7.69 3.19 C-5.27 0.2 -3.79 -0.16 0 0 Z " fill="#FCDB01" transform="translate(186.6875,335.8125)"/>
<path d="M0 0 C-0.66 1.98 -1.32 3.96 -2 6 C-2.99 6 -3.98 6 -5 6 C-5.66 5.01 -6.32 4.02 -7 3 C-2.25 0 -2.25 0 0 0 Z " fill="#FDDA00" transform="translate(172,290)"/>
<path d="M0 0 C1.32 0.66 2.64 1.32 4 2 C3.67 3.32 3.34 4.64 3 6 C1.68 6 0.36 6 -1 6 C-1.62 4.12 -1.62 4.12 -2 2 C-1.34 1.34 -0.68 0.68 0 0 Z " fill="#090E06" transform="translate(416,275)"/>
<path d="M0 0 C1.19 1.62 1.19 1.62 2 4 C0.78 7.4 -0.09 9.43 -3.19 11.38 C-3.79 11.58 -4.38 11.79 -5 12 C-3.41 7.96 -1.72 3.98 0 0 Z " fill="#D2D3D3" transform="translate(229,325)"/>
<path d="M0 0 C2.97 0.5 2.97 0.5 6 1 C6 4 6 4 4.5 5.69 C4 6.12 3.51 6.55 3 7 C2.01 4.69 1.02 2.38 0 0 Z " fill="#FCDA00" transform="translate(110,309)"/>
<path d="M0 0 C0.66 0.33 1.32 0.66 2 1 C2 1.66 2 2.32 2 3 C-0.81 4.56 -0.81 4.56 -4 6 C-4.99 5.67 -5.98 5.34 -7 5 C-4.88 2.67 -2.95 1.14 0 0 Z " fill="#180704" transform="translate(383,244)"/>
<path d="M0 0 C0 1.32 0 2.64 0 4 C-2.97 3.5 -2.97 3.5 -6 3 C-6.33 2.01 -6.66 1.02 -7 0 C-3.99 -0.93 -3.13 -1.04 0 0 Z " fill="#14240E" transform="translate(402,273)"/>
<path d="M0 0 C1.19 1.69 1.19 1.69 2 4 C0.62 6.75 0.62 6.75 -1 9 C-1.66 8.67 -2.32 8.34 -3 8 C-1.12 1.12 -1.12 1.12 0 0 Z " fill="#060B07" transform="translate(360,246)"/>
<path d="M0 0 C-2.17 2.5 -3.73 3.44 -7 4 C-7 2.68 -7 1.36 -7 0 C-3.87 -1.04 -3.01 -0.93 0 0 Z " fill="#FDDA00" transform="translate(158,310)"/>
<path d="M0 0 C1.56 1.75 1.56 1.75 3 4 C2.69 6.25 2.69 6.25 2 8 C1.34 7.67 0.68 7.34 0 7 C-1.26 2.52 -1.26 2.52 0 0 Z " fill="#172B10" transform="translate(341,282)"/>
<path d="M0 0 C5.44 0.99 5.44 0.99 11 2 C11 2.33 11 2.66 11 3 C6.98 3.84 3.98 4.05 0 3 C0 2.01 0 1.02 0 0 Z " fill="#468430" transform="translate(334,277)"/>
<path d="M0 0 C2.48 0.99 2.48 0.99 5 2 C4.01 3.49 4.01 3.49 3 5 C0.36 4.34 -2.28 3.68 -5 3 C-5 2.67 -5 2.34 -5 2 C-3.35 2 -1.7 2 0 2 C0 1.34 0 0.68 0 0 Z " fill="#292E28" transform="translate(426,258)"/>
<path d="M0 0 C-0.33 0.99 -0.66 1.98 -1 3 C-3.31 3 -5.62 3 -8 3 C-8 2.34 -8 1.68 -8 1 C-2.25 0 -2.25 0 0 0 Z " fill="#353507" transform="translate(156,337)"/>
<path d="M0 0 C2.49 1.2 4.68 2.45 7 4 C7 4.66 7 5.32 7 6 C2.32 4.52 2.32 4.52 0.69 1.88 C0.46 1.26 0.23 0.64 0 0 Z " fill="#2D2704" transform="translate(124,323)"/>
<path d="M0 0 C1.62 2.57 2.04 3.68 1.62 6.75 C1.42 7.49 1.21 8.24 1 9 C0.01 8.34 -0.98 7.68 -2 7 C-1.34 4.69 -0.68 2.38 0 0 Z " fill="#54A13B" transform="translate(370,273)"/>
<path d="M0 0 C0.99 0.33 1.98 0.66 3 1 C4.19 3.56 4.19 3.56 5 6 C4.01 6 3.02 6 2 6 C0 3 0 3 0 0 Z " fill="#0E160C" transform="translate(430,261)"/>
<path d="M0 0 C0.33 0.99 0.66 1.98 1 3 C1.66 3 2.32 3 3 3 C3 4.65 3 6.3 3 8 C2.01 7.67 1.02 7.34 0 7 C0 4.69 0 2.38 0 0 Z " fill="#0F1B0A" transform="translate(434,255)"/>
<path d="M0 0 C1.98 0.66 3.96 1.32 6 2 C5.67 2.99 5.34 3.98 5 5 C3.35 4.67 1.7 4.34 0 4 C-0.33 3.01 -0.66 2.02 -1 1 C-0.67 0.67 -0.34 0.34 0 0 Z " fill="#121F0C" transform="translate(409,240)"/>
</svg>
