<?xml version="1.0" standalone="no"?>
<!DOCTYPE svg PUBLIC "-//W3C//DTD SVG 20010904//EN"
 "http://www.w3.org/TR/2001/REC-SVG-20010904/DTD/svg10.dtd">
<svg version="1.0" xmlns="http://www.w3.org/2000/svg"
 width="500.000000pt" height="500.000000pt" viewBox="0 0 500.000000 500.000000"
 preserveAspectRatio="xMidYMid meet">

<g transform="translate(0.000000,500.000000) scale(0.100000,-0.100000)"
fill="#000000" stroke="none">
<path d="M1850 3995 l0 -775 655 0 655 0 0 775 0 775 -655 0 -655 0 0 -775z
m1270 0 l0 -735 -615 0 -615 0 0 735 0 735 615 0 615 0 0 -735z"/>
<path d="M1910 4000 l0 -720 595 0 595 0 0 720 0 720 -595 0 -595 0 0 -720z
m686 439 c26 -9 26 -10 -33 -48 -219 -141 -254 -432 -75 -624 26 -27 69 -62
95 -77 l49 -28 -52 -12 c-283 -68 -554 182 -502 462 32 171 158 303 324 338
49 10 155 4 194 -11z m291 -341 c-3 -8 -6 -5 -6 6 -1 11 2 17 5 13 3 -3 4 -12
1 -19z m0 -120 c-3 -8 -6 -5 -6 6 -1 11 2 17 5 13 3 -3 4 -12 1 -19z m-77
-181 c0 -2 -19 -21 -42 -42 l-43 -40 40 43 c36 39 45 47 45 39z"/>
<path d="M3656 2679 c-39 -30 -204 -49 -218 -25 -13 24 -33 20 -72 -15 -41
-36 -85 -51 -110 -37 -24 13 -55 4 -117 -35 l-52 -32 -1146 -5 -1146 -5 -66
-165 c-228 -567 -445 -1170 -514 -1430 -21 -81 -25 -117 -25 -242 l0 -147 57
-11 c32 -6 66 -14 76 -16 15 -5 17 -24 17 -215 l0 -209 25 0 25 0 0 206 c0
191 1 205 18 201 9 -3 40 -8 67 -12 105 -14 95 9 95 -207 0 -169 2 -189 16
-184 9 3 20 6 25 6 5 0 9 79 9 185 l0 186 33 -6 c17 -3 102 -12 188 -20 125
-11 267 -13 715 -8 589 6 897 -3 1204 -35 249 -26 721 -20 1540 20 l45 2 3
-167 2 -168 28 3 27 3 3 157 3 158 84 0 85 0 0 -161 c0 -143 2 -160 16 -155 9
3 20 6 25 6 4 0 10 69 11 153 l3 152 79 6 c61 4 81 9 92 24 11 14 14 62 14
201 0 165 -2 190 -25 270 -72 248 -206 645 -320 943 l-48 123 18 77 c10 42 20
136 22 211 l5 135 -29 41 c-34 51 -73 84 -138 119 -27 14 -56 32 -65 39 -8 8
-30 21 -49 31 -29 14 -40 15 -73 6 -44 -14 -71 -8 -100 21 -19 19 -28 20 -145
13 -120 -7 -125 -6 -139 14 -19 27 -44 27 -78 0z m61 -25 c2 -6 -9 -14 -26
-17 -28 -6 -37 -14 -116 -102 l-35 -40 -21 25 c-15 17 -29 24 -48 22 -19 -2
-22 0 -12 6 19 13 4 34 -19 27 -11 -4 -22 0 -27 10 -12 21 -33 11 -63 -29 -18
-24 -36 -36 -61 -40 -50 -8 -123 -74 -145 -131 -17 -47 -34 -51 -34 -9 0 29
-24 32 -54 7 -19 -17 -19 -16 2 20 12 21 22 48 22 60 0 33 10 43 74 82 64 39
79 41 116 20 35 -20 36 -20 89 30 43 40 50 43 61 29 34 -39 99 -53 86 -17 -5
13 3 14 53 8 56 -6 60 -5 92 24 34 31 59 36 66 15z m297 -39 c9 -14 26 -25 39
-25 20 -1 19 -3 -9 -18 -62 -35 -104 -75 -129 -125 -36 -73 -34 -94 10 -103
25 -4 40 -15 50 -35 19 -36 19 -39 -2 -39 -20 0 -53 -28 -53 -47 0 -7 -4 -13
-10 -13 -5 0 -10 13 -10 28 0 49 -37 67 -72 35 -14 -13 -18 -13 -18 -2 0 8
-13 26 -29 41 -26 25 -30 26 -42 11 -8 -8 -15 -42 -16 -75 -3 -68 8 -78 55
-54 30 15 30 15 51 -19 32 -55 84 -63 132 -19 14 12 18 12 34 -6 26 -28 65
-27 65 3 0 49 -13 97 -26 97 -24 0 -15 16 36 64 48 45 61 54 59 39 -4 -22 3
-35 25 -44 l24 -11 -20 -34 c-13 -23 -18 -43 -14 -60 9 -36 35 -27 69 24 26
39 31 42 46 29 37 -33 75 -25 92 20 22 58 -40 143 -104 143 l-32 0 24 19 24
18 -21 34 c-30 49 -62 77 -107 92 l-40 14 32 7 c40 9 90 -15 98 -47 3 -12 23
-31 43 -42 25 -14 36 -26 34 -39 -2 -11 4 -20 17 -23 16 -4 21 -13 21 -38 0
-18 7 -38 15 -45 13 -11 15 -6 15 31 l1 44 19 -24 c43 -51 38 -101 -16 -161
-98 -109 -351 -180 -640 -180 -160 0 -304 17 -297 35 12 34 -51 103 -83 91 -8
-3 -14 -2 -14 3 0 17 14 19 41 6 43 -23 68 -19 87 14 14 25 22 29 57 28 39 -2
40 -1 43 36 3 34 6 37 33 37 27 0 29 -2 29 -40 0 -27 7 -47 20 -60 39 -39 55
-20 55 65 0 57 1 60 23 57 59 -8 92 55 56 107 -16 23 -16 24 7 42 13 10 43 25
67 34 49 19 51 27 17 49 -27 18 -33 41 -12 49 6 3 40 6 73 6 55 1 63 -2 78
-24z m-274 -154 c17 -12 25 -28 25 -47 0 -27 -3 -29 -37 -28 -31 1 -38 -3 -49
-27 -7 -18 -9 -47 -4 -76 5 -37 4 -45 -5 -36 -14 13 -18 90 -6 116 7 15 5 16
-19 7 -14 -5 -40 -10 -56 -10 -34 0 -39 23 -13 71 29 57 108 72 164 30z m-695
11 c-6 -4 -22 -23 -35 -42 -23 -32 -25 -42 -23 -150 4 -255 72 -439 214 -580
78 -78 165 -131 274 -167 74 -25 93 -27 250 -28 151 0 178 3 245 23 100 31
180 78 265 153 70 63 85 81 136 174 27 48 28 49 37 25 102 -268 205 -563 266
-755 92 -293 88 -272 90 -472 l2 -184 -25 -6 c-13 -3 -103 -2 -200 3 -198 10
-175 10 -671 -10 -714 -29 -793 -30 -1035 -7 -375 35 -617 44 -1080 40 -721
-5 -839 -3 -995 15 -174 21 -314 41 -432 62 l-88 16 0 123 c0 112 3 134 39
261 75 264 237 714 452 1259 l100 255 1112 0 c612 0 1107 -4 1102 -8z m1253
-105 c29 -30 38 -79 19 -95 -11 -10 -19 -8 -40 8 -15 12 -47 28 -72 36 -57 20
-64 32 -34 55 35 27 100 25 127 -4z m-1039 -76 l24 -16 -29 -6 c-16 -4 -37
-10 -47 -14 -14 -6 -18 -1 -23 24 -4 17 -12 31 -18 32 -6 0 -2 4 9 8 20 8 37
3 84 -28z m135 -5 c8 -19 22 -39 33 -45 34 -20 -7 -11 -50 10 -45 23 -103 66
-76 56 9 -3 22 -1 30 4 28 17 49 9 63 -25z m-274 -13 c0 -13 5 -33 11 -45 10
-18 9 -18 -20 3 -17 13 -38 33 -46 45 -14 21 -13 23 8 26 34 6 47 -2 47 -29z
m1099 4 c-13 -13 -29 -32 -36 -43 -7 -11 -12 -14 -12 -6 -1 14 52 72 65 72 4
0 -4 -10 -17 -23z m-349 -26 c0 -5 -7 -12 -16 -15 -24 -9 -28 -7 -14 9 14 17
30 20 30 6z m-681 -129 c132 -61 350 -102 541 -102 253 0 517 65 638 157 l45
35 -6 -58 c-9 -86 -33 -169 -71 -249 -113 -239 -362 -372 -660 -352 -188 13
-317 68 -437 187 -109 107 -169 242 -193 429 l-7 54 38 -33 c21 -18 71 -49
112 -68z m81 53 c5 -14 15 -25 21 -25 7 0 10 -2 7 -5 -3 -3 -31 5 -64 17 -52
20 -55 23 -34 29 46 13 60 9 70 -16z m40 15 c0 -5 -2 -10 -4 -10 -3 0 -8 5
-11 10 -3 6 -1 10 4 10 6 0 11 -4 11 -10z m65 -18 c19 -13 46 -62 35 -62 -19
0 -100 22 -100 27 0 6 43 42 50 43 3 0 10 -4 15 -8z m670 -2 c3 -5 -1 -10 -9
-10 -8 0 -18 5 -21 10 -3 6 1 10 9 10 8 0 18 -4 21 -10z"/>
<path d="M3538 2218 c-18 -15 -48 -59 -48 -70 0 -17 25 -7 46 19 l21 27 16
-31 c21 -40 40 -46 70 -22 28 21 53 25 59 7 2 -6 10 -8 16 -4 9 5 9 13 2 27
-13 23 -62 26 -80 4 -18 -22 -26 -19 -49 20 -22 38 -29 41 -53 23z"/>
<path d="M1400 2439 c-135 -12 -220 -34 -331 -87 -165 -78 -296 -198 -341
-311 -29 -76 -35 -191 -13 -267 57 -200 250 -353 540 -430 56 -15 107 -19 255
-19 171 0 192 2 283 28 508 141 684 565 360 867 -101 94 -258 173 -399 199
-122 23 -242 30 -354 20z m375 -78 c216 -58 401 -193 461 -336 99 -239 -73
-499 -401 -604 -366 -118 -813 -18 -995 223 -173 229 -81 496 222 645 90 45
197 79 293 94 17 3 100 4 185 2 119 -2 173 -8 235 -24z"/>
<path d="M1850 2225 c-15 -9 -54 -14 -97 -15 -47 0 -99 -8 -150 -24 -43 -14
-136 -34 -206 -46 -149 -25 -255 -51 -318 -79 -30 -14 -57 -18 -84 -15 -43 6
-105 -23 -105 -49 0 -49 33 -112 89 -172 33 -36 67 -78 75 -94 24 -46 146
-141 241 -188 l90 -45 145 6 c156 5 316 33 386 67 38 18 64 52 64 83 0 7 14
56 31 107 30 91 31 98 25 218 -7 149 -20 182 -90 229 -54 36 -61 37 -96 17z
m88 -55 c44 -32 44 -32 62 -153 14 -96 8 -154 -32 -277 -38 -119 -39 -122 -71
-138 -72 -35 -380 -80 -470 -68 -55 8 -197 75 -232 110 -13 13 -38 34 -55 46
-17 12 -43 41 -57 64 -15 22 -50 66 -79 96 -58 62 -89 134 -63 151 8 5 37 9
65 9 30 0 71 9 97 20 60 27 172 54 328 79 69 12 152 30 185 42 41 14 83 20
137 20 55 -1 85 4 100 14 30 21 38 19 85 -15z"/>
<path d="M1413 2066 c4 -14 47 -21 47 -8 0 5 -11 12 -25 15 -16 3 -24 0 -22
-7z"/>
<path d="M1780 2071 c0 -5 14 -9 30 -9 17 1 30 5 30 10 0 4 -13 8 -30 8 -16 0
-30 -4 -30 -9z"/>
<path d="M1165 1960 c3 -5 15 -10 26 -10 10 0 19 5 19 10 0 6 -12 10 -26 10
-14 0 -23 -4 -19 -10z"/>
<path d="M1640 1894 c0 -11 34 -33 50 -33 10 0 8 6 -9 19 -23 20 -41 26 -41
14z"/>
<path d="M1240 1761 c0 -14 50 -51 68 -51 11 0 4 11 -18 30 -37 31 -50 36 -50
21z"/>
<path d="M1848 1737 c-16 -13 -28 -26 -28 -30 0 -13 57 21 63 38 9 21 -3 18
-35 -8z"/>
<path d="M1518 1622 c-44 -4 -52 -22 -10 -22 26 0 62 15 52 22 -3 2 -22 2 -42
0z"/>
<path d="M2878 2060 c-9 -6 -28 -31 -42 -57 -15 -26 -52 -82 -83 -125 l-56
-78 -138 0 c-76 0 -150 -5 -166 -11 -95 -36 -159 -189 -98 -237 23 -18 24 -26
33 -180 7 -150 10 -163 31 -186 75 -80 347 -80 422 0 22 23 24 37 35 222 10
163 15 205 33 242 30 66 28 103 -9 132 l-30 24 70 92 c47 63 70 102 70 120 0
46 -32 65 -72 42z m42 -36 c0 -23 -247 -344 -264 -344 -3 0 35 55 84 122 50
67 104 145 121 175 17 29 37 53 45 53 8 0 14 -3 14 -6z m-470 -261 c-8 -3 -32
-14 -53 -23 -20 -10 -34 -14 -31 -8 8 13 64 37 84 37 13 -1 13 -1 0 -6z m382
-17 c9 -13 9 -25 0 -47 -6 -13 -12 -10 -38 17 -21 23 -27 37 -20 44 11 11 47
3 58 -14z m-182 -6 c0 -5 -24 -10 -53 -10 -74 0 -164 -18 -212 -42 l-40 -21
19 21 c16 19 71 42 131 55 40 9 155 7 155 -3z m126 -41 c19 -21 19 -21 -9 -8
-15 7 -27 16 -27 21 0 14 16 9 36 -13z m-174 -22 c-12 -13 -22 -27 -22 -31 0
-16 103 1 116 19 13 18 43 16 74 -5 13 -9 12 -13 -8 -30 -34 -28 -85 -41 -183
-47 -84 -5 -167 10 -209 37 -40 26 86 79 189 80 l64 0 -21 -23z m-228 -88 l31
-19 -41 0 c-49 0 -69 19 -60 56 l7 27 16 -22 c8 -13 29 -31 47 -42z m412 -81
c-3 -29 -8 -106 -12 -171 -6 -109 -8 -118 -30 -136 -69 -54 -287 -53 -349 2
-23 21 -25 30 -31 175 l-7 152 179 0 c130 1 187 5 209 15 45 20 47 19 41 -37z"/>
<path d="M4565 858 c-44 -5 -312 -7 -595 -6 -950 5 -1258 1 -1525 -15 -143 -9
-318 -19 -390 -23 -152 -7 -800 11 -1130 31 -341 22 -635 17 -635 -10 0 -9 85
-14 348 -19 191 -3 412 -10 492 -15 80 -6 330 -13 555 -17 326 -5 458 -3 645
10 496 33 792 40 1150 26 223 -9 462 -11 710 -7 404 8 470 12 470 33 0 20 -8
21 -95 12z"/>
</g>
</svg>
