<?xml version="1.0" standalone="no"?>
<!DOCTYPE svg PUBLIC "-//W3C//DTD SVG 20010904//EN"
 "http://www.w3.org/TR/2001/REC-SVG-20010904/DTD/svg10.dtd">
<svg version="1.0" xmlns="http://www.w3.org/2000/svg"
 width="500.000000pt" height="500.000000pt" viewBox="0 0 500.000000 500.000000"
 preserveAspectRatio="xMidYMid meet">

<g transform="translate(0.000000,500.000000) scale(0.100000,-0.100000)"
fill="#000000" stroke="none">
<path d="M743 4900 c-86 -51 -128 -87 -128 -111 0 -18 6 -25 26 -27 23 -3 28
-10 42 -65 9 -34 18 -84 20 -112 4 -37 11 -55 31 -72 l26 -22 0 -328 c0 -180
-3 -338 -6 -350 l-6 -22 -335 1 c-339 1 -363 -2 -350 -36 6 -14 45 -16 330
-16 l324 0 -2 -49 c-1 -28 -8 -57 -15 -66 -16 -19 -31 -102 -33 -184 -2 -51 0
-56 23 -62 14 -4 63 -7 110 -7 47 0 96 3 110 7 23 6 25 11 23 62 -2 82 -17
165 -33 184 -7 9 -14 39 -14 66 l-1 49 127 0 127 0 -6 -48 c-3 -26 0 -75 7
-107 34 -165 146 -287 308 -336 37 -11 43 -16 40 -37 -6 -50 -25 -52 -744 -52
-573 0 -663 -2 -674 -15 -7 -8 -10 -22 -6 -30 5 -13 88 -15 658 -18 l653 -2
-653 -3 c-582 -2 -653 -4 -659 -18 -3 -8 -1 -20 4 -25 6 -6 248 -9 636 -9 345
0 627 -2 627 -5 0 -9 -86 -178 -170 -335 l-77 -145 14 -225 c13 -217 13 -306
-2 -361 -19 -72 52 -179 118 -179 94 0 137 143 63 207 -22 19 -26 31 -26 75 0
29 -5 143 -11 253 l-12 200 79 148 79 148 8 -108 c14 -192 2 -715 -22 -1028
-22 -274 -25 -292 -48 -323 l-24 -32 -615 0 c-549 0 -615 -2 -621 -16 -3 -8
-1 -20 4 -25 6 -6 233 -9 597 -9 556 0 587 -1 584 -17 -3 -17 -38 -18 -584
-21 -499 -2 -583 -4 -594 -17 -7 -8 -10 -22 -6 -30 5 -13 77 -15 564 -17 l559
-3 -158 -215 c-136 -184 -158 -220 -159 -252 0 -55 7 -65 84 -122 196 -145
221 -153 282 -92 61 61 44 117 -57 192 -32 24 -48 42 -45 51 3 8 77 111 163
229 l157 214 206 0 206 0 33 -308 c20 -178 39 -318 47 -334 8 -15 28 -35 45
-43 28 -15 42 -14 177 5 162 23 188 34 210 92 19 49 -3 101 -52 125 -30 14
-46 15 -113 5 -43 -6 -78 -10 -79 -9 -1 1 -11 92 -23 202 -12 110 -24 215 -27
233 l-5 32 901 0 900 0 0 -50 0 -50 -274 0 c-229 0 -276 -2 -286 -15 -7 -8
-34 -183 -62 -396 -38 -295 -46 -384 -37 -395 10 -12 129 -14 774 -14 685 0
764 2 776 16 11 13 5 77 -36 392 -33 264 -53 382 -63 395 -14 15 -40 17 -279
17 l-263 0 0 50 0 50 377 2 c361 3 378 4 381 22 2 10 -2 22 -10 27 -7 5 -179
9 -381 9 -346 0 -368 1 -365 17 3 17 30 18 381 21 l378 2 -3 23 -3 22 -375 5
-375 5 -2 823 -3 822 43 0 c23 0 83 5 132 11 306 38 572 197 647 389 27 69 34
188 16 250 -12 39 -12 49 1 72 15 26 15 29 -6 50 -21 21 -25 21 -60 9 -71 -25
-78 -44 -41 -114 32 -62 32 -174 -1 -242 -53 -108 -188 -212 -349 -269 -343
-122 -821 -38 -1008 177 -43 50 -84 131 -84 168 0 47 -28 67 -115 84 -259 52
-475 185 -551 340 -38 79 -44 179 -15 257 68 179 297 328 581 378 36 6 75 13
87 16 11 2 37 26 56 52 167 234 760 283 1051 88 55 -37 77 -45 148 -56 45 -6
120 -24 166 -40 89 -30 106 -30 123 2 8 14 7 25 -5 42 -17 27 -140 69 -256 88
-57 9 -89 21 -133 49 -127 82 -316 129 -522 129 -276 0 -508 -82 -628 -221
-29 -34 -50 -49 -67 -49 -82 0 -302 -77 -422 -147 -78 -45 -204 -171 -241
-240 -66 -124 -67 -268 -2 -395 l34 -67 -369 1 -369 1 -30 62 c-39 79 -121
156 -206 196 -205 96 -458 4 -560 -205 l-27 -55 -148 1 -148 0 -6 30 c-3 17
-6 174 -6 350 l0 319 26 22 c20 17 27 36 34 87 4 36 14 86 21 112 11 39 17 48
38 50 20 2 26 9 26 27 0 26 -54 72 -129 111 -48 24 -71 24 -113 0z m107 -60
c10 -7 -5 -10 -50 -9 -45 0 -59 3 -45 9 27 12 77 12 95 0z m20 -59 c0 -4 -4
-21 -10 -37 -5 -16 -14 -48 -20 -71 -9 -38 -14 -43 -39 -43 -26 0 -30 5 -45
63 -10 34 -20 70 -22 80 -5 15 3 17 65 17 39 0 71 -4 71 -9z m-30 -205 c0 -18
-38 -28 -62 -15 -30 16 -20 29 22 29 27 0 40 -4 40 -14z m860 -603 c113 -50
182 -147 201 -280 7 -55 17 -85 32 -101 l21 -22 -43 -36 c-23 -20 -50 -53 -60
-73 -26 -49 -66 -86 -126 -113 -41 -18 -68 -23 -150 -23 -87 0 -107 3 -155 26
-77 36 -121 77 -161 151 -32 59 -34 69 -34 158 0 84 3 102 28 151 81 166 278
237 447 162z m-879 -250 c7 -20 7 -33 0 -45 -18 -29 -13 -55 14 -76 19 -16 25
-29 25 -61 0 -23 7 -53 16 -66 9 -13 13 -29 9 -35 -3 -5 -41 -10 -86 -10 -77
0 -79 1 -79 24 0 14 5 28 10 31 6 3 10 27 10 52 0 36 5 49 25 65 26 21 33 56
14 75 -9 9 -9 20 1 42 15 38 27 39 41 4z m1982 -29 c101 -91 269 -173 427
-209 103 -23 100 -22 100 -43 0 -45 71 -161 136 -221 l65 -61 -948 2 -948 3
-3 38 c-3 31 0 37 16 37 11 0 49 9 85 20 75 23 150 84 191 155 14 24 45 57 69
72 53 36 61 80 24 135 -14 19 -26 54 -29 77 l-4 41 384 0 384 0 51 -46z m355
-601 c-269 -2 -707 -2 -975 0 -269 1 -49 2 487 2 536 0 756 -1 488 -2z m667
-67 l50 -13 3 -842 2 -841 -905 0 c-853 0 -906 1 -912 18 -4 9 -96 188 -205
398 l-198 381 2 274 3 274 34 -130 c32 -125 38 -138 154 -335 66 -113 127
-214 136 -225 9 -11 25 -37 36 -59 59 -116 215 -114 215 4 0 71 -45 127 -126
159 -24 10 -50 45 -137 191 l-106 180 -76 283 c-41 155 -75 286 -75 290 0 4
462 7 1028 7 816 -1 1037 -4 1077 -14z m-1681 -1037 c32 -25 37 -79 8 -79 -22
0 -72 50 -72 71 0 35 26 38 64 8z m-920 -42 c23 -17 19 -80 -6 -85 -19 -4 -58
51 -58 81 0 21 38 23 64 4z m490 -385 c64 -122 116 -225 116 -227 0 -3 -61 -5
-135 -5 l-135 0 0 33 c0 17 7 113 15 212 8 99 15 189 15 199 0 11 2 17 4 15 1
-2 55 -104 120 -227z m144 -304 c3 -17 -11 -18 -180 -18 l-183 1 24 20 c22 18
36 19 180 17 139 -3 156 -5 159 -20z m2022 2 c0 -20 -7 -20 -905 -20 -898 0
-905 0 -905 20 0 20 7 20 905 20 898 0 905 0 905 -20z m0 -484 l0 -204 25 -16
c38 -25 168 -22 206 5 l29 20 0 200 0 199 230 0 c175 0 230 -3 230 -12 0 -15
67 -538 75 -585 l6 -33 -681 0 -680 0 0 21 c0 26 70 579 75 597 3 9 61 12 245
12 l240 0 0 -204z"/>
<path d="M1752 3734 c-27 -18 -28 -45 -4 -67 24 -22 45 -21 65 1 22 24 21 38
-3 62 -24 24 -29 24 -58 4z"/>
</g>
</svg>
