<?xml version="1.0" standalone="no"?>
<!DOCTYPE svg PUBLIC "-//W3C//DTD SVG 20010904//EN"
 "http://www.w3.org/TR/2001/REC-SVG-20010904/DTD/svg10.dtd">
<svg version="1.0" xmlns="http://www.w3.org/2000/svg"
 width="500.000000pt" height="500.000000pt" viewBox="0 0 500.000000 500.000000"
 preserveAspectRatio="xMidYMid meet">

<g transform="translate(0.000000,500.000000) scale(0.100000,-0.100000)"
fill="#000000" stroke="none">
<path d="M3940 4086 c-89 -24 -151 -79 -320 -281 -50 -60 -122 -136 -158 -168
-145 -127 -331 -230 -485 -269 l-82 -21 -390 19 c-513 25 -954 25 -1048 1
-162 -41 -374 -133 -692 -300 -256 -134 -302 -163 -386 -247 -142 -141 -193
-298 -212 -659 -4 -63 -2 -76 15 -93 22 -22 44 -18 102 19 86 56 129 124 171
274 35 124 61 162 122 184 114 41 191 84 252 141 39 36 61 51 58 39 -26 -80
-31 -154 -33 -450 -2 -365 -2 -369 -88 -485 -27 -36 -55 -79 -62 -97 -39 -92
16 -441 97 -610 44 -92 66 -106 205 -131 183 -33 224 -32 259 3 53 52 22 125
-84 198 -68 46 -161 137 -181 178 -49 95 -46 229 8 343 25 53 50 81 168 189
270 245 395 424 448 639 19 77 26 94 43 96 12 2 86 -31 164 -72 326 -170 852
-369 1102 -417 105 -20 117 -24 117 -43 0 -12 -7 -105 -16 -206 -20 -232 -22
-578 -5 -680 7 -41 22 -97 33 -123 19 -43 30 -53 112 -102 l92 -55 145 0 c99
0 149 4 157 12 16 16 15 53 -2 87 -22 42 -129 136 -201 176 -53 30 -66 43 -74
70 -5 19 -8 42 -6 52 28 130 92 368 156 573 43 140 93 311 110 380 29 119 34
128 79 176 98 103 153 213 215 424 46 157 74 205 176 305 156 152 181 179 201
220 11 22 21 41 22 42 0 0 35 -5 76 -12 111 -20 236 -19 285 4 22 10 72 49
110 87 56 55 74 80 88 124 32 100 34 115 23 150 -17 51 -51 70 -144 79 -95 10
-146 33 -245 110 -150 118 -347 168 -497 127z m180 -95 c91 -15 160 -47 255
-117 110 -81 147 -100 236 -123 87 -22 105 -42 89 -100 -8 -29 -27 -54 -73
-95 -73 -66 -103 -73 -227 -56 -130 17 -130 17 -130 54 0 103 -169 426 -222
426 -49 0 -189 -130 -226 -209 -20 -44 -24 -64 -20 -115 6 -70 59 -235 111
-346 l35 -75 -53 -56 c-67 -70 -105 -146 -151 -300 -59 -200 -109 -297 -205
-395 -50 -52 -51 -55 -89 -201 -38 -148 -70 -256 -153 -519 -25 -78 -50 -168
-57 -200 -7 -33 -23 -99 -36 -149 -31 -117 -31 -168 2 -233 22 -44 36 -57 102
-95 42 -25 86 -54 96 -66 l19 -21 -59 0 c-52 0 -69 5 -131 43 -52 30 -76 50
-83 71 -43 122 -38 498 14 1013 3 27 -2 34 -28 47 -17 8 -67 20 -111 26 -281
40 -809 239 -1218 458 -86 46 -153 55 -206 28 -40 -21 -56 -51 -74 -140 -42
-203 -156 -362 -465 -645 -97 -89 -117 -114 -147 -175 -43 -91 -59 -176 -52
-276 10 -147 76 -248 245 -375 29 -22 49 -41 45 -42 -4 -1 -57 7 -118 20
l-110 22 -31 63 c-34 69 -65 185 -89 332 -24 153 -24 156 49 262 102 149 100
143 102 498 2 382 18 497 86 583 90 115 91 237 1 239 -48 1 -85 -28 -148 -120
-113 -165 -185 -226 -315 -273 -135 -48 -177 -97 -225 -268 -28 -99 -47 -145
-67 -157 -17 -11 -3 153 21 247 39 153 120 267 250 353 99 66 638 335 761 380
174 63 214 69 495 68 137 -1 404 -8 595 -18 530 -25 604 -18 803 82 189 94
358 230 490 394 86 106 187 209 222 228 56 29 114 36 195 23z m-28 -202 c59
-103 88 -177 95 -246 7 -69 -28 -144 -105 -220 l-55 -56 -33 65 c-38 76 -102
263 -110 322 -5 32 -1 53 16 87 23 45 118 141 134 136 6 -2 31 -41 58 -88z"/>
<path d="M4301 3831 c-13 -24 8 -55 34 -50 28 6 42 34 26 53 -18 22 -48 20
-60 -3z"/>
</g>
</svg>
