<?xml version="1.0" standalone="no"?>
<!DOCTYPE svg PUBLIC "-//W3C//DTD SVG 20010904//EN"
 "http://www.w3.org/TR/2001/REC-SVG-20010904/DTD/svg10.dtd">
<svg version="1.0" xmlns="http://www.w3.org/2000/svg"
 width="500.000000pt" height="500.000000pt" viewBox="0 0 500.000000 500.000000"
 preserveAspectRatio="xMidYMid meet">

<g transform="translate(0.000000,500.000000) scale(0.100000,-0.100000)"
fill="#000000" stroke="none">
<path d="M2215 4706 c-109 -35 -233 -124 -368 -266 -55 -57 -104 -96 -161
-129 -134 -77 -242 -165 -406 -330 -217 -218 -373 -429 -529 -716 -105 -192
-148 -296 -167 -407 -22 -121 -14 -165 57 -309 27 -56 48 -103 47 -104 -2 -1
-18 -7 -36 -15 -42 -16 -72 -55 -72 -92 0 -25 37 -68 242 -280 134 -138 359
-362 500 -497 l258 -246 0 -105 c0 -152 17 -417 35 -548 27 -198 72 -308 147
-362 l41 -30 196 0 c714 1 1579 67 1660 128 31 23 33 31 71 302 16 118 44 306
62 417 l32 201 75 67 c150 132 219 234 295 437 54 144 68 223 68 378 0 74 -2
140 -4 147 -1 6 13 22 32 35 82 56 120 142 120 273 l0 63 -225 136 c-123 75
-238 139 -254 142 -77 16 -199 -89 -227 -194 -11 -43 -12 -37 -7 64 21 427
-220 829 -610 1014 -140 67 -242 91 -404 97 -160 6 -252 -4 -378 -44 -354
-112 -631 -412 -715 -778 -11 -50 -28 -106 -36 -127 -16 -36 -16 -38 45 -220
60 -182 101 -322 101 -345 0 -16 -46 -2 -315 94 l-210 75 -63 -22 c-35 -12
-65 -21 -66 -19 -2 2 -23 42 -46 88 -36 72 -41 91 -36 127 16 117 235 498 415
722 101 125 315 332 415 401 l79 54 106 2 c132 1 196 24 276 97 103 94 193
284 202 428 4 65 1 81 -19 120 -40 77 -127 107 -223 76z m50 -253 c-22 -76
-78 -182 -117 -222 -38 -39 -71 -57 -120 -66 -35 -7 -37 -5 -57 34 -35 67 -30
80 62 167 86 84 155 136 210 159 41 17 45 6 22 -72z m561 -718 c156 -40 311
-131 420 -248 220 -236 283 -565 168 -877 -30 -79 -122 -226 -173 -274 l-31
-29 -82 22 c-214 58 -576 189 -707 256 l-51 25 20 22 c55 59 39 167 -30 203
-16 8 -49 15 -74 15 -56 0 -110 -42 -123 -96 l-8 -35 -83 50 c-72 43 -182 119
-261 180 -24 18 -24 19 -11 97 67 424 442 729 866 709 56 -3 128 -12 160 -20z
m1250 -1027 c143 -86 153 -94 147 -118 -14 -61 -81 -93 -152 -72 -20 6 -62 35
-94 63 -61 54 -97 111 -97 154 0 28 19 65 34 65 5 0 78 -42 162 -92z m-370
-34 c8 -32 24 -74 35 -93 11 -19 16 -37 12 -41 -16 -15 -157 -100 -160 -96 -2
1 8 28 23 60 14 31 35 96 47 145 12 49 23 88 25 87 1 -2 9 -30 18 -62z"/>
<path d="M2969 2877 c-70 -47 -76 -144 -12 -204 30 -29 41 -33 88 -33 47 0 58
4 88 33 90 84 34 227 -88 227 -27 0 -54 -8 -76 -23z"/>
</g>
</svg>
